<svg xmlns="http://www.w3.org/2000/svg" xmlns:xlink="http://www.w3.org/1999/xlink" width="400" height="235" viewBox="0 0 400 235">
  <defs>
    <linearGradient id="linear-gradient" x1="0.5" x2="0.5" y2="1" gradientUnits="objectBoundingBox">
      <stop offset="0" stop-color="#5f9025"/>
      <stop offset="1" stop-color="#78b62e"/>
    </linearGradient>
  </defs>
  <g id="Grupo_134478" data-name="Grupo 134478" transform="translate(-600 -404)">
    <rect id="Rectángulo_33754" data-name="Rectángulo 33754" width="400" height="235" transform="translate(600 404)" fill="#bada95"/>
    <g id="Grupo_134477" data-name="Grupo 134477" transform="translate(447.207 166.765)">
      <g id="Grupo_134264" data-name="Grupo 134264" transform="translate(152.794 237.236)">
        <path id="Trazado_147555" data-name="Trazado 147555" d="M524.82,452.932c-21.064,0-337.294.075-337.472-.474l-.03-.069a.371.371,0,0,1-.03-.1c-.117-.275-60.894-24.755-20.831-79.514,21-28.7-16.486-72.635,28.141-111.4,69.932-60.753,136.669,14.078,164.958,0,23.777-11.833,61.988-28.789,100.774-13.584,10.657,4.178,33.735,25.134,14.57,60.377-9.576,17.61,32.917,19.654,48.461,38.364C557.211,387.27,537.416,452.932,524.82,452.932Z" transform="translate(-152.794 -237.236)" fill="#e9f3dd"/>
      </g>
      <g id="Grupo_134357" data-name="Grupo 134357" transform="translate(475.703 388.365)">
        <g id="Grupo_134352" data-name="Grupo 134352" transform="translate(24.581 0)">
          <rect id="Rectángulo_35809" data-name="Rectángulo 35809" width="10.193" height="32.883" transform="translate(10.193 32.883) rotate(180)" fill="#35488b"/>
        </g>
        <g id="Grupo_134353" data-name="Grupo 134353" transform="translate(0 0)">
          <rect id="Rectángulo_35810" data-name="Rectángulo 35810" width="24.581" height="32.883" transform="translate(24.581 32.883) rotate(180)" fill="#2c3a64"/>
        </g>
        <g id="Grupo_134354" data-name="Grupo 134354" transform="translate(27.976 2.406)">
          <path id="Trazado_147599" data-name="Trazado 147599" d="M2382.318,1213.007a1.7,1.7,0,1,0-1.7,1.7A1.7,1.7,0,0,0,2382.318,1213.007Z" transform="translate(-2378.916 -1211.306)" fill="#dde7fe"/>
        </g>
        <g id="Grupo_134355" data-name="Grupo 134355" transform="translate(28.475 2.904)">
          <path id="Trazado_147600" data-name="Trazado 147600" d="M2384.484,1215.671a1.2,1.2,0,1,0-1.2,1.2A1.2,1.2,0,0,0,2384.484,1215.671Z" transform="translate(-2382.078 -1214.468)" fill="#6c7aff"/>
        </g>
        <g id="Grupo_134356" data-name="Grupo 134356" transform="translate(27.243 8.206)">
          <rect id="Rectángulo_35811" data-name="Rectángulo 35811" width="4.794" height="8.661" transform="translate(4.794 8.661) rotate(180)" fill="#8fadef"/>
        </g>
      </g>
      <g id="Grupo_134363" data-name="Grupo 134363" transform="translate(456.688 388.365)">
        <g id="Grupo_134358" data-name="Grupo 134358" transform="translate(24.581 0)">
          <rect id="Rectángulo_35812" data-name="Rectángulo 35812" width="10.193" height="32.883" transform="translate(10.193 32.883) rotate(180)" fill="#35488b"/>
        </g>
        <g id="Grupo_134359" data-name="Grupo 134359" transform="translate(0 0)">
          <rect id="Rectángulo_35813" data-name="Rectángulo 35813" width="24.581" height="32.883" transform="translate(24.581 32.883) rotate(180)" fill="#2c3a64"/>
        </g>
        <g id="Grupo_134360" data-name="Grupo 134360" transform="translate(27.976 2.406)">
          <path id="Trazado_147601" data-name="Trazado 147601" d="M2261.68,1213.007a1.7,1.7,0,1,0-1.7,1.7A1.7,1.7,0,0,0,2261.68,1213.007Z" transform="translate(-2258.277 -1211.306)" fill="#dde7fe"/>
        </g>
        <g id="Grupo_134361" data-name="Grupo 134361" transform="translate(28.475 2.904)">
          <path id="Trazado_147602" data-name="Trazado 147602" d="M2263.846,1215.671a1.2,1.2,0,1,0-1.2,1.2A1.2,1.2,0,0,0,2263.846,1215.671Z" transform="translate(-2261.44 -1214.468)" fill="#6c7aff"/>
        </g>
        <g id="Grupo_134362" data-name="Grupo 134362" transform="translate(27.243 8.206)">
          <rect id="Rectángulo_35814" data-name="Rectángulo 35814" width="4.794" height="8.661" transform="translate(4.794 8.661) rotate(180)" fill="#8fadef"/>
        </g>
      </g>
      <g id="Grupo_134369" data-name="Grupo 134369" transform="translate(439.301 388.365)">
        <g id="Grupo_134364" data-name="Grupo 134364" transform="translate(24.581 0)">
          <rect id="Rectángulo_35815" data-name="Rectángulo 35815" width="10.193" height="32.883" transform="translate(10.193 32.883) rotate(180)" fill="#35488b"/>
        </g>
        <g id="Grupo_134365" data-name="Grupo 134365" transform="translate(0 0)">
          <rect id="Rectángulo_35816" data-name="Rectángulo 35816" width="24.581" height="32.883" transform="translate(24.581 32.883) rotate(180)" fill="#2c3a64"/>
        </g>
        <g id="Grupo_134366" data-name="Grupo 134366" transform="translate(27.976 2.406)">
          <path id="Trazado_147603" data-name="Trazado 147603" d="M2151.372,1213.007a1.7,1.7,0,1,0-1.7,1.7A1.7,1.7,0,0,0,2151.372,1213.007Z" transform="translate(-2147.969 -1211.306)" fill="#dde7fe"/>
        </g>
        <g id="Grupo_134367" data-name="Grupo 134367" transform="translate(28.475 2.904)">
          <path id="Trazado_147604" data-name="Trazado 147604" d="M2153.537,1215.671a1.2,1.2,0,1,0-1.2,1.2A1.2,1.2,0,0,0,2153.537,1215.671Z" transform="translate(-2151.131 -1214.468)" fill="#6c7aff"/>
        </g>
        <g id="Grupo_134368" data-name="Grupo 134368" transform="translate(27.243 8.206)">
          <rect id="Rectángulo_35817" data-name="Rectángulo 35817" width="4.794" height="8.661" transform="translate(4.794 8.661) rotate(180)" fill="#8fadef"/>
        </g>
      </g>
      <g id="Grupo_134373" data-name="Grupo 134373" transform="translate(437.77 409.779)">
        <g id="Grupo_134370" data-name="Grupo 134370" transform="translate(0 0)">
          <rect id="Rectángulo_35818" data-name="Rectángulo 35818" width="57.59" height="42.55" transform="translate(57.59 42.55) rotate(180)" fill="url(#linear-gradient)"/>
        </g>
        <g id="Grupo_134371" data-name="Grupo 134371" transform="translate(30.862 0)">
          <rect id="Rectángulo_35819" data-name="Rectángulo 35819" width="45.661" height="42.55" transform="translate(45.661 42.55) rotate(180)" fill="#78b62e"/>
        </g>
        <g id="Grupo_134372" data-name="Grupo 134372" transform="translate(49.05 4.111)">
          <rect id="Rectángulo_35820" data-name="Rectángulo 35820" width="14.49" height="2.835" rx="1.418" transform="translate(14.49 2.835) rotate(180)" fill="#2c3a64"/>
        </g>
      </g>
      <g id="Grupo_134384" data-name="Grupo 134384" transform="translate(266.452 303.737)">
        <g id="Grupo_134374" data-name="Grupo 134374" transform="translate(76.716 49.555)">
          <path id="Trazado_147605" data-name="Trazado 147605" d="M1368.439,974.407l-7.788,92.6s-.816,5.613,3.359,5.623c6.865.016,34.17,0,34.17,0s-5.167-1.168-5.1-3.8c.074-3.1,9.1-95.3,9.1-95.3Z" transform="translate(-1360.586 -973.531)" fill="#171b31"/>
        </g>
        <g id="Grupo_134375" data-name="Grupo 134375" transform="translate(78.961 47.834)">
          <path id="Trazado_147606" data-name="Trazado 147606" d="M1412.746,1061.755c-1.35,0-27.785.049-34.471-.037-2.914-.036-3.425-2.591-3.449-4.244a8.277,8.277,0,0,1,.089-1.378l.2-2.407.516-6.135.456-5.42.586-6.964.493-5.878,5.534-65.8,33.74-.876s-3.8,38.587-6.492,66.676c-.3,3.129-.586,6.13-.85,8.931q-.129,1.342-.248,2.62c-.25,2.657-.477,5.1-.676,7.253-.1,1.136-.2,2.191-.288,3.158-.343,3.788-.544,6.207-.547,6.667a3.887,3.887,0,0,0,.065.75C1407.961,1061.621,1412.239,1061.755,1412.746,1061.755Z" transform="translate(-1374.826 -962.616)" fill="#424b7b"/>
        </g>
        <g id="Grupo_134376" data-name="Grupo 134376" transform="translate(2.629 0)">
          <path id="Trazado_147607" data-name="Trazado 147607" d="M890.558,659.143l18.97,76.2,2.6,10.436,8.835,35.492h164.15l-32.566-122.128Z" transform="translate(-890.558 -659.143)" fill="#293057"/>
        </g>
        <g id="Grupo_134377" data-name="Grupo 134377" transform="translate(0 0)">
          <path id="Trazado_147608" data-name="Trazado 147608" d="M876.505,659.142l-2.629.876,29.538,123.9,3.5-2.651Z" transform="translate(-873.876 -659.142)" fill="#424b7b"/>
        </g>
        <g id="Grupo_134378" data-name="Grupo 134378" transform="translate(29.538 122.129)">
          <path id="Trazado_147609" data-name="Trazado 147609" d="M1061.271,1436.611H1224.41l4.5-2.651H1064.766Z" transform="translate(-1061.271 -1433.96)" fill="#424b7b"/>
        </g>
        <g id="Grupo_134379" data-name="Grupo 134379" transform="translate(86.827 146.973)">
          <rect id="Rectángulo_35821" data-name="Rectángulo 35821" width="35.322" height="1.679" transform="translate(35.322 1.679) rotate(180)" fill="#424b7b"/>
        </g>
        <g id="Grupo_134380" data-name="Grupo 134380" transform="translate(79.769 124.779)">
          <path id="Trazado_147610" data-name="Trazado 147610" d="M1413.354,1450.772l-.182,1.283-33.219,6.711.456-5.42.217-2.575Z" transform="translate(-1379.953 -1450.772)" fill="#293057"/>
        </g>
        <g id="Grupo_134381" data-name="Grupo 134381" transform="translate(78.962 136.472)">
          <path id="Trazado_147611" data-name="Trazado 147611" d="M1412.751,1535.461c-1.35,0-27.785.049-34.471-.037-2.914-.036-3.425-2.591-3.449-4.244l33.062-6.22c-.343,3.788-.544,6.207-.547,6.667a3.888,3.888,0,0,0,.066.75C1407.966,1535.327,1412.245,1535.461,1412.751,1535.461Z" transform="translate(-1374.832 -1524.96)" fill="#293057"/>
        </g>
        <g id="Grupo_134382" data-name="Grupo 134382" transform="translate(2.629 0)">
          <path id="Trazado_147612" data-name="Trazado 147612" d="M890.556,659.142h161.987l26.283,98.153H914.991Z" transform="translate(-890.556 -659.142)" fill="#1a203c"/>
        </g>
        <g id="Grupo_134383" data-name="Grupo 134383" transform="translate(9.338 5.258)">
          <path id="Trazado_147613" data-name="Trazado 147613" d="M1107.039,781.143H955.371l-5.42-21.591-2.1-8.354L947,747.792,941.428,725.6l-.288-1.155L938.2,712.719l-1.317-5.248-1.123-4.477-.917-3.651-1.718-6.842H1082.6l1.886,6.842,1.006,3.651,1.234,4.477,1.446,5.248,9.532,34.573v0l.807,2.929.376,1.359,6.58,23.868Z" transform="translate(-933.119 -692.502)" fill="#e8eef3"/>
        </g>
      </g>
      <g id="Grupo_134406" data-name="Grupo 134406" transform="translate(202.859 352.155)">
        <g id="Grupo_134405" data-name="Grupo 134405" transform="translate(0 0)">
          <g id="Grupo_134385" data-name="Grupo 134385" transform="translate(41.74)">
            <path id="Trazado_147614" data-name="Trazado 147614" d="M750.674,970.63s.4-4.311-4.422-4.311a5.656,5.656,0,0,1,2.215,1.188,5.7,5.7,0,0,0-6.416.968c-3.343,2.771-1.266,9.722-2.283,11.042s-4.976,1.584-4.492,5.851,12.566,9.612,11.79,13.143c0,0,4.735-6.96,1.349-10.137a6.275,6.275,0,0,1,1.818,3.4s.448-3.607-1.848-4.761c-2.031-1.021-3.7-4.755-3.52-5.423S750.674,970.63,750.674,970.63Z" transform="translate(-735.235 -966.319)" fill="#2c3a64"/>
          </g>
          <g id="Grupo_134386" data-name="Grupo 134386" transform="translate(47.333 25.011)">
            <path id="Trazado_147615" data-name="Trazado 147615" d="M775.82,1124.994s3.6,14.888,7.131,17.864c2.123,1.789,8.437,5.894,8.437,5.894l-2.626.953s-8.757-2.957-10.717-5.262-7.328-13.855-7.328-13.855Z" transform="translate(-770.716 -1124.994)" fill="#ffb27d"/>
          </g>
          <g id="Grupo_134387" data-name="Grupo 134387" transform="translate(51.26 48.4)">
            <path id="Trazado_147616" data-name="Trazado 147616" d="M817.585,1279.195l-.846-2.094a5.941,5.941,0,0,0-5.508-3.716h-15.6v52.161h64.535v-42.262H823.647A6.537,6.537,0,0,1,817.585,1279.195Z" transform="translate(-795.631 -1273.385)" fill="#78b62e"/>
          </g>
          <g id="Grupo_134388" data-name="Grupo 134388" transform="translate(16.371 37.093)">
            <path id="Trazado_147617" data-name="Trazado 147617" d="M576.528,1215.719l.1.175c.788,1.369,2.594,4.723,4.584,8.393.941,1.741,1.927,3.554,2.862,5.26,1.611,2.944,3.076,5.565,3.931,6.95.87,1.409,1.51,2.4,1.769,2.794l0,0a.656.656,0,0,1,.084.408,21.362,21.362,0,0,0,.057,3.691,28.316,28.316,0,0,0,9.252,18.339l2.394.354s-3.388-12.551-4.386-19.647a13.649,13.649,0,0,1-.183-2.813,29.368,29.368,0,0,0-.773-7.679,172.068,172.068,0,0,0-4.9-17.775c-.112-.347-3.479-12.526-3.479-12.526-2.826,2.47-13.132,3.489-13.132,3.489S572.966,1209.384,576.528,1215.719Z" transform="translate(-574.285 -1201.646)" fill="#2f539b"/>
          </g>
          <g id="Grupo_134389" data-name="Grupo 134389" transform="translate(38.625 95.002)">
            <path id="Trazado_147618" data-name="Trazado 147618" d="M725.519,1574.6h-9.992a5.486,5.486,0,0,1,.282-2.678c.5-1.109,1.213-1.144.091-2.882.635.654,2.676.924,4.12.73a12.246,12.246,0,0,0,1.732,2.637C722.407,1572.874,725.318,1572.707,725.519,1574.6Z" transform="translate(-715.473 -1569.038)" fill="#233862"/>
          </g>
          <g id="Grupo_134390" data-name="Grupo 134390" transform="translate(18.615 45.275)">
            <path id="Trazado_147619" data-name="Trazado 147619" d="M588.518,1259.446l.1.175c.788,1.369,5.047,9.235,7.036,12.9a53.207,53.207,0,0,1-.7-18.971Z" transform="translate(-588.518 -1253.554)" fill="#233862"/>
          </g>
          <g id="Grupo_134391" data-name="Grupo 134391" transform="translate(48.024 3.635)">
            <path id="Trazado_147620" data-name="Trazado 147620" d="M782.894,989.45c.065-.262-5.707,2.609-6,2.934-2.707,3-1.935,6.921-.386,6.959.993.024.8,1.676.8,1.676l11.067-4.682S787.043,988.566,782.894,989.45Z" transform="translate(-775.102 -989.38)" fill="#2c3a64"/>
          </g>
          <g id="Grupo_134392" data-name="Grupo 134392" transform="translate(46.273 22.775)">
            <path id="Trazado_147621" data-name="Trazado 147621" d="M769.817,1110.81s1.684,3.364,1.474,6.095c0,0-2.031,3.206-7.3,4.017C763.993,1120.922,768.521,1110.807,769.817,1110.81Z" transform="translate(-763.993 -1110.81)" fill="#3c6d9d"/>
          </g>
          <g id="Grupo_134393" data-name="Grupo 134393" transform="translate(1.325 35.008)">
            <path id="Trazado_147622" data-name="Trazado 147622" d="M503.9,1194.735l.034-1.869c-3.723.47-12.838-4.449-12.838-4.449s-3.9,2.591-4.428,9.989c-.26,3.611-1.907,18.883-2.089,23.444-.066,1.653-.088,2.833-.1,3.3a.008.008,0,0,1,0,0,.651.651,0,0,1-.158.385,21.317,21.317,0,0,0-2.017,3.092c-5.681,10.571-2.71,24.934-2.71,24.934l1.319-.335s4.8-14.89,7.944-21.33a13.456,13.456,0,0,1,1.422-2.434,29.386,29.386,0,0,0,3.652-6.8C496.258,1217.13,503.9,1194.735,503.9,1194.735Z" transform="translate(-478.825 -1188.417)" fill="#2f539b"/>
          </g>
          <g id="Grupo_134394" data-name="Grupo 134394" transform="translate(0 94.93)">
            <path id="Trazado_147623" data-name="Trazado 147623" d="M480.468,1574.212h-9.992a5.485,5.485,0,0,1,.282-2.678c.5-1.109,1.283-1.612,1.1-2.954a3.6,3.6,0,0,0,3.114,1.192,10.974,10.974,0,0,0,1.734,2.247C477.356,1572.488,480.267,1572.321,480.468,1574.212Z" transform="translate(-470.422 -1568.58)" fill="#233862"/>
          </g>
          <g id="Grupo_134395" data-name="Grupo 134395" transform="translate(13.203 17.112)">
            <path id="Trazado_147624" data-name="Trazado 147624" d="M586.58,1092.8c-1.342.229.219,1.3-1.627,1.5-2.627.287-5.34.483-6.761,1.05a1.527,1.527,0,0,0-.973.788c-.616,1.852-4.517,5.035-4.517,5.035-17.4-.792-18.519-8.546-18.519-8.546,11.292-10.967,20.9-16.944,28.837-17.684a14.121,14.121,0,0,1,5.759.606c2.777,1.236,4.3,5,4.3,5S591.679,1091.934,586.58,1092.8Z" transform="translate(-554.184 -1074.884)" fill="#7388b7"/>
          </g>
          <g id="Grupo_134396" data-name="Grupo 134396" transform="translate(37.155 22.375)">
            <path id="Trazado_147625" data-name="Trazado 147625" d="M712.96,1122.424c-2.627.287-5.34.483-6.761,1.05a27.706,27.706,0,0,1,3.514-15.2S712.385,1119.14,712.96,1122.424Z" transform="translate(-706.143 -1108.27)" fill="#3c6d9d"/>
          </g>
          <g id="Grupo_134397" data-name="Grupo 134397" transform="translate(38.212 20.898)">
            <path id="Trazado_147626" data-name="Trazado 147626" d="M720.878,1098.909s-6.607-.361-7.781,3.787,2.2,20.7,2.93,22.414c1.325,3.111,8,12.377,8,12.377l2.141-1.109s-4.3-13.565-5.26-14.907C719.406,1119.364,722.856,1100.713,720.878,1098.909Z" transform="translate(-712.852 -1098.901)" fill="#ffb27d"/>
          </g>
          <g id="Grupo_134398" data-name="Grupo 134398" transform="translate(49.105 58.086)">
            <path id="Trazado_147627" data-name="Trazado 147627" d="M784.386,1335.125a9.745,9.745,0,0,1,1,1.023c.445.543.053.739,1.33,3.2,0,0-.065.341-.343.279s-1.24-1.016-1.734-.947c0,0-.353.291-.392,1.255a23.275,23.275,0,0,1-.2,3.27c-.157.375-1.3-1.57-1.868-2.976-.495-1.233-.013-5.39-.013-5.39Z" transform="translate(-781.957 -1334.836)" fill="#ffb27d"/>
          </g>
          <g id="Grupo_134399" data-name="Grupo 134399" transform="translate(37.155 19.673)">
            <path id="Trazado_147628" data-name="Trazado 147628" d="M706.144,1101.695c.017.1,6.252,1.147,10.152-.832,0,0,3.258-10.206-1.4-9.718s-7.413,1.955-7.53,4.184A42.907,42.907,0,0,1,706.144,1101.695Z" transform="translate(-706.144 -1091.127)" fill="#7388b7"/>
          </g>
          <g id="Grupo_134400" data-name="Grupo 134400" transform="translate(47.643 14.509)">
            <path id="Trazado_147629" data-name="Trazado 147629" d="M772.688,1062.349a4.148,4.148,0,0,0,1.254,2.906c.828.853,2.025,1.519,2.866.678a9.129,9.129,0,0,0,1.3-1.571c.727-1.248,1.592-2.524,1.592-2.524l-3.74-3.276-.223-.2a9.526,9.526,0,0,1-2.786,3.161A.868.868,0,0,0,772.688,1062.349Z" transform="translate(-772.68 -1058.366)" fill="#ffb27d"/>
          </g>
          <g id="Grupo_134401" data-name="Grupo 134401" transform="translate(50.853 14.704)">
            <path id="Trazado_147630" data-name="Trazado 147630" d="M796.857,1062.885s-.864,1.273-1.591,2.524c-2.324-1.433-2.327-4.31-2.148-5.8Z" transform="translate(-793.049 -1059.608)" fill="#ed985f"/>
          </g>
          <g id="Grupo_134402" data-name="Grupo 134402" transform="translate(50.698 8.022)">
            <path id="Trazado_147631" data-name="Trazado 147631" d="M796.133,1028.816s-5.643-3.14-3.634-6.625,2.635-6.236,6.323-4.379,3.615,3.588,3.227,4.914S797.652,1029.543,796.133,1028.816Z" transform="translate(-792.066 -1017.214)" fill="#ffb27d"/>
          </g>
          <g id="Grupo_134403" data-name="Grupo 134403" transform="translate(50.105 7.55)">
            <path id="Trazado_147632" data-name="Trazado 147632" d="M799.833,1018.171c-.258-1.547-1.044-1.695-1.592-1.591a4.513,4.513,0,0,0-5.489-2.1,7.684,7.684,0,0,1-4.448,2.672s.655,1.219,3.353,1.973a4.615,4.615,0,0,0,2.662-.213,15.062,15.062,0,0,1-3.83,1.444c3.556.326,6.939-2.925,7.29-3.273a5.062,5.062,0,0,1,.279,2.329c-.234,1.048-1.164,2.946-.6,3.192C797.462,1022.6,800.221,1020.491,799.833,1018.171Z" transform="translate(-788.304 -1014.219)" fill="#2c3a64"/>
          </g>
          <g id="Grupo_134404" data-name="Grupo 134404" transform="translate(68.206 48.669)">
            <path id="Trazado_147633" data-name="Trazado 147633" d="M903.974,1275.2s-1.575,1.181-.388,1.953,3.306.981,3.314.474C906.929,1275.924,906.081,1274.714,903.974,1275.2Z" transform="translate(-903.143 -1275.09)" fill="#ffb27d"/>
          </g>
        </g>
      </g>
      <g id="Grupo_134407" data-name="Grupo 134407" transform="translate(169.889 452.401)">
        <rect id="Rectángulo_35822" data-name="Rectángulo 35822" width="368.31" height="1.061" rx="0.531" transform="translate(0)" fill="#233862"/>
      </g>
      <g id="Grupo_134408" data-name="Grupo 134408" transform="translate(286.387 329.36)">
        <path id="Trazado_147634" data-name="Trazado 147634" d="M1023.566,827.43l-1.4-2.066a8.166,8.166,0,0,0-6.434-3.665h-15.386l2.67,9.763L1013.61,870.2a3.994,3.994,0,0,0,3.853,2.94h55.367a3.994,3.994,0,0,0,3.853-5.048l-10.018-36.634h-36.018A8.988,8.988,0,0,1,1023.566,827.43Z" transform="translate(-1000.346 -821.7)" fill="#78b62e"/>
      </g>
      <g id="Grupo_134433" data-name="Grupo 134433" transform="translate(289.051 256.201)">
        <g id="Grupo_134429" data-name="Grupo 134429" transform="translate(0 0)">
          <g id="Grupo_134409" data-name="Grupo 134409" transform="translate(21.932 59.59)">
            <path id="Trazado_147635" data-name="Trazado 147635" d="M1156.611,743.294a.857.857,0,0,0-.153.915.007.007,0,0,0,0,0,5.687,5.687,0,0,0,1.8,1.973c.109.087.2.167.289.241l.065.058.05.045c.79.729.492.9,1.912,2.374,1.618,1.685,2.733,1.715,3.05,1.562.268-.131-.277-1.024-.88-2.028l-.088-.146c-.08-.133-.16-.269-.24-.4-.707-1.209-.525-1.775-.357-3.574.137-1.461,2.276-8.163,2.276-8.163l-3.1-.536s-.936,5.337-1.966,6.158c-.55.438-1.167.443-1.7.768-.037.022-.074.046-.11.069A4.078,4.078,0,0,0,1156.611,743.294Z" transform="translate(-1156.39 -735.616)" fill="#ffb27d"/>
          </g>
          <g id="Grupo_134410" data-name="Grupo 134410" transform="translate(21.932 66.586)">
            <path id="Trazado_147636" data-name="Trazado 147636" d="M1156.611,780.68a.856.856,0,0,0-.153.915.007.007,0,0,0,0,0,6.587,6.587,0,0,0,1.8,1.967c.107.089.2.17.285.247.022.019.044.038.065.058l.05.045c.79.729.492.9,1.912,2.374,1.618,1.684,2.733,1.715,3.05,1.562.268-.131-.277-1.024-.88-2.028a6.9,6.9,0,0,1-2.884-2.127c-.939-1.2-1.576-2.727-2.215-3.665l-.182-.034A4.078,4.078,0,0,0,1156.611,780.68Z" transform="translate(-1156.39 -779.998)" fill="#233862"/>
          </g>
          <g id="Grupo_134411" data-name="Grupo 134411" transform="translate(44.687 58.654)">
            <path id="Trazado_147637" data-name="Trazado 147637" d="M1303.235,736.358c.191.958,1.556.8,3.081.426s1.162.071,3.333-.169,2.828-1.049,2.894-1.371c.059-.286-1.013-.387-2.163-.52-.145-.016-.29-.034-.435-.052-1.3-.163-2.249-1-3.429-1.69-1.117-.652-2.783-3.309-2.783-3.309l-2.976.235s1.561,2.373,2.165,3.4a3.6,3.6,0,0,1,.292,2.028A3.818,3.818,0,0,0,1303.235,736.358Z" transform="translate(-1300.756 -729.673)" fill="#ffb27d"/>
          </g>
          <g id="Grupo_134412" data-name="Grupo 134412" transform="translate(47.121 63.705)">
            <path id="Trazado_147638" data-name="Trazado 147638" d="M1319.321,763.779c1.525-.372,1.162.071,3.333-.169s2.828-1.049,2.894-1.371c.059-.286-1.013-.387-2.163-.52l-.011.022a6.118,6.118,0,0,1-3.108.965c-1.473.035-3.032-.387-4.049-.371a3.823,3.823,0,0,0,.022,1.018C1316.431,764.311,1317.8,764.152,1319.321,763.779Z" transform="translate(-1316.195 -761.719)" fill="#233862"/>
          </g>
          <g id="Grupo_134413" data-name="Grupo 134413" transform="translate(25.55 41.532)">
            <path id="Trazado_147639" data-name="Trazado 147639" d="M1189.563,625.819l-2.785,7.486-3.636,9.774a5.879,5.879,0,0,1-1.93-.177,8.368,8.368,0,0,1-1.866-.909s1.012-10.5,2.9-16.52a10.726,10.726,0,0,1,1.62-3.5C1186.781,618.525,1189.563,625.819,1189.563,625.819Z" transform="translate(-1179.347 -621.046)" fill="#78b62e"/>
          </g>
          <g id="Grupo_134414" data-name="Grupo 134414" transform="translate(6.027 32.909)">
            <path id="Trazado_147640" data-name="Trazado 147640" d="M1082.4,567.849c-1.584-.511-5.716-.01-10.2.8a3.04,3.04,0,0,1-3.139-1.419h0l-11.28-.885s-3.725,8.253-1.689,13.514a1.979,1.979,0,0,0,1.971,1.272h0s6.816.012,9,.013c5.61,0,11.874-3.852,12.684-4.014,1.326-.265,1.856,2.387,3.181,5.173s12.46,12.336,12.46,12.336a9.8,9.8,0,0,0,2.419-.247,2.384,2.384,0,0,0,1.039-.655S1086.512,569.176,1082.4,567.849Z" transform="translate(-1055.487 -566.345)" fill="url(#linear-gradient)"/>
          </g>
          <g id="Grupo_134415" data-name="Grupo 134415" transform="translate(0.045)">
            <path id="Trazado_147641" data-name="Trazado 147641" d="M1035.908,358.228a4,4,0,0,0-2.155-.561,5.981,5.981,0,0,1-1.04-.064c-4.305-.633-6.9,5.62-7.052,7.509-.28,3.469-2.115,4-4.7,6.169-5.181,4.354-3.664,9.417-.832,11.3,1.7,1.129,4.694,0,4.694,0,.042.03,8.193-4.552,12.21-6.763C1043.056,374.964,1038.327,359.669,1035.908,358.228Z" transform="translate(-1017.536 -357.558)" fill="#233862"/>
          </g>
          <g id="Grupo_134416" data-name="Grupo 134416" transform="translate(10.683 10.059)">
            <path id="Trazado_147642" data-name="Trazado 147642" d="M1090.516,427.691a5.311,5.311,0,0,1-3.31.1,5.9,5.9,0,0,1-2.185-2.62c.571-.026,1.2-.525,1.681-3.8l.243.087,4.085,1.471s-.3,1.311-.488,2.559C1090.38,426.539,1090.293,427.543,1090.516,427.691Z" transform="translate(-1085.021 -421.374)" fill="#ffb27d"/>
          </g>
          <g id="Grupo_134417" data-name="Grupo 134417" transform="translate(12.607 10.146)">
            <path id="Trazado_147643" data-name="Trazado 147643" d="M1101.314,423.4s-.163.707-.4,2.028a4.613,4.613,0,0,1-3.683-3.5Z" transform="translate(-1097.229 -421.928)" fill="#ed975d"/>
          </g>
          <g id="Grupo_134418" data-name="Grupo 134418" transform="translate(12.198 3.086)">
            <path id="Trazado_147644" data-name="Trazado 147644" d="M1099.736,386.97s-5.589-.752-5.067-4.226.152-5.91,3.743-5.577,4.083,1.763,4.191,2.965S1101.2,387.076,1099.736,386.97Z" transform="translate(-1094.635 -377.138)" fill="#ffb27d"/>
          </g>
          <g id="Grupo_134419" data-name="Grupo 134419" transform="translate(10.595 2.779)">
            <path id="Trazado_147645" data-name="Trazado 147645" d="M1093.833,376.589s-3.579,3.082-6.013,3.33-3.355-.534-3.355-.534a9.506,9.506,0,0,0,2.3-3.112,1.712,1.712,0,0,1,1.411-1.008C1089.913,375.115,1093.207,375.048,1093.833,376.589Z" transform="translate(-1084.465 -375.191)" fill="#233862"/>
          </g>
          <g id="Grupo_134420" data-name="Grupo 134420" transform="translate(17.726 3.232)">
            <path id="Trazado_147646" data-name="Trazado 147646" d="M1129.709,378.731a8.813,8.813,0,0,1,1.573,2.016,6.764,6.764,0,0,1,.182,3.6s1.867-3.626.811-5.388A1.49,1.49,0,0,0,1129.709,378.731Z" transform="translate(-1129.709 -378.062)" fill="#233862"/>
          </g>
          <g id="Grupo_134421" data-name="Grupo 134421" transform="translate(5.883 13.725)">
            <path id="Trazado_147647" data-name="Trazado 147647" d="M1069.568,455.521c-.173,11.314-.05,8.95-1.287,10.023a4.755,4.755,0,0,1-2.24.485c-3.469.229-9.568-.344-9.8-.986-.8-2.219-.234-2.908-.9-6.3-.069-.361-.155-.752-.256-1.178-.556-2.333-1.1-3.127.879-6.874,1.792-3.394,3.654-6.149,3.821-6.049,4.724,2.807,5.106.449,5.106.449S1069.652,450,1069.568,455.521Z" transform="translate(-1054.569 -444.634)" fill="#2f539b"/>
          </g>
          <g id="Grupo_134423" data-name="Grupo 134423" transform="translate(16.203 14.176)">
            <path id="Trazado_147649" data-name="Trazado 147649" d="M1120.046,447.5s4.862.826,5.432,2.92,2.445,14.8,2.445,14.8-1.371,1.338-2.513.2-3.589-11.89-3.589-11.89Z" transform="translate(-1120.046 -447.496)" fill="#2f539b"/>
          </g>
          <g id="Grupo_134424" data-name="Grupo 134424" transform="translate(6.653 23.118)">
            <path id="Trazado_147650" data-name="Trazado 147650" d="M1070.159,516.225c-3.469.229-9.568-.344-9.8-.986-.8-2.219-.234-2.908-.9-6.3l1.675-4.711s-.279,5.247,1.268,6.628,6.335,2.666,7.087,3.82A4.225,4.225,0,0,1,1070.159,516.225Z" transform="translate(-1059.459 -504.223)" fill="#233862"/>
          </g>
          <g id="Grupo_134425" data-name="Grupo 134425" transform="translate(13.38 32.383)">
            <path id="Trazado_147651" data-name="Trazado 147651" d="M1102.131,563.531s3.423-.761,3.975-.457a8.033,8.033,0,0,1,2.07,1.8c.169.385-1.229-.293-1.684-.415a4.046,4.046,0,0,0-1.454.318,4.833,4.833,0,0,1-2.605.261Z" transform="translate(-1102.131 -563.002)" fill="#ffb27d"/>
          </g>
          <g id="Grupo_134426" data-name="Grupo 134426" transform="translate(0 13.725)">
            <path id="Trazado_147652" data-name="Trazado 147652" d="M1028.341,444.636s-4.6.281-6.188,2.5c-2.241,3.123-6.688,16.434-4.142,18.21,2.867,2,13.05.528,13.05.528a4.137,4.137,0,0,0-.132-2.35c-.471-.766-8.132-2.007-8.486-2.36s4.423-6.894,4.423-7.955S1028.341,444.636,1028.341,444.636Z" transform="translate(-1017.247 -444.636)" fill="#2f539b"/>
          </g>
          <g id="Grupo_134427" data-name="Grupo 134427" transform="translate(17.52 33.407)">
            <path id="Trazado_147653" data-name="Trazado 147653" d="M1128.4,569.5a6.606,6.606,0,0,0,.952,1.036.7.7,0,0,0,.387.083l-.483-.87Z" transform="translate(-1128.4 -569.502)" fill="#ffb27d"/>
          </g>
          <g id="Grupo_134428" data-name="Grupo 134428" transform="translate(17.355 32.454)">
            <path id="Trazado_147654" data-name="Trazado 147654" d="M1127.352,563.457l2.084,1.013a.371.371,0,0,1-.345.133,4.961,4.961,0,0,1-.9-.249Z" transform="translate(-1127.352 -563.457)" fill="#ffb27d"/>
          </g>
        </g>
        <g id="Grupo_134430" data-name="Grupo 134430" transform="translate(13.379 34.833)">
          <path id="Trazado_147655" data-name="Trazado 147655" d="M1123.906,578.556l-21.78-.008v.481l21.587.008Z" transform="translate(-1102.126 -578.549)" fill="#233862"/>
        </g>
        <g id="Grupo_134431" data-name="Grupo 134431" transform="translate(18.472 22.979)">
          <path id="Trazado_147656" data-name="Trazado 147656" d="M1134.438,515.68l16.494.006,4.966-12.337-16.469-.006Z" transform="translate(-1134.438 -503.344)" fill="#233862"/>
        </g>
        <g id="Grupo_134432" data-name="Grupo 134432" transform="translate(29.202 28.365)">
          <path id="Trazado_147657" data-name="Trazado 147657" d="M1204.113,538.3a.572.572,0,0,0-.56-.785,1.125,1.125,0,0,0-1.011.785.572.572,0,0,0,.56.786A1.126,1.126,0,0,0,1204.113,538.3Z" transform="translate(-1202.51 -537.516)" fill="#fff"/>
        </g>
      </g>
      <g id="Grupo_134434" data-name="Grupo 134434" transform="translate(368.036 322.283)" opacity="0.5">
        <path id="Trazado_147658" data-name="Trazado 147658" d="M1551.527,786.827,1546.965,781l-.215-.275-.257-.047-21.055-3.874-7.086,38.512,27.3,5.022,6.061-32.945.05-.27Z" transform="translate(-1518.352 -776.803)" fill="#bada95"/>
      </g>
      <g id="Grupo_134436" data-name="Grupo 134436" transform="translate(359.574 315.212)">
        <g id="Grupo_134435" data-name="Grupo 134435" transform="translate(0 0)">
          <path id="Trazado_147659" data-name="Trazado 147659" d="M1492.607,737.086l.01.274,1.3,33.472-27.734,1.076-1.518-39.129,21.393-.829.261-.01.27.221,5.727,4.687Z" transform="translate(-1464.665 -731.939)" fill="#bada95"/>
        </g>
      </g>
      <g id="Grupo_134451" data-name="Grupo 134451" transform="translate(322.83 327.299)">
        <g id="Grupo_134437" data-name="Grupo 134437" transform="translate(0 2.645)">
          <path id="Trazado_147660" data-name="Trazado 147660" d="M1278,825.4l-46.282,2.579a.169.169,0,0,0-.16.179l3.378,60.606a.17.17,0,0,0,.179.16l46.216-2.576a.169.169,0,0,0,.16-.179l-3.381-60.672A.1.1,0,0,0,1278,825.4Z" transform="translate(-1231.555 -825.399)" fill="#233862"/>
        </g>
        <g id="Grupo_134438" data-name="Grupo 134438" transform="translate(1.544 4.148)">
          <path id="Trazado_147661" data-name="Trazado 147661" d="M1286.165,892.466l-39.2,2.46a2.133,2.133,0,0,1-2.263-2l-3.343-53.269a2.134,2.134,0,0,1,2-2.263l39.2-2.46a2.133,2.133,0,0,1,2.263,2l3.343,53.268A2.133,2.133,0,0,1,1286.165,892.466Z" transform="translate(-1241.353 -834.934)" fill="#ebf3fa"/>
        </g>
        <g id="Grupo_134449" data-name="Grupo 134449" transform="translate(6.161 12.276)">
          <g id="Grupo_134439" data-name="Grupo 134439">
            <path id="Trazado_147662" data-name="Trazado 147662" d="M1295.369,887.168l-24.661,1.548a.023.023,0,0,1-.024-.021l-.039-.616a.023.023,0,0,1,.021-.024l24.661-1.547a.023.023,0,0,1,.024.021l.039.616A.023.023,0,0,1,1295.369,887.168Z" transform="translate(-1270.645 -886.506)" fill="#bdd1f9"/>
          </g>
          <g id="Grupo_134440" data-name="Grupo 134440" transform="translate(0.332 5.295)">
            <path id="Trazado_147663" data-name="Trazado 147663" d="M1297.476,920.76l-24.661,1.547a.023.023,0,0,1-.024-.021l-.039-.616a.023.023,0,0,1,.021-.024l24.661-1.547a.023.023,0,0,1,.024.021l.039.616A.023.023,0,0,1,1297.476,920.76Z" transform="translate(-1272.752 -920.098)" fill="#bdd1f9"/>
          </g>
          <g id="Grupo_134441" data-name="Grupo 134441" transform="translate(0.166 2.056)">
            <path id="Trazado_147664" data-name="Trazado 147664" d="M1305.844,900.213l-34.083,2.139a.023.023,0,0,1-.024-.021l-.039-.616a.023.023,0,0,1,.021-.024l34.083-2.139a.023.023,0,0,1,.025.021l.039.616A.023.023,0,0,1,1305.844,900.213Z" transform="translate(-1271.698 -899.552)" fill="#bdd1f9"/>
          </g>
          <g id="Grupo_134442" data-name="Grupo 134442" transform="translate(2.258 22.127)">
            <path id="Trazado_147665" data-name="Trazado 147665" d="M1301.811,1027.549l-16.779,1.053a.019.019,0,0,1-.02-.018l-.039-.624a.019.019,0,0,1,.018-.02l16.779-1.053a.019.019,0,0,1,.02.018l.039.624A.019.019,0,0,1,1301.811,1027.549Z" transform="translate(-1284.973 -1026.887)" fill="#bdd1f9"/>
          </g>
          <g id="Grupo_134443" data-name="Grupo 134443" transform="translate(2.092 19.077)">
            <path id="Trazado_147666" data-name="Trazado 147666" d="M1307.17,1008.2l-23.192,1.455a.019.019,0,0,1-.02-.018l-.039-.624a.019.019,0,0,1,.018-.02l23.192-1.455a.019.019,0,0,1,.02.018l.039.624A.019.019,0,0,1,1307.17,1008.2Z" transform="translate(-1283.919 -1007.539)" fill="#bdd1f9"/>
          </g>
          <g id="Grupo_134444" data-name="Grupo 134444" transform="translate(2.329 24.586)">
            <path id="Trazado_147667" data-name="Trazado 147667" d="M1310.143,1043.151l-24.661,1.547a.023.023,0,0,1-.024-.021l-.039-.616a.023.023,0,0,1,.021-.024l24.661-1.548a.023.023,0,0,1,.024.021l.039.616A.023.023,0,0,1,1310.143,1043.151Z" transform="translate(-1285.419 -1042.489)" fill="#bdd1f9"/>
          </g>
          <g id="Grupo_134445" data-name="Grupo 134445" transform="translate(2.495 27.061)">
            <path id="Trazado_147668" data-name="Trazado 147668" d="M1313.954,1058.848l-27.422,1.721a.02.02,0,0,1-.022-.019l-.039-.621a.021.021,0,0,1,.019-.022l27.422-1.721a.021.021,0,0,1,.022.019l.039.621A.021.021,0,0,1,1313.954,1058.848Z" transform="translate(-1286.472 -1058.186)" fill="#bdd1f9"/>
          </g>
          <g id="Grupo_134446" data-name="Grupo 134446" transform="translate(2.937 32.313)">
            <path id="Trazado_147669" data-name="Trazado 147669" d="M1306.985,1092.173l-17.649,1.107a.02.02,0,0,1-.021-.018l-.039-.623a.02.02,0,0,1,.018-.021l17.649-1.108a.019.019,0,0,1,.021.018l.039.623A.02.02,0,0,1,1306.985,1092.173Z" transform="translate(-1289.277 -1091.511)" fill="#bdd1f9"/>
          </g>
          <g id="Grupo_134447" data-name="Grupo 134447" transform="translate(3.269 37.608)">
            <path id="Trazado_147670" data-name="Trazado 147670" d="M1309.095,1125.765l-17.649,1.107a.02.02,0,0,1-.021-.018l-.039-.623a.019.019,0,0,1,.018-.021l17.649-1.108a.019.019,0,0,1,.021.018l.039.623A.02.02,0,0,1,1309.095,1125.765Z" transform="translate(-1291.387 -1125.103)" fill="#bdd1f9"/>
          </g>
          <g id="Grupo_134448" data-name="Grupo 134448" transform="translate(3.103 34.538)">
            <path id="Trazado_147671" data-name="Trazado 147671" d="M1314.785,1106.283l-24.394,1.531a.019.019,0,0,1-.021-.018l-.039-.623a.02.02,0,0,1,.018-.021l24.394-1.531a.019.019,0,0,1,.021.018l.039.623A.019.019,0,0,1,1314.785,1106.283Z" transform="translate(-1290.332 -1105.622)" fill="#bdd1f9"/>
          </g>
        </g>
        <g id="Grupo_134450" data-name="Grupo 134450" transform="translate(9.803 0)">
          <path id="Trazado_147672" data-name="Trazado 147672" d="M1317.779,808.625l-21.583,1.2a2.494,2.494,0,0,0-2.443,2.536l.182,3.262a.576.576,0,0,0,.626.52l25.545-1.424a.577.577,0,0,0,.565-.586l-.182-3.261A2.493,2.493,0,0,0,1317.779,808.625Z" transform="translate(-1293.749 -808.62)" fill="#78b62e"/>
        </g>
      </g>
      <g id="Grupo_134476" data-name="Grupo 134476" transform="translate(342.863 322.977)">
        <g id="Grupo_134452" data-name="Grupo 134452" transform="translate(49.576 27.429)">
          <path id="Trazado_147673" data-name="Trazado 147673" d="M1676.394,958.309s-.448-1.009-.739-1.487-1.532-1.877-1.743-1.56-1.056,2.45-.607,3.047-.029,1.636,2.2,2.266Z" transform="translate(-1673.175 -955.216)" fill="#ffb27d"/>
        </g>
        <g id="Grupo_134453" data-name="Grupo 134453" transform="translate(51.611 24.152)">
          <path id="Trazado_147674" data-name="Trazado 147674" d="M1712.081,934.426s-11.43,9.541-15.887,8.658c-3.485-.691-8.994-2.438-8.994-2.438a3.516,3.516,0,0,0-1.043,3.041s7.019,6.6,12.02,6.647c7.817.067,11.5-3.874,11.5-3.874Z" transform="translate(-1686.084 -934.426)" fill="#78b62e"/>
        </g>
        <g id="Grupo_134454" data-name="Grupo 134454" transform="translate(84.506 123.067)">
          <path id="Trazado_147675" data-name="Trazado 147675" d="M1907.925,1563.693s-.332,5.353-1.367,5.429c-.138.01-5.252.01-5.252.01l-6.529-.038a2.118,2.118,0,0,1,1.951-1.906c1.908-.332,5.1-1.674,6.259-4.2C1904.2,1560.339,1907.925,1563.693,1907.925,1563.693Z" transform="translate(-1894.777 -1561.971)" fill="#113c68"/>
        </g>
        <g id="Grupo_134455" data-name="Grupo 134455" transform="translate(75.881 59.08)">
          <path id="Trazado_147676" data-name="Trazado 147676" d="M1862.207,1222.1a13.608,13.608,0,0,1-3.534.664,12.978,12.978,0,0,1-3.3-.471,90.367,90.367,0,0,0-2.43-11.576c-1.078-4.173-2.618-9.539-4.808-16.206-6.056-18.427-7.9-29.207-8.066-30.228-.009-.054-.013-.08-.013-.08l.02-.009,18.618-8.174s-2.3,25.4.635,35.144a41.109,41.109,0,0,1,1.066,4.67C1862.25,1206.422,1862.207,1222.1,1862.207,1222.1Z" transform="translate(-1840.058 -1156.019)" fill="#2a4e96"/>
        </g>
        <g id="Grupo_134456" data-name="Grupo 134456" transform="translate(75.893 59.08)">
          <path id="Trazado_147677" data-name="Trazado 147677" d="M1853.011,1210.717c-1.078-4.173-2.618-9.539-4.808-16.206-6.056-18.427-7.9-29.207-8.065-30.228,0-.03,0-.059.007-.09l18.618-8.174s-2.3,25.4.635,35.144C1859.809,1192.526,1853.011,1210.717,1853.011,1210.717Z" transform="translate(-1840.138 -1156.019)" fill="#233862"/>
        </g>
        <g id="Grupo_134457" data-name="Grupo 134457" transform="translate(69.964 123.067)">
          <path id="Trazado_147678" data-name="Trazado 147678" d="M1815.668,1563.693s-.332,5.353-1.367,5.429c-.138.01-5.252.01-5.252.01l-6.529-.038a2.118,2.118,0,0,1,1.951-1.906c1.909-.332,5.1-1.674,6.259-4.2C1811.946,1560.339,1815.668,1563.693,1815.668,1563.693Z" transform="translate(-1802.52 -1561.971)" fill="#15447c"/>
        </g>
        <g id="Grupo_134458" data-name="Grupo 134458" transform="translate(72.551 59.678)">
          <path id="Trazado_147679" data-name="Trazado 147679" d="M1818.94,1159.815a265.052,265.052,0,0,0,2.605,36.664c2.847,20.207,1.882,28.784,1.882,28.784a19.4,19.4,0,0,0,2.746.7,12.463,12.463,0,0,0,4.074-.471s4.076-20.214,2.907-30.328,5.581-34.705,5.581-34.705Z" transform="translate(-1818.935 -1159.815)" fill="#2a4e96"/>
        </g>
        <g id="Grupo_134459" data-name="Grupo 134459" transform="translate(78.039 13.031)">
          <path id="Trazado_147680" data-name="Trazado 147680" d="M1861.469,872.005l-3.634,2.383-3.311-.936a7.913,7.913,0,0,1-.774-3.969,24.639,24.639,0,0,1,.13-2.643l4.9-2.164,1.83-.806c-.005.029-.143,1.5-.162,1.718A12.514,12.514,0,0,0,1861.469,872.005Z" transform="translate(-1853.749 -863.87)" fill="#ffb27d"/>
        </g>
        <g id="Grupo_134460" data-name="Grupo 134460" transform="translate(72.398 19.785)">
          <path id="Trazado_147681" data-name="Trazado 147681" d="M1818.035,951.192c4.524,4.368,21.644,3.633,22.7-1.179s-1.151-40.964-8.878-43.235c-1.6-.471-10.176,2.3-10.176,2.3a54.341,54.341,0,0,0-2.227,8c-.171.872-.671,10.111-1.045,18.754-.175,4.042-.322,7.955-.4,10.82A31.225,31.225,0,0,0,1818.035,951.192Z" transform="translate(-1817.96 -906.724)" fill="url(#linear-gradient)"/>
        </g>
        <g id="Grupo_134461" data-name="Grupo 134461" transform="translate(78.039 13.836)">
          <path id="Trazado_147682" data-name="Trazado 147682" d="M1860.084,869.961c-.995,1.682-4.485,3.154-6.334,3.828a24.637,24.637,0,0,1,.13-2.643l4.9-2.164C1859.867,868.968,1860.527,869.21,1860.084,869.961Z" transform="translate(-1853.749 -868.981)" fill="#fca56b"/>
        </g>
        <g id="Grupo_134462" data-name="Grupo 134462" transform="translate(75.332 2.699)">
          <path id="Trazado_147683" data-name="Trazado 147683" d="M1837.564,811.329s7.9,2.464,9.36-2.479,3.461-7.955-1.521-9.738-6.524-.187-7.412,1.345S1835.547,810.56,1837.564,811.329Z" transform="translate(-1836.577 -798.326)" fill="#ffb27d"/>
        </g>
        <g id="Grupo_134463" data-name="Grupo 134463" transform="translate(76.313)">
          <path id="Trazado_147684" data-name="Trazado 147684" d="M1843.545,785.555s.5,5.753,1.693,5.5,2.5-.784,2.325.95,1.157,4.707,2.872,4.7c3.679-.015,7.677-9.456,6.67-11.246C1854.2,780.3,1839.344,779.254,1843.545,785.555Z" transform="translate(-1842.802 -781.201)" fill="#163560"/>
        </g>
        <g id="Grupo_134464" data-name="Grupo 134464" transform="translate(76.117 17.538)">
          <path id="Trazado_147685" data-name="Trazado 147685" d="M1843.659,894.892c.1-.043,5.881-2.635,6.557-2.412s1.518,2.288,1.518,2.288l-10.177,2.3A5.057,5.057,0,0,1,1843.659,894.892Z" transform="translate(-1841.558 -892.467)" fill="#78b62e"/>
        </g>
        <g id="Grupo_134470" data-name="Grupo 134470" transform="translate(0 3.643)">
          <g id="Grupo_134465" data-name="Grupo 134465" transform="translate(41.55 41.221)">
            <path id="Trazado_147686" data-name="Trazado 147686" d="M1622.943,1068.928l32.4,30.5c.635.6,1.436.788,1.78.423l1.094-1.161c.343-.365.105-1.153-.53-1.751l-32.4-30.5c-.635-.6-1.436-.788-1.779-.423l-1.094,1.161C1622.07,1067.542,1622.308,1068.33,1622.943,1068.928Z" transform="translate(-1622.256 -1065.83)" fill="#1f4d84"/>
          </g>
          <g id="Grupo_134466" data-name="Grupo 134466" transform="translate(60.418 58.947)">
            <path id="Trazado_147687" data-name="Trazado 147687" d="M1741.959,1180.78l14.217,13.385c.635.6,1.436.788,1.78.423l1.094-1.161c.343-.365.105-1.153-.53-1.751l-14.217-13.385Z" transform="translate(-1741.959 -1178.291)" fill="#7388b7"/>
          </g>
          <g id="Grupo_134467" data-name="Grupo 134467">
            <path id="Trazado_147688" data-name="Trazado 147688" d="M1402.534,812.307a25.389,25.389,0,0,0-35.891-1.093c-.135.126-.269.254-.4.384a25.394,25.394,0,1,0,36.29.709Zm-2.467,34.435a23.39,23.39,0,1,1,1.007-33.061A23.36,23.36,0,0,1,1400.067,846.742Z" transform="translate(-1358.648 -804.315)" fill="#1f4d84"/>
          </g>
          <g id="Grupo_134469" data-name="Grupo 134469" transform="translate(2.005 2.005)" opacity="0.5">
            <g id="Grupo_134468" data-name="Grupo 134468">
              <path id="Trazado_147689" data-name="Trazado 147689" d="M1377.722,856.447a23.389,23.389,0,1,0,1.008-33.06A23.291,23.291,0,0,0,1377.722,856.447Z" transform="translate(-1371.369 -817.034)" fill="#b3cff9"/>
            </g>
          </g>
        </g>
        <g id="Grupo_134471" data-name="Grupo 134471" transform="translate(72.448 30.017)">
          <path id="Trazado_147690" data-name="Trazado 147690" d="M1818.277,1001.33c17.851-12.72,16.367-29.694,16.367-29.694-6.524,3.68-13,11.816-15.969,18.874C1818.5,994.552,1818.353,998.466,1818.277,1001.33Z" transform="translate(-1818.277 -971.636)" fill="url(#linear-gradient)"/>
        </g>
        <g id="Grupo_134474" data-name="Grupo 134474" transform="translate(49.701 22.14)">
          <g id="Grupo_134472" data-name="Grupo 134472" transform="translate(0 30.37)">
            <path id="Trazado_147691" data-name="Trazado 147691" d="M1679.095,1115.747a4.872,4.872,0,0,1-2.28-1.408s-.537.037.088,1.182c.052.1.168.342.256.516a.111.111,0,0,1-.094.16,11.9,11.9,0,0,0-2.856.06c-.193.04-.249.5-.242.7a1.786,1.786,0,0,0,.376,1.219,6.238,6.238,0,0,0,2.256,1.182,6.825,6.825,0,0,0,3.49-.438l1.143-.529-.354-2.124-.287.06C1680.135,1116.421,1679.57,1115.864,1679.095,1115.747Z" transform="translate(-1673.967 -1114.339)" fill="#ffb27d"/>
          </g>
          <g id="Grupo_134473" data-name="Grupo 134473" transform="translate(6.437)">
            <path id="Trazado_147692" data-name="Trazado 147692" d="M1741.939,921.662s16.04,3.054-4.719,26.281c-3.32,3.715-21.257,8.552-21.257,8.552s-1.819-1.548-.9-2.8c0,0,12.35-8.968,15.068-10.394,1.223-.641,4.744-14.314,6.737-17.607A8.984,8.984,0,0,1,1741.939,921.662Z" transform="translate(-1714.802 -921.662)" fill="#78b62e"/>
          </g>
        </g>
        <g id="Grupo_134475" data-name="Grupo 134475" transform="translate(50.186 26.894)">
          <path id="Trazado_147693" data-name="Trazado 147693" d="M1679.215,955.736a8.182,8.182,0,0,1-.627-1.532,8.47,8.47,0,0,0-1.035-2.343c-.109-.109-.468.032-.511.5a2.709,2.709,0,0,0,.258,1.014,11.441,11.441,0,0,1,.339,2.016C1677.888,956.2,1679.215,955.736,1679.215,955.736Z" transform="translate(-1677.04 -951.826)" fill="#ffb27d"/>
        </g>
      </g>
    </g>
  </g>
</svg>
