<svg xmlns="http://www.w3.org/2000/svg" width="400" height="254" viewBox="0 0 400 254">
  <g id="Grupo_134894" data-name="Grupo 134894" transform="translate(-1020 -3293)">
    <path id="Elipse_4763" data-name="Elipse 4763" d="M102,0h1.646l.157,0h1.526l.408.014h.036l.042,0h.117l.043,0,.043,0,.042,0,.039,0,.041,0,.04,0,.042,0,.04,0,.042,0,.041,0h.082l.042,0h.041l.041,0,.04,0,.042,0,.042,0,.042,0,.04,0,.042,0,.041,0,.042,0h0l.042,0c.272.013.542.027.813.042h0l.04,0h0l.041,0,.041,0,.041,0,.04,0,.041,0,.04,0h0l.042,0,.041,0,.04,0,.04,0,.042,0,.041,0,.04,0,.039,0h0q2.539.156,5.044.435h0l.039,0h0q.541.06,1.079.126h0l.04,0h0l.038,0h0l.038,0h0l.036,0h.006l.035,0h.005l.034,0h.007l.034,0h.006l.032,0h.009l.032,0h.008l.032,0h.009l.031,0h.009l.03,0H115l.029,0h.011l.03,0h.01l.03,0h.009l.031,0h.01l.03,0h.009l.03,0h.01l.03,0h.008l.032,0h.009l.031,0h.01l.03,0h.011l.029,0h.009l.031,0h.009l.031,0h.009l.031,0h.01l.03,0h.009l.031,0h.009l.031,0h.009l.031,0h.008l.184.025h.008l.03,0h.01l.027,0,.013,0,.025,0,.039.005.038.005.04.006.039.005.021,0,.041.006.018,0,.022,0,.019,0,.021,0,.018,0,.022,0,.018,0,.022,0,.018,0,.022,0,.018,0,.022,0,.018,0,.022,0,.018,0,.022,0,.017,0,.023,0,.018,0,.023,0,.016,0,.024,0,.016,0,.024,0,.015,0,.025,0,.016,0,.025,0,.013,0,.028,0,.013,0,.029,0,.011,0,.03,0,.011,0,.03,0h.009l.031,0h.009l.033,0h.006l.034,0h.007l.037.006h0l.038.006h0q2.961.442,5.865,1.051a101.227,101.227,0,0,1,11.129,3h0l.035.011.007,0,.029.01.011,0,.028.009.008,0,.029.01.011,0,.027.009.01,0,.027.009.011,0,.027.009.011,0,.025.008.014,0,.024.008.014,0,.022.008.016.005.022.008.015.005.022.008.015.005.024.008.014,0,.023.008.015.005.023.008.014,0,.022.008.017.006.02.007.019.006.017.006.02.007.018.006.019.007.017.006.02.007.017.006.021.007.015.005.022.007.016.005.022.008.013,0,.024.008.014,0,.024.008.012,0,.025.009.011,0,.026.009.01,0,.027.009.008,0,.029.01.006,0,.031.011.007,0,.509.177h0l.034.012h0l.032.011.005,0,.033.012h0l.033.012h0l.034.012h0l.034.012h0l.034.012h0l.033.012h0l.032.012,0,0,.032.011.005,0,.033.012h0l.033.012h0l.034.012h0l.035.012h0l.072.026h0l.073.026h0q2.277.818,4.5,1.739h0l.071.03h0l.036.015h0l.035.015h0c.263.109.521.218.783.329l0,0,.032.013,0,0,.028.012.009,0,.026.011.01,0,.024.01.012.005.024.01.012.005.022.009.015.006.021.009.015.006.02.008.017.007.019.008.018.008.017.007.019.008.018.008.017.007.018.008.018.008.018.008.018.008.017.007.019.008.018.008.018.008.017.007.019.008.017.007.02.009.015.007.021.009.016.007.02.009.015.007.02.009.017.007.02.009.015.007.022.009.015.006.021.009.015.007.021.009.015.007.023.01.012.005.025.011.012.005.025.011.011,0,.025.011.012.005.027.012.009,0,.028.012.008,0,.029.013.007,0,.028.013.008,0,.071.031h0l.145.064,0,0,.031.014,0,0,.032.014,0,0,.032.014.005,0,.03.013.01,0,.026.011.011,0,.025.011.011,0,.026.011.011,0,.025.011.012.006.024.011.011.005.025.011.01,0,.025.011.012.005.023.01.014.006.023.01.012.005.024.011.012.005.025.011.011,0,.025.011.011.005.025.011.01,0,.026.012.009,0,.028.013.008,0,.026.012.011,0,.025.011.01,0,.026.012.01,0,.026.012.01,0,.025.011.011,0,.026.012.01,0,.027.012.009,0,.027.012.009,0,.026.012.01,0,.026.012.01,0,.027.012.008,0,.03.014.005,0,.031.014,0,0,.035.016h0l.4.183h0l.107.05h0l.034.016h0l.07.033h0l.035.016h0l.032.015.005,0,.031.015,0,0,.031.015.005,0,.031.014,0,0,.03.014.006,0,.031.014,0,0,.031.015.005,0,.031.014.005,0,.03.014.007,0,.03.014,0,0,.031.015,0,0,.032.015,0,0,.032.015,0,0,.033.016h0l.033.016h0l.033.016h0l.032.015,0,0,.07.033h0a102.176,102.176,0,0,1,23.733,15.712h0l.028.025,0,0,.027.024,0,0,.027.024,0,0,.026.023,0,0,.025.022,0,0,.024.021.006.006.023.02.006.006.022.019.009.008.02.017.01.009.019.017.01.009.019.017.009.008.019.017.011.01.018.016.011.01.017.015.013.011.016.014.013.012.015.013.015.013.014.012.014.013.015.014.014.012.015.014.013.012.015.014.014.013.013.012.016.014.013.012.016.015.012.011.016.014.012.011.017.015.011.01.017.015.012.011.017.015.012.011.016.014.012.011.018.016.007.006.022.02.006.006.023.021h0l.028.025h0q2.568,2.327,4.973,4.822l-2.88,2.776a98.211,98.211,0,0,0-31.575-21.932,97.465,97.465,0,0,0-18.773-5.974A98.707,98.707,0,0,0,102,4V0Zm97.935,105.616,4,.145a102.47,102.47,0,0,1-1.179,12.232h0q-.07.446-.144.891h0l-.006.038v.005l-.006.034v.008l-.005.032v.008l-.006.033v.007l-.006.033v.006l-.006.033,0,.009-.005.031,0,.009-.005.031,0,.009-.005.031v.008l-.005.031,0,.011-.005.029,0,.011-.005.03,0,.01-.005.032v.008l-.005.031,0,.01-.005.03,0,.01-.005.03,0,.011-.005.03,0,.01-.005.029,0,.011-.005.03,0,.01-.005.031,0,.009-.005.031,0,.009-.005.031,0,.009-.006.032v.007l-.006.036v0l-.043.241v.007l-.006.033,0,.009-.005.03,0,.015,0,.025,0,.018,0,.021,0,.02,0,.02,0,.019,0,.021,0,.019,0,.021,0,.019,0,.02,0,.02,0,.02,0,.02,0,.019,0,.022,0,.018,0,.023,0,.017,0,.023,0,.017,0,.022,0,.018,0,.021,0,.019,0,.021,0,.018,0,.023,0,.017,0,.023,0,.016,0,.023,0,.017,0,.024,0,.014,0,.026,0,.013,0,.026,0,.014,0,.025,0,.015,0,.025,0,.013-.005.027,0,.011-.005.028,0,.01-.005.029,0,.01-.006.03v.005l-.007.034v0l-.007.036h0l-.007.038h0c-.04.208-.08.414-.121.622v0l-.007.038h0l-.015.078h0l-.008.038v0l-.031.155h0q-.753,3.739-1.775,7.375h0c-.071.252-.142.5-.215.755h0l-.01.035v0l-.009.032,0,.007-.008.028,0,.011-.007.025,0,.013-.007.026,0,.012-.007.025,0,.013-.007.024,0,.014-.007.023,0,.015-.007.023,0,.015-.006.021-.005.017-.006.021-.005.018-.006.02-.005.018-.006.02-.005.018-.006.019-.006.019-.006.019-.006.019-.006.019-.005.018-.006.02-.005.018-.005.019-.006.021-.005.017-.007.023,0,.014-.007.024,0,.015-.007.023,0,.015-.007.023,0,.015-.007.023,0,.014-.007.023,0,.016-.007.023,0,.014-.008.027,0,.011-.01.032,0,.006-.009.03,0,.009-.046.153v0l-.022.074v0l-.023.074,0,.007-.01.031,0,.006-.01.031,0,.009-.009.029,0,.01-.008.028,0,.012-.008.027,0,.01-.009.028,0,.009-.009.031,0,.007-.009.03,0,.01-.009.029,0,.009-.009.03,0,.009-.009.03,0,.009-.009.029,0,.01-.009.03,0,.007-.01.032,0,.005-.01.033v0l-.01.033,0,.006-.01.032,0,.006-.01.033,0,.005-.01.033,0,0-.01.032,0,.006-.011.034v0l-.011.036h0q-.121.384-.244.766h0l-.012.038h0l-.012.036v0l-.011.035h0l-.012.038h0l-.012.038h0l-.012.036v0l-.011.035v0l-.011.035v0l-.011.035v0l-.011.034,0,.005-.011.034v0l-.011.034v0l-.011.034v0l-.011.034v0l-.012.036h0l-.012.036v0l-.012.037h0l-.012.036v0q-.12.362-.242.723h0l-.012.036v0l-.012.035h0l-.012.036v0l-.012.034v0l-.011.033,0,.006-.011.033v0l-.011.033,0,.005-.011.033,0,.005-.011.032,0,.006-.011.033v0l-.011.033,0,.006-.011.033,0,0-.011.032,0,.006-.011.033v0l-.012.034v0l-.012.035v0l-.013.036h0l-.013.037h0q-.086.246-.172.492h0l-.013.037h0l-.013.037v0l-.012.034,0,.006-.011.032,0,.007-.011.03,0,.008-.01.029,0,.009-.01.028,0,.01-.009.027,0,.012-.009.026,0,.011-.009.026,0,.012-.009.025,0,.013-.009.024,0,.013-.009.024,0,.013-.009.024-.005.014-.008.023-.005.014-.008.023-.005.014-.009.024,0,.013-.009.024-.005.014-.008.024,0,.013-.009.025,0,.012-.009.026,0,.011-.009.025,0,.013-.009.025,0,.012-.01.027,0,.01-.011.029,0,.008-.01.029,0,.009-.012.033v0l-.012.034v0l-.082.224,0,.007-.011.03,0,.006-.011.031,0,.01-.01.027,0,.013-.008.023-.007.018-.007.02-.007.018-.007.019-.007.018-.007.019-.007.018-.007.018-.007.019-.007.018-.007.019-.007.018-.007.019-.007.018-.007.02-.006.016-.008.022-.006.015-.008.022-.006.015-.008.021-.006.016-.008.02-.006.016-.008.021-.006.016-.008.02-.006.016-.008.02-.006.017-.008.021-.005.015-.009.023-.005.014-.009.023-.005.014-.009.023-.005.014-.009.023,0,.013-.009.024,0,.012-.009.024,0,.013-.009.024,0,.013-.009.025,0,.008-.011.029v0l-.012.033v0c-.06.158-.119.31-.18.467v0l-.013.035h0l-.041.107v0l-.013.034v0l-.013.034v0l-.013.034v0l-.013.033,0,0-.013.033v0l-.013.034v0l-.013.034h0l-.013.034v0l-.013.034v0l-.013.034v0l-.013.034h0l-.013.034v0l-.013.034h0a101.556,101.556,0,0,1-6.888,14.131v0L190,153.6h0l-.019.033h0l-.019.032h0l-.019.032v0l-.019.032h0l-.019.033h0l-.019.032,0,0-.018.03,0,0-.018.03h0c-.111.188-.221.372-.333.559v0l-.018.03,0,0-.016.027,0,.006-.016.026,0,.007-.015.025,0,.008-.015.025,0,.008-.014.023-.007.011-.013.022-.007.011-.013.022-.007.011-.014.023-.006.01-.014.022-.007.011-.014.022-.006.011-.014.022-.007.011-.014.022-.007.012-.012.02-.009.014-.012.02-.008.013-.012.02-.008.013-.013.021-.008.013-.012.02-.009.014-.012.02-.008.013-.012.02-.008.013-.013.02-.008.013-.012.019-.009.015-.011.018-.009.014-.012.019-.008.013-.013.021-.007.011-.013.021-.009.014-.012.02-.007.012-.013.021-.007.011-.014.022-.039.063-.007.011-.016.025-.008.013-.012.019-.008.013-.013.021,0,.008-.015.025-.008.012-.013.021-.008.012-.012.02-.009.014-.012.02-.008.013-.013.02-.009.014-.012.019-.009.014-.012.019-.009.014-.012.02-.008.013-.012.02-.008.013-.012.02-.009.014-.012.019-.009.015-.012.019-.008.013-.012.019-.009.014-.012.019-.008.013-.012.019-.009.014-.012.02-.008.013-.012.019-.009.014-.012.019-.009.014-.012.019-.009.014-.013.021-.008.012-.013.02-.008.013-.013.021-.008.012-.013.02-.008.013-.013.02-.008.013-.013.02-.008.013-.013.021-.007.012-.014.022-.007.011-.015.024-.005.008-.016.026,0,.007-.018.028,0,0-.019.03,0,0-.106.166h0l-.02.031,0,.005-.018.028,0,.006-.017.027,0,.007-.017.026,0,.007-.017.026-.005.008-.016.025-.005.008-.016.025-.006.01-.015.023-.006.009-.015.024-.006.01-.015.023-.006.01-.015.023-.007.01-.015.023-.006.009-.015.023-.007.011-.015.023-.006.009-.015.023-.007.011-.014.022-.007.011-.015.023-.007.01-.015.023-.006.01-.015.023-.007.01-.015.023-.006.009-.016.024-.006.009-.016.024-.005.008-.016.024-.006.009-.016.024-.005.008-.017.026,0,.006-.019.029,0,0-.018.027,0,.007-.018.028,0,0-.019.03,0,0-.215.328,0,.005-.018.027,0,.005-.018.027-.005.008-.017.025,0,.007-.016.025-.006.009-.016.024-.005.008-.016.024-.006.008-.016.025-.005.008-.016.024-.006.009-.016.024-.006.008-.016.024-.006.009L187,158.4l-.006.009-.015.023-.007.01-.015.023-.006.009-.016.024-.006.009-.016.024-.006.01-.015.022-.007.011-.015.022-.007.01-.015.023-.006.009-.015.023-.007.01-.015.022-.007.011-.015.023-.006.01-.016.024,0,.007-.017.026,0,.007-.016.024-.006.009-.016.023-.006.009-.018.026,0,.005-.019.028,0,0-.019.028,0,0-.154.228,0,0-.019.028-.005.007-.017.025,0,.006-.018.026,0,.007-.017.025-.007.01-.015.022-.008.012-.014.02-.007.011-.015.021-.008.011-.014.021-.008.012-.013.02-.009.013-.013.02-.008.012-.014.021-.009.013-.013.018-.01.015-.011.017-.011.016-.011.016-.01.015-.012.017-.01.015-.012.017-.01.015-.012.017-.011.015-.012.017-.01.014-.013.018-.01.015-.012.017-.01.015-.011.016-.011.017-.011.016-.011.016-.012.017-.011.016-.012.017-.01.015-.011.017-.011.016-.012.017-.01.015-.012.017-.01.015-.011.016-.011.016-.009.013-.014.02-.006.009-.016.023-.007.01-.016.023,0,0-.019.028-.006.008-.03.044-.008.012-.041.058,0,0-.019.027,0,0-.015.022-.008.011-.015.021-.007.01-.015.021-.008.011-.015.021-.007.01-.014.021-.008.012-.014.02-.008.011-.015.022-.007.01-.016.023-.006.008-.016.023-.007.009-.016.023-.006.008-.016.023-.007.01-.016.022-.006.009-.015.022-.007.01-.015.021-.007.009-.016.023-.006.008-.017.024,0,.007-.017.024-.006.008-.017.024-.005.007-.017.024-.005.008-.017.024-.005.007-.017.024,0,.007-.018.025,0,0-.019.027,0,0q-1.49,2.092-3.08,4.1h0l-.046.058,0,0-.022.027,0,0-.02.026,0,.005-.019.024,0,.006-.018.023-.007.008-.017.022-.006.008-.017.021-.008.01-.016.02-.008.01-.016.02-.008.01-.017.021-.007.008-.017.021-.008.01-.016.02-.008.01-.015.019-.009.012-.015.018-.009.012-.015.018-.01.013-.013.017-.011.014-.013.016-.011.014-.013.016-.011.014-.013.016-.014.017-.01.013-.014.017-.011.014-.015.018-.009.011-.018.022-.007.008-.023.028v0l-.123.153v0l-.023.028,0,0-.021.026,0,.005-.02.025,0,.006-.02.025-.006.007-.019.024,0,.006-.02.024,0,.006-.02.025,0,0-.021.026,0,0-.021.026,0,0-.021.026,0,0-.021.026,0,0-.021.025,0,.005-.021.026,0,0-.022.027,0,0-.022.026,0,0-.022.027,0,0-.022.027,0,0-.022.027,0,0-.022.027,0,0-.023.028,0,0A102.625,102.625,0,0,1,170.029,178l-2.669-2.979A98.332,98.332,0,0,0,190.475,144.2a97.479,97.479,0,0,0,9.46-38.585ZM26.617,164.625a98.43,98.43,0,0,0,30.021,24.268,97.377,97.377,0,0,0,38.138,10.845l-.29,3.989q-1.139-.083-2.271-.191h0l-.04,0h0l-.121-.012h0q-.563-.054-1.124-.115h0l-.04,0h0l-.039,0h0l-.079-.009h0l-.079-.009h0l-.04,0h0l-.039,0h0A101.6,101.6,0,0,1,77.2,200.963h0l-.037-.009h0l-.037-.009h0l-.532-.135h0l-.032-.008-.006,0-.026-.007-.013,0-.025-.006-.013,0-.026-.007-.013,0-.025-.007-.013,0-.025-.006-.015,0-.025-.007-.012,0-.026-.007-.014,0-.024-.006-.015,0-.022-.006-.018,0-.02-.005-.018,0-.02-.005-.019,0-.019-.005-.02-.005-.018,0-.022-.006-.017,0L76,200.657l-.017,0-.023-.006-.014,0-.026-.007-.012,0-.028-.007-.011,0-.027-.007-.013,0L75.8,200.6l-.012,0-.028-.007-.01,0-.029-.008-.01,0-.03-.008-.009,0-.035-.009h0q-.921-.246-1.836-.508-1.4-.4-2.785-.843h0l-.076-.024h0l-.037-.012h0l-.037-.012h0l-.037-.012h0l-.038-.012h0l-.038-.012h0l-.037-.012h0l-.613-.2h0l-.036-.012h0l-.036-.012h0l-.036-.012h0l-.034-.011-.005,0-.033-.011h0l-.035-.011h0l-.033-.011-.006,0-.031-.01-.009,0-.03-.01-.007,0-.031-.01-.007,0-.031-.01-.007,0-.031-.01-.007,0-.033-.011h0l-.034-.011-.005,0-.032-.011-.006,0-.03-.01-.009,0-.031-.01-.006,0-.032-.011-.007,0-.034-.012h0l-.035-.012h0l-.456-.155h0l-.073-.025h0l-.034-.012,0,0-.033-.011-.006,0-.033-.011h0l-.034-.012-.006,0-.032-.011-.006,0-.031-.011-.007,0-.031-.011-.006,0-.032-.011-.006,0-.032-.011-.006,0-.032-.011-.007,0-.032-.011-.005,0-.031-.011-.007,0-.031-.011-.007,0-.03-.01-.008,0-.031-.011-.007,0-.032-.011-.005,0-.034-.012h0l-.037-.013h0q-.379-.133-.756-.27h0l-.035-.012h0l-.036-.013h0l-.074-.027h0l-.037-.013h0l-.037-.013h0l-.036-.013h0l-.036-.013h0a101.442,101.442,0,0,1-12.269-5.419q-3.8-1.99-7.414-4.285h0l-.1-.063h0l-.031-.02,0,0-.029-.019,0,0-.03-.019,0,0L47.138,188l0,0-.028-.018-.006,0-.029-.019,0,0-.031-.02h0L47,187.918h0l-.031-.02,0,0-.031-.02h0l-.032-.02h0l-.033-.021h0l-.032-.021h0l-.4-.258h0l-.032-.021h0l-.031-.02,0,0-.027-.018-.007,0-.026-.017-.008-.005-.025-.016-.007,0-.027-.017-.007,0-.026-.017L46.2,187.4l-.024-.016-.01-.006-.023-.015-.009-.006-.024-.015-.01-.007-.022-.014-.011-.007-.021-.014-.012-.008-.022-.015L46,187.268l-.024-.016-.009-.006-.023-.015-.01-.007-.021-.014L45.9,187.2l-.021-.014-.011-.007-.022-.014-.012-.008-.021-.014-.011-.007-.022-.014-.012-.008-.022-.015-.01-.006-.024-.016-.009-.006-.026-.017-.006,0-.026-.017-.007,0-.03-.02,0,0-.031-.021h0l-.131-.087,0,0-.028-.019-.008-.006-.024-.016-.01-.007-.022-.015-.01-.007-.022-.015-.012-.008-.02-.014-.012-.008-.02-.013-.013-.009-.02-.013-.012-.008-.021-.014-.012-.008-.02-.013-.014-.009-.018-.012-.015-.01-.018-.012-.014-.01-.018-.012-.015-.01-.018-.012-.014-.01-.018-.012-.014-.01-.019-.013-.014-.009-.018-.012-.014-.01-.019-.013-.013-.009-.019-.013-.014-.009-.019-.013-.014-.009-.018-.012-.014-.01-.019-.013-.014-.009-.018-.012-.015-.01L44.7,186.4l-.014-.01-.017-.012-.015-.01-.017-.012-.015-.01-.016-.011-.017-.011-.016-.011-.016-.011-.015-.01-.017-.012-.012-.008-.02-.014-.009-.006-.115-.079,0,0-.024-.017-.008-.005-.023-.016-.009-.006-.023-.016-.009-.006-.023-.016-.01-.007-.021-.014-.011-.008-.021-.015-.01-.007-.021-.015-.011-.007L44.123,186l-.011-.008-.021-.014-.011-.008-.021-.015-.011-.008-.02-.014-.012-.008-.02-.014-.012-.008-.02-.014-.012-.008-.021-.015-.01-.007-.021-.015-.011-.007-.021-.015-.011-.007-.021-.015-.01-.007-.022-.015-.01-.007-.021-.015-.011-.008-.021-.015-.011-.007-.021-.015-.011-.007-.022-.015-.008-.006-.023-.016-.01-.007-.022-.016-.01-.007-.021-.015-.01-.007-.022-.015-.007,0-.025-.017-.006,0-.026-.018,0,0-.028-.02,0,0-.243-.171-.006,0-.029-.02,0,0-.027-.019,0,0-.026-.019-.005,0-.024-.017-.008-.006-.024-.017-.006,0-.025-.018-.007-.005-.023-.017-.008-.006-.023-.016-.009-.007-.023-.017-.007-.005-.025-.018-.007,0-.024-.017-.007-.005-.024-.017-.007-.005-.025-.018-.006,0-.025-.018-.006,0-.025-.018-.007-.005-.024-.017L42.7,185l-.024-.017-.006,0-.026-.018-.005,0-.026-.019-.006,0-.026-.019,0,0-.027-.019,0,0-.029-.021h0l-.061-.044h0l-.372-.269h0l-.03-.022h0l-.029-.021,0,0-.027-.02,0,0-.026-.019-.006,0-.026-.019,0,0-.027-.02,0,0-.028-.02,0,0-.027-.02,0,0-.027-.02,0,0-.027-.02,0,0-.026-.019,0,0-.025-.019-.007,0-.025-.018-.005,0-.026-.019,0,0-.028-.02,0,0-.027-.02,0,0-.027-.02,0,0-.028-.02,0,0-.028-.021h0l-.029-.021,0,0-.426-.316,0,0L41,183.761l0,0-.026-.019-.006,0-.026-.02,0,0-.028-.021,0,0-.029-.022h0l-.028-.021,0,0-.027-.02,0,0-.027-.02,0,0-.026-.02,0,0-.025-.019-.007,0-.024-.018-.006,0-.025-.019-.006,0-.026-.019,0,0-.026-.02-.006,0-.025-.019-.005,0-.025-.019-.006,0-.025-.019-.005,0-.026-.019-.005,0-.026-.02h0L40,183l0,0-.028-.022,0,0-.028-.021,0,0-.028-.022h0l-.028-.022,0,0-.028-.022h0l-.027-.021,0,0-.025-.02-.005,0-.024-.018-.008-.006-.024-.018-.006,0-.024-.018-.007-.006-.023-.018-.007-.005-.023-.018-.008-.006-.023-.018-.007-.006-.023-.018-.008-.006-.023-.017-.008-.006-.021-.017-.01-.008-.021-.016-.008-.006-.023-.018-.008-.006-.023-.018-.005,0-.025-.019-.006-.005-.025-.019,0,0-.027-.021,0,0-.026-.02h0l-.028-.022,0,0-.175-.137,0,0-.023-.018-.007-.006-.018-.014-.014-.011-.018-.014-.011-.009-.019-.015-.012-.009-.018-.014-.012-.01-.018-.014-.013-.01-.02-.016-.01-.007-.02-.016-.011-.009-.018-.014-.013-.01-.017-.013-.014-.011-.017-.013-.012-.01-.018-.014L38.72,182l-.016-.012-.015-.012-.015-.012-.016-.012-.015-.012-.015-.012-.016-.012-.015-.012-.015-.012-.016-.013-.013-.011-.018-.014-.012-.01-.017-.013-.014-.011-.016-.013-.014-.011-.016-.013-.014-.011-.017-.014-.014-.011-.016-.012-.015-.012-.017-.014-.012-.01-.021-.017-.009-.007-.024-.019-.007-.005-.024-.019-.007-.006-.027-.022,0,0-.184-.148,0,0L38,181.431l-.006,0-.024-.02-.006,0-.025-.02-.006-.005-.024-.019-.008-.006-.022-.018-.009-.007-.021-.017-.009-.007-.022-.018-.008-.007-.021-.017-.009-.008-.02-.016-.011-.009-.019-.016-.01-.008-.02-.016-.011-.009-.019-.016-.011-.009-.019-.015-.012-.01-.019-.016-.01-.008-.021-.017-.01-.008-.019-.015-.012-.01-.017-.014-.014-.011-.017-.014L37.479,181l-.017-.014-.014-.011-.015-.012-.016-.013-.013-.011-.017-.014-.014-.012-.015-.012-.016-.013-.015-.012-.013-.01-.017-.014-.011-.009-.019-.016-.01-.008-.019-.016-.01-.008-.02-.017h0l-.084-.069,0,0-.028-.023h0l-.022-.018-.008-.007-.027-.022,0,0-.023-.019L37,180.61l-.024-.02-.005,0-.024-.02-.005,0-.026-.021,0,0-.025-.02-.006,0-.024-.02-.006,0-.024-.02-.006,0-.024-.02,0,0-.024-.02-.006-.005-.024-.02-.005,0-.025-.021,0,0-.025-.021,0,0-.024-.02-.006,0-.024-.02,0,0-.025-.021,0,0-.026-.022,0,0-.027-.023,0,0-.028-.023h0a102.63,102.63,0,0,1-12.959-13.011ZM39.751,21.191l2.443,3.167A98.5,98.5,0,0,0,16.8,53.533,97.34,97.34,0,0,0,4.59,91.177L.614,90.74q.527-4.8,1.492-9.465h0l.008-.039h0l.008-.039h0l.008-.039h0l.008-.038v0l.008-.037v0l.008-.037v0L2.165,81v0l.008-.036v0l.008-.036v0l.008-.038h0l.017-.079h0q.055-.261.111-.52h0l.009-.039v0l.008-.037v0l.008-.037v-.006l.007-.034,0-.007.007-.032,0-.01.007-.03,0-.009L2.379,80l0-.011.006-.028,0-.011.006-.028,0-.011.006-.029,0-.011.006-.028,0-.012.006-.028,0-.011.006-.029,0-.011.006-.029,0-.011.006-.028,0-.012.006-.029,0-.01.007-.03,0-.01.007-.03,0-.01.006-.029,0-.011.007-.031,0-.008L2.5,79.44v-.007l.007-.032,0-.007.007-.031,0-.009.008-.035v0l.036-.159v0l.008-.037,0-.009.007-.03,0-.013.006-.026,0-.015L2.6,79l0-.013.006-.027,0-.012.006-.027,0-.015.006-.024,0-.016.005-.023,0-.016.005-.023,0-.017,0-.021,0-.018,0-.021,0-.018,0-.021,0-.017.005-.023,0-.017.005-.022,0-.018,0-.021,0-.019,0-.02,0-.019,0-.02,0-.02,0-.018,0-.021,0-.018,0-.021,0-.018,0-.02,0-.02,0-.02,0-.018,0-.021,0-.017.005-.022,0-.017.005-.022,0-.016.006-.025,0-.007.008-.031v0l.054-.222v0l.009-.036v0l.008-.032,0-.008.008-.033v0l.007-.03,0-.01.007-.029,0-.01.007-.028,0-.011.007-.028,0-.01.007-.028,0-.012.007-.027,0-.011.007-.028,0-.012.007-.028,0-.01.007-.029,0-.011.007-.029,0-.009L3,77.355l0-.01.007-.029,0-.009.007-.03,0-.008.008-.031,0-.007.008-.032,0-.007.008-.032v-.005l.008-.034v0l.009-.034h0a101.194,101.194,0,0,1,4.889-14.64h0l.015-.035h0l.014-.033,0,0L8,62.336l0-.007.012-.028,0-.009.012-.028,0-.007.012-.028,0-.008.012-.029,0-.007.012-.029,0-.007.013-.03,0,0,.013-.031,0-.006.013-.03,0-.005.013-.03,0-.008.012-.029,0,0,.013-.032,0,0,.15-.349,0,0,.015-.034h0l.012-.029,0-.008.011-.024.005-.012.009-.021.007-.016.01-.022L8.4,61.4l.01-.023.006-.013.01-.023.006-.013.01-.022.006-.015.009-.021.006-.014.01-.022.006-.015.009-.021.007-.016.008-.019.008-.019.007-.017.008-.019.008-.018.008-.018.008-.018.008-.018.008-.019L8.574,61l.008-.018.008-.017.008-.019.008-.017.008-.018.008-.019.007-.017.009-.021.007-.015.009-.02.007-.016.009-.019.007-.017.009-.019.007-.017.01-.023.006-.013.01-.023.006-.014.064-.145,0-.006.013-.03,0-.007.013-.03,0-.007.013-.029,0-.008.012-.028,0-.01.012-.027,0-.007.013-.029,0-.008.013-.028,0-.008.012-.028,0-.009.013-.028,0-.007.013-.029,0-.008.013-.028,0-.008.013-.028,0-.009L9,60.045l0-.006.014-.031,0-.005.014-.031,0-.005.014-.031,0-.006.014-.032,0,0,.015-.032,0,0,.015-.033,0,0,.015-.033,0,0q1.922-4.223,4.211-8.234.945-1.658,1.95-3.277h0l.041-.066h0q.188-.3.379-.6l0,0,.019-.03,0,0,.019-.029,0,0,.018-.028,0-.007.016-.025.007-.01.014-.023.006-.01.015-.023.007-.011.014-.022.007-.011.014-.022.007-.011.014-.022.006-.01.015-.023.007-.011.013-.021.008-.013.012-.019.009-.015.012-.019.009-.014.013-.02L16,47.127l.013-.02.008-.012.013-.021.008-.013.014-.022.007-.01.015-.023.007-.01.014-.022.007-.01.013-.02.009-.014.013-.019.008-.013.013-.021.008-.013.014-.021.007-.011.012-.019.009-.015.037-.057.017-.026.009-.014.02-.031h0l.013-.021.009-.013.012-.018.009-.014.012-.019.009-.015.012-.018.009-.014.012-.018.01-.016.011-.017.01-.015.012-.018.01-.015.012-.018.009-.013.013-.019.009-.014.013-.019.008-.012.013-.02.008-.013.013-.02.008-.012.013-.02.009-.014.012-.018.009-.013.013-.02.008-.012.014-.021.007-.011.014-.022.007-.011.014-.022.006-.01.015-.023.007-.01.014-.022.007-.011L16.737,46l.008-.012.014-.021.006-.01.016-.024,0-.006.251-.379h0l.019-.029,0,0,.018-.028,0,0,.018-.027,0-.005.018-.027,0-.005.018-.027,0-.005.018-.027,0,0,.019-.028,0,0,.018-.028,0-.005.018-.027,0-.005.018-.026,0-.006.018-.026,0-.005.018-.027,0,0,.019-.028,0,0,.02-.029,0,0,.042-.062v0L17.4,45v0l.02-.029,0,0a102.331,102.331,0,0,1,6.952-9.138h0L24.4,35.8h0l.024-.028h0l.024-.028,0,0,.022-.026,0,0,.022-.025,0,0,.022-.026,0,0,.023-.027,0,0,.023-.026,0,0,.022-.026,0,0,.023-.027,0,0,.024-.028h0l.024-.028,0,0,.023-.027h0l.024-.028h0l.4-.46,0,0,.023-.026,0,0,.021-.025,0,0,.021-.024,0,0,.021-.024,0-.006.02-.023.005-.006.02-.022.007-.008.019-.022.006-.007.019-.022.006-.007.02-.023,0-.006.02-.023.006-.007.02-.022.006-.006.02-.023.005-.006.02-.023.005-.006.02-.023.006-.007.019-.021.007-.008.019-.021.006-.007.02-.022,0-.006.021-.024,0,0,.022-.025,0,0,.023-.026,0,0,.175-.2h0l.023-.025,0,0,.021-.024,0-.005.021-.023.005-.006.02-.022.006-.007.019-.021.007-.008.019-.021.007-.008.018-.02.008-.009.018-.02.008-.008.017-.019.009-.011.016-.018.01-.011.015-.017.01-.012.017-.019.008-.009.017-.019.009-.01.017-.019.009-.01.016-.018.01-.011.017-.019.009-.01.016-.018.01-.011.016-.018.01-.011.016-.017.01-.011.017-.019.008-.009.017-.019.01-.011.017-.018.009-.01.016-.018.01-.011.016-.018.007-.008.018-.02.01-.011.016-.018.01-.012.015-.017.008-.009.068-.074,0,0,.018-.019.009-.01.023-.025,0,0,.02-.022.007-.007.019-.02.007-.008L26.7,33.2l.01-.011.018-.019.007-.008.018-.02.008-.009.017-.019.009-.01.016-.018.01-.011.017-.018.009-.01.017-.018.011-.012L26.879,33l.011-.012.015-.016.011-.012.016-.017.009-.01.017-.019.009-.01.017-.018.01-.011.016-.018.01-.011.017-.018.008-.009.018-.02.009-.01.017-.018.009-.01.017-.018.01-.011.016-.017.009-.009.018-.02.007-.008.019-.02.008-.009.018-.02.008-.008.019-.021,0,0,.175-.188.006-.007.018-.019.009-.009.018-.019.008-.009.018-.019.008-.009.016-.018.01-.011.016-.017.01-.011.017-.019.008-.009.019-.02.007-.008.018-.019.009-.01.017-.018.009-.01.017-.018.01-.01.017-.018.01-.01.016-.017.011-.012.016-.017.01-.011.016-.017.01-.011.017-.018.009-.01.017-.018.01-.011.017-.018.009-.01.017-.018.01-.01.017-.018.01-.011.016-.017.011-.011.016-.017.009-.009.018-.019.007-.008.02-.021,0,0,.021-.023.009-.009.019-.019,0,0,.075-.079h0l.052-.055h0l.048-.051.005-.005.022-.023,0,0,.021-.022.006-.006.021-.022.005-.006.02-.02.008-.008.019-.02.007-.007.02-.021.007-.007.021-.022.005-.005.021-.022.007-.007.02-.02.007-.008.019-.02.008-.008.019-.019.008-.008.018-.019.009-.009.018-.019.008-.008.019-.02.008-.008.02-.02.007-.007.02-.021.008-.008.019-.02.008-.008.019-.02.008-.008.019-.02.008-.008.02-.02.007-.007.02-.021.005-.005.022-.023,0,0,.291-.3,0,0,.023-.023,0,0,.022-.022.005-.005.021-.021.006-.007.022-.022,0,0,.022-.023,0,0,.022-.023,0,0,.022-.023,0-.005.022-.022.005-.005.021-.021.007-.007.02-.021.007-.007.019-.02.008-.008.02-.02.007-.007.02-.021.007-.007.021-.021.006-.006.021-.022.006-.006.022-.022,0,0,.023-.023,0,0,.023-.023,0,0,.023-.023.005-.005.319-.319,0,0,.053-.053h0l.024-.024,0,0,.022-.022.005-.005.023-.023,0,0,.024-.024,0,0,.024-.024,0,0,.024-.023,0,0,.024-.024,0,0,.025-.025,0,0,.024-.024,0,0,.023-.023,0,0,.023-.023,0,0,.024-.024,0,0,.024-.024,0,0,.025-.024,0,0c.182-.179.361-.354.544-.532l0,0,.025-.025,0,0,.026-.025h0l.026-.025h0l.026-.025,0,0,.026-.025h0l.026-.026h0l.027-.026h0l.026-.025,0,0,.026-.025h0l.026-.025h0q.3-.292.607-.58h0L31.9,27.9h0l.055-.052h0l.111-.1h0q.39-.367.783-.73h0l.028-.025h0l.027-.025h0l.055-.051h0c.188-.173.374-.343.563-.514l0,0,.027-.025h0l.026-.024,0,0,.026-.023,0,0,.024-.022.005,0,.024-.022,0,0,.025-.022,0,0,.024-.022,0,0,.024-.022,0,0,.025-.022,0,0,.025-.023,0,0,.025-.023,0,0,.025-.022.005,0,.024-.022,0,0,.026-.024h0l.056-.05h0l.338-.3,0,0,.025-.022,0,0,.025-.022,0,0,.024-.022,0,0,.022-.019.008-.007.021-.018.008-.008.02-.018.009-.008.02-.018.01-.008.018-.016.011-.01.019-.016.01-.009.02-.017.009-.008.02-.018.009-.008.019-.016.011-.01.019-.016.01-.009.019-.016.01-.009.019-.016.011-.01.017-.015.013-.011.017-.015.011-.01.018-.016.01-.009.02-.017.01-.008.019-.016.012-.01.018-.016.011-.01.018-.016.012-.01.018-.016L35,25.088l.015-.013.015-.013.015-.013.01-.008.02-.017,0,0,.037-.032.016-.014.01-.009.019-.017.011-.01.019-.016.008-.007.021-.018.008-.007.022-.019.005,0,.024-.02.008-.007.021-.019.009-.008.019-.017.012-.01.018-.016.011-.009.018-.016.011-.009.019-.017.01-.009.019-.016.01-.009.02-.017.009-.008.02-.017.01-.008.02-.017.01-.008.019-.017.01-.009.02-.017.009-.008.021-.018.008-.007.023-.02.007-.006.024-.02.006-.005.025-.021,0,0,.025-.021.005,0,.025-.021.005,0,.025-.022,0,0,.028-.024h0Q37.762,22.725,39.751,21.191Z" transform="translate(1113.029 3313)" fill="#3c6d9d"/>
    <path id="Polígono_4" data-name="Polígono 4" d="M8.5,0,17,15H0Z" transform="matrix(-0.695, 0.719, -0.719, -0.695, 1302.329, 3347.851)" fill="#3c6d9d"/>
    <path id="Polígono_5" data-name="Polígono 5" d="M8.5,0,17,15H0Z" transform="translate(1124.529 3477.394) rotate(-45)" fill="#3c6d9d"/>
    <rect id="Rectángulo_34893" data-name="Rectángulo 34893" width="147" height="59" rx="7" transform="translate(1145 3488)" fill="#78b62e"/>
    <path id="Trazado_149439" data-name="Trazado 149439" d="M17.113,15.563a4.068,4.068,0,0,1-1.789,1.176,7.492,7.492,0,0,1-2.562.418,5.076,5.076,0,0,1-2.59-.645,4.3,4.3,0,0,1-1.719-1.871,6.585,6.585,0,0,1-.621-2.883v-.773a6.994,6.994,0,0,1,.574-2.949,4.248,4.248,0,0,1,1.656-1.906,4.771,4.771,0,0,1,2.535-.66,4.751,4.751,0,0,1,3.164.965,4.123,4.123,0,0,1,1.352,2.809H14.832a2.268,2.268,0,0,0-.691-1.43,2.208,2.208,0,0,0-1.473-.453,2.078,2.078,0,0,0-1.82.9,4.724,4.724,0,0,0-.633,2.672v.727a4.5,4.5,0,0,0,.68,2.7,2.327,2.327,0,0,0,1.992.914,2.6,2.6,0,0,0,1.883-.562V12.75H12.637V11.023h4.477Zm5.641,1.594a4.15,4.15,0,0,1-3.027-1.141,4.054,4.054,0,0,1-1.168-3.039v-.219a5.106,5.106,0,0,1,.492-2.277,3.612,3.612,0,0,1,1.395-1.547A3.914,3.914,0,0,1,22.5,8.391a3.508,3.508,0,0,1,2.73,1.094,4.444,4.444,0,0,1,1,3.1v.922H20.848a2.1,2.1,0,0,0,.66,1.328,2,2,0,0,0,1.395.5,2.437,2.437,0,0,0,2.039-.945l1.109,1.242a3.389,3.389,0,0,1-1.375,1.121A4.511,4.511,0,0,1,22.754,17.156ZM22.5,10.211a1.411,1.411,0,0,0-1.09.455,2.357,2.357,0,0,0-.535,1.3h3.141v-.181a1.681,1.681,0,0,0-.406-1.165A1.456,1.456,0,0,0,22.5,10.211Zm9.594,4.453a.727.727,0,0,0-.41-.652,4.659,4.659,0,0,0-1.316-.426q-3.016-.633-3.016-2.562a2.323,2.323,0,0,1,.934-1.879,3.766,3.766,0,0,1,2.441-.754,4.053,4.053,0,0,1,2.574.758,2.388,2.388,0,0,1,.965,1.969H32a1.092,1.092,0,0,0-.312-.8A1.322,1.322,0,0,0,30.715,10a1.351,1.351,0,0,0-.883.258.814.814,0,0,0-.312.656.7.7,0,0,0,.355.605,3.657,3.657,0,0,0,1.2.4A9.8,9.8,0,0,1,32.5,12.3a2.336,2.336,0,0,1,1.789,2.273,2.2,2.2,0,0,1-.992,1.871,4.28,4.28,0,0,1-2.562.715,4.47,4.47,0,0,1-1.887-.379,3.166,3.166,0,0,1-1.293-1.039,2.414,2.414,0,0,1-.469-1.426h2.141a1.179,1.179,0,0,0,.445.922,1.766,1.766,0,0,0,1.109.32,1.635,1.635,0,0,0,.98-.246A.766.766,0,0,0,32.09,14.664Zm6.352-8.2V8.547h1.445V10.2H38.441v4.219a1.007,1.007,0,0,0,.18.672.9.9,0,0,0,.688.2,3.6,3.6,0,0,0,.664-.055v1.711a4.648,4.648,0,0,1-1.367.2,2.156,2.156,0,0,1-2.422-2.4V10.2H34.949V8.547h1.234V6.469ZM43.527,17H41.262V8.547h2.266Zm-2.4-10.641a1.112,1.112,0,0,1,.34-.836,1.465,1.465,0,0,1,1.848,0,1.105,1.105,0,0,1,.344.836,1.108,1.108,0,0,1-.348.844,1.448,1.448,0,0,1-1.836,0A1.108,1.108,0,0,1,41.129,6.359ZM45.035,12.7a5.013,5.013,0,0,1,.484-2.242A3.546,3.546,0,0,1,46.914,8.93a4.069,4.069,0,0,1,2.113-.539A3.849,3.849,0,0,1,51.82,9.438a4.2,4.2,0,0,1,1.207,2.844l.016.578a4.418,4.418,0,0,1-1.086,3.121,4.209,4.209,0,0,1-5.832,0,4.5,4.5,0,0,1-1.09-3.187Zm2.258.16a3.16,3.16,0,0,0,.453,1.843,1.628,1.628,0,0,0,2.578.008,3.457,3.457,0,0,0,.461-2.015,3.128,3.128,0,0,0-.461-1.831,1.5,1.5,0,0,0-1.3-.649,1.474,1.474,0,0,0-1.281.646A3.516,3.516,0,0,0,47.293,12.856ZM49.473,5h2.461L49.77,7.422H47.934Zm7.039,3.547.07.977a2.951,2.951,0,0,1,2.43-1.133,2.453,2.453,0,0,1,2,.789,3.682,3.682,0,0,1,.672,2.359V17H59.426V11.594a1.465,1.465,0,0,0-.312-1.043,1.4,1.4,0,0,0-1.039-.324,1.553,1.553,0,0,0-1.43.813V17H54.387V8.547ZM70.535,13.8,72.1,8.547H74.52l-3.4,9.766-.187.445a2.577,2.577,0,0,1-2.5,1.656,3.552,3.552,0,0,1-1-.148V18.555l.344.008a1.857,1.857,0,0,0,.957-.2,1.283,1.283,0,0,0,.5-.648l.266-.7L66.535,8.547h2.43ZM82.1,6.469V8.547h1.445V10.2H82.1v4.219a1.007,1.007,0,0,0,.18.672.9.9,0,0,0,.688.2,3.6,3.6,0,0,0,.664-.055v1.711a4.648,4.648,0,0,1-1.367.2,2.156,2.156,0,0,1-2.422-2.4V10.2H78.605V8.547H79.84V6.469Zm7.453,4.2a6.134,6.134,0,0,0-.812-.062,1.654,1.654,0,0,0-1.68.867V17H84.8V8.547h2.133L87,9.555a2.092,2.092,0,0,1,1.883-1.164,2.366,2.366,0,0,1,.7.1ZM95.3,17a2.507,2.507,0,0,1-.227-.758,2.732,2.732,0,0,1-2.133.914,3,3,0,0,1-2.059-.719,2.312,2.312,0,0,1-.816-1.812,2.389,2.389,0,0,1,1-2.062,4.915,4.915,0,0,1,2.879-.727H94.98v-.484a1.393,1.393,0,0,0-.3-.937,1.183,1.183,0,0,0-.949-.352,1.345,1.345,0,0,0-.895.273.929.929,0,0,0-.324.75H90.254a2.268,2.268,0,0,1,.453-1.359,3,3,0,0,1,1.281-.98,4.669,4.669,0,0,1,1.859-.355,3.689,3.689,0,0,1,2.48.785,2.747,2.747,0,0,1,.918,2.207v3.664a4.041,4.041,0,0,0,.336,1.82V17Zm-1.867-1.57a1.945,1.945,0,0,0,.922-.223,1.462,1.462,0,0,0,.625-.6V13.156h-.844q-1.7,0-1.8,1.172l-.008.133a.9.9,0,0,0,.3.7A1.153,1.153,0,0,0,93.434,15.43ZM106.6,12.852a5.119,5.119,0,0,1-.867,3.168,2.872,2.872,0,0,1-2.422,1.137,2.639,2.639,0,0,1-2.2-1.055l-.1.9H98.98V5h2.258V9.3a2.571,2.571,0,0,1,2.055-.914,2.9,2.9,0,0,1,2.426,1.137,5.126,5.126,0,0,1,.879,3.2Zm-2.258-.164a3.363,3.363,0,0,0-.406-1.871,1.374,1.374,0,0,0-1.211-.59,1.489,1.489,0,0,0-1.484.883v3.336a1.509,1.509,0,0,0,1.5.891,1.394,1.394,0,0,0,1.438-1.078A5.562,5.562,0,0,0,104.34,12.688ZM112.887,17a2.507,2.507,0,0,1-.227-.758,2.732,2.732,0,0,1-2.133.914,3,3,0,0,1-2.059-.719,2.312,2.312,0,0,1-.816-1.812,2.389,2.389,0,0,1,1-2.062,4.915,4.915,0,0,1,2.879-.727h1.039v-.484a1.393,1.393,0,0,0-.3-.937,1.183,1.183,0,0,0-.949-.352,1.345,1.345,0,0,0-.895.273.929.929,0,0,0-.324.75H107.84a2.268,2.268,0,0,1,.453-1.359,3,3,0,0,1,1.281-.98,4.669,4.669,0,0,1,1.859-.355,3.689,3.689,0,0,1,2.48.785,2.747,2.747,0,0,1,.918,2.207v3.664a4.041,4.041,0,0,0,.336,1.82V17Zm-1.867-1.57a1.945,1.945,0,0,0,.922-.223,1.462,1.462,0,0,0,.625-.6V13.156h-.844q-1.7,0-1.8,1.172l-.008.133a.9.9,0,0,0,.3.7A1.153,1.153,0,0,0,111.02,15.43Zm7.938-6.883v8.914a3.024,3.024,0,0,1-.742,2.176,2.821,2.821,0,0,1-2.141.777,4.591,4.591,0,0,1-1.117-.133V18.492a4.238,4.238,0,0,0,.711.07q1.023,0,1.023-1.086V8.547Zm-2.445-2.187a1.112,1.112,0,0,1,.34-.836,1.47,1.47,0,0,1,1.852,0,1.112,1.112,0,0,1,.34.836,1.108,1.108,0,0,1-.348.844,1.448,1.448,0,0,1-1.836,0A1.108,1.108,0,0,1,116.512,6.359Zm3.859,6.336a5.013,5.013,0,0,1,.484-2.242A3.546,3.546,0,0,1,122.25,8.93a4.069,4.069,0,0,1,2.113-.539,3.849,3.849,0,0,1,2.793,1.047,4.2,4.2,0,0,1,1.207,2.844l.016.578a4.418,4.418,0,0,1-1.086,3.121,4.209,4.209,0,0,1-5.832,0,4.5,4.5,0,0,1-1.09-3.187Zm2.258.16a3.16,3.16,0,0,0,.453,1.843,1.628,1.628,0,0,0,2.578.008,3.457,3.457,0,0,0,.461-2.015,3.128,3.128,0,0,0-.461-1.831,1.5,1.5,0,0,0-1.3-.649,1.474,1.474,0,0,0-1.281.646A3.516,3.516,0,0,0,122.629,12.856Zm-94.8,20.48a1.481,1.481,0,0,0,1.016-.344,1.2,1.2,0,0,0,.406-.914h2.117a2.9,2.9,0,0,1-.469,1.574,3.093,3.093,0,0,1-1.262,1.109,3.949,3.949,0,0,1-1.77.395A3.67,3.67,0,0,1,25.008,34a4.56,4.56,0,0,1-1.047-3.184v-.148A4.508,4.508,0,0,1,25,27.555a3.627,3.627,0,0,1,2.852-1.164,3.555,3.555,0,0,1,2.543.9,3.2,3.2,0,0,1,.973,2.4H29.25a1.551,1.551,0,0,0-.406-1.072,1.51,1.51,0,0,0-2.223.163,3.333,3.333,0,0,0-.4,1.866v.235a3.375,3.375,0,0,0,.4,1.878A1.377,1.377,0,0,0,27.828,33.336ZM32.3,30.7a5.013,5.013,0,0,1,.484-2.242,3.546,3.546,0,0,1,1.395-1.523,4.069,4.069,0,0,1,2.113-.539,3.849,3.849,0,0,1,2.793,1.047A4.2,4.2,0,0,1,40.3,30.281l.016.578a4.418,4.418,0,0,1-1.086,3.121,4.209,4.209,0,0,1-5.832,0A4.5,4.5,0,0,1,32.3,30.8Zm2.258.16a3.16,3.16,0,0,0,.453,1.843,1.628,1.628,0,0,0,2.578.008,3.457,3.457,0,0,0,.461-2.015,3.128,3.128,0,0,0-.461-1.831,1.5,1.5,0,0,0-1.3-.649,1.474,1.474,0,0,0-1.281.646A3.516,3.516,0,0,0,34.563,30.856ZM44.086,35H41.82V23h2.266Zm6.758,0a2.507,2.507,0,0,1-.227-.758,2.732,2.732,0,0,1-2.133.914,3,3,0,0,1-2.059-.719,2.312,2.312,0,0,1-.816-1.812,2.389,2.389,0,0,1,1-2.062,4.915,4.915,0,0,1,2.879-.727h1.039v-.484a1.393,1.393,0,0,0-.3-.937,1.183,1.183,0,0,0-.949-.352,1.345,1.345,0,0,0-.895.273.929.929,0,0,0-.324.75H45.8a2.268,2.268,0,0,1,.453-1.359,3,3,0,0,1,1.281-.98,4.669,4.669,0,0,1,1.859-.355,3.689,3.689,0,0,1,2.48.785,2.747,2.747,0,0,1,.918,2.207v3.664a4.041,4.041,0,0,0,.336,1.82V35Zm-1.867-1.57a1.945,1.945,0,0,0,.922-.223,1.462,1.462,0,0,0,.625-.6V31.156H49.68q-1.7,0-1.8,1.172l-.008.133a.9.9,0,0,0,.3.7A1.153,1.153,0,0,0,48.977,33.43Zm13.164-2.578a5.119,5.119,0,0,1-.867,3.168,2.872,2.872,0,0,1-2.422,1.137,2.639,2.639,0,0,1-2.2-1.055l-.1.9H54.523V23h2.258v4.3a2.571,2.571,0,0,1,2.055-.914,2.9,2.9,0,0,1,2.426,1.137,5.126,5.126,0,0,1,.879,3.2Zm-2.258-.164a3.363,3.363,0,0,0-.406-1.871,1.374,1.374,0,0,0-1.211-.59,1.489,1.489,0,0,0-1.484.883v3.336a1.509,1.509,0,0,0,1.5.891,1.394,1.394,0,0,0,1.438-1.078A5.562,5.562,0,0,0,59.883,30.688Zm3.3.008a5.013,5.013,0,0,1,.484-2.242,3.546,3.546,0,0,1,1.395-1.523,4.069,4.069,0,0,1,2.113-.539,3.849,3.849,0,0,1,2.793,1.047,4.2,4.2,0,0,1,1.207,2.844l.016.578A4.418,4.418,0,0,1,70.1,33.98a4.209,4.209,0,0,1-5.832,0A4.5,4.5,0,0,1,63.18,30.8Zm2.258.16a3.16,3.16,0,0,0,.453,1.843,1.628,1.628,0,0,0,2.578.008,3.457,3.457,0,0,0,.461-2.015,3.128,3.128,0,0,0-.461-1.831,1.5,1.5,0,0,0-1.3-.649,1.474,1.474,0,0,0-1.281.646A3.516,3.516,0,0,0,65.438,30.856Zm11.891-2.192a6.134,6.134,0,0,0-.812-.062,1.654,1.654,0,0,0-1.68.867V35H72.578V26.547h2.133l.063,1.008a2.092,2.092,0,0,1,1.883-1.164,2.366,2.366,0,0,1,.7.1ZM83.078,35a2.507,2.507,0,0,1-.227-.758,2.732,2.732,0,0,1-2.133.914,3,3,0,0,1-2.059-.719,2.312,2.312,0,0,1-.816-1.812,2.389,2.389,0,0,1,1-2.062,4.915,4.915,0,0,1,2.879-.727h1.039v-.484a1.393,1.393,0,0,0-.3-.937,1.183,1.183,0,0,0-.949-.352,1.345,1.345,0,0,0-.895.273.929.929,0,0,0-.324.75H78.031a2.268,2.268,0,0,1,.453-1.359,3,3,0,0,1,1.281-.98,4.669,4.669,0,0,1,1.859-.355,3.689,3.689,0,0,1,2.48.785,2.747,2.747,0,0,1,.918,2.207v3.664a4.041,4.041,0,0,0,.336,1.82V35Zm-1.867-1.57a1.945,1.945,0,0,0,.922-.223,1.462,1.462,0,0,0,.625-.6V31.156h-.844q-1.7,0-1.8,1.172l-.008.133a.9.9,0,0,0,.3.7A1.153,1.153,0,0,0,81.211,33.43Zm8.25-8.961v2.078h1.445V28.2H89.461v4.219a1.007,1.007,0,0,0,.18.672.9.9,0,0,0,.688.2,3.6,3.6,0,0,0,.664-.055v1.711a4.648,4.648,0,0,1-1.367.2,2.156,2.156,0,0,1-2.422-2.4V28.2H85.969V26.547H87.2V24.469ZM94.547,35H92.281V26.547h2.266Zm-2.4-10.641a1.112,1.112,0,0,1,.34-.836,1.465,1.465,0,0,1,1.848,0,1.193,1.193,0,0,1,0,1.68,1.448,1.448,0,0,1-1.836,0A1.108,1.108,0,0,1,92.148,24.359Zm7.422,7.883,1.57-5.7H103.5L100.648,35H98.492l-2.852-8.453H98Zm4.453-1.547a5.013,5.013,0,0,1,.484-2.242A3.546,3.546,0,0,1,105.9,26.93a4.069,4.069,0,0,1,2.113-.539,3.849,3.849,0,0,1,2.793,1.047,4.2,4.2,0,0,1,1.207,2.844l.016.578a4.418,4.418,0,0,1-1.086,3.121,4.209,4.209,0,0,1-5.832,0,4.5,4.5,0,0,1-1.09-3.187Zm2.258.16a3.16,3.16,0,0,0,.453,1.843,1.628,1.628,0,0,0,2.578.008,3.457,3.457,0,0,0,.461-2.015,3.128,3.128,0,0,0-.461-1.831,1.5,1.5,0,0,0-1.3-.649,1.474,1.474,0,0,0-1.281.646A3.516,3.516,0,0,0,106.281,30.856Z" transform="translate(1151 3499)" fill="#12263f"/>
    <rect id="Rectángulo_34891" data-name="Rectángulo 34891" width="158" height="39" rx="7" transform="translate(1139 3293)" fill="#78b62e"/>
    <path id="Trazado_149436" data-name="Trazado 149436" d="M9.945,13.211A4.025,4.025,0,0,1,8.59,16.1a4.76,4.76,0,0,1-3.223,1.055,4.28,4.28,0,0,1-3.441-1.473A6.038,6.038,0,0,1,.672,11.641v-.7A6.819,6.819,0,0,1,1.25,8.055,4.332,4.332,0,0,1,2.9,6.137a4.629,4.629,0,0,1,2.5-.668A4.637,4.637,0,0,1,8.57,6.523,4.326,4.326,0,0,1,9.961,9.484H7.617A2.376,2.376,0,0,0,7,7.887a2.271,2.271,0,0,0-1.605-.5,1.991,1.991,0,0,0-1.754.84,4.707,4.707,0,0,0-.6,2.605V11.7a5.038,5.038,0,0,0,.559,2.7,1.954,1.954,0,0,0,1.762.852,2.314,2.314,0,0,0,1.621-.5A2.241,2.241,0,0,0,7.6,13.211Zm6.141-2.547a6.134,6.134,0,0,0-.812-.062,1.654,1.654,0,0,0-1.68.867V17H11.336V8.547h2.133l.063,1.008a2.092,2.092,0,0,1,1.883-1.164,2.366,2.366,0,0,1,.7.1Zm4.977,6.492a4.15,4.15,0,0,1-3.027-1.141,4.054,4.054,0,0,1-1.168-3.039v-.219a5.106,5.106,0,0,1,.492-2.277,3.612,3.612,0,0,1,1.395-1.547,3.914,3.914,0,0,1,2.059-.543,3.508,3.508,0,0,1,2.73,1.094,4.444,4.444,0,0,1,1,3.1v.922H19.156a2.1,2.1,0,0,0,.66,1.328,2,2,0,0,0,1.395.5,2.437,2.437,0,0,0,2.039-.945l1.109,1.242a3.389,3.389,0,0,1-1.375,1.121A4.511,4.511,0,0,1,21.063,17.156ZM20.8,10.211a1.411,1.411,0,0,0-1.09.455,2.357,2.357,0,0,0-.535,1.3H22.32v-.181a1.681,1.681,0,0,0-.406-1.165A1.456,1.456,0,0,0,20.8,10.211ZM30.719,17a2.507,2.507,0,0,1-.227-.758,2.732,2.732,0,0,1-2.133.914,3,3,0,0,1-2.059-.719,2.312,2.312,0,0,1-.816-1.812,2.389,2.389,0,0,1,1-2.062,4.915,4.915,0,0,1,2.879-.727H30.4v-.484a1.393,1.393,0,0,0-.3-.937,1.183,1.183,0,0,0-.949-.352,1.345,1.345,0,0,0-.895.273.929.929,0,0,0-.324.75H25.672a2.268,2.268,0,0,1,.453-1.359,3,3,0,0,1,1.281-.98,4.669,4.669,0,0,1,1.859-.355,3.689,3.689,0,0,1,2.48.785,2.747,2.747,0,0,1,.918,2.207v3.664A4.041,4.041,0,0,0,33,16.867V17Zm-1.867-1.57a1.945,1.945,0,0,0,.922-.223,1.462,1.462,0,0,0,.625-.6V13.156h-.844q-1.7,0-1.8,1.172l-.008.133a.9.9,0,0,0,.3.7A1.153,1.153,0,0,0,28.852,15.43Zm9.063-.094a1.481,1.481,0,0,0,1.016-.344,1.2,1.2,0,0,0,.406-.914h2.117a2.9,2.9,0,0,1-.469,1.574,3.093,3.093,0,0,1-1.262,1.109,3.949,3.949,0,0,1-1.77.395A3.67,3.67,0,0,1,35.094,16a4.56,4.56,0,0,1-1.047-3.184v-.148a4.508,4.508,0,0,1,1.039-3.117,3.627,3.627,0,0,1,2.852-1.164,3.555,3.555,0,0,1,2.543.9,3.2,3.2,0,0,1,.973,2.4H39.336a1.551,1.551,0,0,0-.406-1.072,1.51,1.51,0,0,0-2.223.163,3.333,3.333,0,0,0-.4,1.866v.235a3.375,3.375,0,0,0,.4,1.878A1.377,1.377,0,0,0,37.914,15.336ZM45.125,17H42.859V8.547h2.266Zm-2.4-10.641a1.112,1.112,0,0,1,.34-.836,1.465,1.465,0,0,1,1.848,0,1.105,1.105,0,0,1,.344.836,1.108,1.108,0,0,1-.348.844,1.448,1.448,0,0,1-1.836,0A1.108,1.108,0,0,1,42.727,6.359ZM46.633,12.7a5.013,5.013,0,0,1,.484-2.242A3.546,3.546,0,0,1,48.512,8.93a4.069,4.069,0,0,1,2.113-.539,3.849,3.849,0,0,1,2.793,1.047,4.2,4.2,0,0,1,1.207,2.844l.016.578a4.418,4.418,0,0,1-1.086,3.121,4.209,4.209,0,0,1-5.832,0,4.5,4.5,0,0,1-1.09-3.187Zm2.258.16a3.16,3.16,0,0,0,.453,1.843,1.628,1.628,0,0,0,2.578.008,3.457,3.457,0,0,0,.461-2.015,3.128,3.128,0,0,0-.461-1.831,1.5,1.5,0,0,0-1.3-.649,1.474,1.474,0,0,0-1.281.646A3.516,3.516,0,0,0,48.891,12.856ZM51.07,5h2.461L51.367,7.422H49.531Zm7.039,3.547.07.977a2.951,2.951,0,0,1,2.43-1.133,2.453,2.453,0,0,1,2,.789,3.682,3.682,0,0,1,.672,2.359V17H61.023V11.594a1.465,1.465,0,0,0-.312-1.043,1.4,1.4,0,0,0-1.039-.324,1.553,1.553,0,0,0-1.43.813V17H55.984V8.547ZM72.133,13.8,73.7,8.547h2.422l-3.4,9.766-.187.445a2.577,2.577,0,0,1-2.5,1.656,3.552,3.552,0,0,1-1-.148V18.555l.344.008a1.857,1.857,0,0,0,.957-.2,1.283,1.283,0,0,0,.5-.648l.266-.7L68.133,8.547h2.43Zm12.375,1.531a1.481,1.481,0,0,0,1.016-.344,1.2,1.2,0,0,0,.406-.914h2.117a2.9,2.9,0,0,1-.469,1.574,3.093,3.093,0,0,1-1.262,1.109,3.949,3.949,0,0,1-1.77.395A3.67,3.67,0,0,1,81.688,16a4.56,4.56,0,0,1-1.047-3.184v-.148A4.508,4.508,0,0,1,81.68,9.555a3.627,3.627,0,0,1,2.852-1.164,3.555,3.555,0,0,1,2.543.9,3.2,3.2,0,0,1,.973,2.4H85.93a1.551,1.551,0,0,0-.406-1.072,1.51,1.51,0,0,0-2.223.163,3.333,3.333,0,0,0-.4,1.866v.235a3.375,3.375,0,0,0,.4,1.878A1.377,1.377,0,0,0,84.508,15.336ZM94.234,17a2.507,2.507,0,0,1-.227-.758,2.732,2.732,0,0,1-2.133.914,3,3,0,0,1-2.059-.719A2.312,2.312,0,0,1,89,14.625a2.389,2.389,0,0,1,1-2.062,4.915,4.915,0,0,1,2.879-.727h1.039v-.484a1.393,1.393,0,0,0-.3-.937,1.183,1.183,0,0,0-.949-.352,1.345,1.345,0,0,0-.895.273.929.929,0,0,0-.324.75H89.188a2.268,2.268,0,0,1,.453-1.359,3,3,0,0,1,1.281-.98,4.669,4.669,0,0,1,1.859-.355,3.689,3.689,0,0,1,2.48.785,2.747,2.747,0,0,1,.918,2.207v3.664a4.041,4.041,0,0,0,.336,1.82V17Zm-1.867-1.57a1.945,1.945,0,0,0,.922-.223,1.462,1.462,0,0,0,.625-.6V13.156H93.07q-1.7,0-1.8,1.172l-.008.133a.9.9,0,0,0,.3.7A1.153,1.153,0,0,0,92.367,15.43Zm13.156-2.578a5.07,5.07,0,0,1-.887,3.129,2.843,2.843,0,0,1-2.395,1.176,2.633,2.633,0,0,1-2.07-.891V20.25H97.914V8.547h2.094l.078.828a2.654,2.654,0,0,1,2.141-.984,2.862,2.862,0,0,1,2.43,1.156,5.207,5.207,0,0,1,.867,3.188Zm-2.258-.164a3.327,3.327,0,0,0-.418-1.82,1.361,1.361,0,0,0-1.215-.641,1.478,1.478,0,0,0-1.461.813V14.5a1.5,1.5,0,0,0,1.477.836Q103.266,15.336,103.266,12.688Zm6.359-6.219V8.547h1.445V10.2h-1.445v4.219a1.007,1.007,0,0,0,.18.672.9.9,0,0,0,.688.2,3.6,3.6,0,0,0,.664-.055v1.711a4.648,4.648,0,0,1-1.367.2,2.156,2.156,0,0,1-2.422-2.4V10.2h-1.234V8.547h1.234V6.469Zm7.766,9.672a2.831,2.831,0,0,1-2.312,1.016A2.67,2.67,0,0,1,113,16.375a3.335,3.335,0,0,1-.73-2.289V8.547h2.258v5.467q0,1.322,1.2,1.322a1.63,1.63,0,0,0,1.578-.8V8.547h2.266V17h-2.125Zm8.641-5.477a6.134,6.134,0,0,0-.812-.062,1.654,1.654,0,0,0-1.68.867V17h-2.258V8.547h2.133l.063,1.008a2.092,2.092,0,0,1,1.883-1.164,2.366,2.366,0,0,1,.7.1ZM131.781,17a2.507,2.507,0,0,1-.227-.758,2.732,2.732,0,0,1-2.133.914,3,3,0,0,1-2.059-.719,2.312,2.312,0,0,1-.816-1.812,2.389,2.389,0,0,1,1-2.062,4.915,4.915,0,0,1,2.879-.727h1.039v-.484a1.393,1.393,0,0,0-.3-.937,1.183,1.183,0,0,0-.949-.352,1.345,1.345,0,0,0-.895.273.929.929,0,0,0-.324.75h-2.258a2.268,2.268,0,0,1,.453-1.359,3,3,0,0,1,1.281-.98,4.669,4.669,0,0,1,1.859-.355,3.689,3.689,0,0,1,2.48.785,2.747,2.747,0,0,1,.918,2.207v3.664a4.041,4.041,0,0,0,.336,1.82V17Zm-1.867-1.57a1.945,1.945,0,0,0,.922-.223,1.462,1.462,0,0,0,.625-.6V13.156h-.844q-1.7,0-1.8,1.172l-.008.133a.9.9,0,0,0,.3.7A1.153,1.153,0,0,0,129.914,15.43Z" transform="translate(1150 3303)" fill="#12263f"/>
    <rect id="Rectángulo_34892" data-name="Rectángulo 34892" width="147" height="74" rx="7" transform="translate(1273 3378)" fill="#78b62e"/>
    <path id="Trazado_149437" data-name="Trazado 149437" d="M30.961,7.523H27.477V17H25.133V7.523H21.7v-1.9h9.266Zm5.43,3.141a6.134,6.134,0,0,0-.812-.062,1.654,1.654,0,0,0-1.68.867V17H31.641V8.547h2.133l.063,1.008a2.092,2.092,0,0,1,1.883-1.164,2.366,2.366,0,0,1,.7.1ZM42.141,17a2.507,2.507,0,0,1-.227-.758,2.732,2.732,0,0,1-2.133.914,3,3,0,0,1-2.059-.719,2.312,2.312,0,0,1-.816-1.812,2.389,2.389,0,0,1,1-2.062,4.915,4.915,0,0,1,2.879-.727H41.82v-.484a1.393,1.393,0,0,0-.3-.937,1.183,1.183,0,0,0-.949-.352,1.345,1.345,0,0,0-.895.273.929.929,0,0,0-.324.75H37.094a2.268,2.268,0,0,1,.453-1.359,3,3,0,0,1,1.281-.98,4.669,4.669,0,0,1,1.859-.355,3.689,3.689,0,0,1,2.48.785,2.747,2.747,0,0,1,.918,2.207v3.664a4.041,4.041,0,0,0,.336,1.82V17Zm-1.867-1.57a1.945,1.945,0,0,0,.922-.223,1.462,1.462,0,0,0,.625-.6V13.156h-.844q-1.7,0-1.8,1.172l-.008.133a.9.9,0,0,0,.3.7A1.153,1.153,0,0,0,40.273,15.43ZM47.9,8.547l.07.977A2.951,2.951,0,0,1,50.4,8.391a2.453,2.453,0,0,1,2,.789,3.682,3.682,0,0,1,.672,2.359V17H50.813V11.594a1.465,1.465,0,0,0-.312-1.043,1.4,1.4,0,0,0-1.039-.324,1.553,1.553,0,0,0-1.43.813V17H45.773V8.547Zm11.461,6.117a.727.727,0,0,0-.41-.652,4.659,4.659,0,0,0-1.316-.426q-3.016-.633-3.016-2.562a2.323,2.323,0,0,1,.934-1.879,3.766,3.766,0,0,1,2.441-.754,4.053,4.053,0,0,1,2.574.758,2.388,2.388,0,0,1,.965,1.969H59.273a1.092,1.092,0,0,0-.312-.8A1.322,1.322,0,0,0,57.984,10a1.351,1.351,0,0,0-.883.258.814.814,0,0,0-.312.656.7.7,0,0,0,.355.605,3.657,3.657,0,0,0,1.2.4,9.8,9.8,0,0,1,1.422.379,2.336,2.336,0,0,1,1.789,2.273,2.2,2.2,0,0,1-.992,1.871A4.28,4.28,0,0,1,58,17.156a4.47,4.47,0,0,1-1.887-.379,3.166,3.166,0,0,1-1.293-1.039,2.414,2.414,0,0,1-.469-1.426h2.141a1.179,1.179,0,0,0,.445.922,1.766,1.766,0,0,0,1.109.32,1.635,1.635,0,0,0,.98-.246A.766.766,0,0,0,59.359,14.664Zm5.766-6.117.07.945a2.971,2.971,0,0,1,2.43-1.1A2.255,2.255,0,0,1,69.867,9.68a2.9,2.9,0,0,1,2.539-1.289,2.521,2.521,0,0,1,2.047.8,3.681,3.681,0,0,1,.672,2.41V17H72.859V11.609a1.61,1.61,0,0,0-.281-1.051,1.246,1.246,0,0,0-.992-.332,1.409,1.409,0,0,0-1.406.969l.008,5.8H67.93V11.617a1.59,1.59,0,0,0-.289-1.062,1.259,1.259,0,0,0-.984-.328,1.463,1.463,0,0,0-1.391.8V17H63.008V8.547ZM79.242,17H76.977V8.547h2.266Zm-2.4-10.641a1.112,1.112,0,0,1,.34-.836,1.465,1.465,0,0,1,1.848,0,1.105,1.105,0,0,1,.344.836,1.108,1.108,0,0,1-.348.844,1.448,1.448,0,0,1-1.836,0A1.108,1.108,0,0,1,76.844,6.359Zm8.836,8.3a.727.727,0,0,0-.41-.652,4.659,4.659,0,0,0-1.316-.426q-3.016-.633-3.016-2.562a2.323,2.323,0,0,1,.934-1.879,3.766,3.766,0,0,1,2.441-.754,4.053,4.053,0,0,1,2.574.758,2.388,2.388,0,0,1,.965,1.969H85.594a1.092,1.092,0,0,0-.312-.8A1.322,1.322,0,0,0,84.3,10a1.351,1.351,0,0,0-.883.258.814.814,0,0,0-.312.656.7.7,0,0,0,.355.605,3.657,3.657,0,0,0,1.2.4,9.8,9.8,0,0,1,1.422.379,2.336,2.336,0,0,1,1.789,2.273,2.2,2.2,0,0,1-.992,1.871,4.28,4.28,0,0,1-2.562.715,4.47,4.47,0,0,1-1.887-.379,3.166,3.166,0,0,1-1.293-1.039,2.414,2.414,0,0,1-.469-1.426h2.141a1.179,1.179,0,0,0,.445.922,1.766,1.766,0,0,0,1.109.32,1.635,1.635,0,0,0,.98-.246A.766.766,0,0,0,85.68,14.664ZM91.711,17H89.445V8.547h2.266Zm-2.4-10.641a1.112,1.112,0,0,1,.34-.836,1.465,1.465,0,0,1,1.848,0,1.105,1.105,0,0,1,.344.836A1.108,1.108,0,0,1,91.5,7.2a1.448,1.448,0,0,1-1.836,0A1.108,1.108,0,0,1,89.313,6.359ZM93.219,12.7a5.013,5.013,0,0,1,.484-2.242A3.546,3.546,0,0,1,95.1,8.93a4.069,4.069,0,0,1,2.113-.539A3.849,3.849,0,0,1,100,9.438a4.2,4.2,0,0,1,1.207,2.844l.016.578a4.418,4.418,0,0,1-1.086,3.121,4.209,4.209,0,0,1-5.832,0,4.5,4.5,0,0,1-1.09-3.187Zm2.258.16A3.16,3.16,0,0,0,95.93,14.7a1.628,1.628,0,0,0,2.578.008,3.457,3.457,0,0,0,.461-2.015,3.128,3.128,0,0,0-.461-1.831,1.5,1.5,0,0,0-1.3-.649,1.474,1.474,0,0,0-1.281.646A3.516,3.516,0,0,0,95.477,12.856ZM97.656,5h2.461L97.953,7.422H96.117ZM104.7,8.547l.07.977a2.951,2.951,0,0,1,2.43-1.133,2.453,2.453,0,0,1,2,.789,3.682,3.682,0,0,1,.672,2.359V17h-2.258V11.594a1.465,1.465,0,0,0-.312-1.043,1.4,1.4,0,0,0-1.039-.324,1.553,1.553,0,0,0-1.43.813V17H102.57V8.547Zm7.469,11.3-1.18-.617.281-.508a4.059,4.059,0,0,0,.539-1.9v-1.75h1.906l-.008,1.563a4.059,4.059,0,0,1-.437,1.75A4.486,4.486,0,0,1,112.164,19.852ZM7.906,35a2.507,2.507,0,0,1-.227-.758,2.732,2.732,0,0,1-2.133.914,3,3,0,0,1-2.059-.719,2.312,2.312,0,0,1-.816-1.812,2.389,2.389,0,0,1,1-2.062,4.915,4.915,0,0,1,2.879-.727H7.586v-.484a1.393,1.393,0,0,0-.3-.937,1.183,1.183,0,0,0-.949-.352,1.345,1.345,0,0,0-.895.273.929.929,0,0,0-.324.75H2.859a2.268,2.268,0,0,1,.453-1.359,3,3,0,0,1,1.281-.98,4.669,4.669,0,0,1,1.859-.355,3.689,3.689,0,0,1,2.48.785,2.747,2.747,0,0,1,.918,2.207v3.664a4.041,4.041,0,0,0,.336,1.82V35ZM6.039,33.43a1.945,1.945,0,0,0,.922-.223,1.462,1.462,0,0,0,.625-.6V31.156H6.742q-1.7,0-1.8,1.172l-.008.133a.9.9,0,0,0,.3.7A1.153,1.153,0,0,0,6.039,33.43ZM13.969,35H11.7V23h2.266Zm3.977-8.453.07.945a2.971,2.971,0,0,1,2.43-1.1,2.255,2.255,0,0,1,2.242,1.289,2.9,2.9,0,0,1,2.539-1.289,2.521,2.521,0,0,1,2.047.8,3.681,3.681,0,0,1,.672,2.41V35H25.68V29.609a1.61,1.61,0,0,0-.281-1.051,1.246,1.246,0,0,0-.992-.332A1.409,1.409,0,0,0,23,29.2l.008,5.8H20.75V29.617a1.59,1.59,0,0,0-.289-1.062,1.259,1.259,0,0,0-.984-.328,1.463,1.463,0,0,0-1.391.8V35H15.828V26.547ZM34.578,35a2.507,2.507,0,0,1-.227-.758,2.732,2.732,0,0,1-2.133.914,3,3,0,0,1-2.059-.719,2.312,2.312,0,0,1-.816-1.812,2.389,2.389,0,0,1,1-2.062,4.915,4.915,0,0,1,2.879-.727h1.039v-.484a1.393,1.393,0,0,0-.3-.937,1.183,1.183,0,0,0-.949-.352,1.345,1.345,0,0,0-.895.273.929.929,0,0,0-.324.75H29.531a2.268,2.268,0,0,1,.453-1.359,3,3,0,0,1,1.281-.98,4.669,4.669,0,0,1,1.859-.355,3.689,3.689,0,0,1,2.48.785,2.747,2.747,0,0,1,.918,2.207v3.664a4.041,4.041,0,0,0,.336,1.82V35Zm-1.867-1.57a1.945,1.945,0,0,0,.922-.223,1.462,1.462,0,0,0,.625-.6V31.156h-.844q-1.7,0-1.8,1.172l-.008.133a.9.9,0,0,0,.3.7A1.153,1.153,0,0,0,32.711,33.43Zm9.063-.094a1.481,1.481,0,0,0,1.016-.344,1.2,1.2,0,0,0,.406-.914h2.117a2.9,2.9,0,0,1-.469,1.574,3.093,3.093,0,0,1-1.262,1.109,3.949,3.949,0,0,1-1.77.395A3.67,3.67,0,0,1,38.953,34a4.56,4.56,0,0,1-1.047-3.184v-.148a4.508,4.508,0,0,1,1.039-3.117A3.627,3.627,0,0,1,41.8,26.391a3.555,3.555,0,0,1,2.543.9,3.2,3.2,0,0,1,.973,2.4H43.2a1.551,1.551,0,0,0-.406-1.072,1.51,1.51,0,0,0-2.223.163,3.333,3.333,0,0,0-.4,1.866v.235a3.375,3.375,0,0,0,.4,1.878A1.377,1.377,0,0,0,41.773,33.336Zm8.719,1.82a4.15,4.15,0,0,1-3.027-1.141A4.054,4.054,0,0,1,46.3,30.977v-.219a5.106,5.106,0,0,1,.492-2.277,3.612,3.612,0,0,1,1.395-1.547,3.914,3.914,0,0,1,2.059-.543,3.508,3.508,0,0,1,2.73,1.094,4.444,4.444,0,0,1,1,3.1v.922H48.586a2.1,2.1,0,0,0,.66,1.328,2,2,0,0,0,1.395.5,2.437,2.437,0,0,0,2.039-.945l1.109,1.242a3.389,3.389,0,0,1-1.375,1.121A4.511,4.511,0,0,1,50.492,35.156Zm-.258-6.945a1.411,1.411,0,0,0-1.09.455,2.357,2.357,0,0,0-.535,1.3H51.75v-.181a1.681,1.681,0,0,0-.406-1.165A1.456,1.456,0,0,0,50.234,28.211Zm7.094-1.664.07.977a2.951,2.951,0,0,1,2.43-1.133,2.453,2.453,0,0,1,2,.789,3.682,3.682,0,0,1,.672,2.359V35H60.242V29.594a1.465,1.465,0,0,0-.312-1.043,1.4,1.4,0,0,0-1.039-.324,1.553,1.553,0,0,0-1.43.813V35H55.2V26.547ZM69.109,35a2.507,2.507,0,0,1-.227-.758,2.732,2.732,0,0,1-2.133.914,3,3,0,0,1-2.059-.719,2.312,2.312,0,0,1-.816-1.812,2.389,2.389,0,0,1,1-2.062,4.915,4.915,0,0,1,2.879-.727h1.039v-.484a1.393,1.393,0,0,0-.3-.937,1.183,1.183,0,0,0-.949-.352,1.345,1.345,0,0,0-.895.273.929.929,0,0,0-.324.75H64.063a2.268,2.268,0,0,1,.453-1.359,3,3,0,0,1,1.281-.98,4.669,4.669,0,0,1,1.859-.355,3.689,3.689,0,0,1,2.48.785,2.747,2.747,0,0,1,.918,2.207v3.664a4.041,4.041,0,0,0,.336,1.82V35Zm-1.867-1.57a1.945,1.945,0,0,0,.922-.223,1.462,1.462,0,0,0,.625-.6V31.156h-.844q-1.7,0-1.8,1.172l-.008.133a.9.9,0,0,0,.3.7A1.153,1.153,0,0,0,67.242,33.43Zm7.664-6.883.07.945a2.971,2.971,0,0,1,2.43-1.1,2.255,2.255,0,0,1,2.242,1.289,2.9,2.9,0,0,1,2.539-1.289,2.521,2.521,0,0,1,2.047.8,3.681,3.681,0,0,1,.672,2.41V35H82.641V29.609a1.61,1.61,0,0,0-.281-1.051,1.246,1.246,0,0,0-.992-.332,1.409,1.409,0,0,0-1.406.969l.008,5.8H77.711V29.617a1.59,1.59,0,0,0-.289-1.062,1.259,1.259,0,0,0-.984-.328,1.463,1.463,0,0,0-1.391.8V35H72.789V26.547ZM89.023,35H86.758V26.547h2.266Zm-2.4-10.641a1.112,1.112,0,0,1,.34-.836,1.465,1.465,0,0,1,1.848,0,1.193,1.193,0,0,1,0,1.68,1.448,1.448,0,0,1-1.836,0A1.108,1.108,0,0,1,86.625,24.359Zm8.148,10.8a4.15,4.15,0,0,1-3.027-1.141,4.054,4.054,0,0,1-1.168-3.039v-.219a5.106,5.106,0,0,1,.492-2.277,3.612,3.612,0,0,1,1.395-1.547,3.914,3.914,0,0,1,2.059-.543,3.508,3.508,0,0,1,2.73,1.094,4.444,4.444,0,0,1,1,3.1v.922H92.867a2.1,2.1,0,0,0,.66,1.328,2,2,0,0,0,1.395.5,2.437,2.437,0,0,0,2.039-.945l1.109,1.242A3.389,3.389,0,0,1,96.7,34.754,4.511,4.511,0,0,1,94.773,35.156Zm-.258-6.945a1.411,1.411,0,0,0-1.09.455,2.357,2.357,0,0,0-.535,1.3h3.141v-.181a1.681,1.681,0,0,0-.406-1.165A1.456,1.456,0,0,0,94.516,28.211Zm7.094-1.664.07.977a2.951,2.951,0,0,1,2.43-1.133,2.453,2.453,0,0,1,2,.789,3.682,3.682,0,0,1,.672,2.359V35h-2.258V29.594a1.465,1.465,0,0,0-.312-1.043,1.4,1.4,0,0,0-1.039-.324,1.553,1.553,0,0,0-1.43.813V35H99.484V26.547Zm9.586-2.078v2.078h1.445V28.2H111.2v4.219a1.007,1.007,0,0,0,.18.672.9.9,0,0,0,.688.2,3.6,3.6,0,0,0,.664-.055v1.711a4.648,4.648,0,0,1-1.367.2,2.156,2.156,0,0,1-2.422-2.4V28.2H107.7V26.547h1.234V24.469Zm2.117,6.227a5.013,5.013,0,0,1,.484-2.242,3.546,3.546,0,0,1,1.395-1.523,4.069,4.069,0,0,1,2.113-.539,3.849,3.849,0,0,1,2.793,1.047,4.2,4.2,0,0,1,1.207,2.844l.016.578a4.418,4.418,0,0,1-1.086,3.121,4.209,4.209,0,0,1-5.832,0,4.5,4.5,0,0,1-1.09-3.187Zm2.258.16a3.16,3.16,0,0,0,.453,1.843,1.628,1.628,0,0,0,2.578.008,3.457,3.457,0,0,0,.461-2.015,3.128,3.128,0,0,0-.461-1.831,1.5,1.5,0,0,0-1.3-.649,1.474,1.474,0,0,0-1.281.646A3.516,3.516,0,0,0,115.57,30.856Zm14.281.949,1.563-5.258h2.422l-3.4,9.766-.187.445a2.577,2.577,0,0,1-2.5,1.656,3.553,3.553,0,0,1-1-.148V36.555l.344.008a1.857,1.857,0,0,0,.957-.2,1.283,1.283,0,0,0,.5-.648l.266-.7-2.961-8.477h2.43ZM37.621,50.664a.727.727,0,0,0-.41-.652,4.659,4.659,0,0,0-1.316-.426q-3.016-.633-3.016-2.562a2.323,2.323,0,0,1,.934-1.879,3.766,3.766,0,0,1,2.441-.754,4.053,4.053,0,0,1,2.574.758,2.388,2.388,0,0,1,.965,1.969H37.535a1.092,1.092,0,0,0-.312-.8A1.322,1.322,0,0,0,36.246,46a1.351,1.351,0,0,0-.883.258.814.814,0,0,0-.312.656.7.7,0,0,0,.355.605,3.657,3.657,0,0,0,1.2.4,9.8,9.8,0,0,1,1.422.379,2.336,2.336,0,0,1,1.789,2.273,2.205,2.205,0,0,1-.992,1.871,4.28,4.28,0,0,1-2.562.715,4.47,4.47,0,0,1-1.887-.379,3.166,3.166,0,0,1-1.293-1.039,2.414,2.414,0,0,1-.469-1.426h2.141a1.179,1.179,0,0,0,.445.922,1.766,1.766,0,0,0,1.109.32,1.635,1.635,0,0,0,.98-.246A.766.766,0,0,0,37.621,50.664Zm7.539,2.492a4.15,4.15,0,0,1-3.027-1.141,4.054,4.054,0,0,1-1.168-3.039v-.219a5.106,5.106,0,0,1,.492-2.277,3.612,3.612,0,0,1,1.395-1.547,3.914,3.914,0,0,1,2.059-.543,3.508,3.508,0,0,1,2.73,1.094,4.444,4.444,0,0,1,1,3.1v.922H43.254a2.1,2.1,0,0,0,.66,1.328,2,2,0,0,0,1.395.5,2.437,2.437,0,0,0,2.039-.945l1.109,1.242a3.389,3.389,0,0,1-1.375,1.121A4.511,4.511,0,0,1,45.16,53.156ZM44.9,46.211a1.411,1.411,0,0,0-1.09.455,2.357,2.357,0,0,0-.535,1.3h3.141v-.181a1.681,1.681,0,0,0-.406-1.165A1.456,1.456,0,0,0,44.9,46.211Zm4.688,2.5a4.954,4.954,0,0,1,.926-3.133,3,3,0,0,1,2.5-1.187,2.631,2.631,0,0,1,2.164.953l.094-.8h2.047v8.172a3.613,3.613,0,0,1-.5,1.93,3.236,3.236,0,0,1-1.418,1.25,4.985,4.985,0,0,1-2.141.43,4.635,4.635,0,0,1-1.812-.371A3.217,3.217,0,0,1,50.105,55l1-1.375a2.645,2.645,0,0,0,2.047.945,1.936,1.936,0,0,0,1.4-.48,1.8,1.8,0,0,0,.5-1.363v-.453A2.612,2.612,0,0,1,53,53.156a2.992,2.992,0,0,1-2.465-1.191,4.953,4.953,0,0,1-.941-3.16Zm2.258.168a3.085,3.085,0,0,0,.461,1.8,1.466,1.466,0,0,0,1.266.653,1.568,1.568,0,0,0,1.477-.775V47a1.564,1.564,0,0,0-1.461-.775,1.476,1.476,0,0,0-1.277.665A3.477,3.477,0,0,0,51.848,48.879Zm12.266,3.262A2.831,2.831,0,0,1,61.8,53.156a2.67,2.67,0,0,1-2.074-.781A3.335,3.335,0,0,1,59,50.086V44.547h2.258v5.467q0,1.322,1.2,1.322a1.63,1.63,0,0,0,1.578-.8V44.547H66.3V53H64.176Zm8.641-5.477a6.134,6.134,0,0,0-.812-.062,1.654,1.654,0,0,0-1.68.867V53H68V44.547h2.133l.063,1.008a2.092,2.092,0,0,1,1.883-1.164,2.366,2.366,0,0,1,.7.1ZM76.223,53H73.957V44.547h2.266Zm-2.4-10.641a1.112,1.112,0,0,1,.34-.836,1.465,1.465,0,0,1,1.848,0,1.193,1.193,0,0,1,0,1.68,1.448,1.448,0,0,1-1.836,0A1.108,1.108,0,0,1,73.824,42.359Zm3.906,6.352a5.094,5.094,0,0,1,.887-3.148,2.877,2.877,0,0,1,2.426-1.172,2.589,2.589,0,0,1,2.039.922V41h2.266V53H83.309l-.109-.9a2.657,2.657,0,0,1-2.172,1.055,2.869,2.869,0,0,1-2.395-1.176A5.258,5.258,0,0,1,77.73,48.711Zm2.258.168A3.337,3.337,0,0,0,80.4,50.7a1.349,1.349,0,0,0,1.2.634,1.511,1.511,0,0,0,1.477-.884V47.111a1.489,1.489,0,0,0-1.461-.884Q79.988,46.227,79.988,48.879ZM92,53a2.507,2.507,0,0,1-.227-.758,2.732,2.732,0,0,1-2.133.914,3,3,0,0,1-2.059-.719,2.312,2.312,0,0,1-.816-1.812,2.389,2.389,0,0,1,1-2.062,4.915,4.915,0,0,1,2.879-.727h1.039v-.484a1.393,1.393,0,0,0-.3-.937,1.183,1.183,0,0,0-.949-.352,1.345,1.345,0,0,0-.895.273.929.929,0,0,0-.324.75H86.949a2.268,2.268,0,0,1,.453-1.359,3,3,0,0,1,1.281-.98,4.669,4.669,0,0,1,1.859-.355,3.689,3.689,0,0,1,2.48.785,2.747,2.747,0,0,1,.918,2.207v3.664a4.041,4.041,0,0,0,.336,1.82V53Zm-1.867-1.57a1.945,1.945,0,0,0,.922-.223,1.462,1.462,0,0,0,.625-.6V49.156h-.844q-1.7,0-1.8,1.172l-.008.133a.9.9,0,0,0,.3.7A1.153,1.153,0,0,0,90.129,51.43Zm5.2-2.719a5.094,5.094,0,0,1,.887-3.148,2.877,2.877,0,0,1,2.426-1.172,2.589,2.589,0,0,1,2.039.922V41h2.266V53H100.9l-.109-.9a2.657,2.657,0,0,1-2.172,1.055,2.869,2.869,0,0,1-2.395-1.176A5.258,5.258,0,0,1,95.324,48.711Zm2.258.168A3.337,3.337,0,0,0,98,50.7a1.349,1.349,0,0,0,1.2.634,1.511,1.511,0,0,0,1.477-.884V47.111a1.489,1.489,0,0,0-1.461-.884Q97.582,46.227,97.582,48.879Z" transform="translate(1279 3388)" fill="#12263f"/>
    <rect id="Rectángulo_34894" data-name="Rectángulo 34894" width="147" height="84" rx="7" transform="translate(1020 3373)" fill="#78b62e"/>
    <path id="Trazado_149438" data-name="Trazado 149438" d="M40.875,14.656H36.766L35.984,17H33.492L37.727,5.625H39.9L44.156,17H41.664Zm-3.477-1.9h2.844L38.813,8.5Zm9.375-4.211.07.977a2.951,2.951,0,0,1,2.43-1.133,2.453,2.453,0,0,1,2,.789,3.682,3.682,0,0,1,.672,2.359V17H49.688V11.594a1.465,1.465,0,0,0-.312-1.043,1.4,1.4,0,0,0-1.039-.324,1.553,1.553,0,0,0-1.43.813V17H44.648V8.547ZM58.555,17a2.507,2.507,0,0,1-.227-.758,2.732,2.732,0,0,1-2.133.914,3,3,0,0,1-2.059-.719,2.312,2.312,0,0,1-.816-1.812,2.389,2.389,0,0,1,1-2.062,4.915,4.915,0,0,1,2.879-.727h1.039v-.484a1.393,1.393,0,0,0-.3-.937,1.183,1.183,0,0,0-.949-.352,1.345,1.345,0,0,0-.895.273.929.929,0,0,0-.324.75H53.508a2.268,2.268,0,0,1,.453-1.359,3,3,0,0,1,1.281-.98A4.669,4.669,0,0,1,57.1,8.391a3.689,3.689,0,0,1,2.48.785,2.747,2.747,0,0,1,.918,2.207v3.664a4.041,4.041,0,0,0,.336,1.82V17Zm-1.867-1.57a1.945,1.945,0,0,0,.922-.223,1.462,1.462,0,0,0,.625-.6V13.156h-.844q-1.7,0-1.8,1.172l-.008.133a.9.9,0,0,0,.3.7A1.153,1.153,0,0,0,56.688,15.43ZM57.547,5h2.461L57.844,7.422H56.008Zm7.07,12H62.352V5h2.266Zm4.242,0H66.594V8.547h2.266Zm-2.4-10.641a1.112,1.112,0,0,1,.34-.836,1.465,1.465,0,0,1,1.848,0,1.105,1.105,0,0,1,.344.836,1.108,1.108,0,0,1-.348.844,1.448,1.448,0,0,1-1.836,0A1.108,1.108,0,0,1,66.461,6.359Zm8.836,8.3a.727.727,0,0,0-.41-.652,4.659,4.659,0,0,0-1.316-.426q-3.016-.633-3.016-2.562a2.323,2.323,0,0,1,.934-1.879,3.766,3.766,0,0,1,2.441-.754,4.053,4.053,0,0,1,2.574.758,2.388,2.388,0,0,1,.965,1.969H75.211a1.092,1.092,0,0,0-.312-.8A1.322,1.322,0,0,0,73.922,10a1.351,1.351,0,0,0-.883.258.814.814,0,0,0-.312.656.7.7,0,0,0,.355.605,3.657,3.657,0,0,0,1.2.4A9.8,9.8,0,0,1,75.7,12.3a2.336,2.336,0,0,1,1.789,2.273,2.2,2.2,0,0,1-.992,1.871,4.28,4.28,0,0,1-2.562.715,4.47,4.47,0,0,1-1.887-.379,3.166,3.166,0,0,1-1.293-1.039,2.414,2.414,0,0,1-.469-1.426H72.43a1.179,1.179,0,0,0,.445.922,1.766,1.766,0,0,0,1.109.32,1.635,1.635,0,0,0,.98-.246A.766.766,0,0,0,75.3,14.664ZM81.328,17H79.063V8.547h2.266ZM78.93,6.359a1.112,1.112,0,0,1,.34-.836,1.465,1.465,0,0,1,1.848,0,1.105,1.105,0,0,1,.344.836,1.108,1.108,0,0,1-.348.844,1.448,1.448,0,0,1-1.836,0A1.108,1.108,0,0,1,78.93,6.359Zm8.836,8.3a.727.727,0,0,0-.41-.652,4.659,4.659,0,0,0-1.316-.426q-3.016-.633-3.016-2.562a2.323,2.323,0,0,1,.934-1.879A3.766,3.766,0,0,1,86.4,8.391a4.053,4.053,0,0,1,2.574.758,2.388,2.388,0,0,1,.965,1.969H87.68a1.092,1.092,0,0,0-.312-.8A1.322,1.322,0,0,0,86.391,10a1.351,1.351,0,0,0-.883.258.814.814,0,0,0-.312.656.7.7,0,0,0,.355.605,3.657,3.657,0,0,0,1.2.4,9.8,9.8,0,0,1,1.422.379,2.336,2.336,0,0,1,1.789,2.273,2.2,2.2,0,0,1-.992,1.871,4.28,4.28,0,0,1-2.562.715,4.47,4.47,0,0,1-1.887-.379,3.166,3.166,0,0,1-1.293-1.039,2.414,2.414,0,0,1-.469-1.426H84.9a1.179,1.179,0,0,0,.445.922,1.766,1.766,0,0,0,1.109.32,1.635,1.635,0,0,0,.98-.246A.766.766,0,0,0,87.766,14.664ZM98.555,13.8l1.563-5.258h2.422l-3.4,9.766-.187.445a2.577,2.577,0,0,1-2.5,1.656,3.552,3.552,0,0,1-1-.148V18.555l.344.008a1.857,1.857,0,0,0,.957-.2,1.283,1.283,0,0,0,.5-.648l.266-.7L94.555,8.547h2.43ZM20.1,35.156a4.15,4.15,0,0,1-3.027-1.141,4.054,4.054,0,0,1-1.168-3.039v-.219A5.106,5.106,0,0,1,16.4,28.48a3.612,3.612,0,0,1,1.395-1.547,3.914,3.914,0,0,1,2.059-.543,3.508,3.508,0,0,1,2.73,1.094,4.444,4.444,0,0,1,1,3.1v.922H18.2a2.1,2.1,0,0,0,.66,1.328,2,2,0,0,0,1.395.5,2.437,2.437,0,0,0,2.039-.945L23.4,33.633a3.389,3.389,0,0,1-1.375,1.121A4.511,4.511,0,0,1,20.1,35.156Zm-.258-6.945a1.411,1.411,0,0,0-1.09.455,2.357,2.357,0,0,0-.535,1.3h3.141v-.181a1.681,1.681,0,0,0-.406-1.165A1.456,1.456,0,0,0,19.844,28.211Zm8.234.859L29.5,26.547h2.414l-2.406,4.141L32.016,35H29.594l-1.508-2.656L26.586,35h-2.43l2.508-4.312-2.4-4.141h2.422Zm12.531,1.781a5.07,5.07,0,0,1-.887,3.129,2.843,2.843,0,0,1-2.395,1.176,2.633,2.633,0,0,1-2.07-.891V38.25H33v-11.7h2.094l.078.828a2.654,2.654,0,0,1,2.141-.984,2.862,2.862,0,0,1,2.43,1.156,5.207,5.207,0,0,1,.867,3.188Zm-2.258-.164a3.327,3.327,0,0,0-.418-1.82,1.361,1.361,0,0,0-1.215-.641,1.478,1.478,0,0,0-1.461.813V32.5a1.5,1.5,0,0,0,1.477.836Q38.352,33.336,38.352,30.688ZM44.391,35H42.125V23h2.266ZM45.9,30.7a5.013,5.013,0,0,1,.484-2.242,3.546,3.546,0,0,1,1.395-1.523,4.069,4.069,0,0,1,2.113-.539,3.849,3.849,0,0,1,2.793,1.047,4.2,4.2,0,0,1,1.207,2.844l.016.578A4.418,4.418,0,0,1,52.82,33.98a4.209,4.209,0,0,1-5.832,0A4.5,4.5,0,0,1,45.9,30.8Zm2.258.16a3.16,3.16,0,0,0,.453,1.843,1.628,1.628,0,0,0,2.578.008,3.457,3.457,0,0,0,.461-2.015,3.128,3.128,0,0,0-.461-1.831,1.5,1.5,0,0,0-1.3-.649,1.474,1.474,0,0,0-1.281.646A3.516,3.516,0,0,0,48.156,30.856ZM58,24.469v2.078h1.445V28.2H58v4.219a1.007,1.007,0,0,0,.18.672.9.9,0,0,0,.688.2,3.6,3.6,0,0,0,.664-.055v1.711a4.648,4.648,0,0,1-1.367.2,2.156,2.156,0,0,1-2.422-2.4V28.2H54.508V26.547h1.234V24.469ZM65.6,35a2.507,2.507,0,0,1-.227-.758,2.732,2.732,0,0,1-2.133.914,3,3,0,0,1-2.059-.719,2.312,2.312,0,0,1-.816-1.812,2.389,2.389,0,0,1,1-2.062,4.915,4.915,0,0,1,2.879-.727h1.039v-.484a1.393,1.393,0,0,0-.3-.937,1.183,1.183,0,0,0-.949-.352,1.345,1.345,0,0,0-.895.273.929.929,0,0,0-.324.75H60.555a2.268,2.268,0,0,1,.453-1.359,3,3,0,0,1,1.281-.98,4.669,4.669,0,0,1,1.859-.355,3.689,3.689,0,0,1,2.48.785,2.747,2.747,0,0,1,.918,2.207v3.664a4.041,4.041,0,0,0,.336,1.82V35Zm-1.867-1.57a1.945,1.945,0,0,0,.922-.223,1.462,1.462,0,0,0,.625-.6V31.156h-.844q-1.7,0-1.8,1.172l-.008.133a.9.9,0,0,0,.3.7A1.153,1.153,0,0,0,63.734,33.43Zm9.063-.094a1.481,1.481,0,0,0,1.016-.344,1.2,1.2,0,0,0,.406-.914h2.117a2.9,2.9,0,0,1-.469,1.574,3.093,3.093,0,0,1-1.262,1.109,3.949,3.949,0,0,1-1.77.395A3.67,3.67,0,0,1,69.977,34,4.56,4.56,0,0,1,68.93,30.82v-.148a4.508,4.508,0,0,1,1.039-3.117,3.627,3.627,0,0,1,2.852-1.164,3.555,3.555,0,0,1,2.543.9,3.2,3.2,0,0,1,.973,2.4H74.219a1.551,1.551,0,0,0-.406-1.072,1.51,1.51,0,0,0-2.223.163,3.333,3.333,0,0,0-.4,1.866v.235a3.375,3.375,0,0,0,.4,1.878A1.377,1.377,0,0,0,72.8,33.336ZM80.008,35H77.742V26.547h2.266Zm-2.4-10.641a1.112,1.112,0,0,1,.34-.836,1.465,1.465,0,0,1,1.848,0,1.193,1.193,0,0,1,0,1.68,1.448,1.448,0,0,1-1.836,0A1.108,1.108,0,0,1,77.609,24.359ZM81.516,30.7A5.013,5.013,0,0,1,82,28.453a3.546,3.546,0,0,1,1.395-1.523,4.069,4.069,0,0,1,2.113-.539A3.849,3.849,0,0,1,88.3,27.438a4.2,4.2,0,0,1,1.207,2.844l.016.578a4.418,4.418,0,0,1-1.086,3.121,4.209,4.209,0,0,1-5.832,0,4.5,4.5,0,0,1-1.09-3.187Zm2.258.16a3.16,3.16,0,0,0,.453,1.843,1.628,1.628,0,0,0,2.578.008,3.457,3.457,0,0,0,.461-2.015A3.128,3.128,0,0,0,86.8,28.86a1.5,1.5,0,0,0-1.3-.649,1.474,1.474,0,0,0-1.281.646A3.516,3.516,0,0,0,83.773,30.856ZM85.953,23h2.461L86.25,25.422H84.414Zm7.039,3.547.07.977a2.951,2.951,0,0,1,2.43-1.133,2.453,2.453,0,0,1,2,.789,3.682,3.682,0,0,1,.672,2.359V35H95.906V29.594a1.465,1.465,0,0,0-.312-1.043,1.4,1.4,0,0,0-1.039-.324,1.553,1.553,0,0,0-1.43.813V35H90.867V26.547Zm10.516,4.164a5.094,5.094,0,0,1,.887-3.148,2.877,2.877,0,0,1,2.426-1.172,2.589,2.589,0,0,1,2.039.922V23h2.266V35h-2.039l-.109-.9a2.657,2.657,0,0,1-2.172,1.055,2.869,2.869,0,0,1-2.395-1.176A5.258,5.258,0,0,1,103.508,30.711Zm2.258.168a3.337,3.337,0,0,0,.414,1.823,1.349,1.349,0,0,0,1.2.634,1.511,1.511,0,0,0,1.477-.884V29.111a1.489,1.489,0,0,0-1.461-.884Q105.766,28.227,105.766,30.879Zm11,4.277a4.15,4.15,0,0,1-3.027-1.141,4.054,4.054,0,0,1-1.168-3.039v-.219a5.106,5.106,0,0,1,.492-2.277,3.612,3.612,0,0,1,1.395-1.547,3.914,3.914,0,0,1,2.059-.543,3.508,3.508,0,0,1,2.73,1.094,4.444,4.444,0,0,1,1,3.1v.922h-5.383a2.1,2.1,0,0,0,.66,1.328,2,2,0,0,0,1.395.5,2.437,2.437,0,0,0,2.039-.945l1.109,1.242a3.389,3.389,0,0,1-1.375,1.121A4.511,4.511,0,0,1,116.766,35.156Zm-.258-6.945a1.411,1.411,0,0,0-1.09.455,2.357,2.357,0,0,0-.535,1.3h3.141v-.181a1.681,1.681,0,0,0-.406-1.165A1.456,1.456,0,0,0,116.508,28.211ZM48.5,48.711a5.094,5.094,0,0,1,.887-3.148,2.877,2.877,0,0,1,2.426-1.172,2.589,2.589,0,0,1,2.039.922V41h2.266V53H54.074l-.109-.9a2.657,2.657,0,0,1-2.172,1.055A2.869,2.869,0,0,1,49.4,51.98,5.258,5.258,0,0,1,48.5,48.711Zm2.258.168a3.337,3.337,0,0,0,.414,1.823,1.349,1.349,0,0,0,1.2.634,1.511,1.511,0,0,0,1.477-.884V47.111a1.489,1.489,0,0,0-1.461-.884Q50.754,46.227,50.754,48.879ZM62.762,53a2.507,2.507,0,0,1-.227-.758,2.732,2.732,0,0,1-2.133.914,3,3,0,0,1-2.059-.719,2.312,2.312,0,0,1-.816-1.812,2.389,2.389,0,0,1,1-2.062,4.915,4.915,0,0,1,2.879-.727h1.039v-.484a1.393,1.393,0,0,0-.3-.937,1.183,1.183,0,0,0-.949-.352,1.345,1.345,0,0,0-.895.273.929.929,0,0,0-.324.75H57.715a2.268,2.268,0,0,1,.453-1.359,3,3,0,0,1,1.281-.98,4.669,4.669,0,0,1,1.859-.355,3.689,3.689,0,0,1,2.48.785,2.747,2.747,0,0,1,.918,2.207v3.664a4.041,4.041,0,0,0,.336,1.82V53Zm-1.867-1.57a1.945,1.945,0,0,0,.922-.223,1.462,1.462,0,0,0,.625-.6V49.156H61.6q-1.7,0-1.8,1.172l-.008.133a.9.9,0,0,0,.3.7A1.153,1.153,0,0,0,60.895,51.43Zm8.25-8.961v2.078H70.59V46.2H69.145v4.219a1.007,1.007,0,0,0,.18.672.9.9,0,0,0,.688.2,3.6,3.6,0,0,0,.664-.055v1.711a4.648,4.648,0,0,1-1.367.2,2.156,2.156,0,0,1-2.422-2.4V46.2H65.652V44.547h1.234V42.469ZM71.262,48.7a5.013,5.013,0,0,1,.484-2.242,3.546,3.546,0,0,1,1.395-1.523,4.069,4.069,0,0,1,2.113-.539,3.849,3.849,0,0,1,2.793,1.047,4.2,4.2,0,0,1,1.207,2.844l.016.578a4.418,4.418,0,0,1-1.086,3.121,4.209,4.209,0,0,1-5.832,0,4.5,4.5,0,0,1-1.09-3.187Zm2.258.16a3.16,3.16,0,0,0,.453,1.843,1.628,1.628,0,0,0,2.578.008,3.457,3.457,0,0,0,.461-2.015,3.128,3.128,0,0,0-.461-1.831,1.5,1.5,0,0,0-1.3-.649,1.474,1.474,0,0,0-1.281.646A3.516,3.516,0,0,0,73.52,48.856Zm11.719,1.808a.727.727,0,0,0-.41-.652,4.659,4.659,0,0,0-1.316-.426Q80.5,48.953,80.5,47.023a2.323,2.323,0,0,1,.934-1.879,3.766,3.766,0,0,1,2.441-.754,4.053,4.053,0,0,1,2.574.758,2.388,2.388,0,0,1,.965,1.969H85.152a1.092,1.092,0,0,0-.312-.8A1.322,1.322,0,0,0,83.863,46a1.351,1.351,0,0,0-.883.258.814.814,0,0,0-.312.656.7.7,0,0,0,.355.605,3.657,3.657,0,0,0,1.2.4,9.8,9.8,0,0,1,1.422.379,2.336,2.336,0,0,1,1.789,2.273,2.2,2.2,0,0,1-.992,1.871,4.28,4.28,0,0,1-2.562.715,4.47,4.47,0,0,1-1.887-.379A3.166,3.166,0,0,1,80.7,51.738a2.414,2.414,0,0,1-.469-1.426h2.141a1.179,1.179,0,0,0,.445.922,1.766,1.766,0,0,0,1.109.32,1.635,1.635,0,0,0,.98-.246A.766.766,0,0,0,85.238,50.664Z" transform="translate(1026 3388)" fill="#12263f"/>
  </g>
</svg>
