<svg xmlns="http://www.w3.org/2000/svg" xmlns:xlink="http://www.w3.org/1999/xlink" width="1302.334" height="283.432" viewBox="0 0 1302.334 283.432">
  <defs>
    <linearGradient id="linear-gradient" x1="1.043" y1="-0.125" x2="0.336" y2="1.321" gradientUnits="objectBoundingBox">
      <stop offset="0" stop-color="#64f6f0"/>
      <stop offset="0.645" stop-color="#4b31a8"/>
      <stop offset="1" stop-color="#461698"/>
    </linearGradient>
    <filter id="Rectángulo_34835" x="0" y="0" width="1302.334" height="283.432" filterUnits="userSpaceOnUse">
      <feOffset dy="8" input="SourceAlpha"/>
      <feGaussianBlur stdDeviation="10.5" result="blur"/>
      <feFlood flood-opacity="0.18"/>
      <feComposite operator="in" in2="blur"/>
      <feComposite in="SourceGraphic"/>
    </filter>
    <clipPath id="clip-path">
      <path id="Rectangle_652" data-name="Rectangle 652" d="M1220.473,0H19.528C8.743,0,0,3.669,0,8.195V213.06c0,4.526,8.743,8.195,19.528,8.195H1220.473c10.785,0,19.527-3.669,19.527-8.195V8.195C1240,3.669,1231.258,0,1220.473,0Z" fill="url(#linear-gradient)"/>
    </clipPath>
    <linearGradient id="linear-gradient-2" x1="0.425" y1="-0.997" x2="0.5" y2="1" gradientUnits="objectBoundingBox">
      <stop offset="0" stop-color="#5f9025"/>
      <stop offset="1" stop-color="#78b62e"/>
    </linearGradient>
    <linearGradient id="linear-gradient-3" x1="0.5" x2="0.5" y2="1" gradientUnits="objectBoundingBox">
      <stop offset="0" stop-color="#d0cece"/>
      <stop offset="1" stop-color="#e2e2e2"/>
    </linearGradient>
  </defs>
  <g id="Grupo_78461" data-name="Grupo 78461" transform="translate(-147.5 -1343.5)">
    <g transform="matrix(1, 0, 0, 1, 147.5, 1343.5)" filter="url(#Rectángulo_34835)">
      <rect id="Rectángulo_34835-2" data-name="Rectángulo 34835" width="1239.334" height="220.432" rx="18" transform="translate(31.5 23.5)" fill="#fff"/>
    </g>
    <g id="Enmascarar_grupo_45" data-name="Enmascarar grupo 45" transform="translate(178.333 1367)" clip-path="url(#clip-path)">
      <path id="Sustracción_4" data-name="Sustracción 4" d="M577.508,379.1h0c-20.883-2.08-41.859-4.891-62.344-8.354-20.256-3.424-40.532-7.572-60.262-12.327-19.546-4.709-39.03-10.126-57.908-16.1-18.738-5.929-37.34-12.551-55.293-19.682-17.848-7.09-35.48-14.851-52.408-23.068-16.847-8.178-33.42-17.013-49.254-26.259-15.767-9.206-31.189-19.048-45.836-29.252s-28.819-20.989-42.143-32.053c-13.382-11.111-26.231-22.771-38.189-34.655-12.013-11.939-23.44-24.409-33.965-37.063a487.652,487.652,0,0,1-29.471-39.277A448.961,448.961,0,0,1,25.716,59.718,417.474,417.474,0,0,1,6.031,16.6C3.9,11.121,1.872,5.536,0,0H183.354c1.469,3.138,3.012,6.3,4.589,9.39a331.782,331.782,0,0,0,17.35,29.994C211.585,49.068,218.551,58.695,226,68c7.387,9.228,15.42,18.346,23.878,27.1,8.408,8.708,17.448,17.271,26.868,25.454,9.392,8.157,19.377,16.123,29.679,23.675S327.6,159.1,338.731,165.988s22.821,13.519,34.749,19.715,24.387,12.1,37.009,17.536c12.695,5.467,25.848,10.589,39.094,15.225,13.338,4.67,27.127,8.97,40.986,12.781,13.966,3.838,28.333,7.27,42.7,10.2,14.518,2.959,29.4,5.478,44.237,7.489V379.1Z" transform="translate(729.794 -0.364)" fill="url(#linear-gradient-2)"/>
      <path id="Sustracción_2" data-name="Sustracción 2" d="M405.691,0c224.056,0,405.69,132.663,405.69,296.312S629.747,592.623,405.691,592.623,0,459.96,0,296.312,181.633,0,405.691,0Z" transform="translate(640.743 125.306)" opacity="0.444" fill="url(#linear-gradient-3)" style="mix-blend-mode: multiply;isolation: isolate"/>
      <path id="Sustracción_6" data-name="Sustracción 6" d="M373.3,232.633h0c-18.455-2.721-36.893-6.241-54.8-10.462a622.346,622.346,0,0,1-70.884-21.18,570.356,570.356,0,0,1-65.033-28.449,510.765,510.765,0,0,1-58.234-35.02A447.459,447.459,0,0,1,73.872,96.629,386.684,386.684,0,0,1,32.105,50.555,334.335,334.335,0,0,1,0,0H2.13C4.5,4.6,7.013,9.2,9.6,13.662a338.517,338.517,0,0,0,21.225,32.18A370.141,370.141,0,0,0,56.069,76.193c9.016,9.747,18.778,19.281,29.015,28.339,10.205,9.036,21.15,17.832,32.529,26.143s23.427,16.307,35.8,23.762c12.416,7.483,25.469,14.612,38.8,21.19,13.379,6.6,27.362,12.807,41.555,18.439,14.29,5.669,29.113,10.884,44.06,15.5,15.085,4.662,30.663,8.827,46.3,12.379,15.778,3.584,32.028,6.637,48.3,9.072l.875.129v1.485Z" transform="translate(934.997 -0.363)" fill="#fff"/>
    </g>
  </g>
</svg>
