<svg xmlns="http://www.w3.org/2000/svg" width="313" height="163" viewBox="0 0 313 163">
  <g id="Grupo_134892" data-name="Grupo 134892" transform="translate(-851 -956)">
    <g id="Grupo_134097" data-name="Grupo 134097" transform="translate(0 20)">
      <path id="Rectángulo_34846" data-name="Rectángulo 34846" d="M0,0H271a42,42,0,0,1,42,42V163a0,0,0,0,1,0,0H42A42,42,0,0,1,0,121V0A0,0,0,0,1,0,0Z" transform="translate(851 936)" fill="#3c6d9d"/>
      <path id="Trazado_145971" data-name="Trazado 145971" d="M8.18,0A8.18,8.18,0,1,1,0,8.18,8.18,8.18,0,0,1,8.18,0Z" transform="translate(885.317 1062.538)" fill="#64b5f6" opacity="0.444" style="mix-blend-mode: multiply;isolation: isolate"/>
      <g id="Grupo_78276" data-name="Grupo 78276" transform="translate(1089.437 1030.84)">
        <g id="Grupo_53306" data-name="Grupo 53306" transform="translate(0)">
          <path id="Trazado_99200" data-name="Trazado 99200" d="M415.5,50.837a.642.642,0,1,1-.642-.613A.628.628,0,0,1,415.5,50.837Z" transform="translate(-414.214 -50.224)" fill="#fff"/>
          <path id="Trazado_99200_-_Contorno" data-name="Trazado 99200 - Contorno" d="M414.855,49.724a1.113,1.113,0,1,1-1.141,1.113A1.129,1.129,0,0,1,414.855,49.724Z" transform="translate(-414.214 -50.224)" fill="#fff"/>
          <path id="Trazado_99201" data-name="Trazado 99201" d="M423.942,50.837a.642.642,0,1,1-.641-.613A.627.627,0,0,1,423.942,50.837Z" transform="translate(-416.89 -50.224)" fill="#fff"/>
          <path id="Trazado_99201_-_Contorno" data-name="Trazado 99201 - Contorno" d="M423.3,49.724a1.113,1.113,0,1,1-1.141,1.113A1.128,1.128,0,0,1,423.3,49.724Z" transform="translate(-416.89 -50.224)" fill="#fff"/>
          <path id="Trazado_99202" data-name="Trazado 99202" d="M432.388,50.837a.642.642,0,1,1-.641-.613A.627.627,0,0,1,432.388,50.837Z" transform="translate(-419.566 -50.224)" fill="#fff"/>
          <path id="Trazado_99202_-_Contorno" data-name="Trazado 99202 - Contorno" d="M431.747,49.724a1.113,1.113,0,1,1-1.142,1.113A1.128,1.128,0,0,1,431.747,49.724Z" transform="translate(-419.566 -50.224)" fill="#fff"/>
          <path id="Trazado_99203" data-name="Trazado 99203" d="M440.835,50.837a.642.642,0,1,1-.641-.613A.628.628,0,0,1,440.835,50.837Z" transform="translate(-422.243 -50.224)" fill="#fff"/>
          <path id="Trazado_99203_-_Contorno" data-name="Trazado 99203 - Contorno" d="M440.194,49.724a1.113,1.113,0,1,1-1.141,1.113A1.129,1.129,0,0,1,440.194,49.724Z" transform="translate(-422.243 -50.224)" fill="#fff"/>
          <path id="Trazado_99204" data-name="Trazado 99204" d="M449.281,50.837a.642.642,0,1,1-.641-.613A.627.627,0,0,1,449.281,50.837Z" transform="translate(-424.919 -50.224)" fill="#fff"/>
          <path id="Trazado_99204_-_Contorno" data-name="Trazado 99204 - Contorno" d="M448.64,49.724a1.113,1.113,0,1,1-1.141,1.113A1.128,1.128,0,0,1,448.64,49.724Z" transform="translate(-424.919 -50.224)" fill="#fff"/>
          <path id="Trazado_99205" data-name="Trazado 99205" d="M457.727,50.837a.642.642,0,1,1-.641-.613A.627.627,0,0,1,457.727,50.837Z" transform="translate(-427.595 -50.224)" fill="#fff"/>
          <path id="Trazado_99205_-_Contorno" data-name="Trazado 99205 - Contorno" d="M457.086,49.724a1.113,1.113,0,1,1-1.141,1.113A1.128,1.128,0,0,1,457.086,49.724Z" transform="translate(-427.595 -50.224)" fill="#fff"/>
          <path id="Trazado_99206" data-name="Trazado 99206" d="M466.174,50.837a.642.642,0,1,1-.641-.613A.628.628,0,0,1,466.174,50.837Z" transform="translate(-430.272 -50.224)" fill="#fff"/>
          <path id="Trazado_99206_-_Contorno" data-name="Trazado 99206 - Contorno" d="M465.533,49.724a1.113,1.113,0,1,1-1.141,1.113A1.129,1.129,0,0,1,465.533,49.724Z" transform="translate(-430.272 -50.224)" fill="#fff"/>
          <path id="Trazado_99207" data-name="Trazado 99207" d="M474.62,50.837a.642.642,0,1,1-.641-.613A.627.627,0,0,1,474.62,50.837Z" transform="translate(-432.948 -50.224)" fill="#fff"/>
          <path id="Trazado_99207_-_Contorno" data-name="Trazado 99207 - Contorno" d="M473.98,49.724a1.113,1.113,0,1,1-1.141,1.113A1.128,1.128,0,0,1,473.98,49.724Z" transform="translate(-432.948 -50.224)" fill="#fff"/>
          <path id="Trazado_99208" data-name="Trazado 99208" d="M483.066,50.837a.642.642,0,1,1-.641-.613A.627.627,0,0,1,483.066,50.837Z" transform="translate(-435.624 -50.224)" fill="#fff"/>
          <path id="Trazado_99208_-_Contorno" data-name="Trazado 99208 - Contorno" d="M482.425,49.724a1.113,1.113,0,1,1-1.142,1.113A1.128,1.128,0,0,1,482.425,49.724Z" transform="translate(-435.624 -50.224)" fill="#fff"/>
          <path id="Trazado_99209" data-name="Trazado 99209" d="M491.513,50.837a.642.642,0,1,1-.641-.613A.628.628,0,0,1,491.513,50.837Z" transform="translate(-438.301 -50.224)" fill="#fff"/>
          <path id="Trazado_99209_-_Contorno" data-name="Trazado 99209 - Contorno" d="M490.872,49.724a1.113,1.113,0,1,1-1.141,1.113A1.129,1.129,0,0,1,490.872,49.724Z" transform="translate(-438.301 -50.224)" fill="#fff"/>
          <path id="Trazado_99210" data-name="Trazado 99210" d="M499.959,50.837a.642.642,0,1,1-.641-.613A.628.628,0,0,1,499.959,50.837Z" transform="translate(-440.977 -50.224)" fill="#fff"/>
          <path id="Trazado_99210_-_Contorno" data-name="Trazado 99210 - Contorno" d="M499.318,49.724a1.113,1.113,0,1,1-1.141,1.113A1.129,1.129,0,0,1,499.318,49.724Z" transform="translate(-440.977 -50.224)" fill="#fff"/>
        </g>
        <g id="Grupo_53307" data-name="Grupo 53307" transform="translate(0 4.905)">
          <path id="Trazado_99211" data-name="Trazado 99211" d="M415.5,58.345a.642.642,0,1,1-.642-.613A.628.628,0,0,1,415.5,58.345Z" transform="translate(-414.214 -57.732)" fill="#fff"/>
          <path id="Trazado_99211_-_Contorno" data-name="Trazado 99211 - Contorno" d="M414.855,57.232a1.113,1.113,0,1,1-1.141,1.113A1.129,1.129,0,0,1,414.855,57.232Z" transform="translate(-414.214 -57.732)" fill="#fff"/>
          <path id="Trazado_99212" data-name="Trazado 99212" d="M423.942,58.345a.642.642,0,1,1-.641-.613A.627.627,0,0,1,423.942,58.345Z" transform="translate(-416.89 -57.732)" fill="#fff"/>
          <path id="Trazado_99212_-_Contorno" data-name="Trazado 99212 - Contorno" d="M423.3,57.232a1.113,1.113,0,1,1-1.141,1.113A1.128,1.128,0,0,1,423.3,57.232Z" transform="translate(-416.89 -57.732)" fill="#fff"/>
          <path id="Trazado_99213" data-name="Trazado 99213" d="M432.388,58.345a.642.642,0,1,1-.641-.613A.627.627,0,0,1,432.388,58.345Z" transform="translate(-419.566 -57.732)" fill="#fff"/>
          <path id="Trazado_99213_-_Contorno" data-name="Trazado 99213 - Contorno" d="M431.747,57.232a1.113,1.113,0,1,1-1.142,1.113A1.128,1.128,0,0,1,431.747,57.232Z" transform="translate(-419.566 -57.732)" fill="#fff"/>
          <path id="Trazado_99214" data-name="Trazado 99214" d="M440.835,58.345a.642.642,0,1,1-.641-.613A.628.628,0,0,1,440.835,58.345Z" transform="translate(-422.243 -57.732)" fill="#fff"/>
          <path id="Trazado_99214_-_Contorno" data-name="Trazado 99214 - Contorno" d="M440.194,57.232a1.113,1.113,0,1,1-1.141,1.113A1.129,1.129,0,0,1,440.194,57.232Z" transform="translate(-422.243 -57.732)" fill="#fff"/>
          <path id="Trazado_99215" data-name="Trazado 99215" d="M449.281,58.345a.642.642,0,1,1-.641-.613A.627.627,0,0,1,449.281,58.345Z" transform="translate(-424.919 -57.732)" fill="#fff"/>
          <path id="Trazado_99215_-_Contorno" data-name="Trazado 99215 - Contorno" d="M448.64,57.232a1.113,1.113,0,1,1-1.141,1.113A1.128,1.128,0,0,1,448.64,57.232Z" transform="translate(-424.919 -57.732)" fill="#fff"/>
          <path id="Trazado_99216" data-name="Trazado 99216" d="M457.727,58.345a.642.642,0,1,1-.641-.613A.627.627,0,0,1,457.727,58.345Z" transform="translate(-427.595 -57.732)" fill="#fff"/>
          <path id="Trazado_99216_-_Contorno" data-name="Trazado 99216 - Contorno" d="M457.086,57.232a1.113,1.113,0,1,1-1.141,1.113A1.128,1.128,0,0,1,457.086,57.232Z" transform="translate(-427.595 -57.732)" fill="#fff"/>
          <path id="Trazado_99217" data-name="Trazado 99217" d="M466.174,58.345a.642.642,0,1,1-.641-.613A.628.628,0,0,1,466.174,58.345Z" transform="translate(-430.272 -57.732)" fill="#fff"/>
          <path id="Trazado_99217_-_Contorno" data-name="Trazado 99217 - Contorno" d="M465.533,57.232a1.113,1.113,0,1,1-1.141,1.113A1.129,1.129,0,0,1,465.533,57.232Z" transform="translate(-430.272 -57.732)" fill="#fff"/>
          <path id="Trazado_99218" data-name="Trazado 99218" d="M474.62,58.345a.642.642,0,1,1-.641-.613A.627.627,0,0,1,474.62,58.345Z" transform="translate(-432.948 -57.732)" fill="#fff"/>
          <path id="Trazado_99218_-_Contorno" data-name="Trazado 99218 - Contorno" d="M473.98,57.232a1.113,1.113,0,1,1-1.141,1.113A1.128,1.128,0,0,1,473.98,57.232Z" transform="translate(-432.948 -57.732)" fill="#fff"/>
          <path id="Trazado_99219" data-name="Trazado 99219" d="M483.066,58.345a.642.642,0,1,1-.641-.613A.627.627,0,0,1,483.066,58.345Z" transform="translate(-435.624 -57.732)" fill="#fff"/>
          <path id="Trazado_99219_-_Contorno" data-name="Trazado 99219 - Contorno" d="M482.425,57.232a1.113,1.113,0,1,1-1.142,1.113A1.128,1.128,0,0,1,482.425,57.232Z" transform="translate(-435.624 -57.732)" fill="#fff"/>
          <path id="Trazado_99220" data-name="Trazado 99220" d="M491.513,58.345a.642.642,0,1,1-.641-.613A.628.628,0,0,1,491.513,58.345Z" transform="translate(-438.301 -57.732)" fill="#fff"/>
          <path id="Trazado_99220_-_Contorno" data-name="Trazado 99220 - Contorno" d="M490.872,57.232a1.113,1.113,0,1,1-1.141,1.113A1.129,1.129,0,0,1,490.872,57.232Z" transform="translate(-438.301 -57.732)" fill="#fff"/>
          <path id="Trazado_99221" data-name="Trazado 99221" d="M499.959,58.345a.642.642,0,1,1-.641-.613A.628.628,0,0,1,499.959,58.345Z" transform="translate(-440.977 -57.732)" fill="#fff"/>
          <path id="Trazado_99221_-_Contorno" data-name="Trazado 99221 - Contorno" d="M499.318,57.232a1.113,1.113,0,1,1-1.141,1.113A1.129,1.129,0,0,1,499.318,57.232Z" transform="translate(-440.977 -57.732)" fill="#fff"/>
        </g>
        <g id="Grupo_53308" data-name="Grupo 53308" transform="translate(0 9.81)">
          <ellipse id="Elipse_3955" data-name="Elipse 3955" cx="0.641" cy="0.613" rx="0.641" ry="0.613" fill="#fff"/>
          <path id="Elipse_3955_-_Contorno" data-name="Elipse 3955 - Contorno" d="M.641-.5A1.129,1.129,0,0,1,1.782.613,1.129,1.129,0,0,1,.641,1.726,1.129,1.129,0,0,1-.5.613,1.129,1.129,0,0,1,.641-.5Z" fill="#fff"/>
          <path id="Trazado_99222" data-name="Trazado 99222" d="M423.942,65.853a.642.642,0,1,1-.641-.613A.628.628,0,0,1,423.942,65.853Z" transform="translate(-416.89 -65.24)" fill="#fff"/>
          <path id="Trazado_99222_-_Contorno" data-name="Trazado 99222 - Contorno" d="M423.3,64.74a1.113,1.113,0,1,1-1.141,1.113A1.128,1.128,0,0,1,423.3,64.74Z" transform="translate(-416.89 -65.24)" fill="#fff"/>
          <ellipse id="Elipse_3956" data-name="Elipse 3956" cx="0.641" cy="0.613" rx="0.641" ry="0.613" transform="translate(11.54)" fill="#fff"/>
          <path id="Elipse_3956_-_Contorno" data-name="Elipse 3956 - Contorno" d="M.641-.5A1.129,1.129,0,0,1,1.782.613,1.129,1.129,0,0,1,.641,1.726,1.129,1.129,0,0,1-.5.613,1.129,1.129,0,0,1,.641-.5Z" transform="translate(11.54)" fill="#fff"/>
          <path id="Trazado_99223" data-name="Trazado 99223" d="M440.835,65.853a.642.642,0,1,1-.641-.613A.628.628,0,0,1,440.835,65.853Z" transform="translate(-422.243 -65.24)" fill="#fff"/>
          <path id="Trazado_99223_-_Contorno" data-name="Trazado 99223 - Contorno" d="M440.194,64.74a1.113,1.113,0,1,1-1.141,1.113A1.129,1.129,0,0,1,440.194,64.74Z" transform="translate(-422.243 -65.24)" fill="#fff"/>
          <path id="Trazado_99224" data-name="Trazado 99224" d="M449.281,65.853a.642.642,0,1,1-.641-.613A.628.628,0,0,1,449.281,65.853Z" transform="translate(-424.919 -65.24)" fill="#fff"/>
          <path id="Trazado_99224_-_Contorno" data-name="Trazado 99224 - Contorno" d="M448.64,64.74a1.113,1.113,0,1,1-1.141,1.113A1.128,1.128,0,0,1,448.64,64.74Z" transform="translate(-424.919 -65.24)" fill="#fff"/>
          <ellipse id="Elipse_3957" data-name="Elipse 3957" cx="0.641" cy="0.613" rx="0.641" ry="0.613" transform="translate(28.85)" fill="#fff"/>
          <path id="Elipse_3957_-_Contorno" data-name="Elipse 3957 - Contorno" d="M.641-.5A1.129,1.129,0,0,1,1.782.613,1.129,1.129,0,0,1,.641,1.726,1.129,1.129,0,0,1-.5.613,1.129,1.129,0,0,1,.641-.5Z" transform="translate(28.85)" fill="#fff"/>
          <path id="Trazado_99225" data-name="Trazado 99225" d="M466.174,65.853a.642.642,0,1,1-.641-.613A.628.628,0,0,1,466.174,65.853Z" transform="translate(-430.272 -65.24)" fill="#fff"/>
          <path id="Trazado_99225_-_Contorno" data-name="Trazado 99225 - Contorno" d="M465.533,64.74a1.113,1.113,0,1,1-1.141,1.113A1.129,1.129,0,0,1,465.533,64.74Z" transform="translate(-430.272 -65.24)" fill="#fff"/>
          <ellipse id="Elipse_3958" data-name="Elipse 3958" cx="0.641" cy="0.613" rx="0.641" ry="0.613" transform="translate(40.39)" fill="#fff"/>
          <path id="Elipse_3958_-_Contorno" data-name="Elipse 3958 - Contorno" d="M.641-.5A1.129,1.129,0,0,1,1.782.613,1.129,1.129,0,0,1,.641,1.726,1.129,1.129,0,0,1-.5.613,1.129,1.129,0,0,1,.641-.5Z" transform="translate(40.39)" fill="#fff"/>
          <ellipse id="Elipse_3959" data-name="Elipse 3959" cx="0.641" cy="0.613" rx="0.641" ry="0.613" transform="translate(46.16)" fill="#fff"/>
          <path id="Elipse_3959_-_Contorno" data-name="Elipse 3959 - Contorno" d="M.641-.5A1.129,1.129,0,0,1,1.782.613,1.129,1.129,0,0,1,.641,1.726,1.129,1.129,0,0,1-.5.613,1.129,1.129,0,0,1,.641-.5Z" transform="translate(46.16)" fill="#fff"/>
          <path id="Trazado_99226" data-name="Trazado 99226" d="M491.513,65.853a.642.642,0,1,1-.641-.613A.628.628,0,0,1,491.513,65.853Z" transform="translate(-438.3 -65.24)" fill="#fff"/>
          <path id="Trazado_99226_-_Contorno" data-name="Trazado 99226 - Contorno" d="M490.872,64.74a1.113,1.113,0,1,1-1.141,1.113A1.129,1.129,0,0,1,490.872,64.74Z" transform="translate(-438.3 -65.24)" fill="#fff"/>
          <path id="Trazado_99227" data-name="Trazado 99227" d="M499.959,65.853a.642.642,0,1,1-.641-.613A.628.628,0,0,1,499.959,65.853Z" transform="translate(-440.977 -65.24)" fill="#fff"/>
          <path id="Trazado_99227_-_Contorno" data-name="Trazado 99227 - Contorno" d="M499.318,64.74a1.113,1.113,0,1,1-1.141,1.113A1.129,1.129,0,0,1,499.318,64.74Z" transform="translate(-440.977 -65.24)" fill="#fff"/>
        </g>
        <g id="Grupo_53309" data-name="Grupo 53309" transform="translate(0 14.714)">
          <ellipse id="Elipse_3960" data-name="Elipse 3960" cx="0.641" cy="0.613" rx="0.641" ry="0.613" transform="translate(0 0)" fill="#fff"/>
          <path id="Elipse_3960_-_Contorno" data-name="Elipse 3960 - Contorno" d="M.641-.5A1.129,1.129,0,0,1,1.782.613,1.129,1.129,0,0,1,.641,1.726,1.129,1.129,0,0,1-.5.613,1.129,1.129,0,0,1,.641-.5Z" transform="translate(0 0)" fill="#fff"/>
          <path id="Trazado_99228" data-name="Trazado 99228" d="M423.942,73.36a.642.642,0,1,1-.641-.613A.627.627,0,0,1,423.942,73.36Z" transform="translate(-416.89 -72.747)" fill="#fff"/>
          <path id="Trazado_99228_-_Contorno" data-name="Trazado 99228 - Contorno" d="M423.3,74.473a1.113,1.113,0,1,1,1.141-1.113A1.129,1.129,0,0,1,423.3,74.473Z" transform="translate(-416.89 -72.747)" fill="#fff"/>
          <ellipse id="Elipse_3961" data-name="Elipse 3961" cx="0.641" cy="0.613" rx="0.641" ry="0.613" transform="translate(11.54 0)" fill="#fff"/>
          <path id="Elipse_3961_-_Contorno" data-name="Elipse 3961 - Contorno" d="M.641-.5A1.129,1.129,0,0,1,1.782.613,1.129,1.129,0,0,1,.641,1.726,1.129,1.129,0,0,1-.5.613,1.129,1.129,0,0,1,.641-.5Z" transform="translate(11.54 0)" fill="#fff"/>
          <path id="Trazado_99229" data-name="Trazado 99229" d="M440.835,73.36a.642.642,0,1,1-.641-.613A.627.627,0,0,1,440.835,73.36Z" transform="translate(-422.243 -72.747)" fill="#fff"/>
          <path id="Trazado_99229_-_Contorno" data-name="Trazado 99229 - Contorno" d="M440.194,74.473a1.113,1.113,0,1,1,1.141-1.113A1.128,1.128,0,0,1,440.194,74.473Z" transform="translate(-422.243 -72.747)" fill="#fff"/>
          <path id="Trazado_99230" data-name="Trazado 99230" d="M449.281,73.36a.642.642,0,1,1-.641-.613A.627.627,0,0,1,449.281,73.36Z" transform="translate(-424.919 -72.747)" fill="#fff"/>
          <path id="Trazado_99230_-_Contorno" data-name="Trazado 99230 - Contorno" d="M448.64,74.473a1.113,1.113,0,1,1,1.141-1.113A1.129,1.129,0,0,1,448.64,74.473Z" transform="translate(-424.919 -72.747)" fill="#fff"/>
          <ellipse id="Elipse_3962" data-name="Elipse 3962" cx="0.641" cy="0.613" rx="0.641" ry="0.613" transform="translate(28.85 0)" fill="#fff"/>
          <path id="Elipse_3962_-_Contorno" data-name="Elipse 3962 - Contorno" d="M.641-.5A1.129,1.129,0,0,1,1.782.613,1.129,1.129,0,0,1,.641,1.726,1.129,1.129,0,0,1-.5.613,1.129,1.129,0,0,1,.641-.5Z" transform="translate(28.85 0)" fill="#fff"/>
          <path id="Trazado_99231" data-name="Trazado 99231" d="M466.174,73.36a.642.642,0,1,1-.641-.613A.628.628,0,0,1,466.174,73.36Z" transform="translate(-430.272 -72.747)" fill="#fff"/>
          <path id="Trazado_99231_-_Contorno" data-name="Trazado 99231 - Contorno" d="M465.533,74.473a1.113,1.113,0,1,1,1.141-1.113A1.128,1.128,0,0,1,465.533,74.473Z" transform="translate(-430.272 -72.747)" fill="#fff"/>
          <ellipse id="Elipse_3963" data-name="Elipse 3963" cx="0.641" cy="0.613" rx="0.641" ry="0.613" transform="translate(40.39 0)" fill="#fff"/>
          <path id="Elipse_3963_-_Contorno" data-name="Elipse 3963 - Contorno" d="M.641-.5A1.129,1.129,0,0,1,1.782.613,1.129,1.129,0,0,1,.641,1.726,1.129,1.129,0,0,1-.5.613,1.129,1.129,0,0,1,.641-.5Z" transform="translate(40.39 0)" fill="#fff"/>
          <ellipse id="Elipse_3964" data-name="Elipse 3964" cx="0.641" cy="0.613" rx="0.641" ry="0.613" transform="translate(46.16 0)" fill="#fff"/>
          <path id="Elipse_3964_-_Contorno" data-name="Elipse 3964 - Contorno" d="M.641-.5A1.129,1.129,0,0,1,1.782.613,1.129,1.129,0,0,1,.641,1.726,1.129,1.129,0,0,1-.5.613,1.129,1.129,0,0,1,.641-.5Z" transform="translate(46.16 0)" fill="#fff"/>
          <path id="Trazado_99232" data-name="Trazado 99232" d="M491.513,73.36a.642.642,0,1,1-.641-.613A.628.628,0,0,1,491.513,73.36Z" transform="translate(-438.3 -72.747)" fill="#fff"/>
          <path id="Trazado_99232_-_Contorno" data-name="Trazado 99232 - Contorno" d="M490.872,74.473a1.113,1.113,0,1,1,1.141-1.113A1.128,1.128,0,0,1,490.872,74.473Z" transform="translate(-438.3 -72.747)" fill="#fff"/>
          <path id="Trazado_99233" data-name="Trazado 99233" d="M499.959,73.36a.642.642,0,1,1-.641-.613A.627.627,0,0,1,499.959,73.36Z" transform="translate(-440.977 -72.747)" fill="#fff"/>
          <path id="Trazado_99233_-_Contorno" data-name="Trazado 99233 - Contorno" d="M499.318,74.473a1.113,1.113,0,1,1,1.141-1.113A1.128,1.128,0,0,1,499.318,74.473Z" transform="translate(-440.977 -72.747)" fill="#fff"/>
        </g>
        <g id="Grupo_53310" data-name="Grupo 53310" transform="translate(0 19.619)">
          <path id="Trazado_99234" data-name="Trazado 99234" d="M415.5,80.868a.642.642,0,1,1-.642-.613A.628.628,0,0,1,415.5,80.868Z" transform="translate(-414.214 -80.255)" fill="#fff"/>
          <path id="Trazado_99234_-_Contorno" data-name="Trazado 99234 - Contorno" d="M414.855,81.981A1.113,1.113,0,1,1,416,80.868,1.128,1.128,0,0,1,414.855,81.981Z" transform="translate(-414.214 -80.255)" fill="#fff"/>
          <path id="Trazado_99235" data-name="Trazado 99235" d="M423.942,80.868a.642.642,0,1,1-.641-.613A.627.627,0,0,1,423.942,80.868Z" transform="translate(-416.89 -80.255)" fill="#fff"/>
          <path id="Trazado_99235_-_Contorno" data-name="Trazado 99235 - Contorno" d="M423.3,81.981a1.113,1.113,0,1,1,1.141-1.113A1.129,1.129,0,0,1,423.3,81.981Z" transform="translate(-416.89 -80.255)" fill="#fff"/>
          <path id="Trazado_99236" data-name="Trazado 99236" d="M432.388,80.868a.642.642,0,1,1-.641-.613A.627.627,0,0,1,432.388,80.868Z" transform="translate(-419.566 -80.255)" fill="#fff"/>
          <path id="Trazado_99236_-_Contorno" data-name="Trazado 99236 - Contorno" d="M431.747,81.981a1.113,1.113,0,1,1,1.141-1.113A1.129,1.129,0,0,1,431.747,81.981Z" transform="translate(-419.566 -80.255)" fill="#fff"/>
          <path id="Trazado_99237" data-name="Trazado 99237" d="M440.835,80.868a.642.642,0,1,1-.641-.613A.627.627,0,0,1,440.835,80.868Z" transform="translate(-422.243 -80.255)" fill="#fff"/>
          <path id="Trazado_99237_-_Contorno" data-name="Trazado 99237 - Contorno" d="M440.194,81.981a1.113,1.113,0,1,1,1.141-1.113A1.128,1.128,0,0,1,440.194,81.981Z" transform="translate(-422.243 -80.255)" fill="#fff"/>
          <path id="Trazado_99238" data-name="Trazado 99238" d="M449.281,80.868a.642.642,0,1,1-.641-.613A.627.627,0,0,1,449.281,80.868Z" transform="translate(-424.919 -80.255)" fill="#fff"/>
          <path id="Trazado_99238_-_Contorno" data-name="Trazado 99238 - Contorno" d="M448.64,81.981a1.113,1.113,0,1,1,1.141-1.113A1.129,1.129,0,0,1,448.64,81.981Z" transform="translate(-424.919 -80.255)" fill="#fff"/>
          <path id="Trazado_99239" data-name="Trazado 99239" d="M457.727,80.868a.642.642,0,1,1-.641-.613A.627.627,0,0,1,457.727,80.868Z" transform="translate(-427.595 -80.255)" fill="#fff"/>
          <path id="Trazado_99239_-_Contorno" data-name="Trazado 99239 - Contorno" d="M457.086,81.981a1.113,1.113,0,1,1,1.141-1.113A1.129,1.129,0,0,1,457.086,81.981Z" transform="translate(-427.595 -80.255)" fill="#fff"/>
          <path id="Trazado_99240" data-name="Trazado 99240" d="M466.174,80.868a.642.642,0,1,1-.641-.613A.628.628,0,0,1,466.174,80.868Z" transform="translate(-430.272 -80.255)" fill="#fff"/>
          <path id="Trazado_99240_-_Contorno" data-name="Trazado 99240 - Contorno" d="M465.533,81.981a1.113,1.113,0,1,1,1.141-1.113A1.128,1.128,0,0,1,465.533,81.981Z" transform="translate(-430.272 -80.255)" fill="#fff"/>
          <path id="Trazado_99241" data-name="Trazado 99241" d="M474.62,80.868a.642.642,0,1,1-.641-.613A.627.627,0,0,1,474.62,80.868Z" transform="translate(-432.948 -80.255)" fill="#fff"/>
          <path id="Trazado_99241_-_Contorno" data-name="Trazado 99241 - Contorno" d="M473.98,81.981a1.113,1.113,0,1,1,1.141-1.113A1.129,1.129,0,0,1,473.98,81.981Z" transform="translate(-432.948 -80.255)" fill="#fff"/>
          <path id="Trazado_99242" data-name="Trazado 99242" d="M483.066,80.868a.642.642,0,1,1-.641-.613A.627.627,0,0,1,483.066,80.868Z" transform="translate(-435.624 -80.255)" fill="#fff"/>
          <path id="Trazado_99242_-_Contorno" data-name="Trazado 99242 - Contorno" d="M482.425,81.981a1.113,1.113,0,1,1,1.141-1.113A1.129,1.129,0,0,1,482.425,81.981Z" transform="translate(-435.624 -80.255)" fill="#fff"/>
          <path id="Trazado_99243" data-name="Trazado 99243" d="M491.513,80.868a.642.642,0,1,1-.641-.613A.628.628,0,0,1,491.513,80.868Z" transform="translate(-438.301 -80.255)" fill="#fff"/>
          <path id="Trazado_99243_-_Contorno" data-name="Trazado 99243 - Contorno" d="M490.872,81.981a1.113,1.113,0,1,1,1.141-1.113A1.128,1.128,0,0,1,490.872,81.981Z" transform="translate(-438.301 -80.255)" fill="#fff"/>
          <path id="Trazado_99244" data-name="Trazado 99244" d="M499.959,80.868a.642.642,0,1,1-.641-.613A.627.627,0,0,1,499.959,80.868Z" transform="translate(-440.977 -80.255)" fill="#fff"/>
          <path id="Trazado_99244_-_Contorno" data-name="Trazado 99244 - Contorno" d="M499.318,81.981a1.113,1.113,0,1,1,1.141-1.113A1.128,1.128,0,0,1,499.318,81.981Z" transform="translate(-440.977 -80.255)" fill="#fff"/>
        </g>
        <g id="Grupo_53311" data-name="Grupo 53311" transform="translate(0 24.524)">
          <ellipse id="Elipse_3965" data-name="Elipse 3965" cx="0.641" cy="0.613" rx="0.641" ry="0.613" transform="translate(0 0)" fill="#fff"/>
          <path id="Elipse_3965_-_Contorno" data-name="Elipse 3965 - Contorno" d="M.641-.5A1.129,1.129,0,0,1,1.782.613,1.129,1.129,0,0,1,.641,1.726,1.129,1.129,0,0,1-.5.613,1.129,1.129,0,0,1,.641-.5Z" transform="translate(0 0)" fill="#fff"/>
          <path id="Trazado_99245" data-name="Trazado 99245" d="M423.942,88.376a.642.642,0,1,1-.641-.613A.627.627,0,0,1,423.942,88.376Z" transform="translate(-416.89 -87.763)" fill="#fff"/>
          <path id="Trazado_99245_-_Contorno" data-name="Trazado 99245 - Contorno" d="M423.3,89.489a1.113,1.113,0,1,1,1.141-1.113A1.129,1.129,0,0,1,423.3,89.489Z" transform="translate(-416.89 -87.763)" fill="#fff"/>
          <ellipse id="Elipse_3966" data-name="Elipse 3966" cx="0.641" cy="0.613" rx="0.641" ry="0.613" transform="translate(11.54 0)" fill="#fff"/>
          <path id="Elipse_3966_-_Contorno" data-name="Elipse 3966 - Contorno" d="M.641-.5A1.129,1.129,0,0,1,1.782.613,1.129,1.129,0,0,1,.641,1.726,1.129,1.129,0,0,1-.5.613,1.129,1.129,0,0,1,.641-.5Z" transform="translate(11.54 0)" fill="#fff"/>
          <path id="Trazado_99246" data-name="Trazado 99246" d="M440.835,88.376a.642.642,0,1,1-.641-.613A.628.628,0,0,1,440.835,88.376Z" transform="translate(-422.243 -87.763)" fill="#fff"/>
          <path id="Trazado_99246_-_Contorno" data-name="Trazado 99246 - Contorno" d="M440.194,89.489a1.113,1.113,0,1,1,1.141-1.113A1.128,1.128,0,0,1,440.194,89.489Z" transform="translate(-422.243 -87.763)" fill="#fff"/>
          <path id="Trazado_99247" data-name="Trazado 99247" d="M449.281,88.376a.642.642,0,1,1-.641-.613A.627.627,0,0,1,449.281,88.376Z" transform="translate(-424.919 -87.763)" fill="#fff"/>
          <path id="Trazado_99247_-_Contorno" data-name="Trazado 99247 - Contorno" d="M448.64,89.489a1.113,1.113,0,1,1,1.141-1.113A1.129,1.129,0,0,1,448.64,89.489Z" transform="translate(-424.919 -87.763)" fill="#fff"/>
          <ellipse id="Elipse_3967" data-name="Elipse 3967" cx="0.641" cy="0.613" rx="0.641" ry="0.613" transform="translate(28.85 0)" fill="#fff"/>
          <path id="Elipse_3967_-_Contorno" data-name="Elipse 3967 - Contorno" d="M.641-.5A1.129,1.129,0,0,1,1.782.613,1.129,1.129,0,0,1,.641,1.726,1.129,1.129,0,0,1-.5.613,1.129,1.129,0,0,1,.641-.5Z" transform="translate(28.85 0)" fill="#fff"/>
          <path id="Trazado_99248" data-name="Trazado 99248" d="M466.174,88.376a.642.642,0,1,1-.641-.613A.628.628,0,0,1,466.174,88.376Z" transform="translate(-430.272 -87.763)" fill="#fff"/>
          <path id="Trazado_99248_-_Contorno" data-name="Trazado 99248 - Contorno" d="M465.533,89.489a1.113,1.113,0,1,1,1.141-1.113A1.128,1.128,0,0,1,465.533,89.489Z" transform="translate(-430.272 -87.763)" fill="#fff"/>
          <ellipse id="Elipse_3968" data-name="Elipse 3968" cx="0.641" cy="0.613" rx="0.641" ry="0.613" transform="translate(40.39 0)" fill="#fff"/>
          <path id="Elipse_3968_-_Contorno" data-name="Elipse 3968 - Contorno" d="M.641-.5A1.129,1.129,0,0,1,1.782.613,1.129,1.129,0,0,1,.641,1.726,1.129,1.129,0,0,1-.5.613,1.129,1.129,0,0,1,.641-.5Z" transform="translate(40.39 0)" fill="#fff"/>
          <ellipse id="Elipse_3969" data-name="Elipse 3969" cx="0.641" cy="0.613" rx="0.641" ry="0.613" transform="translate(46.16 0)" fill="#fff"/>
          <path id="Elipse_3969_-_Contorno" data-name="Elipse 3969 - Contorno" d="M.641-.5A1.129,1.129,0,0,1,1.782.613,1.129,1.129,0,0,1,.641,1.726,1.129,1.129,0,0,1-.5.613,1.129,1.129,0,0,1,.641-.5Z" transform="translate(46.16 0)" fill="#fff"/>
          <path id="Trazado_99249" data-name="Trazado 99249" d="M491.513,88.376a.642.642,0,1,1-.641-.613A.628.628,0,0,1,491.513,88.376Z" transform="translate(-438.3 -87.763)" fill="#fff"/>
          <path id="Trazado_99249_-_Contorno" data-name="Trazado 99249 - Contorno" d="M490.872,89.489a1.113,1.113,0,1,1,1.141-1.113A1.128,1.128,0,0,1,490.872,89.489Z" transform="translate(-438.3 -87.763)" fill="#fff"/>
          <path id="Trazado_99250" data-name="Trazado 99250" d="M499.959,88.376a.642.642,0,1,1-.641-.613A.627.627,0,0,1,499.959,88.376Z" transform="translate(-440.977 -87.763)" fill="#fff"/>
          <path id="Trazado_99250_-_Contorno" data-name="Trazado 99250 - Contorno" d="M499.318,89.489a1.113,1.113,0,1,1,1.141-1.113A1.128,1.128,0,0,1,499.318,89.489Z" transform="translate(-440.977 -87.763)" fill="#fff"/>
        </g>
        <g id="Grupo_53312" data-name="Grupo 53312" transform="translate(0 29.429)">
          <ellipse id="Elipse_3970" data-name="Elipse 3970" cx="0.641" cy="0.613" rx="0.641" ry="0.613" fill="#fff"/>
          <path id="Elipse_3970_-_Contorno" data-name="Elipse 3970 - Contorno" d="M.641-.5A1.129,1.129,0,0,1,1.782.613,1.129,1.129,0,0,1,.641,1.726,1.129,1.129,0,0,1-.5.613,1.129,1.129,0,0,1,.641-.5Z" fill="#fff"/>
          <path id="Trazado_99251" data-name="Trazado 99251" d="M423.942,95.884a.642.642,0,1,1-.641-.613A.627.627,0,0,1,423.942,95.884Z" transform="translate(-416.89 -95.271)" fill="#fff"/>
          <path id="Trazado_99251_-_Contorno" data-name="Trazado 99251 - Contorno" d="M423.3,94.771a1.113,1.113,0,1,1-1.141,1.113A1.128,1.128,0,0,1,423.3,94.771Z" transform="translate(-416.89 -95.271)" fill="#fff"/>
          <ellipse id="Elipse_3971" data-name="Elipse 3971" cx="0.641" cy="0.613" rx="0.641" ry="0.613" transform="translate(11.54)" fill="#fff"/>
          <path id="Elipse_3971_-_Contorno" data-name="Elipse 3971 - Contorno" d="M.641-.5A1.129,1.129,0,0,1,1.782.613,1.129,1.129,0,0,1,.641,1.726,1.129,1.129,0,0,1-.5.613,1.129,1.129,0,0,1,.641-.5Z" transform="translate(11.54)" fill="#fff"/>
          <path id="Trazado_99252" data-name="Trazado 99252" d="M440.835,95.884a.642.642,0,1,1-.641-.613A.628.628,0,0,1,440.835,95.884Z" transform="translate(-422.243 -95.271)" fill="#fff"/>
          <path id="Trazado_99252_-_Contorno" data-name="Trazado 99252 - Contorno" d="M440.194,94.771a1.113,1.113,0,1,1-1.141,1.113A1.129,1.129,0,0,1,440.194,94.771Z" transform="translate(-422.243 -95.271)" fill="#fff"/>
          <path id="Trazado_99253" data-name="Trazado 99253" d="M449.281,95.884a.642.642,0,1,1-.641-.613A.627.627,0,0,1,449.281,95.884Z" transform="translate(-424.919 -95.271)" fill="#fff"/>
          <path id="Trazado_99253_-_Contorno" data-name="Trazado 99253 - Contorno" d="M448.64,94.771a1.113,1.113,0,1,1-1.141,1.113A1.128,1.128,0,0,1,448.64,94.771Z" transform="translate(-424.919 -95.271)" fill="#fff"/>
          <ellipse id="Elipse_3972" data-name="Elipse 3972" cx="0.641" cy="0.613" rx="0.641" ry="0.613" transform="translate(28.85)" fill="#fff"/>
          <path id="Elipse_3972_-_Contorno" data-name="Elipse 3972 - Contorno" d="M.641-.5A1.129,1.129,0,0,1,1.782.613,1.129,1.129,0,0,1,.641,1.726,1.129,1.129,0,0,1-.5.613,1.129,1.129,0,0,1,.641-.5Z" transform="translate(28.85)" fill="#fff"/>
          <path id="Trazado_99254" data-name="Trazado 99254" d="M466.174,95.884a.642.642,0,1,1-.641-.613A.628.628,0,0,1,466.174,95.884Z" transform="translate(-430.272 -95.271)" fill="#fff"/>
          <path id="Trazado_99254_-_Contorno" data-name="Trazado 99254 - Contorno" d="M465.533,94.771a1.113,1.113,0,1,1-1.141,1.113A1.129,1.129,0,0,1,465.533,94.771Z" transform="translate(-430.272 -95.271)" fill="#fff"/>
          <ellipse id="Elipse_3973" data-name="Elipse 3973" cx="0.641" cy="0.613" rx="0.641" ry="0.613" transform="translate(40.39)" fill="#fff"/>
          <path id="Elipse_3973_-_Contorno" data-name="Elipse 3973 - Contorno" d="M.641-.5A1.129,1.129,0,0,1,1.782.613,1.129,1.129,0,0,1,.641,1.726,1.129,1.129,0,0,1-.5.613,1.129,1.129,0,0,1,.641-.5Z" transform="translate(40.39)" fill="#fff"/>
          <ellipse id="Elipse_3974" data-name="Elipse 3974" cx="0.641" cy="0.613" rx="0.641" ry="0.613" transform="translate(46.16)" fill="#fff"/>
          <path id="Elipse_3974_-_Contorno" data-name="Elipse 3974 - Contorno" d="M.641-.5A1.129,1.129,0,0,1,1.782.613,1.129,1.129,0,0,1,.641,1.726,1.129,1.129,0,0,1-.5.613,1.129,1.129,0,0,1,.641-.5Z" transform="translate(46.16)" fill="#fff"/>
          <path id="Trazado_99255" data-name="Trazado 99255" d="M491.513,95.884a.642.642,0,1,1-.641-.613A.628.628,0,0,1,491.513,95.884Z" transform="translate(-438.3 -95.271)" fill="#fff"/>
          <path id="Trazado_99255_-_Contorno" data-name="Trazado 99255 - Contorno" d="M490.872,94.771a1.113,1.113,0,1,1-1.141,1.113A1.129,1.129,0,0,1,490.872,94.771Z" transform="translate(-438.3 -95.271)" fill="#fff"/>
          <path id="Trazado_99256" data-name="Trazado 99256" d="M499.959,95.884a.642.642,0,1,1-.641-.613A.628.628,0,0,1,499.959,95.884Z" transform="translate(-440.977 -95.271)" fill="#fff"/>
          <path id="Trazado_99256_-_Contorno" data-name="Trazado 99256 - Contorno" d="M499.318,94.771a1.113,1.113,0,1,1-1.141,1.113A1.129,1.129,0,0,1,499.318,94.771Z" transform="translate(-440.977 -95.271)" fill="#fff"/>
        </g>
        <g id="Grupo_53313" data-name="Grupo 53313" transform="translate(0 34.334)">
          <path id="Trazado_99257" data-name="Trazado 99257" d="M415.5,103.392a.642.642,0,1,1-.642-.613A.628.628,0,0,1,415.5,103.392Z" transform="translate(-414.214 -102.779)" fill="#fff"/>
          <path id="Trazado_99257_-_Contorno" data-name="Trazado 99257 - Contorno" d="M414.855,102.279a1.113,1.113,0,1,1-1.141,1.113A1.129,1.129,0,0,1,414.855,102.279Z" transform="translate(-414.214 -102.779)" fill="#fff"/>
          <path id="Trazado_99258" data-name="Trazado 99258" d="M423.942,103.392a.642.642,0,1,1-.641-.613A.627.627,0,0,1,423.942,103.392Z" transform="translate(-416.89 -102.779)" fill="#fff"/>
          <path id="Trazado_99258_-_Contorno" data-name="Trazado 99258 - Contorno" d="M423.3,102.279a1.113,1.113,0,1,1-1.141,1.113A1.128,1.128,0,0,1,423.3,102.279Z" transform="translate(-416.89 -102.779)" fill="#fff"/>
          <path id="Trazado_99259" data-name="Trazado 99259" d="M432.388,103.392a.642.642,0,1,1-.641-.613A.627.627,0,0,1,432.388,103.392Z" transform="translate(-419.566 -102.779)" fill="#fff"/>
          <path id="Trazado_99259_-_Contorno" data-name="Trazado 99259 - Contorno" d="M431.747,102.279a1.113,1.113,0,1,1-1.142,1.113A1.128,1.128,0,0,1,431.747,102.279Z" transform="translate(-419.566 -102.779)" fill="#fff"/>
          <path id="Trazado_99260" data-name="Trazado 99260" d="M440.835,103.392a.642.642,0,1,1-.641-.613A.628.628,0,0,1,440.835,103.392Z" transform="translate(-422.243 -102.779)" fill="#fff"/>
          <path id="Trazado_99260_-_Contorno" data-name="Trazado 99260 - Contorno" d="M440.194,102.279a1.113,1.113,0,1,1-1.141,1.113A1.129,1.129,0,0,1,440.194,102.279Z" transform="translate(-422.243 -102.779)" fill="#fff"/>
          <path id="Trazado_99261" data-name="Trazado 99261" d="M449.281,103.392a.642.642,0,1,1-.641-.613A.627.627,0,0,1,449.281,103.392Z" transform="translate(-424.919 -102.779)" fill="#fff"/>
          <path id="Trazado_99261_-_Contorno" data-name="Trazado 99261 - Contorno" d="M448.64,102.279a1.113,1.113,0,1,1-1.141,1.113A1.128,1.128,0,0,1,448.64,102.279Z" transform="translate(-424.919 -102.779)" fill="#fff"/>
          <path id="Trazado_99262" data-name="Trazado 99262" d="M457.727,103.392a.642.642,0,1,1-.641-.613A.627.627,0,0,1,457.727,103.392Z" transform="translate(-427.595 -102.779)" fill="#fff"/>
          <path id="Trazado_99262_-_Contorno" data-name="Trazado 99262 - Contorno" d="M457.086,102.279a1.113,1.113,0,1,1-1.141,1.113A1.128,1.128,0,0,1,457.086,102.279Z" transform="translate(-427.595 -102.779)" fill="#fff"/>
          <path id="Trazado_99263" data-name="Trazado 99263" d="M466.174,103.392a.642.642,0,1,1-.641-.613A.628.628,0,0,1,466.174,103.392Z" transform="translate(-430.272 -102.779)" fill="#fff"/>
          <path id="Trazado_99263_-_Contorno" data-name="Trazado 99263 - Contorno" d="M465.533,102.279a1.113,1.113,0,1,1-1.141,1.113A1.129,1.129,0,0,1,465.533,102.279Z" transform="translate(-430.272 -102.779)" fill="#fff"/>
          <path id="Trazado_99264" data-name="Trazado 99264" d="M474.62,103.392a.642.642,0,1,1-.641-.613A.627.627,0,0,1,474.62,103.392Z" transform="translate(-432.948 -102.779)" fill="#fff"/>
          <path id="Trazado_99264_-_Contorno" data-name="Trazado 99264 - Contorno" d="M473.98,102.279a1.113,1.113,0,1,1-1.141,1.113A1.128,1.128,0,0,1,473.98,102.279Z" transform="translate(-432.948 -102.779)" fill="#fff"/>
          <path id="Trazado_99265" data-name="Trazado 99265" d="M483.066,103.392a.642.642,0,1,1-.641-.613A.627.627,0,0,1,483.066,103.392Z" transform="translate(-435.624 -102.779)" fill="#fff"/>
          <path id="Trazado_99265_-_Contorno" data-name="Trazado 99265 - Contorno" d="M482.425,102.279a1.113,1.113,0,1,1-1.142,1.113A1.128,1.128,0,0,1,482.425,102.279Z" transform="translate(-435.624 -102.779)" fill="#fff"/>
          <path id="Trazado_99266" data-name="Trazado 99266" d="M491.513,103.392a.642.642,0,1,1-.641-.613A.628.628,0,0,1,491.513,103.392Z" transform="translate(-438.301 -102.779)" fill="#fff"/>
          <path id="Trazado_99266_-_Contorno" data-name="Trazado 99266 - Contorno" d="M490.872,102.279a1.113,1.113,0,1,1-1.141,1.113A1.129,1.129,0,0,1,490.872,102.279Z" transform="translate(-438.301 -102.779)" fill="#fff"/>
          <path id="Trazado_99267" data-name="Trazado 99267" d="M499.959,103.392a.642.642,0,1,1-.641-.613A.628.628,0,0,1,499.959,103.392Z" transform="translate(-440.977 -102.779)" fill="#fff"/>
          <path id="Trazado_99267_-_Contorno" data-name="Trazado 99267 - Contorno" d="M499.318,102.279a1.113,1.113,0,1,1-1.141,1.113A1.129,1.129,0,0,1,499.318,102.279Z" transform="translate(-440.977 -102.779)" fill="#fff"/>
        </g>
        <g id="Grupo_53314" data-name="Grupo 53314" transform="translate(0 39.239)">
          <ellipse id="Elipse_3975" data-name="Elipse 3975" cx="0.641" cy="0.613" rx="0.641" ry="0.613" fill="#fff"/>
          <path id="Elipse_3975_-_Contorno" data-name="Elipse 3975 - Contorno" d="M.641-.5A1.129,1.129,0,0,1,1.782.613,1.129,1.129,0,0,1,.641,1.726,1.129,1.129,0,0,1-.5.613,1.129,1.129,0,0,1,.641-.5Z" fill="#fff"/>
          <path id="Trazado_99268" data-name="Trazado 99268" d="M423.942,110.9a.642.642,0,1,1-.641-.613A.628.628,0,0,1,423.942,110.9Z" transform="translate(-416.89 -110.287)" fill="#fff"/>
          <path id="Trazado_99268_-_Contorno" data-name="Trazado 99268 - Contorno" d="M423.3,109.787a1.113,1.113,0,1,1-1.141,1.113A1.128,1.128,0,0,1,423.3,109.787Z" transform="translate(-416.89 -110.287)" fill="#fff"/>
          <ellipse id="Elipse_3976" data-name="Elipse 3976" cx="0.641" cy="0.613" rx="0.641" ry="0.613" transform="translate(11.54)" fill="#fff"/>
          <path id="Elipse_3976_-_Contorno" data-name="Elipse 3976 - Contorno" d="M.641-.5A1.129,1.129,0,0,1,1.782.613,1.129,1.129,0,0,1,.641,1.726,1.129,1.129,0,0,1-.5.613,1.129,1.129,0,0,1,.641-.5Z" transform="translate(11.54)" fill="#fff"/>
          <path id="Trazado_99269" data-name="Trazado 99269" d="M440.835,110.9a.642.642,0,1,1-.641-.613A.628.628,0,0,1,440.835,110.9Z" transform="translate(-422.243 -110.287)" fill="#fff"/>
          <path id="Trazado_99269_-_Contorno" data-name="Trazado 99269 - Contorno" d="M440.194,109.787a1.113,1.113,0,1,1-1.141,1.113A1.129,1.129,0,0,1,440.194,109.787Z" transform="translate(-422.243 -110.287)" fill="#fff"/>
          <path id="Trazado_99270" data-name="Trazado 99270" d="M449.281,110.9a.642.642,0,1,1-.641-.613A.628.628,0,0,1,449.281,110.9Z" transform="translate(-424.919 -110.287)" fill="#fff"/>
          <path id="Trazado_99270_-_Contorno" data-name="Trazado 99270 - Contorno" d="M448.64,109.787A1.113,1.113,0,1,1,447.5,110.9,1.128,1.128,0,0,1,448.64,109.787Z" transform="translate(-424.919 -110.287)" fill="#fff"/>
          <ellipse id="Elipse_3977" data-name="Elipse 3977" cx="0.641" cy="0.613" rx="0.641" ry="0.613" transform="translate(28.85)" fill="#fff"/>
          <path id="Elipse_3977_-_Contorno" data-name="Elipse 3977 - Contorno" d="M.641-.5A1.129,1.129,0,0,1,1.782.613,1.129,1.129,0,0,1,.641,1.726,1.129,1.129,0,0,1-.5.613,1.129,1.129,0,0,1,.641-.5Z" transform="translate(28.85)" fill="#fff"/>
          <path id="Trazado_99271" data-name="Trazado 99271" d="M466.174,110.9a.642.642,0,1,1-.641-.613A.628.628,0,0,1,466.174,110.9Z" transform="translate(-430.272 -110.287)" fill="#fff"/>
          <path id="Trazado_99271_-_Contorno" data-name="Trazado 99271 - Contorno" d="M465.533,109.787a1.113,1.113,0,1,1-1.141,1.113A1.129,1.129,0,0,1,465.533,109.787Z" transform="translate(-430.272 -110.287)" fill="#fff"/>
          <ellipse id="Elipse_3978" data-name="Elipse 3978" cx="0.641" cy="0.613" rx="0.641" ry="0.613" transform="translate(40.39)" fill="#fff"/>
          <path id="Elipse_3978_-_Contorno" data-name="Elipse 3978 - Contorno" d="M.641-.5A1.129,1.129,0,0,1,1.782.613,1.129,1.129,0,0,1,.641,1.726,1.129,1.129,0,0,1-.5.613,1.129,1.129,0,0,1,.641-.5Z" transform="translate(40.39)" fill="#fff"/>
          <ellipse id="Elipse_3979" data-name="Elipse 3979" cx="0.641" cy="0.613" rx="0.641" ry="0.613" transform="translate(46.16)" fill="#fff"/>
          <path id="Elipse_3979_-_Contorno" data-name="Elipse 3979 - Contorno" d="M.641-.5A1.129,1.129,0,0,1,1.782.613,1.129,1.129,0,0,1,.641,1.726,1.129,1.129,0,0,1-.5.613,1.129,1.129,0,0,1,.641-.5Z" transform="translate(46.16)" fill="#fff"/>
          <path id="Trazado_99272" data-name="Trazado 99272" d="M491.513,110.9a.642.642,0,1,1-.641-.613A.628.628,0,0,1,491.513,110.9Z" transform="translate(-438.3 -110.287)" fill="#fff"/>
          <path id="Trazado_99272_-_Contorno" data-name="Trazado 99272 - Contorno" d="M490.872,109.787a1.113,1.113,0,1,1-1.141,1.113A1.129,1.129,0,0,1,490.872,109.787Z" transform="translate(-438.3 -110.287)" fill="#fff"/>
          <path id="Trazado_99273" data-name="Trazado 99273" d="M499.959,110.9a.642.642,0,1,1-.641-.613A.628.628,0,0,1,499.959,110.9Z" transform="translate(-440.977 -110.287)" fill="#fff"/>
          <path id="Trazado_99273_-_Contorno" data-name="Trazado 99273 - Contorno" d="M499.318,109.787a1.113,1.113,0,1,1-1.141,1.113A1.129,1.129,0,0,1,499.318,109.787Z" transform="translate(-440.977 -110.287)" fill="#fff"/>
        </g>
        <g id="Grupo_53315" data-name="Grupo 53315" transform="translate(0 44.144)">
          <path id="Trazado_99274" data-name="Trazado 99274" d="M415.5,118.407a.642.642,0,1,1-.642-.613A.628.628,0,0,1,415.5,118.407Z" transform="translate(-414.214 -117.794)" fill="#fff"/>
          <path id="Trazado_99274_-_Contorno" data-name="Trazado 99274 - Contorno" d="M414.855,119.521A1.114,1.114,0,1,1,416,118.407,1.129,1.129,0,0,1,414.855,119.521Z" transform="translate(-414.214 -117.794)" fill="#fff"/>
          <path id="Trazado_99275" data-name="Trazado 99275" d="M423.942,118.407a.642.642,0,1,1-.641-.613A.628.628,0,0,1,423.942,118.407Z" transform="translate(-416.89 -117.794)" fill="#fff"/>
          <path id="Trazado_99275_-_Contorno" data-name="Trazado 99275 - Contorno" d="M423.3,119.521a1.114,1.114,0,1,1,1.141-1.113A1.129,1.129,0,0,1,423.3,119.521Z" transform="translate(-416.89 -117.794)" fill="#fff"/>
          <path id="Trazado_99276" data-name="Trazado 99276" d="M432.388,118.407a.642.642,0,1,1-.641-.613A.628.628,0,0,1,432.388,118.407Z" transform="translate(-419.566 -117.794)" fill="#fff"/>
          <path id="Trazado_99276_-_Contorno" data-name="Trazado 99276 - Contorno" d="M431.747,119.521a1.114,1.114,0,1,1,1.141-1.113A1.129,1.129,0,0,1,431.747,119.521Z" transform="translate(-419.566 -117.794)" fill="#fff"/>
          <path id="Trazado_99277" data-name="Trazado 99277" d="M440.835,118.407a.642.642,0,1,1-.641-.613A.628.628,0,0,1,440.835,118.407Z" transform="translate(-422.243 -117.794)" fill="#fff"/>
          <path id="Trazado_99277_-_Contorno" data-name="Trazado 99277 - Contorno" d="M440.194,119.521a1.114,1.114,0,1,1,1.141-1.113A1.129,1.129,0,0,1,440.194,119.521Z" transform="translate(-422.243 -117.794)" fill="#fff"/>
          <path id="Trazado_99278" data-name="Trazado 99278" d="M449.281,118.407a.642.642,0,1,1-.641-.613A.628.628,0,0,1,449.281,118.407Z" transform="translate(-424.919 -117.794)" fill="#fff"/>
          <path id="Trazado_99278_-_Contorno" data-name="Trazado 99278 - Contorno" d="M448.64,119.521a1.114,1.114,0,1,1,1.141-1.113A1.129,1.129,0,0,1,448.64,119.521Z" transform="translate(-424.919 -117.794)" fill="#fff"/>
          <path id="Trazado_99279" data-name="Trazado 99279" d="M457.727,118.407a.642.642,0,1,1-.641-.613A.628.628,0,0,1,457.727,118.407Z" transform="translate(-427.595 -117.794)" fill="#fff"/>
          <path id="Trazado_99279_-_Contorno" data-name="Trazado 99279 - Contorno" d="M457.086,119.521a1.114,1.114,0,1,1,1.141-1.113A1.129,1.129,0,0,1,457.086,119.521Z" transform="translate(-427.595 -117.794)" fill="#fff"/>
          <path id="Trazado_99280" data-name="Trazado 99280" d="M466.174,118.407a.642.642,0,1,1-.641-.613A.628.628,0,0,1,466.174,118.407Z" transform="translate(-430.272 -117.794)" fill="#fff"/>
          <path id="Trazado_99280_-_Contorno" data-name="Trazado 99280 - Contorno" d="M465.533,119.521a1.114,1.114,0,1,1,1.141-1.113A1.129,1.129,0,0,1,465.533,119.521Z" transform="translate(-430.272 -117.794)" fill="#fff"/>
          <path id="Trazado_99281" data-name="Trazado 99281" d="M474.62,118.407a.642.642,0,1,1-.641-.613A.628.628,0,0,1,474.62,118.407Z" transform="translate(-432.948 -117.794)" fill="#fff"/>
          <path id="Trazado_99281_-_Contorno" data-name="Trazado 99281 - Contorno" d="M473.98,119.521a1.114,1.114,0,1,1,1.141-1.113A1.129,1.129,0,0,1,473.98,119.521Z" transform="translate(-432.948 -117.794)" fill="#fff"/>
          <path id="Trazado_99282" data-name="Trazado 99282" d="M483.066,118.407a.642.642,0,1,1-.641-.613A.628.628,0,0,1,483.066,118.407Z" transform="translate(-435.624 -117.794)" fill="#fff"/>
          <path id="Trazado_99282_-_Contorno" data-name="Trazado 99282 - Contorno" d="M482.425,119.521a1.114,1.114,0,1,1,1.141-1.113A1.129,1.129,0,0,1,482.425,119.521Z" transform="translate(-435.624 -117.794)" fill="#fff"/>
          <path id="Trazado_99283" data-name="Trazado 99283" d="M491.513,118.407a.642.642,0,1,1-.641-.613A.628.628,0,0,1,491.513,118.407Z" transform="translate(-438.301 -117.794)" fill="#fff"/>
          <path id="Trazado_99283_-_Contorno" data-name="Trazado 99283 - Contorno" d="M490.872,119.521a1.114,1.114,0,1,1,1.141-1.113A1.129,1.129,0,0,1,490.872,119.521Z" transform="translate(-438.301 -117.794)" fill="#fff"/>
          <path id="Trazado_99284" data-name="Trazado 99284" d="M499.959,118.407a.642.642,0,1,1-.641-.613A.628.628,0,0,1,499.959,118.407Z" transform="translate(-440.977 -117.794)" fill="#fff"/>
          <path id="Trazado_99284_-_Contorno" data-name="Trazado 99284 - Contorno" d="M499.318,119.521a1.114,1.114,0,1,1,1.141-1.113A1.129,1.129,0,0,1,499.318,119.521Z" transform="translate(-440.977 -117.794)" fill="#fff"/>
        </g>
        <g id="Grupo_53316" data-name="Grupo 53316" transform="translate(0 49.049)">
          <ellipse id="Elipse_3980" data-name="Elipse 3980" cx="0.641" cy="0.613" rx="0.641" ry="0.613" transform="translate(0 0)" fill="#fff"/>
          <path id="Elipse_3980_-_Contorno" data-name="Elipse 3980 - Contorno" d="M.641-.5A1.129,1.129,0,0,1,1.782.613,1.129,1.129,0,0,1,.641,1.726,1.129,1.129,0,0,1-.5.613,1.129,1.129,0,0,1,.641-.5Z" transform="translate(0 0)" fill="#fff"/>
          <path id="Trazado_99285" data-name="Trazado 99285" d="M423.942,125.915a.642.642,0,1,1-.641-.613A.627.627,0,0,1,423.942,125.915Z" transform="translate(-416.89 -125.302)" fill="#fff"/>
          <path id="Trazado_99285_-_Contorno" data-name="Trazado 99285 - Contorno" d="M423.3,127.028a1.113,1.113,0,1,1,1.141-1.113A1.129,1.129,0,0,1,423.3,127.028Z" transform="translate(-416.89 -125.302)" fill="#fff"/>
          <ellipse id="Elipse_3981" data-name="Elipse 3981" cx="0.641" cy="0.613" rx="0.641" ry="0.613" transform="translate(11.54 0)" fill="#fff"/>
          <path id="Elipse_3981_-_Contorno" data-name="Elipse 3981 - Contorno" d="M.641-.5A1.129,1.129,0,0,1,1.782.613,1.129,1.129,0,0,1,.641,1.726,1.129,1.129,0,0,1-.5.613,1.129,1.129,0,0,1,.641-.5Z" transform="translate(11.54 0)" fill="#fff"/>
          <path id="Trazado_99286" data-name="Trazado 99286" d="M440.835,125.915a.642.642,0,1,1-.641-.613A.628.628,0,0,1,440.835,125.915Z" transform="translate(-422.243 -125.302)" fill="#fff"/>
          <path id="Trazado_99286_-_Contorno" data-name="Trazado 99286 - Contorno" d="M440.194,127.028a1.113,1.113,0,1,1,1.141-1.113A1.128,1.128,0,0,1,440.194,127.028Z" transform="translate(-422.243 -125.302)" fill="#fff"/>
          <path id="Trazado_99287" data-name="Trazado 99287" d="M449.281,125.915a.642.642,0,1,1-.641-.613A.627.627,0,0,1,449.281,125.915Z" transform="translate(-424.919 -125.302)" fill="#fff"/>
          <path id="Trazado_99287_-_Contorno" data-name="Trazado 99287 - Contorno" d="M448.64,127.028a1.113,1.113,0,1,1,1.141-1.113A1.129,1.129,0,0,1,448.64,127.028Z" transform="translate(-424.919 -125.302)" fill="#fff"/>
          <ellipse id="Elipse_3982" data-name="Elipse 3982" cx="0.641" cy="0.613" rx="0.641" ry="0.613" transform="translate(28.85 0)" fill="#fff"/>
          <path id="Elipse_3982_-_Contorno" data-name="Elipse 3982 - Contorno" d="M.641-.5A1.129,1.129,0,0,1,1.782.613,1.129,1.129,0,0,1,.641,1.726,1.129,1.129,0,0,1-.5.613,1.129,1.129,0,0,1,.641-.5Z" transform="translate(28.85 0)" fill="#fff"/>
          <path id="Trazado_99288" data-name="Trazado 99288" d="M466.174,125.915a.642.642,0,1,1-.641-.613A.628.628,0,0,1,466.174,125.915Z" transform="translate(-430.272 -125.302)" fill="#fff"/>
          <path id="Trazado_99288_-_Contorno" data-name="Trazado 99288 - Contorno" d="M465.533,127.028a1.113,1.113,0,1,1,1.141-1.113A1.128,1.128,0,0,1,465.533,127.028Z" transform="translate(-430.272 -125.302)" fill="#fff"/>
          <ellipse id="Elipse_3983" data-name="Elipse 3983" cx="0.641" cy="0.613" rx="0.641" ry="0.613" transform="translate(40.39 0)" fill="#fff"/>
          <path id="Elipse_3983_-_Contorno" data-name="Elipse 3983 - Contorno" d="M.641-.5A1.129,1.129,0,0,1,1.782.613,1.129,1.129,0,0,1,.641,1.726,1.129,1.129,0,0,1-.5.613,1.129,1.129,0,0,1,.641-.5Z" transform="translate(40.39 0)" fill="#fff"/>
          <ellipse id="Elipse_3984" data-name="Elipse 3984" cx="0.641" cy="0.613" rx="0.641" ry="0.613" transform="translate(46.16 0)" fill="#fff"/>
          <path id="Elipse_3984_-_Contorno" data-name="Elipse 3984 - Contorno" d="M.641-.5A1.129,1.129,0,0,1,1.782.613,1.129,1.129,0,0,1,.641,1.726,1.129,1.129,0,0,1-.5.613,1.129,1.129,0,0,1,.641-.5Z" transform="translate(46.16 0)" fill="#fff"/>
          <path id="Trazado_99289" data-name="Trazado 99289" d="M491.513,125.915a.642.642,0,1,1-.641-.613A.628.628,0,0,1,491.513,125.915Z" transform="translate(-438.3 -125.302)" fill="#fff"/>
          <path id="Trazado_99289_-_Contorno" data-name="Trazado 99289 - Contorno" d="M490.872,127.028a1.113,1.113,0,1,1,1.141-1.113A1.128,1.128,0,0,1,490.872,127.028Z" transform="translate(-438.3 -125.302)" fill="#fff"/>
          <path id="Trazado_99290" data-name="Trazado 99290" d="M499.959,125.915a.642.642,0,1,1-.641-.613A.627.627,0,0,1,499.959,125.915Z" transform="translate(-440.977 -125.302)" fill="#fff"/>
          <path id="Trazado_99290_-_Contorno" data-name="Trazado 99290 - Contorno" d="M499.318,127.028a1.113,1.113,0,1,1,1.141-1.113A1.128,1.128,0,0,1,499.318,127.028Z" transform="translate(-440.977 -125.302)" fill="#fff"/>
        </g>
        <g id="Grupo_53317" data-name="Grupo 53317" transform="translate(0 53.954)">
          <ellipse id="Elipse_3985" data-name="Elipse 3985" cx="0.641" cy="0.613" rx="0.641" ry="0.613" transform="translate(0 0)" fill="#fff"/>
          <path id="Elipse_3985_-_Contorno" data-name="Elipse 3985 - Contorno" d="M.641-.5A1.129,1.129,0,0,1,1.782.613,1.129,1.129,0,0,1,.641,1.726,1.129,1.129,0,0,1-.5.613,1.129,1.129,0,0,1,.641-.5Z" transform="translate(0 0)" fill="#fff"/>
          <path id="Trazado_99291" data-name="Trazado 99291" d="M423.942,133.423a.642.642,0,1,1-.641-.613A.627.627,0,0,1,423.942,133.423Z" transform="translate(-416.89 -132.81)" fill="#fff"/>
          <path id="Trazado_99291_-_Contorno" data-name="Trazado 99291 - Contorno" d="M423.3,134.536a1.113,1.113,0,1,1,1.141-1.113A1.129,1.129,0,0,1,423.3,134.536Z" transform="translate(-416.89 -132.81)" fill="#fff"/>
          <ellipse id="Elipse_3986" data-name="Elipse 3986" cx="0.641" cy="0.613" rx="0.641" ry="0.613" transform="translate(11.54 0)" fill="#fff"/>
          <path id="Elipse_3986_-_Contorno" data-name="Elipse 3986 - Contorno" d="M.641-.5A1.129,1.129,0,0,1,1.782.613,1.129,1.129,0,0,1,.641,1.726,1.129,1.129,0,0,1-.5.613,1.129,1.129,0,0,1,.641-.5Z" transform="translate(11.54 0)" fill="#fff"/>
          <path id="Trazado_99292" data-name="Trazado 99292" d="M440.835,133.423a.642.642,0,1,1-.641-.613A.627.627,0,0,1,440.835,133.423Z" transform="translate(-422.243 -132.81)" fill="#fff"/>
          <path id="Trazado_99292_-_Contorno" data-name="Trazado 99292 - Contorno" d="M440.194,134.536a1.113,1.113,0,1,1,1.141-1.113A1.128,1.128,0,0,1,440.194,134.536Z" transform="translate(-422.243 -132.81)" fill="#fff"/>
          <path id="Trazado_99293" data-name="Trazado 99293" d="M449.281,133.423a.642.642,0,1,1-.641-.613A.627.627,0,0,1,449.281,133.423Z" transform="translate(-424.919 -132.81)" fill="#fff"/>
          <path id="Trazado_99293_-_Contorno" data-name="Trazado 99293 - Contorno" d="M448.64,134.536a1.113,1.113,0,1,1,1.141-1.113A1.129,1.129,0,0,1,448.64,134.536Z" transform="translate(-424.919 -132.81)" fill="#fff"/>
          <ellipse id="Elipse_3987" data-name="Elipse 3987" cx="0.641" cy="0.613" rx="0.641" ry="0.613" transform="translate(28.85 0)" fill="#fff"/>
          <path id="Elipse_3987_-_Contorno" data-name="Elipse 3987 - Contorno" d="M.641-.5A1.129,1.129,0,0,1,1.782.613,1.129,1.129,0,0,1,.641,1.726,1.129,1.129,0,0,1-.5.613,1.129,1.129,0,0,1,.641-.5Z" transform="translate(28.85 0)" fill="#fff"/>
          <path id="Trazado_99294" data-name="Trazado 99294" d="M466.174,133.423a.642.642,0,1,1-.641-.613A.628.628,0,0,1,466.174,133.423Z" transform="translate(-430.272 -132.81)" fill="#fff"/>
          <path id="Trazado_99294_-_Contorno" data-name="Trazado 99294 - Contorno" d="M465.533,134.536a1.113,1.113,0,1,1,1.141-1.113A1.128,1.128,0,0,1,465.533,134.536Z" transform="translate(-430.272 -132.81)" fill="#fff"/>
          <ellipse id="Elipse_3988" data-name="Elipse 3988" cx="0.641" cy="0.613" rx="0.641" ry="0.613" transform="translate(40.39 0)" fill="#fff"/>
          <path id="Elipse_3988_-_Contorno" data-name="Elipse 3988 - Contorno" d="M.641-.5A1.129,1.129,0,0,1,1.782.613,1.129,1.129,0,0,1,.641,1.726,1.129,1.129,0,0,1-.5.613,1.129,1.129,0,0,1,.641-.5Z" transform="translate(40.39 0)" fill="#fff"/>
          <ellipse id="Elipse_3989" data-name="Elipse 3989" cx="0.641" cy="0.613" rx="0.641" ry="0.613" transform="translate(46.16 0)" fill="#fff"/>
          <path id="Elipse_3989_-_Contorno" data-name="Elipse 3989 - Contorno" d="M.641-.5A1.129,1.129,0,0,1,1.782.613,1.129,1.129,0,0,1,.641,1.726,1.129,1.129,0,0,1-.5.613,1.129,1.129,0,0,1,.641-.5Z" transform="translate(46.16 0)" fill="#fff"/>
          <path id="Trazado_99295" data-name="Trazado 99295" d="M491.513,133.423a.642.642,0,1,1-.641-.613A.628.628,0,0,1,491.513,133.423Z" transform="translate(-438.3 -132.81)" fill="#fff"/>
          <path id="Trazado_99295_-_Contorno" data-name="Trazado 99295 - Contorno" d="M490.872,134.536a1.113,1.113,0,1,1,1.141-1.113A1.128,1.128,0,0,1,490.872,134.536Z" transform="translate(-438.3 -132.81)" fill="#fff"/>
          <path id="Trazado_99296" data-name="Trazado 99296" d="M499.959,133.423a.642.642,0,1,1-.641-.613A.627.627,0,0,1,499.959,133.423Z" transform="translate(-440.977 -132.81)" fill="#fff"/>
          <path id="Trazado_99296_-_Contorno" data-name="Trazado 99296 - Contorno" d="M499.318,134.536a1.113,1.113,0,1,1,1.141-1.113A1.128,1.128,0,0,1,499.318,134.536Z" transform="translate(-440.977 -132.81)" fill="#fff"/>
        </g>
      </g>
      <path id="Línea_138" data-name="Línea 138" d="M-.452,101.43l0-5.43h1l0,5.43ZM-.458,88l0-8h1l0,8ZM-.466,72l0-8h1l0,8ZM-.474,56l0-8h1l0,8ZM-.481,40l0-8h1l0,8ZM-.489,24l0-8h1l0,8ZM-.5,8l0-8h1l0,8Z" transform="translate(861.5 947.5)" fill="#3c6d9d"/>
    </g>
    <g id="Grupo_134095" data-name="Grupo 134095" transform="translate(-1979.245 936.058)">
      <path id="Trazado_147281" data-name="Trazado 147281" d="M2937.245,136.439a36.213,36.213,0,0,1,1.154-3.8,13.232,13.232,0,0,1,9.392-7.912c1.884-.489,3.783-.928,5.683-1.357.528-.119.705-.335.748-.9a2.9,2.9,0,0,0-1.292-2.846,11.294,11.294,0,0,1-4.626-8.473,59.935,59.935,0,0,1,.116-10.7c.622-5.077,3.711-8.55,8.538-10.176s9.224-.531,13,2.916a5.544,5.544,0,0,1,.586.787c3.417-8.588,9.422-13.172,18.606-12.29,7.339.7,12.036,5.157,14.589,12.094.213-.182.427-.356.632-.542,4.09-3.726,8.794-4.749,13.89-2.639,5.06,2.095,7.69,6.126,7.935,11.6.114,2.531.071,5.074.01,7.609a12.655,12.655,0,0,1-5.361,10.332,3.339,3.339,0,0,0-.591,2.912,1.26,1.26,0,0,0,.681.3c1.892.464,3.791.9,5.68,1.37a13.628,13.628,0,0,1,10.522,13.414c.017,4.13.007,8.26,0,12.39,0,1.784-.7,2.491-2.48,2.493q-6.974.009-13.949,0h-1.147c0,1.709,0,3.326,0,4.942,0,2.292-.581,2.864-2.905,2.864h-20.387c-.26,0-.521.01-.781-.006a2,2,0,0,1-2.039-1.941,1.959,1.959,0,0,1,2.031-1.941c2.016-.04,4.032-.014,6.048-.015h3.414c0-1.818,0-3.562,0-5.307,0-1.008-.017-2.016,0-3.024a1.957,1.957,0,1,1,3.889-.022c.025,2.731.008,5.462.008,8.273h6.8q0-2.509,0-5.03c0-1.063.016-2.126.014-3.188a14.2,14.2,0,0,0-11.2-14.4c-2.832-.716-5.678-1.375-8.52-2.055-.247-.059-.5-.087-.82-.14-1.213,2.752-2.416,5.479-3.617,8.207-.772,1.753-1.558,3.5-2.308,5.262-.4.931-.929,1.67-2.043,1.655-1.063-.015-1.576-.724-1.967-1.62-1.842-4.226-3.709-8.441-5.569-12.66-.128-.29-.269-.575-.453-.967-3.808.984-7.644,1.745-11.32,2.981a13.832,13.832,0,0,0-9.128,12.857c-.045,3.019-.009,6.038-.009,9.119h6.828c0-2.453,0-4.882,0-7.311,0-.39-.02-.782.01-1.171a1.984,1.984,0,0,1,2-1.979,1.958,1.958,0,0,1,1.88,1.992c.042.909.013,1.821.014,2.732,0,1.884,0,3.768,0,5.8h1.069c2.406,0,4.812-.008,7.218,0,1.446.006,2.328.739,2.351,1.916.023,1.209-.885,1.98-2.383,1.981q-10.242.009-20.484,0c-1.7,0-2.4-.732-2.408-2.465s0-3.494,0-5.339h-1.235c-4.52,0-9.04-.027-13.558.019a2.768,2.768,0,0,1-2.763-1.385Zm36.713-32.172c0,1.8-.06,3.457.01,5.108.281,6.641,5.7,12.282,12.088,12.627,7.249.392,13.241-4.255,14.2-11.208a51.891,51.891,0,0,0,.177-6.907,1.174,1.174,0,0,0-.563-.777c-2.2-1.325-4.42-2.6-6.618-3.924a.84.84,0,0,0-1.185.121,18.5,18.5,0,0,1-13.34,4.964C2977.179,104.243,2975.625,104.266,2973.958,104.266Zm26.549-5.333c-.213-5.387-2.409-9.4-6.94-11.865a12.561,12.561,0,0,0-13.978.793c-4.271,2.979-5.921,7.276-5.616,12.488,1.981,0,3.89.04,5.8-.008a14.369,14.369,0,0,0,10.454-4.681c1.429-1.514,2-1.6,3.8-.541Zm32.714,50.149c0-3.91.117-7.716-.033-11.511a8.963,8.963,0,0,0-5.862-8.462,66.1,66.1,0,0,0-7.69-2.105c-1.333,3.182-2.623,6.226-3.86,9.291a1.29,1.29,0,0,0,.227,1.028,18.209,18.209,0,0,1,3.467,9.278c.072.826.1,1.656.152,2.442h5.815c0-2.745-.005-5.409,0-8.074,0-1.546.7-2.41,1.921-2.425,1.267-.016,1.973.858,1.978,2.467.005,2.08,0,4.16,0,6.24v1.831Zm-78.458-22.017c-2.078.493-4.043.922-5.987,1.427a9.693,9.693,0,0,0-7.626,9.878c-.011,3.118,0,6.238,0,9.357v1.325h3.9c0-1.237,0-2.4,0-3.571,0-1.657-.033-3.315.017-4.971a1.892,1.892,0,0,1,1.974-1.967,1.924,1.924,0,0,1,1.9,1.949c.033.452.011.909.011,1.364,0,2.394,0,4.787,0,7.2h5.788a2.205,2.205,0,0,0,.056-.342,18.44,18.44,0,0,1,3.671-11.567,1.051,1.051,0,0,0,.121-.867C2957.343,133.223,2956.062,130.177,2954.763,127.065Zm49.754-22.919a67.128,67.128,0,0,0,.045,6.866,8.21,8.21,0,0,0,5.387,6.964,8.5,8.5,0,0,0,8.833-1.176c3.24-2.46,3.819-5.908,3.461-9.824C3016.141,107.177,3010.081,107.083,3004.517,104.146ZM2952,106.969c.081,1.518.075,2.854.237,4.169a8.942,8.942,0,0,0,7,7.355,9.088,9.088,0,0,0,9.518-4.239c1.846-3.175,1.076-6.606,1.3-10.2C2964.295,107.084,2958.261,107.176,2952,106.969Zm17.591-7.069a8.889,8.889,0,0,0-17.405,3.123C2958.375,103.829,2965.158,102.622,2969.589,99.9Zm35.239,0c5.385,3.358,11.36,3.421,17.4,3.144.55-4.183-2.768-8.537-7.107-9.376A8.833,8.833,0,0,0,3004.827,99.9Zm-17.633,40.471c1.458-3.322,2.7-6.43,4.178-9.417.919-1.853.586-3.707.7-5.714a17.907,17.907,0,0,1-9.7.049,11.074,11.074,0,0,0,.923,6.354c1,1.885,1.756,3.9,2.621,5.859C2986.307,138.375,2986.7,139.252,2987.194,140.367Zm-19.313-17.238c3.507,1.065,7.188,1.354,10.526,3.264a15.539,15.539,0,0,1,.011-1.694,1.856,1.856,0,0,0-.905-1.838,32.625,32.625,0,0,1-3.622-3.361,22.766,22.766,0,0,1-1.877-2.614c-1.275,1.173-2.56,2.34-3.822,3.532a1.061,1.061,0,0,0-.3.655C2967.857,121.75,2967.881,122.431,2967.881,123.129Zm34.489-6.247c.064-.058-.028-.008-.072.07a17.615,17.615,0,0,1-5.924,6.34.822.822,0,0,0-.383.508c-.041.819-.018,1.641-.018,2.517a26.4,26.4,0,0,1,2.824-1.173c2.213-.63,4.457-1.152,6.681-1.747.362-.1.972-.349.972-.528,0-.831.107-1.9-.347-2.446A38.986,38.986,0,0,0,3002.37,116.882ZM2960.935,131.7l.306.01c.784-3.151,3.274-5.8,2.7-9.255h-5.767a8.193,8.193,0,0,0,.045,2.625C2959.008,127.324,2960.014,129.5,2960.935,131.7Zm49.528-9.246a7.49,7.49,0,0,0,.718,4.424c.766,1.576,1.38,3.226,2.06,4.845l.286-.006c.778-3.157,3.257-5.8,2.721-9.263Zm-10.67,6.377.008.193,9.062,2.369-1.826-4.347Zm-25.255.188.021-.2-7.228-1.767-1.806,4.322Z" transform="translate(0 -8.974)" fill="#fff"/>
      <path id="Trazado_147282" data-name="Trazado 147282" d="M3008.446,51.942c1.2.618,1.663,1.3,1.52,2.2a2,2,0,0,1-1.765,1.674,1.961,1.961,0,0,1-1.95-1.3,1.856,1.856,0,0,1,.741-2.205c.211-.144.448-.249.674-.372Z" transform="translate(-20.862)" fill="#fff"/>
      <path id="Trazado_147283" data-name="Trazado 147283" d="M3006.093,67.078c0-.81-.031-1.622.008-2.43a1.94,1.94,0,1,1,3.875,0q.064,2.476,0,4.957a1.9,1.9,0,0,1-1.937,2,1.939,1.939,0,0,1-1.946-2c0-.064,0-.13,0-.195q0-1.166,0-2.333Z" transform="translate(-20.845 -3.234)" fill="#fff"/>
      <path id="Trazado_147284" data-name="Trazado 147284" d="M3017.444,63.121a9.105,9.105,0,0,1,.9-1.584c.848-.937,1.753-1.825,2.672-2.694a1.931,1.931,0,0,1,2.934-.1,1.954,1.954,0,0,1-.2,2.86c-.922.957-1.865,1.9-2.837,2.8a1.641,1.641,0,0,1-2.144.288A8.025,8.025,0,0,1,3017.444,63.121Z" transform="translate(-24.287 -1.87)" fill="#fff"/>
      <path id="Trazado_147285" data-name="Trazado 147285" d="M2992.01,57.958a9.937,9.937,0,0,1,1.658.952c.895.8,1.732,1.666,2.56,2.538a1.947,1.947,0,1,1-2.708,2.78c-.944-.891-1.859-1.816-2.745-2.765a1.7,1.7,0,0,1-.332-2.147A7.654,7.654,0,0,1,2992.01,57.958Z" transform="translate(-16.033 -1.822)" fill="#fff"/>
      <path id="Trazado_147286" data-name="Trazado 147286" d="M3059.906,61.911a10.318,10.318,0,0,1-.08,1.064,1.9,1.9,0,0,1-1.755,1.547,1.81,1.81,0,0,1-1.938-1.413,6.736,6.736,0,0,1-.075-2.017,1.886,1.886,0,0,1,1.962-1.754,1.956,1.956,0,0,1,1.856,1.99c.012.193,0,.388,0,.583Z" transform="translate(-35.967 -2.239)" fill="#fff"/>
      <path id="Trazado_147287" data-name="Trazado 147287" d="M3059.874,75.5c0,1.9-.931,2.884-2.394,2.534-1.054-.252-1.521-1.053-1.509-2.591.011-1.419.536-2.25,1.56-2.472C3058.927,72.668,3059.871,73.687,3059.874,75.5Z" transform="translate(-35.953 -6.352)" fill="#fff"/>
      <path id="Trazado_147288" data-name="Trazado 147288" d="M2950.914,70.96c-1.676,0-2.581-.689-2.577-1.959,0-1.191.864-1.918,2.3-1.944,1.88-.033,2.813.573,2.865,1.862C2953.554,70.239,2952.639,70.96,2950.914,70.96Z" transform="translate(-3.359 -4.577)" fill="#fff"/>
      <path id="Trazado_147289" data-name="Trazado 147289" d="M2964.3,70.947a2.134,2.134,0,0,1-2.169-1.058,1.994,1.994,0,0,1-.211-.642,1.955,1.955,0,0,1,1.836-2.188c2.013-.239,3.289.476,3.345,1.877.046,1.15-.877,1.974-2.255,2.011C2964.683,70.951,2964.521,70.947,2964.3,70.947Z" transform="translate(-7.465 -4.564)" fill="#fff"/>
      <path id="Trazado_147290" data-name="Trazado 147290" d="M3050.867,70.961c-1.6,0-2.458-.6-2.549-1.775-.1-1.326.779-2.112,2.39-2.128,1.888-.018,2.819.683,2.747,2.066C3053.392,70.353,3052.533,70.962,3050.867,70.961Z" transform="translate(-33.634 -4.577)" fill="#fff"/>
      <path id="Trazado_147291" data-name="Trazado 147291" d="M3064.507,67c.383.05.865-.027,1.127.178a4,4,0,0,1,1.336,1.493,1.629,1.629,0,0,1-.875,1.964,3.867,3.867,0,0,1-3.527-.165,1.812,1.812,0,0,1-.561-2.188C3062.465,67.164,3063.436,66.988,3064.507,67Z" transform="translate(-37.734 -4.561)" fill="#fff"/>
      <path id="Trazado_147292" data-name="Trazado 147292" d="M2959.945,62c-.073.443-.012.986-.252,1.306a3.268,3.268,0,0,1-1.423,1.156,1.567,1.567,0,0,1-1.954-.886,3.456,3.456,0,0,1,.1-3.433,1.724,1.724,0,0,1,2.049-.7C2959.474,59.7,2959.89,60.459,2959.945,62Z" transform="translate(-5.653 -2.245)" fill="#fff"/>
      <path id="Trazado_147293" data-name="Trazado 147293" d="M2959.918,75.321c-.006,2.086-.96,3.058-2.395,2.716-1.078-.258-1.529-1.061-1.509-2.687.018-1.345.547-2.156,1.553-2.377a1.918,1.918,0,0,1,2.3,1.557A4.729,4.729,0,0,1,2959.918,75.321Z" transform="translate(-5.684 -6.355)" fill="#fff"/>
      <path id="Trazado_147294" data-name="Trazado 147294" d="M3006.072,191.542a1.951,1.951,0,0,1,1.992-1.854,1.935,1.935,0,1,1-.157,3.867A1.951,1.951,0,0,1,3006.072,191.542Z" transform="translate(-20.843 -41.713)" fill="#fff"/>
      <path id="Trazado_147295" data-name="Trazado 147295" d="M3006.736,131a5.246,5.246,0,0,1-3.43-1.422,1.929,1.929,0,0,1-.309-2.7,1.8,1.8,0,0,1,2.6-.359,1.968,1.968,0,0,0,2.646.013,1.815,1.815,0,0,1,2.607.324,1.952,1.952,0,0,1-.275,2.718A5.642,5.642,0,0,1,3006.736,131Z" transform="translate(-19.784 -22.461)" fill="#fff"/>
      <path id="Trazado_147296" data-name="Trazado 147296" d="M3019.292,118.6a1.913,1.913,0,0,1-1.887,1.946,1.949,1.949,0,0,1-1.955-1.895,1.989,1.989,0,0,1,1.9-1.961A1.958,1.958,0,0,1,3019.292,118.6Z" transform="translate(-23.683 -19.609)" fill="#fff"/>
      <path id="Trazado_147297" data-name="Trazado 147297" d="M3000.582,118.6a1.912,1.912,0,1,1-3.823.047,1.912,1.912,0,1,1,3.823-.047Z" transform="translate(-18.023 -19.608)" fill="#fff"/>
    </g>
  </g>
</svg>
