<svg xmlns="http://www.w3.org/2000/svg" width="95" height="95" viewBox="0 0 95 95">
  <g id="Grupo_134085" data-name="Grupo 134085" transform="translate(-742.5 -1740)">
    <g id="Grupo_134084" data-name="Grupo 134084" transform="translate(744.259 1753.194)">
      <g id="Grupo_134081" data-name="Grupo 134081">
        <path id="Trazado_147266" data-name="Trazado 147266" d="M698.543,1874.447v6.277h.6q5.323,0,10.647,0a1.452,1.452,0,0,1,1.494,1.921,1.478,1.478,0,0,1-1.524.985q-3.565,0-7.13,0h-4.081v6.28h.576q3.883,0,7.766,0a1.444,1.444,0,0,1,1.573,1.387,1.429,1.429,0,0,1-1.387,1.517c-.325.017-.651.006-.977.006H656.773c-.245,0-.49.007-.732-.016a1.42,1.42,0,0,1-1.306-1.4c-.005-.13,0-.26,0-.391v-51.133c0-1.325.492-1.813,1.833-1.813q19.071,0,38.142.006,16.141,0,32.281-.008c1.065,0,1.675.469,1.763,1.353.009.1.007.2.007.293q0,8.718,0,17.435a1.448,1.448,0,0,1-1.4,1.611,1.41,1.41,0,0,1-1.5-1.45c-.022-.813-.009-1.628-.009-2.442q0-6.643,0-13.284V1841h-68.2v30.512h3.584c.008-.152.022-.293.022-.434q0-9.4,0-18.8c0-1.2.455-1.689,1.645-1.754a4.154,4.154,0,0,0,3.928-4.046,1.426,1.426,0,0,1,1.531-1.525q4.81-.013,9.62,0a1.414,1.414,0,0,1,1.491,1.2,1.4,1.4,0,0,1-.877,1.568,2.279,2.279,0,0,1-.764.108c-2.556.008-5.112.005-7.667.006h-.553c-.05.161-.093.3-.135.435a6.962,6.962,0,0,1-4.882,4.887c-.31.1-.449.2-.448.55q.016,8.742.008,17.483c0,.1.013.191.022.322h15.164c-.28-1.061-.616-2.1-.824-3.164A23.09,23.09,0,0,1,680.942,1852a14.457,14.457,0,0,1,5.7-5.752,10.709,10.709,0,0,1,12.139,1.3,17.8,17.8,0,0,1,5.836,9.434,23.95,23.95,0,0,1-.41,14.131c-.041.121-.071.245-.122.422h.61q4.4,0,8.79,0a1.451,1.451,0,1,1,.065,2.9c-.13.009-.261.006-.39.006H698.543Zm-6.822-2.91c2.912,0,5.825-.008,8.737.009a.6.6,0,0,0,.669-.456,20.991,20.991,0,0,0-.034-15.527,12.984,12.984,0,0,0-4.7-6.212,7.719,7.719,0,0,0-6.959-1.154,9.767,9.767,0,0,0-5.419,4.328c-3.723,5.946-3.984,12.22-1.6,18.708.113.31.319.307.571.306Q687.351,1871.534,691.72,1871.537Zm-6.81,9.169v-6.227H657.664v6.227Zm.008,2.954H657.675v6.228h27.243Zm10.7-9.18h-7.735v15.4h7.735Z" transform="translate(-654.732 -1838.074)" fill="#78b62e"/>
        <path id="Trazado_147268" data-name="Trazado 147268" d="M714.931,1863.49a1.458,1.458,0,0,1-1.418,1.5,1.414,1.414,0,0,1-1.479-1.375,1.754,1.754,0,0,0-1.256-1.682,2.033,2.033,0,0,0-2.178.438,1.5,1.5,0,0,0-.44,1.649,1.776,1.776,0,0,0,1.508,1.226c.5.083,1.009.073,1.5.178a4.692,4.692,0,0,1,3.752,4.209,4.635,4.635,0,0,1-3.04,4.6.527.527,0,0,0-.4.51,1.438,1.438,0,0,1-2.866-.038c-.024-.332-.2-.387-.431-.479a4.635,4.635,0,0,1-3.005-4.184,1.452,1.452,0,1,1,2.9-.177,1.972,1.972,0,0,0,2.9,1.605,1.64,1.64,0,0,0,1.036-1.526,1.614,1.614,0,0,0-1.071-1.548,2.935,2.935,0,0,0-1.042-.2,4.8,4.8,0,0,1-4.66-3.905,4.631,4.631,0,0,1,3.011-5.07.721.721,0,0,0,.355-.423,1.473,1.473,0,0,1,1.429-1.175,1.381,1.381,0,0,1,1.417,1.159.6.6,0,0,0,.457.484A4.658,4.658,0,0,1,714.931,1863.49Z" transform="translate(-673.042 -1845.169)" fill="#78b62e"/>
      </g>
      <path id="Trazado_147270" data-name="Trazado 147270" d="M466.8,539.232c1.8,0,3.566-.02,5.333,0a8.24,8.24,0,0,1,8.231,6.529c.022.1.045.2.061.3.3,1.9.225,2.067-1.433,3.016a33.18,33.18,0,0,1-23.237,3.894c-.821-.153-1.276-.678-1.178-1.344.1-.708.688-1.034,1.578-.947,2.192.215,4.386.575,6.579.574a30.013,30.013,0,0,0,14.906-4.046.815.815,0,0,0,.455-1.051,5.881,5.881,0,0,0-5.418-4.586c-1.846-.072-3.7-.04-5.545-.014a.815.815,0,0,0-.59.415,4.606,4.606,0,0,1-8.594.028.825.825,0,0,0-.579-.441c-1.95-.02-3.906-.069-5.851.037a5.86,5.86,0,0,0-5.155,4.69c-.079.421-.015.66.387.851,1.249.594,2.483,1.22,3.724,1.83.207.1.429.171.635.273a1.167,1.167,0,0,1,.663,1.521,1.109,1.109,0,0,1-1.539.587c-1.916-.919-3.822-1.861-5.683-2.885a1.6,1.6,0,0,1-.588-1.214,8.178,8.178,0,0,1,7.574-7.977c1.768-.081,3.542-.035,5.313-.045.278,0,.555,0,.854,0a1.909,1.909,0,0,0-.592-2.021,34.569,34.569,0,0,1-3.428-3.824,6.072,6.072,0,0,1-1.114-4.149c.091-1.69.061-3.387.113-5.08a1.01,1.01,0,0,0-.517-1,5.541,5.541,0,0,1-1.223-8.371.79.79,0,0,0,.152-.939,4.194,4.194,0,0,1,4.285-5.71,1.425,1.425,0,0,0,1.167-.375,4.327,4.327,0,0,1,5.152-.46.9.9,0,0,0,1.089-.005,4.47,4.47,0,0,1,5.812,1.119,1.455,1.455,0,0,0,.91.493,3.761,3.761,0,0,1,3.439,4.476,1.078,1.078,0,0,0,.341,1.135,5.559,5.559,0,0,1-.931,8.61,1.048,1.048,0,0,0-.554,1.043c.056,1.872.076,3.746.109,5.62a5.344,5.344,0,0,1-1.012,3.41,36.671,36.671,0,0,1-3.435,3.916A1.965,1.965,0,0,0,466.8,539.232Zm-11.85-15.155a36.3,36.3,0,0,1-.035,4.446,6,6,0,0,0,1.743,5.042,9.368,9.368,0,0,0,1.748,1.724c1.627,1.02,1.86,2.5,1.672,4.2-.02.178-.039.357-.064.534a2.175,2.175,0,0,0,1.014,2.249,2.082,2.082,0,0,0,2.33.059,2.19,2.19,0,0,0,1.111-2.2c-.056-.818-.031-1.64-.044-2.461a2.007,2.007,0,0,1,.76-1.594,41.082,41.082,0,0,0,3.1-3.094,5.012,5.012,0,0,0,1.288-4.045,39.346,39.346,0,0,1-.064-4c0-.274,0-.549,0-.869a5.818,5.818,0,0,1-4.637-2.176.6.6,0,0,0-.529-.09,6.17,6.17,0,0,1-4.148.02.675.675,0,0,0-.589.092A5.9,5.9,0,0,1,454.952,524.077Zm14.1-2.339a3.369,3.369,0,0,0,3.429-2.407A3.3,3.3,0,0,0,471,515.61c-1.053-.672-1.156-1.059-.525-2.117a1.394,1.394,0,0,0-.028-1.654,1.428,1.428,0,0,0-1.637-.534c-1,.244-1.326.068-1.733-.872a2.145,2.145,0,0,0-3.776-.559c-.728.843-1.385.848-2.1.014a2.133,2.133,0,0,0-3.615.184,1.268,1.268,0,0,1-1.712.534,1.893,1.893,0,0,0-2.394.622,1.962,1.962,0,0,0,.158,2.415c.68.874.61,1.393-.278,2.054a3.3,3.3,0,0,0,1.392,6.021,3.3,3.3,0,0,0,3.406-1.867c.549-1.044,1.083-1.192,2.1-.58a3.59,3.59,0,0,0,3.928.034c1.115-.656,1.567-.531,2.19.624A3.161,3.161,0,0,0,469.048,521.739Z" transform="translate(-389.816 -484.851)" fill="#78b62e"/>
    </g>
    <rect id="Rectángulo_35702" data-name="Rectángulo 35702" width="95" height="95" transform="translate(742.5 1740)" fill="none"/>
  </g>
</svg>
