<svg xmlns="http://www.w3.org/2000/svg" width="232.893" height="239.245" viewBox="0 0 232.893 239.245">
  <g id="Grupo_134080" data-name="Grupo 134080" transform="translate(-39.075 -30.649)">
    <path id="Trazado_147155" data-name="Trazado 147155" d="M256.148,224.421a106.5,106.5,0,1,0-161.558,0Z" transform="translate(-12.277 -7.365)" fill="#bada95"/>
    <g id="Grupo_134039" data-name="Grupo 134039" transform="translate(78.17 242.11)">
      <g id="Grupo_134038" data-name="Grupo 134038" transform="translate(0 0)">
        <ellipse id="Elipse_4798" data-name="Elipse 4798" cx="21.822" cy="4.954" rx="21.822" ry="4.954" transform="translate(0 1.554)" fill="#bada95"/>
        <path id="Trazado_147156" data-name="Trazado 147156" d="M322.58,404.254c-4.546,0-8.878.135-12.827.377,2.755-.768,4.322-1.648,4.322-2.584,0-2.988-15.96-5.41-35.648-5.41s-35.649,2.422-35.649,5.41,15.96,5.41,35.649,5.41c5.053,0,9.857-.161,14.212-.448-2.161.651-3.378,1.382-3.378,2.156,0,2.713,14.918,4.912,33.319,4.912s33.32-2.2,33.32-4.912S340.983,404.254,322.58,404.254Z" transform="translate(-162.103 -392.909)" fill="#bada95"/>
        <path id="Trazado_147157" data-name="Trazado 147157" d="M172.747,409.307q-.989,0-1.963.012c1.265-.582,1.963-1.212,1.963-1.871,0-2.91-13.5-5.269-30.152-5.269s-30.152,2.359-30.152,5.269,13.393,5.249,29.953,5.268c-3,1.008-4.733,2.178-4.733,3.427,0,3.775,15.708,6.835,35.083,6.835s35.083-3.06,35.083-6.835S192.123,409.307,172.747,409.307Z" transform="translate(-108.4 -395.193)" fill="#bada95"/>
        <ellipse id="Elipse_4799" data-name="Elipse 4799" cx="7.203" cy="2.012" rx="7.203" ry="2.012" transform="translate(178.555 4.413)" fill="#bada95"/>
        <path id="Trazado_147158" data-name="Trazado 147158" d="M396.551,394.673c0,.452-1.448.818-3.234.818s-3.234-.366-3.234-.818,1.448-.817,3.234-.817S396.551,394.222,396.551,394.673Z" transform="translate(-222.797 -391.763)" fill="#bada95"/>
        <ellipse id="Elipse_4800" data-name="Elipse 4800" cx="3.56" cy="1.029" rx="3.56" ry="1.029" transform="translate(67.881 3.244)" fill="#bada95"/>
        <path id="Trazado_147159" data-name="Trazado 147159" d="M251.608,391.074c0,.429-1,.777-2.242.777s-2.241-.348-2.241-.777,1-.777,2.241-.777S251.608,390.645,251.608,391.074Z" transform="translate(-163.894 -390.297)" fill="#bada95"/>
      </g>
    </g>
    <g id="Grupo_134040" data-name="Grupo 134040" transform="translate(43.017 193.553)">
      <path id="Trazado_147160" data-name="Trazado 147160" d="M80.932,357.3c-3.446-9.878-6.932-19.84-12.38-28.77S55.468,311.66,45.779,307.712c3.3,12.558,6.557,25.8,15.066,35.607C66.3,349.61,73.5,353.545,80.932,357.3Z" transform="translate(-45.779 -307.712)" fill="#8dc63f"/>
      <path id="Trazado_147161" data-name="Trazado 147161" d="M84,356.894c-2.19-4.089-4.44-8.148-6.837-12.12q-1.993-3.3-4.133-6.515c-3.069-4.585-6.563-9.135-11.432-11.732,1.93,5.1,3.86,10.2,6,15.21a56.177,56.177,0,0,0,6.035,11.286,43.492,43.492,0,0,0,7.282,7.552c1.354,1.132,2.754,2.207,4.174,3.253l.059.046q1.146.593,2.3,1.177-.848-2.43-1.708-4.861Q84.874,358.54,84,356.894Z" transform="translate(-52.296 -315.464)" fill="#7cb332"/>
    </g>
    <g id="Grupo_134041" data-name="Grupo 134041" transform="translate(39.075 223.237)">
      <path id="Trazado_147162" data-name="Trazado 147162" d="M74.486,375.58c-5.034-4.538-10.116-9.112-15.992-12.488s-12.687-5.509-19.419-4.734c5.787,6.1,11.758,12.614,19.646,15.536C63.78,375.768,69.094,375.763,74.486,375.58Z" transform="translate(-39.075 -358.199)" fill="#8dc63f"/>
      <path id="Trazado_147163" data-name="Trazado 147163" d="M76.1,374.507c-2.517-1.642-5.059-3.246-7.658-4.756q-2.161-1.256-4.377-2.414c-3.171-1.649-6.573-3.146-10.148-3.105,2.684,2.295,5.369,4.591,8.147,6.772a36.383,36.383,0,0,0,6.943,4.531,28.145,28.145,0,0,0,6.489,2.023c1.121.221,2.251.4,3.384.548l.048.008q.836-.02,1.674-.048-1.238-1.117-2.484-2.23Q77.111,375.168,76.1,374.507Z" transform="translate(-45.191 -360.684)" fill="#7cb332"/>
    </g>
    <g id="Grupo_134042" data-name="Grupo 134042" transform="translate(58.972 181.011)">
      <path id="Trazado_147164" data-name="Trazado 147164" d="M85.458,323.793c-.246-6.773-.5-13.606-2.166-20.175s-4.876-12.942-10.118-17.237c-.355,8.4-.871,17.222,2.521,24.92C77.871,316.238,81.574,320.049,85.458,323.793Z" transform="translate(-72.915 -286.381)" fill="#8dc63f"/>
      <path id="Trazado_147165" data-name="Trazado 147165" d="M87.613,324.127c-.574-2.95-1.192-5.892-1.916-8.809q-.6-2.425-1.314-4.822c-1.024-3.425-2.317-6.91-4.834-9.447.22,3.524.441,7.05.809,10.562a36.352,36.352,0,0,0,1.579,8.139A28.164,28.164,0,0,0,85,325.817c.621.96,1.283,1.892,1.962,2.812.009.012.018.027.028.039q.6.586,1.2,1.168c-.041-1.111-.081-2.223-.128-3.336C87.915,325.709,87.766,324.918,87.613,324.127Z" transform="translate(-75.649 -292.425)" fill="#7cb332"/>
    </g>
    <g id="Grupo_134043" data-name="Grupo 134043" transform="translate(189.729 192.827)">
      <path id="Trazado_147166" data-name="Trazado 147166" d="M295.986,343.346c4.047-5.436,8.125-10.924,10.937-17.091s4.3-13.146,2.9-19.777c-5.536,6.334-11.458,12.888-13.629,21.015C294.8,332.705,295.3,337.995,295.986,343.346Z" transform="translate(-295.304 -306.478)" fill="#8dc63f"/>
      <path id="Trazado_147167" data-name="Trazado 147167" d="M299.443,344.843c1.4-2.66,2.758-5.342,4.019-8.07q1.048-2.269,1.994-4.583c1.345-3.312,2.516-6.839,2.141-10.394-2.034,2.887-4.069,5.775-5.98,8.745a36.38,36.38,0,0,0-3.862,7.337,28.165,28.165,0,0,0-1.406,6.649c-.115,1.137-.184,2.279-.229,3.421,0,.015,0,.033,0,.048q.1.83.2,1.662,1-1.337,1.987-2.682Q298.879,345.911,299.443,344.843Z" transform="translate(-295.639 -312.79)" fill="#7cb332"/>
    </g>
    <g id="Grupo_134044" data-name="Grupo 134044" transform="translate(189.76 182.17)">
      <path id="Trazado_147168" data-name="Trazado 147168" d="M298.968,322.145c2.053-5.461,4.119-10.972,4.976-16.742s.423-11.9-2.315-17.049c-3.071,6.558-6.408,13.389-6.268,20.629C295.449,313.626,297.126,317.881,298.968,322.145Z" transform="translate(-295.356 -288.353)" fill="#8dc63f"/>
      <path id="Trazado_147169" data-name="Trazado 147169" d="M301.774,323.066c.523-2.534,1.009-5.075,1.4-7.632.218-1.418.407-2.84.558-4.266.323-3.06.453-6.257-.7-9.108-.995,2.872-1.99,5.746-2.863,8.657a31.319,31.319,0,0,0-1.447,6.989,24.228,24.228,0,0,0,.42,5.835c.175.968.39,1.929.625,2.884l.009.041q.279.663.565,1.326.5-1.343,1-2.692Q301.562,324.084,301.774,323.066Z" transform="translate(-296.726 -294.001)" fill="#7cb332"/>
    </g>
    <path id="Trazado_147170" data-name="Trazado 147170" d="M288.223,140.362a45.6,45.6,0,0,0-16.473-13.514c-1.247,16.587-1.872,33.277-1.509,49.906a58.389,58.389,0,0,0,12.567-8.3,26.1,26.1,0,0,0,8.046-12.534C292.266,150.347,291.256,144.379,288.223,140.362Z" transform="translate(-95.206 -39.637)" fill="#1c75bc"/>
    <path id="Trazado_147171" data-name="Trazado 147171" d="M273.233,127.568a5.181,5.181,0,0,0-1,1.879c0,.014-.006.027-.009.041q-.2,2.817-.379,5.637-.075,9.864-.15,19.728c-.025,3.347-.034,6.79,1.2,9.9a17.4,17.4,0,0,0,2.484,4.192c.56.724,2.006,3.074,3.18,2.774,1.027-.262,1.376-3.527,1.661-4.466q.826-2.722,1.829-5.385a8.8,8.8,0,0,0,.738-2.858,8.426,8.426,0,0,0-.593-2.811c-1.761-5.285-3.466-10.645-3.981-16.193a63.781,63.781,0,0,1-.016-9.5A45.308,45.308,0,0,0,273.233,127.568Z" transform="translate(-95.845 -39.934)" fill="#155f99"/>
    <g id="Grupo_134065" data-name="Grupo 134065" transform="translate(54.216 30.649)">
      <path id="Trazado_147172" data-name="Trazado 147172" d="M122.921,72.695s-5.546-.45-10.617,7.341c13.229-3.013,20.358-.514,20.358-.514S128.909,72.336,122.921,72.695Z" transform="translate(-84.389 -47.968)" fill="#808285"/>
      <path id="Trazado_147173" data-name="Trazado 147173" d="M166.188,56.269a43.57,43.57,0,0,1-5.826-8.851c2.374-2.091,2.616-6.244,1.672-9.263a10.809,10.809,0,0,0-6.395-6.584,15.164,15.164,0,0,0-9.326-.363c-3.715.967-7.284,3.288-8.762,6.831s-.2,8.3,3.311,9.858a43.5,43.5,0,0,1-7.273,13.168c9.254.078,18.511.156,27.761-.111a8.1,8.1,0,0,0,4.358-.967A2.5,2.5,0,0,0,166.188,56.269ZM155.334,43.52a6.292,6.292,0,0,1-5.866.6,4.4,4.4,0,0,1-2.8-5.719,5.9,5.9,0,0,1,2-2.883c1.262-1,7.634-2.692,9.091,2.505C158.334,40.072,157.029,42.336,155.334,43.52Z" transform="translate(-93.159 -30.649)" fill="#bcbec0"/>
      <path id="Trazado_147174" data-name="Trazado 147174" d="M141.287,62.19a76.108,76.108,0,0,1,4.876-13.159,8.894,8.894,0,0,1-2.556-15.786,11.657,11.657,0,0,0-6.057,5.864c-1.478,3.543-.2,8.3,3.311,9.858a43.5,43.5,0,0,1-7.273,13.168Q137.438,62.167,141.287,62.19Z" transform="translate(-93.159 -31.719)" fill="#d1d3d4"/>
      <g id="Grupo_134045" data-name="Grupo 134045" transform="translate(0 27.672)">
        <path id="Trazado_147175" data-name="Trazado 147175" d="M72.448,77.713H191.816l15.254,174L89.151,265.932Z" transform="translate(-67.967 -77.713)" fill="#1c75bc"/>
        <path id="Trazado_147176" data-name="Trazado 147176" d="M218,95.888s10.772-3.991,7.28-18.175h-14.93Z" transform="translate(-124.786 -77.713)" fill="#155f99"/>
        <path id="Trazado_147177" data-name="Trazado 147177" d="M69.308,77.713l-4.481,3.265L81.631,264.2l4.38,1.731Z" transform="translate(-64.826 -77.713)" fill="#519bd6"/>
        <path id="Trazado_147178" data-name="Trazado 147178" d="M214.167,255.394,203.652,135.446l-8.406-46.721L89.682,86.642s-1.144,137.411,20.384,181.3Z" transform="translate(-75.063 -81.392)" fill="#155f99"/>
      </g>
      <path id="Trazado_147179" data-name="Trazado 147179" d="M93.226,91.026l106.461-1.91c3.55,52.432,9.7,104.684,19.879,156.242-35.428,1.084-71.033,6.034-105.847,12.691C104,222.75,93.226,122.334,93.226,91.026Z" transform="translate(-76.528 -54.74)" fill="#fff"/>
      <path id="Trazado_147180" data-name="Trazado 147180" d="M215.59,90.012l4.567,10.852a13.279,13.279,0,0,0,7.9-11.076Z" transform="translate(-126.946 -55.016)" fill="#e6e7e8"/>
      <path id="Trazado_147181" data-name="Trazado 147181" d="M149.832,70.227,172.388,69.2a43.687,43.687,0,0,1-3.968-5.719,32.432,32.432,0,0,0-7.557,1.556A58.65,58.65,0,0,0,149.832,70.227Z" transform="translate(-99.851 -44.177)" fill="#808285"/>
      <g id="Grupo_134046" data-name="Grupo 134046" transform="translate(38.533 22.906)">
        <path id="Trazado_147182" data-name="Trazado 147182" d="M136.18,92.515l48.859.034c2.572-5.571,1.451-12.264-.6-18.312a5.274,5.274,0,0,0-4.508-3.575,217.354,217.354,0,0,0-49.569.767C135.8,74.292,136.663,84.671,136.18,92.515Z" transform="translate(-130.362 -69.607)" fill="#bcbec0"/>
        <path id="Trazado_147183" data-name="Trazado 147183" d="M189.165,85.322l-50.527.141a40.02,40.02,0,0,1,1.067,9.55l50.009-.264A25.473,25.473,0,0,0,189.165,85.322Z" transform="translate(-133.772 -76.082)" fill="#d1d3d4"/>
        <path id="Trazado_147184" data-name="Trazado 147184" d="M171.323,71.513a23.011,23.011,0,0,0-8.79,1.461c-.49.214-1.047.61-.949,1.135.085.456.61.662,1.059.78,6.882,1.808,14.077,1.726,21.12,1.205,1.384-.1,8.484.1,8.184-1.787-.4-2.521-6.573-2.218-8.311-2.374A111.66,111.66,0,0,0,171.323,71.513Z" transform="translate(-143.222 -70.382)" fill="#d1d3d4"/>
        <ellipse id="Elipse_4801" data-name="Elipse 4801" cx="3.418" cy="1.323" rx="3.418" ry="1.323" transform="translate(9.447 2.437)" fill="#d1d3d4"/>
      </g>
      <g id="Grupo_134047" data-name="Grupo 134047" transform="translate(95.702 61.285)">
        <path id="Trazado_147185" data-name="Trazado 147185" d="M250.626,158.328l-19.335.98-3.7-23.446,19.335-.98Zm-17.342-1.476,14.612-.74-2.96-18.773-14.611.74Z" transform="translate(-227.594 -134.882)" fill="#bcbec0"/>
      </g>
      <g id="Grupo_134048" data-name="Grupo 134048" transform="translate(101.706 102.164)">
        <path id="Trazado_147186" data-name="Trazado 147186" d="M260.735,227.87l-19.34.891L237.806,205.3l19.34-.891ZM243.4,226.314l14.614-.673-2.873-18.787-14.615.673Z" transform="translate(-237.806 -204.408)" fill="#bcbec0"/>
      </g>
      <g id="Grupo_134049" data-name="Grupo 134049" transform="translate(108.891 142.971)">
        <path id="Trazado_147187" data-name="Trazado 147187" d="M254.028,298.439l-4-23.4,19.321-1.232,4,23.4Zm-1.243-21.215,3.205,18.733,14.6-.931-3.205-18.733Z" transform="translate(-250.026 -273.811)" fill="#bcbec0"/>
      </g>
      <g id="Grupo_134054" data-name="Grupo 134054" transform="translate(25.107 65.431)">
        <g id="Grupo_134050" data-name="Grupo 134050" transform="translate(1.355 5.159)">
          <path id="Trazado_147188" data-name="Trazado 147188" d="M111.3,155.595a1.47,1.47,0,0,1-.046-2.939l60.922-1.949a1.47,1.47,0,1,1,.094,2.938l-60.922,1.949Z" transform="translate(-109.831 -150.707)" fill="#808285"/>
        </g>
        <g id="Grupo_134051" data-name="Grupo 134051" transform="translate(2.532 11.325)">
          <path id="Trazado_147189" data-name="Trazado 147189" d="M113.3,166.083a1.47,1.47,0,0,1-.046-2.939l60.922-1.949a1.47,1.47,0,0,1,.094,2.938l-60.921,1.949Z" transform="translate(-111.834 -161.195)" fill="#808285"/>
        </g>
        <g id="Grupo_134052" data-name="Grupo 134052" transform="translate(3.71 18.467)">
          <path id="Trazado_147190" data-name="Trazado 147190" d="M115.306,177.254a1.47,1.47,0,0,1-.046-2.939l30.46-.974a1.47,1.47,0,1,1,.094,2.938l-30.46.974Z" transform="translate(-113.837 -173.341)" fill="#808285"/>
        </g>
        <g id="Grupo_134053" data-name="Grupo 134053">
          <path id="Trazado_147191" data-name="Trazado 147191" d="M109,145.847a1.47,1.47,0,0,1-.046-2.939l30.46-.974a1.47,1.47,0,1,1,.095,2.938l-30.461.974Z" transform="translate(-107.527 -141.933)" fill="#8dc63f"/>
        </g>
      </g>
      <g id="Grupo_134059" data-name="Grupo 134059" transform="translate(32.968 107.754)">
        <g id="Grupo_134055" data-name="Grupo 134055" transform="translate(1.733 3.172)">
          <path id="Trazado_147192" data-name="Trazado 147192" d="M125.313,227.98a1.47,1.47,0,0,1-.136-2.933l60.683-5.73a1.47,1.47,0,1,1,.276,2.927l-60.683,5.729C125.407,227.978,125.36,227.98,125.313,227.98Z" transform="translate(-123.846 -219.31)" fill="#808285"/>
        </g>
        <g id="Grupo_134056" data-name="Grupo 134056" transform="translate(3.291 9.254)">
          <path id="Trazado_147193" data-name="Trazado 147193" d="M127.964,238.325a1.47,1.47,0,0,1-.136-2.933l60.683-5.729a1.47,1.47,0,1,1,.276,2.926l-60.683,5.73C128.057,238.322,128.01,238.325,127.964,238.325Z" transform="translate(-126.496 -229.655)" fill="#808285"/>
        </g>
        <g id="Grupo_134057" data-name="Grupo 134057" transform="translate(4.85 18.202)">
          <path id="Trazado_147194" data-name="Trazado 147194" d="M130.615,250.677a1.47,1.47,0,0,1-.136-2.933l30.341-2.865a1.47,1.47,0,0,1,.276,2.927l-30.341,2.865C130.708,250.674,130.661,250.677,130.615,250.677Z" transform="translate(-129.147 -244.873)" fill="#808285"/>
        </g>
        <g id="Grupo_134058" data-name="Grupo 134058">
          <path id="Trazado_147195" data-name="Trazado 147195" d="M122.366,219.721a1.47,1.47,0,0,1-.136-2.933l30.341-2.865a1.47,1.47,0,0,1,.276,2.927l-30.341,2.865C122.459,219.718,122.412,219.721,122.366,219.721Z" transform="translate(-120.898 -213.915)" fill="#8dc63f"/>
        </g>
      </g>
      <g id="Grupo_134064" data-name="Grupo 134064" transform="translate(40.07 150.297)">
        <g id="Grupo_134060" data-name="Grupo 134060" transform="translate(1.831 2.648)">
          <path id="Trazado_147196" data-name="Trazado 147196" d="M137.56,300.436a1.47,1.47,0,0,1-.161-2.931l60.581-6.719a1.469,1.469,0,1,1,.323,2.921l-60.581,6.72A1.4,1.4,0,0,1,137.56,300.436Z" transform="translate(-136.091 -290.776)" fill="#808285"/>
        </g>
        <g id="Grupo_134061" data-name="Grupo 134061" transform="translate(3.489 8.704)">
          <path id="Trazado_147197" data-name="Trazado 147197" d="M140.379,310.735a1.47,1.47,0,0,1-.161-2.931l60.581-6.719a1.469,1.469,0,1,1,.324,2.921l-60.581,6.72A1.4,1.4,0,0,1,140.379,310.735Z" transform="translate(-138.911 -301.075)" fill="#808285"/>
        </g>
        <g id="Grupo_134062" data-name="Grupo 134062" transform="translate(5.146 18.119)">
          <path id="Trazado_147198" data-name="Trazado 147198" d="M143.2,323.388a1.47,1.47,0,0,1-.16-2.93l30.29-3.36a1.47,1.47,0,0,1,.324,2.922l-30.29,3.36A1.4,1.4,0,0,1,143.2,323.388Z" transform="translate(-141.73 -317.089)" fill="#808285"/>
        </g>
        <g id="Grupo_134063" data-name="Grupo 134063">
          <path id="Trazado_147199" data-name="Trazado 147199" d="M134.445,292.573a1.47,1.47,0,0,1-.161-2.93l30.29-3.36a1.469,1.469,0,1,1,.325,2.921l-30.29,3.36A1.409,1.409,0,0,1,134.445,292.573Z" transform="translate(-132.977 -286.272)" fill="#8dc63f"/>
        </g>
      </g>
      <path id="Trazado_147200" data-name="Trazado 147200" d="M225.956,135.2c4.2,1.379,8.1,3.246,11.281,6.6,4.129-5.315,7.851-10.128,13.677-14.269a75.55,75.55,0,0,0-12.684,21.827A41.815,41.815,0,0,0,225.956,135.2Z" transform="translate(-131.217 -70.567)" fill="#39b54a"/>
      <path id="Trazado_147201" data-name="Trazado 147201" d="M236.08,207.96c4.2,1.379,8.1,3.246,11.281,6.6,4.129-5.315,7.852-10.128,13.677-14.269a75.521,75.521,0,0,0-12.683,21.826A41.828,41.828,0,0,0,236.08,207.96Z" transform="translate(-135.388 -100.548)" fill="#39b54a"/>
      <path id="Trazado_147202" data-name="Trazado 147202" d="M248.637,275.961c4.2,1.379,8.1,3.245,11.281,6.6,4.129-5.315,7.851-10.127,13.677-14.269a75.532,75.532,0,0,0-12.684,21.826A41.826,41.826,0,0,0,248.637,275.961Z" transform="translate(-140.562 -128.566)" fill="#39b54a"/>
    </g>
    <g id="Grupo_134072" data-name="Grupo 134072" transform="translate(176.948 96.433)">
      <path id="Trazado_147203" data-name="Trazado 147203" d="M300.729,387.785l-11.757,5.706c-.46.223-.994.567-.953,1.078.049.619.855.806,1.476.828l16.621.594v-6.745A27.435,27.435,0,0,1,300.729,387.785Z" transform="translate(-279.52 -243.585)" fill="#fff"/>
      <path id="Trazado_147204" data-name="Trazado 147204" d="M369.355,404.953c-1.127,2.2-6.3,4.335-9.686,5.977-.4.192-.858.49-.823.93.043.534.738.7,1.274.715,3.453.123,8.961.247,13.554.37a2.854,2.854,0,0,0,2.635-4.113l-2.643-5.743C372.188,402.83,370.744,405.526,369.355,404.953Z" transform="translate(-308.704 -249.883)" fill="#fff"/>
      <path id="Trazado_147205" data-name="Trazado 147205" d="M357.673,231.461c-6.238,2.143-12.265,2.045-18,2.829-1.009,1.409-4.882,7.114-5.891,8.523l16.176,2.031a7.6,7.6,0,0,0,2.629.023,5.842,5.842,0,0,0,3.128-2.25A12.715,12.715,0,0,0,357.673,231.461Z" transform="translate(-298.378 -179.174)" fill="#092942"/>
      <path id="Trazado_147206" data-name="Trazado 147206" d="M322.29,213.619c2.1-3.21,4.99-5.433,7.916-5-.238-.035-2.5,5.23-2.848,5.831a38.947,38.947,0,0,1-3.563,5.168,30.75,30.75,0,0,1-4.006,4.079c-.416.348-1.543,1.662-1.9.609-.226-.666.731-2.7.95-3.314A35.209,35.209,0,0,1,322.29,213.619Z" transform="translate(-291.814 -169.742)" fill="#092942"/>
      <g id="Grupo_134067" data-name="Grupo 134067">
        <g id="Grupo_134066" data-name="Grupo 134066" transform="translate(0)">
          <path id="Trazado_147207" data-name="Trazado 147207" d="M377.338,156.278,311.66,214.415l-10.421-11.771,65.679-58.137a7.86,7.86,0,0,1,11.1.675h0A7.86,7.86,0,0,1,377.338,156.278Z" transform="translate(-284.968 -142.533)" fill="#fbb040"/>
          <path id="Trazado_147208" data-name="Trazado 147208" d="M289.837,244.77l-16.271,24.9,26.691-13.132Z" transform="translate(-273.566 -184.658)" fill="#f98c6e"/>
          <rect id="Rect치ngulo_35698" data-name="Rect치ngulo 35698" width="80.26" height="6.321" transform="matrix(0.749, -0.663, 0.663, 0.749, 19.386, 63.631)" fill="#9c681c"/>
          <path id="Trazado_147209" data-name="Trazado 147209" d="M279.4,271.934l-5.835,8.931,9.573-4.71Z" transform="translate(-273.566 -195.851)" fill="#39b54a"/>
          <path id="Trazado_147210" data-name="Trazado 147210" d="M408.262,144.508l-6.681,5.915L412,162.193l6.681-5.915a7.86,7.86,0,1,0-10.421-11.771Z" transform="translate(-326.313 -142.533)" fill="#f98c6e"/>
          <rect id="Rect치ngulo_35699" data-name="Rect치ngulo 35699" width="6.321" height="15.72" transform="translate(71.637 11.105) rotate(-41.519)" fill="#fff"/>
        </g>
        <path id="Trazado_147211" data-name="Trazado 147211" d="M365.936,158.136a7.852,7.852,0,0,0,.675-11.1L273.566,229.4l26.691-13.132Z" transform="translate(-273.566 -144.39)" fill="#231f20" opacity="0.25"/>
      </g>
      <path id="Trazado_147212" data-name="Trazado 147212" d="M367.924,222.033c1.514,2.7,1.635,10.111.938,13.131,2.317.39,4.932-3.286,7.248-2.9a19.44,19.44,0,0,1-.728-8.55,3.711,3.711,0,0,0-.268-2.766c-.726-.963-2.211-.863-3.334-.425S369.126,222.126,367.924,222.033Z" transform="translate(-312.445 -174.537)" fill="#e67a5c"/>
      <path id="Trazado_147213" data-name="Trazado 147213" d="M333.318,295.376s-14.514,13.518-17.65,24.3S308.1,348.68,308.1,348.68l8.09,1.586,8.3-25.693,13.131-13.72S338.228,297.342,333.318,295.376Z" transform="translate(-287.796 -205.509)" fill="#092942"/>
      <path id="Trazado_147214" data-name="Trazado 147214" d="M343.613,295.376a106.719,106.719,0,0,0-10.525,11.663c.79,4.137,1.735,8.252,2.664,12.285q.392,1.7.807,3.394l11.355-11.864S348.523,297.342,343.613,295.376Z" transform="translate(-298.091 -205.509)" fill="#051d2e"/>
      <path id="Trazado_147215" data-name="Trazado 147215" d="M365.658,271.946c-.737,1.961-6.236,4.441-8.336,4.847a5.713,5.713,0,0,1-4.967-1.753c-1.274-1.284-2.535-2.891-2.56-4.677-.362-26.523,4.558-32.106,9.031-36.523,3.909-3.861,9.183-3.162,12.161,1.371,3.294,5.014,1.552,11.781.232,17.157C369.433,259.644,368.633,264.033,365.658,271.946Z" transform="translate(-304.967 -179.12)" fill="#0e4066"/>
      <path id="Trazado_147216" data-name="Trazado 147216" d="M360.288,266.545a42.807,42.807,0,0,0,8.009-24.563,34.859,34.859,0,0,1-7.893,12.03,8.483,8.483,0,0,1-1.723,1.483c-1.857,1.115-4.215.85-6.32.339-.465-.112-.932-.235-1.4-.355-.377,2.452-.665,5.283-.842,8.563A63.1,63.1,0,0,0,360.288,266.545Z" transform="translate(-305.109 -183.509)" fill="#092942"/>
      <path id="Trazado_147217" data-name="Trazado 147217" d="M361.9,313.248c1.947-5.977,3.36-9.25,3.143-15.748-10.058,3.062-16.187-2.124-16.187-2.124-1.576,14.364-1.946,22.067-.005,36.393,1.139,8.412,9.634,20.623,14.421,27.854,2.063-.517,3.008-.937,5.071-1.454-1.777-6.677-5.033-18.731-8.569-24.781C360.608,325.88,359.522,320.555,361.9,313.248Z" transform="translate(-304.043 -205.509)" fill="#092942"/>
      <path id="Trazado_147218" data-name="Trazado 147218" d="M335.646,208.992c1.632-1.347,4.718-2.069,6.662-1.233.5.215,1.014.6,1.035,1.148.027.7-.736,1.131-1.4,1.358a17.49,17.49,0,0,1-6.4.934C334.862,211,334.014,210.339,335.646,208.992Z" transform="translate(-298.758 -169.261)" fill="#f98c6e"/>
      <path id="Trazado_147219" data-name="Trazado 147219" d="M357.058,253.6a4.485,4.485,0,0,0,1.9-.148,4.207,4.207,0,0,0,1.964-2.124,29.568,29.568,0,0,0,3.132-9.231A6.05,6.05,0,0,0,362.4,236.6a18.59,18.59,0,0,0-6.818,12.257c-1.017-.029-2.089-.047-3.152-.068-.326,1.331-.622,2.8-.876,4.443Z" transform="translate(-305.701 -181.294)" fill="#092942"/>
      <g id="Grupo_134068" data-name="Grupo 134068" transform="translate(25.795 52.477)">
        <path id="Trazado_147220" data-name="Trazado 147220" d="M321.656,253.731a4.331,4.331,0,0,0-2.02-1.71,1.693,1.693,0,0,0-2.168,1.012c-.273,1.254,1.4,2.439.9,3.62-.144.339-.448.586-.617.913a1.764,1.764,0,0,0,.408,1.943,4.839,4.839,0,0,0,1.814,1.059,7.2,7.2,0,0,0,2.873.661,2.266,2.266,0,0,0,1.637-.67c.784-.9-.11-2.243-.537-3.1A24.191,24.191,0,0,0,321.656,253.731Z" transform="translate(-317.438 -240.089)" fill="#f98c6e"/>
        <path id="Trazado_147221" data-name="Trazado 147221" d="M345.684,249.354c1.8-7.255,1.572-9.016,4.138-13.786a7.975,7.975,0,0,1,4.116-3.353,5.084,5.084,0,0,1,5.08.537,5.15,5.15,0,0,1,1.675,3.708,12.4,12.4,0,0,1-.651,4.116c-2.738,9.324-4.165,10.657-9.862,18.53-7.768-.727-18.028-2.338-23.537-5.243-1.119-.59-1.191-2.491-.521-3.564.726-1.161,2.4-1.184,3.741-.933C334.186,250.175,339.08,249.479,345.684,249.354Z" transform="translate(-320.839 -231.785)" fill="#0e4066"/>
      </g>
      <path id="Trazado_147222" data-name="Trazado 147222" d="M306.877,383.064l9.53,2.572-1.028,3.234-9.325-2.474Z" transform="translate(-286.952 -241.64)" fill="#0e4066"/>
      <path id="Trazado_147223" data-name="Trazado 147223" d="M378.76,397.8l-6.885,3.143,1.5,3.086,6.664-3.087Z" transform="translate(-314.073 -247.713)" fill="#0e4066"/>
      <path id="Trazado_147224" data-name="Trazado 147224" d="M306.116,400.3v-1.82l-17.822-.234a.792.792,0,0,0-.275.631c.049.619.855.806,1.476.828Z" transform="translate(-279.52 -247.897)" fill="#808285"/>
      <path id="Trazado_147225" data-name="Trazado 147225" d="M359.4,416.386c-.309.188-.58.442-.553.783.043.534.738.7,1.274.715,3.453.123,8.961.247,13.554.37a2.849,2.849,0,0,0,2.876-2.3Q367.978,416.269,359.4,416.386Z" transform="translate(-308.704 -255.194)" fill="#808285"/>
      <g id="Grupo_134071" data-name="Grupo 134071" transform="translate(45.857 24.117)">
        <g id="Grupo_134069" data-name="Grupo 134069">
          <path id="Trazado_147226" data-name="Trazado 147226" d="M357.37,209.935c-.238,1.889.006,4.814,1.272,6.236a4.665,4.665,0,0,0,4.277,1.263,10.228,10.228,0,0,0,4.156-2.011,26.245,26.245,0,0,0,5.633-5.636c1.472-2.009,2.695-4.546,1.956-6.924a6.867,6.867,0,0,0-3.685-3.845,9.409,9.409,0,0,0-6.469-.848C359.077,199.582,357.955,205.278,357.37,209.935Z" transform="translate(-353.919 -189.471)" fill="#f98c6e"/>
          <path id="Trazado_147227" data-name="Trazado 147227" d="M368.98,203.174a6.216,6.216,0,0,0-5.084-7.506,15.372,15.372,0,0,0-4.541.289,8,8,0,0,1-4.491-.337,5.533,5.533,0,0,1-2.655-2.9,9.592,9.592,0,0,1-.647-3.942,7.866,7.866,0,0,1,.484-2.772,4.025,4.025,0,0,1,1.8-2.106,3.2,3.2,0,0,1,4.509,3.864,9.462,9.462,0,0,1,4.292-3.349c1.039-.425,2.371-.605,3.169.185a2.27,2.27,0,0,1,.533,1.987,5.823,5.823,0,0,1-.832,1.957,7.184,7.184,0,0,1,6.215-1.988,1.217,1.217,0,0,1,.691.291,1.2,1.2,0,0,1,.076,1.24,5.177,5.177,0,0,1-2.4,2.754c1.673.653,3.443,1.379,4.474,2.849a6.124,6.124,0,0,1,.93,4.011,8.5,8.5,0,0,1-3.866,6.468,2.529,2.529,0,0,1-1.68.482A1.365,1.365,0,0,1,368.98,203.174Z" transform="translate(-351.558 -183.551)" fill="#092942"/>
          <path id="Trazado_147228" data-name="Trazado 147228" d="M381.1,214.8a1.629,1.629,0,0,1,1.167-.182,1.231,1.231,0,0,1,.774,1.026,2.594,2.594,0,0,1-.239,1.319,6.124,6.124,0,0,1-3.087,3.2.966.966,0,0,1-.893.067c-.734-.463-.489-2.432-.189-3.137A5.21,5.21,0,0,1,381.1,214.8Z" transform="translate(-362.592 -196.332)" fill="#f98c6e"/>
        </g>
        <path id="Trazado_147229" data-name="Trazado 147229" d="M369.332,211.385c-.341.857-.994,1.4-1.458,1.217s-.564-1.029-.223-1.885.994-1.4,1.458-1.217S369.673,210.529,369.332,211.385Z" transform="translate(-358.106 -194.228)" fill="#092942"/>
        <path id="Trazado_147230" data-name="Trazado 147230" d="M361.05,211.385c-.341.857-.994,1.4-1.458,1.217s-.564-1.029-.223-1.885.994-1.4,1.458-1.217S361.392,210.529,361.05,211.385Z" transform="translate(-354.693 -194.228)" fill="#092942"/>
        <path id="Trazado_147231" data-name="Trazado 147231" d="M360.63,216.641a2.6,2.6,0,0,0-.573.223.542.542,0,0,0-.278.511.621.621,0,0,0,.423.423,1.766,1.766,0,0,0,1.866-.437,2.157,2.157,0,0,0,.524-1.883c-.036-.192-.181-.589-.44-.441-.176.1-.233.507-.336.677A2.246,2.246,0,0,1,360.63,216.641Z" transform="translate(-354.944 -196.511)" fill="#d1684b"/>
        <g id="Grupo_134070" data-name="Grupo 134070" transform="translate(8.153 21.306)">
          <path id="Trazado_147232" data-name="Trazado 147232" d="M366.194,222.186a2.413,2.413,0,0,1-.54-.061.294.294,0,1,1,.131-.573,1.9,1.9,0,0,0,2.294-1.522.294.294,0,0,1,.579.1,2.481,2.481,0,0,1-2.462,2.053Z" transform="translate(-365.425 -219.787)" fill="#d1684b"/>
        </g>
      </g>
    </g>
    <path id="Trazado_147233" data-name="Trazado 147233" d="M301.847,143.436a17.3,17.3,0,0,1-6.1,3.971c-4.718,7.411-1.044,8.344,2.793,6.235q2.283-1.255,4.565-2.513a1.547,1.547,0,0,0,.66-.546,1.563,1.563,0,0,0-.072-1.244C303.057,147.5,303.3,144.735,301.847,143.436Z" transform="translate(-104.842 -46.472)" fill="#e67a5c"/>
    <path id="Trazado_147234" data-name="Trazado 147234" d="M275.275,246.832a32.46,32.46,0,0,0-2.544,4.215,1.372,1.372,0,0,0-.208.992.941.941,0,0,0,.727.583,2.771,2.771,0,0,0,.971-.029,28.029,28.029,0,0,0-.976,4.642.9.9,0,0,0,.741.784c.468.034,1.736-1.757,2.765-3.544a11.251,11.251,0,0,0,2.161-1.081,3.691,3.691,0,0,0,1.476-1.831,4.007,4.007,0,0,0-.726-3.4,4.9,4.9,0,0,0-1.589-1.527C277.428,246.267,276,246.672,275.275,246.832Z" transform="translate(-96.174 -88.931)" fill="#f98c6e"/>
    <path id="Trazado_147235" data-name="Trazado 147235" d="M293.733,165.348c1.037,16.978-4.584,35.555-12.28,50.844a12.592,12.592,0,0,1-5.708-.59,211.4,211.4,0,0,1,7.049-39.406,15.642,15.642,0,0,1,2.693-6.188C286.946,168.272,291.641,164.47,293.733,165.348Z" transform="translate(-97.516 -55.447)" fill="#1c75bc"/>
    <g id="Grupo_134075" data-name="Grupo 134075" transform="translate(193.219 84.842)">
      <g id="Grupo_134073" data-name="Grupo 134073">
        <path id="Trazado_147236" data-name="Trazado 147236" d="M312.888,150.755c-1.612,1.2-4.473,2.548-6.548,2.23a5.1,5.1,0,0,1-3.724-2.957,9.37,9.37,0,0,1-.613-4.592,23.991,23.991,0,0,1,1.87-7.768c.987-2.314,2.612-4.7,5.261-5.333a8.272,8.272,0,0,1,5.767,1.086,9.878,9.878,0,0,1,4.647,5.038C321.478,143.814,316.862,147.789,312.888,150.755Z" transform="translate(-301.537 -126.673)" fill="#f98c6e"/>
        <path id="Trazado_147237" data-name="Trazado 147237" d="M304.144,133.968c3.2.921,5.677.439,7.279-2.652.793,3.646,7.7,16.057,14.372,10.114-3.276-1.69-3.086-5.126-4.182-8.468a8.437,8.437,0,0,0-2.174-3.649,5.292,5.292,0,0,0-4.153-1.439,15.885,15.885,0,0,0,2.532-1.179c.27-.156.561-.36.58-.651.027-.421-.517-.676-.978-.744a4.416,4.416,0,0,0-3.3.846,5.043,5.043,0,0,0-2.315-2.978,2.22,2.22,0,0,0-.932-.345.972.972,0,0,0-.878.346,1.07,1.07,0,0,0-.1.78,5.1,5.1,0,0,0,1.379,2.721,6.54,6.54,0,0,0-5.772,2.4,15.976,15.976,0,0,0-2.666,5.51C303.145,134.485,303.832,134.066,304.144,133.968Z" transform="translate(-301.896 -122.819)" fill="#092942"/>
        <path id="Trazado_147238" data-name="Trazado 147238" d="M305.46,139.332a1.586,1.586,0,0,0-.528-1.086,1.48,1.48,0,0,0-1.414-.112,2.731,2.731,0,0,0-1.082.9,5.645,5.645,0,0,0-1.131,4.317.96.96,0,0,0,.471.792c.867.377,2.549-.875,3.024-1.5A4.77,4.77,0,0,0,305.46,139.332Z" transform="translate(-301.239 -129.077)" fill="#f98c6e"/>
      </g>
      <path id="Trazado_147239" data-name="Trazado 147239" d="M317.5,148.936c-.591.744-.708,1.586-.26,1.882s1.292-.068,1.883-.811.708-1.586.259-1.882S318.091,148.192,317.5,148.936Z" transform="translate(-307.72 -133.203)" fill="#092942"/>
      <path id="Trazado_147240" data-name="Trazado 147240" d="M322.441,155.96c-.591.744-.707,1.586-.259,1.882s1.291-.068,1.883-.811.707-1.586.259-1.881S323.033,155.216,322.441,155.96Z" transform="translate(-309.756 -136.098)" fill="#092942"/>
      <path id="Trazado_147241" data-name="Trazado 147241" d="M317.7,158.6a2.4,2.4,0,0,1,.134.6.525.525,0,0,1-.309.506.745.745,0,0,1-.645-.134,1.7,1.7,0,0,1-.707-1.814,2.209,2.209,0,0,1,1.435-1.444c.2-.071.654-.158.672.14.012.2-.331.467-.427.644A2.043,2.043,0,0,0,317.7,158.6Z" transform="translate(-307.371 -136.595)" fill="#d1684b"/>
      <g id="Grupo_134074" data-name="Grupo 134074" transform="translate(4.633 17.906)">
        <path id="Trazado_147242" data-name="Trazado 147242" d="M309.564,156.527a2.552,2.552,0,0,0,.379.427.348.348,0,0,0,.459,0,.273.273,0,0,0,0-.416,1.87,1.87,0,0,1-.63-1.392,1.838,1.838,0,0,1,.673-1.361.273.273,0,0,0,.018-.415.348.348,0,0,0-.458-.021,2.307,2.307,0,0,0-.436,3.177Z" transform="translate(-309.118 -153.274)" fill="#d1684b"/>
      </g>
    </g>
    <g id="Grupo_134079" data-name="Grupo 134079" transform="translate(71.274 165.714)">
      <path id="Trazado_147243" data-name="Trazado 147243" d="M192.365,358.465a13.884,13.884,0,0,1,4-.156,4.7,4.7,0,0,1,3.338,2c.852,1.394.622,3.183.186,4.758a41.3,41.3,0,0,1-3.807,8.572c-3.505,6.448-7.2,12.794-10.884,19.138a11.383,11.383,0,0,1-3.5-.218,3.484,3.484,0,0,1-2.336-2.211,5.157,5.157,0,0,1,.093-2.338q2.017-10.328,4.035-20.655c.434-2.221.908-4.532,2.3-6.318S190.376,357.386,192.365,358.465Z" transform="translate(-129.036 -300.654)" fill="#092942"/>
      <path id="Trazado_147244" data-name="Trazado 147244" d="M200.267,371.916a6.682,6.682,0,0,1-.375-.625,22.7,22.7,0,0,1-2.443-8.692,21.9,21.9,0,0,1,.116-4.332c-.65.043-1.3.13-1.946.219a2.632,2.632,0,0,0-.943-.288q-1.657.434-3.31.887a8.377,8.377,0,0,0-2.322,1.972,11.217,11.217,0,0,0-1.886,4.376c.821,1.118,1.593,2.284,2.392,3.411a54.743,54.743,0,0,0,7.657,8.669c.714-1.282,1.428-2.565,2.128-3.855Q199.806,372.792,200.267,371.916Z" transform="translate(-132.289 -300.675)" fill="#051d2e"/>
      <path id="Trazado_147245" data-name="Trazado 147245" d="M194.091,382.654a41.264,41.264,0,0,0-3.909-5.58c-1.3-1.476-3.205-2.861-5.08-2.271-.088.028-.168.069-.251.1l-1.937,9.914a5.292,5.292,0,0,1,.947.315,9.814,9.814,0,0,1,4.48,5.121,18.378,18.378,0,0,1,1.144,4.531q2.927-5.056,5.786-10.151C194.9,383.963,194.494,383.3,194.091,382.654Z" transform="translate(-130.541 -307.459)" fill="#051d2e"/>
      <path id="Trazado_147246" data-name="Trazado 147246" d="M132.777,318.2a149.405,149.405,0,0,0,28.359,25.262c-.986,1.262-2.112,2.634-3.7,2.834a6.208,6.208,0,0,1-3.692-1.154c-5.216-2.96-10.506-5.975-14.706-10.256A22.647,22.647,0,0,1,132.777,318.2Z" transform="translate(-109.868 -284.192)" fill="#8dc63f"/>
      <path id="Trazado_147247" data-name="Trazado 147247" d="M132.777,318.2a22.65,22.65,0,0,0,6.261,16.685,38.13,38.13,0,0,0,4.321,3.738c.031-1.135.043-2.27.025-3.405-.034-2.114-.151-4.237-.352-6.351Q137.647,323.785,132.777,318.2Z" transform="translate(-109.868 -284.192)" fill="#7cb332"/>
      <path id="Trazado_147248" data-name="Trazado 147248" d="M108.027,312.963q-4.345,1.635-8.555,3.5a5.9,5.9,0,0,0-2.7,1.856c-.745,1.169-.333,2.631.1,3.944q5.415,16.4,12.134,32.512c.282.676,4.063,10.069,4.787,10.179,3.908.593,4.72-8.164,8.635-8.45a6.482,6.482,0,0,0,3.023-.749,4.608,4.608,0,0,0,1.711-3c1.258-5.046-3.461-30.513-6.658-35.332S113.84,310.776,108.027,312.963Z" transform="translate(-94.879 -281.659)" fill="#8dc63f"/>
      <path id="Trazado_147249" data-name="Trazado 147249" d="M128.928,353.784a5.073,5.073,0,0,0,1.545.31c-.238-2.252-.594-4.789-1.035-7.407a33.857,33.857,0,0,1-7.572-2.016,41.2,41.2,0,0,1-4.254-1.96,71.391,71.391,0,0,1-12.94-9.224,41.252,41.252,0,0,0,5.321,8.209,36.51,36.51,0,0,0,6.785,5.545A52.814,52.814,0,0,0,128.928,353.784Z" transform="translate(-98.302 -290.494)" fill="#7cb332"/>
      <path id="Trazado_147250" data-name="Trazado 147250" d="M115.275,302.932a17.9,17.9,0,0,0-.24,6.822,1.762,1.762,0,0,1-1.871,2.047,17.382,17.382,0,0,1-2.693-.4,2.1,2.1,0,0,1-.965-.419,2.231,2.231,0,0,1-.543-1.332q-.549-3.29-1.1-6.579a2.773,2.773,0,0,1,.119-1.851,2.6,2.6,0,0,1,2.269-.935,6.1,6.1,0,0,1,2.735.405C113.834,301.073,115.485,302.026,115.275,302.932Z" transform="translate(-99.577 -276.809)" fill="#e67a5c"/>
      <g id="Grupo_134077" data-name="Grupo 134077" transform="translate(0 0)">
        <path id="Trazado_147251" data-name="Trazado 147251" d="M118.26,287.811c.548,1.935.781,5.087-.258,6.912a5.1,5.1,0,0,1-4.093,2.421,9.376,9.376,0,0,1-4.508-1.068,24,24,0,0,1-6.587-4.523c-1.809-1.749-3.454-4.118-3.1-6.819a8.269,8.269,0,0,1,3.076-5,9.867,9.867,0,0,1,6.365-2.54C114.848,277.307,116.909,283.039,118.26,287.811Z" transform="translate(-96.24 -267.298)" fill="#f98c6e"/>
        <path id="Trazado_147252" data-name="Trazado 147252" d="M116.8,291.161c.483.818,1.228,1.228,1.665.915s.4-1.231-.085-2.048-1.229-1.228-1.665-.915S116.317,290.343,116.8,291.161Z" transform="translate(-103.139 -272.166)" fill="#092942"/>
        <path id="Trazado_147253" data-name="Trazado 147253" d="M125.127,289.057c.483.818,1.228,1.228,1.665.915s.4-1.23-.085-2.048-1.228-1.228-1.665-.915S124.643,288.238,125.127,289.057Z" transform="translate(-106.57 -271.299)" fill="#092942"/>
        <path id="Trazado_147254" data-name="Trazado 147254" d="M125.857,294.692a2.407,2.407,0,0,1,.612.091.526.526,0,0,1,.363.469.747.747,0,0,1-.356.554,1.7,1.7,0,0,1-1.947.012,2.208,2.208,0,0,1-.836-1.856c.005-.212.086-.667.371-.577.193.061.318.476.449.63A2.046,2.046,0,0,0,125.857,294.692Z" transform="translate(-106.139 -273.965)" fill="#d1684b"/>
        <g id="Grupo_134076" data-name="Grupo 134076" transform="translate(14.22 23.335)">
          <path id="Trazado_147255" data-name="Trazado 147255" d="M120.853,302.042a2.457,2.457,0,0,0,.533-.2.348.348,0,0,0,.165-.428.273.273,0,0,0-.39-.144,1.87,1.87,0,0,1-1.525.091,1.834,1.834,0,0,1-1.03-1.115.274.274,0,0,0-.382-.165.347.347,0,0,0-.184.42,2.306,2.306,0,0,0,2.812,1.543Z" transform="translate(-118.024 -300.052)" fill="#d1684b"/>
        </g>
        <path id="Trazado_147256" data-name="Trazado 147256" d="M100.913,285.038a7.18,7.18,0,0,0,.36-8.591,46.906,46.906,0,0,0,9.851-2.519,6.048,6.048,0,0,0,3.53-2.508,4.75,4.75,0,0,0,.212-3.211c-.747-3.227-3.194-5.78-5.784-7.845l1.366,4.086a15.411,15.411,0,0,0-4.479-3.313,33.215,33.215,0,0,1,2.2,5.753,16.472,16.472,0,0,0-9.317,1.572,9.242,9.242,0,0,0-5.014,7.616,8.805,8.805,0,0,0,1.989,5.494C97.06,283.132,99.135,284.153,100.913,285.038Z" transform="translate(-93.839 -260.364)" fill="#092942"/>
        <path id="Trazado_147257" data-name="Trazado 147257" d="M103.721,298.124a1.584,1.584,0,0,0-1.2.1,1.481,1.481,0,0,0-.61,1.281,2.739,2.739,0,0,0,.456,1.333,5.645,5.645,0,0,0,3.628,2.6.961.961,0,0,0,.908-.156c.663-.676.093-2.694-.325-3.362A4.769,4.769,0,0,0,103.721,298.124Z" transform="translate(-97.163 -275.894)" fill="#f98c6e"/>
      </g>
      <path id="Trazado_147258" data-name="Trazado 147258" d="M103.185,346.6a72.382,72.382,0,0,0,13.427,8.891,45.452,45.452,0,0,0,12.258,4.1c-.069-1.606-.249-3.535-.516-5.646-1.889-.674-3.759-1.4-5.6-2.2a94.705,94.705,0,0,1-22.684-13.921Q101.581,342.227,103.185,346.6Z" transform="translate(-96.407 -292.283)" fill="#7cb332"/>
      <path id="Trazado_147259" data-name="Trazado 147259" d="M105.317,327.293c1.248,5.183,5.684,9.5,10.964,12.27s11.372,4.176,17.428,5.3a4.076,4.076,0,0,1,.713,1.589,1.534,1.534,0,0,1-.6,1.634,3.177,3.177,0,0,1-1.667.346,41.238,41.238,0,0,1-21.728-5.691A32.719,32.719,0,0,1,96.8,327.188a7.206,7.206,0,0,1-.663-2.882,3.185,3.185,0,0,1,1.4-2.594c1.52-.982,3.833-.47,5.174.687A9.939,9.939,0,0,1,105.317,327.293Z" transform="translate(-94.786 -285.427)" fill="#8dc63f"/>
      <path id="Trazado_147260" data-name="Trazado 147260" d="M181.271,348.733c.253,1.1.218,4.232.435,5.637-10.722,3.882-21.862,5.4-33.32,8.606l-5.434,1.522a2.742,2.742,0,0,1-1.99.044c-.6-.317-.777-1.365-.147-1.622,11.638-4.747,22.812-10.712,34.755-14.627a9.613,9.613,0,0,1,2.766-.605C179.283,347.667,181.06,347.81,181.271,348.733Z" transform="translate(-113.031 -296.343)" fill="#92c6f0"/>
      <g id="Grupo_134078" data-name="Grupo 134078" transform="translate(38.081 35.765)">
        <path id="Trazado_147261" data-name="Trazado 147261" d="M161.654,325.3l27.762-4.088a2.049,2.049,0,0,1,2.317,2.392,177.419,177.419,0,0,0-2.533,19.847c-9.826,1.31-19.234,2.486-30.594,4.212.754-7.666,1.114-13.757,1.3-20.383A2.055,2.055,0,0,1,161.654,325.3Z" transform="translate(-158.606 -321.192)" fill="#92c6f0"/>
        <path id="Trazado_147262" data-name="Trazado 147262" d="M190.251,341.843a2.985,2.985,0,1,1-2.295-3.956A3.259,3.259,0,0,1,190.251,341.843Z" transform="translate(-169.232 -328.055)" fill="#a6d7ff"/>
      </g>
      <path id="Trazado_147263" data-name="Trazado 147263" d="M126.793,388.677a17.374,17.374,0,0,0,10.879-.222c7.887-2.574,14.167-8.476,20.166-14.207,4.151,6,9.2,11.756,13.351,17.753a7.9,7.9,0,0,0,3.322,3.2c1.458.56,5.233-3.961,5.051-5.159a10.725,10.725,0,0,0-1.318-3.368,191.068,191.068,0,0,0-11.595-18.691c-1.579-2.279-3.376-4.677-6.023-5.5-2.759-.858-5.706.215-8.411,1.232-8.707,3.276-15.748,4.327-25.423,7.348C115.72,374.517,121.325,386.708,126.793,388.677Z" transform="translate(-104.791 -302.31)" fill="#092942"/>
      <path id="Trazado_147264" data-name="Trazado 147264" d="M228.683,412.937c.382.075.836.216.925.594.106.455-.4.8-.833.977-4.339,1.812-9.06,2.458-13.72,3.087a3.131,3.131,0,0,1-1.736-.095,2.838,2.838,0,0,1-1.248-1.572,3.754,3.754,0,0,1-.392-2.047,3.344,3.344,0,0,1,1.831-2.194,7.253,7.253,0,0,1,2.538-1.1,14.342,14.342,0,0,1,2.718.505q3.2.57,6.4,1.173Q226.924,412.594,228.683,412.937Z" transform="translate(-142.381 -322.258)" fill="#fff"/>
      <path id="Trazado_147265" data-name="Trazado 147265" d="M176.689,415.555a2.919,2.919,0,0,0-.069,1.95,2.128,2.128,0,0,0,1.307,1.1,6.088,6.088,0,0,0,1.737.237c3.139.115,6.281.105,9.423.1a16.348,16.348,0,0,0,2.633-.149c.487-.081,1.085-.363,1.025-.853-.043-.348-.4-.549-.724-.693q-3.544-1.6-7.171-3-1.84-.714-3.7-1.375c-.7-.249-2.03-1.011-2.8-.7C177.4,412.553,176.948,414.674,176.689,415.555Z" transform="translate(-127.889 -322.88)" fill="#fff"/>
    </g>
  </g>
</svg>
