<svg xmlns="http://www.w3.org/2000/svg" width="366.29" height="224.288" viewBox="0 0 366.29 224.288">
  <g id="Grupo_134239" data-name="Grupo 134239" transform="translate(-5633.183 -306.619)">
    <path id="Trazado_121281" data-name="Trazado 121281" d="M5562.813,751.774c0,5.43,74.753,9.8,166.938,9.8s166.939-4.384,166.939-9.8-74.739-9.8-166.939-9.8S5562.813,746.358,5562.813,751.774Z" transform="translate(70.37 -253.323)" opacity="0.22"/>
    <ellipse id="Elipse_4063" data-name="Elipse 4063" cx="71.119" cy="4.86" rx="71.119" ry="4.86" transform="translate(5857.236 506.976)" opacity="0.22"/>
    <rect id="Rectángulo_30454" data-name="Rectángulo 30454" width="74" height="18.285" transform="translate(5732.165 470.216)" fill="#211b07"/>
    <rect id="Rectángulo_30455" data-name="Rectángulo 30455" width="256.524" height="169.57" rx="19.53" transform="translate(5641.293 306.619)" fill="#213307"/>
    <rect id="Rectángulo_30456" data-name="Rectángulo 30456" width="241.41" height="147.119" rx="12.001" transform="translate(5648.459 312.808)" fill="#78b62e"/>
    <path id="Trazado_121295" data-name="Trazado 121295" d="M5946.35,737.851h115.971c5.973,0,10.813,4.449,10.813,9.937v1.588h-137.6v-1.588C5935.537,742.3,5940.378,737.851,5946.35,737.851Z" transform="translate(-235.179 -250.925)" fill="#213307"/>
    <g id="Grupo_55601" data-name="Grupo 55601" transform="translate(5706.105 322.962)" opacity="0.35">
      <rect id="Rectángulo_30457" data-name="Rectángulo 30457" width="168.918" height="104.319" rx="10.42" transform="translate(0 0)" fill="#fff"/>
    </g>
    <g id="Grupo_55606" data-name="Grupo 55606" transform="translate(5706.116 322.959)" opacity="0.25">
      <rect id="Rectángulo_30458" data-name="Rectángulo 30458" width="7.357" height="16.968" transform="translate(16.047 76.223)" fill="#fca70c"/>
      <rect id="Rectángulo_30459" data-name="Rectángulo 30459" width="7.357" height="31.872" transform="translate(32.623 61.319)" fill="#b1affd"/>
      <rect id="Rectángulo_30460" data-name="Rectángulo 30460" width="7.357" height="28.574" transform="translate(49.214 64.617)" fill="#fca70c"/>
      <rect id="Rectángulo_30461" data-name="Rectángulo 30461" width="7.357" height="44.714" transform="translate(65.789 48.478)" fill="#b1affd"/>
      <g id="Grupo_55602" data-name="Grupo 55602" transform="translate(32.623 61.319)" opacity="0.15">
        <rect id="Rectángulo_30462" data-name="Rectángulo 30462" width="3.383" height="31.872" opacity="0.26" style="isolation: isolate"/>
      </g>
      <g id="Grupo_55603" data-name="Grupo 55603" transform="translate(16.047 76.223)" opacity="0.15">
        <rect id="Rectángulo_30463" data-name="Rectángulo 30463" width="3.383" height="16.968" opacity="0.26" style="isolation: isolate"/>
      </g>
      <g id="Grupo_55604" data-name="Grupo 55604" transform="translate(65.789 48.478)" opacity="0.62">
        <rect id="Rectángulo_30464" data-name="Rectángulo 30464" width="3.383" height="44.714" opacity="0.26" style="isolation: isolate"/>
      </g>
      <g id="Grupo_55605" data-name="Grupo 55605" transform="translate(49.214 64.617)" opacity="0.15">
        <rect id="Rectángulo_30465" data-name="Rectángulo 30465" width="3.383" height="28.574" opacity="0.26" style="isolation: isolate"/>
      </g>
      <path id="Trazado_121296" data-name="Trazado 121296" d="M6041.924,490.091h-65.859V425.668h1v63.5h64.854Z" transform="translate(-5964.878 -392.231)" fill="#d5dbda"/>
      <path id="Trazado_121297" data-name="Trazado 121297" d="M5991.322,468.07l-.665-.7,17.227-14.212,15.954,3.19,17.271-17.674.753.624-17.669,18.067-16.029-3.2Z" transform="translate(-5973.369 -399.801)" fill="#d5dbda"/>
      <path id="Trazado_121298" data-name="Trazado 121298" d="M6109.571,438.29l-4.86-4.29,6.279-1.547Z" transform="translate(-6039.734 -396.179)" fill="#d5dbda"/>
      <rect id="Rectángulo_30466" data-name="Rectángulo 30466" width="5.053" height="4.642" transform="translate(83.28 75.016)" fill="#b1affd"/>
      <rect id="Rectángulo_30467" data-name="Rectángulo 30467" width="5.053" height="4.642" transform="translate(83.28 83.147)" fill="#fca70c"/>
      <rect id="Rectángulo_30468" data-name="Rectángulo 30468" width="16.014" height="2.633" transform="translate(89.722 85.155)" fill="#efefef"/>
      <rect id="Rectángulo_30469" data-name="Rectángulo 30469" width="16.014" height="2.633" transform="translate(89.722 77.024)" fill="#efefef"/>
      <rect id="Rectángulo_30470" data-name="Rectángulo 30470" width="5.053" height="4.642" transform="translate(112.99 75.016)" fill="#b1affd"/>
      <rect id="Rectángulo_30471" data-name="Rectángulo 30471" width="5.053" height="4.642" transform="translate(112.99 83.147)" fill="#fca70c"/>
      <rect id="Rectángulo_30472" data-name="Rectángulo 30472" width="16.014" height="2.633" transform="translate(119.431 85.155)" fill="#efefef"/>
      <rect id="Rectángulo_30473" data-name="Rectángulo 30473" width="16.014" height="2.633" transform="translate(119.431 77.024)" fill="#efefef"/>
      <rect id="Rectángulo_30474" data-name="Rectángulo 30474" width="5.053" height="4.642" transform="translate(139.744 75.016)" fill="#b1affd"/>
      <rect id="Rectángulo_30475" data-name="Rectángulo 30475" width="5.053" height="4.642" transform="translate(139.744 83.147)" fill="#fca70c"/>
      <rect id="Rectángulo_30476" data-name="Rectángulo 30476" width="10.533" height="2.633" transform="translate(146.2 85.155)" fill="#efefef"/>
      <rect id="Rectángulo_30477" data-name="Rectángulo 30477" width="10.533" height="2.633" transform="translate(146.2 77.024)" fill="#efefef"/>
      <rect id="Rectángulo_30478" data-name="Rectángulo 30478" width="72.507" height="1.208" transform="translate(84.226 30.655)" fill="#efefef"/>
      <rect id="Rectángulo_30479" data-name="Rectángulo 30479" width="145.546" height="2.769" transform="translate(11.187 15.791)" fill="#efefef"/>
      <rect id="Rectángulo_30480" data-name="Rectángulo 30480" width="72.729" height="1.208" transform="translate(84.005 34.414)" fill="#efefef"/>
      <rect id="Rectángulo_30481" data-name="Rectángulo 30481" width="72.729" height="1.208" transform="translate(84.005 26.88)" fill="#efefef"/>
      <rect id="Rectángulo_30482" data-name="Rectángulo 30482" width="72.729" height="1.208" transform="translate(84.005 38.188)" fill="#efefef"/>
      <rect id="Rectángulo_30483" data-name="Rectángulo 30483" width="72.729" height="1.208" transform="translate(84.005 41.962)" fill="#efefef"/>
      <rect id="Rectángulo_30484" data-name="Rectángulo 30484" width="72.729" height="1.208" transform="translate(84.005 45.722)" fill="#efefef"/>
      <rect id="Rectángulo_30485" data-name="Rectángulo 30485" width="72.729" height="1.208" transform="translate(84.005 49.495)" fill="#efefef"/>
      <rect id="Rectángulo_30486" data-name="Rectángulo 30486" width="72.729" height="1.208" transform="translate(84.005 53.256)" fill="#efefef"/>
      <rect id="Rectángulo_30487" data-name="Rectángulo 30487" width="72.729" height="1.208" transform="translate(84.005 57.029)" fill="#efefef"/>
      <rect id="Rectángulo_30488" data-name="Rectángulo 30488" width="63.821" height="1.208" transform="translate(92.913 60.789)" fill="#efefef"/>
      <path id="Trazado_121299" data-name="Trazado 121299" d="M6110.815,345.7H5956.7c-4.079,0-7.387,3.039-7.387,6.783v5.959h168.906v-5.959a6.521,6.521,0,0,0-2.169-4.8,7.73,7.73,0,0,0-5.232-1.983Z" transform="translate(-5949.31 -345.697)" fill="#7a7ae5"/>
      <path id="Trazado_121300" data-name="Trazado 121300" d="M6295.378,358.793a1.973,1.973,0,0,1-1.312,1.826,2.283,2.283,0,0,1-2.34-.419,1.856,1.856,0,0,1-.472-2.146,2.153,2.153,0,0,1,1.98-1.218,2.062,2.062,0,0,1,2.142,1.955Z" transform="translate(-6148.188 -352.178)" fill="#cfcfff"/>
      <ellipse id="Elipse_4064" data-name="Elipse 4064" cx="2.127" cy="1.955" rx="2.127" ry="1.955" transform="translate(151.622 4.66)" fill="#cfcfff"/>
      <ellipse id="Elipse_4065" data-name="Elipse 4065" cx="2.127" cy="1.955" rx="2.127" ry="1.955" transform="translate(160.323 4.66)" fill="#cfcfff"/>
    </g>
    <rect id="Rectángulo_30489" data-name="Rectángulo 30489" width="168.918" height="104.319" rx="10.42" transform="translate(5661.238 346.039)" fill="#78b62e" opacity="0.55" style="isolation: isolate"/>
    <rect id="Rectángulo_30490" data-name="Rectángulo 30490" width="168.918" height="104.319" rx="20.595" transform="translate(5664.665 341.98)" fill="#fff"/>
    <rect id="Rectángulo_30491" data-name="Rectángulo 30491" width="7.357" height="16.968" transform="translate(5680.724 418.186)" fill="#fca70c"/>
    <rect id="Rectángulo_30492" data-name="Rectángulo 30492" width="7.357" height="31.872" transform="translate(5697.3 403.294)" fill="#005414"/>
    <rect id="Rectángulo_30493" data-name="Rectángulo 30493" width="7.357" height="28.574" transform="translate(5713.875 406.58)" fill="#fca70c"/>
    <rect id="Rectángulo_30494" data-name="Rectángulo 30494" width="7.357" height="44.714" transform="translate(5730.466 390.453)" fill="#005414"/>
    <g id="Grupo_55607" data-name="Grupo 55607" transform="translate(5697.3 403.294)" opacity="0.15">
      <rect id="Rectángulo_30495" data-name="Rectángulo 30495" width="3.383" height="31.872" transform="translate(0)" opacity="0.26" style="isolation: isolate"/>
    </g>
    <g id="Grupo_55608" data-name="Grupo 55608" transform="translate(5680.724 418.186)" opacity="0.15">
      <rect id="Rectángulo_30496" data-name="Rectángulo 30496" width="3.383" height="16.968" transform="translate(0)" opacity="0.26" style="isolation: isolate"/>
    </g>
    <g id="Grupo_55609" data-name="Grupo 55609" transform="translate(5730.466 390.453)" opacity="0.62">
      <rect id="Rectángulo_30497" data-name="Rectángulo 30497" width="3.383" height="44.714" transform="translate(0)" opacity="0.26" style="isolation: isolate"/>
    </g>
    <g id="Grupo_55610" data-name="Grupo 55610" transform="translate(5713.875 406.58)" opacity="0.15">
      <rect id="Rectángulo_30498" data-name="Rectángulo 30498" width="3.383" height="28.574" transform="translate(0)" opacity="0.26" style="isolation: isolate"/>
    </g>
    <path id="Trazado_121301" data-name="Trazado 121301" d="M5942.8,543.583h-65.845V484.915h1v57.744h64.84Z" transform="translate(-201.092 -103.747)" fill="#d5dbda"/>
    <path id="Trazado_121302" data-name="Trazado 121302" d="M5892.192,513.552l-.679-.7,17.225-14.212,15.956,3.19,17.285-17.674.738.609-17.669,18.08-16.012-3.2Z" transform="translate(-209.563 -103.307)" fill="#d5dbda"/>
    <path id="Trazado_121303" data-name="Trazado 121303" d="M6010.442,483.756l-4.875-4.3,6.293-1.547Z" transform="translate(-275.928 -99.668)" fill="#d5dbda"/>
    <rect id="Rectángulo_30499" data-name="Rectángulo 30499" width="5.053" height="4.642" transform="translate(5747.943 416.991)" fill="#005414"/>
    <rect id="Rectángulo_30500" data-name="Rectángulo 30500" width="5.053" height="4.642" transform="translate(5747.943 425.122)" fill="#fca70c"/>
    <rect id="Rectángulo_30501" data-name="Rectángulo 30501" width="16.014" height="2.633" transform="translate(5754.398 427.131)" fill="#efefef"/>
    <rect id="Rectángulo_30502" data-name="Rectángulo 30502" width="16.014" height="2.633" transform="translate(5754.398 418.987)" fill="#efefef"/>
    <rect id="Rectángulo_30503" data-name="Rectángulo 30503" width="5.053" height="4.642" transform="translate(5777.667 416.991)" fill="#005414"/>
    <rect id="Rectángulo_30504" data-name="Rectángulo 30504" width="5.053" height="4.642" transform="translate(5777.667 425.122)" fill="#fca70c"/>
    <rect id="Rectángulo_30505" data-name="Rectángulo 30505" width="16.014" height="2.633" transform="translate(5784.107 427.131)" fill="#efefef"/>
    <rect id="Rectángulo_30506" data-name="Rectángulo 30506" width="16.014" height="2.633" transform="translate(5784.107 418.987)" fill="#efefef"/>
    <rect id="Rectángulo_30507" data-name="Rectángulo 30507" width="5.053" height="4.642" transform="translate(5804.421 416.991)" fill="#005414"/>
    <rect id="Rectángulo_30508" data-name="Rectángulo 30508" width="5.053" height="4.642" transform="translate(5804.421 425.122)" fill="#fca70c"/>
    <rect id="Rectángulo_30509" data-name="Rectángulo 30509" width="10.533" height="2.633" transform="translate(5810.862 427.131)" fill="#efefef"/>
    <rect id="Rectángulo_30510" data-name="Rectángulo 30510" width="10.533" height="2.633" transform="translate(5810.862 418.987)" fill="#efefef"/>
    <rect id="Rectángulo_30511" data-name="Rectángulo 30511" width="72.507" height="1.208" transform="translate(5748.889 372.63)" fill="#efefef"/>
    <rect id="Rectángulo_30512" data-name="Rectángulo 30512" width="145.546" height="2.769" transform="translate(5675.863 357.753)" fill="#efefef"/>
    <rect id="Rectángulo_30513" data-name="Rectángulo 30513" width="72.729" height="1.208" transform="translate(5748.681 376.391)" fill="#efefef"/>
    <rect id="Rectángulo_30514" data-name="Rectángulo 30514" width="72.729" height="1.208" transform="translate(5748.681 368.857)" fill="#efefef"/>
    <rect id="Rectángulo_30515" data-name="Rectángulo 30515" width="72.729" height="1.208" transform="translate(5748.681 380.164)" fill="#efefef"/>
    <rect id="Rectángulo_30516" data-name="Rectángulo 30516" width="72.729" height="1.208" transform="translate(5748.681 383.924)" fill="#efefef"/>
    <rect id="Rectángulo_30517" data-name="Rectángulo 30517" width="72.729" height="1.208" transform="translate(5748.681 387.698)" fill="#efefef"/>
    <rect id="Rectángulo_30518" data-name="Rectángulo 30518" width="72.729" height="1.208" transform="translate(5748.681 391.458)" fill="#efefef"/>
    <rect id="Rectángulo_30519" data-name="Rectángulo 30519" width="72.729" height="1.208" transform="translate(5748.681 395.232)" fill="#efefef"/>
    <rect id="Rectángulo_30520" data-name="Rectángulo 30520" width="72.729" height="1.208" transform="translate(5748.681 398.992)" fill="#efefef"/>
    <rect id="Rectángulo_30521" data-name="Rectángulo 30521" width="63.821" height="1.208" transform="translate(5757.575 402.766)" fill="#efefef"/>
    <path id="Trazado_121304" data-name="Trazado 121304" d="M6011.71,391.19H5857.6c-4.079,0-7.387,3.038-7.387,6.783v5.959h168.9v-5.959a6.523,6.523,0,0,0-2.169-4.8A7.732,7.732,0,0,0,6011.71,391.19Z" transform="translate(-185.529 -49.21)" fill="#93ac67"/>
    <path id="Trazado_121305" data-name="Trazado 121305" d="M6196.23,404.278a1.969,1.969,0,0,1-1.315,1.826,2.281,2.281,0,0,1-2.341-.424,1.853,1.853,0,0,1-.462-2.151,2.155,2.155,0,0,1,1.991-1.209A2.045,2.045,0,0,1,6196.23,404.278Z" transform="translate(-384.38 -55.685)" fill="#cfcfff"/>
    <path id="Trazado_121306" data-name="Trazado 121306" d="M6217.149,404.279a1.969,1.969,0,0,1-1.315,1.826,2.281,2.281,0,0,1-2.341-.424,1.855,1.855,0,0,1-.462-2.151,2.155,2.155,0,0,1,1.991-1.209A2.06,2.06,0,0,1,6217.149,404.279Z" transform="translate(-396.552 -55.686)" fill="#cfcfff"/>
    <path id="Trazado_121307" data-name="Trazado 121307" d="M6237.855,404.282a1.97,1.97,0,0,1-1.312,1.826,2.284,2.284,0,0,1-2.34-.418,1.855,1.855,0,0,1-.471-2.146,2.15,2.15,0,0,1,1.979-1.218A2.061,2.061,0,0,1,6237.855,404.282Z" transform="translate(-408.601 -55.689)" fill="#cfcfff"/>
    <g id="Grupo_55611" data-name="Grupo 55611" transform="translate(5867.972 346.011)" opacity="0.35">
      <path id="Trazado_121309" data-name="Trazado 121309" d="M6366.257,442.911V400.83c-6.84,8.226-13.621,15.611-20.461,23.837-2.957,3.57-14.6,15.393-6.663,20.144,2.023,1.208,5.554,1.154,7.387,1.263,6.324.407,12.587-1.195,18.748-2.8A4.664,4.664,0,0,1,6366.257,442.911Z" transform="translate(-6336.411 -400.83)" fill="#5851bc"/>
    </g>
    <path id="Trazado_121310" data-name="Trazado 121310" d="M6374.051,517.385l-3.812.271-.074-.2-2.957.217-.886-2.321a3.845,3.845,0,0,0-3.739-2.174,2.081,2.081,0,0,0-1.713.824,1.73,1.73,0,0,0-.177,1.769c.147.407.591,1.534.885,2.294l-3.116.231v.2l-6.427.448c-1,0-2.512,1.208-2.187,2.05v.122a1.4,1.4,0,0,0,0,.23l5.56,14.4-.148,60.664h6.574l12.2-43.574Zm-10.032-.448a2.172,2.172,0,0,1-2.1-1.218.985.985,0,0,1,.1-.995,1.183,1.183,0,0,1,.957-.471,2.191,2.191,0,0,1,2.1,1.218.987.987,0,0,1-.131.965,1.18,1.18,0,0,1-.933.46Z" transform="translate(-476.232 -120.185)" fill="#5851bc" opacity="0.35" style="isolation: isolate"/>
    <rect id="Rectángulo_30522" data-name="Rectángulo 30522" width="99.735" height="105.974" rx="14.455" transform="translate(5886.265 407.15)" fill="#78b62e"/>
    <rect id="Rectángulo_30523" data-name="Rectángulo 30523" width="84.341" height="21.773" rx="3.681" transform="translate(5895.483 418.24)" fill="#005414"/>
    <rect id="Rectángulo_30524" data-name="Rectángulo 30524" width="21.687" height="13.818" rx="3.681" transform="translate(5895.483 447.723)" fill="#005414"/>
    <rect id="Rectángulo_30525" data-name="Rectángulo 30525" width="21.687" height="13.818" rx="3.681" transform="translate(5926.818 447.723)" fill="#005414"/>
    <rect id="Rectángulo_30526" data-name="Rectángulo 30526" width="21.687" height="13.818" rx="3.681" transform="translate(5958.152 447.723)" fill="#005414"/>
    <rect id="Rectángulo_30527" data-name="Rectángulo 30527" width="21.687" height="13.818" rx="3.681" transform="translate(5895.483 469.931)" fill="#005414"/>
    <rect id="Rectángulo_30528" data-name="Rectángulo 30528" width="21.687" height="13.818" rx="3.681" transform="translate(5926.818 469.931)" fill="#005414"/>
    <rect id="Rectángulo_30529" data-name="Rectángulo 30529" width="21.687" height="13.818" rx="3.681" transform="translate(5895.483 492.152)" fill="#005414"/>
    <rect id="Rectángulo_30530" data-name="Rectángulo 30530" width="21.687" height="13.818" rx="3.681" transform="translate(5926.818 492.152)" fill="#005414"/>
    <rect id="Rectángulo_30531" data-name="Rectángulo 30531" width="21.687" height="36.026" rx="3.681" transform="translate(5958.152 469.931)" fill="#005414"/>
    <g id="Grupo_55612" data-name="Grupo 55612" transform="translate(5893.962 416.827)" opacity="0.45">
      <path id="Trazado_121312" data-name="Trazado 121312" d="M6398.572,572.6a2.516,2.516,0,0,1,2.615-2.4h79.136a2.515,2.515,0,0,1,2.615,2.4V589.56a2.528,2.528,0,0,1-2.615,2.416h-79.136" transform="translate(-6398.572 -570.197)" fill="#005414"/>
      <rect id="Rectángulo_30532" data-name="Rectángulo 30532" width="21.687" height="13.818" rx="3.681" transform="translate(0 29.485)" fill="#005414"/>
      <rect id="Rectángulo_30533" data-name="Rectángulo 30533" width="21.687" height="13.818" rx="3.681" transform="translate(31.319 29.485)" fill="#005414"/>
      <rect id="Rectángulo_30534" data-name="Rectángulo 30534" width="21.687" height="13.818" rx="3.681" transform="translate(62.654 29.485)" fill="#005414"/>
      <rect id="Rectángulo_30535" data-name="Rectángulo 30535" width="21.687" height="13.818" rx="3.681" transform="translate(0 51.707)" fill="#005414"/>
      <rect id="Rectángulo_30536" data-name="Rectángulo 30536" width="21.687" height="13.818" rx="3.681" transform="translate(31.319 51.707)" fill="#005414"/>
      <rect id="Rectángulo_30537" data-name="Rectángulo 30537" width="21.687" height="13.818" rx="3.681" transform="translate(0 73.914)" fill="#005414"/>
      <rect id="Rectángulo_30538" data-name="Rectángulo 30538" width="21.687" height="13.818" rx="3.681" transform="translate(31.319 73.914)" fill="#005414"/>
    </g>
    <rect id="Rectángulo_30539" data-name="Rectángulo 30539" width="21.687" height="36.026" rx="3.681" transform="translate(5956.616 468.533)" fill="#f5ca56"/>
    <path id="Trazado_121313" data-name="Trazado 121313" d="M6549.954,728.856v-31.22a2.528,2.528,0,0,1,2.614-2.416H6569a2.857,2.857,0,0,1,.9.163,2.6,2.6,0,0,0-2.436-1.565h-16.431a2.517,2.517,0,0,0-2.615,2.4v31.22a2.407,2.407,0,0,0,1.7,2.253,2.279,2.279,0,0,1-.162-.842Z" transform="translate(-591.801 -225.301)" fill="#f9c110"/>
    <path id="Trazado_121314" data-name="Trazado 121314" d="M6380.163,587.478l2.674,6.461h11.169s-.769,27.922-.812,33.162,4.684,41.36,4.684,41.36h6.471l-.679-45.542,9.188-23.375s6.9,31.288,9.766,36.515,18.245,32.4,18.245,32.4h5.913l-15.246-59.9-6.55-20.806-32.974-14.175-11.818,1.073" transform="translate(-493.898 -155.337)" fill="#5851bc" opacity="0.35" style="isolation: isolate"/>
    <ellipse id="Elipse_4068" data-name="Elipse 4068" cx="42.384" cy="4.099" rx="42.384" ry="4.099" transform="translate(5886.339 522.708)" opacity="0.22"/>
    <path id="Trazado_121381" data-name="Trazado 121381" d="M6413.632,817.741a10.805,10.805,0,0,1-4.435,3.081c-2.364.963-7.387,1.357-4.58,2.267a18.035,18.035,0,0,0,7.668.094,36.118,36.118,0,0,1,5.17-.285c2.541,0,2.571-.163,2.216-2.81C6419.2,816.452,6414.77,815.678,6413.632,817.741Z" transform="translate(-507.645 -296.757)" fill="#858585"/>
    <path id="Trazado_121382" data-name="Trazado 121382" d="M6530.143,813.65c-.147.733.99,2.956-1.033,4.588s-6.649,3.353-3.591,3.421a19.1,19.1,0,0,0,7.55-1.357c1.479-.706.311-1.819,2.23-2.376,2.541-.733,2.023-2.457.7-3.516C6534.309,810.976,6530.6,811.274,6530.143,813.65Z" transform="translate(-577.886 -293.982)" fill="#858585"/>
    <path id="Trazado_121383" data-name="Trazado 121383" d="M6462.92,597.111s6.088-16.452-11.184-30c0,0-9.247,3.392-16.663,3.8a44.176,44.176,0,0,1-8.864-.174s-.488,14.61-.5,22.479Z" transform="translate(-520.398 -151.574)" fill="#213307"/>
    <path id="Trazado_121384" data-name="Trazado 121384" d="M6422.479,696.835c-.34-7.344,8.349-6.38,11.539-.9,6.618,11.362-2.436,37.519-3.635,49.917a7.471,7.471,0,0,1-4.579.261,3.036,3.036,0,0,1-1.33-1.358C6424.666,729.563,6422.833,704.708,6422.479,696.835Z" transform="translate(-518.515 -223.999)" fill="#213307"/>
    <path id="Trazado_121385" data-name="Trazado 121385" d="M6433.606,642.63c-1,3-12.069,6.149-11.184-4.778.4-4.846,1.479-31.6,1.669-34.177s.68-6.353,2.039-6.783c6.783-2.348,18.778,5.81,16.99,15.488C6442,618.807,6435.733,636.453,6433.606,642.63Z" transform="translate(-518.458 -168.667)" fill="#213307"/>
    <path id="Trazado_121386" data-name="Trazado 121386" d="M6490.372,707.963c-2.689-6.936,6.013-8.145,10.947-3.9,11.554,10,12,33.583,14.773,45.742a10.614,10.614,0,0,1-5.053,1.358,1.845,1.845,0,0,1-1.374-.639C6505.026,735.922,6493.222,715.374,6490.372,707.963Z" transform="translate(-557.732 -229.832)" fill="#213307"/>
    <path id="Trazado_121387" data-name="Trazado 121387" d="M6487.117,648.1c.3,3.122-8.864,9.583-12.558-.842-1.625-4.629-8.509-31.981-9.381-34.452s-.634-7.534.444-8.443c5.319-4.522,17.344-.543,19.649,9.054C6486.8,619.753,6486.495,641.552,6487.117,648.1Z" transform="translate(-543.057 -172.165)" fill="#213307"/>
    <path id="Trazado_121388" data-name="Trazado 121388" d="M6404.685,405.616c.311-.312.619-.609.9-.95,2.186-2.566,2.512-4.846,4.534-7.833a25.027,25.027,0,0,1,1.479-2.579,11.664,11.664,0,0,1,3.294-2.484c.944-.462.133,1.466.133,1.466s.8-1.072,1.581-1c.295,0,.354,1.67.354,1.955a12.779,12.779,0,0,1-1.652,6.488,3.2,3.2,0,0,0-.576,1.478,3.765,3.765,0,0,0,1.92-.87,2.412,2.412,0,0,1,1.994-.53,4.625,4.625,0,0,1-.385.76,8.211,8.211,0,0,1-3.5,3.8c-.989.435-2.142.516-3.1.991-1.758.855-2.6,2.837-4.435,3.638" transform="translate(-508.166 -49.505)" fill="#f2a181"/>
    <path id="Trazado_121427" data-name="Trazado 121427" d="M6421.5,393.207l5.371,2.064a.783.783,0,0,1,.491.992c-.007.018-.013.036-.021.053l-4.694,10.322a.9.9,0,0,1-1.139.429L6416.138,405a.783.783,0,0,1-.489-.993l.02-.051,4.688-10.323A.9.9,0,0,1,6421.5,393.207Z" transform="translate(-514.522 -50.345)"/>
    <path id="Trazado_121428" data-name="Trazado 121428" d="M6422.226,394.755l5.847,2.247-4.795,10.532-5.847-2.247Z" transform="translate(-515.583 -51.284)" fill="#858585"/>
    <path id="Trazado_121389" data-name="Trazado 121389" d="M6388.88,434.074a44.833,44.833,0,0,0-8.451,1.357c-6.013,1.652-8.081,4.208-10.165,5.267,4.034-4.71,8.539-14.7,8.539-14.7s-5.437-4.073-6.057-3.122-23.386,25.451-22.677,29.415c.295,1.629,2.957,3.245,5.259,3.177,6.457-.2,13.961-2.362,21.821-4.724,3.442-1.044,4.521,1.2,4.521,1.2" transform="translate(-476.378 -67.565)" fill="#4c731d"/>
    <path id="Trazado_121390" data-name="Trazado 121390" d="M6393,462.066s-2.87,5.305-3.724,5.661,2.087-1.113,3.693-2.633a30.624,30.624,0,0,0,3.827-5.566,34.615,34.615,0,0,0-3.8,2.538Z" transform="translate(-499.114 -88.974)" fill="#005414"/>
    <path id="Trazado_121391" data-name="Trazado 121391" d="M6415.017,404.077a1.115,1.115,0,0,1,.4.828,5.971,5.971,0,0,1-.1,3.529,5.294,5.294,0,0,1-1.478,1.805,12.227,12.227,0,0,1-2.334,1.466" transform="translate(-512.132 -56.709)" fill="#f2a181"/>
    <path id="Trazado_121392" data-name="Trazado 121392" d="M6437.52,382.944c-1.479.407-2.32,2.212-2.837,3.434a18.09,18.09,0,0,0-1.138,4.656,5.7,5.7,0,0,0,.251,3.258,6.349,6.349,0,0,0,.99,1.357,3,3,0,0,0,.709.7,1.172,1.172,0,0,0,.99.15c.473-.163.665-.679.8-1.131a28.591,28.591,0,0,1,3.634-8.443" transform="translate(-524.884 -44.412)"/>
    <path id="Trazado_121393" data-name="Trazado 121393" d="M6434.96,403.671c0-.937-1.107-1.534-2.022-.57a5.609,5.609,0,0,0-1.021,3.434c0,1.358,1.079,1.616,2.01,1.805" transform="translate(-524.01 -55.855)" fill="#f2a181"/>
    <path id="Trazado_121394" data-name="Trazado 121394" d="M6413.945,454.392c1.875-1.982,7.845-5.24,15.792-5.009,5.5.163,20.432.99,22.16,4.371.856,1.724,1.773,19.37.518,25.451-.99,4.588-3.428,15.991-3.428,18.706s1.6,3.913.857,4.71c-1.67,1.779-13.1,2.522-18.467,2.522-4.783,0-12.912-1.167-13.3-2.579-.622-2.087.93-2.009,1.137-4.194s.813-16.4,0-18.719c-1.581-4.194-2.348-11.036-3.6-14.145C6414.6,463.107,6412.057,456.374,6413.945,454.392Z" transform="translate(-513.16 -83.065)" fill="#4c731d"/>
    <path id="Trazado_121395" data-name="Trazado 121395" d="M6468.655,495.378c.576,1.086,4.435,6.783,4.435,6.783l.163.7a25.945,25.945,0,0,1-.4,3.043c-.931,4.6-3.368,16-3.368,18.719s1.478,3.869.856,4.71c-1.315,1.642-22.872,5.334-21.821.747.1-.407,18.1-13.031,18.186-13.452.843-3.625,1.552-6.231,1.921-8.864C6469.482,501.337,6468.094,494.291,6468.655,495.378Z" transform="translate(-533.652 -109.77)" fill="#005414"/>
    <path id="Trazado_121396" data-name="Trazado 121396" d="M6439.683,429.265a50.01,50.01,0,0,1-.311,5.972,10.265,10.265,0,0,1-1.479.774s.87,4.982,2.23,4.615,10.342-4.533,10.342-4.533-1.271-.489-1.271-.95,1.2-9.5,1.2-9.5" transform="translate(-527.49 -69.256)" fill="#ffbe9d"/>
    <path id="Trazado_121397" data-name="Trazado 121397" d="M6442.772,384.437c-1.3.326-4.757-.339-5.717.978a29.588,29.588,0,0,0-2.143,5.43,52.373,52.373,0,0,0-1.685,5.43c-.679,2.335-1.788,6.624.709,8.579a3.358,3.358,0,0,0,1.92.9c1.182.2,2.348.421,3.531.609a12.718,12.718,0,0,0,5.672.122c2.423-.733,3.752-3.8,4.435-5.878l3.56-11.914Z" transform="translate(-524.286 -45.281)" fill="#ffbe9d"/>
    <path id="Trazado_121398" data-name="Trazado 121398" d="M6439.726,466.833s-.532,22.411-1.478,36.039l3.59,4.547,2.466-5.7A159.785,159.785,0,0,0,6441.97,467Z" transform="translate(-527.696 -93.225)" fill="#005414"/>
    <path id="Trazado_121399" data-name="Trazado 121399" d="M6439.805,460.154l.087.312a5.426,5.426,0,0,0,.738,1.652h0l2.2.163s1.478-.719,1.684-1.507-2.452-2.036-2.452-2.036l-.326.123a4.528,4.528,0,0,0-1.9,1.263Z" transform="translate(-528.602 -88.515)" fill="#005414"/>
    <path id="Trazado_121400" data-name="Trazado 121400" d="M6453.732,445.017a9.076,9.076,0,0,1,2.511,2.348c-1.137,2.376-3.693,6.6-6.5,8.522a12,12,0,0,0-4.435-5.131S6452.949,449.511,6453.732,445.017Z" transform="translate(-531.804 -80.531)" fill="#fff"/>
    <path id="Trazado_121401" data-name="Trazado 121401" d="M6438.862,451.191a9.184,9.184,0,0,0-4.436,3.827,17.691,17.691,0,0,1,.592-7.1s1.8-2.118,2.423-2.158a10.44,10.44,0,0,0,1.418,5.43Z" transform="translate(-525.399 -80.963)" fill="#fff"/>
    <path id="Trazado_121402" data-name="Trazado 121402" d="M6438.383,578.448a8.3,8.3,0,0,0-5.275,2.715c-.133.122-.266.261-.236.421s.3.286.518.312c1.257.191,1.479-.543,2.66-1l2.378-.937" transform="translate(-524.565 -158.172)" fill="#f2a181"/>
    <path id="Trazado_121403" data-name="Trazado 121403" d="M6391,533.088l9.661,28.505a.949.949,0,0,1-.132.918,1.138,1.138,0,0,1-.887.439l-20.21,1.629a1.873,1.873,0,0,1-1.7-1.195l-10.342-28.017c-.251-.76.946-1.846,1.759-1.859l20.15-1.615a1.826,1.826,0,0,1,1.7,1.2Z" transform="translate(-486.447 -131.082)" fill="#e9e6ff"/>
    <path id="Trazado_121404" data-name="Trazado 121404" d="M6390.419,535.011l9.529,28a.95.95,0,0,1-.08.977,1.137,1.137,0,0,1-.939.462l-20.152,1.67a1.861,1.861,0,0,1-1.7-1.2l-9.514-28a.952.952,0,0,1,.134-.918,1.137,1.137,0,0,1,.887-.439l20.151-1.629A1.863,1.863,0,0,1,6390.419,535.011Z" transform="translate(-486.531 -132.273)" fill="#858585"/>
    <path id="Trazado_121405" data-name="Trazado 121405" d="M6383.838,533.287l.709,2.457,9.425-.76-.768-2.443Z" transform="translate(-496.036 -131.459)" fill="#fff"/>
    <path id="Trazado_121406" data-name="Trazado 121406" d="M6387.866,525.6c.207.57.945,2.783.945,2.783l4.505-.38-.946-2.783a3.042,3.042,0,0,0-2.956-1.968,1.858,1.858,0,0,0-1.437.805A1.564,1.564,0,0,0,6387.866,525.6Zm1,0a.868.868,0,0,1,.024-.887,1.034,1.034,0,0,1,.818-.47,1.71,1.71,0,0,1,1.685,1.1.885.885,0,0,1-.038.886,1.044,1.044,0,0,1-.818.471,1.7,1.7,0,0,1-1.67-1.154Z" transform="translate(-498.291 -126.054)" fill="#fff"/>
    <path id="Trazado_121407" data-name="Trazado 121407" d="M6445.17,573.642c-2.112.407-7.739,1.941-8.332,2.2a25.422,25.422,0,0,0-3.59,2.443c-2.127,1.955-1.048,2.865-1.876,5.511a1.324,1.324,0,0,0,0,.421c0,.285.413.516.827.261.221.339.869.135,1.181-.244,0,.271.4.434,1.05.109.354-.174.295-.163,1.093-.828a8.556,8.556,0,0,1,2.3-1.276,17.769,17.769,0,0,0,2.23-.95c.856-.516,2.378-.638,3.131-2.877a2.444,2.444,0,0,1,1.182-1.086l3.442-1.982" transform="translate(-523.686 -155.375)" fill="#ffbe9d"/>
    <path id="Trazado_121408" data-name="Trazado 121408" d="M6472.688,468.013c.886,2.932,4.624,23.28,4.624,23.28L6456.3,505.275l1.739,4.221s25.115-7.751,27.124-13.045,1.875-29.253-5.1-37.655a16.009,16.009,0,0,0-6.678-4.073" transform="translate(-538.203 -86.179)" fill="#4c731d"/>
    <path id="Trazado_121409" data-name="Trazado 121409" d="M6439.547,591.173l-.517.435a7.09,7.09,0,0,0-1.093.991c-.354.394-.709.8-1,1.086a4.014,4.014,0,0,1-.547.448,9.365,9.365,0,0,1,1.286-1.751,4.731,4.731,0,0,1,1.256-.9Z" transform="translate(-526.612 -165.576)" fill="#f2a181"/>
    <path id="Trazado_121410" data-name="Trazado 121410" d="M6436.862,588.186a3.119,3.119,0,0,0-.591.625,8.4,8.4,0,0,0-.517.678l-.281.394a3.685,3.685,0,0,0-.236.407,9.664,9.664,0,0,1-1.479,2.28,8.3,8.3,0,0,1,.34-.774c.222-.448.518-1.044.827-1.629a5.912,5.912,0,0,1,1.212-1.478A2.96,2.96,0,0,1,6436.862,588.186Z" transform="translate(-525.084 -163.838)" fill="#f2a181"/>
    <path id="Trazado_121411" data-name="Trazado 121411" d="M6434.608,585.622a6.151,6.151,0,0,1-.5.665c-.162.189-.369.394-.547.638a4.969,4.969,0,0,0-.4.828c-.251.583-.487,1.181-.679,1.629s-.311.747-.311.747a4.8,4.8,0,0,1,.088-.8,6.578,6.578,0,0,1,.591-1.7,4.569,4.569,0,0,1,.5-.855,8.559,8.559,0,0,1,.634-.6,5.37,5.37,0,0,0,.621-.556Z" transform="translate(-524.159 -162.346)" fill="#f2a181"/>
    <path id="Trazado_121412" data-name="Trazado 121412" d="M6452.293,392.057c-.812-.448-1.479-.909-1.979-.19-.3.394-.459.923-.946,1.044a.957.957,0,0,1-1.107-.706,2.515,2.515,0,0,1,.174-1.358c.34-.977.666-1.955,1-2.932a4.052,4.052,0,0,0,.221-2.932,3.343,3.343,0,0,0-1-1.195,11.3,11.3,0,0,0-4.9-2,52.972,52.972,0,0,1-5.274-.991,5.786,5.786,0,0,1-2.009-.923,3.935,3.935,0,0,1-1.479-2.986,5.725,5.725,0,0,1,1.034-3.19,4.512,4.512,0,0,0,.518,1.113,4.207,4.207,0,0,1,.956-1.358c.518,2.62,12.558,1.751,15.363,2.9,1.95.8,3.561,1.358,3.5,4.235a1.154,1.154,0,0,0,.384.462,7.834,7.834,0,0,1,2.689,5.864c.266,3.217-1.773,6.706-3.782,9.366a6.249,6.249,0,0,1-1.479,1.629,4.268,4.268,0,0,1-2.792.583c-.87-.163-2.586-.095-2.6-.9,0-.584,1.345-1.616,1.714-2.087" transform="translate(-525.8 -38.892)"/>
    <path id="Trazado_121413" data-name="Trazado 121413" d="M6468.809,419.6a1.131,1.131,0,0,0,.222.963,1.423,1.423,0,0,0,1.479.191,3.584,3.584,0,0,0,2.393-2.715c.281-1.357-.531-2.783-1.92-2.416a1.862,1.862,0,0,0-1.3,1.831" transform="translate(-545.462 -63.391)" fill="#ffbe9d"/>
    <path id="Trazado_121414" data-name="Trazado 121414" d="M6442.112,435.6l3.872.651a5.688,5.688,0,0,1-3.914,1.358" transform="translate(-529.92 -75.052)" fill="#f2a181"/>
  </g>
</svg>
