<svg xmlns="http://www.w3.org/2000/svg" width="313" height="163" viewBox="0 0 313 163">
  <g id="Grupo_134896" data-name="Grupo 134896" transform="translate(-644 -1523)">
    <g id="Grupo_134106" data-name="Grupo 134106" transform="translate(-207 587)">
      <path id="Rectángulo_34846" data-name="Rectángulo 34846" d="M0,0H271a42,42,0,0,1,42,42V163a0,0,0,0,1,0,0H42A42,42,0,0,1,0,121V0A0,0,0,0,1,0,0Z" transform="translate(851 936)" fill="#3c6d9d"/>
      <path id="Trazado_145971" data-name="Trazado 145971" d="M8.18,0A8.18,8.18,0,1,1,0,8.18,8.18,8.18,0,0,1,8.18,0Z" transform="translate(885.317 1062.538)" fill="#64b5f6" opacity="0.444" style="mix-blend-mode: multiply;isolation: isolate"/>
      <g id="Grupo_78276" data-name="Grupo 78276" transform="translate(1089.437 1030.84)">
        <g id="Grupo_53306" data-name="Grupo 53306" transform="translate(0)">
          <path id="Trazado_99200" data-name="Trazado 99200" d="M415.5,50.837a.642.642,0,1,1-.642-.613A.628.628,0,0,1,415.5,50.837Z" transform="translate(-414.214 -50.224)" fill="#fff"/>
          <path id="Trazado_99200_-_Contorno" data-name="Trazado 99200 - Contorno" d="M414.855,49.724a1.113,1.113,0,1,1-1.141,1.113A1.129,1.129,0,0,1,414.855,49.724Z" transform="translate(-414.214 -50.224)" fill="#fff"/>
          <path id="Trazado_99201" data-name="Trazado 99201" d="M423.942,50.837a.642.642,0,1,1-.641-.613A.627.627,0,0,1,423.942,50.837Z" transform="translate(-416.89 -50.224)" fill="#fff"/>
          <path id="Trazado_99201_-_Contorno" data-name="Trazado 99201 - Contorno" d="M423.3,49.724a1.113,1.113,0,1,1-1.141,1.113A1.128,1.128,0,0,1,423.3,49.724Z" transform="translate(-416.89 -50.224)" fill="#fff"/>
          <path id="Trazado_99202" data-name="Trazado 99202" d="M432.388,50.837a.642.642,0,1,1-.641-.613A.627.627,0,0,1,432.388,50.837Z" transform="translate(-419.566 -50.224)" fill="#fff"/>
          <path id="Trazado_99202_-_Contorno" data-name="Trazado 99202 - Contorno" d="M431.747,49.724a1.113,1.113,0,1,1-1.142,1.113A1.128,1.128,0,0,1,431.747,49.724Z" transform="translate(-419.566 -50.224)" fill="#fff"/>
          <path id="Trazado_99203" data-name="Trazado 99203" d="M440.835,50.837a.642.642,0,1,1-.641-.613A.628.628,0,0,1,440.835,50.837Z" transform="translate(-422.243 -50.224)" fill="#fff"/>
          <path id="Trazado_99203_-_Contorno" data-name="Trazado 99203 - Contorno" d="M440.194,49.724a1.113,1.113,0,1,1-1.141,1.113A1.129,1.129,0,0,1,440.194,49.724Z" transform="translate(-422.243 -50.224)" fill="#fff"/>
          <path id="Trazado_99204" data-name="Trazado 99204" d="M449.281,50.837a.642.642,0,1,1-.641-.613A.627.627,0,0,1,449.281,50.837Z" transform="translate(-424.919 -50.224)" fill="#fff"/>
          <path id="Trazado_99204_-_Contorno" data-name="Trazado 99204 - Contorno" d="M448.64,49.724a1.113,1.113,0,1,1-1.141,1.113A1.128,1.128,0,0,1,448.64,49.724Z" transform="translate(-424.919 -50.224)" fill="#fff"/>
          <path id="Trazado_99205" data-name="Trazado 99205" d="M457.727,50.837a.642.642,0,1,1-.641-.613A.627.627,0,0,1,457.727,50.837Z" transform="translate(-427.595 -50.224)" fill="#fff"/>
          <path id="Trazado_99205_-_Contorno" data-name="Trazado 99205 - Contorno" d="M457.086,49.724a1.113,1.113,0,1,1-1.141,1.113A1.128,1.128,0,0,1,457.086,49.724Z" transform="translate(-427.595 -50.224)" fill="#fff"/>
          <path id="Trazado_99206" data-name="Trazado 99206" d="M466.174,50.837a.642.642,0,1,1-.641-.613A.628.628,0,0,1,466.174,50.837Z" transform="translate(-430.272 -50.224)" fill="#fff"/>
          <path id="Trazado_99206_-_Contorno" data-name="Trazado 99206 - Contorno" d="M465.533,49.724a1.113,1.113,0,1,1-1.141,1.113A1.129,1.129,0,0,1,465.533,49.724Z" transform="translate(-430.272 -50.224)" fill="#fff"/>
          <path id="Trazado_99207" data-name="Trazado 99207" d="M474.62,50.837a.642.642,0,1,1-.641-.613A.627.627,0,0,1,474.62,50.837Z" transform="translate(-432.948 -50.224)" fill="#fff"/>
          <path id="Trazado_99207_-_Contorno" data-name="Trazado 99207 - Contorno" d="M473.98,49.724a1.113,1.113,0,1,1-1.141,1.113A1.128,1.128,0,0,1,473.98,49.724Z" transform="translate(-432.948 -50.224)" fill="#fff"/>
          <path id="Trazado_99208" data-name="Trazado 99208" d="M483.066,50.837a.642.642,0,1,1-.641-.613A.627.627,0,0,1,483.066,50.837Z" transform="translate(-435.624 -50.224)" fill="#fff"/>
          <path id="Trazado_99208_-_Contorno" data-name="Trazado 99208 - Contorno" d="M482.425,49.724a1.113,1.113,0,1,1-1.142,1.113A1.128,1.128,0,0,1,482.425,49.724Z" transform="translate(-435.624 -50.224)" fill="#fff"/>
          <path id="Trazado_99209" data-name="Trazado 99209" d="M491.513,50.837a.642.642,0,1,1-.641-.613A.628.628,0,0,1,491.513,50.837Z" transform="translate(-438.301 -50.224)" fill="#fff"/>
          <path id="Trazado_99209_-_Contorno" data-name="Trazado 99209 - Contorno" d="M490.872,49.724a1.113,1.113,0,1,1-1.141,1.113A1.129,1.129,0,0,1,490.872,49.724Z" transform="translate(-438.301 -50.224)" fill="#fff"/>
          <path id="Trazado_99210" data-name="Trazado 99210" d="M499.959,50.837a.642.642,0,1,1-.641-.613A.628.628,0,0,1,499.959,50.837Z" transform="translate(-440.977 -50.224)" fill="#fff"/>
          <path id="Trazado_99210_-_Contorno" data-name="Trazado 99210 - Contorno" d="M499.318,49.724a1.113,1.113,0,1,1-1.141,1.113A1.129,1.129,0,0,1,499.318,49.724Z" transform="translate(-440.977 -50.224)" fill="#fff"/>
        </g>
        <g id="Grupo_53307" data-name="Grupo 53307" transform="translate(0 4.905)">
          <path id="Trazado_99211" data-name="Trazado 99211" d="M415.5,58.345a.642.642,0,1,1-.642-.613A.628.628,0,0,1,415.5,58.345Z" transform="translate(-414.214 -57.732)" fill="#fff"/>
          <path id="Trazado_99211_-_Contorno" data-name="Trazado 99211 - Contorno" d="M414.855,57.232a1.113,1.113,0,1,1-1.141,1.113A1.129,1.129,0,0,1,414.855,57.232Z" transform="translate(-414.214 -57.732)" fill="#fff"/>
          <path id="Trazado_99212" data-name="Trazado 99212" d="M423.942,58.345a.642.642,0,1,1-.641-.613A.627.627,0,0,1,423.942,58.345Z" transform="translate(-416.89 -57.732)" fill="#fff"/>
          <path id="Trazado_99212_-_Contorno" data-name="Trazado 99212 - Contorno" d="M423.3,57.232a1.113,1.113,0,1,1-1.141,1.113A1.128,1.128,0,0,1,423.3,57.232Z" transform="translate(-416.89 -57.732)" fill="#fff"/>
          <path id="Trazado_99213" data-name="Trazado 99213" d="M432.388,58.345a.642.642,0,1,1-.641-.613A.627.627,0,0,1,432.388,58.345Z" transform="translate(-419.566 -57.732)" fill="#fff"/>
          <path id="Trazado_99213_-_Contorno" data-name="Trazado 99213 - Contorno" d="M431.747,57.232a1.113,1.113,0,1,1-1.142,1.113A1.128,1.128,0,0,1,431.747,57.232Z" transform="translate(-419.566 -57.732)" fill="#fff"/>
          <path id="Trazado_99214" data-name="Trazado 99214" d="M440.835,58.345a.642.642,0,1,1-.641-.613A.628.628,0,0,1,440.835,58.345Z" transform="translate(-422.243 -57.732)" fill="#fff"/>
          <path id="Trazado_99214_-_Contorno" data-name="Trazado 99214 - Contorno" d="M440.194,57.232a1.113,1.113,0,1,1-1.141,1.113A1.129,1.129,0,0,1,440.194,57.232Z" transform="translate(-422.243 -57.732)" fill="#fff"/>
          <path id="Trazado_99215" data-name="Trazado 99215" d="M449.281,58.345a.642.642,0,1,1-.641-.613A.627.627,0,0,1,449.281,58.345Z" transform="translate(-424.919 -57.732)" fill="#fff"/>
          <path id="Trazado_99215_-_Contorno" data-name="Trazado 99215 - Contorno" d="M448.64,57.232a1.113,1.113,0,1,1-1.141,1.113A1.128,1.128,0,0,1,448.64,57.232Z" transform="translate(-424.919 -57.732)" fill="#fff"/>
          <path id="Trazado_99216" data-name="Trazado 99216" d="M457.727,58.345a.642.642,0,1,1-.641-.613A.627.627,0,0,1,457.727,58.345Z" transform="translate(-427.595 -57.732)" fill="#fff"/>
          <path id="Trazado_99216_-_Contorno" data-name="Trazado 99216 - Contorno" d="M457.086,57.232a1.113,1.113,0,1,1-1.141,1.113A1.128,1.128,0,0,1,457.086,57.232Z" transform="translate(-427.595 -57.732)" fill="#fff"/>
          <path id="Trazado_99217" data-name="Trazado 99217" d="M466.174,58.345a.642.642,0,1,1-.641-.613A.628.628,0,0,1,466.174,58.345Z" transform="translate(-430.272 -57.732)" fill="#fff"/>
          <path id="Trazado_99217_-_Contorno" data-name="Trazado 99217 - Contorno" d="M465.533,57.232a1.113,1.113,0,1,1-1.141,1.113A1.129,1.129,0,0,1,465.533,57.232Z" transform="translate(-430.272 -57.732)" fill="#fff"/>
          <path id="Trazado_99218" data-name="Trazado 99218" d="M474.62,58.345a.642.642,0,1,1-.641-.613A.627.627,0,0,1,474.62,58.345Z" transform="translate(-432.948 -57.732)" fill="#fff"/>
          <path id="Trazado_99218_-_Contorno" data-name="Trazado 99218 - Contorno" d="M473.98,57.232a1.113,1.113,0,1,1-1.141,1.113A1.128,1.128,0,0,1,473.98,57.232Z" transform="translate(-432.948 -57.732)" fill="#fff"/>
          <path id="Trazado_99219" data-name="Trazado 99219" d="M483.066,58.345a.642.642,0,1,1-.641-.613A.627.627,0,0,1,483.066,58.345Z" transform="translate(-435.624 -57.732)" fill="#fff"/>
          <path id="Trazado_99219_-_Contorno" data-name="Trazado 99219 - Contorno" d="M482.425,57.232a1.113,1.113,0,1,1-1.142,1.113A1.128,1.128,0,0,1,482.425,57.232Z" transform="translate(-435.624 -57.732)" fill="#fff"/>
          <path id="Trazado_99220" data-name="Trazado 99220" d="M491.513,58.345a.642.642,0,1,1-.641-.613A.628.628,0,0,1,491.513,58.345Z" transform="translate(-438.301 -57.732)" fill="#fff"/>
          <path id="Trazado_99220_-_Contorno" data-name="Trazado 99220 - Contorno" d="M490.872,57.232a1.113,1.113,0,1,1-1.141,1.113A1.129,1.129,0,0,1,490.872,57.232Z" transform="translate(-438.301 -57.732)" fill="#fff"/>
          <path id="Trazado_99221" data-name="Trazado 99221" d="M499.959,58.345a.642.642,0,1,1-.641-.613A.628.628,0,0,1,499.959,58.345Z" transform="translate(-440.977 -57.732)" fill="#fff"/>
          <path id="Trazado_99221_-_Contorno" data-name="Trazado 99221 - Contorno" d="M499.318,57.232a1.113,1.113,0,1,1-1.141,1.113A1.129,1.129,0,0,1,499.318,57.232Z" transform="translate(-440.977 -57.732)" fill="#fff"/>
        </g>
        <g id="Grupo_53308" data-name="Grupo 53308" transform="translate(0 9.81)">
          <ellipse id="Elipse_3955" data-name="Elipse 3955" cx="0.641" cy="0.613" rx="0.641" ry="0.613" fill="#fff"/>
          <path id="Elipse_3955_-_Contorno" data-name="Elipse 3955 - Contorno" d="M.641-.5A1.129,1.129,0,0,1,1.782.613,1.129,1.129,0,0,1,.641,1.726,1.129,1.129,0,0,1-.5.613,1.129,1.129,0,0,1,.641-.5Z" fill="#fff"/>
          <path id="Trazado_99222" data-name="Trazado 99222" d="M423.942,65.853a.642.642,0,1,1-.641-.613A.628.628,0,0,1,423.942,65.853Z" transform="translate(-416.89 -65.24)" fill="#fff"/>
          <path id="Trazado_99222_-_Contorno" data-name="Trazado 99222 - Contorno" d="M423.3,64.74a1.113,1.113,0,1,1-1.141,1.113A1.128,1.128,0,0,1,423.3,64.74Z" transform="translate(-416.89 -65.24)" fill="#fff"/>
          <ellipse id="Elipse_3956" data-name="Elipse 3956" cx="0.641" cy="0.613" rx="0.641" ry="0.613" transform="translate(11.54)" fill="#fff"/>
          <path id="Elipse_3956_-_Contorno" data-name="Elipse 3956 - Contorno" d="M.641-.5A1.129,1.129,0,0,1,1.782.613,1.129,1.129,0,0,1,.641,1.726,1.129,1.129,0,0,1-.5.613,1.129,1.129,0,0,1,.641-.5Z" transform="translate(11.54)" fill="#fff"/>
          <path id="Trazado_99223" data-name="Trazado 99223" d="M440.835,65.853a.642.642,0,1,1-.641-.613A.628.628,0,0,1,440.835,65.853Z" transform="translate(-422.243 -65.24)" fill="#fff"/>
          <path id="Trazado_99223_-_Contorno" data-name="Trazado 99223 - Contorno" d="M440.194,64.74a1.113,1.113,0,1,1-1.141,1.113A1.129,1.129,0,0,1,440.194,64.74Z" transform="translate(-422.243 -65.24)" fill="#fff"/>
          <path id="Trazado_99224" data-name="Trazado 99224" d="M449.281,65.853a.642.642,0,1,1-.641-.613A.628.628,0,0,1,449.281,65.853Z" transform="translate(-424.919 -65.24)" fill="#fff"/>
          <path id="Trazado_99224_-_Contorno" data-name="Trazado 99224 - Contorno" d="M448.64,64.74a1.113,1.113,0,1,1-1.141,1.113A1.128,1.128,0,0,1,448.64,64.74Z" transform="translate(-424.919 -65.24)" fill="#fff"/>
          <ellipse id="Elipse_3957" data-name="Elipse 3957" cx="0.641" cy="0.613" rx="0.641" ry="0.613" transform="translate(28.85)" fill="#fff"/>
          <path id="Elipse_3957_-_Contorno" data-name="Elipse 3957 - Contorno" d="M.641-.5A1.129,1.129,0,0,1,1.782.613,1.129,1.129,0,0,1,.641,1.726,1.129,1.129,0,0,1-.5.613,1.129,1.129,0,0,1,.641-.5Z" transform="translate(28.85)" fill="#fff"/>
          <path id="Trazado_99225" data-name="Trazado 99225" d="M466.174,65.853a.642.642,0,1,1-.641-.613A.628.628,0,0,1,466.174,65.853Z" transform="translate(-430.272 -65.24)" fill="#fff"/>
          <path id="Trazado_99225_-_Contorno" data-name="Trazado 99225 - Contorno" d="M465.533,64.74a1.113,1.113,0,1,1-1.141,1.113A1.129,1.129,0,0,1,465.533,64.74Z" transform="translate(-430.272 -65.24)" fill="#fff"/>
          <ellipse id="Elipse_3958" data-name="Elipse 3958" cx="0.641" cy="0.613" rx="0.641" ry="0.613" transform="translate(40.39)" fill="#fff"/>
          <path id="Elipse_3958_-_Contorno" data-name="Elipse 3958 - Contorno" d="M.641-.5A1.129,1.129,0,0,1,1.782.613,1.129,1.129,0,0,1,.641,1.726,1.129,1.129,0,0,1-.5.613,1.129,1.129,0,0,1,.641-.5Z" transform="translate(40.39)" fill="#fff"/>
          <ellipse id="Elipse_3959" data-name="Elipse 3959" cx="0.641" cy="0.613" rx="0.641" ry="0.613" transform="translate(46.16)" fill="#fff"/>
          <path id="Elipse_3959_-_Contorno" data-name="Elipse 3959 - Contorno" d="M.641-.5A1.129,1.129,0,0,1,1.782.613,1.129,1.129,0,0,1,.641,1.726,1.129,1.129,0,0,1-.5.613,1.129,1.129,0,0,1,.641-.5Z" transform="translate(46.16)" fill="#fff"/>
          <path id="Trazado_99226" data-name="Trazado 99226" d="M491.513,65.853a.642.642,0,1,1-.641-.613A.628.628,0,0,1,491.513,65.853Z" transform="translate(-438.3 -65.24)" fill="#fff"/>
          <path id="Trazado_99226_-_Contorno" data-name="Trazado 99226 - Contorno" d="M490.872,64.74a1.113,1.113,0,1,1-1.141,1.113A1.129,1.129,0,0,1,490.872,64.74Z" transform="translate(-438.3 -65.24)" fill="#fff"/>
          <path id="Trazado_99227" data-name="Trazado 99227" d="M499.959,65.853a.642.642,0,1,1-.641-.613A.628.628,0,0,1,499.959,65.853Z" transform="translate(-440.977 -65.24)" fill="#fff"/>
          <path id="Trazado_99227_-_Contorno" data-name="Trazado 99227 - Contorno" d="M499.318,64.74a1.113,1.113,0,1,1-1.141,1.113A1.129,1.129,0,0,1,499.318,64.74Z" transform="translate(-440.977 -65.24)" fill="#fff"/>
        </g>
        <g id="Grupo_53309" data-name="Grupo 53309" transform="translate(0 14.714)">
          <ellipse id="Elipse_3960" data-name="Elipse 3960" cx="0.641" cy="0.613" rx="0.641" ry="0.613" transform="translate(0 0)" fill="#fff"/>
          <path id="Elipse_3960_-_Contorno" data-name="Elipse 3960 - Contorno" d="M.641-.5A1.129,1.129,0,0,1,1.782.613,1.129,1.129,0,0,1,.641,1.726,1.129,1.129,0,0,1-.5.613,1.129,1.129,0,0,1,.641-.5Z" transform="translate(0 0)" fill="#fff"/>
          <path id="Trazado_99228" data-name="Trazado 99228" d="M423.942,73.36a.642.642,0,1,1-.641-.613A.627.627,0,0,1,423.942,73.36Z" transform="translate(-416.89 -72.747)" fill="#fff"/>
          <path id="Trazado_99228_-_Contorno" data-name="Trazado 99228 - Contorno" d="M423.3,74.473a1.113,1.113,0,1,1,1.141-1.113A1.129,1.129,0,0,1,423.3,74.473Z" transform="translate(-416.89 -72.747)" fill="#fff"/>
          <ellipse id="Elipse_3961" data-name="Elipse 3961" cx="0.641" cy="0.613" rx="0.641" ry="0.613" transform="translate(11.54 0)" fill="#fff"/>
          <path id="Elipse_3961_-_Contorno" data-name="Elipse 3961 - Contorno" d="M.641-.5A1.129,1.129,0,0,1,1.782.613,1.129,1.129,0,0,1,.641,1.726,1.129,1.129,0,0,1-.5.613,1.129,1.129,0,0,1,.641-.5Z" transform="translate(11.54 0)" fill="#fff"/>
          <path id="Trazado_99229" data-name="Trazado 99229" d="M440.835,73.36a.642.642,0,1,1-.641-.613A.627.627,0,0,1,440.835,73.36Z" transform="translate(-422.243 -72.747)" fill="#fff"/>
          <path id="Trazado_99229_-_Contorno" data-name="Trazado 99229 - Contorno" d="M440.194,74.473a1.113,1.113,0,1,1,1.141-1.113A1.128,1.128,0,0,1,440.194,74.473Z" transform="translate(-422.243 -72.747)" fill="#fff"/>
          <path id="Trazado_99230" data-name="Trazado 99230" d="M449.281,73.36a.642.642,0,1,1-.641-.613A.627.627,0,0,1,449.281,73.36Z" transform="translate(-424.919 -72.747)" fill="#fff"/>
          <path id="Trazado_99230_-_Contorno" data-name="Trazado 99230 - Contorno" d="M448.64,74.473a1.113,1.113,0,1,1,1.141-1.113A1.129,1.129,0,0,1,448.64,74.473Z" transform="translate(-424.919 -72.747)" fill="#fff"/>
          <ellipse id="Elipse_3962" data-name="Elipse 3962" cx="0.641" cy="0.613" rx="0.641" ry="0.613" transform="translate(28.85 0)" fill="#fff"/>
          <path id="Elipse_3962_-_Contorno" data-name="Elipse 3962 - Contorno" d="M.641-.5A1.129,1.129,0,0,1,1.782.613,1.129,1.129,0,0,1,.641,1.726,1.129,1.129,0,0,1-.5.613,1.129,1.129,0,0,1,.641-.5Z" transform="translate(28.85 0)" fill="#fff"/>
          <path id="Trazado_99231" data-name="Trazado 99231" d="M466.174,73.36a.642.642,0,1,1-.641-.613A.628.628,0,0,1,466.174,73.36Z" transform="translate(-430.272 -72.747)" fill="#fff"/>
          <path id="Trazado_99231_-_Contorno" data-name="Trazado 99231 - Contorno" d="M465.533,74.473a1.113,1.113,0,1,1,1.141-1.113A1.128,1.128,0,0,1,465.533,74.473Z" transform="translate(-430.272 -72.747)" fill="#fff"/>
          <ellipse id="Elipse_3963" data-name="Elipse 3963" cx="0.641" cy="0.613" rx="0.641" ry="0.613" transform="translate(40.39 0)" fill="#fff"/>
          <path id="Elipse_3963_-_Contorno" data-name="Elipse 3963 - Contorno" d="M.641-.5A1.129,1.129,0,0,1,1.782.613,1.129,1.129,0,0,1,.641,1.726,1.129,1.129,0,0,1-.5.613,1.129,1.129,0,0,1,.641-.5Z" transform="translate(40.39 0)" fill="#fff"/>
          <ellipse id="Elipse_3964" data-name="Elipse 3964" cx="0.641" cy="0.613" rx="0.641" ry="0.613" transform="translate(46.16 0)" fill="#fff"/>
          <path id="Elipse_3964_-_Contorno" data-name="Elipse 3964 - Contorno" d="M.641-.5A1.129,1.129,0,0,1,1.782.613,1.129,1.129,0,0,1,.641,1.726,1.129,1.129,0,0,1-.5.613,1.129,1.129,0,0,1,.641-.5Z" transform="translate(46.16 0)" fill="#fff"/>
          <path id="Trazado_99232" data-name="Trazado 99232" d="M491.513,73.36a.642.642,0,1,1-.641-.613A.628.628,0,0,1,491.513,73.36Z" transform="translate(-438.3 -72.747)" fill="#fff"/>
          <path id="Trazado_99232_-_Contorno" data-name="Trazado 99232 - Contorno" d="M490.872,74.473a1.113,1.113,0,1,1,1.141-1.113A1.128,1.128,0,0,1,490.872,74.473Z" transform="translate(-438.3 -72.747)" fill="#fff"/>
          <path id="Trazado_99233" data-name="Trazado 99233" d="M499.959,73.36a.642.642,0,1,1-.641-.613A.627.627,0,0,1,499.959,73.36Z" transform="translate(-440.977 -72.747)" fill="#fff"/>
          <path id="Trazado_99233_-_Contorno" data-name="Trazado 99233 - Contorno" d="M499.318,74.473a1.113,1.113,0,1,1,1.141-1.113A1.128,1.128,0,0,1,499.318,74.473Z" transform="translate(-440.977 -72.747)" fill="#fff"/>
        </g>
        <g id="Grupo_53310" data-name="Grupo 53310" transform="translate(0 19.619)">
          <path id="Trazado_99234" data-name="Trazado 99234" d="M415.5,80.868a.642.642,0,1,1-.642-.613A.628.628,0,0,1,415.5,80.868Z" transform="translate(-414.214 -80.255)" fill="#fff"/>
          <path id="Trazado_99234_-_Contorno" data-name="Trazado 99234 - Contorno" d="M414.855,81.981A1.113,1.113,0,1,1,416,80.868,1.128,1.128,0,0,1,414.855,81.981Z" transform="translate(-414.214 -80.255)" fill="#fff"/>
          <path id="Trazado_99235" data-name="Trazado 99235" d="M423.942,80.868a.642.642,0,1,1-.641-.613A.627.627,0,0,1,423.942,80.868Z" transform="translate(-416.89 -80.255)" fill="#fff"/>
          <path id="Trazado_99235_-_Contorno" data-name="Trazado 99235 - Contorno" d="M423.3,81.981a1.113,1.113,0,1,1,1.141-1.113A1.129,1.129,0,0,1,423.3,81.981Z" transform="translate(-416.89 -80.255)" fill="#fff"/>
          <path id="Trazado_99236" data-name="Trazado 99236" d="M432.388,80.868a.642.642,0,1,1-.641-.613A.627.627,0,0,1,432.388,80.868Z" transform="translate(-419.566 -80.255)" fill="#fff"/>
          <path id="Trazado_99236_-_Contorno" data-name="Trazado 99236 - Contorno" d="M431.747,81.981a1.113,1.113,0,1,1,1.141-1.113A1.129,1.129,0,0,1,431.747,81.981Z" transform="translate(-419.566 -80.255)" fill="#fff"/>
          <path id="Trazado_99237" data-name="Trazado 99237" d="M440.835,80.868a.642.642,0,1,1-.641-.613A.627.627,0,0,1,440.835,80.868Z" transform="translate(-422.243 -80.255)" fill="#fff"/>
          <path id="Trazado_99237_-_Contorno" data-name="Trazado 99237 - Contorno" d="M440.194,81.981a1.113,1.113,0,1,1,1.141-1.113A1.128,1.128,0,0,1,440.194,81.981Z" transform="translate(-422.243 -80.255)" fill="#fff"/>
          <path id="Trazado_99238" data-name="Trazado 99238" d="M449.281,80.868a.642.642,0,1,1-.641-.613A.627.627,0,0,1,449.281,80.868Z" transform="translate(-424.919 -80.255)" fill="#fff"/>
          <path id="Trazado_99238_-_Contorno" data-name="Trazado 99238 - Contorno" d="M448.64,81.981a1.113,1.113,0,1,1,1.141-1.113A1.129,1.129,0,0,1,448.64,81.981Z" transform="translate(-424.919 -80.255)" fill="#fff"/>
          <path id="Trazado_99239" data-name="Trazado 99239" d="M457.727,80.868a.642.642,0,1,1-.641-.613A.627.627,0,0,1,457.727,80.868Z" transform="translate(-427.595 -80.255)" fill="#fff"/>
          <path id="Trazado_99239_-_Contorno" data-name="Trazado 99239 - Contorno" d="M457.086,81.981a1.113,1.113,0,1,1,1.141-1.113A1.129,1.129,0,0,1,457.086,81.981Z" transform="translate(-427.595 -80.255)" fill="#fff"/>
          <path id="Trazado_99240" data-name="Trazado 99240" d="M466.174,80.868a.642.642,0,1,1-.641-.613A.628.628,0,0,1,466.174,80.868Z" transform="translate(-430.272 -80.255)" fill="#fff"/>
          <path id="Trazado_99240_-_Contorno" data-name="Trazado 99240 - Contorno" d="M465.533,81.981a1.113,1.113,0,1,1,1.141-1.113A1.128,1.128,0,0,1,465.533,81.981Z" transform="translate(-430.272 -80.255)" fill="#fff"/>
          <path id="Trazado_99241" data-name="Trazado 99241" d="M474.62,80.868a.642.642,0,1,1-.641-.613A.627.627,0,0,1,474.62,80.868Z" transform="translate(-432.948 -80.255)" fill="#fff"/>
          <path id="Trazado_99241_-_Contorno" data-name="Trazado 99241 - Contorno" d="M473.98,81.981a1.113,1.113,0,1,1,1.141-1.113A1.129,1.129,0,0,1,473.98,81.981Z" transform="translate(-432.948 -80.255)" fill="#fff"/>
          <path id="Trazado_99242" data-name="Trazado 99242" d="M483.066,80.868a.642.642,0,1,1-.641-.613A.627.627,0,0,1,483.066,80.868Z" transform="translate(-435.624 -80.255)" fill="#fff"/>
          <path id="Trazado_99242_-_Contorno" data-name="Trazado 99242 - Contorno" d="M482.425,81.981a1.113,1.113,0,1,1,1.141-1.113A1.129,1.129,0,0,1,482.425,81.981Z" transform="translate(-435.624 -80.255)" fill="#fff"/>
          <path id="Trazado_99243" data-name="Trazado 99243" d="M491.513,80.868a.642.642,0,1,1-.641-.613A.628.628,0,0,1,491.513,80.868Z" transform="translate(-438.301 -80.255)" fill="#fff"/>
          <path id="Trazado_99243_-_Contorno" data-name="Trazado 99243 - Contorno" d="M490.872,81.981a1.113,1.113,0,1,1,1.141-1.113A1.128,1.128,0,0,1,490.872,81.981Z" transform="translate(-438.301 -80.255)" fill="#fff"/>
          <path id="Trazado_99244" data-name="Trazado 99244" d="M499.959,80.868a.642.642,0,1,1-.641-.613A.627.627,0,0,1,499.959,80.868Z" transform="translate(-440.977 -80.255)" fill="#fff"/>
          <path id="Trazado_99244_-_Contorno" data-name="Trazado 99244 - Contorno" d="M499.318,81.981a1.113,1.113,0,1,1,1.141-1.113A1.128,1.128,0,0,1,499.318,81.981Z" transform="translate(-440.977 -80.255)" fill="#fff"/>
        </g>
        <g id="Grupo_53311" data-name="Grupo 53311" transform="translate(0 24.524)">
          <ellipse id="Elipse_3965" data-name="Elipse 3965" cx="0.641" cy="0.613" rx="0.641" ry="0.613" transform="translate(0 0)" fill="#fff"/>
          <path id="Elipse_3965_-_Contorno" data-name="Elipse 3965 - Contorno" d="M.641-.5A1.129,1.129,0,0,1,1.782.613,1.129,1.129,0,0,1,.641,1.726,1.129,1.129,0,0,1-.5.613,1.129,1.129,0,0,1,.641-.5Z" transform="translate(0 0)" fill="#fff"/>
          <path id="Trazado_99245" data-name="Trazado 99245" d="M423.942,88.376a.642.642,0,1,1-.641-.613A.627.627,0,0,1,423.942,88.376Z" transform="translate(-416.89 -87.763)" fill="#fff"/>
          <path id="Trazado_99245_-_Contorno" data-name="Trazado 99245 - Contorno" d="M423.3,89.489a1.113,1.113,0,1,1,1.141-1.113A1.129,1.129,0,0,1,423.3,89.489Z" transform="translate(-416.89 -87.763)" fill="#fff"/>
          <ellipse id="Elipse_3966" data-name="Elipse 3966" cx="0.641" cy="0.613" rx="0.641" ry="0.613" transform="translate(11.54 0)" fill="#fff"/>
          <path id="Elipse_3966_-_Contorno" data-name="Elipse 3966 - Contorno" d="M.641-.5A1.129,1.129,0,0,1,1.782.613,1.129,1.129,0,0,1,.641,1.726,1.129,1.129,0,0,1-.5.613,1.129,1.129,0,0,1,.641-.5Z" transform="translate(11.54 0)" fill="#fff"/>
          <path id="Trazado_99246" data-name="Trazado 99246" d="M440.835,88.376a.642.642,0,1,1-.641-.613A.628.628,0,0,1,440.835,88.376Z" transform="translate(-422.243 -87.763)" fill="#fff"/>
          <path id="Trazado_99246_-_Contorno" data-name="Trazado 99246 - Contorno" d="M440.194,89.489a1.113,1.113,0,1,1,1.141-1.113A1.128,1.128,0,0,1,440.194,89.489Z" transform="translate(-422.243 -87.763)" fill="#fff"/>
          <path id="Trazado_99247" data-name="Trazado 99247" d="M449.281,88.376a.642.642,0,1,1-.641-.613A.627.627,0,0,1,449.281,88.376Z" transform="translate(-424.919 -87.763)" fill="#fff"/>
          <path id="Trazado_99247_-_Contorno" data-name="Trazado 99247 - Contorno" d="M448.64,89.489a1.113,1.113,0,1,1,1.141-1.113A1.129,1.129,0,0,1,448.64,89.489Z" transform="translate(-424.919 -87.763)" fill="#fff"/>
          <ellipse id="Elipse_3967" data-name="Elipse 3967" cx="0.641" cy="0.613" rx="0.641" ry="0.613" transform="translate(28.85 0)" fill="#fff"/>
          <path id="Elipse_3967_-_Contorno" data-name="Elipse 3967 - Contorno" d="M.641-.5A1.129,1.129,0,0,1,1.782.613,1.129,1.129,0,0,1,.641,1.726,1.129,1.129,0,0,1-.5.613,1.129,1.129,0,0,1,.641-.5Z" transform="translate(28.85 0)" fill="#fff"/>
          <path id="Trazado_99248" data-name="Trazado 99248" d="M466.174,88.376a.642.642,0,1,1-.641-.613A.628.628,0,0,1,466.174,88.376Z" transform="translate(-430.272 -87.763)" fill="#fff"/>
          <path id="Trazado_99248_-_Contorno" data-name="Trazado 99248 - Contorno" d="M465.533,89.489a1.113,1.113,0,1,1,1.141-1.113A1.128,1.128,0,0,1,465.533,89.489Z" transform="translate(-430.272 -87.763)" fill="#fff"/>
          <ellipse id="Elipse_3968" data-name="Elipse 3968" cx="0.641" cy="0.613" rx="0.641" ry="0.613" transform="translate(40.39 0)" fill="#fff"/>
          <path id="Elipse_3968_-_Contorno" data-name="Elipse 3968 - Contorno" d="M.641-.5A1.129,1.129,0,0,1,1.782.613,1.129,1.129,0,0,1,.641,1.726,1.129,1.129,0,0,1-.5.613,1.129,1.129,0,0,1,.641-.5Z" transform="translate(40.39 0)" fill="#fff"/>
          <ellipse id="Elipse_3969" data-name="Elipse 3969" cx="0.641" cy="0.613" rx="0.641" ry="0.613" transform="translate(46.16 0)" fill="#fff"/>
          <path id="Elipse_3969_-_Contorno" data-name="Elipse 3969 - Contorno" d="M.641-.5A1.129,1.129,0,0,1,1.782.613,1.129,1.129,0,0,1,.641,1.726,1.129,1.129,0,0,1-.5.613,1.129,1.129,0,0,1,.641-.5Z" transform="translate(46.16 0)" fill="#fff"/>
          <path id="Trazado_99249" data-name="Trazado 99249" d="M491.513,88.376a.642.642,0,1,1-.641-.613A.628.628,0,0,1,491.513,88.376Z" transform="translate(-438.3 -87.763)" fill="#fff"/>
          <path id="Trazado_99249_-_Contorno" data-name="Trazado 99249 - Contorno" d="M490.872,89.489a1.113,1.113,0,1,1,1.141-1.113A1.128,1.128,0,0,1,490.872,89.489Z" transform="translate(-438.3 -87.763)" fill="#fff"/>
          <path id="Trazado_99250" data-name="Trazado 99250" d="M499.959,88.376a.642.642,0,1,1-.641-.613A.627.627,0,0,1,499.959,88.376Z" transform="translate(-440.977 -87.763)" fill="#fff"/>
          <path id="Trazado_99250_-_Contorno" data-name="Trazado 99250 - Contorno" d="M499.318,89.489a1.113,1.113,0,1,1,1.141-1.113A1.128,1.128,0,0,1,499.318,89.489Z" transform="translate(-440.977 -87.763)" fill="#fff"/>
        </g>
        <g id="Grupo_53312" data-name="Grupo 53312" transform="translate(0 29.429)">
          <ellipse id="Elipse_3970" data-name="Elipse 3970" cx="0.641" cy="0.613" rx="0.641" ry="0.613" fill="#fff"/>
          <path id="Elipse_3970_-_Contorno" data-name="Elipse 3970 - Contorno" d="M.641-.5A1.129,1.129,0,0,1,1.782.613,1.129,1.129,0,0,1,.641,1.726,1.129,1.129,0,0,1-.5.613,1.129,1.129,0,0,1,.641-.5Z" fill="#fff"/>
          <path id="Trazado_99251" data-name="Trazado 99251" d="M423.942,95.884a.642.642,0,1,1-.641-.613A.627.627,0,0,1,423.942,95.884Z" transform="translate(-416.89 -95.271)" fill="#fff"/>
          <path id="Trazado_99251_-_Contorno" data-name="Trazado 99251 - Contorno" d="M423.3,94.771a1.113,1.113,0,1,1-1.141,1.113A1.128,1.128,0,0,1,423.3,94.771Z" transform="translate(-416.89 -95.271)" fill="#fff"/>
          <ellipse id="Elipse_3971" data-name="Elipse 3971" cx="0.641" cy="0.613" rx="0.641" ry="0.613" transform="translate(11.54)" fill="#fff"/>
          <path id="Elipse_3971_-_Contorno" data-name="Elipse 3971 - Contorno" d="M.641-.5A1.129,1.129,0,0,1,1.782.613,1.129,1.129,0,0,1,.641,1.726,1.129,1.129,0,0,1-.5.613,1.129,1.129,0,0,1,.641-.5Z" transform="translate(11.54)" fill="#fff"/>
          <path id="Trazado_99252" data-name="Trazado 99252" d="M440.835,95.884a.642.642,0,1,1-.641-.613A.628.628,0,0,1,440.835,95.884Z" transform="translate(-422.243 -95.271)" fill="#fff"/>
          <path id="Trazado_99252_-_Contorno" data-name="Trazado 99252 - Contorno" d="M440.194,94.771a1.113,1.113,0,1,1-1.141,1.113A1.129,1.129,0,0,1,440.194,94.771Z" transform="translate(-422.243 -95.271)" fill="#fff"/>
          <path id="Trazado_99253" data-name="Trazado 99253" d="M449.281,95.884a.642.642,0,1,1-.641-.613A.627.627,0,0,1,449.281,95.884Z" transform="translate(-424.919 -95.271)" fill="#fff"/>
          <path id="Trazado_99253_-_Contorno" data-name="Trazado 99253 - Contorno" d="M448.64,94.771a1.113,1.113,0,1,1-1.141,1.113A1.128,1.128,0,0,1,448.64,94.771Z" transform="translate(-424.919 -95.271)" fill="#fff"/>
          <ellipse id="Elipse_3972" data-name="Elipse 3972" cx="0.641" cy="0.613" rx="0.641" ry="0.613" transform="translate(28.85)" fill="#fff"/>
          <path id="Elipse_3972_-_Contorno" data-name="Elipse 3972 - Contorno" d="M.641-.5A1.129,1.129,0,0,1,1.782.613,1.129,1.129,0,0,1,.641,1.726,1.129,1.129,0,0,1-.5.613,1.129,1.129,0,0,1,.641-.5Z" transform="translate(28.85)" fill="#fff"/>
          <path id="Trazado_99254" data-name="Trazado 99254" d="M466.174,95.884a.642.642,0,1,1-.641-.613A.628.628,0,0,1,466.174,95.884Z" transform="translate(-430.272 -95.271)" fill="#fff"/>
          <path id="Trazado_99254_-_Contorno" data-name="Trazado 99254 - Contorno" d="M465.533,94.771a1.113,1.113,0,1,1-1.141,1.113A1.129,1.129,0,0,1,465.533,94.771Z" transform="translate(-430.272 -95.271)" fill="#fff"/>
          <ellipse id="Elipse_3973" data-name="Elipse 3973" cx="0.641" cy="0.613" rx="0.641" ry="0.613" transform="translate(40.39)" fill="#fff"/>
          <path id="Elipse_3973_-_Contorno" data-name="Elipse 3973 - Contorno" d="M.641-.5A1.129,1.129,0,0,1,1.782.613,1.129,1.129,0,0,1,.641,1.726,1.129,1.129,0,0,1-.5.613,1.129,1.129,0,0,1,.641-.5Z" transform="translate(40.39)" fill="#fff"/>
          <ellipse id="Elipse_3974" data-name="Elipse 3974" cx="0.641" cy="0.613" rx="0.641" ry="0.613" transform="translate(46.16)" fill="#fff"/>
          <path id="Elipse_3974_-_Contorno" data-name="Elipse 3974 - Contorno" d="M.641-.5A1.129,1.129,0,0,1,1.782.613,1.129,1.129,0,0,1,.641,1.726,1.129,1.129,0,0,1-.5.613,1.129,1.129,0,0,1,.641-.5Z" transform="translate(46.16)" fill="#fff"/>
          <path id="Trazado_99255" data-name="Trazado 99255" d="M491.513,95.884a.642.642,0,1,1-.641-.613A.628.628,0,0,1,491.513,95.884Z" transform="translate(-438.3 -95.271)" fill="#fff"/>
          <path id="Trazado_99255_-_Contorno" data-name="Trazado 99255 - Contorno" d="M490.872,94.771a1.113,1.113,0,1,1-1.141,1.113A1.129,1.129,0,0,1,490.872,94.771Z" transform="translate(-438.3 -95.271)" fill="#fff"/>
          <path id="Trazado_99256" data-name="Trazado 99256" d="M499.959,95.884a.642.642,0,1,1-.641-.613A.628.628,0,0,1,499.959,95.884Z" transform="translate(-440.977 -95.271)" fill="#fff"/>
          <path id="Trazado_99256_-_Contorno" data-name="Trazado 99256 - Contorno" d="M499.318,94.771a1.113,1.113,0,1,1-1.141,1.113A1.129,1.129,0,0,1,499.318,94.771Z" transform="translate(-440.977 -95.271)" fill="#fff"/>
        </g>
        <g id="Grupo_53313" data-name="Grupo 53313" transform="translate(0 34.334)">
          <path id="Trazado_99257" data-name="Trazado 99257" d="M415.5,103.392a.642.642,0,1,1-.642-.613A.628.628,0,0,1,415.5,103.392Z" transform="translate(-414.214 -102.779)" fill="#fff"/>
          <path id="Trazado_99257_-_Contorno" data-name="Trazado 99257 - Contorno" d="M414.855,102.279a1.113,1.113,0,1,1-1.141,1.113A1.129,1.129,0,0,1,414.855,102.279Z" transform="translate(-414.214 -102.779)" fill="#fff"/>
          <path id="Trazado_99258" data-name="Trazado 99258" d="M423.942,103.392a.642.642,0,1,1-.641-.613A.627.627,0,0,1,423.942,103.392Z" transform="translate(-416.89 -102.779)" fill="#fff"/>
          <path id="Trazado_99258_-_Contorno" data-name="Trazado 99258 - Contorno" d="M423.3,102.279a1.113,1.113,0,1,1-1.141,1.113A1.128,1.128,0,0,1,423.3,102.279Z" transform="translate(-416.89 -102.779)" fill="#fff"/>
          <path id="Trazado_99259" data-name="Trazado 99259" d="M432.388,103.392a.642.642,0,1,1-.641-.613A.627.627,0,0,1,432.388,103.392Z" transform="translate(-419.566 -102.779)" fill="#fff"/>
          <path id="Trazado_99259_-_Contorno" data-name="Trazado 99259 - Contorno" d="M431.747,102.279a1.113,1.113,0,1,1-1.142,1.113A1.128,1.128,0,0,1,431.747,102.279Z" transform="translate(-419.566 -102.779)" fill="#fff"/>
          <path id="Trazado_99260" data-name="Trazado 99260" d="M440.835,103.392a.642.642,0,1,1-.641-.613A.628.628,0,0,1,440.835,103.392Z" transform="translate(-422.243 -102.779)" fill="#fff"/>
          <path id="Trazado_99260_-_Contorno" data-name="Trazado 99260 - Contorno" d="M440.194,102.279a1.113,1.113,0,1,1-1.141,1.113A1.129,1.129,0,0,1,440.194,102.279Z" transform="translate(-422.243 -102.779)" fill="#fff"/>
          <path id="Trazado_99261" data-name="Trazado 99261" d="M449.281,103.392a.642.642,0,1,1-.641-.613A.627.627,0,0,1,449.281,103.392Z" transform="translate(-424.919 -102.779)" fill="#fff"/>
          <path id="Trazado_99261_-_Contorno" data-name="Trazado 99261 - Contorno" d="M448.64,102.279a1.113,1.113,0,1,1-1.141,1.113A1.128,1.128,0,0,1,448.64,102.279Z" transform="translate(-424.919 -102.779)" fill="#fff"/>
          <path id="Trazado_99262" data-name="Trazado 99262" d="M457.727,103.392a.642.642,0,1,1-.641-.613A.627.627,0,0,1,457.727,103.392Z" transform="translate(-427.595 -102.779)" fill="#fff"/>
          <path id="Trazado_99262_-_Contorno" data-name="Trazado 99262 - Contorno" d="M457.086,102.279a1.113,1.113,0,1,1-1.141,1.113A1.128,1.128,0,0,1,457.086,102.279Z" transform="translate(-427.595 -102.779)" fill="#fff"/>
          <path id="Trazado_99263" data-name="Trazado 99263" d="M466.174,103.392a.642.642,0,1,1-.641-.613A.628.628,0,0,1,466.174,103.392Z" transform="translate(-430.272 -102.779)" fill="#fff"/>
          <path id="Trazado_99263_-_Contorno" data-name="Trazado 99263 - Contorno" d="M465.533,102.279a1.113,1.113,0,1,1-1.141,1.113A1.129,1.129,0,0,1,465.533,102.279Z" transform="translate(-430.272 -102.779)" fill="#fff"/>
          <path id="Trazado_99264" data-name="Trazado 99264" d="M474.62,103.392a.642.642,0,1,1-.641-.613A.627.627,0,0,1,474.62,103.392Z" transform="translate(-432.948 -102.779)" fill="#fff"/>
          <path id="Trazado_99264_-_Contorno" data-name="Trazado 99264 - Contorno" d="M473.98,102.279a1.113,1.113,0,1,1-1.141,1.113A1.128,1.128,0,0,1,473.98,102.279Z" transform="translate(-432.948 -102.779)" fill="#fff"/>
          <path id="Trazado_99265" data-name="Trazado 99265" d="M483.066,103.392a.642.642,0,1,1-.641-.613A.627.627,0,0,1,483.066,103.392Z" transform="translate(-435.624 -102.779)" fill="#fff"/>
          <path id="Trazado_99265_-_Contorno" data-name="Trazado 99265 - Contorno" d="M482.425,102.279a1.113,1.113,0,1,1-1.142,1.113A1.128,1.128,0,0,1,482.425,102.279Z" transform="translate(-435.624 -102.779)" fill="#fff"/>
          <path id="Trazado_99266" data-name="Trazado 99266" d="M491.513,103.392a.642.642,0,1,1-.641-.613A.628.628,0,0,1,491.513,103.392Z" transform="translate(-438.301 -102.779)" fill="#fff"/>
          <path id="Trazado_99266_-_Contorno" data-name="Trazado 99266 - Contorno" d="M490.872,102.279a1.113,1.113,0,1,1-1.141,1.113A1.129,1.129,0,0,1,490.872,102.279Z" transform="translate(-438.301 -102.779)" fill="#fff"/>
          <path id="Trazado_99267" data-name="Trazado 99267" d="M499.959,103.392a.642.642,0,1,1-.641-.613A.628.628,0,0,1,499.959,103.392Z" transform="translate(-440.977 -102.779)" fill="#fff"/>
          <path id="Trazado_99267_-_Contorno" data-name="Trazado 99267 - Contorno" d="M499.318,102.279a1.113,1.113,0,1,1-1.141,1.113A1.129,1.129,0,0,1,499.318,102.279Z" transform="translate(-440.977 -102.779)" fill="#fff"/>
        </g>
        <g id="Grupo_53314" data-name="Grupo 53314" transform="translate(0 39.239)">
          <ellipse id="Elipse_3975" data-name="Elipse 3975" cx="0.641" cy="0.613" rx="0.641" ry="0.613" fill="#fff"/>
          <path id="Elipse_3975_-_Contorno" data-name="Elipse 3975 - Contorno" d="M.641-.5A1.129,1.129,0,0,1,1.782.613,1.129,1.129,0,0,1,.641,1.726,1.129,1.129,0,0,1-.5.613,1.129,1.129,0,0,1,.641-.5Z" fill="#fff"/>
          <path id="Trazado_99268" data-name="Trazado 99268" d="M423.942,110.9a.642.642,0,1,1-.641-.613A.628.628,0,0,1,423.942,110.9Z" transform="translate(-416.89 -110.287)" fill="#fff"/>
          <path id="Trazado_99268_-_Contorno" data-name="Trazado 99268 - Contorno" d="M423.3,109.787a1.113,1.113,0,1,1-1.141,1.113A1.128,1.128,0,0,1,423.3,109.787Z" transform="translate(-416.89 -110.287)" fill="#fff"/>
          <ellipse id="Elipse_3976" data-name="Elipse 3976" cx="0.641" cy="0.613" rx="0.641" ry="0.613" transform="translate(11.54)" fill="#fff"/>
          <path id="Elipse_3976_-_Contorno" data-name="Elipse 3976 - Contorno" d="M.641-.5A1.129,1.129,0,0,1,1.782.613,1.129,1.129,0,0,1,.641,1.726,1.129,1.129,0,0,1-.5.613,1.129,1.129,0,0,1,.641-.5Z" transform="translate(11.54)" fill="#fff"/>
          <path id="Trazado_99269" data-name="Trazado 99269" d="M440.835,110.9a.642.642,0,1,1-.641-.613A.628.628,0,0,1,440.835,110.9Z" transform="translate(-422.243 -110.287)" fill="#fff"/>
          <path id="Trazado_99269_-_Contorno" data-name="Trazado 99269 - Contorno" d="M440.194,109.787a1.113,1.113,0,1,1-1.141,1.113A1.129,1.129,0,0,1,440.194,109.787Z" transform="translate(-422.243 -110.287)" fill="#fff"/>
          <path id="Trazado_99270" data-name="Trazado 99270" d="M449.281,110.9a.642.642,0,1,1-.641-.613A.628.628,0,0,1,449.281,110.9Z" transform="translate(-424.919 -110.287)" fill="#fff"/>
          <path id="Trazado_99270_-_Contorno" data-name="Trazado 99270 - Contorno" d="M448.64,109.787A1.113,1.113,0,1,1,447.5,110.9,1.128,1.128,0,0,1,448.64,109.787Z" transform="translate(-424.919 -110.287)" fill="#fff"/>
          <ellipse id="Elipse_3977" data-name="Elipse 3977" cx="0.641" cy="0.613" rx="0.641" ry="0.613" transform="translate(28.85)" fill="#fff"/>
          <path id="Elipse_3977_-_Contorno" data-name="Elipse 3977 - Contorno" d="M.641-.5A1.129,1.129,0,0,1,1.782.613,1.129,1.129,0,0,1,.641,1.726,1.129,1.129,0,0,1-.5.613,1.129,1.129,0,0,1,.641-.5Z" transform="translate(28.85)" fill="#fff"/>
          <path id="Trazado_99271" data-name="Trazado 99271" d="M466.174,110.9a.642.642,0,1,1-.641-.613A.628.628,0,0,1,466.174,110.9Z" transform="translate(-430.272 -110.287)" fill="#fff"/>
          <path id="Trazado_99271_-_Contorno" data-name="Trazado 99271 - Contorno" d="M465.533,109.787a1.113,1.113,0,1,1-1.141,1.113A1.129,1.129,0,0,1,465.533,109.787Z" transform="translate(-430.272 -110.287)" fill="#fff"/>
          <ellipse id="Elipse_3978" data-name="Elipse 3978" cx="0.641" cy="0.613" rx="0.641" ry="0.613" transform="translate(40.39)" fill="#fff"/>
          <path id="Elipse_3978_-_Contorno" data-name="Elipse 3978 - Contorno" d="M.641-.5A1.129,1.129,0,0,1,1.782.613,1.129,1.129,0,0,1,.641,1.726,1.129,1.129,0,0,1-.5.613,1.129,1.129,0,0,1,.641-.5Z" transform="translate(40.39)" fill="#fff"/>
          <ellipse id="Elipse_3979" data-name="Elipse 3979" cx="0.641" cy="0.613" rx="0.641" ry="0.613" transform="translate(46.16)" fill="#fff"/>
          <path id="Elipse_3979_-_Contorno" data-name="Elipse 3979 - Contorno" d="M.641-.5A1.129,1.129,0,0,1,1.782.613,1.129,1.129,0,0,1,.641,1.726,1.129,1.129,0,0,1-.5.613,1.129,1.129,0,0,1,.641-.5Z" transform="translate(46.16)" fill="#fff"/>
          <path id="Trazado_99272" data-name="Trazado 99272" d="M491.513,110.9a.642.642,0,1,1-.641-.613A.628.628,0,0,1,491.513,110.9Z" transform="translate(-438.3 -110.287)" fill="#fff"/>
          <path id="Trazado_99272_-_Contorno" data-name="Trazado 99272 - Contorno" d="M490.872,109.787a1.113,1.113,0,1,1-1.141,1.113A1.129,1.129,0,0,1,490.872,109.787Z" transform="translate(-438.3 -110.287)" fill="#fff"/>
          <path id="Trazado_99273" data-name="Trazado 99273" d="M499.959,110.9a.642.642,0,1,1-.641-.613A.628.628,0,0,1,499.959,110.9Z" transform="translate(-440.977 -110.287)" fill="#fff"/>
          <path id="Trazado_99273_-_Contorno" data-name="Trazado 99273 - Contorno" d="M499.318,109.787a1.113,1.113,0,1,1-1.141,1.113A1.129,1.129,0,0,1,499.318,109.787Z" transform="translate(-440.977 -110.287)" fill="#fff"/>
        </g>
        <g id="Grupo_53315" data-name="Grupo 53315" transform="translate(0 44.144)">
          <path id="Trazado_99274" data-name="Trazado 99274" d="M415.5,118.407a.642.642,0,1,1-.642-.613A.628.628,0,0,1,415.5,118.407Z" transform="translate(-414.214 -117.794)" fill="#fff"/>
          <path id="Trazado_99274_-_Contorno" data-name="Trazado 99274 - Contorno" d="M414.855,119.521A1.114,1.114,0,1,1,416,118.407,1.129,1.129,0,0,1,414.855,119.521Z" transform="translate(-414.214 -117.794)" fill="#fff"/>
          <path id="Trazado_99275" data-name="Trazado 99275" d="M423.942,118.407a.642.642,0,1,1-.641-.613A.628.628,0,0,1,423.942,118.407Z" transform="translate(-416.89 -117.794)" fill="#fff"/>
          <path id="Trazado_99275_-_Contorno" data-name="Trazado 99275 - Contorno" d="M423.3,119.521a1.114,1.114,0,1,1,1.141-1.113A1.129,1.129,0,0,1,423.3,119.521Z" transform="translate(-416.89 -117.794)" fill="#fff"/>
          <path id="Trazado_99276" data-name="Trazado 99276" d="M432.388,118.407a.642.642,0,1,1-.641-.613A.628.628,0,0,1,432.388,118.407Z" transform="translate(-419.566 -117.794)" fill="#fff"/>
          <path id="Trazado_99276_-_Contorno" data-name="Trazado 99276 - Contorno" d="M431.747,119.521a1.114,1.114,0,1,1,1.141-1.113A1.129,1.129,0,0,1,431.747,119.521Z" transform="translate(-419.566 -117.794)" fill="#fff"/>
          <path id="Trazado_99277" data-name="Trazado 99277" d="M440.835,118.407a.642.642,0,1,1-.641-.613A.628.628,0,0,1,440.835,118.407Z" transform="translate(-422.243 -117.794)" fill="#fff"/>
          <path id="Trazado_99277_-_Contorno" data-name="Trazado 99277 - Contorno" d="M440.194,119.521a1.114,1.114,0,1,1,1.141-1.113A1.129,1.129,0,0,1,440.194,119.521Z" transform="translate(-422.243 -117.794)" fill="#fff"/>
          <path id="Trazado_99278" data-name="Trazado 99278" d="M449.281,118.407a.642.642,0,1,1-.641-.613A.628.628,0,0,1,449.281,118.407Z" transform="translate(-424.919 -117.794)" fill="#fff"/>
          <path id="Trazado_99278_-_Contorno" data-name="Trazado 99278 - Contorno" d="M448.64,119.521a1.114,1.114,0,1,1,1.141-1.113A1.129,1.129,0,0,1,448.64,119.521Z" transform="translate(-424.919 -117.794)" fill="#fff"/>
          <path id="Trazado_99279" data-name="Trazado 99279" d="M457.727,118.407a.642.642,0,1,1-.641-.613A.628.628,0,0,1,457.727,118.407Z" transform="translate(-427.595 -117.794)" fill="#fff"/>
          <path id="Trazado_99279_-_Contorno" data-name="Trazado 99279 - Contorno" d="M457.086,119.521a1.114,1.114,0,1,1,1.141-1.113A1.129,1.129,0,0,1,457.086,119.521Z" transform="translate(-427.595 -117.794)" fill="#fff"/>
          <path id="Trazado_99280" data-name="Trazado 99280" d="M466.174,118.407a.642.642,0,1,1-.641-.613A.628.628,0,0,1,466.174,118.407Z" transform="translate(-430.272 -117.794)" fill="#fff"/>
          <path id="Trazado_99280_-_Contorno" data-name="Trazado 99280 - Contorno" d="M465.533,119.521a1.114,1.114,0,1,1,1.141-1.113A1.129,1.129,0,0,1,465.533,119.521Z" transform="translate(-430.272 -117.794)" fill="#fff"/>
          <path id="Trazado_99281" data-name="Trazado 99281" d="M474.62,118.407a.642.642,0,1,1-.641-.613A.628.628,0,0,1,474.62,118.407Z" transform="translate(-432.948 -117.794)" fill="#fff"/>
          <path id="Trazado_99281_-_Contorno" data-name="Trazado 99281 - Contorno" d="M473.98,119.521a1.114,1.114,0,1,1,1.141-1.113A1.129,1.129,0,0,1,473.98,119.521Z" transform="translate(-432.948 -117.794)" fill="#fff"/>
          <path id="Trazado_99282" data-name="Trazado 99282" d="M483.066,118.407a.642.642,0,1,1-.641-.613A.628.628,0,0,1,483.066,118.407Z" transform="translate(-435.624 -117.794)" fill="#fff"/>
          <path id="Trazado_99282_-_Contorno" data-name="Trazado 99282 - Contorno" d="M482.425,119.521a1.114,1.114,0,1,1,1.141-1.113A1.129,1.129,0,0,1,482.425,119.521Z" transform="translate(-435.624 -117.794)" fill="#fff"/>
          <path id="Trazado_99283" data-name="Trazado 99283" d="M491.513,118.407a.642.642,0,1,1-.641-.613A.628.628,0,0,1,491.513,118.407Z" transform="translate(-438.301 -117.794)" fill="#fff"/>
          <path id="Trazado_99283_-_Contorno" data-name="Trazado 99283 - Contorno" d="M490.872,119.521a1.114,1.114,0,1,1,1.141-1.113A1.129,1.129,0,0,1,490.872,119.521Z" transform="translate(-438.301 -117.794)" fill="#fff"/>
          <path id="Trazado_99284" data-name="Trazado 99284" d="M499.959,118.407a.642.642,0,1,1-.641-.613A.628.628,0,0,1,499.959,118.407Z" transform="translate(-440.977 -117.794)" fill="#fff"/>
          <path id="Trazado_99284_-_Contorno" data-name="Trazado 99284 - Contorno" d="M499.318,119.521a1.114,1.114,0,1,1,1.141-1.113A1.129,1.129,0,0,1,499.318,119.521Z" transform="translate(-440.977 -117.794)" fill="#fff"/>
        </g>
        <g id="Grupo_53316" data-name="Grupo 53316" transform="translate(0 49.049)">
          <ellipse id="Elipse_3980" data-name="Elipse 3980" cx="0.641" cy="0.613" rx="0.641" ry="0.613" transform="translate(0 0)" fill="#fff"/>
          <path id="Elipse_3980_-_Contorno" data-name="Elipse 3980 - Contorno" d="M.641-.5A1.129,1.129,0,0,1,1.782.613,1.129,1.129,0,0,1,.641,1.726,1.129,1.129,0,0,1-.5.613,1.129,1.129,0,0,1,.641-.5Z" transform="translate(0 0)" fill="#fff"/>
          <path id="Trazado_99285" data-name="Trazado 99285" d="M423.942,125.915a.642.642,0,1,1-.641-.613A.627.627,0,0,1,423.942,125.915Z" transform="translate(-416.89 -125.302)" fill="#fff"/>
          <path id="Trazado_99285_-_Contorno" data-name="Trazado 99285 - Contorno" d="M423.3,127.028a1.113,1.113,0,1,1,1.141-1.113A1.129,1.129,0,0,1,423.3,127.028Z" transform="translate(-416.89 -125.302)" fill="#fff"/>
          <ellipse id="Elipse_3981" data-name="Elipse 3981" cx="0.641" cy="0.613" rx="0.641" ry="0.613" transform="translate(11.54 0)" fill="#fff"/>
          <path id="Elipse_3981_-_Contorno" data-name="Elipse 3981 - Contorno" d="M.641-.5A1.129,1.129,0,0,1,1.782.613,1.129,1.129,0,0,1,.641,1.726,1.129,1.129,0,0,1-.5.613,1.129,1.129,0,0,1,.641-.5Z" transform="translate(11.54 0)" fill="#fff"/>
          <path id="Trazado_99286" data-name="Trazado 99286" d="M440.835,125.915a.642.642,0,1,1-.641-.613A.628.628,0,0,1,440.835,125.915Z" transform="translate(-422.243 -125.302)" fill="#fff"/>
          <path id="Trazado_99286_-_Contorno" data-name="Trazado 99286 - Contorno" d="M440.194,127.028a1.113,1.113,0,1,1,1.141-1.113A1.128,1.128,0,0,1,440.194,127.028Z" transform="translate(-422.243 -125.302)" fill="#fff"/>
          <path id="Trazado_99287" data-name="Trazado 99287" d="M449.281,125.915a.642.642,0,1,1-.641-.613A.627.627,0,0,1,449.281,125.915Z" transform="translate(-424.919 -125.302)" fill="#fff"/>
          <path id="Trazado_99287_-_Contorno" data-name="Trazado 99287 - Contorno" d="M448.64,127.028a1.113,1.113,0,1,1,1.141-1.113A1.129,1.129,0,0,1,448.64,127.028Z" transform="translate(-424.919 -125.302)" fill="#fff"/>
          <ellipse id="Elipse_3982" data-name="Elipse 3982" cx="0.641" cy="0.613" rx="0.641" ry="0.613" transform="translate(28.85 0)" fill="#fff"/>
          <path id="Elipse_3982_-_Contorno" data-name="Elipse 3982 - Contorno" d="M.641-.5A1.129,1.129,0,0,1,1.782.613,1.129,1.129,0,0,1,.641,1.726,1.129,1.129,0,0,1-.5.613,1.129,1.129,0,0,1,.641-.5Z" transform="translate(28.85 0)" fill="#fff"/>
          <path id="Trazado_99288" data-name="Trazado 99288" d="M466.174,125.915a.642.642,0,1,1-.641-.613A.628.628,0,0,1,466.174,125.915Z" transform="translate(-430.272 -125.302)" fill="#fff"/>
          <path id="Trazado_99288_-_Contorno" data-name="Trazado 99288 - Contorno" d="M465.533,127.028a1.113,1.113,0,1,1,1.141-1.113A1.128,1.128,0,0,1,465.533,127.028Z" transform="translate(-430.272 -125.302)" fill="#fff"/>
          <ellipse id="Elipse_3983" data-name="Elipse 3983" cx="0.641" cy="0.613" rx="0.641" ry="0.613" transform="translate(40.39 0)" fill="#fff"/>
          <path id="Elipse_3983_-_Contorno" data-name="Elipse 3983 - Contorno" d="M.641-.5A1.129,1.129,0,0,1,1.782.613,1.129,1.129,0,0,1,.641,1.726,1.129,1.129,0,0,1-.5.613,1.129,1.129,0,0,1,.641-.5Z" transform="translate(40.39 0)" fill="#fff"/>
          <ellipse id="Elipse_3984" data-name="Elipse 3984" cx="0.641" cy="0.613" rx="0.641" ry="0.613" transform="translate(46.16 0)" fill="#fff"/>
          <path id="Elipse_3984_-_Contorno" data-name="Elipse 3984 - Contorno" d="M.641-.5A1.129,1.129,0,0,1,1.782.613,1.129,1.129,0,0,1,.641,1.726,1.129,1.129,0,0,1-.5.613,1.129,1.129,0,0,1,.641-.5Z" transform="translate(46.16 0)" fill="#fff"/>
          <path id="Trazado_99289" data-name="Trazado 99289" d="M491.513,125.915a.642.642,0,1,1-.641-.613A.628.628,0,0,1,491.513,125.915Z" transform="translate(-438.3 -125.302)" fill="#fff"/>
          <path id="Trazado_99289_-_Contorno" data-name="Trazado 99289 - Contorno" d="M490.872,127.028a1.113,1.113,0,1,1,1.141-1.113A1.128,1.128,0,0,1,490.872,127.028Z" transform="translate(-438.3 -125.302)" fill="#fff"/>
          <path id="Trazado_99290" data-name="Trazado 99290" d="M499.959,125.915a.642.642,0,1,1-.641-.613A.627.627,0,0,1,499.959,125.915Z" transform="translate(-440.977 -125.302)" fill="#fff"/>
          <path id="Trazado_99290_-_Contorno" data-name="Trazado 99290 - Contorno" d="M499.318,127.028a1.113,1.113,0,1,1,1.141-1.113A1.128,1.128,0,0,1,499.318,127.028Z" transform="translate(-440.977 -125.302)" fill="#fff"/>
        </g>
        <g id="Grupo_53317" data-name="Grupo 53317" transform="translate(0 53.954)">
          <ellipse id="Elipse_3985" data-name="Elipse 3985" cx="0.641" cy="0.613" rx="0.641" ry="0.613" transform="translate(0 0)" fill="#fff"/>
          <path id="Elipse_3985_-_Contorno" data-name="Elipse 3985 - Contorno" d="M.641-.5A1.129,1.129,0,0,1,1.782.613,1.129,1.129,0,0,1,.641,1.726,1.129,1.129,0,0,1-.5.613,1.129,1.129,0,0,1,.641-.5Z" transform="translate(0 0)" fill="#fff"/>
          <path id="Trazado_99291" data-name="Trazado 99291" d="M423.942,133.423a.642.642,0,1,1-.641-.613A.627.627,0,0,1,423.942,133.423Z" transform="translate(-416.89 -132.81)" fill="#fff"/>
          <path id="Trazado_99291_-_Contorno" data-name="Trazado 99291 - Contorno" d="M423.3,134.536a1.113,1.113,0,1,1,1.141-1.113A1.129,1.129,0,0,1,423.3,134.536Z" transform="translate(-416.89 -132.81)" fill="#fff"/>
          <ellipse id="Elipse_3986" data-name="Elipse 3986" cx="0.641" cy="0.613" rx="0.641" ry="0.613" transform="translate(11.54 0)" fill="#fff"/>
          <path id="Elipse_3986_-_Contorno" data-name="Elipse 3986 - Contorno" d="M.641-.5A1.129,1.129,0,0,1,1.782.613,1.129,1.129,0,0,1,.641,1.726,1.129,1.129,0,0,1-.5.613,1.129,1.129,0,0,1,.641-.5Z" transform="translate(11.54 0)" fill="#fff"/>
          <path id="Trazado_99292" data-name="Trazado 99292" d="M440.835,133.423a.642.642,0,1,1-.641-.613A.627.627,0,0,1,440.835,133.423Z" transform="translate(-422.243 -132.81)" fill="#fff"/>
          <path id="Trazado_99292_-_Contorno" data-name="Trazado 99292 - Contorno" d="M440.194,134.536a1.113,1.113,0,1,1,1.141-1.113A1.128,1.128,0,0,1,440.194,134.536Z" transform="translate(-422.243 -132.81)" fill="#fff"/>
          <path id="Trazado_99293" data-name="Trazado 99293" d="M449.281,133.423a.642.642,0,1,1-.641-.613A.627.627,0,0,1,449.281,133.423Z" transform="translate(-424.919 -132.81)" fill="#fff"/>
          <path id="Trazado_99293_-_Contorno" data-name="Trazado 99293 - Contorno" d="M448.64,134.536a1.113,1.113,0,1,1,1.141-1.113A1.129,1.129,0,0,1,448.64,134.536Z" transform="translate(-424.919 -132.81)" fill="#fff"/>
          <ellipse id="Elipse_3987" data-name="Elipse 3987" cx="0.641" cy="0.613" rx="0.641" ry="0.613" transform="translate(28.85 0)" fill="#fff"/>
          <path id="Elipse_3987_-_Contorno" data-name="Elipse 3987 - Contorno" d="M.641-.5A1.129,1.129,0,0,1,1.782.613,1.129,1.129,0,0,1,.641,1.726,1.129,1.129,0,0,1-.5.613,1.129,1.129,0,0,1,.641-.5Z" transform="translate(28.85 0)" fill="#fff"/>
          <path id="Trazado_99294" data-name="Trazado 99294" d="M466.174,133.423a.642.642,0,1,1-.641-.613A.628.628,0,0,1,466.174,133.423Z" transform="translate(-430.272 -132.81)" fill="#fff"/>
          <path id="Trazado_99294_-_Contorno" data-name="Trazado 99294 - Contorno" d="M465.533,134.536a1.113,1.113,0,1,1,1.141-1.113A1.128,1.128,0,0,1,465.533,134.536Z" transform="translate(-430.272 -132.81)" fill="#fff"/>
          <ellipse id="Elipse_3988" data-name="Elipse 3988" cx="0.641" cy="0.613" rx="0.641" ry="0.613" transform="translate(40.39 0)" fill="#fff"/>
          <path id="Elipse_3988_-_Contorno" data-name="Elipse 3988 - Contorno" d="M.641-.5A1.129,1.129,0,0,1,1.782.613,1.129,1.129,0,0,1,.641,1.726,1.129,1.129,0,0,1-.5.613,1.129,1.129,0,0,1,.641-.5Z" transform="translate(40.39 0)" fill="#fff"/>
          <ellipse id="Elipse_3989" data-name="Elipse 3989" cx="0.641" cy="0.613" rx="0.641" ry="0.613" transform="translate(46.16 0)" fill="#fff"/>
          <path id="Elipse_3989_-_Contorno" data-name="Elipse 3989 - Contorno" d="M.641-.5A1.129,1.129,0,0,1,1.782.613,1.129,1.129,0,0,1,.641,1.726,1.129,1.129,0,0,1-.5.613,1.129,1.129,0,0,1,.641-.5Z" transform="translate(46.16 0)" fill="#fff"/>
          <path id="Trazado_99295" data-name="Trazado 99295" d="M491.513,133.423a.642.642,0,1,1-.641-.613A.628.628,0,0,1,491.513,133.423Z" transform="translate(-438.3 -132.81)" fill="#fff"/>
          <path id="Trazado_99295_-_Contorno" data-name="Trazado 99295 - Contorno" d="M490.872,134.536a1.113,1.113,0,1,1,1.141-1.113A1.128,1.128,0,0,1,490.872,134.536Z" transform="translate(-438.3 -132.81)" fill="#fff"/>
          <path id="Trazado_99296" data-name="Trazado 99296" d="M499.959,133.423a.642.642,0,1,1-.641-.613A.627.627,0,0,1,499.959,133.423Z" transform="translate(-440.977 -132.81)" fill="#fff"/>
          <path id="Trazado_99296_-_Contorno" data-name="Trazado 99296 - Contorno" d="M499.318,134.536a1.113,1.113,0,1,1,1.141-1.113A1.128,1.128,0,0,1,499.318,134.536Z" transform="translate(-440.977 -132.81)" fill="#fff"/>
        </g>
      </g>
      <path id="Línea_138" data-name="Línea 138" d="M-.452,101.43l0-5.43h1l0,5.43ZM-.458,88l0-8h1l0,8ZM-.466,72l0-8h1l0,8ZM-.474,56l0-8h1l0,8ZM-.481,40l0-8h1l0,8ZM-.489,24l0-8h1l0,8ZM-.5,8l0-8h1l0,8Z" transform="translate(861.5 947.5)" fill="#3c6d9d"/>
    </g>
    <g id="Grupo_134117" data-name="Grupo 134117" transform="translate(-24)">
      <rect id="Rectángulo_35705" data-name="Rectángulo 35705" width="100" height="100" transform="translate(774 1555)" fill="none"/>
      <g id="QLK311" transform="translate(-657.472 -693.644)">
        <g id="Grupo_134116" data-name="Grupo 134116" transform="translate(1435.472 2252.643)">
          <path id="Trazado_147319" data-name="Trazado 147319" d="M1499.984,2252.643a20.166,20.166,0,0,1,2.205.709,8.909,8.909,0,0,1,5.724,8.445c.094,5.36.026,10.722.027,16.083v1.038a21.483,21.483,0,0,1,15.384,8.158,21.179,21.179,0,0,1,4.641,12.2,21.761,21.761,0,0,1-16.944,22.346c0,1.762-.012,3.537.014,5.311a1.373,1.373,0,0,0,.312.715,6.3,6.3,0,0,1,1.234,3.8c.017,2.5.044,5-.011,7.5a6.154,6.154,0,0,1-12.119,1.6,10.74,10.74,0,0,1-.221-2.147c-.036-.835-.008-1.673-.008-2.456H1474.5q-14.364,0-28.727.006c-5.6,0-8.757-2.432-10.193-7.875a1.722,1.722,0,0,0-.107-.242V2260.6c.064-.19.144-.378.189-.573a9.018,9.018,0,0,1,4.61-6.2,23.359,23.359,0,0,1,3.151-1.179Zm-61.433,21.648v.863q0,25.484,0,50.966c0,4.157,2.55,6.736,6.677,6.737q24.71.007,49.42,0c1.565,0,3.129-.058,4.694-.07.691-.005.924-.3.889-1a6.231,6.231,0,0,1,1.284-4.23,1.172,1.172,0,0,0,.247-.647c.02-1.774.011-3.549.011-5.31a21.691,21.691,0,0,1-16.958-21.9,21.063,21.063,0,0,1,4.344-12.223,21.519,21.519,0,0,1,15.662-8.572v-4.62Zm67.759,44.676a18.514,18.514,0,1,0-18.419-18.6A18.564,18.564,0,0,0,1506.31,2318.967Zm-1.552-47.855a1.251,1.251,0,0,0,.089-.261c.007-2.953.034-5.9.009-8.856a6.139,6.139,0,0,0-6.319-6.267q-26.789-.017-53.578,0a6.148,6.148,0,0,0-6.4,6.368c-.019,2.741-.008,5.482-.006,8.223,0,.256.036.513.056.789Zm-1.445,64.026c0,1.235-.023,2.47.005,3.7a3.09,3.09,0,1,0,6.169-.012q.049-3.658,0-7.318a3.093,3.093,0,1,0-6.172.011C1503.294,2332.728,1503.314,2333.934,1503.314,2335.138Zm1.61-13.088v3.153h2.954v-3.153Z" transform="translate(-1435.472 -2252.643)" fill="#fff"/>
          <path id="Trazado_147320" data-name="Trazado 147320" d="M1453.9,2308.6a10.839,10.839,0,1,1,13.82-.023c.411.2.814.385,1.2.6a10.391,10.391,0,0,1,5.735,9.187c.115,3.73.057,7.467.022,11.2a4.526,4.526,0,0,1-4.612,4.565q-9.211.036-18.424,0a4.525,4.525,0,0,1-4.662-4.6c-.038-3.673-.086-7.348.009-11.02a10.458,10.458,0,0,1,6.1-9.509C1453.348,2308.864,1453.619,2308.74,1453.9,2308.6Zm11.547,22.415v-3.34c0-2.92-.008-5.84.005-8.76a1.55,1.55,0,1,1,3.073.019c.006.271,0,.542,0,.813,0,3.161,0,6.322.009,9.483,0,1.118.638,1.835,1.562,1.821a1.565,1.565,0,0,0,1.5-1.773c.007-3.583.036-7.166-.013-10.747a7.391,7.391,0,0,0-6.339-7.34,57.006,57.006,0,0,0-7.3-.179,7.651,7.651,0,0,0-7.9,7.844c-.024,2.468-.006,4.937,0,7.406,0,1.084-.015,2.168.019,3.251a1.51,1.51,0,0,0,1.458,1.537,1.573,1.573,0,0,0,1.584-1.43,5.613,5.613,0,0,0,.016-.721c0-3.342,0-6.684.011-10.024a1.537,1.537,0,1,1,3.062-.076c.021,4.059.009,8.117.009,12.219Zm-4.5-38.5a7.7,7.7,0,1,0,7.575,7.876A7.658,7.658,0,0,0,1460.945,2292.522Z" transform="translate(-1439.239 -2264.737)" fill="#fff"/>
          <path id="Trazado_147321" data-name="Trazado 147321" d="M1472.325,2363.7q-11.7,0-23.393,0c-1.157,0-1.77-.4-1.916-1.234-.188-1.072.527-1.837,1.768-1.841q5.916-.017,11.832-.009l34.773,0c.211,0,.422,0,.632,0,1.15.021,1.814.6,1.806,1.562s-.658,1.515-1.839,1.516Q1484.157,2363.7,1472.325,2363.7Z" transform="translate(-1439.257 -2288.135)" fill="#fff"/>
          <path id="Trazado_147322" data-name="Trazado 147322" d="M1501.423,2354.531c-2.2,0-4.4,0-6.595,0-1.206,0-1.93-.588-1.933-1.543s.724-1.536,1.933-1.537q6.594-.007,13.188,0c1.155,0,1.82.575,1.823,1.537s-.67,1.534-1.823,1.537c-2.2.007-4.4,0-6.594,0Z" transform="translate(-1454.348 -2285.121)" fill="#fff"/>
          <path id="Trazado_147323" data-name="Trazado 147323" d="M1499.127,2342.26c1.443,0,2.885-.009,4.328,0,1.074.009,1.751.6,1.767,1.5.017.939-.679,1.573-1.8,1.578q-4.372.019-8.745,0a1.6,1.6,0,0,1-1.779-1.517c-.021-.924.691-1.548,1.811-1.556,1.473-.01,2.945,0,4.418,0Z" transform="translate(-1454.349 -2282.101)" fill="#fff"/>
          <path id="Trazado_147324" data-name="Trazado 147324" d="M1520.824,2321.594c-.785-.695-1.439-1.222-2.032-1.809a1.513,1.513,0,0,1-.171-2.306,1.534,1.534,0,0,1,2.311.108q1.426,1.376,2.806,2.8a1.563,1.563,0,0,1,0,2.452q-1.409,1.457-2.866,2.866a1.554,1.554,0,0,1-2.252.118,1.515,1.515,0,0,1,.1-2.306C1519.327,2322.9,1520,2322.344,1520.824,2321.594Z" transform="translate(-1462.644 -2273.8)" fill="#fff"/>
          <path id="Trazado_147325" data-name="Trazado 147325" d="M1538.867,2341.219c-.7.766-1.249,1.409-1.847,2a1.541,1.541,0,1,1-2.183-2.155c.94-.974,1.9-1.936,2.872-2.874a1.525,1.525,0,0,1,2.325-.018q1.5,1.434,2.934,2.939a1.537,1.537,0,1,1-2.211,2.124C1540.157,2342.646,1539.6,2342.009,1538.867,2341.219Z" transform="translate(-1467.949 -2280.584)" fill="#fff"/>
          <path id="Trazado_147326" data-name="Trazado 147326" d="M1538.9,2303.565c.7-.783,1.227-1.437,1.817-2.032a1.526,1.526,0,0,1,2.315-.162,1.553,1.553,0,0,1-.128,2.321c-.922.951-1.857,1.891-2.812,2.81a1.569,1.569,0,0,1-2.457-.044q-1.39-1.357-2.745-2.75a1.549,1.549,0,0,1-.162-2.318,1.516,1.516,0,0,1,2.313.127C1537.631,2302.111,1538.17,2302.761,1538.9,2303.565Z" transform="translate(-1467.951 -2268.51)" fill="#fff"/>
          <path id="Trazado_147327" data-name="Trazado 147327" d="M1558.413,2321.648c.777.679,1.436,1.2,2.031,1.787a1.514,1.514,0,0,1,.172,2.31,1.54,1.54,0,0,1-2.315-.115q-1.426-1.383-2.807-2.81a1.556,1.556,0,0,1,.035-2.453q1.351-1.393,2.743-2.747a1.553,1.553,0,1,1,2.14,2.2C1559.839,2320.4,1559.216,2320.92,1558.413,2321.648Z" transform="translate(-1474.734 -2273.8)" fill="#fff"/>
          <path id="Trazado_147328" data-name="Trazado 147328" d="M1509.8,2271.066q-3.7,0-7.4,0a4.631,4.631,0,1,1-.04-9.246q7.488-.021,14.977,0a4.626,4.626,0,1,1,.04,9.245c-2.526.023-5.053,0-7.579,0Zm-.036-3.093v.006c2.469,0,4.937,0,7.406,0,1.2,0,1.929-.607,1.907-1.557-.022-.915-.741-1.519-1.877-1.521q-7.36-.012-14.72,0c-1.2,0-1.908.607-1.89,1.58.017.943.687,1.489,1.859,1.492C1504.89,2267.977,1507.329,2267.973,1509.767,2267.973Z" transform="translate(-1455.858 -2255.656)" fill="#fff"/>
          <path id="Trazado_147329" data-name="Trazado 147329" d="M1467.67,2271.062a4.621,4.621,0,1,1,4.614-4.578A4.628,4.628,0,0,1,1467.67,2271.062Zm-.033-3.089a1.5,1.5,0,0,0,1.541-1.522,1.524,1.524,0,0,0-3.047-.039A1.5,1.5,0,0,0,1467.637,2267.973Z" transform="translate(-1444.528 -2255.66)" fill="#fff"/>
          <path id="Trazado_147330" data-name="Trazado 147330" d="M1449.289,2271.071a4.623,4.623,0,1,1,4.6-4.57A4.569,4.569,0,0,1,1449.289,2271.071Zm1.51-4.626a1.541,1.541,0,0,0-1.555-1.531,1.593,1.593,0,0,0-1.506,1.511,1.539,1.539,0,0,0,1.533,1.551A1.484,1.484,0,0,0,1450.8,2266.444Z" transform="translate(-1438.49 -2255.661)" fill="#fff"/>
        </g>
      </g>
    </g>
  </g>
</svg>
