<svg xmlns="http://www.w3.org/2000/svg" width="153" height="153" viewBox="0 0 153 153">
  <g id="Grupo_134251" data-name="Grupo 134251" transform="translate(-1215 -8651)">
    <g id="QLK311" transform="translate(1228.15 8660.535)">
      <g id="Grupo_134249" data-name="Grupo 134249" transform="translate(0 0)">
        <path id="Trazado_147535" data-name="Trazado 147535" d="M1529.568,2252.643a29.214,29.214,0,0,1,3.217,1.035c5.307,2.378,8.246,6.493,8.349,12.319.137,7.817.037,15.639.039,23.458v1.514a31.335,31.335,0,0,1,22.439,11.9,30.9,30.9,0,0,1,6.769,17.8,31.741,31.741,0,0,1-24.714,32.594c0,2.57-.017,5.159.021,7.747a2,2,0,0,0,.455,1.043,9.192,9.192,0,0,1,1.8,5.543c.026,3.646.065,7.294-.016,10.938a8.977,8.977,0,0,1-17.677,2.327,15.67,15.67,0,0,1-.322-3.132c-.052-1.218-.012-2.44-.012-3.582H1492.4q-20.951,0-41.9.009c-8.171,0-12.773-3.547-14.868-11.487a2.5,2.5,0,0,0-.156-.353v-98.071c.093-.279.21-.552.276-.836a13.154,13.154,0,0,1,6.724-9.044,34.133,34.133,0,0,1,4.6-1.72Zm-89.605,31.576v1.259q0,37.17.007,74.34c0,6.063,3.719,9.826,9.739,9.827q36.042.01,72.084,0c2.282,0,4.564-.084,6.846-.1,1.007-.008,1.348-.443,1.3-1.458a9.089,9.089,0,0,1,1.873-6.169,1.711,1.711,0,0,0,.36-.944c.029-2.588.016-5.176.016-7.745-15.023-3.141-25.324-17.223-24.736-31.937a30.723,30.723,0,0,1,6.336-17.828,31.389,31.389,0,0,1,22.844-12.5v-6.738Zm98.833,65.165a27,27,0,1,0-26.865-27.131A27.078,27.078,0,0,0,1538.8,2349.384Zm-2.264-69.8a1.83,1.83,0,0,0,.13-.381c.01-4.306.05-8.611.013-12.917a8.955,8.955,0,0,0-9.216-9.142q-39.075-.025-78.149.006a8.968,8.968,0,0,0-9.336,9.288c-.028,4-.012,8-.009,11.994,0,.374.052.748.082,1.151Zm-2.107,93.389c0,1.8-.033,3.6.008,5.4a4.506,4.506,0,1,0,9-.018q.072-5.336,0-10.674a4.537,4.537,0,0,0-4.511-4.818c-2.573.006-4.437,1.99-4.491,4.834C1534.4,2369.456,1534.425,2371.214,1534.425,2372.971Zm2.349-19.09v4.6h4.309v-4.6Z" transform="translate(-1435.472 -2252.643)" fill="#3c6d9d"/>
        <path id="Trazado_147536" data-name="Trazado 147536" d="M1458.15,2320.3a17.448,17.448,0,1,1,23.625-25.615c5.925,6.006,7.508,17.5-1.376,25.578.661.328,1.31.619,1.928.965,5.787,3.236,9.028,8.152,9.233,14.79.186,6.006.092,12.021.036,18.031a7.285,7.285,0,0,1-7.425,7.349q-14.829.058-29.66,0a7.284,7.284,0,0,1-7.505-7.412c-.062-5.913-.138-11.831.015-17.74.182-7.016,3.619-12.084,9.818-15.309C1457.263,2320.715,1457.7,2320.515,1458.15,2320.3Zm18.59,36.086v-5.376c0-4.7-.013-9.4.008-14.1a2.557,2.557,0,0,1,2.494-2.809c1.442.01,2.414,1.133,2.453,2.839.01.436,0,.872,0,1.309,0,5.088,0,10.177.015,15.266.006,1.8,1.027,2.953,2.515,2.931,1.451-.021,2.419-1.123,2.422-2.855.012-5.768.058-11.535-.022-17.3a11.9,11.9,0,0,0-10.2-11.816,91.594,91.594,0,0,0-11.746-.288,12.317,12.317,0,0,0-12.72,12.627c-.038,3.974-.01,7.948-.008,11.922,0,1.745-.024,3.491.031,5.234a2.431,2.431,0,0,0,2.347,2.475,2.533,2.533,0,0,0,2.55-2.3,9.029,9.029,0,0,0,.025-1.162c0-5.38-.005-10.759.017-16.138a2.474,2.474,0,1,1,4.93-.122c.035,6.534.015,13.068.015,19.671Zm-7.247-61.976a12.4,12.4,0,1,0,12.194,12.68A12.328,12.328,0,0,0,1469.493,2294.405Z" transform="translate(-1434.548 -2256.903)" fill="#3c6d9d"/>
        <path id="Trazado_147537" data-name="Trazado 147537" d="M1487.779,2365.581q-18.83,0-37.66,0c-1.862,0-2.85-.65-3.084-1.986-.3-1.726.848-2.958,2.845-2.963q9.523-.027,19.048-.014,27.99,0,55.98.008c.34,0,.679-.005,1.018,0,1.851.034,2.92.96,2.907,2.513s-1.06,2.439-2.96,2.44Q1506.827,2365.587,1487.779,2365.581Z" transform="translate(-1434.543 -2255.274)" fill="#3c6d9d"/>
        <path id="Trazado_147538" data-name="Trazado 147538" d="M1506.624,2356.413c-3.539,0-7.077.005-10.617,0-1.942,0-3.107-.947-3.111-2.485s1.165-2.472,3.112-2.475q10.616-.011,21.231,0c1.86,0,2.93.926,2.935,2.475s-1.078,2.469-2.935,2.475c-3.538.012-7.077,0-10.616,0Z" transform="translate(-1437.978 -2255.05)" fill="#3c6d9d"/>
        <path id="Trazado_147539" data-name="Trazado 147539" d="M1502.926,2342.262c2.322,0,4.645-.015,6.967.006,1.729.014,2.819.962,2.845,2.416.027,1.512-1.094,2.532-2.9,2.54q-7.038.031-14.078,0c-1.716-.009-2.83-1-2.864-2.442-.035-1.488,1.112-2.492,2.916-2.505,2.371-.016,4.741,0,7.112,0Z" transform="translate(-1437.567 -2254.828)" fill="#3c6d9d"/>
        <path id="Trazado_147540" data-name="Trazado 147540" d="M1522.467,2324.393c-1.264-1.119-2.316-1.967-3.271-2.913-1.263-1.25-1.327-2.635-.276-3.712s2.479-1.024,3.72.174q2.3,2.216,4.517,4.507a2.516,2.516,0,0,1,0,3.948q-2.268,2.346-4.615,4.615a2.5,2.5,0,0,1-3.626.19,2.439,2.439,0,0,1,.156-3.713C1520.057,2326.5,1521.133,2325.6,1522.467,2324.393Z" transform="translate(-1437.801 -2254.711)" fill="#3c6d9d"/>
        <path id="Trazado_147541" data-name="Trazado 147541" d="M1541.669,2343.4c-1.133,1.233-2.01,2.269-2.974,3.216-1.242,1.221-2.679,1.245-3.72.152a2.453,2.453,0,0,1,.205-3.621c1.514-1.568,3.052-3.117,4.624-4.626a2.455,2.455,0,0,1,3.743-.028q2.417,2.308,4.724,4.731a2.474,2.474,0,1,1-3.56,3.419C1543.746,2345.7,1542.856,2344.673,1541.669,2343.4Z" transform="translate(-1438.645 -2255.032)" fill="#3c6d9d"/>
        <path id="Trazado_147542" data-name="Trazado 147542" d="M1541.715,2305.183c1.119-1.261,1.975-2.312,2.925-3.271,1.238-1.251,2.659-1.313,3.726-.26,1.049,1.034.994,2.5-.206,3.736-1.485,1.531-2.989,3.044-4.527,4.524a2.526,2.526,0,0,1-3.955-.07q-2.237-2.185-4.419-4.427c-1.222-1.256-1.3-2.668-.262-3.731s2.478-1.034,3.723.205C1539.678,2302.842,1540.545,2303.888,1541.715,2305.183Z" transform="translate(-1438.645 -2254)" fill="#3c6d9d"/>
        <path id="Trazado_147543" data-name="Trazado 147543" d="M1560.548,2324.48c1.251,1.093,2.312,1.933,3.269,2.878,1.269,1.252,1.331,2.643.277,3.718-1.039,1.062-2.489,1.015-3.726-.186q-2.3-2.225-4.519-4.523c-1.269-1.317-1.244-2.609.056-3.949q2.176-2.243,4.416-4.422c1.258-1.227,2.663-1.31,3.729-.277,1.113,1.079,1.038,2.5-.284,3.826C1562.843,2322.467,1561.84,2323.307,1560.548,2324.48Z" transform="translate(-1439.835 -2254.708)" fill="#3c6d9d"/>
        <path id="Trazado_147544" data-name="Trazado 147544" d="M1517.313,2276.712q-5.956,0-11.91,0c-4.567-.006-7.95-3.2-7.916-7.466.032-4.224,3.367-7.405,7.852-7.418q12.055-.032,24.111,0a7.447,7.447,0,1,1,.064,14.883c-4.067.038-8.135.008-12.2.008Zm-.057-4.979v.01c3.975,0,7.949.007,11.923,0,1.936-.006,3.106-.977,3.07-2.506-.036-1.473-1.193-2.445-3.022-2.448q-11.848-.019-23.7,0c-1.938,0-3.071.978-3.043,2.544.027,1.518,1.106,2.4,2.994,2.4C1509.4,2271.74,1513.331,2271.733,1517.256,2271.733Z" transform="translate(-1439.058 -2251.904)" fill="#3c6d9d"/>
        <path id="Trazado_147545" data-name="Trazado 147545" d="M1470.5,2276.7a7.44,7.44,0,1,1,7.427-7.37A7.45,7.45,0,0,1,1470.5,2276.7Zm-.053-4.973a2.407,2.407,0,0,0,2.481-2.451,2.453,2.453,0,0,0-4.905-.062A2.422,2.422,0,0,0,1470.452,2271.726Z" transform="translate(-1436.358 -2251.903)" fill="#3c6d9d"/>
        <path id="Trazado_147546" data-name="Trazado 147546" d="M1452.117,2276.709a7.442,7.442,0,1,1,7.41-7.357A7.355,7.355,0,0,1,1452.117,2276.709Zm2.432-7.448a2.481,2.481,0,0,0-2.5-2.464,2.564,2.564,0,0,0-2.425,2.433,2.477,2.477,0,0,0,2.468,2.5A2.389,2.389,0,0,0,1454.549,2269.261Z" transform="translate(-1434.731 -2251.902)" fill="#3c6d9d"/>
      </g>
    </g>
    <rect id="Rectángulo_35773" data-name="Rectángulo 35773" width="153" height="153" transform="translate(1215 8651)" fill="none"/>
  </g>
</svg>
