<svg xmlns="http://www.w3.org/2000/svg" xmlns:xlink="http://www.w3.org/1999/xlink" width="217.968" height="200.162" viewBox="0 0 217.968 200.162">
  <defs>
    <clipPath id="clip-path">
      <path id="Trazado_147415" data-name="Trazado 147415" d="M343.294,86.355l-6.85,66.841-4.213,41.119-58.871-6.031L261.9,187.111l-7.335-.751,6.5-63.457,4.562-44.5Z" transform="translate(-254.57 -78.4)" fill="#fff" stroke="#263238" stroke-linecap="round" stroke-linejoin="round" stroke-width="1"/>
    </clipPath>
    <clipPath id="clip-path-2">
      <circle id="Elipse_4804" data-name="Elipse 4804" cx="14.201" cy="14.201" r="14.201" transform="matrix(0.768, -0.64, 0.64, 0.768, 0, 18.179)" fill="#46ac63" stroke="#263238" stroke-miterlimit="10" stroke-width="1"/>
    </clipPath>
    <clipPath id="clip-path-3">
      <path id="Trazado_147440" data-name="Trazado 147440" d="M349.2,200.427l-1.607,3.648-43.243,57.656-4.816-3.07,6.539-8.2,38.84-48.72,3.426-2.176A1.216,1.216,0,0,1,349.2,200.427Z" transform="translate(-299.536 -199.562)" fill="#46ac63" stroke="#263238" stroke-linecap="round" stroke-linejoin="round" stroke-width="1"/>
    </clipPath>
    <clipPath id="clip-path-4">
      <path id="Trazado_147444" data-name="Trazado 147444" d="M309.539,291.962a170.745,170.745,0,0,1-9.47,16.356l-3.318.858s-7.61,7.563-12.253,11.337a10.412,10.412,0,0,1-2.27-1.906s6.594-12.661,13.888-20.675a9.306,9.306,0,0,1,2.393,1.271,11.753,11.753,0,0,1,2.5,2.4l8.131-10.229Z" transform="translate(-282.228 -291.371)" fill="#46ac63" stroke="#263238" stroke-linecap="round" stroke-linejoin="round" stroke-width="1"/>
    </clipPath>
    <clipPath id="clip-path-5">
      <path id="Trazado_147478" data-name="Trazado 147478" d="M177.153,167.329l-65.232,27.453-6.724,2.831L92.526,167.5,63.1,97.584,135.055,67.3Z" transform="translate(-63.1 -67.3)" fill="#fff" stroke="#263238" stroke-linecap="round" stroke-linejoin="round" stroke-width="1"/>
    </clipPath>
  </defs>
  <g id="Grupo_134238" data-name="Grupo 134238" transform="translate(-25.059 -50.162)">
    <g id="Grupo_134136" data-name="Grupo 134136" transform="translate(25.059 50.162)">
      <path id="Trazado_147385" data-name="Trazado 147385" d="M123.563,50.723c60.129-5.355,60.231,28.57,87.324,60.175s32.891,45.935,22.677,82.367-44.63,64.994-87.207,48.811-66.967-.642-93.823-15.012-36.828-42.133-17.17-74.854S49.42,57.326,123.563,50.723Z" transform="translate(-25.059 -50.162)" fill="#46ac63"/>
      <path id="Trazado_147386" data-name="Trazado 147386" d="M123.563,50.723c60.129-5.355,60.231,28.57,87.324,60.175s32.891,45.935,22.677,82.367-44.63,64.994-87.207,48.811-66.967-.642-93.823-15.012-36.828-42.133-17.17-74.854S49.42,57.326,123.563,50.723Z" transform="translate(-25.059 -50.162)" fill="#e9f3dd"/>
    </g>
    <g id="Grupo_134142" data-name="Grupo 134142" transform="translate(26.401 52.438)">
      <g id="Grupo_134137" data-name="Grupo 134137" transform="translate(98.507 0)">
        <rect id="Rectángulo_35709" data-name="Rectángulo 35709" width="15.044" height="15.044" rx="5.09" transform="translate(0 3.1) rotate(-11.893)" fill="none" stroke="#263238" stroke-linecap="round" stroke-linejoin="round" stroke-width="1"/>
        <line id="Línea_749" data-name="Línea 749" x2="1.264" y2="6.003" transform="translate(8.279 5.909)" fill="none" stroke="#263238" stroke-linecap="round" stroke-linejoin="round" stroke-width="1"/>
        <line id="Línea_750" data-name="Línea 750" x1="6.003" y2="1.264" transform="translate(5.909 8.278)" fill="none" stroke="#263238" stroke-linecap="round" stroke-linejoin="round" stroke-width="1"/>
      </g>
      <g id="Grupo_134138" data-name="Grupo 134138" transform="translate(198.213 105.746)">
        <rect id="Rectángulo_35710" data-name="Rectángulo 35710" width="15.044" height="15.044" rx="5.09" transform="translate(0 3.1) rotate(-11.893)" fill="none" stroke="#263238" stroke-linecap="round" stroke-linejoin="round" stroke-width="1"/>
        <line id="Línea_751" data-name="Línea 751" x1="3.351" y2="5.139" transform="translate(7.235 6.341)" fill="none" stroke="#263238" stroke-linecap="round" stroke-linejoin="round" stroke-width="1"/>
        <line id="Línea_752" data-name="Línea 752" x1="5.139" y1="3.351" transform="translate(6.341 7.235)" fill="none" stroke="#263238" stroke-linecap="round" stroke-linejoin="round" stroke-width="1"/>
      </g>
      <g id="Grupo_134139" data-name="Grupo 134139" transform="translate(63.868 169.382)">
        <rect id="Rectángulo_35711" data-name="Rectángulo 35711" width="15.044" height="15.044" rx="5.09" transform="translate(0.867 0) rotate(3.304)" fill="none" stroke="#263238" stroke-linecap="round" stroke-linejoin="round" stroke-width="1"/>
        <line id="Línea_753" data-name="Línea 753" x1="6.124" y1="0.354" transform="translate(4.881 7.766)" fill="none" stroke="#263238" stroke-linecap="round" stroke-linejoin="round" stroke-width="1"/>
      </g>
      <g id="Grupo_134141" data-name="Grupo 134141" transform="translate(0 96.339)">
        <rect id="Rectángulo_35712" data-name="Rectángulo 35712" width="15.044" height="15.044" rx="5.09" transform="translate(4.731 0) rotate(18.329)" fill="none" stroke="#263238" stroke-linecap="round" stroke-linejoin="round" stroke-width="1"/>
        <line id="Línea_754" data-name="Línea 754" x1="7.675" y2="3.855" transform="translate(5.668 7.578)" fill="none" stroke="#263238" stroke-linecap="round" stroke-linejoin="round" stroke-width="1"/>
        <g id="Grupo_134140" data-name="Grupo 134140" transform="translate(6.912 5.402)">
          <path id="Trazado_147387" data-name="Trazado 147387" d="M44.112,265.32a1.071,1.071,0,1,1-1.437-.476A1.071,1.071,0,0,1,44.112,265.32Z" transform="translate(-42.084 -264.729)" fill="none" stroke="#263238" stroke-linecap="round" stroke-linejoin="round" stroke-width="1"/>
          <path id="Trazado_147388" data-name="Trazado 147388" d="M50.4,277.83a1.071,1.071,0,1,1-1.437-.477A1.071,1.071,0,0,1,50.4,277.83Z" transform="translate(-45.322 -271.175)" fill="none" stroke="#263238" stroke-linecap="round" stroke-linejoin="round" stroke-width="1"/>
        </g>
      </g>
    </g>
    <g id="Grupo_134208" data-name="Grupo 134208" transform="translate(136.32 63.851)">
      <path id="Trazado_147389" data-name="Trazado 147389" d="M293.313,300.254s-.037,18.536,0,19.618,1.44,7.592,1.44,7.592l-4.5,8.3,3.875,3.123,7.539-7.41s6.419,3.965,7.593,9.636,8.157,9.8,15.405,25.508,15.514-35.144,15.514-35.144l-22.361-28.153Z" transform="translate(-272.954 -192.704)" fill="rgba(0,0,0,0.7)" opacity="0.2"/>
      <g id="Grupo_134196" data-name="Grupo 134196" transform="translate(0)">
        <path id="Trazado_147390" data-name="Trazado 147390" d="M343.294,86.355l-6.85,66.841-4.213,41.119-58.871-6.031L261.9,187.111l-7.335-.751,6.5-63.457,4.562-44.5Z" transform="translate(-254.57 -78.4)" fill="#fff"/>
        <g id="Grupo_134195" data-name="Grupo 134195" clip-path="url(#clip-path)">
          <path id="Trazado_147391" data-name="Trazado 147391" d="M354.092,96.3l-33.524-3.436a1.145,1.145,0,0,0-.234,2.279l33.524,3.435a1.145,1.145,0,1,0,.234-2.278Z" transform="translate(-287.924 -85.849)" fill="#263238"/>
          <path id="Trazado_147392" data-name="Trazado 147392" d="M354.3,106.017,337.538,104.3a.573.573,0,0,0-.117,1.14l16.762,1.718a.573.573,0,1,0,.117-1.139Z" transform="translate(-296.992 -91.742)" fill="#263238"/>
          <g id="Grupo_134143" data-name="Grupo 134143" transform="translate(11.011 58.028)">
            <path id="Trazado_147393" data-name="Trazado 147393" d="M352.33,203.679,297.92,198.1a.573.573,0,1,0-.116,1.139l54.41,5.575a.573.573,0,0,0,.117-1.139Z" transform="translate(-287.591 -198.101)" fill="#263238"/>
            <path id="Trazado_147394" data-name="Trazado 147394" d="M342.049,211.166l-63.268-6.483a.573.573,0,1,0-.116,1.139l63.268,6.483a.573.573,0,0,0,.116-1.14Z" transform="translate(-277.73 -201.49)" fill="#263238"/>
            <path id="Trazado_147395" data-name="Trazado 147395" d="M323.466,217.8l-45.552-4.668a.573.573,0,1,0-.116,1.139l45.552,4.668a.573.573,0,1,0,.116-1.139Z" transform="translate(-277.284 -205.844)" fill="#263238"/>
          </g>
          <rect id="Rectángulo_35713" data-name="Rectángulo 35713" width="18.162" height="64.115" transform="translate(9.079 87.805) rotate(-84.149)" fill="#bfbfbf" stroke="#263238" stroke-miterlimit="10" stroke-width="1"/>
          <g id="Grupo_134169" data-name="Grupo 134169" transform="translate(11.089 17.935)">
            <g id="Grupo_134147" data-name="Grupo 134147" transform="translate(0 0)">
              <g id="Grupo_134145" data-name="Grupo 134145">
                <circle id="Elipse_4802" data-name="Elipse 4802" cx="14.201" cy="14.201" r="14.201" transform="matrix(0.768, -0.64, 0.64, 0.768, 0, 18.179)" fill="#46ac63"/>
                <g id="Grupo_134144" data-name="Grupo 134144" clip-path="url(#clip-path-2)">
                  <circle id="Elipse_4803" data-name="Elipse 4803" cx="14.201" cy="14.201" r="14.201" transform="matrix(0.768, -0.64, 0.64, 0.768, 0, 18.179)" fill="#fff" opacity="0.5"/>
                </g>
                <circle id="Elipse_4805" data-name="Elipse 4805" cx="14.201" cy="14.201" r="14.201" transform="matrix(0.768, -0.64, 0.64, 0.768, 0, 18.179)" fill="none" stroke="#263238" stroke-miterlimit="10" stroke-width="1"/>
              </g>
              <g id="Grupo_134146" data-name="Grupo 134146" transform="translate(6.438 6.438)">
                <path id="Trazado_147396" data-name="Trazado 147396" d="M319.543,147.691l11.809,5.941a13.569,13.569,0,0,0-1.562-14.284Z" transform="translate(-305.573 -134.175)" fill="#fff"/>
                <path id="Trazado_147397" data-name="Trazado 147397" d="M319.7,142.5l9.888-8.05a13.541,13.541,0,0,0-5.523-3.934l-1.783,4.9Z" transform="translate(-305.655 -129.627)" fill="#46ac63"/>
                <path id="Trazado_147398" data-name="Trazado 147398" d="M320.736,128.876l-1.2,11.7,4.027-11.057A13.566,13.566,0,0,0,320.736,128.876Z" transform="translate(-305.569 -128.78)" fill="#757575"/>
                <path id="Trazado_147399" data-name="Trazado 147399" d="M304.079,142.088l1.369-13.359a13.558,13.558,0,0,0-13.6,18.914Z" transform="translate(-290.725 -128.677)" fill="#999"/>
                <path id="Trazado_147400" data-name="Trazado 147400" d="M304.294,170.4a13.565,13.565,0,0,0,13.4-7.2l-12.019-6.047-12.252,5.565A13.555,13.555,0,0,0,304.294,170.4Z" transform="translate(-292.113 -143.351)" fill="#bfbfbf"/>
              </g>
            </g>
            <g id="Grupo_134168" data-name="Grupo 134168" transform="translate(38.595 10.582)">
              <g id="Grupo_134151" data-name="Grupo 134151" transform="translate(2.041 0)">
                <rect id="Rectángulo_35714" data-name="Rectángulo 35714" width="2.235" height="2.235" rx="0.626" transform="translate(0.228 0) rotate(5.851)" fill="#46ac63" stroke="#263238" stroke-miterlimit="10" stroke-width="1"/>
                <g id="Grupo_134150" data-name="Grupo 134150" transform="translate(3.439 0.672)">
                  <g id="Grupo_134148" data-name="Grupo 134148" transform="translate(0.114)">
                    <path id="Trazado_147401" data-name="Trazado 147401" d="M389.7,141.263l-20.872-2.139a.257.257,0,0,1,.052-.511l20.872,2.139a.257.257,0,1,1-.052.511Z" transform="translate(-368.597 -138.612)" fill="#263238"/>
                  </g>
                  <g id="Grupo_134149" data-name="Grupo 134149" transform="translate(0 1.112)">
                    <path id="Trazado_147402" data-name="Trazado 147402" d="M387.421,143.348l-18.828-1.929a.257.257,0,1,1,.052-.511l18.828,1.929a.257.257,0,0,1-.052.511Z" transform="translate(-368.362 -140.906)" fill="#263238"/>
                  </g>
                </g>
              </g>
              <g id="Grupo_134155" data-name="Grupo 134155" transform="translate(1.531 4.98)">
                <rect id="Rectángulo_35715" data-name="Rectángulo 35715" width="2.235" height="2.235" rx="0.626" transform="matrix(0.995, 0.102, -0.102, 0.995, 0.228, 0)" fill="#757575" stroke="#263238" stroke-linecap="round" stroke-linejoin="round" stroke-width="1"/>
                <g id="Grupo_134154" data-name="Grupo 134154" transform="translate(3.439 0.672)">
                  <g id="Grupo_134152" data-name="Grupo 134152" transform="translate(0.114)">
                    <path id="Trazado_147403" data-name="Trazado 147403" d="M388.647,151.536,367.775,149.4a.257.257,0,1,1,.052-.511l20.872,2.139a.257.257,0,1,1-.052.511Z" transform="translate(-367.544 -148.885)" fill="#263238"/>
                  </g>
                  <g id="Grupo_134153" data-name="Grupo 134153" transform="translate(0 1.112)">
                    <path id="Trazado_147404" data-name="Trazado 147404" d="M386.368,153.62l-18.828-1.929a.257.257,0,1,1,.053-.511l18.828,1.929a.257.257,0,0,1-.052.511Z" transform="translate(-367.309 -151.178)" fill="#263238"/>
                  </g>
                </g>
              </g>
              <g id="Grupo_134159" data-name="Grupo 134159" transform="translate(1.021 9.96)">
                <rect id="Rectángulo_35716" data-name="Rectángulo 35716" width="2.235" height="2.235" rx="0.626" transform="matrix(0.995, 0.102, -0.102, 0.995, 0.228, 0)" fill="#999" stroke="#263238" stroke-linecap="round" stroke-linejoin="round" stroke-width="1"/>
                <g id="Grupo_134158" data-name="Grupo 134158" transform="translate(3.439 0.672)">
                  <g id="Grupo_134156" data-name="Grupo 134156" transform="translate(0.114)">
                    <path id="Trazado_147405" data-name="Trazado 147405" d="M387.595,161.809l-20.872-2.139a.257.257,0,1,1,.052-.511l20.872,2.139a.257.257,0,1,1-.052.511Z" transform="translate(-366.492 -159.158)" fill="#263238"/>
                  </g>
                  <g id="Grupo_134157" data-name="Grupo 134157" transform="translate(0 1.112)">
                    <path id="Trazado_147406" data-name="Trazado 147406" d="M385.316,163.893l-18.828-1.929a.257.257,0,1,1,.052-.511l18.828,1.929a.257.257,0,0,1-.052.511Z" transform="translate(-366.257 -161.451)" fill="#263238"/>
                  </g>
                </g>
              </g>
              <g id="Grupo_134163" data-name="Grupo 134163" transform="translate(0.51 14.94)">
                <rect id="Rectángulo_35717" data-name="Rectángulo 35717" width="2.235" height="2.235" rx="0.626" transform="matrix(0.995, 0.102, -0.102, 0.995, 0.228, 0)" fill="#bfbfbf" stroke="#263238" stroke-miterlimit="10" stroke-width="1"/>
                <g id="Grupo_134162" data-name="Grupo 134162" transform="translate(3.439 0.672)">
                  <g id="Grupo_134160" data-name="Grupo 134160" transform="translate(0.114)">
                    <path id="Trazado_147407" data-name="Trazado 147407" d="M386.542,172.082l-20.872-2.139a.257.257,0,1,1,.052-.511l20.872,2.139a.257.257,0,0,1-.052.511Z" transform="translate(-365.439 -169.431)" fill="#263238"/>
                  </g>
                  <g id="Grupo_134161" data-name="Grupo 134161" transform="translate(0 1.112)">
                    <path id="Trazado_147408" data-name="Trazado 147408" d="M384.263,174.166l-18.828-1.929a.257.257,0,1,1,.052-.511l18.828,1.929a.257.257,0,0,1-.052.511Z" transform="translate(-365.204 -171.724)" fill="#263238"/>
                  </g>
                </g>
              </g>
              <g id="Grupo_134167" data-name="Grupo 134167" transform="translate(0 19.92)">
                <rect id="Rectángulo_35718" data-name="Rectángulo 35718" width="2.235" height="2.235" rx="0.626" transform="translate(0.228 0) rotate(5.85)" fill="#fff" stroke="#263238" stroke-linecap="round" stroke-linejoin="round" stroke-width="1"/>
                <g id="Grupo_134166" data-name="Grupo 134166" transform="translate(3.439 0.672)">
                  <g id="Grupo_134164" data-name="Grupo 134164" transform="translate(0.114)">
                    <path id="Trazado_147409" data-name="Trazado 147409" d="M385.489,182.354l-20.872-2.139a.257.257,0,1,1,.052-.511l20.872,2.139a.257.257,0,0,1-.052.511Z" transform="translate(-364.386 -179.703)" fill="#263238"/>
                  </g>
                  <g id="Grupo_134165" data-name="Grupo 134165" transform="translate(0 1.112)">
                    <path id="Trazado_147410" data-name="Trazado 147410" d="M383.21,184.439l-18.828-1.929a.257.257,0,1,1,.052-.511l18.828,1.929a.257.257,0,0,1-.052.511Z" transform="translate(-364.151 -181.997)" fill="#263238"/>
                  </g>
                </g>
              </g>
            </g>
          </g>
          <g id="Grupo_134193" data-name="Grupo 134193" transform="translate(11.491 74.72)">
            <g id="Grupo_134170" data-name="Grupo 134170" transform="translate(53.565 6.706)">
              <rect id="Rectángulo_35719" data-name="Rectángulo 35719" width="1.198" height="6.849" transform="translate(1.192 6.936) rotate(-174.148)" fill="#757575" stroke="#263238" stroke-linecap="round" stroke-linejoin="round" stroke-width="1"/>
              <rect id="Rectángulo_35720" data-name="Rectángulo 35720" width="1.198" height="3.224" transform="translate(1.297 5.909) rotate(-174.15)" fill="#46ac63" stroke="#263238" stroke-miterlimit="10" stroke-width="1"/>
            </g>
            <g id="Grupo_134171" data-name="Grupo 134171" transform="translate(56.424 5.261)">
              <rect id="Rectángulo_35721" data-name="Rectángulo 35721" width="1.198" height="6.849" transform="translate(1.192 6.936) rotate(-174.15)" fill="#757575" stroke="#263238" stroke-linecap="round" stroke-linejoin="round" stroke-width="1"/>
              <rect id="Rectángulo_35722" data-name="Rectángulo 35722" width="3.224" height="1.198" transform="translate(0.184 5.017) rotate(-84.148)" fill="#46ac63" stroke="#263238" stroke-miterlimit="10" stroke-width="1"/>
            </g>
            <g id="Grupo_134172" data-name="Grupo 134172" transform="translate(58.973 6.843)">
              <rect id="Rectángulo_35723" data-name="Rectángulo 35723" width="1.198" height="6.849" transform="translate(1.192 6.936) rotate(-174.15)" fill="#757575" stroke="#263238" stroke-linecap="round" stroke-linejoin="round" stroke-width="1"/>
              <rect id="Rectángulo_35724" data-name="Rectángulo 35724" width="1.198" height="3.224" transform="translate(1.455 4.37) rotate(-174.148)" fill="#46ac63" stroke="#263238" stroke-miterlimit="10" stroke-width="1"/>
            </g>
            <g id="Grupo_134173" data-name="Grupo 134173" transform="translate(51.02 5.085)">
              <rect id="Rectángulo_35725" data-name="Rectángulo 35725" width="1.198" height="6.849" transform="translate(1.192 6.936) rotate(-174.148)" fill="#757575" stroke="#263238" stroke-linecap="round" stroke-linejoin="round" stroke-width="1"/>
              <rect id="Rectángulo_35726" data-name="Rectángulo 35726" width="1.198" height="3.224" transform="translate(1.297 5.909) rotate(-174.15)" fill="#46ac63" stroke="#263238" stroke-miterlimit="10" stroke-width="1"/>
            </g>
            <g id="Grupo_134174" data-name="Grupo 134174" transform="translate(48.131 6.825)">
              <rect id="Rectángulo_35727" data-name="Rectángulo 35727" width="1.198" height="6.849" transform="translate(1.192 6.936) rotate(-174.15)" fill="#757575" stroke="#263238" stroke-linecap="round" stroke-linejoin="round" stroke-width="1"/>
              <rect id="Rectángulo_35728" data-name="Rectángulo 35728" width="1.198" height="3.224" transform="translate(1.271 6.166) rotate(-174.148)" fill="#46ac63" stroke="#263238" stroke-miterlimit="10" stroke-width="1"/>
            </g>
            <g id="Grupo_134175" data-name="Grupo 134175" transform="translate(45.628 4.791)">
              <rect id="Rectángulo_35729" data-name="Rectángulo 35729" width="1.198" height="6.849" transform="translate(1.192 6.936) rotate(-174.15)" fill="#757575" stroke="#263238" stroke-linecap="round" stroke-linejoin="round" stroke-width="1"/>
              <rect id="Rectángulo_35730" data-name="Rectángulo 35730" width="1.198" height="3.224" transform="translate(1.218 6.679) rotate(-174.148)" fill="#46ac63" stroke="#263238" stroke-miterlimit="10" stroke-width="1"/>
            </g>
            <g id="Grupo_134176" data-name="Grupo 134176" transform="translate(42.58 8.079)">
              <rect id="Rectángulo_35731" data-name="Rectángulo 35731" width="1.198" height="6.849" transform="translate(1.192 6.936) rotate(-174.148)" fill="#757575" stroke="#263238" stroke-linecap="round" stroke-linejoin="round" stroke-width="1"/>
              <rect id="Rectángulo_35732" data-name="Rectángulo 35732" width="1.198" height="3.224" transform="translate(1.218 6.679) rotate(-174.148)" fill="#46ac63" stroke="#263238" stroke-miterlimit="10" stroke-width="1"/>
            </g>
            <g id="Grupo_134177" data-name="Grupo 134177" transform="translate(40.337 3.513)">
              <rect id="Rectángulo_35733" data-name="Rectángulo 35733" width="1.198" height="6.849" transform="translate(1.192 6.936) rotate(-174.15)" fill="#757575" stroke="#263238" stroke-linecap="round" stroke-linejoin="round" stroke-width="1"/>
              <rect id="Rectángulo_35734" data-name="Rectángulo 35734" width="1.198" height="3.224" transform="translate(1.297 5.909) rotate(-174.15)" fill="#46ac63" stroke="#263238" stroke-miterlimit="10" stroke-width="1"/>
            </g>
            <g id="Grupo_134178" data-name="Grupo 134178" transform="translate(37.695 2.841)">
              <rect id="Rectángulo_35735" data-name="Rectángulo 35735" width="1.198" height="6.849" transform="translate(1.192 6.936) rotate(-174.148)" fill="#757575" stroke="#263238" stroke-linecap="round" stroke-linejoin="round" stroke-width="1"/>
              <rect id="Rectángulo_35736" data-name="Rectángulo 35736" width="1.198" height="3.224" transform="translate(1.455 4.37) rotate(-174.15)" fill="#46ac63" stroke="#263238" stroke-miterlimit="10" stroke-width="1"/>
            </g>
            <g id="Grupo_134179" data-name="Grupo 134179" transform="translate(34.574 6.842)">
              <rect id="Rectángulo_35737" data-name="Rectángulo 35737" width="1.198" height="6.849" transform="translate(1.192 6.936) rotate(-174.15)" fill="#757575" stroke="#263238" stroke-linecap="round" stroke-linejoin="round" stroke-width="1"/>
              <rect id="Rectángulo_35738" data-name="Rectángulo 35738" width="1.198" height="3.224" transform="translate(1.481 4.113) rotate(-174.15)" fill="#46ac63" stroke="#263238" stroke-miterlimit="10" stroke-width="1"/>
            </g>
            <g id="Grupo_134180" data-name="Grupo 134180" transform="translate(32.198 3.572)">
              <rect id="Rectángulo_35739" data-name="Rectángulo 35739" width="1.198" height="6.849" transform="translate(1.192 6.936) rotate(-174.15)" fill="#757575" stroke="#263238" stroke-linecap="round" stroke-linejoin="round" stroke-width="1"/>
              <rect id="Rectángulo_35740" data-name="Rectángulo 35740" width="1.198" height="3.224" transform="translate(1.323 5.653) rotate(-174.15)" fill="#46ac63" stroke="#263238" stroke-miterlimit="10" stroke-width="1"/>
            </g>
            <g id="Grupo_134181" data-name="Grupo 134181" transform="translate(29.333 5.075)">
              <rect id="Rectángulo_35741" data-name="Rectángulo 35741" width="1.198" height="6.849" transform="translate(1.192 6.936) rotate(-174.148)" fill="#757575" stroke="#263238" stroke-linecap="round" stroke-linejoin="round" stroke-width="1"/>
              <rect id="Rectángulo_35742" data-name="Rectángulo 35742" width="1.198" height="3.224" transform="matrix(-0.995, -0.102, 0.102, -0.995, 1.297, 5.909)" fill="#46ac63" stroke="#263238" stroke-miterlimit="10" stroke-width="1"/>
            </g>
            <g id="Grupo_134182" data-name="Grupo 134182" transform="translate(26.337 7.859)">
              <rect id="Rectángulo_35743" data-name="Rectángulo 35743" width="1.198" height="6.849" transform="translate(1.192 6.936) rotate(-174.148)" fill="#757575" stroke="#263238" stroke-linecap="round" stroke-linejoin="round" stroke-width="1"/>
              <rect id="Rectángulo_35744" data-name="Rectángulo 35744" width="1.198" height="3.224" transform="translate(1.192 6.936) rotate(-174.15)" fill="#46ac63" stroke="#263238" stroke-miterlimit="10" stroke-width="1"/>
            </g>
            <g id="Grupo_134183" data-name="Grupo 134183" transform="translate(24.096 3.269)">
              <rect id="Rectángulo_35745" data-name="Rectángulo 35745" width="1.198" height="6.849" transform="translate(1.192 6.936) rotate(-174.15)" fill="#757575" stroke="#263238" stroke-linecap="round" stroke-linejoin="round" stroke-width="1"/>
              <rect id="Rectángulo_35746" data-name="Rectángulo 35746" width="1.198" height="3.224" transform="translate(1.271 6.166) rotate(-174.15)" fill="#46ac63" stroke="#263238" stroke-miterlimit="10" stroke-width="1"/>
            </g>
            <g id="Grupo_134184" data-name="Grupo 134184" transform="translate(21.72)">
              <rect id="Rectángulo_35747" data-name="Rectángulo 35747" width="1.198" height="6.849" transform="matrix(-0.995, -0.102, 0.102, -0.995, 1.192, 6.936)" fill="#757575" stroke="#263238" stroke-linecap="round" stroke-linejoin="round" stroke-width="1"/>
              <rect id="Rectángulo_35748" data-name="Rectángulo 35748" width="1.198" height="3.224" transform="translate(1.271 6.166) rotate(-174.15)" fill="#46ac63" stroke="#263238" stroke-miterlimit="10" stroke-width="1"/>
            </g>
            <g id="Grupo_134185" data-name="Grupo 134185" transform="translate(18.668 3.331)">
              <rect id="Rectángulo_35749" data-name="Rectángulo 35749" width="1.198" height="6.849" transform="translate(1.192 6.936) rotate(-174.15)" fill="#757575" stroke="#263238" stroke-linecap="round" stroke-linejoin="round" stroke-width="1"/>
              <rect id="Rectángulo_35750" data-name="Rectángulo 35750" width="1.198" height="3.224" transform="translate(1.455 4.37) rotate(-174.148)" fill="#46ac63" stroke="#263238" stroke-miterlimit="10" stroke-width="1"/>
            </g>
            <g id="Grupo_134186" data-name="Grupo 134186" transform="translate(15.59 6.908)">
              <rect id="Rectángulo_35751" data-name="Rectángulo 35751" width="1.198" height="6.849" transform="translate(1.192 6.936) rotate(-174.15)" fill="#757575" stroke="#263238" stroke-linecap="round" stroke-linejoin="round" stroke-width="1"/>
              <rect id="Rectángulo_35752" data-name="Rectángulo 35752" width="1.198" height="3.224" transform="translate(1.507 3.856) rotate(-174.15)" fill="#46ac63" stroke="#263238" stroke-miterlimit="10" stroke-width="1"/>
            </g>
            <g id="Grupo_134187" data-name="Grupo 134187" transform="translate(13.302 2.781)">
              <rect id="Rectángulo_35753" data-name="Rectángulo 35753" width="1.198" height="6.849" transform="translate(1.192 6.936) rotate(-174.15)" fill="#757575" stroke="#263238" stroke-linecap="round" stroke-linejoin="round" stroke-width="1"/>
              <rect id="Rectángulo_35754" data-name="Rectángulo 35754" width="1.198" height="3.224" transform="translate(1.297 5.909) rotate(-174.148)" fill="#46ac63" stroke="#263238" stroke-miterlimit="10" stroke-width="1"/>
            </g>
            <g id="Grupo_134188" data-name="Grupo 134188" transform="translate(10.736 1.373)">
              <rect id="Rectángulo_35755" data-name="Rectángulo 35755" width="1.198" height="6.849" transform="translate(1.192 6.936) rotate(-174.148)" fill="#757575" stroke="#263238" stroke-linecap="round" stroke-linejoin="round" stroke-width="1"/>
              <rect id="Rectángulo_35756" data-name="Rectángulo 35756" width="1.198" height="3.224" transform="translate(1.481 4.113) rotate(-174.15)" fill="#46ac63" stroke="#263238" stroke-miterlimit="10" stroke-width="1"/>
            </g>
            <g id="Grupo_134189" data-name="Grupo 134189" transform="translate(7.835 3.223)">
              <rect id="Rectángulo_35757" data-name="Rectángulo 35757" width="1.198" height="6.849" transform="translate(1.192 6.936) rotate(-174.148)" fill="#757575" stroke="#263238" stroke-linecap="round" stroke-linejoin="round" stroke-width="1"/>
              <rect id="Rectángulo_35758" data-name="Rectángulo 35758" width="1.198" height="3.224" transform="translate(1.192 6.936) rotate(-174.15)" fill="#46ac63" stroke="#263238" stroke-miterlimit="10" stroke-width="1"/>
            </g>
            <g id="Grupo_134190" data-name="Grupo 134190" transform="translate(5.37 0.823)">
              <rect id="Rectángulo_35759" data-name="Rectángulo 35759" width="1.198" height="6.849" transform="translate(1.192 6.936) rotate(-174.15)" fill="#757575" stroke="#263238" stroke-linecap="round" stroke-linejoin="round" stroke-width="1"/>
              <rect id="Rectángulo_35760" data-name="Rectángulo 35760" width="1.198" height="3.224" transform="translate(1.244 6.422) rotate(-174.148)" fill="#46ac63" stroke="#263238" stroke-miterlimit="10" stroke-width="1"/>
            </g>
            <g id="Grupo_134191" data-name="Grupo 134191" transform="translate(2.593 1.467)">
              <rect id="Rectángulo_35761" data-name="Rectángulo 35761" width="1.198" height="6.849" transform="translate(1.192 6.936) rotate(-174.15)" fill="#757575" stroke="#263238" stroke-linecap="round" stroke-linejoin="round" stroke-width="1"/>
              <rect id="Rectángulo_35762" data-name="Rectángulo 35762" width="1.198" height="3.224" transform="translate(1.218 6.679) rotate(-174.15)" fill="#46ac63" stroke="#263238" stroke-miterlimit="10" stroke-width="1"/>
            </g>
            <g id="Grupo_134192" data-name="Grupo 134192" transform="translate(0 0.317)">
              <rect id="Rectángulo_35763" data-name="Rectángulo 35763" width="1.198" height="6.849" transform="translate(1.192 6.936) rotate(-174.15)" fill="#757575" stroke="#263238" stroke-linecap="round" stroke-linejoin="round" stroke-width="1"/>
              <rect id="Rectángulo_35764" data-name="Rectángulo 35764" width="1.198" height="3.224" transform="translate(1.534 3.6) rotate(-174.15)" fill="#46ac63" stroke="#263238" stroke-miterlimit="10" stroke-width="1"/>
            </g>
          </g>
          <g id="Grupo_134194" data-name="Grupo 134194" transform="translate(7.63 91.025)">
            <path id="Trazado_147411" data-name="Trazado 147411" d="M345.355,271.746l-54.41-5.575a.573.573,0,1,0-.116,1.139l54.41,5.576a.573.573,0,0,0,.117-1.14Z" transform="translate(-280.616 -266.168)" fill="#263238"/>
            <path id="Trazado_147412" data-name="Trazado 147412" d="M335.074,279.233l-63.268-6.483a.573.573,0,1,0-.116,1.139l63.268,6.483a.573.573,0,1,0,.116-1.139Z" transform="translate(-270.755 -269.557)" fill="#263238"/>
            <path id="Trazado_147413" data-name="Trazado 147413" d="M307.633,284.961l-36.693-3.76a.573.573,0,0,0-.116,1.14l36.693,3.76a.573.573,0,0,0,.117-1.14Z" transform="translate(-270.309 -273.912)" fill="#263238"/>
          </g>
          <path id="Trazado_147414" data-name="Trazado 147414" d="M332.939,191.186c-1.876-.15-2.526,2.841-2.526,2.841s-2.967-3.888-2.5-13.031c0,0-1.449-4.053-5.333-1.6s-7.907,11.077-6.947,20.477l-7.548-25.058c-2.608.553-7.907,4.058-6.511,20.981l-8.236-8.707a3.1,3.1,0,0,0-3.49,1.256c-1.26,1.978-.659,16.1.383,21.388s-1.614,15.9-1.614,15.9-2.84-12.022-7.979-15.064L261.071,170.2l-6.5,63.457,7.335.751,11.779-5.733c-.065,2.652-.13,5.089-.323,6.907l58.871,6.031,4.213-41.119C335.014,195.37,333.647,191.239,332.939,191.186Z" transform="translate(-254.57 -125.697)" fill="rgba(0,0,0,0.7)" opacity="0.2"/>
        </g>
        <path id="Trazado_147416" data-name="Trazado 147416" d="M343.294,86.355l-6.85,66.841-4.213,41.119-58.871-6.031L261.9,187.111l-7.335-.751,6.5-63.457,4.562-44.5Z" transform="translate(-254.57 -78.4)" fill="none" stroke="#263238" stroke-linecap="round" stroke-linejoin="round" stroke-width="1"/>
      </g>
      <g id="Grupo_134207" data-name="Grupo 134207" transform="translate(13.408 49.103)">
        <g id="Grupo_134200" data-name="Grupo 134200" transform="translate(5.184)">
          <g id="Grupo_134197" data-name="Grupo 134197" transform="translate(0.004)">
            <path id="Trazado_147417" data-name="Trazado 147417" d="M362.088,310.619l-34.419,5.856s-5.992-31.826-9.565-36.838-2.918-7.078-4.654-10.457c-1.047-2.041-6.3-5.846-10.418-9.6h0c-.359-.325-.708-.65-1.042-.974-.145-.131-.281-.271-.417-.4-.548-.543-1.057-1.071-1.508-1.59q-.247-.276-.465-.553a7.851,7.851,0,0,1-1.668-2.952.752.752,0,0,1-.029-.15,1.256,1.256,0,0,1-.029-.179c-.092-.751-.189-1.609-.286-2.54-.019-.184-.039-.378-.063-.572-.01-.078-.019-.15-.029-.233-.082-.776-.175-1.6-.281-2.448-.107-.887-.223-1.808-.359-2.734-.044-.32-.087-.64-.141-.965,0,0,0-.01,0-.01-.053-.359-.112-.717-.17-1.081l-.16-.931c-.01-.053-.024-.1-.029-.145-.068-.364-.136-.717-.2-1.076a.488.488,0,0,1-.024-.121c-.068-.315-.131-.625-.2-.94-.15-.7-.32-1.391-.5-2.06a25.56,25.56,0,0,0-1.285-3.684c-2.482-5.541.747-3.539-1.2-17.8,0,0,1.43-3.306,5.507-.664a10.921,10.921,0,0,1,.911.664h0a11.459,11.459,0,0,1,2.167,2.317,13.388,13.388,0,0,1,1.871,3.859,16.779,16.779,0,0,1,.553,6.932s3.064,10.5,4.678,12.89,8.29-11.339,7.858-12.939a21.613,21.613,0,0,1-.344-2.172c-.029-.238-.058-.49-.092-.756s-.063-.543-.092-.829c-.019-.136-.034-.281-.053-.422,0-.058-.01-.116-.019-.17-.058-.548-.126-1.13-.189-1.731-.015-.17-.034-.33-.053-.494-.029-.286-.058-.582-.087-.873a1.221,1.221,0,0,1-.015-.145c-.019-.165-.039-.335-.053-.509-.039-.339-.073-.684-.107-1.028-.034-.3-.058-.591-.087-.887-.058-.557-.111-1.115-.165-1.653-.039-.4-.078-.8-.112-1.188-.01-.087-.019-.175-.024-.257-.2-2.133-.364-3.888-.422-4.634,0,0-4.853-7.184-5.352-10.568s-.456-6.947,1.576-8.4c4.809-3.423,3.4,2.094,5.556,4.378s5.454,6.026,7.325,7.194c1.726,1.1,3.267,5.352,3.486,5.972-.247-.931-2.715-10.083-2.768-11.926-.063-1.944-1.546-12.2.974-15.876s5.871-.824,6.181-.1.4,10.66,1.29,13.428,4.6,14.286,4.6,14.286.155-11.208.994-16.225,3.015-8.939,5.148-9.162,4.106,2.128,4.106,2.128-.843,8-.6,9.846-.349,8.518.664,12.1c0,0-.116-9.555,1.367-10.777s2.758-1.808,3.592-.984,1.013,6.481,1.862,9.885.742,8.028,1.3,13.336,2.754,12.677,2.317,16.89-1.779,14.66-2.86,20.792a130.477,130.477,0,0,1-3.839,14.534A30.128,30.128,0,0,1,352.495,280C352.247,283.995,362.088,310.619,362.088,310.619Z" transform="translate(-292.93 -179.69)" fill="#fff"/>
          </g>
          <g id="Grupo_134198" data-name="Grupo 134198" transform="translate(2.484 10.673)">
            <path id="Trazado_147418" data-name="Trazado 147418" d="M366.051,208.192c.66,2.048,2.863,8.892,3.96,12.309,0,0-4.812,3.537-4.692,6.823s-.881,9.92-3.042,9.729-1.965-13.989-2.671-16.307c.439.995.723,1.806.781,1.966-.16-.594-2.731-10.093-2.785-11.974-.013-.443-.1-1.322-.2-2.461v-.022s4.782-4.578,8.294-1.775v0A11.767,11.767,0,0,0,366.051,208.192Z" transform="translate(-328.628 -203.697)" fill="#46ac63" opacity="0.4"/>
            <path id="Trazado_147419" data-name="Trazado 147419" d="M394.425,210.146c-2.24,2.124-5.62,5.878-6.047,9.5,0,0,1.249,10.109.715,14.519l-4.367-13.677s.157-11.209,1-16.225c.022-.137.048-.278.075-.415a19.938,19.938,0,0,1,8.767-2.143,39.213,39.213,0,0,0-.191,5.368A29.281,29.281,0,0,1,394.425,210.146Z" transform="translate(-342.706 -201.706)" fill="#46ac63" opacity="0.4"/>
            <path id="Trazado_147420" data-name="Trazado 147420" d="M408.4,215.189l0,0-.014.013c-.051.037-.183.14-.376.3a6.408,6.408,0,0,1,.382-.632Z" transform="translate(-354.7 -208.491)" fill="#46ac63" opacity="0.4"/>
            <path id="Trazado_147421" data-name="Trazado 147421" d="M408.054,242.273s-2.879-10.8-2.93-19.5c-.021-3.217.351-6.152,1.391-8.136l0,0A6.416,6.416,0,0,1,406.9,214l.012.313a7.934,7.934,0,0,1,1.716-1.135c-.809,1.262-1.741,3.729-.662,7.739C409.657,227.2,408.187,234.872,408.054,242.273Z" transform="translate(-353.215 -207.618)" fill="#46ac63" opacity="0.4"/>
            <path id="Trazado_147422" data-name="Trazado 147422" d="M313.167,283.534s.774,10.294-7.5,13.979h0c-.359-.325-.7-.65-1.042-.974-.143-.134-.282-.271-.417-.4-.546-.542-1.058-1.073-1.508-1.592-.167-.189-.32-.372-.466-.55a7.856,7.856,0,0,1-1.666-2.953.975.975,0,0,1-.031-.149,1.5,1.5,0,0,1-.029-.18c-.092-.751-.187-1.608-.286-2.543-.02-.184-.039-.377-.063-.57-.009-.077-.017-.153-.026-.234-.086-.777-.179-1.6-.283-2.449-.106-.885-.224-1.807-.359-2.734-.047-.319-.094-.643-.142-.963,0,0,0-.009,0-.009-.054-.36-.112-.72-.17-1.081-.052-.311-.109-.622-.161-.933-.01-.049-.02-.1-.027-.145-.067-.361-.134-.717-.206-1.074a1.09,1.09,0,0,1-.024-.122c-.065-.316-.131-.628-.2-.94q-.236-1.052-.507-2.061c3.273-3.149,10.827-1.174,7.171-8.469,0,0,1.842-6.243-3.234-13.014h0c3.473,2.8,5.25,7.718,4.593,13.111,0,0,3.063,10.5,4.678,12.888s8.288-11.339,7.855-12.94c-.083-.318-.2-1.1-.34-2.171-.03-.239-.059-.49-.092-.755s-.065-.543-.1-.831c-.018-.135-.032-.279-.05-.418-.005-.058-.011-.116-.021-.171-.06-.552-.122-1.131-.188-1.733-.016-.166-.033-.328-.054-.494-.027-.287-.058-.579-.089-.871-.006-.045-.008-.094-.014-.143-.017-.166-.037-.337-.053-.512-.037-.341-.07-.682-.107-1.028-.031-.3-.057-.592-.088-.889-.055-.556-.11-1.113-.162-1.651-.038-.4-.076-.8-.114-1.185-.008-.09-.016-.175-.024-.26.135.638,2.593,12.337,4,15.064C323.056,271.187,316.944,285.96,313.167,283.534Z" transform="translate(-298.047 -228.298)" fill="#46ac63" opacity="0.4"/>
            <path id="Trazado_147423" data-name="Trazado 147423" d="M404.764,308.67a130.884,130.884,0,0,1-3.836,14.534,30.081,30.081,0,0,1,1.009,8.484c-.066,1.075.6,3.793,1.6,7.186-.289-.745-3.379-8.754-3.328-11.548.059-2.931-.774-3.741-2.409-7.343s-4.126-3.206-4.126-3.206-.962,8.988-3.218,3.081-2.691-12.775,3-36.626c0,0,.86,2.992.141,11.879s1.4,11.577,1.4,11.577a82.786,82.786,0,0,0,7.558-17.625s-.734,10.371-1.39,15.094,2.33-5.473,4.416-11.773c1.959-5.911,2.031-8.159,1.285-12.367a30.614,30.614,0,0,1,.758,7.857C407.191,292.083,405.845,302.536,404.764,308.67Z" transform="translate(-344.856 -242.055)" fill="#46ac63" opacity="0.4"/>
            <path id="Trazado_147424" data-name="Trazado 147424" d="M341.4,380.356c1.678,2.668,5.785,6.191,8.231,15.941s.909,20.421.909,20.421Z" transform="translate(-320.383 -293.751)" fill="#46ac63" opacity="0.4"/>
          </g>
          <path id="Trazado_147425" data-name="Trazado 147425" d="M303.391,257.812s-8.585,4.348-9.264,11.62c-2.482-5.541.747-3.539-1.2-17.8,0,0,1.43-3.306,5.507-.664a10.921,10.921,0,0,1,.911.664h0a11.459,11.459,0,0,1,2.167,2.317Z" transform="translate(-292.926 -215.889)" fill="rgba(0,0,0,0.7)" opacity="0.2"/>
          <g id="Grupo_134199" data-name="Grupo 134199" transform="translate(0 0.002)">
            <path id="Trazado_147426" data-name="Trazado 147426" d="M327.664,316.478s-5.988-31.827-9.563-36.84-2.919-7.078-4.652-10.456-14.994-11.6-15.582-16.4-1.259-14-3.742-19.543.747-3.539-1.2-17.8c0,0,1.438-3.3,5.511-.662s6.22,7.924,5.508,13.775c0,0,3.062,10.494,4.68,12.888s8.284-11.34,7.853-12.942-1.711-15.255-1.911-17.745c0,0-4.853-7.187-5.352-10.571s-.456-6.947,1.574-8.392c4.81-3.424,3.4,2.092,5.555,4.38s5.454,6.02,7.324,7.193,3.511,6.044,3.511,6.044-2.736-10.055-2.793-12-1.545-12.2.974-15.874,5.874-.826,6.183-.1.4,10.658,1.294,13.426,4.594,14.289,4.594,14.289.158-11.207,1-16.224,3.019-8.942,5.151-9.164,4.1,2.128,4.1,2.128-.844,8-.6,9.844-.346,8.516.669,12.107c0,0-.12-9.557,1.367-10.779s2.758-1.806,3.59-.983,1.014,6.481,1.864,9.887.743,8.028,1.3,13.336,2.752,12.677,2.317,16.886-1.782,14.661-2.865,20.8a131.447,131.447,0,0,1-3.832,14.533A30.07,30.07,0,0,1,352.49,280c-.246,4,9.591,30.622,9.591,30.622" transform="translate(-292.922 -179.693)" fill="none" stroke="#263238" stroke-linecap="round" stroke-linejoin="round" stroke-width="1"/>
            <path id="Trazado_147427" data-name="Trazado 147427" d="M384.723,240.451c1,2.356,3.481,12.3,4.366,13.679a4.693,4.693,0,0,0,1.89,1.792" transform="translate(-340.22 -210.997)" fill="none" stroke="#263238" stroke-linecap="round" stroke-linejoin="round" stroke-width="1"/>
            <path id="Trazado_147428" data-name="Trazado 147428" d="M405.984,237.752s-.213,2.038.888,8.536,1.637,9.266,2.254,10.715" transform="translate(-351.166 -209.606)" fill="none" stroke="#263238" stroke-linecap="round" stroke-linejoin="round" stroke-width="1"/>
            <path id="Trazado_147429" data-name="Trazado 147429" d="M363.577,240.983c1.345,3.96,2.105,10.271,2.871,12.171s1.448,2.295,1.448,2.295" transform="translate(-329.325 -211.271)" fill="none" stroke="#263238" stroke-linecap="round" stroke-linejoin="round" stroke-width="1"/>
            <path id="Trazado_147430" data-name="Trazado 147430" d="M368.07,260.585a5.992,5.992,0,0,1,1.86,2.349" transform="translate(-331.64 -221.371)" fill="none" stroke="#263238" stroke-linecap="round" stroke-linejoin="round" stroke-width="1"/>
            <path id="Trazado_147431" data-name="Trazado 147431" d="M325.3,307.061s.737,5.251,4.027,4.835" transform="translate(-309.606 -245.316)" fill="none" stroke="#263238" stroke-linecap="round" stroke-linejoin="round" stroke-width="1"/>
            <path id="Trazado_147432" data-name="Trazado 147432" d="M340.924,280.364s.852,6.241-.545,8.89" transform="translate(-317.373 -231.561)" fill="none" stroke="#263238" stroke-linecap="round" stroke-linejoin="round" stroke-width="1"/>
            <path id="Trazado_147433" data-name="Trazado 147433" d="M392.21,280.477s2.211,1.353.733,5.321-4.05,19.986-4.05,19.986" transform="translate(-342.368 -231.619)" fill="none" stroke="#263238" stroke-linecap="round" stroke-linejoin="round" stroke-width="1"/>
            <path id="Trazado_147434" data-name="Trazado 147434" d="M410.884,289.121c.927,3.586,1.009,3.679-.5,8.087s-3.933,15.2-3.933,15.2" transform="translate(-351.417 -236.073)" fill="none" stroke="#263238" stroke-linecap="round" stroke-linejoin="round" stroke-width="1"/>
            <path id="Trazado_147435" data-name="Trazado 147435" d="M412.949,363.455s-1.446-2.919-.251-5.317" transform="translate(-354.389 -271.632)" fill="none" stroke="#263238" stroke-linecap="round" stroke-linejoin="round" stroke-width="1"/>
            <path id="Trazado_147436" data-name="Trazado 147436" d="M344.86,385.859a39.924,39.924,0,0,1,5.244,10.88" transform="translate(-319.682 -285.915)" fill="none" stroke="#263238" stroke-linecap="round" stroke-linejoin="round" stroke-width="1"/>
          </g>
        </g>
        <g id="Grupo_134205" data-name="Grupo 134205" transform="translate(0 8.854)">
          <path id="Trazado_147437" data-name="Trazado 147437" d="M400.341,199.057l.986-.976.449-.127-.03.483-.909,1.157Z" transform="translate(-343.083 -197.953)" fill="#757575" stroke="#263238" stroke-linecap="round" stroke-linejoin="round" stroke-width="1"/>
          <g id="Grupo_134202" data-name="Grupo 134202" transform="translate(8.391 0.78)">
            <path id="Trazado_147438" data-name="Trazado 147438" d="M349.2,200.427l-1.607,3.648-43.243,57.656-4.816-3.07,6.539-8.2,38.84-48.72,3.426-2.176A1.216,1.216,0,0,1,349.2,200.427Z" transform="translate(-299.536 -199.562)" fill="#46ac63"/>
            <g id="Grupo_134201" data-name="Grupo 134201" clip-path="url(#clip-path-3)">
              <path id="Trazado_147439" data-name="Trazado 147439" d="M349.2,200.427l-1.607,3.648-43.243,57.656-4.816-3.07,6.539-8.2c3-.311,3.505,1.464,3.505,1.464L346.835,203.3a2.489,2.489,0,0,0-1.921-1.559l3.426-2.176A1.216,1.216,0,0,1,349.2,200.427Z" transform="translate(-299.536 -199.562)" fill="rgba(0,0,0,0.7)" opacity="0.3"/>
            </g>
            <path id="Trazado_147441" data-name="Trazado 147441" d="M349.2,200.427l-1.607,3.648-43.243,57.656-4.816-3.07,6.539-8.2,38.84-48.72,3.426-2.176A1.216,1.216,0,0,1,349.2,200.427Z" transform="translate(-299.536 -199.562)" fill="none" stroke="#263238" stroke-linecap="round" stroke-linejoin="round" stroke-width="1"/>
          </g>
          <g id="Grupo_134204" data-name="Grupo 134204" transform="translate(0 45.287)">
            <path id="Trazado_147442" data-name="Trazado 147442" d="M309.539,291.962a170.745,170.745,0,0,1-9.47,16.356l-3.318.858s-7.61,7.563-12.253,11.337a10.412,10.412,0,0,1-2.27-1.906s6.594-12.661,13.888-20.675a9.306,9.306,0,0,1,2.393,1.271,11.753,11.753,0,0,1,2.5,2.4l8.131-10.229Z" transform="translate(-282.228 -291.371)" fill="#46ac63"/>
            <g id="Grupo_134203" data-name="Grupo 134203" clip-path="url(#clip-path-4)">
              <path id="Trazado_147443" data-name="Trazado 147443" d="M311.951,291.962a170.745,170.745,0,0,1-9.47,16.356l-3.318.858s-7.61,7.563-12.253,11.337l.126-2.053c5.035-7.694,11.434-16.084,13.885-19.257a11.752,11.752,0,0,1,2.5,2.4l-4.518,6.03,2.589-.465,10.06-15.794Z" transform="translate(-284.64 -291.371)" fill="rgba(0,0,0,0.7)" opacity="0.3"/>
            </g>
            <path id="Trazado_147445" data-name="Trazado 147445" d="M309.539,291.962a170.745,170.745,0,0,1-9.47,16.356l-3.318.858s-7.61,7.563-12.253,11.337a10.412,10.412,0,0,1-2.27-1.906s6.594-12.661,13.888-20.675a9.306,9.306,0,0,1,2.393,1.271,11.753,11.753,0,0,1,2.5,2.4l8.131-10.229Z" transform="translate(-282.228 -291.371)" fill="none" stroke="#263238" stroke-linecap="round" stroke-linejoin="round" stroke-width="1"/>
          </g>
        </g>
        <g id="Grupo_134206" data-name="Grupo 134206" transform="translate(21.207 11.004)">
          <path id="Trazado_147446" data-name="Trazado 147446" d="M348.521,235.563l-13.508,13.1-2.158,2.094c1.478-3.8.763-9.673.668-10.388v-.009c-.006-.041-.009-.063-.009-.063a.626.626,0,0,0-.012-.1c-.083-.318-.2-1.1-.34-2.171-.03-.239-.059-.49-.092-.755s-.065-.543-.1-.831c-.018-.135-.032-.279-.05-.418-.005-.058-.011-.116-.021-.171-.06-.548-.127-1.132-.188-1.733-.016-.166-.033-.328-.054-.494-.027-.287-.058-.579-.089-.871-.006-.045-.008-.094-.014-.143-.017-.166-.037-.337-.053-.512-.037-.341-.07-.682-.107-1.028-.031-.3-.057-.592-.088-.889-.055-.556-.11-1.113-.162-1.651q-.063-.606-.114-1.185c-.008-.09-.016-.175-.024-.26-.2-2.131-.364-3.885-.421-4.634,0,0-4.849-7.185-5.351-10.57s-.457-6.947,1.577-8.392c4.809-3.425,3.4,2.091,5.553,4.378s5.456,6.022,7.325,7.194,3.51,6.045,3.51,6.045c1.345,3.959,2.1,10.269,2.871,12.171S348.521,235.563,348.521,235.563Z" transform="translate(-325.974 -202.39)" fill="#fff"/>
          <path id="Trazado_147447" data-name="Trazado 147447" d="M368.07,260.585a5.992,5.992,0,0,1,1.86,2.349" transform="translate(-347.663 -232.373)" fill="none" stroke="#263238" stroke-linecap="round" stroke-linejoin="round" stroke-width="1"/>
          <path id="Trazado_147448" data-name="Trazado 147448" d="M333.368,207.861c2.144,2.286,5.435,6,7.307,7.184-.264-.132-3.707-1.811-5.633.056-2,1.947-3.453,7.345-3.453,7.345s-4.849-7.185-5.351-10.57-.457-6.947,1.577-8.392C332.624,200.058,331.215,205.574,333.368,207.861Z" transform="translate(-325.974 -202.39)" fill="#46ac63" opacity="0.4"/>
          <path id="Trazado_147449" data-name="Trazado 147449" d="M341.429,274.9l-2.158,2.094c1.478-3.8.763-9.673.668-10.388V266.6a.7.7,0,0,0-.021-.166c-.083-.318-.2-1.1-.34-2.171-.03-.239-.059-.49-.092-.755s-.065-.543-.1-.831c-.018-.135-.032-.279-.05-.418-.005-.058-.011-.116-.021-.171-.06-.552-.122-1.131-.188-1.733-.016-.166-.033-.328-.054-.494-.027-.287-.058-.579-.089-.871-.006-.045-.008-.094-.014-.143-.017-.166-.037-.337-.053-.512-.037-.341-.07-.682-.107-1.028-.031-.3-.057-.592-.088-.889-.055-.556-.11-1.113-.162-1.651-.038-.4-.076-.8-.114-1.185-.008-.09-.016-.175-.024-.26.135.638,2.593,12.337,4,15.064C342.952,269.414,342.458,272.073,341.429,274.9Z" transform="translate(-332.39 -228.629)" fill="#46ac63" opacity="0.4"/>
          <path id="Trazado_147450" data-name="Trazado 147450" d="M348.522,235.565s-.682-.4-1.448-2.295-1.526-8.211-2.871-12.171c0,0-1.642-4.87-3.511-6.044s-5.17-4.905-7.323-7.193-.745-7.8-5.555-4.38c-2.03,1.445-2.072,5.009-1.574,8.392s5.351,10.571,5.351,10.571c.2,2.489,1.48,16.143,1.911,17.745" transform="translate(-325.975 -202.39)" fill="none" stroke="#263238" stroke-linecap="round" stroke-linejoin="round" stroke-width="1"/>
          <path id="Trazado_147451" data-name="Trazado 147451" d="M340.924,280.364s.852,6.241-.545,8.89" transform="translate(-333.396 -242.564)" fill="none" stroke="#263238" stroke-linecap="round" stroke-linejoin="round" stroke-width="1"/>
        </g>
      </g>
    </g>
    <g id="Grupo_134237" data-name="Grupo 134237" transform="translate(30.28 58.47)">
      <path id="Trazado_147452" data-name="Trazado 147452" d="M128.526,287.105s3.069,14.248-3.58,24.615-11.763,13.131-14.064,16.223-11.3,20.386-11.3,20.386L89.058,317.173l10.519-38.545Z" transform="translate(-63.254 -176.181)" fill="rgba(0,0,0,0.7)" opacity="0.2"/>
      <g id="Grupo_134234" data-name="Grupo 134234" transform="translate(13.22)">
        <path id="Trazado_147453" data-name="Trazado 147453" d="M177.153,167.329l-65.232,27.453-6.724,2.831L92.526,167.5,63.1,97.584,135.055,67.3Z" transform="translate(-63.1 -67.3)" fill="#fff"/>
        <g id="Grupo_134233" data-name="Grupo 134233" clip-path="url(#clip-path-5)">
          <path id="Trazado_147454" data-name="Trazado 147454" d="M139.423,94.049l-31.061,13.072a1.145,1.145,0,0,0,.889,2.111l31.061-13.072a1.146,1.146,0,1,0-.889-2.112Z" transform="translate(-86.059 -81.036)" fill="#263238"/>
          <path id="Trazado_147455" data-name="Trazado 147455" d="M144.05,109.788l-15.53,6.536a.572.572,0,1,0,.444,1.055l15.53-6.536a.573.573,0,0,0-.444-1.056Z" transform="translate(-96.625 -89.168)" fill="#263238"/>
          <g id="Grupo_134219" data-name="Grupo 134219" transform="translate(25.916 55.546)">
            <g id="Grupo_134209" data-name="Grupo 134209" transform="translate(0 4.89)">
              <path id="Trazado_147456" data-name="Trazado 147456" d="M172.406,191.966s.655,5.146-1.261,5.952c-1.749.736-4.053-2.025-6.064-1.178s-.425,8.141-2.365,8.957-4.278-2.181-5.951-1.476-.662,4.457-2.387,5.183c-1.423.6-3.461-2.384-5.091-3.038a1.246,1.246,0,0,0-.97-.048c-1.707.718-.86,8.554-2.333,9.174a2.765,2.765,0,0,1-1.307.214,9.652,9.652,0,0,0-1.661-.157,2.147,2.147,0,0,0-.621.159c-1.258.529-1.086,4.653-2.236,5.137s-2.284-.116-3.512.4-1.208,2.66-3.037,3.43l.774,1.839,44.652-18.791" transform="translate(-125.346 -191.966)" fill="#bfbfbf" stroke="#263238" stroke-miterlimit="10" stroke-width="1"/>
              <path id="Trazado_147457" data-name="Trazado 147457" d="M116.56,218.921,125.6,240.4l46.751-19.675" transform="translate(-116.56 -205.854)" fill="none" stroke="#263238" stroke-linecap="round" stroke-linejoin="round" stroke-width="1"/>
              <path id="Trazado_147458" data-name="Trazado 147458" d="M176,207.838a7.613,7.613,0,0,0-.551-.592c-.577-.557-1.5-1.266-2.191-.973s-.742,1.419-.728,2.628c.016,1.472.144,3.057-.6,3.368-.629.265-1.195-.133-1.774-.568-.663-.5-1.344-1.037-2.16-.693-1.379.58-.958,2.375-1.444,3.912a2.973,2.973,0,0,1-1.814,1.959c-1.191.5-2.4.009-3.535-.767-1.921-1.31-3.646-3.43-4.763-2.961-1.778.749.183,5.56-1.728,6.365-1.068.449-3.279-2.919-5.426-5.814-1.7-2.292-3.357-4.287-4.376-3.859-2.306.971,1.494,12.474-.182,13.179-.016.007-.034.014-.051.019a1.769,1.769,0,0,1-1.661-.157c-.6-.342-1.1-.828-1.764-.546-1.234.519-.51,5.029-1.871,5.6s-2.177-.256-3.708.388c-1.3.545-2.063,3.683-2.063,3.683l.774,1.839,44.652-18.791" transform="translate(-125.346 -199.302)" fill="#757575" stroke="#263238" stroke-linecap="round" stroke-linejoin="round" stroke-width="1"/>
            </g>
            <path id="Trazado_147459" data-name="Trazado 147459" d="M184.676,241.163l-15.53,6.536a.573.573,0,0,0,.444,1.056l15.53-6.536a.573.573,0,1,0-.444-1.056Z" transform="translate(-143.473 -212.401)" fill="#263238"/>
            <g id="Grupo_134218" data-name="Grupo 134218" transform="translate(51.725)">
              <g id="Grupo_134213" data-name="Grupo 134213">
                <rect id="Rectángulo_35765" data-name="Rectángulo 35765" width="2.235" height="2.235" rx="0.626" transform="matrix(0.922, -0.388, 0.388, 0.922, 0, 3.773)" fill="#bfbfbf" stroke="#263238" stroke-miterlimit="10" stroke-width="1"/>
                <g id="Grupo_134212" data-name="Grupo 134212" transform="translate(3.331)">
                  <g id="Grupo_134210" data-name="Grupo 134210">
                    <path id="Trazado_147460" data-name="Trazado 147460" d="M236.693,182.373l-6.207,2.612a.257.257,0,0,1-.2-.474l6.207-2.612a.257.257,0,0,1,.2.474Z" transform="translate(-230.13 -181.88)" fill="#263238"/>
                  </g>
                  <g id="Grupo_134211" data-name="Grupo 134211" transform="translate(0.434 1.827)">
                    <path id="Trazado_147461" data-name="Trazado 147461" d="M235.694,186.142l-4.313,1.815a.257.257,0,1,1-.2-.474l4.313-1.815a.257.257,0,0,1,.2.474Z" transform="translate(-231.025 -185.648)" fill="#263238"/>
                  </g>
                </g>
              </g>
              <g id="Grupo_134217" data-name="Grupo 134217" transform="translate(1.942 4.614)">
                <rect id="Rectángulo_35766" data-name="Rectángulo 35766" width="2.235" height="2.235" rx="0.626" transform="matrix(0.922, -0.388, 0.388, 0.922, 0, 3.773)" fill="#757575" stroke="#263238" stroke-linecap="round" stroke-linejoin="round" stroke-width="1"/>
                <g id="Grupo_134216" data-name="Grupo 134216" transform="translate(3.331)">
                  <g id="Grupo_134214" data-name="Grupo 134214">
                    <path id="Trazado_147462" data-name="Trazado 147462" d="M240.7,191.891l-6.207,2.612a.257.257,0,0,1-.2-.474l6.207-2.612a.257.257,0,0,1,.2.474Z" transform="translate(-234.136 -191.398)" fill="#263238"/>
                  </g>
                  <g id="Grupo_134215" data-name="Grupo 134215" transform="translate(0.433 1.827)">
                    <path id="Trazado_147463" data-name="Trazado 147463" d="M239.7,195.66l-4.313,1.815a.257.257,0,0,1-.2-.474l4.313-1.815a.257.257,0,1,1,.2.474Z" transform="translate(-235.03 -195.166)" fill="#263238"/>
                  </g>
                </g>
              </g>
            </g>
          </g>
          <g id="Grupo_134220" data-name="Grupo 134220" transform="translate(40.266 79.631)">
            <path id="Trazado_147464" data-name="Trazado 147464" d="M210.559,231.608l-50.412,21.216a.573.573,0,1,0,.444,1.056L211,232.664a.573.573,0,1,0-.445-1.056Z" transform="translate(-153.186 -231.563)" fill="#263238"/>
            <path id="Trazado_147465" data-name="Trazado 147465" d="M205.132,239.438l-58.62,24.67a.573.573,0,0,0,.445,1.056l58.62-24.67a.573.573,0,0,0-.444-1.056Z" transform="translate(-146.161 -235.597)" fill="#263238"/>
            <path id="Trazado_147466" data-name="Trazado 147466" d="M208.427,247.269l-58.62,24.67a.573.573,0,0,0,.444,1.056l58.62-24.67a.573.573,0,0,0-.445-1.055Z" transform="translate(-147.859 -239.632)" fill="#263238"/>
            <path id="Trazado_147467" data-name="Trazado 147467" d="M211.723,255.1l-58.62,24.67a.573.573,0,0,0,.445,1.055l58.62-24.67a.573.573,0,1,0-.444-1.056Z" transform="translate(-149.557 -243.666)" fill="#263238"/>
            <path id="Trazado_147468" data-name="Trazado 147468" d="M190.395,284.305l-34,14.308a.573.573,0,1,0,.444,1.056l34-14.308a.573.573,0,1,0-.445-1.056Z" transform="translate(-151.255 -258.714)" fill="#263238"/>
          </g>
          <g id="Grupo_134232" data-name="Grupo 134232" transform="translate(13.622 24.467)">
            <g id="Grupo_134222" data-name="Grupo 134222" transform="translate(0 6.754)">
              <g id="Grupo_134221" data-name="Grupo 134221" transform="translate(8.266)">
                <path id="Trazado_147469" data-name="Trazado 147469" d="M147.045,131.7s.655,5.146-1.261,5.952c-1.749.736-4.053-2.025-6.064-1.178s-.425,8.141-2.365,8.958-4.278-2.181-5.951-1.477-.662,4.457-2.387,5.183c-1.424.6-3.461-2.384-5.091-3.038a1.246,1.246,0,0,0-.97-.048c-1.707.718-.86,8.554-2.333,9.174a2.752,2.752,0,0,1-1.307.214,9.746,9.746,0,0,0-1.661-.157,2.148,2.148,0,0,0-.621.159c-1.258.529-1.086,4.653-2.236,5.137s-2.284-.116-3.512.4-1.208,2.66-3.037,3.431l.774,1.839,44.652-18.791" transform="translate(-108.251 -131.704)" fill="#bfbfbf" stroke="#263238" stroke-miterlimit="10" stroke-width="1"/>
                <path id="Trazado_147470" data-name="Trazado 147470" d="M150.121,145.85s.409,2.494-.578,2.91c-.819.345-1.322-.135-2.185-.167a2.871,2.871,0,0,0-1.249.256c-.789.332-.981,1.4-1.121,2.543-.172,1.409-.264,2.939-1.3,3.374a3.191,3.191,0,0,1-2.309-.155c-1.282-.447-2.631-1.154-3.933-.606a3.071,3.071,0,0,0-1.417,1.8c-.809,2-1.064,4.9-1.94,5.271-1.246.525-3.529-1.618-4.635-1.152s-.653,2.388-1.551,2.766-1.41-.737-2.991-.072-.811,3-3.039,3.937-3.207-.787-5.364.121-1.765,2.541-3.283,3.18-2.162-.472-3.25-.014c-1.054.444-1.344,2.179-1.361,2.287l.595,1.414,44.652-18.791" transform="translate(-108.441 -138.992)" fill="#46ac63" stroke="#263238" stroke-miterlimit="10" stroke-width="1"/>
              </g>
              <path id="Trazado_147471" data-name="Trazado 147471" d="M91.2,158.66l9.04,21.481,46.751-19.675" transform="translate(-91.199 -145.592)" fill="none" stroke="#263238" stroke-linecap="round" stroke-linejoin="round" stroke-width="1"/>
            </g>
            <path id="Trazado_147472" data-name="Trazado 147472" d="M159.025,180.213l-15.53,6.536a.572.572,0,1,0,.444,1.055l15.531-6.536a.573.573,0,0,0-.445-1.056Z" transform="translate(-117.963 -149.92)" fill="#263238"/>
            <g id="Grupo_134231" data-name="Grupo 134231" transform="translate(50.94)">
              <g id="Grupo_134226" data-name="Grupo 134226" transform="translate(0)">
                <rect id="Rectángulo_35767" data-name="Rectángulo 35767" width="2.235" height="2.235" rx="0.626" transform="matrix(0.922, -0.388, 0.388, 0.922, 0, 3.773)" fill="#bfbfbf" stroke="#263238" stroke-miterlimit="10" stroke-width="1"/>
                <g id="Grupo_134225" data-name="Grupo 134225" transform="translate(3.331)">
                  <g id="Grupo_134223" data-name="Grupo 134223">
                    <path id="Trazado_147473" data-name="Trazado 147473" d="M209.714,118.265l-6.207,2.612a.257.257,0,0,1-.2-.474l6.207-2.612a.257.257,0,0,1,.2.474Z" transform="translate(-203.151 -117.771)" fill="#263238"/>
                  </g>
                  <g id="Grupo_134224" data-name="Grupo 134224" transform="translate(0.433 1.827)">
                    <path id="Trazado_147474" data-name="Trazado 147474" d="M208.714,122.034l-4.313,1.815a.257.257,0,1,1-.2-.473l4.313-1.815a.257.257,0,1,1,.2.473Z" transform="translate(-204.045 -121.54)" fill="#263238"/>
                  </g>
                </g>
              </g>
              <g id="Grupo_134230" data-name="Grupo 134230" transform="translate(1.942 4.614)">
                <rect id="Rectángulo_35768" data-name="Rectángulo 35768" width="2.235" height="2.235" rx="0.626" transform="matrix(0.922, -0.388, 0.388, 0.922, 0, 3.773)" fill="#46ac63" stroke="#263238" stroke-miterlimit="10" stroke-width="1"/>
                <g id="Grupo_134229" data-name="Grupo 134229" transform="translate(3.331)">
                  <g id="Grupo_134227" data-name="Grupo 134227">
                    <path id="Trazado_147475" data-name="Trazado 147475" d="M213.719,127.783l-6.206,2.612a.257.257,0,0,1-.2-.474l6.206-2.612a.257.257,0,1,1,.2.474Z" transform="translate(-207.156 -127.289)" fill="#263238"/>
                  </g>
                  <g id="Grupo_134228" data-name="Grupo 134228" transform="translate(0.433 1.827)">
                    <path id="Trazado_147476" data-name="Trazado 147476" d="M212.719,131.552l-4.313,1.815a.257.257,0,1,1-.2-.473l4.313-1.815a.257.257,0,1,1,.2.473Z" transform="translate(-208.05 -131.058)" fill="#263238"/>
                  </g>
                </g>
              </g>
            </g>
          </g>
          <path id="Trazado_147477" data-name="Trazado 147477" d="M143.2,277.312l-6.724,2.831L123.8,250.033a7.46,7.46,0,0,0,2.118-4.155c.756-4.033.223-17,10.321-18.339s1.58,21.369,2.046,25.7C138.712,257.179,144.466,268.634,143.2,277.312Z" transform="translate(-94.374 -149.83)" fill="rgba(0,0,0,0.7)" opacity="0.2"/>
        </g>
        <path id="Trazado_147479" data-name="Trazado 147479" d="M177.153,167.329l-65.232,27.453-6.724,2.831L92.526,167.5,63.1,97.584,135.055,67.3Z" transform="translate(-63.1 -67.3)" fill="none" stroke="#263238" stroke-linecap="round" stroke-linejoin="round" stroke-width="1"/>
      </g>
      <g id="Grupo_134236" data-name="Grupo 134236" transform="translate(0 69.433)">
        <path id="Trazado_147480" data-name="Trazado 147480" d="M93.81,246.143c1.131-3.87,5.553-16.3,4.973-21.788a5.368,5.368,0,0,0-.309-1.337c-1.552-4.1-7.895-3.7-10.329-.306A32.514,32.514,0,0,0,83.1,237.27a12.659,12.659,0,0,1-1.918,5.748c0,.009,0,.014-.008.018a14.2,14.2,0,0,1-1.283,1.823L65.42,210.527a19.6,19.6,0,0,0-3.786,4.226,6.912,6.912,0,0,0-1.112,2.943c-.3,3.381-4.126,17.275-5.719,23.138-.031.126-.066.243-.1.361-1.531,5.634,2.511,26.557,1.355,32.634s-1.875,5.942-2.043,10.258c-.123,3.152-4.632,12.732-9.682,22.567-2.9,5.637-5.971,11.352-8.507,15.983l37-1.536c.641-4.5,1.3-9.24,1.9-13.833a51.667,51.667,0,0,1,1.105-5.679v0c.817-3.3,1.811-6.278,2.416-8.024a75.6,75.6,0,0,0,1.931-7.8c4.3-4.555,9.945-11.714,11.58-16.563,0-.009.008-.022.012-.031a6.021,6.021,0,0,0,.368-3.148,14.587,14.587,0,0,1-.293-2.648s0,0,0-.009A73.486,73.486,0,0,1,93.81,246.143Z" transform="translate(-35.83 -210.527)" fill="#fff"/>
        <path id="Trazado_147481" data-name="Trazado 147481" d="M108.6,243.036a57.885,57.885,0,0,0-3.412,7.12c-.882,2.581-1.83,2.946-4.419,4.965s-4.479-1.307-4.479-1.307,3.426-3.56,2.288-5.54-5.4-6.914-5.15-9.634-2.586-8.818-2.586-8.818,6.46-3.793,5.207-8.224c-.685-2.427-4.067-5.009-6.986-6.844a19.6,19.6,0,0,1,3.786-4.226l14.469,34.331A14.2,14.2,0,0,0,108.6,243.036Z" transform="translate(-63.254 -210.527)" fill="#46ac63" opacity="0.4"/>
        <path id="Trazado_147482" data-name="Trazado 147482" d="M66.748,296.3c.088.291,2.19,7.24.416,10.134-1.815,2.959-3.6,6.731-2.73,10.661.692,3.139-5.125,14.486-11.056,21.764,5.05-9.835,9.559-19.416,9.682-22.567.168-4.316.882-4.185,2.043-10.258s-2.886-27-1.355-32.634c.031-.117.066-.235.1-.361,1.13,6.384,3.761,19.1,4.483,23.187C69.247,301.436,66.846,296.51,66.748,296.3Z" transform="translate(-44.871 -242.737)" fill="#46ac63" opacity="0.4"/>
        <path id="Trazado_147483" data-name="Trazado 147483" d="M108.44,368.366c4.3-18.512,18.77-32.708,20.73-36.818-1.635,4.85-7.277,12.009-11.58,16.563a75.6,75.6,0,0,1-1.931,7.8c-.6,1.745-1.6,4.728-2.416,8.024v0C109.041,368.894,108.44,368.366,108.44,368.366Z" transform="translate(-73.24 -272.88)" fill="#46ac63" opacity="0.4"/>
        <path id="Trazado_147484" data-name="Trazado 147484" d="M148.29,259.166a73.486,73.486,0,0,0-1.963,17.215c-.761-3.3-2.227-7.483-2.469-13.315-.411-9.889,5.191-6.343,3.237-11.213s-7.523,1.373-4.778-8.941c2-7.53,7.707-7.459,10.637-6.872a5.369,5.369,0,0,1,.309,1.337C153.843,242.871,149.421,255.3,148.29,259.166Z" transform="translate(-90.31 -223.55)" fill="#46ac63" opacity="0.4"/>
        <g id="Grupo_134235" data-name="Grupo 134235" transform="translate(5.626)">
          <path id="Trazado_147485" data-name="Trazado 147485" d="M47.436,312.427c4.641-8.477,9.151-17.2,12.4-26.6.39-1.353-.129-3.114.26-4.467,4.394-12.214-.589-24.93.227-37.442a92.36,92.36,0,0,1,3.839-14.865c.742-3.6,1.02-7.618,2.207-11.232,1.224-2.724,2.429-5.894,5.027-7.29,4.944,11.332,9.873,22.713,14.469,34.331,2.076-1.2,2.41-3.888,2.762-6.13,1.113-5.394,2.244-10.343,4.283-14.884,2.076-3.651,7.359-5.207,10.6-2.223a5.054,5.054,0,0,1,1.482,3.5c-.631,6.265-2.6,12.585-4.581,18.46a48.645,48.645,0,0,0-1.911,7.655c.037.89.056,1.335.093,2.224-1.15,4.5-.094,8.471-.354,12.938-1,8.063-7.453,13.678-12.106,19.665-1.15,4.5-2.3,9.008-3.894,13.531-1.947,6.765-2.56,13.475-3.224,20" transform="translate(-47.436 -210.527)" fill="none" stroke="#263238" stroke-linecap="round" stroke-linejoin="round" stroke-width="1"/>
          <path id="Trazado_147486" data-name="Trazado 147486" d="M118.862,281.346a30.271,30.271,0,0,0-2.131,5.3c-.606,2.376-3.676,2.033-5.26,3.509" transform="translate(-80.428 -247.015)" fill="none" stroke="#263238" stroke-linecap="round" stroke-linejoin="round" stroke-width="1"/>
          <path id="Trazado_147487" data-name="Trazado 147487" d="M102.843,272.719a28.469,28.469,0,0,1,6.6,3.369,13,13,0,0,0,4.228,2.36" transform="translate(-75.983 -242.57)" fill="none" stroke="#263238" stroke-linecap="round" stroke-linejoin="round" stroke-width="1"/>
          <path id="Trazado_147488" data-name="Trazado 147488" d="M97.35,247.305s3.368.944,5.866-.243a22.407,22.407,0,0,1,.633-3.581" transform="translate(-73.153 -227.506)" fill="none" stroke="#263238" stroke-linecap="round" stroke-linejoin="round" stroke-width="1"/>
          <path id="Trazado_147489" data-name="Trazado 147489" d="M111.106,251.877s.035.469,1.752.489" transform="translate(-80.24 -231.831)" fill="none" stroke="#263238" stroke-linecap="round" stroke-linejoin="round" stroke-width="1"/>
          <path id="Trazado_147490" data-name="Trazado 147490" d="M121.685,365.72a22.961,22.961,0,0,0-5.294,8.352" transform="translate(-82.963 -290.486)" fill="none" stroke="#263238" stroke-linecap="round" stroke-linejoin="round" stroke-width="1"/>
          <path id="Trazado_147491" data-name="Trazado 147491" d="M74.35,275.924c-.151,2.9,3.259,13.223,4.295,18.351s1.421,8.756,1.421,8.756" transform="translate(-61.3 -244.221)" fill="none" stroke="#263238" stroke-linecap="round" stroke-linejoin="round" stroke-width="1"/>
        </g>
      </g>
    </g>
  </g>
</svg>
