<svg xmlns="http://www.w3.org/2000/svg" width="95" height="95" viewBox="0 0 95 95">
  <g id="Grupo_134083" data-name="Grupo 134083" transform="translate(-742.5 -1504)">
    <g id="data" transform="translate(747.804 1508.42)">
      <g id="Grupo_55906" data-name="Grupo 55906" transform="translate(0)">
        <g id="Grupo_55905" data-name="Grupo 55905">
          <path id="Trazado_129134" data-name="Trazado 129134" d="M509.626,2257.936H452.138a7.2,7.2,0,0,0-7.187,7.187v45.994a7.187,7.187,0,0,0,5.391,6.96l.72-2.784a4.313,4.313,0,0,1-3.24-4.177v-45.994a4.313,4.313,0,0,1,4.31-4.316h57.494a4.313,4.313,0,0,1,4.313,4.313h0v1.437h2.871v-1.434A7.2,7.2,0,0,0,509.626,2257.936Z" transform="translate(-444.951 -2257.936)" fill="#78b62e"/>
        </g>
      </g>
      <g id="Grupo_55908" data-name="Grupo 55908" transform="translate(5.75 5.75)">
        <g id="Grupo_55907" data-name="Grupo 55907">
          <rect id="Rectángulo_30781" data-name="Rectángulo 30781" width="2.874" height="2.874" fill="#78b62e"/>
        </g>
      </g>
      <g id="Grupo_55910" data-name="Grupo 55910" transform="translate(11.5 5.75)">
        <g id="Grupo_55909" data-name="Grupo 55909">
          <rect id="Rectángulo_30782" data-name="Rectángulo 30782" width="2.874" height="2.874" fill="#78b62e"/>
        </g>
      </g>
      <g id="Grupo_55912" data-name="Grupo 55912" transform="translate(17.248 5.75)">
        <g id="Grupo_55911" data-name="Grupo 55911">
          <rect id="Rectángulo_30783" data-name="Rectángulo 30783" width="2.874" height="2.874" fill="#78b62e"/>
        </g>
      </g>
      <g id="Grupo_55914" data-name="Grupo 55914" transform="translate(14.374 22.998)">
        <g id="Grupo_55913" data-name="Grupo 55913">
          <path id="Trazado_129135" data-name="Trazado 129135" d="M539.807,2354.168l-13.633-13.633a19.893,19.893,0,0,0,1.708-4.036h2.284v-2.871H528.5a19.369,19.369,0,0,0-1.209-10.3V2309.19h-2.871v9.153a20.181,20.181,0,0,0-2.871-2.984v-11.926h-2.871v9.91a20.049,20.049,0,0,0-2.871-1.373v-14.279H512.94V2311.1a19.9,19.9,0,0,0-2.871-.4v-10.139H507.2V2310.7a19.894,19.894,0,0,0-2.871.4v-4.789h-2.872v5.662a19.991,19.991,0,0,0-2.871,1.371v-8.471h-2.871v10.481a20.239,20.239,0,0,0-2.871,2.984v-10.59h-2.871v15.572a19.366,19.366,0,0,0-1.209,10.3H469.8v2.871h19.534a20.08,20.08,0,0,0,30.826,10.706l13.308,13.309a1.437,1.437,0,0,0,2.032,0h0l4.313-4.313A1.437,1.437,0,0,0,539.807,2354.168Zm-31.2-6.17a17.248,17.248,0,1,1,17.254-17.247A17.247,17.247,0,0,1,508.606,2348Zm25.873,9.467-12.089-12.089a20.337,20.337,0,0,0,2.164-2.4l12.208,12.209Z" transform="translate(-469.798 -2297.691)" fill="#78b62e"/>
        </g>
      </g>
      <g id="Grupo_55916" data-name="Grupo 55916" transform="translate(38.808 41.683)">
        <g id="Grupo_55915" data-name="Grupo 55915">
          <path id="Trazado_129136" data-name="Trazado 129136" d="M526.41,2329.992a14.374,14.374,0,1,0,14.374,14.374h0A14.374,14.374,0,0,0,526.41,2329.992Zm0,25.874a11.5,11.5,0,0,1-9.943-5.743h19.888A11.5,11.5,0,0,1,526.41,2355.865Zm-11.12-8.624a11.394,11.394,0,0,1,3.929-11.836v8.963h2.871v-10.652a11.452,11.452,0,0,1,2.871-.748v11.4h2.871v-11.4a11.444,11.444,0,0,1,2.871.748v10.652h2.871v-8.963a11.394,11.394,0,0,1,3.929,11.836Z" transform="translate(-512.036 -2329.992)" fill="#78b62e"/>
        </g>
      </g>
      <g id="Grupo_55918" data-name="Grupo 55918" transform="translate(8.624 11.5)">
        <g id="Grupo_55917" data-name="Grupo 55917">
          <path id="Trazado_129137" data-name="Trazado 129137" d="M524.534,2277.815H467.046a7.2,7.2,0,0,0-7.187,7.187V2331a7.2,7.2,0,0,0,7.187,7.186h18.686v-2.871H467.046a4.313,4.313,0,0,1-4.316-4.31v-46a4.313,4.313,0,0,1,4.31-4.316h57.494a4.313,4.313,0,0,1,4.313,4.313h0v46a4.313,4.313,0,0,1-1.078,2.851l2.157,1.9a7.179,7.179,0,0,0,1.8-4.754V2285A7.2,7.2,0,0,0,524.534,2277.815Z" transform="translate(-459.859 -2277.815)" fill="#78b62e"/>
        </g>
      </g>
      <g id="Grupo_55920" data-name="Grupo 55920" transform="translate(14.374 17.248)">
        <g id="Grupo_55919" data-name="Grupo 55919">
          <rect id="Rectángulo_30784" data-name="Rectángulo 30784" width="2.874" height="2.874" fill="#78b62e"/>
        </g>
      </g>
      <g id="Grupo_55922" data-name="Grupo 55922" transform="translate(20.123 17.248)">
        <g id="Grupo_55921" data-name="Grupo 55921">
          <rect id="Rectángulo_30785" data-name="Rectángulo 30785" width="2.874" height="2.874" fill="#78b62e"/>
        </g>
      </g>
      <g id="Grupo_55924" data-name="Grupo 55924" transform="translate(25.873 17.248)">
        <g id="Grupo_55923" data-name="Grupo 55923">
          <rect id="Rectángulo_30786" data-name="Rectángulo 30786" width="2.874" height="2.874" fill="#78b62e"/>
        </g>
      </g>
      <g id="Grupo_55926" data-name="Grupo 55926" transform="translate(17.248 47.433)">
        <g id="Grupo_55925" data-name="Grupo 55925" transform="translate(0 0)">
          <rect id="Rectángulo_30787" data-name="Rectángulo 30787" width="2.874" height="8.624" fill="#78b62e"/>
        </g>
      </g>
      <g id="Grupo_55928" data-name="Grupo 55928" transform="translate(22.997 38.808)">
        <g id="Grupo_55927" data-name="Grupo 55927">
          <rect id="Rectángulo_30788" data-name="Rectángulo 30788" width="2.874" height="17.248" fill="#78b62e"/>
        </g>
      </g>
      <g id="Grupo_55930" data-name="Grupo 55930" transform="translate(28.747 43.121)">
        <g id="Grupo_55929" data-name="Grupo 55929" transform="translate(0 0)">
          <rect id="Rectángulo_30789" data-name="Rectángulo 30789" width="2.874" height="12.936" fill="#78b62e"/>
        </g>
      </g>
    </g>
    <rect id="Rectángulo_35701" data-name="Rectángulo 35701" width="95" height="95" transform="translate(742.5 1504)" fill="none"/>
  </g>
</svg>
