<svg xmlns="http://www.w3.org/2000/svg" width="270.472" height="219.358" viewBox="0 0 270.472 219.358">
  <g id="Grupo_134121" data-name="Grupo 134121" transform="translate(-616.166 -2320.486)">
    <g id="freepik--background-simple--inject-122" transform="translate(616.166 2340.325)">
      <path id="Trazado_127277" data-name="Trazado 127277" d="M6042.056,13390.248c-10.1-11.875-18.484-26.727-34.821-34.064-23.233-10.438-45.569,3.753-64.378,13.768-9.88,5.257-20.4,10.732-32.368,12.257-17.12,2.184-34.509-3.854-51.482-.157-28.684,6.247-36.53,34.029-26.887,53.77,13.386,27.428,43.344,56.886,49.081,79.232s32.508,38.092,78.4,27.935,43.343-33.521,84.137-38.6,60.553-28.442,53.542-57.9c-3.449-14.5-14.66-25.141-29.168-33.685C6057.71,13406.7,6049.283,13398.729,6042.056,13390.248Z" transform="translate(-5828.199 -13352.522)" fill="#e9f3dd"/>
    </g>
    <g id="freepik--Plants--inject-122" transform="translate(642.434 2320.985)">
      <path id="Trazado_127278" data-name="Trazado 127278" d="M5908.632,13326.342a15.953,15.953,0,0,0,3.264-3.367,4.67,4.67,0,0,0,.392-3.915,2.223,2.223,0,0,0-2.937-1.106,1.634,1.634,0,0,0-.21.107c-1.6.979-1.772,4.406-1.366,6.02A23.443,23.443,0,0,0,5908.632,13326.342Z" transform="translate(-5870.756 -13315.431)" fill="#78b62e"/>
      <path id="Trazado_127279" data-name="Trazado 127279" d="M5858.163,13362.878c.1.1,1.958,1.439,1.958,1.405s1.052-3.143.876-4.605a4.664,4.664,0,0,0-1.825-3.471,2.225,2.225,0,0,0-3.078.691,1.848,1.848,0,0,0-.118.205C5855.192,13358.815,5856.919,13361.753,5858.163,13362.878Z" transform="translate(-5844.302 -13334.887)" fill="#78b62e"/>
      <path id="Trazado_127280" data-name="Trazado 127280" d="M5962,13341.7s-9.509,9.818-9.46,21.891,9.651,21.794,9.651,21.794,9.509-9.817,9.455-21.876S5962,13341.7,5962,13341.7Z" transform="translate(-5893.709 -13327.657)" fill="#78b62e"/>
      <path id="Trazado_127281" data-name="Trazado 127281" d="M5887.058,13356.118a3.71,3.71,0,0,0,.347-.436,4.651,4.651,0,0,0,.837-3.826,2.231,2.231,0,0,0-2.8-1.47l-.221.085c-1.292.611-1.928,2.681-2.065,4.375-.49-.118-.979-.211-1.375-.273-.172-.388-.343-.774-.519-1.161s-.318-.808-.489-1.214c-.23-.6-.436-1.232-.641-1.864a14.279,14.279,0,0,0,3.758-2.266,4.686,4.686,0,0,0,1.41-3.655,2.242,2.242,0,0,0-2.78-1.812c-1.806.533-2.868,3.765-2.9,5.442a5.929,5.929,0,0,0,.064.837c-.181-.627-.367-1.243-.529-1.879-.464-1.807-.88-3.661-1.307-5.516-.088-.387-.181-.773-.274-1.159a14.835,14.835,0,0,0,3.876-2.315,4.62,4.62,0,0,0,1.4-3.656,2.221,2.221,0,0,0-2.53-1.863,2.165,2.165,0,0,0-.25.053c-1.8.533-2.863,3.765-2.9,5.442,0,.063.034.49.079.979-.246-1.008-.49-2.007-.789-2.989a38.62,38.62,0,0,0-1.776-4.953,15.51,15.51,0,0,0,3.993-2.369,4.667,4.667,0,0,0,1.41-3.66,2.233,2.233,0,0,0-2.55-1.86l-.23.049c-1.806.539-2.868,3.765-2.9,5.447,0,.117.137,1.654.206,2.2v-.06a29.158,29.158,0,0,0-2.588-4.472,39.552,39.552,0,0,0-2.859-3.628c-.935-1.081-1.859-2.011-2.687-2.828-.445-.44-.866-.832-1.263-1.194h.04c.034,0-.881-2.1-.949-2.227-.847-1.468-3.333-3.772-5.173-3.372a2.225,2.225,0,0,0-1.629,2.7.816.816,0,0,0,.068.235,4.649,4.649,0,0,0,3,2.525,15.307,15.307,0,0,0,4.532.161c.406.383.832.8,1.292,1.268.8.837,1.7,1.782,2.613,2.878.245.294.489.616.739.925-.524-.436-1.253-1.019-1.332-1.066-1.419-.905-4.693-1.815-6.142-.611a2.23,2.23,0,0,0-.2,3.15c.049.06.108.113.162.167a4.661,4.661,0,0,0,3.822.86,15.535,15.535,0,0,0,4.116-1.956c.539.694,1.077,1.419,1.591,2.207a28.28,28.28,0,0,1,2.446,4.467c.04.095.069.191.1.28-.22-.26-1.542-1.6-1.649-1.678-1.311-1.054-4.463-2.315-6.034-1.278a2.227,2.227,0,0,0-.553,3.1c.05.068.1.132.152.2a4.641,4.641,0,0,0,3.7,1.271,14.816,14.816,0,0,0,4.4-1.541,38.02,38.02,0,0,1,1.61,4.831c.323,1.214.6,2.446.871,3.709-.293-.334-1.526-1.571-1.624-1.654-1.312-1.052-4.464-2.315-6.04-1.278a2.232,2.232,0,0,0-.543,3.108c.044.063.093.127.142.187a4.656,4.656,0,0,0,3.709,1.271,15.866,15.866,0,0,0,4.4-1.532c.123.568.245,1.137.362,1.709.387,1.859.763,3.729,1.189,5.559.152.637.318,1.259.489,1.88-.46-.489-1.316-1.346-1.395-1.409-1.312-1.057-4.468-2.32-6.039-1.282a2.225,2.225,0,0,0-.553,3.1c.049.069.1.133.152.2a4.65,4.65,0,0,0,3.7,1.277,14.491,14.491,0,0,0,4.238-1.469c.289,1.033.592,2.051.945,3.039.161.422.293.861.489,1.258l.269.632-.367-.034s0,.592.034,1.547c-1.385-.979-3.382-1.837-4.679-1.238a2.232,2.232,0,0,0-1.008,2.989c.035.069.074.139.113.205a2.546,2.546,0,0,0,.288.4,8.753,8.753,0,0,0,1.791,3.988c.069.078,1.008.95,1.5,1.38-.49-.253-.95-.489-1.439-.788-.705-.391-1.439-.827-2.153-1.247l-1.14-.729c-.377-.23-.71-.49-1.072-.744-.523-.376-1.042-.788-1.561-1.2a14.328,14.328,0,0,0,1.889-3.959,4.692,4.692,0,0,0-.846-3.827,2.232,2.232,0,0,0-3.152-.167c-.059.054-.113.107-.167.167-1.208,1.468-.313,4.723.583,6.146.03.044.25.327.49.655-.49-.416-.979-.832-1.468-1.272-1.381-1.253-2.751-2.569-4.131-3.881l-.842-.8a14.832,14.832,0,0,0,1.958-4.061,4.643,4.643,0,0,0-.842-3.833,2.231,2.231,0,0,0-3.151-.165,2.3,2.3,0,0,0-.166.165c-1.209,1.469-.313,4.718.582,6.142.029.054.293.388.592.76-.759-.7-1.522-1.4-2.305-2.057a38.938,38.938,0,0,0-4.214-3.153,15.619,15.619,0,0,0,2.026-4.178,4.658,4.658,0,0,0-.847-3.827,2.227,2.227,0,0,0-3.142-.171c-.059.054-.117.113-.171.171-1.214,1.468-.318,4.722.577,6.146.064.1,1.033,1.307,1.39,1.723l-.054-.034a28.389,28.389,0,0,0-4.625-2.3,39.777,39.777,0,0,0-4.4-1.47c-1.38-.386-2.662-.65-3.8-.88-.621-.118-1.184-.21-1.717-.3h.034c.024,0-1.894-1.268-2.026-1.332-1.5-.748-4.854-1.306-6.171.04a2.232,2.232,0,0,0,.132,3.151l.181.151a4.7,4.7,0,0,0,3.916.456,14.845,14.845,0,0,0,3.866-2.369c.548.1,1.136.211,1.782.348,1.131.249,2.4.544,3.764.979.367.113.753.245,1.13.362-.681-.068-1.61-.157-1.7-.157-1.679.035-4.894,1.077-5.457,2.883a2.222,2.222,0,0,0,1.556,2.731c.079.021.159.04.24.054a4.66,4.66,0,0,0,3.666-1.39,15.543,15.543,0,0,0,2.354-3.916,26.554,26.554,0,0,1,2.54.979,28.406,28.406,0,0,1,4.518,2.374c.083.054.161.123.245.177-.328-.094-2.168-.489-2.3-.489-1.674-.157-5,.528-5.74,2.261a2.226,2.226,0,0,0,1.238,2.888,2.1,2.1,0,0,0,.23.078,4.662,4.662,0,0,0,3.8-.979,15.647,15.647,0,0,0,2.819-3.719,38.287,38.287,0,0,1,4.009,3.141c.939.838,1.859,1.718,2.774,2.614-.431-.112-2.139-.49-2.266-.49-1.674-.156-5,.529-5.741,2.262a2.238,2.238,0,0,0,1.253,2.9,1.847,1.847,0,0,0,.216.073,4.662,4.662,0,0,0,3.8-.979,15.58,15.58,0,0,0,2.81-3.7l1.243,1.224c1.346,1.342,2.692,2.691,4.062,3.983.489.446.979.871,1.439,1.3-.651-.146-1.84-.4-1.958-.406-1.678-.151-5,.534-5.746,2.267a2.235,2.235,0,0,0,1.248,2.892,1.92,1.92,0,0,0,.221.074,4.665,4.665,0,0,0,3.8-.979,14.7,14.7,0,0,0,2.726-3.557c.808.7,1.625,1.38,2.447,2.011.367.265.724.558,1.091.793l1.082.725c.753.49,1.468.905,2.172,1.322.357.215.7.406,1.052.611-.636-.249-1.649-.627-1.747-.651-1.629-.405-5.026-.234-6.019,1.366a2.227,2.227,0,0,0,.8,3.044,1.809,1.809,0,0,0,.216.112,4.683,4.683,0,0,0,3.915-.392,15.561,15.561,0,0,0,3.318-3.21c.866.489,1.713.979,2.511,1.391,2.133,1.144,4,2.054,5.442,2.729,4.7,4.063,11.31,4.513,11.31,4.513s.347-7.918-4.312-13.131a16.248,16.248,0,0,0-5.794-3.994Zm-8.383,7.718a16.378,16.378,0,0,0,1.351-4.258c.259-.049.523-.1.778-.162a18.319,18.319,0,0,0,2.936,6.975c-.856-.406-1.781-.856-2.76-1.355q-1.13-.549-2.319-1.185Z" transform="translate(-5832.328 -13313.006)" fill="#78b62e"/>
      <path id="Trazado_127282" data-name="Trazado 127282" d="M5996.68,13398s-7.924.245-12.774,5.28-4.786,12.964-4.786,12.964,7.923-.243,12.769-5.28S5996.68,13398,5996.68,13398Z" transform="translate(-5907.28 -13356.404)" fill="#78b62e"/>
      <g id="Grupo_61482" data-name="Grupo 61482" transform="translate(0 0)" opacity="0.5">
        <path id="Trazado_127283" data-name="Trazado 127283" d="M5908.632,13326.342a15.953,15.953,0,0,0,3.264-3.367,4.67,4.67,0,0,0,.392-3.915,2.223,2.223,0,0,0-2.937-1.106,1.634,1.634,0,0,0-.21.107c-1.6.979-1.772,4.406-1.366,6.02A23.443,23.443,0,0,0,5908.632,13326.342Z" transform="translate(-5870.756 -13315.431)" fill="#78b62e" stroke="#5e6178" stroke-miterlimit="10" stroke-width="0"/>
        <path id="Trazado_127284" data-name="Trazado 127284" d="M5858.163,13362.878c.1.1,1.958,1.439,1.958,1.405s1.052-3.143.876-4.605a4.664,4.664,0,0,0-1.825-3.471,2.225,2.225,0,0,0-3.078.691,1.848,1.848,0,0,0-.118.205C5855.192,13358.815,5856.919,13361.753,5858.163,13362.878Z" transform="translate(-5844.302 -13334.887)" fill="#78b62e" stroke="#5e6178" stroke-miterlimit="10" stroke-width="0"/>
        <path id="Trazado_127285" data-name="Trazado 127285" d="M5962,13341.7s-9.509,9.818-9.46,21.891,9.651,21.794,9.651,21.794,9.509-9.817,9.455-21.876S5962,13341.7,5962,13341.7Z" transform="translate(-5893.709 -13327.657)" fill="#78b62e" stroke="#5e6178" stroke-miterlimit="10" stroke-width="0"/>
        <path id="Trazado_127286" data-name="Trazado 127286" d="M5887.058,13356.118a3.71,3.71,0,0,0,.347-.436,4.651,4.651,0,0,0,.837-3.826,2.231,2.231,0,0,0-2.8-1.47l-.221.085c-1.292.611-1.928,2.681-2.065,4.375-.49-.118-.979-.211-1.375-.273-.172-.388-.343-.774-.519-1.161s-.318-.808-.489-1.214c-.23-.6-.436-1.232-.641-1.864a14.279,14.279,0,0,0,3.758-2.266,4.686,4.686,0,0,0,1.41-3.655,2.242,2.242,0,0,0-2.78-1.812c-1.806.533-2.868,3.765-2.9,5.442a5.929,5.929,0,0,0,.064.837c-.181-.627-.367-1.243-.529-1.879-.464-1.807-.88-3.661-1.307-5.516-.088-.387-.181-.773-.274-1.159a14.835,14.835,0,0,0,3.876-2.315,4.62,4.62,0,0,0,1.4-3.656,2.221,2.221,0,0,0-2.53-1.863,2.165,2.165,0,0,0-.25.053c-1.8.533-2.863,3.765-2.9,5.442,0,.063.034.49.079.979-.246-1.008-.49-2.007-.789-2.989a38.62,38.62,0,0,0-1.776-4.953,15.51,15.51,0,0,0,3.993-2.369,4.667,4.667,0,0,0,1.41-3.66,2.233,2.233,0,0,0-2.55-1.86l-.23.049c-1.806.539-2.868,3.765-2.9,5.447,0,.117.137,1.654.206,2.2v-.06a29.158,29.158,0,0,0-2.588-4.472,39.552,39.552,0,0,0-2.859-3.628c-.935-1.081-1.859-2.011-2.687-2.828-.445-.44-.866-.832-1.263-1.194h.04c.034,0-.881-2.1-.949-2.227-.847-1.468-3.333-3.772-5.173-3.372a2.225,2.225,0,0,0-1.629,2.7.816.816,0,0,0,.068.235,4.649,4.649,0,0,0,3,2.525,15.307,15.307,0,0,0,4.532.161c.406.383.832.8,1.292,1.268.8.837,1.7,1.782,2.613,2.878.245.294.489.616.739.925-.524-.436-1.253-1.019-1.332-1.066-1.419-.905-4.693-1.815-6.142-.611a2.23,2.23,0,0,0-.2,3.15c.049.06.108.113.162.167a4.661,4.661,0,0,0,3.822.86,15.535,15.535,0,0,0,4.116-1.956c.539.694,1.077,1.419,1.591,2.207a28.28,28.28,0,0,1,2.446,4.467c.04.095.069.191.1.28-.22-.26-1.542-1.6-1.649-1.678-1.311-1.054-4.463-2.315-6.034-1.278a2.227,2.227,0,0,0-.553,3.1c.05.068.1.132.152.2a4.641,4.641,0,0,0,3.7,1.271,14.816,14.816,0,0,0,4.4-1.541,38.02,38.02,0,0,1,1.61,4.831c.323,1.214.6,2.446.871,3.709-.293-.334-1.526-1.571-1.624-1.654-1.312-1.052-4.464-2.315-6.04-1.278a2.232,2.232,0,0,0-.543,3.108c.044.063.093.127.142.187a4.656,4.656,0,0,0,3.709,1.271,15.866,15.866,0,0,0,4.4-1.532c.123.568.245,1.137.362,1.709.387,1.859.763,3.729,1.189,5.559.152.637.318,1.259.489,1.88-.46-.489-1.316-1.346-1.395-1.409-1.312-1.057-4.468-2.32-6.039-1.282a2.225,2.225,0,0,0-.553,3.1c.049.069.1.133.152.2a4.65,4.65,0,0,0,3.7,1.277,14.491,14.491,0,0,0,4.238-1.469c.289,1.033.592,2.051.945,3.039.161.422.293.861.489,1.258l.269.632-.367-.034s0,.592.034,1.547c-1.385-.979-3.382-1.837-4.679-1.238a2.232,2.232,0,0,0-1.008,2.989c.035.069.074.139.113.205a2.546,2.546,0,0,0,.288.4,8.753,8.753,0,0,0,1.791,3.988c.069.078,1.008.95,1.5,1.38-.49-.253-.95-.489-1.439-.788-.705-.391-1.439-.827-2.153-1.247l-1.14-.729c-.377-.23-.71-.49-1.072-.744-.523-.376-1.042-.788-1.561-1.2a14.328,14.328,0,0,0,1.889-3.959,4.692,4.692,0,0,0-.846-3.827,2.232,2.232,0,0,0-3.152-.167c-.059.054-.113.107-.167.167-1.208,1.468-.313,4.723.583,6.146.03.044.25.327.49.655-.49-.416-.979-.832-1.468-1.272-1.381-1.253-2.751-2.569-4.131-3.881l-.842-.8a14.832,14.832,0,0,0,1.958-4.061,4.643,4.643,0,0,0-.842-3.833,2.231,2.231,0,0,0-3.151-.165,2.3,2.3,0,0,0-.166.165c-1.209,1.469-.313,4.718.582,6.142.029.054.293.388.592.76-.759-.7-1.522-1.4-2.305-2.057a38.938,38.938,0,0,0-4.214-3.153,15.619,15.619,0,0,0,2.026-4.178,4.658,4.658,0,0,0-.847-3.827,2.227,2.227,0,0,0-3.142-.171c-.059.054-.117.113-.171.171-1.214,1.468-.318,4.722.577,6.146.064.1,1.033,1.307,1.39,1.723l-.054-.034a28.389,28.389,0,0,0-4.625-2.3,39.777,39.777,0,0,0-4.4-1.47c-1.38-.386-2.662-.65-3.8-.88-.621-.118-1.184-.21-1.717-.3h.034c.024,0-1.894-1.268-2.026-1.332-1.5-.748-4.854-1.306-6.171.04a2.232,2.232,0,0,0,.132,3.151l.181.151a4.7,4.7,0,0,0,3.916.456,14.845,14.845,0,0,0,3.866-2.369c.548.1,1.136.211,1.782.348,1.131.249,2.4.544,3.764.979.367.113.753.245,1.13.362-.681-.068-1.61-.157-1.7-.157-1.679.035-4.894,1.077-5.457,2.883a2.222,2.222,0,0,0,1.556,2.731c.079.021.159.04.24.054a4.66,4.66,0,0,0,3.666-1.39,15.543,15.543,0,0,0,2.354-3.916,26.554,26.554,0,0,1,2.54.979,28.406,28.406,0,0,1,4.518,2.374c.083.054.161.123.245.177-.328-.094-2.168-.489-2.3-.489-1.674-.157-5,.528-5.74,2.261a2.226,2.226,0,0,0,1.238,2.888,2.1,2.1,0,0,0,.23.078,4.662,4.662,0,0,0,3.8-.979,15.647,15.647,0,0,0,2.819-3.719,38.287,38.287,0,0,1,4.009,3.141c.939.838,1.859,1.718,2.774,2.614-.431-.112-2.139-.49-2.266-.49-1.674-.156-5,.529-5.741,2.262a2.238,2.238,0,0,0,1.253,2.9,1.847,1.847,0,0,0,.216.073,4.662,4.662,0,0,0,3.8-.979,15.58,15.58,0,0,0,2.81-3.7l1.243,1.224c1.346,1.342,2.692,2.691,4.062,3.983.489.446.979.871,1.439,1.3-.651-.146-1.84-.4-1.958-.406-1.678-.151-5,.534-5.746,2.267a2.235,2.235,0,0,0,1.248,2.892,1.92,1.92,0,0,0,.221.074,4.665,4.665,0,0,0,3.8-.979,14.7,14.7,0,0,0,2.726-3.557c.808.7,1.625,1.38,2.447,2.011.367.265.724.558,1.091.793l1.082.725c.753.49,1.468.905,2.172,1.322.357.215.7.406,1.052.611-.636-.249-1.649-.627-1.747-.651-1.629-.405-5.026-.234-6.019,1.366a2.227,2.227,0,0,0,.8,3.044,1.809,1.809,0,0,0,.216.112,4.683,4.683,0,0,0,3.915-.392,15.561,15.561,0,0,0,3.318-3.21c.866.489,1.713.979,2.511,1.391,2.133,1.144,4,2.054,5.442,2.729,4.7,4.063,11.31,4.513,11.31,4.513s.347-7.918-4.312-13.131a16.248,16.248,0,0,0-5.794-3.994Zm-8.383,7.718a16.378,16.378,0,0,0,1.351-4.258c.259-.049.523-.1.778-.162a18.319,18.319,0,0,0,2.936,6.975c-.856-.406-1.781-.856-2.76-1.355q-1.13-.549-2.319-1.185Z" transform="translate(-5832.328 -13313.006)" fill="#78b62e" stroke="#5e6178" stroke-miterlimit="10" stroke-width="0"/>
        <path id="Trazado_127287" data-name="Trazado 127287" d="M5996.68,13398s-7.924.245-12.774,5.28-4.786,12.964-4.786,12.964,7.923-.243,12.769-5.28S5996.68,13398,5996.68,13398Z" transform="translate(-5907.28 -13356.404)" fill="#78b62e" stroke="#5e6178" stroke-miterlimit="10" stroke-width="0"/>
      </g>
      <path id="Trazado_127288" data-name="Trazado 127288" d="M6334.944,13586.992l7.781-7-.333-.391-7.453,6.7-.039-9.152.044.05,6.577-9.641-.411-.295-6.21,9.1-.1-22.073h-.5l.063,14.976-4.953-4.257-.323.343,5.28,4.6.044,10.668-7.507-6.607-.328.344,7.84,6.949.039,9.738-5.643-4.4-.3.391,5.951,4.65.03,6.264h.5l-.049-10.962Z" transform="translate(-6266.262 -13540.287)" fill="#78b62e" stroke="#5e6178" stroke-miterlimit="10" stroke-width="0"/>
      <path id="Trazado_127289" data-name="Trazado 127289" d="M6314.708,13618.073l-.494-.049-.627,5.53-3.342-3.719h.009l-.851-6.706-.495.05.758,6.02-8.305-9.3-.372.342,5.638,6.313h-3.568l0,.537,4-.048,3.949,4.4h-5.579v.49h6.025l3.592,4.012-3.935.245.035.489,4.326-.243,2.394,2.69.372-.343-4.213-4.748Z" transform="translate(-6253.195 -13568.678)" fill="#78b62e" stroke="#5e6178" stroke-miterlimit="10" stroke-width="0"/>
      <path id="Trazado_127290" data-name="Trazado 127290" d="M6358.382,13620.284l6.626-1.37-.1-.491-5.921,1.225,8.633-9.006-.357-.342-5.859,6.116-.312-3.572-.495.05.347,3.964-4.11,4.307-.421-5.579-.5.05.455,6.019-3.734,3.867-.529-3.916-.5.049.587,4.307-2.491,2.595.357.342,4.385-4.551,6.014.245.02-.49-5.569-.245,3.475-3.621Z" transform="translate(-6278.066 -13568.88)" fill="#78b62e" stroke="#5e6178" stroke-miterlimit="10" stroke-width="0"/>
    </g>
    <g id="freepik--Document--inject-122" transform="translate(625.225 2320.985)">
      <path id="Trazado_127291" data-name="Trazado 127291" d="M5950.148,13629.849l-76.784-140.179-53.053,17.955,17.207,33.461-1.09-1.87-3.223,1.07a2.345,2.345,0,0,0-1.477,2.972c.04.111.085.222.136.329l8.483,16.5a5.592,5.592,0,0,0,5.893,2.96l2.354-.395,41.325,80.363Z" transform="translate(-5820.311 -13424.154)" fill="#5e6178"/>
      <path id="Trazado_127292" data-name="Trazado 127292" d="M6028.989,13393.048h0a3.552,3.552,0,0,1-4.817-1.407l-1.965-3.589-119.607,65.521,76.785,140.178L6099,13528.234l-41.8-76.312a3.552,3.552,0,0,1,1.406-4.809v0a3.544,3.544,0,0,0,1.412-4.814h0l-26.214-47.831a3.539,3.539,0,0,0-4.81-1.42Z" transform="translate(-5849.547 -13388.052)" fill="#3c6d9d" stroke="#2e353a" stroke-linecap="round" stroke-linejoin="round" stroke-width="1"/>
      <rect id="Rectángulo_12648" data-name="Rectángulo 12648" width="103.127" height="138.129" transform="matrix(0.942, -0.336, 0.336, 0.942, 88.257, 44.817)" fill="#f6f6f6" stroke="#5e6178" stroke-linecap="round" stroke-linejoin="round" stroke-width="1"/>
      <rect id="Rectángulo_12649" data-name="Rectángulo 12649" width="103.127" height="50.887" transform="matrix(0.942, -0.336, 0.336, 0.942, 88.256, 44.803)" fill="#f6f6f6" stroke="#5e6178" stroke-linecap="round" stroke-linejoin="round" stroke-width="1"/>
      <circle id="Elipse_4513" data-name="Elipse 4513" cx="15.557" cy="15.557" r="15.557" transform="translate(153.988 30.727)" fill="#5e6178" stroke="#2e353a" stroke-linecap="round" stroke-linejoin="round" stroke-width="1"/>
      <path id="Trazado_127293" data-name="Trazado 127293" d="M6083.855,13473.19a15.509,15.509,0,0,0,9.394-9.328c-2.7-6.049-9.3-9.2-15.248-7.094s-9.058,8.744-7.324,15.132A15.534,15.534,0,0,0,6083.855,13473.19Z" transform="translate(-5909.094 -13412.233)" fill="#6595bf" stroke="#5e6178" stroke-linecap="round" stroke-linejoin="round" stroke-width="1"/>
      <circle id="Elipse_4514" data-name="Elipse 4514" cx="7.885" cy="7.885" r="7.885" transform="translate(157.414 42.734) rotate(-41.46)" fill="#6595bf" stroke="#5e6178" stroke-linecap="round" stroke-linejoin="round" stroke-width="1"/>
      <rect id="Rectángulo_12650" data-name="Rectángulo 12650" width="36.091" height="4.145" transform="matrix(0.942, -0.336, 0.336, 0.942, 102.873, 58.821)" fill="#6595bf" stroke="#5e6178" stroke-linecap="round" stroke-linejoin="round" stroke-width="1"/>
      <rect id="Rectángulo_12651" data-name="Rectángulo 12651" width="36.091" height="4.145" transform="matrix(0.942, -0.336, 0.336, 0.942, 106.239, 68.231)" fill="#6595bf" stroke="#5e6178" stroke-linecap="round" stroke-linejoin="round" stroke-width="1"/>
      <rect id="Rectángulo_12652" data-name="Rectángulo 12652" width="36.091" height="2.076" transform="matrix(0.942, -0.336, 0.336, 0.942, 109.016, 76.036)" fill="#5e6178"/>
      <rect id="Rectángulo_12653" data-name="Rectángulo 12653" width="36.091" height="2.076" transform="matrix(0.94, -0.34, 0.34, 0.94, 139.911, 47.49)" fill="#5e6178"/>
      <rect id="Rectángulo_12654" data-name="Rectángulo 12654" width="36.091" height="2.076" transform="matrix(0.942, -0.336, 0.336, 0.942, 119.168, 104.531)" fill="#5e6178"/>
      <rect id="Rectángulo_12655" data-name="Rectángulo 12655" width="36.091" height="2.076" transform="matrix(0.942, -0.336, 0.336, 0.942, 120.709, 108.852)" fill="#5e6178"/>
      <rect id="Rectángulo_12656" data-name="Rectángulo 12656" width="36.091" height="2.076" transform="matrix(0.942, -0.336, 0.336, 0.942, 122.229, 113.105)" fill="#5e6178"/>
      <rect id="Rectángulo_12657" data-name="Rectángulo 12657" width="36.091" height="2.076" transform="matrix(0.942, -0.336, 0.336, 0.942, 165.28, 88.094)" fill="#5e6178"/>
      <rect id="Rectángulo_12658" data-name="Rectángulo 12658" width="36.091" height="2.076" transform="matrix(0.942, -0.336, 0.336, 0.942, 166.822, 92.41)" fill="#5e6178"/>
      <rect id="Rectángulo_12659" data-name="Rectángulo 12659" width="36.091" height="2.076" transform="matrix(0.942, -0.336, 0.336, 0.942, 168.342, 96.669)" fill="#5e6178"/>
      <line id="Línea_702" data-name="Línea 702" y1="29.27" x2="82.065" transform="translate(116.995 71.685)" fill="none" stroke="#2e353a" stroke-linecap="round" stroke-linejoin="round" stroke-width="1" opacity="0"/>
      <rect id="Rectángulo_12660" data-name="Rectángulo 12660" width="36.091" height="2.076" transform="matrix(0.942, -0.336, 0.336, 0.942, 127.125, 126.834)" fill="#5e6178"/>
      <rect id="Rectángulo_12661" data-name="Rectángulo 12661" width="36.091" height="2.076" transform="matrix(0.942, -0.336, 0.336, 0.942, 128.632, 131.097)" fill="#5e6178"/>
      <rect id="Rectángulo_12662" data-name="Rectángulo 12662" width="36.091" height="2.076" transform="matrix(0.942, -0.336, 0.336, 0.942, 130.181, 135.41)" fill="#5e6178"/>
      <rect id="Rectángulo_12663" data-name="Rectángulo 12663" width="36.091" height="2.076" transform="matrix(0.94, -0.34, 0.34, 0.94, 202.481, 76.887)" fill="#5e6178"/>
      <rect id="Rectángulo_12664" data-name="Rectángulo 12664" width="36.091" height="2.076" transform="matrix(0.942, -0.336, 0.336, 0.942, 174.751, 114.658)" fill="#5e6178"/>
      <rect id="Rectángulo_12665" data-name="Rectángulo 12665" width="36.091" height="2.076" transform="matrix(0.942, -0.336, 0.336, 0.942, 176.287, 118.974)" fill="#5e6178"/>
      <line id="Línea_703" data-name="Línea 703" y1="29.205" x2="82.065" transform="translate(124.931 93.992)" fill="none" stroke="#2e353a" stroke-linecap="round" stroke-linejoin="round" stroke-width="1" opacity="0"/>
      <rect id="Rectángulo_12666" data-name="Rectángulo 12666" width="85.462" height="20.74" transform="matrix(0.942, -0.336, 0.336, 0.942, 132.837, 144.118)" fill="#5e6178" stroke="#2e353a" stroke-linecap="round" stroke-linejoin="round" stroke-width="1"/>
      <rect id="Rectángulo_12667" data-name="Rectángulo 12667" width="103.127" height="138.129" transform="matrix(0.919, -0.394, 0.394, 0.919, 77.9, 58.925)" fill="#f6f6f6" stroke="#5e6178" stroke-linecap="round" stroke-linejoin="round" stroke-width="1"/>
      <rect id="Rectángulo_12668" data-name="Rectángulo 12668" width="103.127" height="50.887" transform="matrix(0.919, -0.394, 0.394, 0.919, 77.903, 58.938)" fill="#f6f6f6" stroke="#5e6178" stroke-linecap="round" stroke-linejoin="round" stroke-width="1"/>
      <circle id="Elipse_4515" data-name="Elipse 4515" cx="15.557" cy="15.557" r="15.557" transform="translate(143.557 39.753)" fill="#5e6178" stroke="#2e353a" stroke-linecap="round" stroke-linejoin="round" stroke-width="1"/>
      <path id="Trazado_127294" data-name="Trazado 127294" d="M6068.931,13486.669a15.514,15.514,0,0,0,8.787-9.9c-3.068-5.861-9.857-8.6-15.653-6.112s-8.491,9.29-6.364,15.557a15.558,15.558,0,0,0,13.23.459Z" transform="translate(-5903.686 -13417.072)" fill="#6595bf" stroke="#5e6178" stroke-linecap="round" stroke-linejoin="round" stroke-width="1"/>
      <circle id="Elipse_4516" data-name="Elipse 4516" cx="7.885" cy="7.885" r="7.885" transform="matrix(0.731, -0.682, 0.682, 0.731, 146.779, 51.99)" fill="#6595bf" stroke="#5e6178" stroke-linecap="round" stroke-linejoin="round" stroke-width="1"/>
      <rect id="Rectángulo_12669" data-name="Rectángulo 12669" width="36.091" height="4.145" transform="matrix(0.919, -0.394, 0.394, 0.919, 93.374, 72.011)" fill="#6595bf" stroke="#5e6178" stroke-linecap="round" stroke-linejoin="round" stroke-width="1"/>
      <rect id="Rectángulo_12670" data-name="Rectángulo 12670" width="36.091" height="4.145" transform="matrix(0.919, -0.394, 0.394, 0.919, 97.276, 81.107)" fill="#6595bf" stroke="#5e6178" stroke-linecap="round" stroke-linejoin="round" stroke-width="1"/>
      <rect id="Rectángulo_12671" data-name="Rectángulo 12671" width="36.091" height="2.076" transform="matrix(0.919, -0.394, 0.394, 0.919, 100.558, 88.759)" fill="#5e6178"/>
      <rect id="Rectángulo_12672" data-name="Rectángulo 12672" width="36.091" height="2.076" transform="matrix(0.919, -0.394, 0.394, 0.919, 102.519, 93.335)" fill="#5e6178"/>
      <rect id="Rectángulo_12673" data-name="Rectángulo 12673" width="36.091" height="2.076" transform="matrix(0.919, -0.394, 0.394, 0.919, 112.508, 116.607)" fill="#5e6178"/>
      <rect id="Rectángulo_12674" data-name="Rectángulo 12674" width="36.091" height="2.076" transform="matrix(0.919, -0.394, 0.394, 0.919, 114.304, 120.794)" fill="#5e6178"/>
      <rect id="Rectángulo_12675" data-name="Rectángulo 12675" width="36.091" height="2.076" transform="matrix(0.919, -0.394, 0.394, 0.919, 116.095, 124.991)" fill="#5e6178"/>
      <rect id="Rectángulo_12676" data-name="Rectángulo 12676" width="36.091" height="2.076" transform="matrix(0.919, -0.394, 0.394, 0.919, 157.489, 97.327)" fill="#5e6178"/>
      <rect id="Rectángulo_12677" data-name="Rectángulo 12677" width="36.091" height="2.076" transform="matrix(0.919, -0.394, 0.394, 0.919, 159.292, 101.52)" fill="#5e6178"/>
      <rect id="Rectángulo_12678" data-name="Rectángulo 12678" width="36.091" height="2.076" transform="matrix(0.919, -0.394, 0.394, 0.919, 161.094, 105.712)" fill="#5e6178"/>
      <line id="Línea_704" data-name="Línea 704" y1="34.298" x2="80.073" transform="translate(110.097 78.777)" fill="none" stroke="#2e353a" stroke-linecap="round" stroke-linejoin="round" stroke-width="1" opacity="0"/>
      <rect id="Rectángulo_12679" data-name="Rectángulo 12679" width="36.091" height="2.076" transform="matrix(0.919, -0.394, 0.394, 0.919, 121.819, 138.333)" fill="#5e6178"/>
      <rect id="Rectángulo_12680" data-name="Rectángulo 12680" width="36.091" height="2.076" transform="matrix(0.919, -0.394, 0.394, 0.919, 123.622, 142.527)" fill="#5e6178"/>
      <rect id="Rectángulo_12681" data-name="Rectángulo 12681" width="36.091" height="2.076" transform="matrix(0.919, -0.394, 0.394, 0.919, 125.418, 146.713)" fill="#5e6178"/>
      <rect id="Rectángulo_12682" data-name="Rectángulo 12682" width="36.091" height="2.076" transform="matrix(0.919, -0.394, 0.394, 0.919, 166.819, 119.054)" fill="#5e6178"/>
      <rect id="Rectángulo_12683" data-name="Rectángulo 12683" width="36.091" height="2.076" transform="matrix(0.919, -0.394, 0.394, 0.919, 168.615, 123.249)" fill="#5e6178"/>
      <rect id="Rectángulo_12684" data-name="Rectángulo 12684" width="36.091" height="2.076" transform="matrix(0.919, -0.394, 0.394, 0.919, 170.399, 127.439)" fill="#5e6178"/>
      <line id="Línea_705" data-name="Línea 705" y1="34.298" x2="80.073" transform="translate(119.412 100.503)" fill="none" stroke="#2e353a" stroke-linecap="round" stroke-linejoin="round" stroke-width="1" opacity="0"/>
      <rect id="Rectángulo_12685" data-name="Rectángulo 12685" width="85.462" height="20.74" transform="matrix(0.919, -0.394, 0.394, 0.919, 128.625, 155.266)" fill="#5e6178" stroke="#2e353a" stroke-linecap="round" stroke-linejoin="round" stroke-width="1"/>
      <rect id="Rectángulo_12686" data-name="Rectángulo 12686" width="103.127" height="138.129" transform="matrix(0.839, -0.544, 0.544, 0.839, 64.502, 73.588)" fill="#f6f6f6" stroke="#5e6178" stroke-linecap="round" stroke-linejoin="round" stroke-width="1"/>
      <rect id="Rectángulo_12687" data-name="Rectángulo 12687" width="103.127" height="50.887" transform="matrix(0.839, -0.544, 0.544, 0.839, 64.498, 73.582)" fill="#f6f6f6" stroke="#5e6178" stroke-linecap="round" stroke-linejoin="round" stroke-width="1"/>
      <circle id="Elipse_4517" data-name="Elipse 4517" cx="15.557" cy="15.557" r="15.557" transform="translate(128.368 40.655)" fill="#5e6178" stroke="#2e353a" stroke-linecap="round" stroke-linejoin="round" stroke-width="1"/>
      <path id="Trazado_127295" data-name="Trazado 127295" d="M6048.567,13486.337a15.511,15.511,0,0,0,6.982-11.25c-4.023-5.262-11.179-6.8-16.466-3.366s-6.795,10.6-3.63,16.414A15.522,15.522,0,0,0,6048.567,13486.337Z" transform="translate(-5896.165 -13417.127)" fill="#78b62e" stroke="#2e353a" stroke-linecap="round" stroke-linejoin="round" stroke-width="1"/>
      <circle id="Elipse_4518" data-name="Elipse 4518" cx="7.885" cy="7.885" r="7.885" transform="translate(134.357 45.684)" fill="#6595bf" stroke="#5e6178" stroke-linecap="round" stroke-linejoin="round" stroke-width="1"/>
      <rect id="Rectángulo_12688" data-name="Rectángulo 12688" width="36.091" height="4.145" transform="matrix(0.839, -0.544, 0.544, 0.839, 81.977, 83.86)" fill="#78b62e" stroke="#5e6178" stroke-linecap="round" stroke-linejoin="round" stroke-width="1"/>
      <rect id="Rectángulo_12689" data-name="Rectángulo 12689" width="36.091" height="4.145" transform="matrix(0.839, -0.544, 0.544, 0.839, 87.373, 92.187)" fill="#78b62e" stroke="#5e6178" stroke-linecap="round" stroke-linejoin="round" stroke-width="1"/>
      <rect id="Rectángulo_12690" data-name="Rectángulo 12690" width="36.039" height="2.076" transform="translate(91.773 99.111) rotate(-32.74)" fill="#5e6178"/>
      <rect id="Rectángulo_12691" data-name="Rectángulo 12691" width="36.091" height="2.076" transform="matrix(0.839, -0.544, 0.544, 0.839, 94.641, 103.351)" fill="#5e6178"/>
      <rect id="Rectángulo_12692" data-name="Rectángulo 12692" width="36.091" height="2.076" transform="matrix(0.839, -0.544, 0.544, 0.839, 108.411, 124.569)" fill="#5e6178"/>
      <rect id="Rectángulo_12693" data-name="Rectángulo 12693" width="36.091" height="2.076" transform="matrix(0.839, -0.544, 0.544, 0.839, 110.88, 128.376)" fill="#5e6178"/>
      <rect id="Rectángulo_12694" data-name="Rectángulo 12694" width="36.091" height="2.076" transform="matrix(0.839, -0.544, 0.544, 0.839, 113.385, 132.243)" fill="#5e6178"/>
      <rect id="Rectángulo_12695" data-name="Rectángulo 12695" width="36.091" height="2.076" transform="matrix(0.839, -0.544, 0.544, 0.839, 149.453, 97.882)" fill="#5e6178"/>
      <rect id="Rectángulo_12696" data-name="Rectángulo 12696" width="36.091" height="2.076" transform="matrix(0.839, -0.544, 0.544, 0.839, 151.963, 101.744)" fill="#5e6178"/>
      <rect id="Rectángulo_12697" data-name="Rectángulo 12697" width="36.091" height="2.076" transform="matrix(0.839, -0.544, 0.544, 0.839, 154.433, 105.553)" fill="#5e6178"/>
      <line id="Línea_706" data-name="Línea 706" y1="47.45" x2="73.071" transform="translate(105.455 74.006)" fill="none" stroke="#2e353a" stroke-linecap="round" stroke-linejoin="round" stroke-width="1" opacity="0"/>
      <rect id="Rectángulo_12698" data-name="Rectángulo 12698" width="36.091" height="2.076" transform="matrix(0.839, -0.544, 0.544, 0.839, 121.298, 144.423)" fill="#5e6178"/>
      <rect id="Rectángulo_12699" data-name="Rectángulo 12699" width="36.091" height="2.076" transform="matrix(0.839, -0.544, 0.544, 0.839, 123.768, 148.228)" fill="#5e6178"/>
      <rect id="Rectángulo_12700" data-name="Rectángulo 12700" width="36.091" height="2.076" transform="matrix(0.839, -0.544, 0.544, 0.839, 126.244, 152.037)" fill="#5e6178"/>
      <rect id="Rectángulo_12701" data-name="Rectángulo 12701" width="36.091" height="2.076" transform="matrix(0.839, -0.544, 0.544, 0.839, 162.335, 117.739)" fill="#5e6178"/>
      <rect id="Rectángulo_12702" data-name="Rectángulo 12702" width="36.091" height="2.076" transform="matrix(0.839, -0.544, 0.544, 0.839, 164.81, 121.548)" fill="#5e6178"/>
      <rect id="Rectángulo_12703" data-name="Rectángulo 12703" width="36.091" height="2.076" transform="matrix(0.839, -0.544, 0.544, 0.839, 167.31, 125.41)" fill="#5e6178"/>
      <line id="Línea_707" data-name="Línea 707" y1="47.45" x2="73.071" transform="translate(118.33 93.863)" fill="none" stroke="#2e353a" stroke-linecap="round" stroke-linejoin="round" stroke-width="1" opacity="0"/>
      <rect id="Rectángulo_12704" data-name="Rectángulo 12704" width="85.462" height="20.74" transform="matrix(0.839, -0.544, 0.544, 0.839, 130.889, 159.948)" fill="#5e6178" stroke="#2e353a" stroke-linecap="round" stroke-linejoin="round" stroke-width="1"/>
      <path id="Trazado_127296" data-name="Trazado 127296" d="M5877.332,13470.138l-45.852-35.5,27.284,51.184c.645,1.237-1.064,1.471-2.805.374h0c-1.76-1.1-3.494-.857-2.8.394l14.151,25.724a3.214,3.214,0,0,0,.871.935l6.911,5.21a3.013,3.013,0,0,1,.883.961l28.631,54.381,49.52,36.516Z" transform="translate(-5824.279 -13404.604)" fill="#1e4369" stroke="#2e353a" stroke-linecap="round" stroke-linejoin="round" stroke-width="1"/>
    </g>
  </g>
</svg>
