<svg xmlns="http://www.w3.org/2000/svg" width="153" height="153" viewBox="0 0 153 153">
  <g id="Grupo_134252" data-name="Grupo 134252" transform="translate(-1215 -8977)">
    <g id="O8TOvX" transform="translate(1226.287 8988.287)">
      <g id="Grupo_134250" data-name="Grupo 134250" transform="translate(0 0)">
        <path id="Trazado_147547" data-name="Trazado 147547" d="M1421.541,95.15c-1.185,4.347-2.337,8.539-3.455,12.74a1.684,1.684,0,0,0,.117,1.092,10.46,10.46,0,0,1-9.371,15.08c-.13,0-.258.03-.477.056-.112.376-.248.775-.352,1.184a22.858,22.858,0,0,1-10.171,14.067c-.738.472-1.052.873-.774,1.765a15.216,15.216,0,0,1,.593,2.946,1.563,1.563,0,0,0,1.485,1.616c1.752.313,3.476.786,5.376,1.23-.3-8.35,2.592-15.206,9.184-20.286a22.353,22.353,0,0,1,15.325-4.64,23.087,23.087,0,0,1,2.641,45.753c.639,2.777,1.479,5.527,1.862,8.34.386,2.831.317,5.725.452,8.679H1337.57c-1.8-18.487,9.593-32.9,25.118-36.852,3.168-.808,6.354-1.551,9.546-2.252.849-.186,1.283-.513,1.382-1.405a15.278,15.278,0,0,1,.582-2.948,1.477,1.477,0,0,0-.8-1.992,23.1,23.1,0,0,1-10.4-15.16c-.762-.1-1.539-.166-2.3-.308a10.42,10.42,0,0,1-7.75-14.335,3.446,3.446,0,0,0,.145-1.968c-.415-1.826-1.03-3.608-1.439-5.434-.205-.915-.6-1.144-1.5-1.139-8.166.036-16.331.022-24.5.02-3.417,0-5-1.558-5-4.933q0-18.144,0-36.288c0-3.282,1.616-4.895,4.9-4.895q22.336,0,44.67,0c3.37,0,4.927,1.581,4.929,5,0,4.363,0,8.726,0,13.28,1.756-.621,3.382-1.2,5.009-1.772,10.891-3.859,20.313-1.632,28.238,6.812a3.174,3.174,0,0,0,.439.322,20.968,20.968,0,0,1,37.014-15.961,20.857,20.857,0,0,1,1.448,24.553,20.92,20.92,0,0,1-25.774,8.034ZM1366.995,106.8c0,5.285-.448,10.513.1,15.636,1.041,9.813,9.941,16.87,19.8,16.266a18.972,18.972,0,0,0,17.608-18.6c.066-6.108.038-12.217.008-18.326a6.925,6.925,0,0,0-7.151-7.073c-5.568-.043-10.484,1.886-15.088,4.842C1377.452,102.638,1372.538,105.53,1366.995,106.8Zm-10.435-2.273c1.972-.518,3.675-1.318,5.39-1.343a21.593,21.593,0,0,0,9.542-2.42c3.571-1.807,7.008-3.889,10.464-5.916a29.873,29.873,0,0,1,15.683-4.327,11.03,11.03,0,0,1,10.851,9.168c.193,1.1.218,2.231.3,3.094l5.934,1.766a40.957,40.957,0,0,0,2.335-11.154c.191-4.43-2.716-7.445-7.136-7.635a2.329,2.329,0,0,1-1.475-.764c-1-1.151-1.859-2.421-2.814-3.612a20.294,20.294,0,0,0-21.783-6.763c-7.37,2.4-14.658,5.071-21.906,7.826a12.037,12.037,0,0,0-7.633,12.742C1354.808,98.4,1355.819,101.524,1356.56,104.527Zm-31.647-7.866h25.29l-.258-4.071h-16.635V80.016h8.369v-8.4h8.354V63.362h12.586V77.678c2.66-.953,5.206-1.837,7.719-2.8a1.367,1.367,0,0,0,.61-1.052c.055-2.356.028-4.713.028-7.07,0-2.519,0-5.038,0-7.606h-46.062Zm101.924,63.059a23.543,23.543,0,0,1,1.853,2.824c.547,1.174,1.351,1.226,2.434,1,10.324-2.115,17.113-12.251,14.926-22.319a18.87,18.87,0,0,0-37.316,5,2.111,2.111,0,0,0,1.711,2.276,31.791,31.791,0,0,1,13.991,8.612,3.908,3.908,0,0,1,.528,1.158l.511-.465a6.247,6.247,0,0,1,0-.78,2.321,2.321,0,0,0-1.36-2.687,6.285,6.285,0,0,1-2.643-7.161h3.872c.544,4.065,1.109,4.586,4.232,3.963.315-3.178.055-3.526-3.062-4.115a6.026,6.026,0,0,1-5.091-5.124,72.779,72.779,0,0,1-.053-7.415h4.132v-4.066h4.161c0,1.25-.058,2.426.031,3.59a1.708,1.708,0,0,0,.659,1.19,6.646,6.646,0,0,1,3.335,7.619h-3.972c-.221-3.909-.828-4.476-4.133-3.958-.4,3.1-.047,3.578,3,4.132a6.137,6.137,0,0,1,5.177,5.353c.2,2.327.041,4.684.041,7.17h-4.187v4.2ZM1341.6,180.581h37.8a5.2,5.2,0,0,0-.271-.538q-9.049-13.158-18.088-26.322c-.416-.608-.776-.634-1.4-.371a28.649,28.649,0,0,0-8.165,5.122A29.245,29.245,0,0,0,1341.6,180.581Zm88.015.008a29.122,29.122,0,0,0-18.094-27.3c-.867-.353-1.073.185-1.41.674q-8.8,12.774-17.588,25.551c-.211.308-.391.637-.661,1.076Zm5.279-98.5a18.925,18.925,0,0,0,.205-11.83,1.312,1.312,0,0,0-1-.674q-4.445-.08-8.893,0a1.2,1.2,0,0,0-.934.594,18.77,18.77,0,0,0,.181,11.914Zm-42.007,59.631a22.826,22.826,0,0,1-14.484.031c-.282,1.355-.568,2.535-.748,3.732a1.125,1.125,0,0,0,.438.908c2.292,1.424,4.6,2.82,6.944,4.159a1.512,1.512,0,0,0,1.271-.024c2.3-1.318,4.578-2.691,6.835-4.088a1.156,1.156,0,0,0,.515-.879C1393.472,144.322,1393.174,143.1,1392.884,141.721Zm13.656,10.01c-3.286-.782-6.289-1.508-9.3-2.2a1.717,1.717,0,0,0-1.126.069c-2.06,1.184-4.087,2.426-6.311,3.761l11.211,6.408Zm-25.047,1.628c-2.184-1.312-4.115-2.49-6.071-3.627a1.686,1.686,0,0,0-1.094-.239c-3.127.7-6.243,1.449-9.573,2.234l5.524,8.046Zm4.163,14.72a6.2,6.2,0,0,1-1.173-.012c-1.212-.238-1.669.365-1.935,1.454-.39,1.6-.971,3.159-1.354,4.762a2.4,2.4,0,0,0,.242,1.64,43.833,43.833,0,0,0,2.733,3.977,2.629,2.629,0,0,0,1.343.736c.819.228,1.343-.19,1.789-.908.961-1.549,2.509-2.928,2.882-4.587.309-1.377-.709-3.057-1.16-4.6C1388.3,168.077,1388.292,168.08,1385.657,168.08Zm34.384-98.523c-1.883,0-3.58-.036-5.274.032a1.248,1.248,0,0,0-.862.71,15.4,15.4,0,0,0,.035,11.111,1.253,1.253,0,0,0,.881.689c1.693.068,3.389.032,5.207.032A24.077,24.077,0,0,1,1420.04,69.556Zm19.255,0a24.084,24.084,0,0,1,.007,12.574c1.861,0,3.6.03,5.337-.031a1.131,1.131,0,0,0,.772-.654,15.619,15.619,0,0,0,.019-11.124,1.359,1.359,0,0,0-.974-.731C1442.806,69.514,1441.15,69.555,1439.295,69.555Zm-30.521,37.788v12.463a6.232,6.232,0,1,0,0-12.463Zm-46.258,12.465V107.344a6.232,6.232,0,0,0,0,12.464Zm17.635,39.165c2.237,5.034,2.237,5.034,7.514,4.914a1.106,1.106,0,0,0,.389-.011c.258-.111.609-.2.727-.408.828-1.458,1.606-2.944,2.424-4.465-1.759-1.008-3.37-1.958-5.016-2.844a1.309,1.309,0,0,0-1.068-.009C1383.442,157.056,1381.8,158.029,1380.151,158.973Zm-25.886-76.136A8.867,8.867,0,0,1,1356,81.27c2.385-1.126,2.567-3.087,2.437-5.384-.156-2.767-.037-5.552-.037-8.336h-4.132Zm-8.356-6.933V88.318h4.036V75.9Zm31.907,94.816c.394-1.259.715-2.194.97-3.146.143-.531.408-1.2.215-1.619-.756-1.643-1.673-3.212-2.564-4.873l-3.759,2.176Zm15.842-.261,4.964-7.22-3.652-2.086C1392.966,164.06,1391.072,166.864,1393.659,170.459Zm36-78.7,3.515-5.365h-7.055Zm-.006-31.828-3.466,5.315h7.014Zm12.961,5.3a16.527,16.527,0,0,0-7.785-5.3,10.154,10.154,0,0,1,1.253,2.125c.9,3.331,3.274,3.749,6.157,3.274C1442.283,65.333,1442.323,65.318,1442.618,65.235Zm-18.231-5.283a16.847,16.847,0,0,0-7.766,5.41c1.657,0,3,.027,4.332-.023a1.117,1.117,0,0,0,.792-.486C1422.619,63.3,1423.439,61.726,1424.387,59.951Zm18.358,26.375c-1.68,0-3.018-.027-4.352.022a1.118,1.118,0,0,0-.8.476c-.878,1.55-1.7,3.131-2.631,4.872A16.784,16.784,0,0,0,1442.745,86.327ZM1337.53,84.285v4.03h4.027v-4.03Zm81.927,2.149c.492,1.19.733,2.551,1.513,3.439s2.093,1.288,3.172,1.9c-.505-1.467-1.305-2.582-1.792-3.819C1421.791,86.536,1420.966,85.973,1419.457,86.435Z" transform="translate(-1320.648 -54.881)" fill="#3c6d9d"/>
        <path id="Trazado_147548" data-name="Trazado 147548" d="M1334.44,162.906c-3.647-3.042-7.21-5.93-10.676-8.928a8.534,8.534,0,0,1-1.692-11.312,8.884,8.884,0,0,1,11.27-3.124,2.255,2.255,0,0,0,2.242-.029,8.892,8.892,0,0,1,11.178,3.106,8.529,8.529,0,0,1-1.619,11.322C1341.654,156.969,1338.063,159.879,1334.44,162.906Zm.086-17.3c-.683-.719-1.114-1.211-1.584-1.662a5.055,5.055,0,0,0-7.071.221,4.676,4.676,0,0,0,.481,6.865c1.548,1.336,3.14,2.622,4.711,3.931l3.377,2.814c2.725-2.271,5.344-4.43,7.937-6.619a4.707,4.707,0,0,0,.663-6.946,5.033,5.033,0,0,0-7.155-.216A18.863,18.863,0,0,0,1334.526,145.607Z" transform="translate(-1320.646 -59.958)" fill="#3c6d9d"/>
        <path id="Trazado_147549" data-name="Trazado 147549" d="M1399.684,128.247c-2.166,4.259-5.427,6.619-10.1,6.675-4.788.057-8.117-2.33-10.388-6.644l3.494-1.778c1.418,2.741,3.534,4.5,6.743,4.5,3.165,0,5.3-1.651,6.744-4.507Z" transform="translate(-1324.352 -59.93)" fill="#3c6d9d"/>
        <path id="Trazado_147550" data-name="Trazado 147550" d="M1381.231,118.035a1.957,1.957,0,1,1-1.943-1.971A1.981,1.981,0,0,1,1381.231,118.035Z" transform="translate(-1324.777 -59.338)" fill="#3c6d9d"/>
        <path id="Trazado_147551" data-name="Trazado 147551" d="M1401.964,119.979a1.958,1.958,0,1,1,1.923-1.993A1.978,1.978,0,0,1,1401.964,119.979Z" transform="translate(-1326.429 -59.338)" fill="#3c6d9d"/>
      </g>
    </g>
    <rect id="Rectángulo_35774" data-name="Rectángulo 35774" width="153" height="153" transform="translate(1215 8977)" fill="none"/>
  </g>
</svg>
