<svg xmlns="http://www.w3.org/2000/svg" width="313" height="163" viewBox="0 0 313 163">
  <g id="Grupo_134894" data-name="Grupo 134894" transform="translate(-2036 10743)">
    <g id="Grupo_134112" data-name="Grupo 134112" transform="translate(1605 -11679)">
      <path id="Rectángulo_34846" data-name="Rectángulo 34846" d="M0,0H271a42,42,0,0,1,42,42V163a0,0,0,0,1,0,0H42A42,42,0,0,1,0,121V0A0,0,0,0,1,0,0Z" transform="translate(431 936)" fill="#3c6d9d"/>
      <path id="Trazado_145971" data-name="Trazado 145971" d="M8.18,0A8.18,8.18,0,1,1,0,8.18,8.18,8.18,0,0,1,8.18,0Z" transform="translate(465.317 1062.538)" fill="#64b5f6" opacity="0.444" style="mix-blend-mode: multiply;isolation: isolate"/>
      <g id="Grupo_78276" data-name="Grupo 78276" transform="translate(669.437 1030.84)">
        <g id="Grupo_53306" data-name="Grupo 53306" transform="translate(0)">
          <path id="Trazado_99200" data-name="Trazado 99200" d="M415.5,50.837a.642.642,0,1,1-.642-.613A.628.628,0,0,1,415.5,50.837Z" transform="translate(-414.214 -50.224)" fill="#fff"/>
          <path id="Trazado_99200_-_Contorno" data-name="Trazado 99200 - Contorno" d="M414.855,49.724a1.113,1.113,0,1,1-1.141,1.113A1.129,1.129,0,0,1,414.855,49.724Z" transform="translate(-414.214 -50.224)" fill="#fff"/>
          <path id="Trazado_99201" data-name="Trazado 99201" d="M423.942,50.837a.642.642,0,1,1-.641-.613A.627.627,0,0,1,423.942,50.837Z" transform="translate(-416.89 -50.224)" fill="#fff"/>
          <path id="Trazado_99201_-_Contorno" data-name="Trazado 99201 - Contorno" d="M423.3,49.724a1.113,1.113,0,1,1-1.141,1.113A1.128,1.128,0,0,1,423.3,49.724Z" transform="translate(-416.89 -50.224)" fill="#fff"/>
          <path id="Trazado_99202" data-name="Trazado 99202" d="M432.388,50.837a.642.642,0,1,1-.641-.613A.627.627,0,0,1,432.388,50.837Z" transform="translate(-419.566 -50.224)" fill="#fff"/>
          <path id="Trazado_99202_-_Contorno" data-name="Trazado 99202 - Contorno" d="M431.747,49.724a1.113,1.113,0,1,1-1.142,1.113A1.128,1.128,0,0,1,431.747,49.724Z" transform="translate(-419.566 -50.224)" fill="#fff"/>
          <path id="Trazado_99203" data-name="Trazado 99203" d="M440.835,50.837a.642.642,0,1,1-.641-.613A.628.628,0,0,1,440.835,50.837Z" transform="translate(-422.243 -50.224)" fill="#fff"/>
          <path id="Trazado_99203_-_Contorno" data-name="Trazado 99203 - Contorno" d="M440.194,49.724a1.113,1.113,0,1,1-1.141,1.113A1.129,1.129,0,0,1,440.194,49.724Z" transform="translate(-422.243 -50.224)" fill="#fff"/>
          <path id="Trazado_99204" data-name="Trazado 99204" d="M449.281,50.837a.642.642,0,1,1-.641-.613A.627.627,0,0,1,449.281,50.837Z" transform="translate(-424.919 -50.224)" fill="#fff"/>
          <path id="Trazado_99204_-_Contorno" data-name="Trazado 99204 - Contorno" d="M448.64,49.724a1.113,1.113,0,1,1-1.141,1.113A1.128,1.128,0,0,1,448.64,49.724Z" transform="translate(-424.919 -50.224)" fill="#fff"/>
          <path id="Trazado_99205" data-name="Trazado 99205" d="M457.727,50.837a.642.642,0,1,1-.641-.613A.627.627,0,0,1,457.727,50.837Z" transform="translate(-427.595 -50.224)" fill="#fff"/>
          <path id="Trazado_99205_-_Contorno" data-name="Trazado 99205 - Contorno" d="M457.086,49.724a1.113,1.113,0,1,1-1.141,1.113A1.128,1.128,0,0,1,457.086,49.724Z" transform="translate(-427.595 -50.224)" fill="#fff"/>
          <path id="Trazado_99206" data-name="Trazado 99206" d="M466.174,50.837a.642.642,0,1,1-.641-.613A.628.628,0,0,1,466.174,50.837Z" transform="translate(-430.272 -50.224)" fill="#fff"/>
          <path id="Trazado_99206_-_Contorno" data-name="Trazado 99206 - Contorno" d="M465.533,49.724a1.113,1.113,0,1,1-1.141,1.113A1.129,1.129,0,0,1,465.533,49.724Z" transform="translate(-430.272 -50.224)" fill="#fff"/>
          <path id="Trazado_99207" data-name="Trazado 99207" d="M474.62,50.837a.642.642,0,1,1-.641-.613A.627.627,0,0,1,474.62,50.837Z" transform="translate(-432.948 -50.224)" fill="#fff"/>
          <path id="Trazado_99207_-_Contorno" data-name="Trazado 99207 - Contorno" d="M473.98,49.724a1.113,1.113,0,1,1-1.141,1.113A1.128,1.128,0,0,1,473.98,49.724Z" transform="translate(-432.948 -50.224)" fill="#fff"/>
          <path id="Trazado_99208" data-name="Trazado 99208" d="M483.066,50.837a.642.642,0,1,1-.641-.613A.627.627,0,0,1,483.066,50.837Z" transform="translate(-435.624 -50.224)" fill="#fff"/>
          <path id="Trazado_99208_-_Contorno" data-name="Trazado 99208 - Contorno" d="M482.425,49.724a1.113,1.113,0,1,1-1.142,1.113A1.128,1.128,0,0,1,482.425,49.724Z" transform="translate(-435.624 -50.224)" fill="#fff"/>
          <path id="Trazado_99209" data-name="Trazado 99209" d="M491.513,50.837a.642.642,0,1,1-.641-.613A.628.628,0,0,1,491.513,50.837Z" transform="translate(-438.301 -50.224)" fill="#fff"/>
          <path id="Trazado_99209_-_Contorno" data-name="Trazado 99209 - Contorno" d="M490.872,49.724a1.113,1.113,0,1,1-1.141,1.113A1.129,1.129,0,0,1,490.872,49.724Z" transform="translate(-438.301 -50.224)" fill="#fff"/>
          <path id="Trazado_99210" data-name="Trazado 99210" d="M499.959,50.837a.642.642,0,1,1-.641-.613A.628.628,0,0,1,499.959,50.837Z" transform="translate(-440.977 -50.224)" fill="#fff"/>
          <path id="Trazado_99210_-_Contorno" data-name="Trazado 99210 - Contorno" d="M499.318,49.724a1.113,1.113,0,1,1-1.141,1.113A1.129,1.129,0,0,1,499.318,49.724Z" transform="translate(-440.977 -50.224)" fill="#fff"/>
        </g>
        <g id="Grupo_53307" data-name="Grupo 53307" transform="translate(0 4.905)">
          <path id="Trazado_99211" data-name="Trazado 99211" d="M415.5,58.345a.642.642,0,1,1-.642-.613A.628.628,0,0,1,415.5,58.345Z" transform="translate(-414.214 -57.732)" fill="#fff"/>
          <path id="Trazado_99211_-_Contorno" data-name="Trazado 99211 - Contorno" d="M414.855,57.232a1.113,1.113,0,1,1-1.141,1.113A1.129,1.129,0,0,1,414.855,57.232Z" transform="translate(-414.214 -57.732)" fill="#fff"/>
          <path id="Trazado_99212" data-name="Trazado 99212" d="M423.942,58.345a.642.642,0,1,1-.641-.613A.627.627,0,0,1,423.942,58.345Z" transform="translate(-416.89 -57.732)" fill="#fff"/>
          <path id="Trazado_99212_-_Contorno" data-name="Trazado 99212 - Contorno" d="M423.3,57.232a1.113,1.113,0,1,1-1.141,1.113A1.128,1.128,0,0,1,423.3,57.232Z" transform="translate(-416.89 -57.732)" fill="#fff"/>
          <path id="Trazado_99213" data-name="Trazado 99213" d="M432.388,58.345a.642.642,0,1,1-.641-.613A.627.627,0,0,1,432.388,58.345Z" transform="translate(-419.566 -57.732)" fill="#fff"/>
          <path id="Trazado_99213_-_Contorno" data-name="Trazado 99213 - Contorno" d="M431.747,57.232a1.113,1.113,0,1,1-1.142,1.113A1.128,1.128,0,0,1,431.747,57.232Z" transform="translate(-419.566 -57.732)" fill="#fff"/>
          <path id="Trazado_99214" data-name="Trazado 99214" d="M440.835,58.345a.642.642,0,1,1-.641-.613A.628.628,0,0,1,440.835,58.345Z" transform="translate(-422.243 -57.732)" fill="#fff"/>
          <path id="Trazado_99214_-_Contorno" data-name="Trazado 99214 - Contorno" d="M440.194,57.232a1.113,1.113,0,1,1-1.141,1.113A1.129,1.129,0,0,1,440.194,57.232Z" transform="translate(-422.243 -57.732)" fill="#fff"/>
          <path id="Trazado_99215" data-name="Trazado 99215" d="M449.281,58.345a.642.642,0,1,1-.641-.613A.627.627,0,0,1,449.281,58.345Z" transform="translate(-424.919 -57.732)" fill="#fff"/>
          <path id="Trazado_99215_-_Contorno" data-name="Trazado 99215 - Contorno" d="M448.64,57.232a1.113,1.113,0,1,1-1.141,1.113A1.128,1.128,0,0,1,448.64,57.232Z" transform="translate(-424.919 -57.732)" fill="#fff"/>
          <path id="Trazado_99216" data-name="Trazado 99216" d="M457.727,58.345a.642.642,0,1,1-.641-.613A.627.627,0,0,1,457.727,58.345Z" transform="translate(-427.595 -57.732)" fill="#fff"/>
          <path id="Trazado_99216_-_Contorno" data-name="Trazado 99216 - Contorno" d="M457.086,57.232a1.113,1.113,0,1,1-1.141,1.113A1.128,1.128,0,0,1,457.086,57.232Z" transform="translate(-427.595 -57.732)" fill="#fff"/>
          <path id="Trazado_99217" data-name="Trazado 99217" d="M466.174,58.345a.642.642,0,1,1-.641-.613A.628.628,0,0,1,466.174,58.345Z" transform="translate(-430.272 -57.732)" fill="#fff"/>
          <path id="Trazado_99217_-_Contorno" data-name="Trazado 99217 - Contorno" d="M465.533,57.232a1.113,1.113,0,1,1-1.141,1.113A1.129,1.129,0,0,1,465.533,57.232Z" transform="translate(-430.272 -57.732)" fill="#fff"/>
          <path id="Trazado_99218" data-name="Trazado 99218" d="M474.62,58.345a.642.642,0,1,1-.641-.613A.627.627,0,0,1,474.62,58.345Z" transform="translate(-432.948 -57.732)" fill="#fff"/>
          <path id="Trazado_99218_-_Contorno" data-name="Trazado 99218 - Contorno" d="M473.98,57.232a1.113,1.113,0,1,1-1.141,1.113A1.128,1.128,0,0,1,473.98,57.232Z" transform="translate(-432.948 -57.732)" fill="#fff"/>
          <path id="Trazado_99219" data-name="Trazado 99219" d="M483.066,58.345a.642.642,0,1,1-.641-.613A.627.627,0,0,1,483.066,58.345Z" transform="translate(-435.624 -57.732)" fill="#fff"/>
          <path id="Trazado_99219_-_Contorno" data-name="Trazado 99219 - Contorno" d="M482.425,57.232a1.113,1.113,0,1,1-1.142,1.113A1.128,1.128,0,0,1,482.425,57.232Z" transform="translate(-435.624 -57.732)" fill="#fff"/>
          <path id="Trazado_99220" data-name="Trazado 99220" d="M491.513,58.345a.642.642,0,1,1-.641-.613A.628.628,0,0,1,491.513,58.345Z" transform="translate(-438.301 -57.732)" fill="#fff"/>
          <path id="Trazado_99220_-_Contorno" data-name="Trazado 99220 - Contorno" d="M490.872,57.232a1.113,1.113,0,1,1-1.141,1.113A1.129,1.129,0,0,1,490.872,57.232Z" transform="translate(-438.301 -57.732)" fill="#fff"/>
          <path id="Trazado_99221" data-name="Trazado 99221" d="M499.959,58.345a.642.642,0,1,1-.641-.613A.628.628,0,0,1,499.959,58.345Z" transform="translate(-440.977 -57.732)" fill="#fff"/>
          <path id="Trazado_99221_-_Contorno" data-name="Trazado 99221 - Contorno" d="M499.318,57.232a1.113,1.113,0,1,1-1.141,1.113A1.129,1.129,0,0,1,499.318,57.232Z" transform="translate(-440.977 -57.732)" fill="#fff"/>
        </g>
        <g id="Grupo_53308" data-name="Grupo 53308" transform="translate(0 9.81)">
          <ellipse id="Elipse_3955" data-name="Elipse 3955" cx="0.641" cy="0.613" rx="0.641" ry="0.613" fill="#fff"/>
          <path id="Elipse_3955_-_Contorno" data-name="Elipse 3955 - Contorno" d="M.641-.5A1.129,1.129,0,0,1,1.782.613,1.129,1.129,0,0,1,.641,1.726,1.129,1.129,0,0,1-.5.613,1.129,1.129,0,0,1,.641-.5Z" fill="#fff"/>
          <path id="Trazado_99222" data-name="Trazado 99222" d="M423.942,65.853a.642.642,0,1,1-.641-.613A.628.628,0,0,1,423.942,65.853Z" transform="translate(-416.89 -65.24)" fill="#fff"/>
          <path id="Trazado_99222_-_Contorno" data-name="Trazado 99222 - Contorno" d="M423.3,64.74a1.113,1.113,0,1,1-1.141,1.113A1.128,1.128,0,0,1,423.3,64.74Z" transform="translate(-416.89 -65.24)" fill="#fff"/>
          <ellipse id="Elipse_3956" data-name="Elipse 3956" cx="0.641" cy="0.613" rx="0.641" ry="0.613" transform="translate(11.54)" fill="#fff"/>
          <path id="Elipse_3956_-_Contorno" data-name="Elipse 3956 - Contorno" d="M.641-.5A1.129,1.129,0,0,1,1.782.613,1.129,1.129,0,0,1,.641,1.726,1.129,1.129,0,0,1-.5.613,1.129,1.129,0,0,1,.641-.5Z" transform="translate(11.54)" fill="#fff"/>
          <path id="Trazado_99223" data-name="Trazado 99223" d="M440.835,65.853a.642.642,0,1,1-.641-.613A.628.628,0,0,1,440.835,65.853Z" transform="translate(-422.243 -65.24)" fill="#fff"/>
          <path id="Trazado_99223_-_Contorno" data-name="Trazado 99223 - Contorno" d="M440.194,64.74a1.113,1.113,0,1,1-1.141,1.113A1.129,1.129,0,0,1,440.194,64.74Z" transform="translate(-422.243 -65.24)" fill="#fff"/>
          <path id="Trazado_99224" data-name="Trazado 99224" d="M449.281,65.853a.642.642,0,1,1-.641-.613A.628.628,0,0,1,449.281,65.853Z" transform="translate(-424.919 -65.24)" fill="#fff"/>
          <path id="Trazado_99224_-_Contorno" data-name="Trazado 99224 - Contorno" d="M448.64,64.74a1.113,1.113,0,1,1-1.141,1.113A1.128,1.128,0,0,1,448.64,64.74Z" transform="translate(-424.919 -65.24)" fill="#fff"/>
          <ellipse id="Elipse_3957" data-name="Elipse 3957" cx="0.641" cy="0.613" rx="0.641" ry="0.613" transform="translate(28.85)" fill="#fff"/>
          <path id="Elipse_3957_-_Contorno" data-name="Elipse 3957 - Contorno" d="M.641-.5A1.129,1.129,0,0,1,1.782.613,1.129,1.129,0,0,1,.641,1.726,1.129,1.129,0,0,1-.5.613,1.129,1.129,0,0,1,.641-.5Z" transform="translate(28.85)" fill="#fff"/>
          <path id="Trazado_99225" data-name="Trazado 99225" d="M466.174,65.853a.642.642,0,1,1-.641-.613A.628.628,0,0,1,466.174,65.853Z" transform="translate(-430.272 -65.24)" fill="#fff"/>
          <path id="Trazado_99225_-_Contorno" data-name="Trazado 99225 - Contorno" d="M465.533,64.74a1.113,1.113,0,1,1-1.141,1.113A1.129,1.129,0,0,1,465.533,64.74Z" transform="translate(-430.272 -65.24)" fill="#fff"/>
          <ellipse id="Elipse_3958" data-name="Elipse 3958" cx="0.641" cy="0.613" rx="0.641" ry="0.613" transform="translate(40.39)" fill="#fff"/>
          <path id="Elipse_3958_-_Contorno" data-name="Elipse 3958 - Contorno" d="M.641-.5A1.129,1.129,0,0,1,1.782.613,1.129,1.129,0,0,1,.641,1.726,1.129,1.129,0,0,1-.5.613,1.129,1.129,0,0,1,.641-.5Z" transform="translate(40.39)" fill="#fff"/>
          <ellipse id="Elipse_3959" data-name="Elipse 3959" cx="0.641" cy="0.613" rx="0.641" ry="0.613" transform="translate(46.16)" fill="#fff"/>
          <path id="Elipse_3959_-_Contorno" data-name="Elipse 3959 - Contorno" d="M.641-.5A1.129,1.129,0,0,1,1.782.613,1.129,1.129,0,0,1,.641,1.726,1.129,1.129,0,0,1-.5.613,1.129,1.129,0,0,1,.641-.5Z" transform="translate(46.16)" fill="#fff"/>
          <path id="Trazado_99226" data-name="Trazado 99226" d="M491.513,65.853a.642.642,0,1,1-.641-.613A.628.628,0,0,1,491.513,65.853Z" transform="translate(-438.3 -65.24)" fill="#fff"/>
          <path id="Trazado_99226_-_Contorno" data-name="Trazado 99226 - Contorno" d="M490.872,64.74a1.113,1.113,0,1,1-1.141,1.113A1.129,1.129,0,0,1,490.872,64.74Z" transform="translate(-438.3 -65.24)" fill="#fff"/>
          <path id="Trazado_99227" data-name="Trazado 99227" d="M499.959,65.853a.642.642,0,1,1-.641-.613A.628.628,0,0,1,499.959,65.853Z" transform="translate(-440.977 -65.24)" fill="#fff"/>
          <path id="Trazado_99227_-_Contorno" data-name="Trazado 99227 - Contorno" d="M499.318,64.74a1.113,1.113,0,1,1-1.141,1.113A1.129,1.129,0,0,1,499.318,64.74Z" transform="translate(-440.977 -65.24)" fill="#fff"/>
        </g>
        <g id="Grupo_53309" data-name="Grupo 53309" transform="translate(0 14.714)">
          <ellipse id="Elipse_3960" data-name="Elipse 3960" cx="0.641" cy="0.613" rx="0.641" ry="0.613" transform="translate(0 0)" fill="#fff"/>
          <path id="Elipse_3960_-_Contorno" data-name="Elipse 3960 - Contorno" d="M.641-.5A1.129,1.129,0,0,1,1.782.613,1.129,1.129,0,0,1,.641,1.726,1.129,1.129,0,0,1-.5.613,1.129,1.129,0,0,1,.641-.5Z" transform="translate(0 0)" fill="#fff"/>
          <path id="Trazado_99228" data-name="Trazado 99228" d="M423.942,73.36a.642.642,0,1,1-.641-.613A.627.627,0,0,1,423.942,73.36Z" transform="translate(-416.89 -72.747)" fill="#fff"/>
          <path id="Trazado_99228_-_Contorno" data-name="Trazado 99228 - Contorno" d="M423.3,74.473a1.113,1.113,0,1,1,1.141-1.113A1.129,1.129,0,0,1,423.3,74.473Z" transform="translate(-416.89 -72.747)" fill="#fff"/>
          <ellipse id="Elipse_3961" data-name="Elipse 3961" cx="0.641" cy="0.613" rx="0.641" ry="0.613" transform="translate(11.54 0)" fill="#fff"/>
          <path id="Elipse_3961_-_Contorno" data-name="Elipse 3961 - Contorno" d="M.641-.5A1.129,1.129,0,0,1,1.782.613,1.129,1.129,0,0,1,.641,1.726,1.129,1.129,0,0,1-.5.613,1.129,1.129,0,0,1,.641-.5Z" transform="translate(11.54 0)" fill="#fff"/>
          <path id="Trazado_99229" data-name="Trazado 99229" d="M440.835,73.36a.642.642,0,1,1-.641-.613A.627.627,0,0,1,440.835,73.36Z" transform="translate(-422.243 -72.747)" fill="#fff"/>
          <path id="Trazado_99229_-_Contorno" data-name="Trazado 99229 - Contorno" d="M440.194,74.473a1.113,1.113,0,1,1,1.141-1.113A1.128,1.128,0,0,1,440.194,74.473Z" transform="translate(-422.243 -72.747)" fill="#fff"/>
          <path id="Trazado_99230" data-name="Trazado 99230" d="M449.281,73.36a.642.642,0,1,1-.641-.613A.627.627,0,0,1,449.281,73.36Z" transform="translate(-424.919 -72.747)" fill="#fff"/>
          <path id="Trazado_99230_-_Contorno" data-name="Trazado 99230 - Contorno" d="M448.64,74.473a1.113,1.113,0,1,1,1.141-1.113A1.129,1.129,0,0,1,448.64,74.473Z" transform="translate(-424.919 -72.747)" fill="#fff"/>
          <ellipse id="Elipse_3962" data-name="Elipse 3962" cx="0.641" cy="0.613" rx="0.641" ry="0.613" transform="translate(28.85 0)" fill="#fff"/>
          <path id="Elipse_3962_-_Contorno" data-name="Elipse 3962 - Contorno" d="M.641-.5A1.129,1.129,0,0,1,1.782.613,1.129,1.129,0,0,1,.641,1.726,1.129,1.129,0,0,1-.5.613,1.129,1.129,0,0,1,.641-.5Z" transform="translate(28.85 0)" fill="#fff"/>
          <path id="Trazado_99231" data-name="Trazado 99231" d="M466.174,73.36a.642.642,0,1,1-.641-.613A.628.628,0,0,1,466.174,73.36Z" transform="translate(-430.272 -72.747)" fill="#fff"/>
          <path id="Trazado_99231_-_Contorno" data-name="Trazado 99231 - Contorno" d="M465.533,74.473a1.113,1.113,0,1,1,1.141-1.113A1.128,1.128,0,0,1,465.533,74.473Z" transform="translate(-430.272 -72.747)" fill="#fff"/>
          <ellipse id="Elipse_3963" data-name="Elipse 3963" cx="0.641" cy="0.613" rx="0.641" ry="0.613" transform="translate(40.39 0)" fill="#fff"/>
          <path id="Elipse_3963_-_Contorno" data-name="Elipse 3963 - Contorno" d="M.641-.5A1.129,1.129,0,0,1,1.782.613,1.129,1.129,0,0,1,.641,1.726,1.129,1.129,0,0,1-.5.613,1.129,1.129,0,0,1,.641-.5Z" transform="translate(40.39 0)" fill="#fff"/>
          <ellipse id="Elipse_3964" data-name="Elipse 3964" cx="0.641" cy="0.613" rx="0.641" ry="0.613" transform="translate(46.16 0)" fill="#fff"/>
          <path id="Elipse_3964_-_Contorno" data-name="Elipse 3964 - Contorno" d="M.641-.5A1.129,1.129,0,0,1,1.782.613,1.129,1.129,0,0,1,.641,1.726,1.129,1.129,0,0,1-.5.613,1.129,1.129,0,0,1,.641-.5Z" transform="translate(46.16 0)" fill="#fff"/>
          <path id="Trazado_99232" data-name="Trazado 99232" d="M491.513,73.36a.642.642,0,1,1-.641-.613A.628.628,0,0,1,491.513,73.36Z" transform="translate(-438.3 -72.747)" fill="#fff"/>
          <path id="Trazado_99232_-_Contorno" data-name="Trazado 99232 - Contorno" d="M490.872,74.473a1.113,1.113,0,1,1,1.141-1.113A1.128,1.128,0,0,1,490.872,74.473Z" transform="translate(-438.3 -72.747)" fill="#fff"/>
          <path id="Trazado_99233" data-name="Trazado 99233" d="M499.959,73.36a.642.642,0,1,1-.641-.613A.627.627,0,0,1,499.959,73.36Z" transform="translate(-440.977 -72.747)" fill="#fff"/>
          <path id="Trazado_99233_-_Contorno" data-name="Trazado 99233 - Contorno" d="M499.318,74.473a1.113,1.113,0,1,1,1.141-1.113A1.128,1.128,0,0,1,499.318,74.473Z" transform="translate(-440.977 -72.747)" fill="#fff"/>
        </g>
        <g id="Grupo_53310" data-name="Grupo 53310" transform="translate(0 19.619)">
          <path id="Trazado_99234" data-name="Trazado 99234" d="M415.5,80.868a.642.642,0,1,1-.642-.613A.628.628,0,0,1,415.5,80.868Z" transform="translate(-414.214 -80.255)" fill="#fff"/>
          <path id="Trazado_99234_-_Contorno" data-name="Trazado 99234 - Contorno" d="M414.855,81.981A1.113,1.113,0,1,1,416,80.868,1.128,1.128,0,0,1,414.855,81.981Z" transform="translate(-414.214 -80.255)" fill="#fff"/>
          <path id="Trazado_99235" data-name="Trazado 99235" d="M423.942,80.868a.642.642,0,1,1-.641-.613A.627.627,0,0,1,423.942,80.868Z" transform="translate(-416.89 -80.255)" fill="#fff"/>
          <path id="Trazado_99235_-_Contorno" data-name="Trazado 99235 - Contorno" d="M423.3,81.981a1.113,1.113,0,1,1,1.141-1.113A1.129,1.129,0,0,1,423.3,81.981Z" transform="translate(-416.89 -80.255)" fill="#fff"/>
          <path id="Trazado_99236" data-name="Trazado 99236" d="M432.388,80.868a.642.642,0,1,1-.641-.613A.627.627,0,0,1,432.388,80.868Z" transform="translate(-419.566 -80.255)" fill="#fff"/>
          <path id="Trazado_99236_-_Contorno" data-name="Trazado 99236 - Contorno" d="M431.747,81.981a1.113,1.113,0,1,1,1.141-1.113A1.129,1.129,0,0,1,431.747,81.981Z" transform="translate(-419.566 -80.255)" fill="#fff"/>
          <path id="Trazado_99237" data-name="Trazado 99237" d="M440.835,80.868a.642.642,0,1,1-.641-.613A.627.627,0,0,1,440.835,80.868Z" transform="translate(-422.243 -80.255)" fill="#fff"/>
          <path id="Trazado_99237_-_Contorno" data-name="Trazado 99237 - Contorno" d="M440.194,81.981a1.113,1.113,0,1,1,1.141-1.113A1.128,1.128,0,0,1,440.194,81.981Z" transform="translate(-422.243 -80.255)" fill="#fff"/>
          <path id="Trazado_99238" data-name="Trazado 99238" d="M449.281,80.868a.642.642,0,1,1-.641-.613A.627.627,0,0,1,449.281,80.868Z" transform="translate(-424.919 -80.255)" fill="#fff"/>
          <path id="Trazado_99238_-_Contorno" data-name="Trazado 99238 - Contorno" d="M448.64,81.981a1.113,1.113,0,1,1,1.141-1.113A1.129,1.129,0,0,1,448.64,81.981Z" transform="translate(-424.919 -80.255)" fill="#fff"/>
          <path id="Trazado_99239" data-name="Trazado 99239" d="M457.727,80.868a.642.642,0,1,1-.641-.613A.627.627,0,0,1,457.727,80.868Z" transform="translate(-427.595 -80.255)" fill="#fff"/>
          <path id="Trazado_99239_-_Contorno" data-name="Trazado 99239 - Contorno" d="M457.086,81.981a1.113,1.113,0,1,1,1.141-1.113A1.129,1.129,0,0,1,457.086,81.981Z" transform="translate(-427.595 -80.255)" fill="#fff"/>
          <path id="Trazado_99240" data-name="Trazado 99240" d="M466.174,80.868a.642.642,0,1,1-.641-.613A.628.628,0,0,1,466.174,80.868Z" transform="translate(-430.272 -80.255)" fill="#fff"/>
          <path id="Trazado_99240_-_Contorno" data-name="Trazado 99240 - Contorno" d="M465.533,81.981a1.113,1.113,0,1,1,1.141-1.113A1.128,1.128,0,0,1,465.533,81.981Z" transform="translate(-430.272 -80.255)" fill="#fff"/>
          <path id="Trazado_99241" data-name="Trazado 99241" d="M474.62,80.868a.642.642,0,1,1-.641-.613A.627.627,0,0,1,474.62,80.868Z" transform="translate(-432.948 -80.255)" fill="#fff"/>
          <path id="Trazado_99241_-_Contorno" data-name="Trazado 99241 - Contorno" d="M473.98,81.981a1.113,1.113,0,1,1,1.141-1.113A1.129,1.129,0,0,1,473.98,81.981Z" transform="translate(-432.948 -80.255)" fill="#fff"/>
          <path id="Trazado_99242" data-name="Trazado 99242" d="M483.066,80.868a.642.642,0,1,1-.641-.613A.627.627,0,0,1,483.066,80.868Z" transform="translate(-435.624 -80.255)" fill="#fff"/>
          <path id="Trazado_99242_-_Contorno" data-name="Trazado 99242 - Contorno" d="M482.425,81.981a1.113,1.113,0,1,1,1.141-1.113A1.129,1.129,0,0,1,482.425,81.981Z" transform="translate(-435.624 -80.255)" fill="#fff"/>
          <path id="Trazado_99243" data-name="Trazado 99243" d="M491.513,80.868a.642.642,0,1,1-.641-.613A.628.628,0,0,1,491.513,80.868Z" transform="translate(-438.301 -80.255)" fill="#fff"/>
          <path id="Trazado_99243_-_Contorno" data-name="Trazado 99243 - Contorno" d="M490.872,81.981a1.113,1.113,0,1,1,1.141-1.113A1.128,1.128,0,0,1,490.872,81.981Z" transform="translate(-438.301 -80.255)" fill="#fff"/>
          <path id="Trazado_99244" data-name="Trazado 99244" d="M499.959,80.868a.642.642,0,1,1-.641-.613A.627.627,0,0,1,499.959,80.868Z" transform="translate(-440.977 -80.255)" fill="#fff"/>
          <path id="Trazado_99244_-_Contorno" data-name="Trazado 99244 - Contorno" d="M499.318,81.981a1.113,1.113,0,1,1,1.141-1.113A1.128,1.128,0,0,1,499.318,81.981Z" transform="translate(-440.977 -80.255)" fill="#fff"/>
        </g>
        <g id="Grupo_53311" data-name="Grupo 53311" transform="translate(0 24.524)">
          <ellipse id="Elipse_3965" data-name="Elipse 3965" cx="0.641" cy="0.613" rx="0.641" ry="0.613" transform="translate(0 0)" fill="#fff"/>
          <path id="Elipse_3965_-_Contorno" data-name="Elipse 3965 - Contorno" d="M.641-.5A1.129,1.129,0,0,1,1.782.613,1.129,1.129,0,0,1,.641,1.726,1.129,1.129,0,0,1-.5.613,1.129,1.129,0,0,1,.641-.5Z" transform="translate(0 0)" fill="#fff"/>
          <path id="Trazado_99245" data-name="Trazado 99245" d="M423.942,88.376a.642.642,0,1,1-.641-.613A.627.627,0,0,1,423.942,88.376Z" transform="translate(-416.89 -87.763)" fill="#fff"/>
          <path id="Trazado_99245_-_Contorno" data-name="Trazado 99245 - Contorno" d="M423.3,89.489a1.113,1.113,0,1,1,1.141-1.113A1.129,1.129,0,0,1,423.3,89.489Z" transform="translate(-416.89 -87.763)" fill="#fff"/>
          <ellipse id="Elipse_3966" data-name="Elipse 3966" cx="0.641" cy="0.613" rx="0.641" ry="0.613" transform="translate(11.54 0)" fill="#fff"/>
          <path id="Elipse_3966_-_Contorno" data-name="Elipse 3966 - Contorno" d="M.641-.5A1.129,1.129,0,0,1,1.782.613,1.129,1.129,0,0,1,.641,1.726,1.129,1.129,0,0,1-.5.613,1.129,1.129,0,0,1,.641-.5Z" transform="translate(11.54 0)" fill="#fff"/>
          <path id="Trazado_99246" data-name="Trazado 99246" d="M440.835,88.376a.642.642,0,1,1-.641-.613A.628.628,0,0,1,440.835,88.376Z" transform="translate(-422.243 -87.763)" fill="#fff"/>
          <path id="Trazado_99246_-_Contorno" data-name="Trazado 99246 - Contorno" d="M440.194,89.489a1.113,1.113,0,1,1,1.141-1.113A1.128,1.128,0,0,1,440.194,89.489Z" transform="translate(-422.243 -87.763)" fill="#fff"/>
          <path id="Trazado_99247" data-name="Trazado 99247" d="M449.281,88.376a.642.642,0,1,1-.641-.613A.627.627,0,0,1,449.281,88.376Z" transform="translate(-424.919 -87.763)" fill="#fff"/>
          <path id="Trazado_99247_-_Contorno" data-name="Trazado 99247 - Contorno" d="M448.64,89.489a1.113,1.113,0,1,1,1.141-1.113A1.129,1.129,0,0,1,448.64,89.489Z" transform="translate(-424.919 -87.763)" fill="#fff"/>
          <ellipse id="Elipse_3967" data-name="Elipse 3967" cx="0.641" cy="0.613" rx="0.641" ry="0.613" transform="translate(28.85 0)" fill="#fff"/>
          <path id="Elipse_3967_-_Contorno" data-name="Elipse 3967 - Contorno" d="M.641-.5A1.129,1.129,0,0,1,1.782.613,1.129,1.129,0,0,1,.641,1.726,1.129,1.129,0,0,1-.5.613,1.129,1.129,0,0,1,.641-.5Z" transform="translate(28.85 0)" fill="#fff"/>
          <path id="Trazado_99248" data-name="Trazado 99248" d="M466.174,88.376a.642.642,0,1,1-.641-.613A.628.628,0,0,1,466.174,88.376Z" transform="translate(-430.272 -87.763)" fill="#fff"/>
          <path id="Trazado_99248_-_Contorno" data-name="Trazado 99248 - Contorno" d="M465.533,89.489a1.113,1.113,0,1,1,1.141-1.113A1.128,1.128,0,0,1,465.533,89.489Z" transform="translate(-430.272 -87.763)" fill="#fff"/>
          <ellipse id="Elipse_3968" data-name="Elipse 3968" cx="0.641" cy="0.613" rx="0.641" ry="0.613" transform="translate(40.39 0)" fill="#fff"/>
          <path id="Elipse_3968_-_Contorno" data-name="Elipse 3968 - Contorno" d="M.641-.5A1.129,1.129,0,0,1,1.782.613,1.129,1.129,0,0,1,.641,1.726,1.129,1.129,0,0,1-.5.613,1.129,1.129,0,0,1,.641-.5Z" transform="translate(40.39 0)" fill="#fff"/>
          <ellipse id="Elipse_3969" data-name="Elipse 3969" cx="0.641" cy="0.613" rx="0.641" ry="0.613" transform="translate(46.16 0)" fill="#fff"/>
          <path id="Elipse_3969_-_Contorno" data-name="Elipse 3969 - Contorno" d="M.641-.5A1.129,1.129,0,0,1,1.782.613,1.129,1.129,0,0,1,.641,1.726,1.129,1.129,0,0,1-.5.613,1.129,1.129,0,0,1,.641-.5Z" transform="translate(46.16 0)" fill="#fff"/>
          <path id="Trazado_99249" data-name="Trazado 99249" d="M491.513,88.376a.642.642,0,1,1-.641-.613A.628.628,0,0,1,491.513,88.376Z" transform="translate(-438.3 -87.763)" fill="#fff"/>
          <path id="Trazado_99249_-_Contorno" data-name="Trazado 99249 - Contorno" d="M490.872,89.489a1.113,1.113,0,1,1,1.141-1.113A1.128,1.128,0,0,1,490.872,89.489Z" transform="translate(-438.3 -87.763)" fill="#fff"/>
          <path id="Trazado_99250" data-name="Trazado 99250" d="M499.959,88.376a.642.642,0,1,1-.641-.613A.627.627,0,0,1,499.959,88.376Z" transform="translate(-440.977 -87.763)" fill="#fff"/>
          <path id="Trazado_99250_-_Contorno" data-name="Trazado 99250 - Contorno" d="M499.318,89.489a1.113,1.113,0,1,1,1.141-1.113A1.128,1.128,0,0,1,499.318,89.489Z" transform="translate(-440.977 -87.763)" fill="#fff"/>
        </g>
        <g id="Grupo_53312" data-name="Grupo 53312" transform="translate(0 29.429)">
          <ellipse id="Elipse_3970" data-name="Elipse 3970" cx="0.641" cy="0.613" rx="0.641" ry="0.613" fill="#fff"/>
          <path id="Elipse_3970_-_Contorno" data-name="Elipse 3970 - Contorno" d="M.641-.5A1.129,1.129,0,0,1,1.782.613,1.129,1.129,0,0,1,.641,1.726,1.129,1.129,0,0,1-.5.613,1.129,1.129,0,0,1,.641-.5Z" fill="#fff"/>
          <path id="Trazado_99251" data-name="Trazado 99251" d="M423.942,95.884a.642.642,0,1,1-.641-.613A.627.627,0,0,1,423.942,95.884Z" transform="translate(-416.89 -95.271)" fill="#fff"/>
          <path id="Trazado_99251_-_Contorno" data-name="Trazado 99251 - Contorno" d="M423.3,94.771a1.113,1.113,0,1,1-1.141,1.113A1.128,1.128,0,0,1,423.3,94.771Z" transform="translate(-416.89 -95.271)" fill="#fff"/>
          <ellipse id="Elipse_3971" data-name="Elipse 3971" cx="0.641" cy="0.613" rx="0.641" ry="0.613" transform="translate(11.54)" fill="#fff"/>
          <path id="Elipse_3971_-_Contorno" data-name="Elipse 3971 - Contorno" d="M.641-.5A1.129,1.129,0,0,1,1.782.613,1.129,1.129,0,0,1,.641,1.726,1.129,1.129,0,0,1-.5.613,1.129,1.129,0,0,1,.641-.5Z" transform="translate(11.54)" fill="#fff"/>
          <path id="Trazado_99252" data-name="Trazado 99252" d="M440.835,95.884a.642.642,0,1,1-.641-.613A.628.628,0,0,1,440.835,95.884Z" transform="translate(-422.243 -95.271)" fill="#fff"/>
          <path id="Trazado_99252_-_Contorno" data-name="Trazado 99252 - Contorno" d="M440.194,94.771a1.113,1.113,0,1,1-1.141,1.113A1.129,1.129,0,0,1,440.194,94.771Z" transform="translate(-422.243 -95.271)" fill="#fff"/>
          <path id="Trazado_99253" data-name="Trazado 99253" d="M449.281,95.884a.642.642,0,1,1-.641-.613A.627.627,0,0,1,449.281,95.884Z" transform="translate(-424.919 -95.271)" fill="#fff"/>
          <path id="Trazado_99253_-_Contorno" data-name="Trazado 99253 - Contorno" d="M448.64,94.771a1.113,1.113,0,1,1-1.141,1.113A1.128,1.128,0,0,1,448.64,94.771Z" transform="translate(-424.919 -95.271)" fill="#fff"/>
          <ellipse id="Elipse_3972" data-name="Elipse 3972" cx="0.641" cy="0.613" rx="0.641" ry="0.613" transform="translate(28.85)" fill="#fff"/>
          <path id="Elipse_3972_-_Contorno" data-name="Elipse 3972 - Contorno" d="M.641-.5A1.129,1.129,0,0,1,1.782.613,1.129,1.129,0,0,1,.641,1.726,1.129,1.129,0,0,1-.5.613,1.129,1.129,0,0,1,.641-.5Z" transform="translate(28.85)" fill="#fff"/>
          <path id="Trazado_99254" data-name="Trazado 99254" d="M466.174,95.884a.642.642,0,1,1-.641-.613A.628.628,0,0,1,466.174,95.884Z" transform="translate(-430.272 -95.271)" fill="#fff"/>
          <path id="Trazado_99254_-_Contorno" data-name="Trazado 99254 - Contorno" d="M465.533,94.771a1.113,1.113,0,1,1-1.141,1.113A1.129,1.129,0,0,1,465.533,94.771Z" transform="translate(-430.272 -95.271)" fill="#fff"/>
          <ellipse id="Elipse_3973" data-name="Elipse 3973" cx="0.641" cy="0.613" rx="0.641" ry="0.613" transform="translate(40.39)" fill="#fff"/>
          <path id="Elipse_3973_-_Contorno" data-name="Elipse 3973 - Contorno" d="M.641-.5A1.129,1.129,0,0,1,1.782.613,1.129,1.129,0,0,1,.641,1.726,1.129,1.129,0,0,1-.5.613,1.129,1.129,0,0,1,.641-.5Z" transform="translate(40.39)" fill="#fff"/>
          <ellipse id="Elipse_3974" data-name="Elipse 3974" cx="0.641" cy="0.613" rx="0.641" ry="0.613" transform="translate(46.16)" fill="#fff"/>
          <path id="Elipse_3974_-_Contorno" data-name="Elipse 3974 - Contorno" d="M.641-.5A1.129,1.129,0,0,1,1.782.613,1.129,1.129,0,0,1,.641,1.726,1.129,1.129,0,0,1-.5.613,1.129,1.129,0,0,1,.641-.5Z" transform="translate(46.16)" fill="#fff"/>
          <path id="Trazado_99255" data-name="Trazado 99255" d="M491.513,95.884a.642.642,0,1,1-.641-.613A.628.628,0,0,1,491.513,95.884Z" transform="translate(-438.3 -95.271)" fill="#fff"/>
          <path id="Trazado_99255_-_Contorno" data-name="Trazado 99255 - Contorno" d="M490.872,94.771a1.113,1.113,0,1,1-1.141,1.113A1.129,1.129,0,0,1,490.872,94.771Z" transform="translate(-438.3 -95.271)" fill="#fff"/>
          <path id="Trazado_99256" data-name="Trazado 99256" d="M499.959,95.884a.642.642,0,1,1-.641-.613A.628.628,0,0,1,499.959,95.884Z" transform="translate(-440.977 -95.271)" fill="#fff"/>
          <path id="Trazado_99256_-_Contorno" data-name="Trazado 99256 - Contorno" d="M499.318,94.771a1.113,1.113,0,1,1-1.141,1.113A1.129,1.129,0,0,1,499.318,94.771Z" transform="translate(-440.977 -95.271)" fill="#fff"/>
        </g>
        <g id="Grupo_53313" data-name="Grupo 53313" transform="translate(0 34.334)">
          <path id="Trazado_99257" data-name="Trazado 99257" d="M415.5,103.392a.642.642,0,1,1-.642-.613A.628.628,0,0,1,415.5,103.392Z" transform="translate(-414.214 -102.779)" fill="#fff"/>
          <path id="Trazado_99257_-_Contorno" data-name="Trazado 99257 - Contorno" d="M414.855,102.279a1.113,1.113,0,1,1-1.141,1.113A1.129,1.129,0,0,1,414.855,102.279Z" transform="translate(-414.214 -102.779)" fill="#fff"/>
          <path id="Trazado_99258" data-name="Trazado 99258" d="M423.942,103.392a.642.642,0,1,1-.641-.613A.627.627,0,0,1,423.942,103.392Z" transform="translate(-416.89 -102.779)" fill="#fff"/>
          <path id="Trazado_99258_-_Contorno" data-name="Trazado 99258 - Contorno" d="M423.3,102.279a1.113,1.113,0,1,1-1.141,1.113A1.128,1.128,0,0,1,423.3,102.279Z" transform="translate(-416.89 -102.779)" fill="#fff"/>
          <path id="Trazado_99259" data-name="Trazado 99259" d="M432.388,103.392a.642.642,0,1,1-.641-.613A.627.627,0,0,1,432.388,103.392Z" transform="translate(-419.566 -102.779)" fill="#fff"/>
          <path id="Trazado_99259_-_Contorno" data-name="Trazado 99259 - Contorno" d="M431.747,102.279a1.113,1.113,0,1,1-1.142,1.113A1.128,1.128,0,0,1,431.747,102.279Z" transform="translate(-419.566 -102.779)" fill="#fff"/>
          <path id="Trazado_99260" data-name="Trazado 99260" d="M440.835,103.392a.642.642,0,1,1-.641-.613A.628.628,0,0,1,440.835,103.392Z" transform="translate(-422.243 -102.779)" fill="#fff"/>
          <path id="Trazado_99260_-_Contorno" data-name="Trazado 99260 - Contorno" d="M440.194,102.279a1.113,1.113,0,1,1-1.141,1.113A1.129,1.129,0,0,1,440.194,102.279Z" transform="translate(-422.243 -102.779)" fill="#fff"/>
          <path id="Trazado_99261" data-name="Trazado 99261" d="M449.281,103.392a.642.642,0,1,1-.641-.613A.627.627,0,0,1,449.281,103.392Z" transform="translate(-424.919 -102.779)" fill="#fff"/>
          <path id="Trazado_99261_-_Contorno" data-name="Trazado 99261 - Contorno" d="M448.64,102.279a1.113,1.113,0,1,1-1.141,1.113A1.128,1.128,0,0,1,448.64,102.279Z" transform="translate(-424.919 -102.779)" fill="#fff"/>
          <path id="Trazado_99262" data-name="Trazado 99262" d="M457.727,103.392a.642.642,0,1,1-.641-.613A.627.627,0,0,1,457.727,103.392Z" transform="translate(-427.595 -102.779)" fill="#fff"/>
          <path id="Trazado_99262_-_Contorno" data-name="Trazado 99262 - Contorno" d="M457.086,102.279a1.113,1.113,0,1,1-1.141,1.113A1.128,1.128,0,0,1,457.086,102.279Z" transform="translate(-427.595 -102.779)" fill="#fff"/>
          <path id="Trazado_99263" data-name="Trazado 99263" d="M466.174,103.392a.642.642,0,1,1-.641-.613A.628.628,0,0,1,466.174,103.392Z" transform="translate(-430.272 -102.779)" fill="#fff"/>
          <path id="Trazado_99263_-_Contorno" data-name="Trazado 99263 - Contorno" d="M465.533,102.279a1.113,1.113,0,1,1-1.141,1.113A1.129,1.129,0,0,1,465.533,102.279Z" transform="translate(-430.272 -102.779)" fill="#fff"/>
          <path id="Trazado_99264" data-name="Trazado 99264" d="M474.62,103.392a.642.642,0,1,1-.641-.613A.627.627,0,0,1,474.62,103.392Z" transform="translate(-432.948 -102.779)" fill="#fff"/>
          <path id="Trazado_99264_-_Contorno" data-name="Trazado 99264 - Contorno" d="M473.98,102.279a1.113,1.113,0,1,1-1.141,1.113A1.128,1.128,0,0,1,473.98,102.279Z" transform="translate(-432.948 -102.779)" fill="#fff"/>
          <path id="Trazado_99265" data-name="Trazado 99265" d="M483.066,103.392a.642.642,0,1,1-.641-.613A.627.627,0,0,1,483.066,103.392Z" transform="translate(-435.624 -102.779)" fill="#fff"/>
          <path id="Trazado_99265_-_Contorno" data-name="Trazado 99265 - Contorno" d="M482.425,102.279a1.113,1.113,0,1,1-1.142,1.113A1.128,1.128,0,0,1,482.425,102.279Z" transform="translate(-435.624 -102.779)" fill="#fff"/>
          <path id="Trazado_99266" data-name="Trazado 99266" d="M491.513,103.392a.642.642,0,1,1-.641-.613A.628.628,0,0,1,491.513,103.392Z" transform="translate(-438.301 -102.779)" fill="#fff"/>
          <path id="Trazado_99266_-_Contorno" data-name="Trazado 99266 - Contorno" d="M490.872,102.279a1.113,1.113,0,1,1-1.141,1.113A1.129,1.129,0,0,1,490.872,102.279Z" transform="translate(-438.301 -102.779)" fill="#fff"/>
          <path id="Trazado_99267" data-name="Trazado 99267" d="M499.959,103.392a.642.642,0,1,1-.641-.613A.628.628,0,0,1,499.959,103.392Z" transform="translate(-440.977 -102.779)" fill="#fff"/>
          <path id="Trazado_99267_-_Contorno" data-name="Trazado 99267 - Contorno" d="M499.318,102.279a1.113,1.113,0,1,1-1.141,1.113A1.129,1.129,0,0,1,499.318,102.279Z" transform="translate(-440.977 -102.779)" fill="#fff"/>
        </g>
        <g id="Grupo_53314" data-name="Grupo 53314" transform="translate(0 39.239)">
          <ellipse id="Elipse_3975" data-name="Elipse 3975" cx="0.641" cy="0.613" rx="0.641" ry="0.613" fill="#fff"/>
          <path id="Elipse_3975_-_Contorno" data-name="Elipse 3975 - Contorno" d="M.641-.5A1.129,1.129,0,0,1,1.782.613,1.129,1.129,0,0,1,.641,1.726,1.129,1.129,0,0,1-.5.613,1.129,1.129,0,0,1,.641-.5Z" fill="#fff"/>
          <path id="Trazado_99268" data-name="Trazado 99268" d="M423.942,110.9a.642.642,0,1,1-.641-.613A.628.628,0,0,1,423.942,110.9Z" transform="translate(-416.89 -110.287)" fill="#fff"/>
          <path id="Trazado_99268_-_Contorno" data-name="Trazado 99268 - Contorno" d="M423.3,109.787a1.113,1.113,0,1,1-1.141,1.113A1.128,1.128,0,0,1,423.3,109.787Z" transform="translate(-416.89 -110.287)" fill="#fff"/>
          <ellipse id="Elipse_3976" data-name="Elipse 3976" cx="0.641" cy="0.613" rx="0.641" ry="0.613" transform="translate(11.54)" fill="#fff"/>
          <path id="Elipse_3976_-_Contorno" data-name="Elipse 3976 - Contorno" d="M.641-.5A1.129,1.129,0,0,1,1.782.613,1.129,1.129,0,0,1,.641,1.726,1.129,1.129,0,0,1-.5.613,1.129,1.129,0,0,1,.641-.5Z" transform="translate(11.54)" fill="#fff"/>
          <path id="Trazado_99269" data-name="Trazado 99269" d="M440.835,110.9a.642.642,0,1,1-.641-.613A.628.628,0,0,1,440.835,110.9Z" transform="translate(-422.243 -110.287)" fill="#fff"/>
          <path id="Trazado_99269_-_Contorno" data-name="Trazado 99269 - Contorno" d="M440.194,109.787a1.113,1.113,0,1,1-1.141,1.113A1.129,1.129,0,0,1,440.194,109.787Z" transform="translate(-422.243 -110.287)" fill="#fff"/>
          <path id="Trazado_99270" data-name="Trazado 99270" d="M449.281,110.9a.642.642,0,1,1-.641-.613A.628.628,0,0,1,449.281,110.9Z" transform="translate(-424.919 -110.287)" fill="#fff"/>
          <path id="Trazado_99270_-_Contorno" data-name="Trazado 99270 - Contorno" d="M448.64,109.787A1.113,1.113,0,1,1,447.5,110.9,1.128,1.128,0,0,1,448.64,109.787Z" transform="translate(-424.919 -110.287)" fill="#fff"/>
          <ellipse id="Elipse_3977" data-name="Elipse 3977" cx="0.641" cy="0.613" rx="0.641" ry="0.613" transform="translate(28.85)" fill="#fff"/>
          <path id="Elipse_3977_-_Contorno" data-name="Elipse 3977 - Contorno" d="M.641-.5A1.129,1.129,0,0,1,1.782.613,1.129,1.129,0,0,1,.641,1.726,1.129,1.129,0,0,1-.5.613,1.129,1.129,0,0,1,.641-.5Z" transform="translate(28.85)" fill="#fff"/>
          <path id="Trazado_99271" data-name="Trazado 99271" d="M466.174,110.9a.642.642,0,1,1-.641-.613A.628.628,0,0,1,466.174,110.9Z" transform="translate(-430.272 -110.287)" fill="#fff"/>
          <path id="Trazado_99271_-_Contorno" data-name="Trazado 99271 - Contorno" d="M465.533,109.787a1.113,1.113,0,1,1-1.141,1.113A1.129,1.129,0,0,1,465.533,109.787Z" transform="translate(-430.272 -110.287)" fill="#fff"/>
          <ellipse id="Elipse_3978" data-name="Elipse 3978" cx="0.641" cy="0.613" rx="0.641" ry="0.613" transform="translate(40.39)" fill="#fff"/>
          <path id="Elipse_3978_-_Contorno" data-name="Elipse 3978 - Contorno" d="M.641-.5A1.129,1.129,0,0,1,1.782.613,1.129,1.129,0,0,1,.641,1.726,1.129,1.129,0,0,1-.5.613,1.129,1.129,0,0,1,.641-.5Z" transform="translate(40.39)" fill="#fff"/>
          <ellipse id="Elipse_3979" data-name="Elipse 3979" cx="0.641" cy="0.613" rx="0.641" ry="0.613" transform="translate(46.16)" fill="#fff"/>
          <path id="Elipse_3979_-_Contorno" data-name="Elipse 3979 - Contorno" d="M.641-.5A1.129,1.129,0,0,1,1.782.613,1.129,1.129,0,0,1,.641,1.726,1.129,1.129,0,0,1-.5.613,1.129,1.129,0,0,1,.641-.5Z" transform="translate(46.16)" fill="#fff"/>
          <path id="Trazado_99272" data-name="Trazado 99272" d="M491.513,110.9a.642.642,0,1,1-.641-.613A.628.628,0,0,1,491.513,110.9Z" transform="translate(-438.3 -110.287)" fill="#fff"/>
          <path id="Trazado_99272_-_Contorno" data-name="Trazado 99272 - Contorno" d="M490.872,109.787a1.113,1.113,0,1,1-1.141,1.113A1.129,1.129,0,0,1,490.872,109.787Z" transform="translate(-438.3 -110.287)" fill="#fff"/>
          <path id="Trazado_99273" data-name="Trazado 99273" d="M499.959,110.9a.642.642,0,1,1-.641-.613A.628.628,0,0,1,499.959,110.9Z" transform="translate(-440.977 -110.287)" fill="#fff"/>
          <path id="Trazado_99273_-_Contorno" data-name="Trazado 99273 - Contorno" d="M499.318,109.787a1.113,1.113,0,1,1-1.141,1.113A1.129,1.129,0,0,1,499.318,109.787Z" transform="translate(-440.977 -110.287)" fill="#fff"/>
        </g>
        <g id="Grupo_53315" data-name="Grupo 53315" transform="translate(0 44.144)">
          <path id="Trazado_99274" data-name="Trazado 99274" d="M415.5,118.407a.642.642,0,1,1-.642-.613A.628.628,0,0,1,415.5,118.407Z" transform="translate(-414.214 -117.794)" fill="#fff"/>
          <path id="Trazado_99274_-_Contorno" data-name="Trazado 99274 - Contorno" d="M414.855,119.521A1.114,1.114,0,1,1,416,118.407,1.129,1.129,0,0,1,414.855,119.521Z" transform="translate(-414.214 -117.794)" fill="#fff"/>
          <path id="Trazado_99275" data-name="Trazado 99275" d="M423.942,118.407a.642.642,0,1,1-.641-.613A.628.628,0,0,1,423.942,118.407Z" transform="translate(-416.89 -117.794)" fill="#fff"/>
          <path id="Trazado_99275_-_Contorno" data-name="Trazado 99275 - Contorno" d="M423.3,119.521a1.114,1.114,0,1,1,1.141-1.113A1.129,1.129,0,0,1,423.3,119.521Z" transform="translate(-416.89 -117.794)" fill="#fff"/>
          <path id="Trazado_99276" data-name="Trazado 99276" d="M432.388,118.407a.642.642,0,1,1-.641-.613A.628.628,0,0,1,432.388,118.407Z" transform="translate(-419.566 -117.794)" fill="#fff"/>
          <path id="Trazado_99276_-_Contorno" data-name="Trazado 99276 - Contorno" d="M431.747,119.521a1.114,1.114,0,1,1,1.141-1.113A1.129,1.129,0,0,1,431.747,119.521Z" transform="translate(-419.566 -117.794)" fill="#fff"/>
          <path id="Trazado_99277" data-name="Trazado 99277" d="M440.835,118.407a.642.642,0,1,1-.641-.613A.628.628,0,0,1,440.835,118.407Z" transform="translate(-422.243 -117.794)" fill="#fff"/>
          <path id="Trazado_99277_-_Contorno" data-name="Trazado 99277 - Contorno" d="M440.194,119.521a1.114,1.114,0,1,1,1.141-1.113A1.129,1.129,0,0,1,440.194,119.521Z" transform="translate(-422.243 -117.794)" fill="#fff"/>
          <path id="Trazado_99278" data-name="Trazado 99278" d="M449.281,118.407a.642.642,0,1,1-.641-.613A.628.628,0,0,1,449.281,118.407Z" transform="translate(-424.919 -117.794)" fill="#fff"/>
          <path id="Trazado_99278_-_Contorno" data-name="Trazado 99278 - Contorno" d="M448.64,119.521a1.114,1.114,0,1,1,1.141-1.113A1.129,1.129,0,0,1,448.64,119.521Z" transform="translate(-424.919 -117.794)" fill="#fff"/>
          <path id="Trazado_99279" data-name="Trazado 99279" d="M457.727,118.407a.642.642,0,1,1-.641-.613A.628.628,0,0,1,457.727,118.407Z" transform="translate(-427.595 -117.794)" fill="#fff"/>
          <path id="Trazado_99279_-_Contorno" data-name="Trazado 99279 - Contorno" d="M457.086,119.521a1.114,1.114,0,1,1,1.141-1.113A1.129,1.129,0,0,1,457.086,119.521Z" transform="translate(-427.595 -117.794)" fill="#fff"/>
          <path id="Trazado_99280" data-name="Trazado 99280" d="M466.174,118.407a.642.642,0,1,1-.641-.613A.628.628,0,0,1,466.174,118.407Z" transform="translate(-430.272 -117.794)" fill="#fff"/>
          <path id="Trazado_99280_-_Contorno" data-name="Trazado 99280 - Contorno" d="M465.533,119.521a1.114,1.114,0,1,1,1.141-1.113A1.129,1.129,0,0,1,465.533,119.521Z" transform="translate(-430.272 -117.794)" fill="#fff"/>
          <path id="Trazado_99281" data-name="Trazado 99281" d="M474.62,118.407a.642.642,0,1,1-.641-.613A.628.628,0,0,1,474.62,118.407Z" transform="translate(-432.948 -117.794)" fill="#fff"/>
          <path id="Trazado_99281_-_Contorno" data-name="Trazado 99281 - Contorno" d="M473.98,119.521a1.114,1.114,0,1,1,1.141-1.113A1.129,1.129,0,0,1,473.98,119.521Z" transform="translate(-432.948 -117.794)" fill="#fff"/>
          <path id="Trazado_99282" data-name="Trazado 99282" d="M483.066,118.407a.642.642,0,1,1-.641-.613A.628.628,0,0,1,483.066,118.407Z" transform="translate(-435.624 -117.794)" fill="#fff"/>
          <path id="Trazado_99282_-_Contorno" data-name="Trazado 99282 - Contorno" d="M482.425,119.521a1.114,1.114,0,1,1,1.141-1.113A1.129,1.129,0,0,1,482.425,119.521Z" transform="translate(-435.624 -117.794)" fill="#fff"/>
          <path id="Trazado_99283" data-name="Trazado 99283" d="M491.513,118.407a.642.642,0,1,1-.641-.613A.628.628,0,0,1,491.513,118.407Z" transform="translate(-438.301 -117.794)" fill="#fff"/>
          <path id="Trazado_99283_-_Contorno" data-name="Trazado 99283 - Contorno" d="M490.872,119.521a1.114,1.114,0,1,1,1.141-1.113A1.129,1.129,0,0,1,490.872,119.521Z" transform="translate(-438.301 -117.794)" fill="#fff"/>
          <path id="Trazado_99284" data-name="Trazado 99284" d="M499.959,118.407a.642.642,0,1,1-.641-.613A.628.628,0,0,1,499.959,118.407Z" transform="translate(-440.977 -117.794)" fill="#fff"/>
          <path id="Trazado_99284_-_Contorno" data-name="Trazado 99284 - Contorno" d="M499.318,119.521a1.114,1.114,0,1,1,1.141-1.113A1.129,1.129,0,0,1,499.318,119.521Z" transform="translate(-440.977 -117.794)" fill="#fff"/>
        </g>
        <g id="Grupo_53316" data-name="Grupo 53316" transform="translate(0 49.049)">
          <ellipse id="Elipse_3980" data-name="Elipse 3980" cx="0.641" cy="0.613" rx="0.641" ry="0.613" transform="translate(0 0)" fill="#fff"/>
          <path id="Elipse_3980_-_Contorno" data-name="Elipse 3980 - Contorno" d="M.641-.5A1.129,1.129,0,0,1,1.782.613,1.129,1.129,0,0,1,.641,1.726,1.129,1.129,0,0,1-.5.613,1.129,1.129,0,0,1,.641-.5Z" transform="translate(0 0)" fill="#fff"/>
          <path id="Trazado_99285" data-name="Trazado 99285" d="M423.942,125.915a.642.642,0,1,1-.641-.613A.627.627,0,0,1,423.942,125.915Z" transform="translate(-416.89 -125.302)" fill="#fff"/>
          <path id="Trazado_99285_-_Contorno" data-name="Trazado 99285 - Contorno" d="M423.3,127.028a1.113,1.113,0,1,1,1.141-1.113A1.129,1.129,0,0,1,423.3,127.028Z" transform="translate(-416.89 -125.302)" fill="#fff"/>
          <ellipse id="Elipse_3981" data-name="Elipse 3981" cx="0.641" cy="0.613" rx="0.641" ry="0.613" transform="translate(11.54 0)" fill="#fff"/>
          <path id="Elipse_3981_-_Contorno" data-name="Elipse 3981 - Contorno" d="M.641-.5A1.129,1.129,0,0,1,1.782.613,1.129,1.129,0,0,1,.641,1.726,1.129,1.129,0,0,1-.5.613,1.129,1.129,0,0,1,.641-.5Z" transform="translate(11.54 0)" fill="#fff"/>
          <path id="Trazado_99286" data-name="Trazado 99286" d="M440.835,125.915a.642.642,0,1,1-.641-.613A.628.628,0,0,1,440.835,125.915Z" transform="translate(-422.243 -125.302)" fill="#fff"/>
          <path id="Trazado_99286_-_Contorno" data-name="Trazado 99286 - Contorno" d="M440.194,127.028a1.113,1.113,0,1,1,1.141-1.113A1.128,1.128,0,0,1,440.194,127.028Z" transform="translate(-422.243 -125.302)" fill="#fff"/>
          <path id="Trazado_99287" data-name="Trazado 99287" d="M449.281,125.915a.642.642,0,1,1-.641-.613A.627.627,0,0,1,449.281,125.915Z" transform="translate(-424.919 -125.302)" fill="#fff"/>
          <path id="Trazado_99287_-_Contorno" data-name="Trazado 99287 - Contorno" d="M448.64,127.028a1.113,1.113,0,1,1,1.141-1.113A1.129,1.129,0,0,1,448.64,127.028Z" transform="translate(-424.919 -125.302)" fill="#fff"/>
          <ellipse id="Elipse_3982" data-name="Elipse 3982" cx="0.641" cy="0.613" rx="0.641" ry="0.613" transform="translate(28.85 0)" fill="#fff"/>
          <path id="Elipse_3982_-_Contorno" data-name="Elipse 3982 - Contorno" d="M.641-.5A1.129,1.129,0,0,1,1.782.613,1.129,1.129,0,0,1,.641,1.726,1.129,1.129,0,0,1-.5.613,1.129,1.129,0,0,1,.641-.5Z" transform="translate(28.85 0)" fill="#fff"/>
          <path id="Trazado_99288" data-name="Trazado 99288" d="M466.174,125.915a.642.642,0,1,1-.641-.613A.628.628,0,0,1,466.174,125.915Z" transform="translate(-430.272 -125.302)" fill="#fff"/>
          <path id="Trazado_99288_-_Contorno" data-name="Trazado 99288 - Contorno" d="M465.533,127.028a1.113,1.113,0,1,1,1.141-1.113A1.128,1.128,0,0,1,465.533,127.028Z" transform="translate(-430.272 -125.302)" fill="#fff"/>
          <ellipse id="Elipse_3983" data-name="Elipse 3983" cx="0.641" cy="0.613" rx="0.641" ry="0.613" transform="translate(40.39 0)" fill="#fff"/>
          <path id="Elipse_3983_-_Contorno" data-name="Elipse 3983 - Contorno" d="M.641-.5A1.129,1.129,0,0,1,1.782.613,1.129,1.129,0,0,1,.641,1.726,1.129,1.129,0,0,1-.5.613,1.129,1.129,0,0,1,.641-.5Z" transform="translate(40.39 0)" fill="#fff"/>
          <ellipse id="Elipse_3984" data-name="Elipse 3984" cx="0.641" cy="0.613" rx="0.641" ry="0.613" transform="translate(46.16 0)" fill="#fff"/>
          <path id="Elipse_3984_-_Contorno" data-name="Elipse 3984 - Contorno" d="M.641-.5A1.129,1.129,0,0,1,1.782.613,1.129,1.129,0,0,1,.641,1.726,1.129,1.129,0,0,1-.5.613,1.129,1.129,0,0,1,.641-.5Z" transform="translate(46.16 0)" fill="#fff"/>
          <path id="Trazado_99289" data-name="Trazado 99289" d="M491.513,125.915a.642.642,0,1,1-.641-.613A.628.628,0,0,1,491.513,125.915Z" transform="translate(-438.3 -125.302)" fill="#fff"/>
          <path id="Trazado_99289_-_Contorno" data-name="Trazado 99289 - Contorno" d="M490.872,127.028a1.113,1.113,0,1,1,1.141-1.113A1.128,1.128,0,0,1,490.872,127.028Z" transform="translate(-438.3 -125.302)" fill="#fff"/>
          <path id="Trazado_99290" data-name="Trazado 99290" d="M499.959,125.915a.642.642,0,1,1-.641-.613A.627.627,0,0,1,499.959,125.915Z" transform="translate(-440.977 -125.302)" fill="#fff"/>
          <path id="Trazado_99290_-_Contorno" data-name="Trazado 99290 - Contorno" d="M499.318,127.028a1.113,1.113,0,1,1,1.141-1.113A1.128,1.128,0,0,1,499.318,127.028Z" transform="translate(-440.977 -125.302)" fill="#fff"/>
        </g>
        <g id="Grupo_53317" data-name="Grupo 53317" transform="translate(0 53.954)">
          <ellipse id="Elipse_3985" data-name="Elipse 3985" cx="0.641" cy="0.613" rx="0.641" ry="0.613" transform="translate(0 0)" fill="#fff"/>
          <path id="Elipse_3985_-_Contorno" data-name="Elipse 3985 - Contorno" d="M.641-.5A1.129,1.129,0,0,1,1.782.613,1.129,1.129,0,0,1,.641,1.726,1.129,1.129,0,0,1-.5.613,1.129,1.129,0,0,1,.641-.5Z" transform="translate(0 0)" fill="#fff"/>
          <path id="Trazado_99291" data-name="Trazado 99291" d="M423.942,133.423a.642.642,0,1,1-.641-.613A.627.627,0,0,1,423.942,133.423Z" transform="translate(-416.89 -132.81)" fill="#fff"/>
          <path id="Trazado_99291_-_Contorno" data-name="Trazado 99291 - Contorno" d="M423.3,134.536a1.113,1.113,0,1,1,1.141-1.113A1.129,1.129,0,0,1,423.3,134.536Z" transform="translate(-416.89 -132.81)" fill="#fff"/>
          <ellipse id="Elipse_3986" data-name="Elipse 3986" cx="0.641" cy="0.613" rx="0.641" ry="0.613" transform="translate(11.54 0)" fill="#fff"/>
          <path id="Elipse_3986_-_Contorno" data-name="Elipse 3986 - Contorno" d="M.641-.5A1.129,1.129,0,0,1,1.782.613,1.129,1.129,0,0,1,.641,1.726,1.129,1.129,0,0,1-.5.613,1.129,1.129,0,0,1,.641-.5Z" transform="translate(11.54 0)" fill="#fff"/>
          <path id="Trazado_99292" data-name="Trazado 99292" d="M440.835,133.423a.642.642,0,1,1-.641-.613A.627.627,0,0,1,440.835,133.423Z" transform="translate(-422.243 -132.81)" fill="#fff"/>
          <path id="Trazado_99292_-_Contorno" data-name="Trazado 99292 - Contorno" d="M440.194,134.536a1.113,1.113,0,1,1,1.141-1.113A1.128,1.128,0,0,1,440.194,134.536Z" transform="translate(-422.243 -132.81)" fill="#fff"/>
          <path id="Trazado_99293" data-name="Trazado 99293" d="M449.281,133.423a.642.642,0,1,1-.641-.613A.627.627,0,0,1,449.281,133.423Z" transform="translate(-424.919 -132.81)" fill="#fff"/>
          <path id="Trazado_99293_-_Contorno" data-name="Trazado 99293 - Contorno" d="M448.64,134.536a1.113,1.113,0,1,1,1.141-1.113A1.129,1.129,0,0,1,448.64,134.536Z" transform="translate(-424.919 -132.81)" fill="#fff"/>
          <ellipse id="Elipse_3987" data-name="Elipse 3987" cx="0.641" cy="0.613" rx="0.641" ry="0.613" transform="translate(28.85 0)" fill="#fff"/>
          <path id="Elipse_3987_-_Contorno" data-name="Elipse 3987 - Contorno" d="M.641-.5A1.129,1.129,0,0,1,1.782.613,1.129,1.129,0,0,1,.641,1.726,1.129,1.129,0,0,1-.5.613,1.129,1.129,0,0,1,.641-.5Z" transform="translate(28.85 0)" fill="#fff"/>
          <path id="Trazado_99294" data-name="Trazado 99294" d="M466.174,133.423a.642.642,0,1,1-.641-.613A.628.628,0,0,1,466.174,133.423Z" transform="translate(-430.272 -132.81)" fill="#fff"/>
          <path id="Trazado_99294_-_Contorno" data-name="Trazado 99294 - Contorno" d="M465.533,134.536a1.113,1.113,0,1,1,1.141-1.113A1.128,1.128,0,0,1,465.533,134.536Z" transform="translate(-430.272 -132.81)" fill="#fff"/>
          <ellipse id="Elipse_3988" data-name="Elipse 3988" cx="0.641" cy="0.613" rx="0.641" ry="0.613" transform="translate(40.39 0)" fill="#fff"/>
          <path id="Elipse_3988_-_Contorno" data-name="Elipse 3988 - Contorno" d="M.641-.5A1.129,1.129,0,0,1,1.782.613,1.129,1.129,0,0,1,.641,1.726,1.129,1.129,0,0,1-.5.613,1.129,1.129,0,0,1,.641-.5Z" transform="translate(40.39 0)" fill="#fff"/>
          <ellipse id="Elipse_3989" data-name="Elipse 3989" cx="0.641" cy="0.613" rx="0.641" ry="0.613" transform="translate(46.16 0)" fill="#fff"/>
          <path id="Elipse_3989_-_Contorno" data-name="Elipse 3989 - Contorno" d="M.641-.5A1.129,1.129,0,0,1,1.782.613,1.129,1.129,0,0,1,.641,1.726,1.129,1.129,0,0,1-.5.613,1.129,1.129,0,0,1,.641-.5Z" transform="translate(46.16 0)" fill="#fff"/>
          <path id="Trazado_99295" data-name="Trazado 99295" d="M491.513,133.423a.642.642,0,1,1-.641-.613A.628.628,0,0,1,491.513,133.423Z" transform="translate(-438.3 -132.81)" fill="#fff"/>
          <path id="Trazado_99295_-_Contorno" data-name="Trazado 99295 - Contorno" d="M490.872,134.536a1.113,1.113,0,1,1,1.141-1.113A1.128,1.128,0,0,1,490.872,134.536Z" transform="translate(-438.3 -132.81)" fill="#fff"/>
          <path id="Trazado_99296" data-name="Trazado 99296" d="M499.959,133.423a.642.642,0,1,1-.641-.613A.627.627,0,0,1,499.959,133.423Z" transform="translate(-440.977 -132.81)" fill="#fff"/>
          <path id="Trazado_99296_-_Contorno" data-name="Trazado 99296 - Contorno" d="M499.318,134.536a1.113,1.113,0,1,1,1.141-1.113A1.128,1.128,0,0,1,499.318,134.536Z" transform="translate(-440.977 -132.81)" fill="#fff"/>
        </g>
      </g>
      <path id="Línea_138" data-name="Línea 138" d="M-.452,101.43l0-5.43h1l0,5.43ZM-.458,88l0-8h1l0,8ZM-.466,72l0-8h1l0,8ZM-.474,56l0-8h1l0,8ZM-.481,40l0-8h1l0,8ZM-.489,24l0-8h1l0,8ZM-.5,8l0-8h1l0,8Z" transform="translate(441.5 947.5)" fill="#3c6d9d"/>
    </g>
    <g id="Grupo_134113" data-name="Grupo 134113" transform="translate(1604.5 -11700)">
      <rect id="Rectángulo_35704" data-name="Rectángulo 35704" width="100" height="100" transform="translate(538.5 988)" fill="none"/>
      <g id="monitor" transform="translate(-150.693 -1031.432)">
        <path id="Trazado_129138" data-name="Trazado 129138" d="M779.637,2045.058h-1.958a13.569,13.569,0,1,0-20.206,0H738.93v-15.077a1.51,1.51,0,0,0-1.51-1.51h-6.028a1.51,1.51,0,0,0-1.51,1.51v15.077h-1.51v-21.107a1.51,1.51,0,0,0-1.51-1.51h-6.025a1.51,1.51,0,0,0-1.51,1.51v21.107h-1.51V2034.5a1.51,1.51,0,0,0-1.51-1.51h-6.022a1.51,1.51,0,0,0-1.51,1.51v10.554H698.224a6.039,6.039,0,0,0-6.031,6.029v45.231a6.04,6.04,0,0,0,6.031,6.031H729.3l-2.013,6.031h-4.941a1.51,1.51,0,0,0-1.51,1.51h0v3.021H705.762a1.51,1.51,0,0,0,0,3.02H772.1a1.51,1.51,0,0,0,0-3.02h-15.08v-3.021a1.51,1.51,0,0,0-1.51-1.51h-4.936l-2.013-6.031h31.074a6.04,6.04,0,0,0,6.031-6.031v-45.231A6.04,6.04,0,0,0,779.637,2045.058Zm-10.554-19.491a10.57,10.57,0,0,1,8.937,8.938h-8.937Zm-.891,11.952h9.822a10.546,10.546,0,0,1-16.762,6.94Zm-11.177-1.51a10.569,10.569,0,0,1,9.046-10.444v9.821l-6.929,6.946a10.5,10.5,0,0,1-2.105-6.317Zm-24.122-4.53h3.02v28.655h-3.02Zm-4.53,16.583h1.51v12.062h-1.51Zm-6.018-22.6h3.02v34.676h-3.02Zm-4.53,22.615h1.51v12.061h-1.51Zm-6.031-12.061h3.02v24.122h-3.02Zm42.223,75.384v1.51H723.854v-1.51Zm-23.538-3.02,2.013-6.031h12.893l2.013,6.031Zm52.177-12.061a3.019,3.019,0,0,1-3.02,3.02h-81.4a3.02,3.02,0,0,1-3.02-3.02v-3.02h87.448Zm0-6.031H695.213v-39.2a3.02,3.02,0,0,1,3.02-3.02h10.554v12.062h-1.51v-9.042a1.51,1.51,0,0,0-1.51-1.51H699.73a1.51,1.51,0,0,0-1.51,1.51v10.555a1.51,1.51,0,0,0,1.51,1.51h48.246a1.51,1.51,0,0,0,1.51-1.51h0v-10.555a1.51,1.51,0,0,0-1.51-1.51h-6.03a1.51,1.51,0,0,0-1.51,1.51h0v9.046h-1.51v-12.061h22.446a13.518,13.518,0,0,0,12.415,0h5.857a3.02,3.02,0,0,1,3.02,3.02ZM704.254,2052.6v7.538h-3.02V2052.6Zm39.2,7.538V2052.6h3.02v7.538Z" fill="#fff"/>
        <path id="Trazado_129139" data-name="Trazado 129139" d="M712.253,2136.472h-9.044a1.51,1.51,0,0,0,0,3.02h9.046a1.51,1.51,0,0,0,0-3.02Z" transform="translate(-3.475 -41.661)" fill="#fff"/>
        <path id="Trazado_129140" data-name="Trazado 129140" d="M726.1,2136.472h-1.51a1.51,1.51,0,0,0,0,3.02h1.51a1.51,1.51,0,0,0,0-3.02Z" transform="translate(-11.285 -41.661)" fill="#fff"/>
        <path id="Trazado_129141" data-name="Trazado 129141" d="M791.1,2076.627a1.506,1.506,0,0,0,1.065-.441l5.588-5.589H810.7a1.51,1.51,0,1,0,0-3.02H797.13a1.514,1.514,0,0,0-1.066.441l-6.031,6.031a1.51,1.51,0,0,0,1.066,2.574Z" transform="translate(-35.583 -16.493)" fill="#fff"/>
        <path id="Trazado_129142" data-name="Trazado 129142" d="M778.576,2101.909a4.53,4.53,0,0,0-3.911,2.256l-15.784-9.209a4.529,4.529,0,0,0-8.878.112l-15.883,11.912a4.52,4.52,0,0,0-7.818.411l-15.7-6.543a4.531,4.531,0,1,0-.369,3.112l15.7,6.543a4.53,4.53,0,0,0,8.847-.248l15.882-11.912a4.518,4.518,0,0,0,7.7-.2l15.784,9.208a4.53,4.53,0,1,0,4.429-5.444Zm-70.861,0a1.51,1.51,0,1,1-1.51-1.51h0A1.51,1.51,0,0,1,707.715,2101.909Zm22.615,9.038a1.511,1.511,0,0,1-1.51-1.51h0a1.51,1.51,0,1,1,1.51,1.51Zm24.122-13.57a1.51,1.51,0,1,1,1.51-1.51h0A1.51,1.51,0,0,1,754.452,2097.378Zm24.122,10.554a1.51,1.51,0,1,1,1.51-1.51h0a1.51,1.51,0,0,1-1.5,1.517h-.005Z" transform="translate(-3.461 -25.189)" fill="#fff"/>
        <path id="Trazado_129143" data-name="Trazado 129143" d="M796.9,2122.219H786.35a1.51,1.51,0,0,0,0,3.02H796.9a1.51,1.51,0,0,0,0-3.02Z" transform="translate(-33.848 -36.454)" fill="#fff"/>
        <path id="Trazado_129144" data-name="Trazado 129144" d="M800.368,2115.093h-4.53a1.51,1.51,0,0,0,0,3.02h4.53a1.51,1.51,0,0,0,0-3.02Z" transform="translate(-37.314 -33.851)" fill="#fff"/>
        <path id="Trazado_129145" data-name="Trazado 129145" d="M703.206,2091.983h16.583a1.51,1.51,0,1,0,0-3.02H703.206a1.51,1.51,0,1,0,0,3.02Z" transform="translate(-3.472 -24.305)" fill="#fff"/>
        <path id="Trazado_129146" data-name="Trazado 129146" d="M736.462,2091.983h1.51a1.51,1.51,0,1,0,0-3.02h-1.51a1.51,1.51,0,1,0,0,3.02Z" transform="translate(-15.621 -24.305)" fill="#fff"/>
      </g>
    </g>
  </g>
</svg>
