<svg xmlns="http://www.w3.org/2000/svg" width="313" height="163" viewBox="0 0 313 163">
  <g id="Grupo_134895" data-name="Grupo 134895" transform="translate(-224 -1523)">
    <g id="Grupo_134104" data-name="Grupo 134104" transform="translate(-627 587)">
      <path id="Rectángulo_34846" data-name="Rectángulo 34846" d="M0,0H271a42,42,0,0,1,42,42V163a0,0,0,0,1,0,0H42A42,42,0,0,1,0,121V0A0,0,0,0,1,0,0Z" transform="translate(851 936)" fill="#3c6d9d"/>
      <path id="Trazado_145971" data-name="Trazado 145971" d="M8.18,0A8.18,8.18,0,1,1,0,8.18,8.18,8.18,0,0,1,8.18,0Z" transform="translate(885.317 1062.538)" fill="#64b5f6" opacity="0.444" style="mix-blend-mode: multiply;isolation: isolate"/>
      <g id="Grupo_78276" data-name="Grupo 78276" transform="translate(1089.437 1030.84)">
        <g id="Grupo_53306" data-name="Grupo 53306" transform="translate(0)">
          <path id="Trazado_99200" data-name="Trazado 99200" d="M415.5,50.837a.642.642,0,1,1-.642-.613A.628.628,0,0,1,415.5,50.837Z" transform="translate(-414.214 -50.224)" fill="#fff"/>
          <path id="Trazado_99200_-_Contorno" data-name="Trazado 99200 - Contorno" d="M414.855,49.724a1.113,1.113,0,1,1-1.141,1.113A1.129,1.129,0,0,1,414.855,49.724Z" transform="translate(-414.214 -50.224)" fill="#fff"/>
          <path id="Trazado_99201" data-name="Trazado 99201" d="M423.942,50.837a.642.642,0,1,1-.641-.613A.627.627,0,0,1,423.942,50.837Z" transform="translate(-416.89 -50.224)" fill="#fff"/>
          <path id="Trazado_99201_-_Contorno" data-name="Trazado 99201 - Contorno" d="M423.3,49.724a1.113,1.113,0,1,1-1.141,1.113A1.128,1.128,0,0,1,423.3,49.724Z" transform="translate(-416.89 -50.224)" fill="#fff"/>
          <path id="Trazado_99202" data-name="Trazado 99202" d="M432.388,50.837a.642.642,0,1,1-.641-.613A.627.627,0,0,1,432.388,50.837Z" transform="translate(-419.566 -50.224)" fill="#fff"/>
          <path id="Trazado_99202_-_Contorno" data-name="Trazado 99202 - Contorno" d="M431.747,49.724a1.113,1.113,0,1,1-1.142,1.113A1.128,1.128,0,0,1,431.747,49.724Z" transform="translate(-419.566 -50.224)" fill="#fff"/>
          <path id="Trazado_99203" data-name="Trazado 99203" d="M440.835,50.837a.642.642,0,1,1-.641-.613A.628.628,0,0,1,440.835,50.837Z" transform="translate(-422.243 -50.224)" fill="#fff"/>
          <path id="Trazado_99203_-_Contorno" data-name="Trazado 99203 - Contorno" d="M440.194,49.724a1.113,1.113,0,1,1-1.141,1.113A1.129,1.129,0,0,1,440.194,49.724Z" transform="translate(-422.243 -50.224)" fill="#fff"/>
          <path id="Trazado_99204" data-name="Trazado 99204" d="M449.281,50.837a.642.642,0,1,1-.641-.613A.627.627,0,0,1,449.281,50.837Z" transform="translate(-424.919 -50.224)" fill="#fff"/>
          <path id="Trazado_99204_-_Contorno" data-name="Trazado 99204 - Contorno" d="M448.64,49.724a1.113,1.113,0,1,1-1.141,1.113A1.128,1.128,0,0,1,448.64,49.724Z" transform="translate(-424.919 -50.224)" fill="#fff"/>
          <path id="Trazado_99205" data-name="Trazado 99205" d="M457.727,50.837a.642.642,0,1,1-.641-.613A.627.627,0,0,1,457.727,50.837Z" transform="translate(-427.595 -50.224)" fill="#fff"/>
          <path id="Trazado_99205_-_Contorno" data-name="Trazado 99205 - Contorno" d="M457.086,49.724a1.113,1.113,0,1,1-1.141,1.113A1.128,1.128,0,0,1,457.086,49.724Z" transform="translate(-427.595 -50.224)" fill="#fff"/>
          <path id="Trazado_99206" data-name="Trazado 99206" d="M466.174,50.837a.642.642,0,1,1-.641-.613A.628.628,0,0,1,466.174,50.837Z" transform="translate(-430.272 -50.224)" fill="#fff"/>
          <path id="Trazado_99206_-_Contorno" data-name="Trazado 99206 - Contorno" d="M465.533,49.724a1.113,1.113,0,1,1-1.141,1.113A1.129,1.129,0,0,1,465.533,49.724Z" transform="translate(-430.272 -50.224)" fill="#fff"/>
          <path id="Trazado_99207" data-name="Trazado 99207" d="M474.62,50.837a.642.642,0,1,1-.641-.613A.627.627,0,0,1,474.62,50.837Z" transform="translate(-432.948 -50.224)" fill="#fff"/>
          <path id="Trazado_99207_-_Contorno" data-name="Trazado 99207 - Contorno" d="M473.98,49.724a1.113,1.113,0,1,1-1.141,1.113A1.128,1.128,0,0,1,473.98,49.724Z" transform="translate(-432.948 -50.224)" fill="#fff"/>
          <path id="Trazado_99208" data-name="Trazado 99208" d="M483.066,50.837a.642.642,0,1,1-.641-.613A.627.627,0,0,1,483.066,50.837Z" transform="translate(-435.624 -50.224)" fill="#fff"/>
          <path id="Trazado_99208_-_Contorno" data-name="Trazado 99208 - Contorno" d="M482.425,49.724a1.113,1.113,0,1,1-1.142,1.113A1.128,1.128,0,0,1,482.425,49.724Z" transform="translate(-435.624 -50.224)" fill="#fff"/>
          <path id="Trazado_99209" data-name="Trazado 99209" d="M491.513,50.837a.642.642,0,1,1-.641-.613A.628.628,0,0,1,491.513,50.837Z" transform="translate(-438.301 -50.224)" fill="#fff"/>
          <path id="Trazado_99209_-_Contorno" data-name="Trazado 99209 - Contorno" d="M490.872,49.724a1.113,1.113,0,1,1-1.141,1.113A1.129,1.129,0,0,1,490.872,49.724Z" transform="translate(-438.301 -50.224)" fill="#fff"/>
          <path id="Trazado_99210" data-name="Trazado 99210" d="M499.959,50.837a.642.642,0,1,1-.641-.613A.628.628,0,0,1,499.959,50.837Z" transform="translate(-440.977 -50.224)" fill="#fff"/>
          <path id="Trazado_99210_-_Contorno" data-name="Trazado 99210 - Contorno" d="M499.318,49.724a1.113,1.113,0,1,1-1.141,1.113A1.129,1.129,0,0,1,499.318,49.724Z" transform="translate(-440.977 -50.224)" fill="#fff"/>
        </g>
        <g id="Grupo_53307" data-name="Grupo 53307" transform="translate(0 4.905)">
          <path id="Trazado_99211" data-name="Trazado 99211" d="M415.5,58.345a.642.642,0,1,1-.642-.613A.628.628,0,0,1,415.5,58.345Z" transform="translate(-414.214 -57.732)" fill="#fff"/>
          <path id="Trazado_99211_-_Contorno" data-name="Trazado 99211 - Contorno" d="M414.855,57.232a1.113,1.113,0,1,1-1.141,1.113A1.129,1.129,0,0,1,414.855,57.232Z" transform="translate(-414.214 -57.732)" fill="#fff"/>
          <path id="Trazado_99212" data-name="Trazado 99212" d="M423.942,58.345a.642.642,0,1,1-.641-.613A.627.627,0,0,1,423.942,58.345Z" transform="translate(-416.89 -57.732)" fill="#fff"/>
          <path id="Trazado_99212_-_Contorno" data-name="Trazado 99212 - Contorno" d="M423.3,57.232a1.113,1.113,0,1,1-1.141,1.113A1.128,1.128,0,0,1,423.3,57.232Z" transform="translate(-416.89 -57.732)" fill="#fff"/>
          <path id="Trazado_99213" data-name="Trazado 99213" d="M432.388,58.345a.642.642,0,1,1-.641-.613A.627.627,0,0,1,432.388,58.345Z" transform="translate(-419.566 -57.732)" fill="#fff"/>
          <path id="Trazado_99213_-_Contorno" data-name="Trazado 99213 - Contorno" d="M431.747,57.232a1.113,1.113,0,1,1-1.142,1.113A1.128,1.128,0,0,1,431.747,57.232Z" transform="translate(-419.566 -57.732)" fill="#fff"/>
          <path id="Trazado_99214" data-name="Trazado 99214" d="M440.835,58.345a.642.642,0,1,1-.641-.613A.628.628,0,0,1,440.835,58.345Z" transform="translate(-422.243 -57.732)" fill="#fff"/>
          <path id="Trazado_99214_-_Contorno" data-name="Trazado 99214 - Contorno" d="M440.194,57.232a1.113,1.113,0,1,1-1.141,1.113A1.129,1.129,0,0,1,440.194,57.232Z" transform="translate(-422.243 -57.732)" fill="#fff"/>
          <path id="Trazado_99215" data-name="Trazado 99215" d="M449.281,58.345a.642.642,0,1,1-.641-.613A.627.627,0,0,1,449.281,58.345Z" transform="translate(-424.919 -57.732)" fill="#fff"/>
          <path id="Trazado_99215_-_Contorno" data-name="Trazado 99215 - Contorno" d="M448.64,57.232a1.113,1.113,0,1,1-1.141,1.113A1.128,1.128,0,0,1,448.64,57.232Z" transform="translate(-424.919 -57.732)" fill="#fff"/>
          <path id="Trazado_99216" data-name="Trazado 99216" d="M457.727,58.345a.642.642,0,1,1-.641-.613A.627.627,0,0,1,457.727,58.345Z" transform="translate(-427.595 -57.732)" fill="#fff"/>
          <path id="Trazado_99216_-_Contorno" data-name="Trazado 99216 - Contorno" d="M457.086,57.232a1.113,1.113,0,1,1-1.141,1.113A1.128,1.128,0,0,1,457.086,57.232Z" transform="translate(-427.595 -57.732)" fill="#fff"/>
          <path id="Trazado_99217" data-name="Trazado 99217" d="M466.174,58.345a.642.642,0,1,1-.641-.613A.628.628,0,0,1,466.174,58.345Z" transform="translate(-430.272 -57.732)" fill="#fff"/>
          <path id="Trazado_99217_-_Contorno" data-name="Trazado 99217 - Contorno" d="M465.533,57.232a1.113,1.113,0,1,1-1.141,1.113A1.129,1.129,0,0,1,465.533,57.232Z" transform="translate(-430.272 -57.732)" fill="#fff"/>
          <path id="Trazado_99218" data-name="Trazado 99218" d="M474.62,58.345a.642.642,0,1,1-.641-.613A.627.627,0,0,1,474.62,58.345Z" transform="translate(-432.948 -57.732)" fill="#fff"/>
          <path id="Trazado_99218_-_Contorno" data-name="Trazado 99218 - Contorno" d="M473.98,57.232a1.113,1.113,0,1,1-1.141,1.113A1.128,1.128,0,0,1,473.98,57.232Z" transform="translate(-432.948 -57.732)" fill="#fff"/>
          <path id="Trazado_99219" data-name="Trazado 99219" d="M483.066,58.345a.642.642,0,1,1-.641-.613A.627.627,0,0,1,483.066,58.345Z" transform="translate(-435.624 -57.732)" fill="#fff"/>
          <path id="Trazado_99219_-_Contorno" data-name="Trazado 99219 - Contorno" d="M482.425,57.232a1.113,1.113,0,1,1-1.142,1.113A1.128,1.128,0,0,1,482.425,57.232Z" transform="translate(-435.624 -57.732)" fill="#fff"/>
          <path id="Trazado_99220" data-name="Trazado 99220" d="M491.513,58.345a.642.642,0,1,1-.641-.613A.628.628,0,0,1,491.513,58.345Z" transform="translate(-438.301 -57.732)" fill="#fff"/>
          <path id="Trazado_99220_-_Contorno" data-name="Trazado 99220 - Contorno" d="M490.872,57.232a1.113,1.113,0,1,1-1.141,1.113A1.129,1.129,0,0,1,490.872,57.232Z" transform="translate(-438.301 -57.732)" fill="#fff"/>
          <path id="Trazado_99221" data-name="Trazado 99221" d="M499.959,58.345a.642.642,0,1,1-.641-.613A.628.628,0,0,1,499.959,58.345Z" transform="translate(-440.977 -57.732)" fill="#fff"/>
          <path id="Trazado_99221_-_Contorno" data-name="Trazado 99221 - Contorno" d="M499.318,57.232a1.113,1.113,0,1,1-1.141,1.113A1.129,1.129,0,0,1,499.318,57.232Z" transform="translate(-440.977 -57.732)" fill="#fff"/>
        </g>
        <g id="Grupo_53308" data-name="Grupo 53308" transform="translate(0 9.81)">
          <ellipse id="Elipse_3955" data-name="Elipse 3955" cx="0.641" cy="0.613" rx="0.641" ry="0.613" fill="#fff"/>
          <path id="Elipse_3955_-_Contorno" data-name="Elipse 3955 - Contorno" d="M.641-.5A1.129,1.129,0,0,1,1.782.613,1.129,1.129,0,0,1,.641,1.726,1.129,1.129,0,0,1-.5.613,1.129,1.129,0,0,1,.641-.5Z" fill="#fff"/>
          <path id="Trazado_99222" data-name="Trazado 99222" d="M423.942,65.853a.642.642,0,1,1-.641-.613A.628.628,0,0,1,423.942,65.853Z" transform="translate(-416.89 -65.24)" fill="#fff"/>
          <path id="Trazado_99222_-_Contorno" data-name="Trazado 99222 - Contorno" d="M423.3,64.74a1.113,1.113,0,1,1-1.141,1.113A1.128,1.128,0,0,1,423.3,64.74Z" transform="translate(-416.89 -65.24)" fill="#fff"/>
          <ellipse id="Elipse_3956" data-name="Elipse 3956" cx="0.641" cy="0.613" rx="0.641" ry="0.613" transform="translate(11.54)" fill="#fff"/>
          <path id="Elipse_3956_-_Contorno" data-name="Elipse 3956 - Contorno" d="M.641-.5A1.129,1.129,0,0,1,1.782.613,1.129,1.129,0,0,1,.641,1.726,1.129,1.129,0,0,1-.5.613,1.129,1.129,0,0,1,.641-.5Z" transform="translate(11.54)" fill="#fff"/>
          <path id="Trazado_99223" data-name="Trazado 99223" d="M440.835,65.853a.642.642,0,1,1-.641-.613A.628.628,0,0,1,440.835,65.853Z" transform="translate(-422.243 -65.24)" fill="#fff"/>
          <path id="Trazado_99223_-_Contorno" data-name="Trazado 99223 - Contorno" d="M440.194,64.74a1.113,1.113,0,1,1-1.141,1.113A1.129,1.129,0,0,1,440.194,64.74Z" transform="translate(-422.243 -65.24)" fill="#fff"/>
          <path id="Trazado_99224" data-name="Trazado 99224" d="M449.281,65.853a.642.642,0,1,1-.641-.613A.628.628,0,0,1,449.281,65.853Z" transform="translate(-424.919 -65.24)" fill="#fff"/>
          <path id="Trazado_99224_-_Contorno" data-name="Trazado 99224 - Contorno" d="M448.64,64.74a1.113,1.113,0,1,1-1.141,1.113A1.128,1.128,0,0,1,448.64,64.74Z" transform="translate(-424.919 -65.24)" fill="#fff"/>
          <ellipse id="Elipse_3957" data-name="Elipse 3957" cx="0.641" cy="0.613" rx="0.641" ry="0.613" transform="translate(28.85)" fill="#fff"/>
          <path id="Elipse_3957_-_Contorno" data-name="Elipse 3957 - Contorno" d="M.641-.5A1.129,1.129,0,0,1,1.782.613,1.129,1.129,0,0,1,.641,1.726,1.129,1.129,0,0,1-.5.613,1.129,1.129,0,0,1,.641-.5Z" transform="translate(28.85)" fill="#fff"/>
          <path id="Trazado_99225" data-name="Trazado 99225" d="M466.174,65.853a.642.642,0,1,1-.641-.613A.628.628,0,0,1,466.174,65.853Z" transform="translate(-430.272 -65.24)" fill="#fff"/>
          <path id="Trazado_99225_-_Contorno" data-name="Trazado 99225 - Contorno" d="M465.533,64.74a1.113,1.113,0,1,1-1.141,1.113A1.129,1.129,0,0,1,465.533,64.74Z" transform="translate(-430.272 -65.24)" fill="#fff"/>
          <ellipse id="Elipse_3958" data-name="Elipse 3958" cx="0.641" cy="0.613" rx="0.641" ry="0.613" transform="translate(40.39)" fill="#fff"/>
          <path id="Elipse_3958_-_Contorno" data-name="Elipse 3958 - Contorno" d="M.641-.5A1.129,1.129,0,0,1,1.782.613,1.129,1.129,0,0,1,.641,1.726,1.129,1.129,0,0,1-.5.613,1.129,1.129,0,0,1,.641-.5Z" transform="translate(40.39)" fill="#fff"/>
          <ellipse id="Elipse_3959" data-name="Elipse 3959" cx="0.641" cy="0.613" rx="0.641" ry="0.613" transform="translate(46.16)" fill="#fff"/>
          <path id="Elipse_3959_-_Contorno" data-name="Elipse 3959 - Contorno" d="M.641-.5A1.129,1.129,0,0,1,1.782.613,1.129,1.129,0,0,1,.641,1.726,1.129,1.129,0,0,1-.5.613,1.129,1.129,0,0,1,.641-.5Z" transform="translate(46.16)" fill="#fff"/>
          <path id="Trazado_99226" data-name="Trazado 99226" d="M491.513,65.853a.642.642,0,1,1-.641-.613A.628.628,0,0,1,491.513,65.853Z" transform="translate(-438.3 -65.24)" fill="#fff"/>
          <path id="Trazado_99226_-_Contorno" data-name="Trazado 99226 - Contorno" d="M490.872,64.74a1.113,1.113,0,1,1-1.141,1.113A1.129,1.129,0,0,1,490.872,64.74Z" transform="translate(-438.3 -65.24)" fill="#fff"/>
          <path id="Trazado_99227" data-name="Trazado 99227" d="M499.959,65.853a.642.642,0,1,1-.641-.613A.628.628,0,0,1,499.959,65.853Z" transform="translate(-440.977 -65.24)" fill="#fff"/>
          <path id="Trazado_99227_-_Contorno" data-name="Trazado 99227 - Contorno" d="M499.318,64.74a1.113,1.113,0,1,1-1.141,1.113A1.129,1.129,0,0,1,499.318,64.74Z" transform="translate(-440.977 -65.24)" fill="#fff"/>
        </g>
        <g id="Grupo_53309" data-name="Grupo 53309" transform="translate(0 14.714)">
          <ellipse id="Elipse_3960" data-name="Elipse 3960" cx="0.641" cy="0.613" rx="0.641" ry="0.613" transform="translate(0 0)" fill="#fff"/>
          <path id="Elipse_3960_-_Contorno" data-name="Elipse 3960 - Contorno" d="M.641-.5A1.129,1.129,0,0,1,1.782.613,1.129,1.129,0,0,1,.641,1.726,1.129,1.129,0,0,1-.5.613,1.129,1.129,0,0,1,.641-.5Z" transform="translate(0 0)" fill="#fff"/>
          <path id="Trazado_99228" data-name="Trazado 99228" d="M423.942,73.36a.642.642,0,1,1-.641-.613A.627.627,0,0,1,423.942,73.36Z" transform="translate(-416.89 -72.747)" fill="#fff"/>
          <path id="Trazado_99228_-_Contorno" data-name="Trazado 99228 - Contorno" d="M423.3,74.473a1.113,1.113,0,1,1,1.141-1.113A1.129,1.129,0,0,1,423.3,74.473Z" transform="translate(-416.89 -72.747)" fill="#fff"/>
          <ellipse id="Elipse_3961" data-name="Elipse 3961" cx="0.641" cy="0.613" rx="0.641" ry="0.613" transform="translate(11.54 0)" fill="#fff"/>
          <path id="Elipse_3961_-_Contorno" data-name="Elipse 3961 - Contorno" d="M.641-.5A1.129,1.129,0,0,1,1.782.613,1.129,1.129,0,0,1,.641,1.726,1.129,1.129,0,0,1-.5.613,1.129,1.129,0,0,1,.641-.5Z" transform="translate(11.54 0)" fill="#fff"/>
          <path id="Trazado_99229" data-name="Trazado 99229" d="M440.835,73.36a.642.642,0,1,1-.641-.613A.627.627,0,0,1,440.835,73.36Z" transform="translate(-422.243 -72.747)" fill="#fff"/>
          <path id="Trazado_99229_-_Contorno" data-name="Trazado 99229 - Contorno" d="M440.194,74.473a1.113,1.113,0,1,1,1.141-1.113A1.128,1.128,0,0,1,440.194,74.473Z" transform="translate(-422.243 -72.747)" fill="#fff"/>
          <path id="Trazado_99230" data-name="Trazado 99230" d="M449.281,73.36a.642.642,0,1,1-.641-.613A.627.627,0,0,1,449.281,73.36Z" transform="translate(-424.919 -72.747)" fill="#fff"/>
          <path id="Trazado_99230_-_Contorno" data-name="Trazado 99230 - Contorno" d="M448.64,74.473a1.113,1.113,0,1,1,1.141-1.113A1.129,1.129,0,0,1,448.64,74.473Z" transform="translate(-424.919 -72.747)" fill="#fff"/>
          <ellipse id="Elipse_3962" data-name="Elipse 3962" cx="0.641" cy="0.613" rx="0.641" ry="0.613" transform="translate(28.85 0)" fill="#fff"/>
          <path id="Elipse_3962_-_Contorno" data-name="Elipse 3962 - Contorno" d="M.641-.5A1.129,1.129,0,0,1,1.782.613,1.129,1.129,0,0,1,.641,1.726,1.129,1.129,0,0,1-.5.613,1.129,1.129,0,0,1,.641-.5Z" transform="translate(28.85 0)" fill="#fff"/>
          <path id="Trazado_99231" data-name="Trazado 99231" d="M466.174,73.36a.642.642,0,1,1-.641-.613A.628.628,0,0,1,466.174,73.36Z" transform="translate(-430.272 -72.747)" fill="#fff"/>
          <path id="Trazado_99231_-_Contorno" data-name="Trazado 99231 - Contorno" d="M465.533,74.473a1.113,1.113,0,1,1,1.141-1.113A1.128,1.128,0,0,1,465.533,74.473Z" transform="translate(-430.272 -72.747)" fill="#fff"/>
          <ellipse id="Elipse_3963" data-name="Elipse 3963" cx="0.641" cy="0.613" rx="0.641" ry="0.613" transform="translate(40.39 0)" fill="#fff"/>
          <path id="Elipse_3963_-_Contorno" data-name="Elipse 3963 - Contorno" d="M.641-.5A1.129,1.129,0,0,1,1.782.613,1.129,1.129,0,0,1,.641,1.726,1.129,1.129,0,0,1-.5.613,1.129,1.129,0,0,1,.641-.5Z" transform="translate(40.39 0)" fill="#fff"/>
          <ellipse id="Elipse_3964" data-name="Elipse 3964" cx="0.641" cy="0.613" rx="0.641" ry="0.613" transform="translate(46.16 0)" fill="#fff"/>
          <path id="Elipse_3964_-_Contorno" data-name="Elipse 3964 - Contorno" d="M.641-.5A1.129,1.129,0,0,1,1.782.613,1.129,1.129,0,0,1,.641,1.726,1.129,1.129,0,0,1-.5.613,1.129,1.129,0,0,1,.641-.5Z" transform="translate(46.16 0)" fill="#fff"/>
          <path id="Trazado_99232" data-name="Trazado 99232" d="M491.513,73.36a.642.642,0,1,1-.641-.613A.628.628,0,0,1,491.513,73.36Z" transform="translate(-438.3 -72.747)" fill="#fff"/>
          <path id="Trazado_99232_-_Contorno" data-name="Trazado 99232 - Contorno" d="M490.872,74.473a1.113,1.113,0,1,1,1.141-1.113A1.128,1.128,0,0,1,490.872,74.473Z" transform="translate(-438.3 -72.747)" fill="#fff"/>
          <path id="Trazado_99233" data-name="Trazado 99233" d="M499.959,73.36a.642.642,0,1,1-.641-.613A.627.627,0,0,1,499.959,73.36Z" transform="translate(-440.977 -72.747)" fill="#fff"/>
          <path id="Trazado_99233_-_Contorno" data-name="Trazado 99233 - Contorno" d="M499.318,74.473a1.113,1.113,0,1,1,1.141-1.113A1.128,1.128,0,0,1,499.318,74.473Z" transform="translate(-440.977 -72.747)" fill="#fff"/>
        </g>
        <g id="Grupo_53310" data-name="Grupo 53310" transform="translate(0 19.619)">
          <path id="Trazado_99234" data-name="Trazado 99234" d="M415.5,80.868a.642.642,0,1,1-.642-.613A.628.628,0,0,1,415.5,80.868Z" transform="translate(-414.214 -80.255)" fill="#fff"/>
          <path id="Trazado_99234_-_Contorno" data-name="Trazado 99234 - Contorno" d="M414.855,81.981A1.113,1.113,0,1,1,416,80.868,1.128,1.128,0,0,1,414.855,81.981Z" transform="translate(-414.214 -80.255)" fill="#fff"/>
          <path id="Trazado_99235" data-name="Trazado 99235" d="M423.942,80.868a.642.642,0,1,1-.641-.613A.627.627,0,0,1,423.942,80.868Z" transform="translate(-416.89 -80.255)" fill="#fff"/>
          <path id="Trazado_99235_-_Contorno" data-name="Trazado 99235 - Contorno" d="M423.3,81.981a1.113,1.113,0,1,1,1.141-1.113A1.129,1.129,0,0,1,423.3,81.981Z" transform="translate(-416.89 -80.255)" fill="#fff"/>
          <path id="Trazado_99236" data-name="Trazado 99236" d="M432.388,80.868a.642.642,0,1,1-.641-.613A.627.627,0,0,1,432.388,80.868Z" transform="translate(-419.566 -80.255)" fill="#fff"/>
          <path id="Trazado_99236_-_Contorno" data-name="Trazado 99236 - Contorno" d="M431.747,81.981a1.113,1.113,0,1,1,1.141-1.113A1.129,1.129,0,0,1,431.747,81.981Z" transform="translate(-419.566 -80.255)" fill="#fff"/>
          <path id="Trazado_99237" data-name="Trazado 99237" d="M440.835,80.868a.642.642,0,1,1-.641-.613A.627.627,0,0,1,440.835,80.868Z" transform="translate(-422.243 -80.255)" fill="#fff"/>
          <path id="Trazado_99237_-_Contorno" data-name="Trazado 99237 - Contorno" d="M440.194,81.981a1.113,1.113,0,1,1,1.141-1.113A1.128,1.128,0,0,1,440.194,81.981Z" transform="translate(-422.243 -80.255)" fill="#fff"/>
          <path id="Trazado_99238" data-name="Trazado 99238" d="M449.281,80.868a.642.642,0,1,1-.641-.613A.627.627,0,0,1,449.281,80.868Z" transform="translate(-424.919 -80.255)" fill="#fff"/>
          <path id="Trazado_99238_-_Contorno" data-name="Trazado 99238 - Contorno" d="M448.64,81.981a1.113,1.113,0,1,1,1.141-1.113A1.129,1.129,0,0,1,448.64,81.981Z" transform="translate(-424.919 -80.255)" fill="#fff"/>
          <path id="Trazado_99239" data-name="Trazado 99239" d="M457.727,80.868a.642.642,0,1,1-.641-.613A.627.627,0,0,1,457.727,80.868Z" transform="translate(-427.595 -80.255)" fill="#fff"/>
          <path id="Trazado_99239_-_Contorno" data-name="Trazado 99239 - Contorno" d="M457.086,81.981a1.113,1.113,0,1,1,1.141-1.113A1.129,1.129,0,0,1,457.086,81.981Z" transform="translate(-427.595 -80.255)" fill="#fff"/>
          <path id="Trazado_99240" data-name="Trazado 99240" d="M466.174,80.868a.642.642,0,1,1-.641-.613A.628.628,0,0,1,466.174,80.868Z" transform="translate(-430.272 -80.255)" fill="#fff"/>
          <path id="Trazado_99240_-_Contorno" data-name="Trazado 99240 - Contorno" d="M465.533,81.981a1.113,1.113,0,1,1,1.141-1.113A1.128,1.128,0,0,1,465.533,81.981Z" transform="translate(-430.272 -80.255)" fill="#fff"/>
          <path id="Trazado_99241" data-name="Trazado 99241" d="M474.62,80.868a.642.642,0,1,1-.641-.613A.627.627,0,0,1,474.62,80.868Z" transform="translate(-432.948 -80.255)" fill="#fff"/>
          <path id="Trazado_99241_-_Contorno" data-name="Trazado 99241 - Contorno" d="M473.98,81.981a1.113,1.113,0,1,1,1.141-1.113A1.129,1.129,0,0,1,473.98,81.981Z" transform="translate(-432.948 -80.255)" fill="#fff"/>
          <path id="Trazado_99242" data-name="Trazado 99242" d="M483.066,80.868a.642.642,0,1,1-.641-.613A.627.627,0,0,1,483.066,80.868Z" transform="translate(-435.624 -80.255)" fill="#fff"/>
          <path id="Trazado_99242_-_Contorno" data-name="Trazado 99242 - Contorno" d="M482.425,81.981a1.113,1.113,0,1,1,1.141-1.113A1.129,1.129,0,0,1,482.425,81.981Z" transform="translate(-435.624 -80.255)" fill="#fff"/>
          <path id="Trazado_99243" data-name="Trazado 99243" d="M491.513,80.868a.642.642,0,1,1-.641-.613A.628.628,0,0,1,491.513,80.868Z" transform="translate(-438.301 -80.255)" fill="#fff"/>
          <path id="Trazado_99243_-_Contorno" data-name="Trazado 99243 - Contorno" d="M490.872,81.981a1.113,1.113,0,1,1,1.141-1.113A1.128,1.128,0,0,1,490.872,81.981Z" transform="translate(-438.301 -80.255)" fill="#fff"/>
          <path id="Trazado_99244" data-name="Trazado 99244" d="M499.959,80.868a.642.642,0,1,1-.641-.613A.627.627,0,0,1,499.959,80.868Z" transform="translate(-440.977 -80.255)" fill="#fff"/>
          <path id="Trazado_99244_-_Contorno" data-name="Trazado 99244 - Contorno" d="M499.318,81.981a1.113,1.113,0,1,1,1.141-1.113A1.128,1.128,0,0,1,499.318,81.981Z" transform="translate(-440.977 -80.255)" fill="#fff"/>
        </g>
        <g id="Grupo_53311" data-name="Grupo 53311" transform="translate(0 24.524)">
          <ellipse id="Elipse_3965" data-name="Elipse 3965" cx="0.641" cy="0.613" rx="0.641" ry="0.613" transform="translate(0 0)" fill="#fff"/>
          <path id="Elipse_3965_-_Contorno" data-name="Elipse 3965 - Contorno" d="M.641-.5A1.129,1.129,0,0,1,1.782.613,1.129,1.129,0,0,1,.641,1.726,1.129,1.129,0,0,1-.5.613,1.129,1.129,0,0,1,.641-.5Z" transform="translate(0 0)" fill="#fff"/>
          <path id="Trazado_99245" data-name="Trazado 99245" d="M423.942,88.376a.642.642,0,1,1-.641-.613A.627.627,0,0,1,423.942,88.376Z" transform="translate(-416.89 -87.763)" fill="#fff"/>
          <path id="Trazado_99245_-_Contorno" data-name="Trazado 99245 - Contorno" d="M423.3,89.489a1.113,1.113,0,1,1,1.141-1.113A1.129,1.129,0,0,1,423.3,89.489Z" transform="translate(-416.89 -87.763)" fill="#fff"/>
          <ellipse id="Elipse_3966" data-name="Elipse 3966" cx="0.641" cy="0.613" rx="0.641" ry="0.613" transform="translate(11.54 0)" fill="#fff"/>
          <path id="Elipse_3966_-_Contorno" data-name="Elipse 3966 - Contorno" d="M.641-.5A1.129,1.129,0,0,1,1.782.613,1.129,1.129,0,0,1,.641,1.726,1.129,1.129,0,0,1-.5.613,1.129,1.129,0,0,1,.641-.5Z" transform="translate(11.54 0)" fill="#fff"/>
          <path id="Trazado_99246" data-name="Trazado 99246" d="M440.835,88.376a.642.642,0,1,1-.641-.613A.628.628,0,0,1,440.835,88.376Z" transform="translate(-422.243 -87.763)" fill="#fff"/>
          <path id="Trazado_99246_-_Contorno" data-name="Trazado 99246 - Contorno" d="M440.194,89.489a1.113,1.113,0,1,1,1.141-1.113A1.128,1.128,0,0,1,440.194,89.489Z" transform="translate(-422.243 -87.763)" fill="#fff"/>
          <path id="Trazado_99247" data-name="Trazado 99247" d="M449.281,88.376a.642.642,0,1,1-.641-.613A.627.627,0,0,1,449.281,88.376Z" transform="translate(-424.919 -87.763)" fill="#fff"/>
          <path id="Trazado_99247_-_Contorno" data-name="Trazado 99247 - Contorno" d="M448.64,89.489a1.113,1.113,0,1,1,1.141-1.113A1.129,1.129,0,0,1,448.64,89.489Z" transform="translate(-424.919 -87.763)" fill="#fff"/>
          <ellipse id="Elipse_3967" data-name="Elipse 3967" cx="0.641" cy="0.613" rx="0.641" ry="0.613" transform="translate(28.85 0)" fill="#fff"/>
          <path id="Elipse_3967_-_Contorno" data-name="Elipse 3967 - Contorno" d="M.641-.5A1.129,1.129,0,0,1,1.782.613,1.129,1.129,0,0,1,.641,1.726,1.129,1.129,0,0,1-.5.613,1.129,1.129,0,0,1,.641-.5Z" transform="translate(28.85 0)" fill="#fff"/>
          <path id="Trazado_99248" data-name="Trazado 99248" d="M466.174,88.376a.642.642,0,1,1-.641-.613A.628.628,0,0,1,466.174,88.376Z" transform="translate(-430.272 -87.763)" fill="#fff"/>
          <path id="Trazado_99248_-_Contorno" data-name="Trazado 99248 - Contorno" d="M465.533,89.489a1.113,1.113,0,1,1,1.141-1.113A1.128,1.128,0,0,1,465.533,89.489Z" transform="translate(-430.272 -87.763)" fill="#fff"/>
          <ellipse id="Elipse_3968" data-name="Elipse 3968" cx="0.641" cy="0.613" rx="0.641" ry="0.613" transform="translate(40.39 0)" fill="#fff"/>
          <path id="Elipse_3968_-_Contorno" data-name="Elipse 3968 - Contorno" d="M.641-.5A1.129,1.129,0,0,1,1.782.613,1.129,1.129,0,0,1,.641,1.726,1.129,1.129,0,0,1-.5.613,1.129,1.129,0,0,1,.641-.5Z" transform="translate(40.39 0)" fill="#fff"/>
          <ellipse id="Elipse_3969" data-name="Elipse 3969" cx="0.641" cy="0.613" rx="0.641" ry="0.613" transform="translate(46.16 0)" fill="#fff"/>
          <path id="Elipse_3969_-_Contorno" data-name="Elipse 3969 - Contorno" d="M.641-.5A1.129,1.129,0,0,1,1.782.613,1.129,1.129,0,0,1,.641,1.726,1.129,1.129,0,0,1-.5.613,1.129,1.129,0,0,1,.641-.5Z" transform="translate(46.16 0)" fill="#fff"/>
          <path id="Trazado_99249" data-name="Trazado 99249" d="M491.513,88.376a.642.642,0,1,1-.641-.613A.628.628,0,0,1,491.513,88.376Z" transform="translate(-438.3 -87.763)" fill="#fff"/>
          <path id="Trazado_99249_-_Contorno" data-name="Trazado 99249 - Contorno" d="M490.872,89.489a1.113,1.113,0,1,1,1.141-1.113A1.128,1.128,0,0,1,490.872,89.489Z" transform="translate(-438.3 -87.763)" fill="#fff"/>
          <path id="Trazado_99250" data-name="Trazado 99250" d="M499.959,88.376a.642.642,0,1,1-.641-.613A.627.627,0,0,1,499.959,88.376Z" transform="translate(-440.977 -87.763)" fill="#fff"/>
          <path id="Trazado_99250_-_Contorno" data-name="Trazado 99250 - Contorno" d="M499.318,89.489a1.113,1.113,0,1,1,1.141-1.113A1.128,1.128,0,0,1,499.318,89.489Z" transform="translate(-440.977 -87.763)" fill="#fff"/>
        </g>
        <g id="Grupo_53312" data-name="Grupo 53312" transform="translate(0 29.429)">
          <ellipse id="Elipse_3970" data-name="Elipse 3970" cx="0.641" cy="0.613" rx="0.641" ry="0.613" fill="#fff"/>
          <path id="Elipse_3970_-_Contorno" data-name="Elipse 3970 - Contorno" d="M.641-.5A1.129,1.129,0,0,1,1.782.613,1.129,1.129,0,0,1,.641,1.726,1.129,1.129,0,0,1-.5.613,1.129,1.129,0,0,1,.641-.5Z" fill="#fff"/>
          <path id="Trazado_99251" data-name="Trazado 99251" d="M423.942,95.884a.642.642,0,1,1-.641-.613A.627.627,0,0,1,423.942,95.884Z" transform="translate(-416.89 -95.271)" fill="#fff"/>
          <path id="Trazado_99251_-_Contorno" data-name="Trazado 99251 - Contorno" d="M423.3,94.771a1.113,1.113,0,1,1-1.141,1.113A1.128,1.128,0,0,1,423.3,94.771Z" transform="translate(-416.89 -95.271)" fill="#fff"/>
          <ellipse id="Elipse_3971" data-name="Elipse 3971" cx="0.641" cy="0.613" rx="0.641" ry="0.613" transform="translate(11.54)" fill="#fff"/>
          <path id="Elipse_3971_-_Contorno" data-name="Elipse 3971 - Contorno" d="M.641-.5A1.129,1.129,0,0,1,1.782.613,1.129,1.129,0,0,1,.641,1.726,1.129,1.129,0,0,1-.5.613,1.129,1.129,0,0,1,.641-.5Z" transform="translate(11.54)" fill="#fff"/>
          <path id="Trazado_99252" data-name="Trazado 99252" d="M440.835,95.884a.642.642,0,1,1-.641-.613A.628.628,0,0,1,440.835,95.884Z" transform="translate(-422.243 -95.271)" fill="#fff"/>
          <path id="Trazado_99252_-_Contorno" data-name="Trazado 99252 - Contorno" d="M440.194,94.771a1.113,1.113,0,1,1-1.141,1.113A1.129,1.129,0,0,1,440.194,94.771Z" transform="translate(-422.243 -95.271)" fill="#fff"/>
          <path id="Trazado_99253" data-name="Trazado 99253" d="M449.281,95.884a.642.642,0,1,1-.641-.613A.627.627,0,0,1,449.281,95.884Z" transform="translate(-424.919 -95.271)" fill="#fff"/>
          <path id="Trazado_99253_-_Contorno" data-name="Trazado 99253 - Contorno" d="M448.64,94.771a1.113,1.113,0,1,1-1.141,1.113A1.128,1.128,0,0,1,448.64,94.771Z" transform="translate(-424.919 -95.271)" fill="#fff"/>
          <ellipse id="Elipse_3972" data-name="Elipse 3972" cx="0.641" cy="0.613" rx="0.641" ry="0.613" transform="translate(28.85)" fill="#fff"/>
          <path id="Elipse_3972_-_Contorno" data-name="Elipse 3972 - Contorno" d="M.641-.5A1.129,1.129,0,0,1,1.782.613,1.129,1.129,0,0,1,.641,1.726,1.129,1.129,0,0,1-.5.613,1.129,1.129,0,0,1,.641-.5Z" transform="translate(28.85)" fill="#fff"/>
          <path id="Trazado_99254" data-name="Trazado 99254" d="M466.174,95.884a.642.642,0,1,1-.641-.613A.628.628,0,0,1,466.174,95.884Z" transform="translate(-430.272 -95.271)" fill="#fff"/>
          <path id="Trazado_99254_-_Contorno" data-name="Trazado 99254 - Contorno" d="M465.533,94.771a1.113,1.113,0,1,1-1.141,1.113A1.129,1.129,0,0,1,465.533,94.771Z" transform="translate(-430.272 -95.271)" fill="#fff"/>
          <ellipse id="Elipse_3973" data-name="Elipse 3973" cx="0.641" cy="0.613" rx="0.641" ry="0.613" transform="translate(40.39)" fill="#fff"/>
          <path id="Elipse_3973_-_Contorno" data-name="Elipse 3973 - Contorno" d="M.641-.5A1.129,1.129,0,0,1,1.782.613,1.129,1.129,0,0,1,.641,1.726,1.129,1.129,0,0,1-.5.613,1.129,1.129,0,0,1,.641-.5Z" transform="translate(40.39)" fill="#fff"/>
          <ellipse id="Elipse_3974" data-name="Elipse 3974" cx="0.641" cy="0.613" rx="0.641" ry="0.613" transform="translate(46.16)" fill="#fff"/>
          <path id="Elipse_3974_-_Contorno" data-name="Elipse 3974 - Contorno" d="M.641-.5A1.129,1.129,0,0,1,1.782.613,1.129,1.129,0,0,1,.641,1.726,1.129,1.129,0,0,1-.5.613,1.129,1.129,0,0,1,.641-.5Z" transform="translate(46.16)" fill="#fff"/>
          <path id="Trazado_99255" data-name="Trazado 99255" d="M491.513,95.884a.642.642,0,1,1-.641-.613A.628.628,0,0,1,491.513,95.884Z" transform="translate(-438.3 -95.271)" fill="#fff"/>
          <path id="Trazado_99255_-_Contorno" data-name="Trazado 99255 - Contorno" d="M490.872,94.771a1.113,1.113,0,1,1-1.141,1.113A1.129,1.129,0,0,1,490.872,94.771Z" transform="translate(-438.3 -95.271)" fill="#fff"/>
          <path id="Trazado_99256" data-name="Trazado 99256" d="M499.959,95.884a.642.642,0,1,1-.641-.613A.628.628,0,0,1,499.959,95.884Z" transform="translate(-440.977 -95.271)" fill="#fff"/>
          <path id="Trazado_99256_-_Contorno" data-name="Trazado 99256 - Contorno" d="M499.318,94.771a1.113,1.113,0,1,1-1.141,1.113A1.129,1.129,0,0,1,499.318,94.771Z" transform="translate(-440.977 -95.271)" fill="#fff"/>
        </g>
        <g id="Grupo_53313" data-name="Grupo 53313" transform="translate(0 34.334)">
          <path id="Trazado_99257" data-name="Trazado 99257" d="M415.5,103.392a.642.642,0,1,1-.642-.613A.628.628,0,0,1,415.5,103.392Z" transform="translate(-414.214 -102.779)" fill="#fff"/>
          <path id="Trazado_99257_-_Contorno" data-name="Trazado 99257 - Contorno" d="M414.855,102.279a1.113,1.113,0,1,1-1.141,1.113A1.129,1.129,0,0,1,414.855,102.279Z" transform="translate(-414.214 -102.779)" fill="#fff"/>
          <path id="Trazado_99258" data-name="Trazado 99258" d="M423.942,103.392a.642.642,0,1,1-.641-.613A.627.627,0,0,1,423.942,103.392Z" transform="translate(-416.89 -102.779)" fill="#fff"/>
          <path id="Trazado_99258_-_Contorno" data-name="Trazado 99258 - Contorno" d="M423.3,102.279a1.113,1.113,0,1,1-1.141,1.113A1.128,1.128,0,0,1,423.3,102.279Z" transform="translate(-416.89 -102.779)" fill="#fff"/>
          <path id="Trazado_99259" data-name="Trazado 99259" d="M432.388,103.392a.642.642,0,1,1-.641-.613A.627.627,0,0,1,432.388,103.392Z" transform="translate(-419.566 -102.779)" fill="#fff"/>
          <path id="Trazado_99259_-_Contorno" data-name="Trazado 99259 - Contorno" d="M431.747,102.279a1.113,1.113,0,1,1-1.142,1.113A1.128,1.128,0,0,1,431.747,102.279Z" transform="translate(-419.566 -102.779)" fill="#fff"/>
          <path id="Trazado_99260" data-name="Trazado 99260" d="M440.835,103.392a.642.642,0,1,1-.641-.613A.628.628,0,0,1,440.835,103.392Z" transform="translate(-422.243 -102.779)" fill="#fff"/>
          <path id="Trazado_99260_-_Contorno" data-name="Trazado 99260 - Contorno" d="M440.194,102.279a1.113,1.113,0,1,1-1.141,1.113A1.129,1.129,0,0,1,440.194,102.279Z" transform="translate(-422.243 -102.779)" fill="#fff"/>
          <path id="Trazado_99261" data-name="Trazado 99261" d="M449.281,103.392a.642.642,0,1,1-.641-.613A.627.627,0,0,1,449.281,103.392Z" transform="translate(-424.919 -102.779)" fill="#fff"/>
          <path id="Trazado_99261_-_Contorno" data-name="Trazado 99261 - Contorno" d="M448.64,102.279a1.113,1.113,0,1,1-1.141,1.113A1.128,1.128,0,0,1,448.64,102.279Z" transform="translate(-424.919 -102.779)" fill="#fff"/>
          <path id="Trazado_99262" data-name="Trazado 99262" d="M457.727,103.392a.642.642,0,1,1-.641-.613A.627.627,0,0,1,457.727,103.392Z" transform="translate(-427.595 -102.779)" fill="#fff"/>
          <path id="Trazado_99262_-_Contorno" data-name="Trazado 99262 - Contorno" d="M457.086,102.279a1.113,1.113,0,1,1-1.141,1.113A1.128,1.128,0,0,1,457.086,102.279Z" transform="translate(-427.595 -102.779)" fill="#fff"/>
          <path id="Trazado_99263" data-name="Trazado 99263" d="M466.174,103.392a.642.642,0,1,1-.641-.613A.628.628,0,0,1,466.174,103.392Z" transform="translate(-430.272 -102.779)" fill="#fff"/>
          <path id="Trazado_99263_-_Contorno" data-name="Trazado 99263 - Contorno" d="M465.533,102.279a1.113,1.113,0,1,1-1.141,1.113A1.129,1.129,0,0,1,465.533,102.279Z" transform="translate(-430.272 -102.779)" fill="#fff"/>
          <path id="Trazado_99264" data-name="Trazado 99264" d="M474.62,103.392a.642.642,0,1,1-.641-.613A.627.627,0,0,1,474.62,103.392Z" transform="translate(-432.948 -102.779)" fill="#fff"/>
          <path id="Trazado_99264_-_Contorno" data-name="Trazado 99264 - Contorno" d="M473.98,102.279a1.113,1.113,0,1,1-1.141,1.113A1.128,1.128,0,0,1,473.98,102.279Z" transform="translate(-432.948 -102.779)" fill="#fff"/>
          <path id="Trazado_99265" data-name="Trazado 99265" d="M483.066,103.392a.642.642,0,1,1-.641-.613A.627.627,0,0,1,483.066,103.392Z" transform="translate(-435.624 -102.779)" fill="#fff"/>
          <path id="Trazado_99265_-_Contorno" data-name="Trazado 99265 - Contorno" d="M482.425,102.279a1.113,1.113,0,1,1-1.142,1.113A1.128,1.128,0,0,1,482.425,102.279Z" transform="translate(-435.624 -102.779)" fill="#fff"/>
          <path id="Trazado_99266" data-name="Trazado 99266" d="M491.513,103.392a.642.642,0,1,1-.641-.613A.628.628,0,0,1,491.513,103.392Z" transform="translate(-438.301 -102.779)" fill="#fff"/>
          <path id="Trazado_99266_-_Contorno" data-name="Trazado 99266 - Contorno" d="M490.872,102.279a1.113,1.113,0,1,1-1.141,1.113A1.129,1.129,0,0,1,490.872,102.279Z" transform="translate(-438.301 -102.779)" fill="#fff"/>
          <path id="Trazado_99267" data-name="Trazado 99267" d="M499.959,103.392a.642.642,0,1,1-.641-.613A.628.628,0,0,1,499.959,103.392Z" transform="translate(-440.977 -102.779)" fill="#fff"/>
          <path id="Trazado_99267_-_Contorno" data-name="Trazado 99267 - Contorno" d="M499.318,102.279a1.113,1.113,0,1,1-1.141,1.113A1.129,1.129,0,0,1,499.318,102.279Z" transform="translate(-440.977 -102.779)" fill="#fff"/>
        </g>
        <g id="Grupo_53314" data-name="Grupo 53314" transform="translate(0 39.239)">
          <ellipse id="Elipse_3975" data-name="Elipse 3975" cx="0.641" cy="0.613" rx="0.641" ry="0.613" fill="#fff"/>
          <path id="Elipse_3975_-_Contorno" data-name="Elipse 3975 - Contorno" d="M.641-.5A1.129,1.129,0,0,1,1.782.613,1.129,1.129,0,0,1,.641,1.726,1.129,1.129,0,0,1-.5.613,1.129,1.129,0,0,1,.641-.5Z" fill="#fff"/>
          <path id="Trazado_99268" data-name="Trazado 99268" d="M423.942,110.9a.642.642,0,1,1-.641-.613A.628.628,0,0,1,423.942,110.9Z" transform="translate(-416.89 -110.287)" fill="#fff"/>
          <path id="Trazado_99268_-_Contorno" data-name="Trazado 99268 - Contorno" d="M423.3,109.787a1.113,1.113,0,1,1-1.141,1.113A1.128,1.128,0,0,1,423.3,109.787Z" transform="translate(-416.89 -110.287)" fill="#fff"/>
          <ellipse id="Elipse_3976" data-name="Elipse 3976" cx="0.641" cy="0.613" rx="0.641" ry="0.613" transform="translate(11.54)" fill="#fff"/>
          <path id="Elipse_3976_-_Contorno" data-name="Elipse 3976 - Contorno" d="M.641-.5A1.129,1.129,0,0,1,1.782.613,1.129,1.129,0,0,1,.641,1.726,1.129,1.129,0,0,1-.5.613,1.129,1.129,0,0,1,.641-.5Z" transform="translate(11.54)" fill="#fff"/>
          <path id="Trazado_99269" data-name="Trazado 99269" d="M440.835,110.9a.642.642,0,1,1-.641-.613A.628.628,0,0,1,440.835,110.9Z" transform="translate(-422.243 -110.287)" fill="#fff"/>
          <path id="Trazado_99269_-_Contorno" data-name="Trazado 99269 - Contorno" d="M440.194,109.787a1.113,1.113,0,1,1-1.141,1.113A1.129,1.129,0,0,1,440.194,109.787Z" transform="translate(-422.243 -110.287)" fill="#fff"/>
          <path id="Trazado_99270" data-name="Trazado 99270" d="M449.281,110.9a.642.642,0,1,1-.641-.613A.628.628,0,0,1,449.281,110.9Z" transform="translate(-424.919 -110.287)" fill="#fff"/>
          <path id="Trazado_99270_-_Contorno" data-name="Trazado 99270 - Contorno" d="M448.64,109.787A1.113,1.113,0,1,1,447.5,110.9,1.128,1.128,0,0,1,448.64,109.787Z" transform="translate(-424.919 -110.287)" fill="#fff"/>
          <ellipse id="Elipse_3977" data-name="Elipse 3977" cx="0.641" cy="0.613" rx="0.641" ry="0.613" transform="translate(28.85)" fill="#fff"/>
          <path id="Elipse_3977_-_Contorno" data-name="Elipse 3977 - Contorno" d="M.641-.5A1.129,1.129,0,0,1,1.782.613,1.129,1.129,0,0,1,.641,1.726,1.129,1.129,0,0,1-.5.613,1.129,1.129,0,0,1,.641-.5Z" transform="translate(28.85)" fill="#fff"/>
          <path id="Trazado_99271" data-name="Trazado 99271" d="M466.174,110.9a.642.642,0,1,1-.641-.613A.628.628,0,0,1,466.174,110.9Z" transform="translate(-430.272 -110.287)" fill="#fff"/>
          <path id="Trazado_99271_-_Contorno" data-name="Trazado 99271 - Contorno" d="M465.533,109.787a1.113,1.113,0,1,1-1.141,1.113A1.129,1.129,0,0,1,465.533,109.787Z" transform="translate(-430.272 -110.287)" fill="#fff"/>
          <ellipse id="Elipse_3978" data-name="Elipse 3978" cx="0.641" cy="0.613" rx="0.641" ry="0.613" transform="translate(40.39)" fill="#fff"/>
          <path id="Elipse_3978_-_Contorno" data-name="Elipse 3978 - Contorno" d="M.641-.5A1.129,1.129,0,0,1,1.782.613,1.129,1.129,0,0,1,.641,1.726,1.129,1.129,0,0,1-.5.613,1.129,1.129,0,0,1,.641-.5Z" transform="translate(40.39)" fill="#fff"/>
          <ellipse id="Elipse_3979" data-name="Elipse 3979" cx="0.641" cy="0.613" rx="0.641" ry="0.613" transform="translate(46.16)" fill="#fff"/>
          <path id="Elipse_3979_-_Contorno" data-name="Elipse 3979 - Contorno" d="M.641-.5A1.129,1.129,0,0,1,1.782.613,1.129,1.129,0,0,1,.641,1.726,1.129,1.129,0,0,1-.5.613,1.129,1.129,0,0,1,.641-.5Z" transform="translate(46.16)" fill="#fff"/>
          <path id="Trazado_99272" data-name="Trazado 99272" d="M491.513,110.9a.642.642,0,1,1-.641-.613A.628.628,0,0,1,491.513,110.9Z" transform="translate(-438.3 -110.287)" fill="#fff"/>
          <path id="Trazado_99272_-_Contorno" data-name="Trazado 99272 - Contorno" d="M490.872,109.787a1.113,1.113,0,1,1-1.141,1.113A1.129,1.129,0,0,1,490.872,109.787Z" transform="translate(-438.3 -110.287)" fill="#fff"/>
          <path id="Trazado_99273" data-name="Trazado 99273" d="M499.959,110.9a.642.642,0,1,1-.641-.613A.628.628,0,0,1,499.959,110.9Z" transform="translate(-440.977 -110.287)" fill="#fff"/>
          <path id="Trazado_99273_-_Contorno" data-name="Trazado 99273 - Contorno" d="M499.318,109.787a1.113,1.113,0,1,1-1.141,1.113A1.129,1.129,0,0,1,499.318,109.787Z" transform="translate(-440.977 -110.287)" fill="#fff"/>
        </g>
        <g id="Grupo_53315" data-name="Grupo 53315" transform="translate(0 44.144)">
          <path id="Trazado_99274" data-name="Trazado 99274" d="M415.5,118.407a.642.642,0,1,1-.642-.613A.628.628,0,0,1,415.5,118.407Z" transform="translate(-414.214 -117.794)" fill="#fff"/>
          <path id="Trazado_99274_-_Contorno" data-name="Trazado 99274 - Contorno" d="M414.855,119.521A1.114,1.114,0,1,1,416,118.407,1.129,1.129,0,0,1,414.855,119.521Z" transform="translate(-414.214 -117.794)" fill="#fff"/>
          <path id="Trazado_99275" data-name="Trazado 99275" d="M423.942,118.407a.642.642,0,1,1-.641-.613A.628.628,0,0,1,423.942,118.407Z" transform="translate(-416.89 -117.794)" fill="#fff"/>
          <path id="Trazado_99275_-_Contorno" data-name="Trazado 99275 - Contorno" d="M423.3,119.521a1.114,1.114,0,1,1,1.141-1.113A1.129,1.129,0,0,1,423.3,119.521Z" transform="translate(-416.89 -117.794)" fill="#fff"/>
          <path id="Trazado_99276" data-name="Trazado 99276" d="M432.388,118.407a.642.642,0,1,1-.641-.613A.628.628,0,0,1,432.388,118.407Z" transform="translate(-419.566 -117.794)" fill="#fff"/>
          <path id="Trazado_99276_-_Contorno" data-name="Trazado 99276 - Contorno" d="M431.747,119.521a1.114,1.114,0,1,1,1.141-1.113A1.129,1.129,0,0,1,431.747,119.521Z" transform="translate(-419.566 -117.794)" fill="#fff"/>
          <path id="Trazado_99277" data-name="Trazado 99277" d="M440.835,118.407a.642.642,0,1,1-.641-.613A.628.628,0,0,1,440.835,118.407Z" transform="translate(-422.243 -117.794)" fill="#fff"/>
          <path id="Trazado_99277_-_Contorno" data-name="Trazado 99277 - Contorno" d="M440.194,119.521a1.114,1.114,0,1,1,1.141-1.113A1.129,1.129,0,0,1,440.194,119.521Z" transform="translate(-422.243 -117.794)" fill="#fff"/>
          <path id="Trazado_99278" data-name="Trazado 99278" d="M449.281,118.407a.642.642,0,1,1-.641-.613A.628.628,0,0,1,449.281,118.407Z" transform="translate(-424.919 -117.794)" fill="#fff"/>
          <path id="Trazado_99278_-_Contorno" data-name="Trazado 99278 - Contorno" d="M448.64,119.521a1.114,1.114,0,1,1,1.141-1.113A1.129,1.129,0,0,1,448.64,119.521Z" transform="translate(-424.919 -117.794)" fill="#fff"/>
          <path id="Trazado_99279" data-name="Trazado 99279" d="M457.727,118.407a.642.642,0,1,1-.641-.613A.628.628,0,0,1,457.727,118.407Z" transform="translate(-427.595 -117.794)" fill="#fff"/>
          <path id="Trazado_99279_-_Contorno" data-name="Trazado 99279 - Contorno" d="M457.086,119.521a1.114,1.114,0,1,1,1.141-1.113A1.129,1.129,0,0,1,457.086,119.521Z" transform="translate(-427.595 -117.794)" fill="#fff"/>
          <path id="Trazado_99280" data-name="Trazado 99280" d="M466.174,118.407a.642.642,0,1,1-.641-.613A.628.628,0,0,1,466.174,118.407Z" transform="translate(-430.272 -117.794)" fill="#fff"/>
          <path id="Trazado_99280_-_Contorno" data-name="Trazado 99280 - Contorno" d="M465.533,119.521a1.114,1.114,0,1,1,1.141-1.113A1.129,1.129,0,0,1,465.533,119.521Z" transform="translate(-430.272 -117.794)" fill="#fff"/>
          <path id="Trazado_99281" data-name="Trazado 99281" d="M474.62,118.407a.642.642,0,1,1-.641-.613A.628.628,0,0,1,474.62,118.407Z" transform="translate(-432.948 -117.794)" fill="#fff"/>
          <path id="Trazado_99281_-_Contorno" data-name="Trazado 99281 - Contorno" d="M473.98,119.521a1.114,1.114,0,1,1,1.141-1.113A1.129,1.129,0,0,1,473.98,119.521Z" transform="translate(-432.948 -117.794)" fill="#fff"/>
          <path id="Trazado_99282" data-name="Trazado 99282" d="M483.066,118.407a.642.642,0,1,1-.641-.613A.628.628,0,0,1,483.066,118.407Z" transform="translate(-435.624 -117.794)" fill="#fff"/>
          <path id="Trazado_99282_-_Contorno" data-name="Trazado 99282 - Contorno" d="M482.425,119.521a1.114,1.114,0,1,1,1.141-1.113A1.129,1.129,0,0,1,482.425,119.521Z" transform="translate(-435.624 -117.794)" fill="#fff"/>
          <path id="Trazado_99283" data-name="Trazado 99283" d="M491.513,118.407a.642.642,0,1,1-.641-.613A.628.628,0,0,1,491.513,118.407Z" transform="translate(-438.301 -117.794)" fill="#fff"/>
          <path id="Trazado_99283_-_Contorno" data-name="Trazado 99283 - Contorno" d="M490.872,119.521a1.114,1.114,0,1,1,1.141-1.113A1.129,1.129,0,0,1,490.872,119.521Z" transform="translate(-438.301 -117.794)" fill="#fff"/>
          <path id="Trazado_99284" data-name="Trazado 99284" d="M499.959,118.407a.642.642,0,1,1-.641-.613A.628.628,0,0,1,499.959,118.407Z" transform="translate(-440.977 -117.794)" fill="#fff"/>
          <path id="Trazado_99284_-_Contorno" data-name="Trazado 99284 - Contorno" d="M499.318,119.521a1.114,1.114,0,1,1,1.141-1.113A1.129,1.129,0,0,1,499.318,119.521Z" transform="translate(-440.977 -117.794)" fill="#fff"/>
        </g>
        <g id="Grupo_53316" data-name="Grupo 53316" transform="translate(0 49.049)">
          <ellipse id="Elipse_3980" data-name="Elipse 3980" cx="0.641" cy="0.613" rx="0.641" ry="0.613" transform="translate(0 0)" fill="#fff"/>
          <path id="Elipse_3980_-_Contorno" data-name="Elipse 3980 - Contorno" d="M.641-.5A1.129,1.129,0,0,1,1.782.613,1.129,1.129,0,0,1,.641,1.726,1.129,1.129,0,0,1-.5.613,1.129,1.129,0,0,1,.641-.5Z" transform="translate(0 0)" fill="#fff"/>
          <path id="Trazado_99285" data-name="Trazado 99285" d="M423.942,125.915a.642.642,0,1,1-.641-.613A.627.627,0,0,1,423.942,125.915Z" transform="translate(-416.89 -125.302)" fill="#fff"/>
          <path id="Trazado_99285_-_Contorno" data-name="Trazado 99285 - Contorno" d="M423.3,127.028a1.113,1.113,0,1,1,1.141-1.113A1.129,1.129,0,0,1,423.3,127.028Z" transform="translate(-416.89 -125.302)" fill="#fff"/>
          <ellipse id="Elipse_3981" data-name="Elipse 3981" cx="0.641" cy="0.613" rx="0.641" ry="0.613" transform="translate(11.54 0)" fill="#fff"/>
          <path id="Elipse_3981_-_Contorno" data-name="Elipse 3981 - Contorno" d="M.641-.5A1.129,1.129,0,0,1,1.782.613,1.129,1.129,0,0,1,.641,1.726,1.129,1.129,0,0,1-.5.613,1.129,1.129,0,0,1,.641-.5Z" transform="translate(11.54 0)" fill="#fff"/>
          <path id="Trazado_99286" data-name="Trazado 99286" d="M440.835,125.915a.642.642,0,1,1-.641-.613A.628.628,0,0,1,440.835,125.915Z" transform="translate(-422.243 -125.302)" fill="#fff"/>
          <path id="Trazado_99286_-_Contorno" data-name="Trazado 99286 - Contorno" d="M440.194,127.028a1.113,1.113,0,1,1,1.141-1.113A1.128,1.128,0,0,1,440.194,127.028Z" transform="translate(-422.243 -125.302)" fill="#fff"/>
          <path id="Trazado_99287" data-name="Trazado 99287" d="M449.281,125.915a.642.642,0,1,1-.641-.613A.627.627,0,0,1,449.281,125.915Z" transform="translate(-424.919 -125.302)" fill="#fff"/>
          <path id="Trazado_99287_-_Contorno" data-name="Trazado 99287 - Contorno" d="M448.64,127.028a1.113,1.113,0,1,1,1.141-1.113A1.129,1.129,0,0,1,448.64,127.028Z" transform="translate(-424.919 -125.302)" fill="#fff"/>
          <ellipse id="Elipse_3982" data-name="Elipse 3982" cx="0.641" cy="0.613" rx="0.641" ry="0.613" transform="translate(28.85 0)" fill="#fff"/>
          <path id="Elipse_3982_-_Contorno" data-name="Elipse 3982 - Contorno" d="M.641-.5A1.129,1.129,0,0,1,1.782.613,1.129,1.129,0,0,1,.641,1.726,1.129,1.129,0,0,1-.5.613,1.129,1.129,0,0,1,.641-.5Z" transform="translate(28.85 0)" fill="#fff"/>
          <path id="Trazado_99288" data-name="Trazado 99288" d="M466.174,125.915a.642.642,0,1,1-.641-.613A.628.628,0,0,1,466.174,125.915Z" transform="translate(-430.272 -125.302)" fill="#fff"/>
          <path id="Trazado_99288_-_Contorno" data-name="Trazado 99288 - Contorno" d="M465.533,127.028a1.113,1.113,0,1,1,1.141-1.113A1.128,1.128,0,0,1,465.533,127.028Z" transform="translate(-430.272 -125.302)" fill="#fff"/>
          <ellipse id="Elipse_3983" data-name="Elipse 3983" cx="0.641" cy="0.613" rx="0.641" ry="0.613" transform="translate(40.39 0)" fill="#fff"/>
          <path id="Elipse_3983_-_Contorno" data-name="Elipse 3983 - Contorno" d="M.641-.5A1.129,1.129,0,0,1,1.782.613,1.129,1.129,0,0,1,.641,1.726,1.129,1.129,0,0,1-.5.613,1.129,1.129,0,0,1,.641-.5Z" transform="translate(40.39 0)" fill="#fff"/>
          <ellipse id="Elipse_3984" data-name="Elipse 3984" cx="0.641" cy="0.613" rx="0.641" ry="0.613" transform="translate(46.16 0)" fill="#fff"/>
          <path id="Elipse_3984_-_Contorno" data-name="Elipse 3984 - Contorno" d="M.641-.5A1.129,1.129,0,0,1,1.782.613,1.129,1.129,0,0,1,.641,1.726,1.129,1.129,0,0,1-.5.613,1.129,1.129,0,0,1,.641-.5Z" transform="translate(46.16 0)" fill="#fff"/>
          <path id="Trazado_99289" data-name="Trazado 99289" d="M491.513,125.915a.642.642,0,1,1-.641-.613A.628.628,0,0,1,491.513,125.915Z" transform="translate(-438.3 -125.302)" fill="#fff"/>
          <path id="Trazado_99289_-_Contorno" data-name="Trazado 99289 - Contorno" d="M490.872,127.028a1.113,1.113,0,1,1,1.141-1.113A1.128,1.128,0,0,1,490.872,127.028Z" transform="translate(-438.3 -125.302)" fill="#fff"/>
          <path id="Trazado_99290" data-name="Trazado 99290" d="M499.959,125.915a.642.642,0,1,1-.641-.613A.627.627,0,0,1,499.959,125.915Z" transform="translate(-440.977 -125.302)" fill="#fff"/>
          <path id="Trazado_99290_-_Contorno" data-name="Trazado 99290 - Contorno" d="M499.318,127.028a1.113,1.113,0,1,1,1.141-1.113A1.128,1.128,0,0,1,499.318,127.028Z" transform="translate(-440.977 -125.302)" fill="#fff"/>
        </g>
        <g id="Grupo_53317" data-name="Grupo 53317" transform="translate(0 53.954)">
          <ellipse id="Elipse_3985" data-name="Elipse 3985" cx="0.641" cy="0.613" rx="0.641" ry="0.613" transform="translate(0 0)" fill="#fff"/>
          <path id="Elipse_3985_-_Contorno" data-name="Elipse 3985 - Contorno" d="M.641-.5A1.129,1.129,0,0,1,1.782.613,1.129,1.129,0,0,1,.641,1.726,1.129,1.129,0,0,1-.5.613,1.129,1.129,0,0,1,.641-.5Z" transform="translate(0 0)" fill="#fff"/>
          <path id="Trazado_99291" data-name="Trazado 99291" d="M423.942,133.423a.642.642,0,1,1-.641-.613A.627.627,0,0,1,423.942,133.423Z" transform="translate(-416.89 -132.81)" fill="#fff"/>
          <path id="Trazado_99291_-_Contorno" data-name="Trazado 99291 - Contorno" d="M423.3,134.536a1.113,1.113,0,1,1,1.141-1.113A1.129,1.129,0,0,1,423.3,134.536Z" transform="translate(-416.89 -132.81)" fill="#fff"/>
          <ellipse id="Elipse_3986" data-name="Elipse 3986" cx="0.641" cy="0.613" rx="0.641" ry="0.613" transform="translate(11.54 0)" fill="#fff"/>
          <path id="Elipse_3986_-_Contorno" data-name="Elipse 3986 - Contorno" d="M.641-.5A1.129,1.129,0,0,1,1.782.613,1.129,1.129,0,0,1,.641,1.726,1.129,1.129,0,0,1-.5.613,1.129,1.129,0,0,1,.641-.5Z" transform="translate(11.54 0)" fill="#fff"/>
          <path id="Trazado_99292" data-name="Trazado 99292" d="M440.835,133.423a.642.642,0,1,1-.641-.613A.627.627,0,0,1,440.835,133.423Z" transform="translate(-422.243 -132.81)" fill="#fff"/>
          <path id="Trazado_99292_-_Contorno" data-name="Trazado 99292 - Contorno" d="M440.194,134.536a1.113,1.113,0,1,1,1.141-1.113A1.128,1.128,0,0,1,440.194,134.536Z" transform="translate(-422.243 -132.81)" fill="#fff"/>
          <path id="Trazado_99293" data-name="Trazado 99293" d="M449.281,133.423a.642.642,0,1,1-.641-.613A.627.627,0,0,1,449.281,133.423Z" transform="translate(-424.919 -132.81)" fill="#fff"/>
          <path id="Trazado_99293_-_Contorno" data-name="Trazado 99293 - Contorno" d="M448.64,134.536a1.113,1.113,0,1,1,1.141-1.113A1.129,1.129,0,0,1,448.64,134.536Z" transform="translate(-424.919 -132.81)" fill="#fff"/>
          <ellipse id="Elipse_3987" data-name="Elipse 3987" cx="0.641" cy="0.613" rx="0.641" ry="0.613" transform="translate(28.85 0)" fill="#fff"/>
          <path id="Elipse_3987_-_Contorno" data-name="Elipse 3987 - Contorno" d="M.641-.5A1.129,1.129,0,0,1,1.782.613,1.129,1.129,0,0,1,.641,1.726,1.129,1.129,0,0,1-.5.613,1.129,1.129,0,0,1,.641-.5Z" transform="translate(28.85 0)" fill="#fff"/>
          <path id="Trazado_99294" data-name="Trazado 99294" d="M466.174,133.423a.642.642,0,1,1-.641-.613A.628.628,0,0,1,466.174,133.423Z" transform="translate(-430.272 -132.81)" fill="#fff"/>
          <path id="Trazado_99294_-_Contorno" data-name="Trazado 99294 - Contorno" d="M465.533,134.536a1.113,1.113,0,1,1,1.141-1.113A1.128,1.128,0,0,1,465.533,134.536Z" transform="translate(-430.272 -132.81)" fill="#fff"/>
          <ellipse id="Elipse_3988" data-name="Elipse 3988" cx="0.641" cy="0.613" rx="0.641" ry="0.613" transform="translate(40.39 0)" fill="#fff"/>
          <path id="Elipse_3988_-_Contorno" data-name="Elipse 3988 - Contorno" d="M.641-.5A1.129,1.129,0,0,1,1.782.613,1.129,1.129,0,0,1,.641,1.726,1.129,1.129,0,0,1-.5.613,1.129,1.129,0,0,1,.641-.5Z" transform="translate(40.39 0)" fill="#fff"/>
          <ellipse id="Elipse_3989" data-name="Elipse 3989" cx="0.641" cy="0.613" rx="0.641" ry="0.613" transform="translate(46.16 0)" fill="#fff"/>
          <path id="Elipse_3989_-_Contorno" data-name="Elipse 3989 - Contorno" d="M.641-.5A1.129,1.129,0,0,1,1.782.613,1.129,1.129,0,0,1,.641,1.726,1.129,1.129,0,0,1-.5.613,1.129,1.129,0,0,1,.641-.5Z" transform="translate(46.16 0)" fill="#fff"/>
          <path id="Trazado_99295" data-name="Trazado 99295" d="M491.513,133.423a.642.642,0,1,1-.641-.613A.628.628,0,0,1,491.513,133.423Z" transform="translate(-438.3 -132.81)" fill="#fff"/>
          <path id="Trazado_99295_-_Contorno" data-name="Trazado 99295 - Contorno" d="M490.872,134.536a1.113,1.113,0,1,1,1.141-1.113A1.128,1.128,0,0,1,490.872,134.536Z" transform="translate(-438.3 -132.81)" fill="#fff"/>
          <path id="Trazado_99296" data-name="Trazado 99296" d="M499.959,133.423a.642.642,0,1,1-.641-.613A.627.627,0,0,1,499.959,133.423Z" transform="translate(-440.977 -132.81)" fill="#fff"/>
          <path id="Trazado_99296_-_Contorno" data-name="Trazado 99296 - Contorno" d="M499.318,134.536a1.113,1.113,0,1,1,1.141-1.113A1.128,1.128,0,0,1,499.318,134.536Z" transform="translate(-440.977 -132.81)" fill="#fff"/>
        </g>
      </g>
      <path id="Línea_138" data-name="Línea 138" d="M-.452,101.43l0-5.43h1l0,5.43ZM-.458,88l0-8h1l0,8ZM-.466,72l0-8h1l0,8ZM-.474,56l0-8h1l0,8ZM-.481,40l0-8h1l0,8ZM-.489,24l0-8h1l0,8ZM-.5,8l0-8h1l0,8Z" transform="translate(861.5 947.5)" fill="#3c6d9d"/>
    </g>
    <g id="Grupo_134115" data-name="Grupo 134115" transform="translate(13)">
      <rect id="Rectángulo_35708" data-name="Rectángulo 35708" width="100" height="100" transform="translate(317 1555)" fill="none"/>
      <g id="nFK1x6" transform="translate(-161.94 -890.813)">
        <g id="Grupo_134114" data-name="Grupo 134114" transform="translate(482.94 2449.813)">
          <path id="Trazado_147309" data-name="Trazado 147309" d="M493.712,2485.585h3.51a9.862,9.862,0,0,0-.2-1.489,4.594,4.594,0,1,1,8.915-1.383,13.923,13.923,0,0,1-.338,1.578c-.072.407-.09.824-.14,1.314h3.556c0-.729.007-1.417,0-2.1a1.6,1.6,0,0,1,1.333-1.723c1.477-.382,2.914-.861,4.467-.105.353.172,1.158-.218,1.546-.575a1.149,1.149,0,0,0-.018-1.721c-.394-.349-1.2-.71-1.562-.534-1.523.738-2.925.26-4.374-.11a1.636,1.636,0,0,1-1.389-1.776c.014-1.148,0-2.295,0-3.6-1.353,0-2.676,0-4,0-1.5,0-1.828-.27-2.217-1.682a5.6,5.6,0,0,1-.021-4.1c.17-.365-.209-1.161-.563-1.551a1.152,1.152,0,0,0-1.722.008c-.352.392-.727,1.2-.55,1.556.77,1.556.253,2.994-.124,4.466a1.566,1.566,0,0,1-1.654,1.3c-1.946,0-3.892.016-5.837-.006a1.523,1.523,0,0,1-1.677-1.66c-.025-1.051-.005-2.1-.005-3.386a10.978,10.978,0,0,0-1.529.213,4.518,4.518,0,0,1-4.969-1.31,4.3,4.3,0,0,1-.727-4.984,4.371,4.371,0,0,1,4.3-2.629,4.924,4.924,0,0,1,1.485.312c1.215.416,1.435.273,1.437-1.03,0-.734-.015-1.468,0-2.2a1.525,1.525,0,0,1,1.651-1.685c1.945-.024,3.892-.021,5.837,0a1.538,1.538,0,1,1-.052,3.055c-1.427.014-2.854,0-4.379,0,0,1-.009,1.915,0,2.832a1.641,1.641,0,0,1-1.393,1.776c-1.45.373-2.861.855-4.362.079a1.167,1.167,0,0,0-1.617.623,2.371,2.371,0,0,0,.024,1.673,1.177,1.177,0,0,0,1.639.57c1.572-.835,3.051-.236,4.546.15a1.486,1.486,0,0,1,1.158,1.563c.006.952,0,1.9,0,2.919h3.546a9.793,9.793,0,0,0-.225-1.442,4.664,4.664,0,0,1,1.656-5.283,4.594,4.594,0,0,1,6.933,5.464,5.967,5.967,0,0,0-.156,1.289h3.486v-12.217c-1.473,0-2.96.029-4.446-.01a1.457,1.457,0,0,1-1.4-2.16,2.107,2.107,0,0,1,1.441-.853c1.94-.1,3.889-.052,5.835-.031a1.538,1.538,0,0,1,1.7,1.73c.018,2.038.005,4.077.005,6.168,1.818-.774,3.549-1.557,5.317-2.248,1.184-.462,2.411-.821,3.634-1.172a1.537,1.537,0,1,1,.8,2.949,41.644,41.644,0,0,0-9.011,3.646,1.215,1.215,0,0,0-.756,1.25c.042,2.868.018,5.738.018,8.823a13.637,13.637,0,0,0,1.561-.247,4.531,4.531,0,0,1,4.955,1.354,4.574,4.574,0,0,1-3.67,7.573,11.962,11.962,0,0,1-1.575-.347c-.4-.069-.809-.063-1.274-.094,0,1.017.023,1.845-.005,2.672a1.51,1.51,0,0,1-1.625,1.614c-1.978.027-3.955.015-5.933.011a1.52,1.52,0,0,1-1.593-1.246c-.388-1.5-.916-2.971-.134-4.559.17-.347-.228-1.155-.589-1.539a1.152,1.152,0,0,0-1.722.035c-.345.4-.7,1.2-.524,1.565.765,1.559.236,3-.139,4.467a1.564,1.564,0,0,1-1.671,1.277c-1.116,0-2.234.026-3.349-.012a.744.744,0,0,0-.87.63,38.3,38.3,0,0,0-1.624,14.453c.2,2.309.677,4.6,1.066,6.886.188,1.107-.17,1.9-1.061,2.121s-1.625-.31-1.9-1.406a42.08,42.08,0,0,1,.345-22.018,5.519,5.519,0,0,0,.016-1.8c-.13-3.31-.1-6.627-.039-9.941a1.4,1.4,0,0,1,1.636-1.143,1.522,1.522,0,0,1,1.337,1.605c.023,2.1.009,4.211.009,6.316Z" transform="translate(-482.94 -2451.924)" fill="#fff"/>
          <path id="Trazado_147310" data-name="Trazado 147310" d="M527.954,2522.353c.582,1.06,2.449,1.556,1.638,3.408-1.309,2.992-1.29,3-4.578,3.231v6.09c1.881-.155,3.326-.086,4.247,2.15.913,2.218,0,3.261-1.336,4.339l4.319,4.323c1.019-.54,1.542-2.512,3.409-1.6.936.456,2.16.7,2.718,1.441s.418,1.968.608,3.12c.376,0,.877-.028,1.375.007a1.515,1.515,0,0,1,1.494,1.551,1.494,1.494,0,0,1-1.462,1.481c-1.05.047-2.106.046-3.156,0a1.482,1.482,0,0,1-1.489-1.551c-.034-.732.005-1.468-.028-2.2-.008-.189-.132-.491-.262-.528a.813.813,0,0,0-.655.147c-.5.44-.948.946-1.434,1.406a1.526,1.526,0,0,1-2.428.048q-3.174-3.118-6.3-6.29a1.5,1.5,0,0,1-.007-2.357c.477-.514,1.008-.98,1.47-1.506a.811.811,0,0,0,.144-.656c-.037-.132-.336-.258-.524-.266-.7-.032-1.4,0-2.1-.019a1.528,1.528,0,0,1-1.657-1.682q-.029-4.45,0-8.9a1.523,1.523,0,0,1,1.673-1.664c.7-.02,1.4.017,2.1-.014.187-.008.486-.14.522-.272a.819.819,0,0,0-.152-.656c-.441-.5-.947-.946-1.408-1.432a1.528,1.528,0,0,1-.046-2.429q3.12-3.173,6.293-6.293a1.509,1.509,0,0,1,2.361,0c.514.476.982,1,1.5,1.475.138.126.444.243.564.174a.809.809,0,0,0,.348-.571c.041-.7,0-1.4.018-2.1a1.5,1.5,0,0,1,1.582-1.654q4.544-.036,9.09.005a1.489,1.489,0,0,1,1.568,1.572c.03.669-.018,1.341.022,2.009.015.248.16.677.282.69a1.174,1.174,0,0,0,.791-.282c.462-.389.859-.854,1.3-1.27a1.528,1.528,0,0,1,2.429-.034q3.171,3.122,6.287,6.3a1.5,1.5,0,0,1-.011,2.359c-.411.445-.876.841-1.271,1.3a3.409,3.409,0,0,0-.389.784,3.585,3.585,0,0,0,.893.323c.6.053,1.211,0,1.817.026a1.507,1.507,0,0,1,1.63,1.609q.035,4.5,0,9a1.52,1.52,0,0,1-1.7,1.636c-.67.018-1.341-.021-2.009.018a.783.783,0,0,0-.6.307.772.772,0,0,0,.187.644c.467.522,1,.984,1.475,1.5a1.482,1.482,0,0,1,.008,2.29q-3.147,3.214-6.36,6.361a1.5,1.5,0,0,1-2.359-.034c-.442-.414-.835-.882-1.292-1.278a3.18,3.18,0,0,0-.786-.371,2.791,2.791,0,0,0-.323.8c-.048.666.009,1.34-.025,2.008a1.512,1.512,0,0,1-1.51,1.535,1.5,1.5,0,0,1-1.527-1.514,25.177,25.177,0,0,1,.034-3.726,3.111,3.111,0,0,1,.992-1.461c.218-.228.676-.206.958-.4,1.7-1.158,3.085-.791,4.243.823a1.823,1.823,0,0,0,.35.315l4.307-4.3c-1.2-1.122-2.376-2.121-1.369-4.4.952-2.151,2.252-2.382,4.178-2.122v-6.188c-1.786.121-3.266.121-4.166-2.155-.869-2.2-.076-3.273,1.333-4.312l-4.365-4.367c-1.069,1.228-2.109,2.27-4.363,1.3-2.182-.939-2.316-2.3-2.1-4.178h-6.205c.225,1.882.051,3.274-2.16,4.192s-3.251-.036-4.33-1.375Z" transform="translate(-498.932 -2475.346)" fill="#fff"/>
          <path id="Trazado_147311" data-name="Trazado 147311" d="M586.785,2515.833c-.734-2.41.447-3.585,2.432-4.275a2.8,2.8,0,0,0,.777-.551,1.64,1.64,0,0,1,2.035-.147c.52.3,1.046.591,1.588.9.12-.175.219-.3.3-.435.4-.688.794-1.379,1.238-2.153-.562-.339-1.1-.665-1.636-.985a1.713,1.713,0,0,1-.863-1.855,8.418,8.418,0,0,0,.017-2.278,1.829,1.829,0,0,1,1.025-2.134c.471-.254.927-.534,1.457-.842-.513-.9-.982-1.717-1.5-2.622-.58.321-1.127.618-1.669.925a1.687,1.687,0,0,1-1.961-.126,11.182,11.182,0,0,0-2.048-1.2,1.875,1.875,0,0,1-1.329-2.059c.037-.5.006-1,.006-1.55H583.6c0,.536-.026,1.067.005,1.593a1.85,1.85,0,0,1-1.287,2,8.385,8.385,0,0,0-1.894,1.09,1.876,1.876,0,0,1-2.45.11c-.419-.282-.879-.5-1.377-.784l-1.5,2.6c.565.34,1.108.652,1.636.987a1.535,1.535,0,1,1-1.51,2.66c-.979-.532-1.943-1.1-2.892-1.681a1.492,1.492,0,0,1-.611-2.206q1.435-2.592,2.955-5.137a1.505,1.505,0,0,1,2.286-.573,8.844,8.844,0,0,1,1.157.668,1.336,1.336,0,0,0,1.786.034,1.125,1.125,0,0,0,.641-1.116,14.125,14.125,0,0,1,0-1.816,1.47,1.47,0,0,1,1.514-1.523q3.06-.053,6.123-.006a1.487,1.487,0,0,1,1.529,1.514,6.388,6.388,0,0,1,0,1.433,1.379,1.379,0,0,0,1.066,1.71,1.437,1.437,0,0,0,.927-.005c.579-.256,1.1-.64,1.665-.935a1.454,1.454,0,0,1,2.15.528q1.58,2.619,3.056,5.3a1.477,1.477,0,0,1-.553,2.082c-.4.265-.824.484-1.237.724-1.387.805-1.4,2.025-.024,2.831,2.482,1.458,2.526,1.628,1.081,4.13-.7,1.214-1.4,2.432-2.1,3.641-.732,1.25-1.4,1.421-2.681.7a6.608,6.608,0,0,1-.822-.486,1.512,1.512,0,0,0-1.96-.059c-.685.413-.543.926-.546,1.461-.012,2.824-.165,2.984-2.957,2.984-.542,0-1.086.022-1.626-.01a1.522,1.522,0,1,1-.03-3.043C585.581,2515.807,586.057,2515.833,586.785,2515.833Z" transform="translate(-519.233 -2466.83)" fill="#fff"/>
          <path id="Trazado_147312" data-name="Trazado 147312" d="M615.217,2504.122a47.588,47.588,0,0,1-2.316,13.35c-.389,1.184-1.328,1.668-2.257,1.2-.739-.369-.921-1.1-.668-2.163a72.323,72.323,0,0,0,1.651-7.443,39.765,39.765,0,0,0-28.692-43.4,4.986,4.986,0,0,1-1.079-.375,1.5,1.5,0,0,1,.783-2.828,4.586,4.586,0,0,1,1.117.231c17.079,5.459,27.419,16.932,30.745,34.6C614.923,2499.532,614.987,2501.843,615.217,2504.122Z" transform="translate(-523.159 -2454.998)" fill="#fff"/>
          <path id="Trazado_147313" data-name="Trazado 147313" d="M505.8,2566.3a5.78,5.78,0,0,1,2.754,4.144,50.637,50.637,0,0,1,.1,5.91,1.366,1.366,0,0,1-1.516,1.3q-6.068.024-12.137.008a1.4,1.4,0,0,1-1.566-1.353,45.74,45.74,0,0,1,.055-5.632,5.785,5.785,0,0,1,2.867-4.364,6.313,6.313,0,0,1-1.273-5.324,5.979,5.979,0,0,1,2.212-3.469,6.085,6.085,0,0,1,7.82.258C507.521,2559.9,507.775,2562.925,505.8,2566.3Zm-9.331,8.3h9.17c0-1.183.046-2.233-.011-3.278a3.022,3.022,0,0,0-2.952-2.831c-1.081-.041-2.166-.042-3.248-.005a3,3,0,0,0-2.948,2.831C496.422,2572.358,496.469,2573.408,496.469,2574.6Zm4.566-9.194a3.057,3.057,0,1,0-3.04-3.051A3.07,3.07,0,0,0,501.035,2565.4Z" transform="translate(-487.221 -2493.441)" fill="#fff"/>
          <path id="Trazado_147314" data-name="Trazado 147314" d="M619.978,2568.822a6.593,6.593,0,0,1,2.93,6.293c-.055,1.081,0,2.168-.012,3.252-.014,1.1-.638,1.815-1.549,1.8s-1.5-.723-1.507-1.843c-.011-1.372.009-2.743-.006-4.114A3.038,3.038,0,0,0,616.67,2571c-1.02-.02-2.042-.029-3.061,0a2.972,2.972,0,0,0-2.931,2.736c-.073,1.075-.014,2.159-.014,3.381,1.537,0,3.03-.074,4.507.041a1.977,1.977,0,0,1,1.393.887,1.872,1.872,0,0,1-.219,1.546,1.679,1.679,0,0,1-1.23.558c-1.943.06-3.89.051-5.834.023a1.555,1.555,0,0,1-1.687-1.759c-.017-1.5-.036-3,.008-4.5a6.154,6.154,0,0,1,2.894-5.09c-2.006-3.713-1.687-6.7.908-8.8a6.162,6.162,0,0,1,7.84.143C621.716,2562.342,622,2565.415,619.978,2568.822Zm-4.748-7.009a3.038,3.038,0,0,0-3.045,3.029,3.058,3.058,0,1,0,6.116-.021A3.047,3.047,0,0,0,615.23,2561.813Z" transform="translate(-534.042 -2494.457)" fill="#fff"/>
          <path id="Trazado_147315" data-name="Trazado 147315" d="M556.03,2459.91c-2.024-3.522-1.7-6.657.863-8.719a6.111,6.111,0,0,1,7.9.145c2.441,2.129,2.72,5.3.7,8.525.224.187.46.379.692.577a6.026,6.026,0,0,1,2.212,4.488,1.53,1.53,0,0,1-1.413,1.72,1.552,1.552,0,0,1-1.631-1.512,3.085,3.085,0,0,0-3.414-3.071c-.892,0-1.785-.018-2.676,0a3.055,3.055,0,0,0-3.094,3.1c-.023.955,0,1.911,0,3.025h2.84c1.051,0,2.1-.017,3.155.006a1.531,1.531,0,1,1-.029,3.049c-2.454.018-4.907.009-7.361,0-.881,0-1.586-.427-1.615-1.3a47.5,47.5,0,0,1,.1-5.911A5.649,5.649,0,0,1,556.03,2459.91Zm7.781-3.978a3.055,3.055,0,1,0-3.031,3.054A3.065,3.065,0,0,0,563.811,2455.932Z" transform="translate(-511.712 -2449.813)" fill="#fff"/>
          <path id="Trazado_147316" data-name="Trazado 147316" d="M540.122,2539.438a9.188,9.188,0,1,1,9.072,9.208A9.206,9.206,0,0,1,540.122,2539.438Zm3.069-.02a6.12,6.12,0,1,0,6.184-6.082A6.13,6.13,0,0,0,543.191,2539.417Z" transform="translate(-506.386 -2482.8)" fill="#fff"/>
          <path id="Trazado_147317" data-name="Trazado 147317" d="M548.751,2598.584a42.731,42.731,0,0,1-23.232-7.038c-1.011-.657-1.278-1.524-.742-2.319s1.424-.9,2.436-.236a39.038,39.038,0,0,0,15.938,6.078,39.5,39.5,0,0,0,24.2-4.024c.312-.159.612-.344.933-.482a1.5,1.5,0,0,1,2.04.657,1.439,1.439,0,0,1-.66,2.034c-1.733.869-3.475,1.742-5.277,2.452A42.333,42.333,0,0,1,548.751,2598.584Z" transform="translate(-499.983 -2506.7)" fill="#fff"/>
          <path id="Trazado_147318" data-name="Trazado 147318" d="M596.023,2511.534a4.59,4.59,0,1,1-4.52-4.614A4.613,4.613,0,0,1,596.023,2511.534Zm-3.067-.035a1.524,1.524,0,1,0-1.493,1.533A1.535,1.535,0,0,0,592.956,2511.5Z" transform="translate(-525.542 -2473.228)" fill="#fff"/>
        </g>
      </g>
    </g>
  </g>
</svg>
