<svg xmlns="http://www.w3.org/2000/svg" width="313" height="163" viewBox="0 0 313 163">
  <g id="Grupo_134897" data-name="Grupo 134897" transform="translate(-1064 -1523)">
    <g id="Grupo_134108" data-name="Grupo 134108" transform="translate(213 587)">
      <path id="Rectángulo_34846" data-name="Rectángulo 34846" d="M0,0H271a42,42,0,0,1,42,42V163a0,0,0,0,1,0,0H42A42,42,0,0,1,0,121V0A0,0,0,0,1,0,0Z" transform="translate(851 936)" fill="#3c6d9d"/>
      <path id="Trazado_145971" data-name="Trazado 145971" d="M8.18,0A8.18,8.18,0,1,1,0,8.18,8.18,8.18,0,0,1,8.18,0Z" transform="translate(885.317 1062.538)" fill="#64b5f6" opacity="0.444" style="mix-blend-mode: multiply;isolation: isolate"/>
      <g id="Grupo_78276" data-name="Grupo 78276" transform="translate(1089.437 1030.84)">
        <g id="Grupo_53306" data-name="Grupo 53306" transform="translate(0)">
          <path id="Trazado_99200" data-name="Trazado 99200" d="M415.5,50.837a.642.642,0,1,1-.642-.613A.628.628,0,0,1,415.5,50.837Z" transform="translate(-414.214 -50.224)" fill="#fff"/>
          <path id="Trazado_99200_-_Contorno" data-name="Trazado 99200 - Contorno" d="M414.855,49.724a1.113,1.113,0,1,1-1.141,1.113A1.129,1.129,0,0,1,414.855,49.724Z" transform="translate(-414.214 -50.224)" fill="#fff"/>
          <path id="Trazado_99201" data-name="Trazado 99201" d="M423.942,50.837a.642.642,0,1,1-.641-.613A.627.627,0,0,1,423.942,50.837Z" transform="translate(-416.89 -50.224)" fill="#fff"/>
          <path id="Trazado_99201_-_Contorno" data-name="Trazado 99201 - Contorno" d="M423.3,49.724a1.113,1.113,0,1,1-1.141,1.113A1.128,1.128,0,0,1,423.3,49.724Z" transform="translate(-416.89 -50.224)" fill="#fff"/>
          <path id="Trazado_99202" data-name="Trazado 99202" d="M432.388,50.837a.642.642,0,1,1-.641-.613A.627.627,0,0,1,432.388,50.837Z" transform="translate(-419.566 -50.224)" fill="#fff"/>
          <path id="Trazado_99202_-_Contorno" data-name="Trazado 99202 - Contorno" d="M431.747,49.724a1.113,1.113,0,1,1-1.142,1.113A1.128,1.128,0,0,1,431.747,49.724Z" transform="translate(-419.566 -50.224)" fill="#fff"/>
          <path id="Trazado_99203" data-name="Trazado 99203" d="M440.835,50.837a.642.642,0,1,1-.641-.613A.628.628,0,0,1,440.835,50.837Z" transform="translate(-422.243 -50.224)" fill="#fff"/>
          <path id="Trazado_99203_-_Contorno" data-name="Trazado 99203 - Contorno" d="M440.194,49.724a1.113,1.113,0,1,1-1.141,1.113A1.129,1.129,0,0,1,440.194,49.724Z" transform="translate(-422.243 -50.224)" fill="#fff"/>
          <path id="Trazado_99204" data-name="Trazado 99204" d="M449.281,50.837a.642.642,0,1,1-.641-.613A.627.627,0,0,1,449.281,50.837Z" transform="translate(-424.919 -50.224)" fill="#fff"/>
          <path id="Trazado_99204_-_Contorno" data-name="Trazado 99204 - Contorno" d="M448.64,49.724a1.113,1.113,0,1,1-1.141,1.113A1.128,1.128,0,0,1,448.64,49.724Z" transform="translate(-424.919 -50.224)" fill="#fff"/>
          <path id="Trazado_99205" data-name="Trazado 99205" d="M457.727,50.837a.642.642,0,1,1-.641-.613A.627.627,0,0,1,457.727,50.837Z" transform="translate(-427.595 -50.224)" fill="#fff"/>
          <path id="Trazado_99205_-_Contorno" data-name="Trazado 99205 - Contorno" d="M457.086,49.724a1.113,1.113,0,1,1-1.141,1.113A1.128,1.128,0,0,1,457.086,49.724Z" transform="translate(-427.595 -50.224)" fill="#fff"/>
          <path id="Trazado_99206" data-name="Trazado 99206" d="M466.174,50.837a.642.642,0,1,1-.641-.613A.628.628,0,0,1,466.174,50.837Z" transform="translate(-430.272 -50.224)" fill="#fff"/>
          <path id="Trazado_99206_-_Contorno" data-name="Trazado 99206 - Contorno" d="M465.533,49.724a1.113,1.113,0,1,1-1.141,1.113A1.129,1.129,0,0,1,465.533,49.724Z" transform="translate(-430.272 -50.224)" fill="#fff"/>
          <path id="Trazado_99207" data-name="Trazado 99207" d="M474.62,50.837a.642.642,0,1,1-.641-.613A.627.627,0,0,1,474.62,50.837Z" transform="translate(-432.948 -50.224)" fill="#fff"/>
          <path id="Trazado_99207_-_Contorno" data-name="Trazado 99207 - Contorno" d="M473.98,49.724a1.113,1.113,0,1,1-1.141,1.113A1.128,1.128,0,0,1,473.98,49.724Z" transform="translate(-432.948 -50.224)" fill="#fff"/>
          <path id="Trazado_99208" data-name="Trazado 99208" d="M483.066,50.837a.642.642,0,1,1-.641-.613A.627.627,0,0,1,483.066,50.837Z" transform="translate(-435.624 -50.224)" fill="#fff"/>
          <path id="Trazado_99208_-_Contorno" data-name="Trazado 99208 - Contorno" d="M482.425,49.724a1.113,1.113,0,1,1-1.142,1.113A1.128,1.128,0,0,1,482.425,49.724Z" transform="translate(-435.624 -50.224)" fill="#fff"/>
          <path id="Trazado_99209" data-name="Trazado 99209" d="M491.513,50.837a.642.642,0,1,1-.641-.613A.628.628,0,0,1,491.513,50.837Z" transform="translate(-438.301 -50.224)" fill="#fff"/>
          <path id="Trazado_99209_-_Contorno" data-name="Trazado 99209 - Contorno" d="M490.872,49.724a1.113,1.113,0,1,1-1.141,1.113A1.129,1.129,0,0,1,490.872,49.724Z" transform="translate(-438.301 -50.224)" fill="#fff"/>
          <path id="Trazado_99210" data-name="Trazado 99210" d="M499.959,50.837a.642.642,0,1,1-.641-.613A.628.628,0,0,1,499.959,50.837Z" transform="translate(-440.977 -50.224)" fill="#fff"/>
          <path id="Trazado_99210_-_Contorno" data-name="Trazado 99210 - Contorno" d="M499.318,49.724a1.113,1.113,0,1,1-1.141,1.113A1.129,1.129,0,0,1,499.318,49.724Z" transform="translate(-440.977 -50.224)" fill="#fff"/>
        </g>
        <g id="Grupo_53307" data-name="Grupo 53307" transform="translate(0 4.905)">
          <path id="Trazado_99211" data-name="Trazado 99211" d="M415.5,58.345a.642.642,0,1,1-.642-.613A.628.628,0,0,1,415.5,58.345Z" transform="translate(-414.214 -57.732)" fill="#fff"/>
          <path id="Trazado_99211_-_Contorno" data-name="Trazado 99211 - Contorno" d="M414.855,57.232a1.113,1.113,0,1,1-1.141,1.113A1.129,1.129,0,0,1,414.855,57.232Z" transform="translate(-414.214 -57.732)" fill="#fff"/>
          <path id="Trazado_99212" data-name="Trazado 99212" d="M423.942,58.345a.642.642,0,1,1-.641-.613A.627.627,0,0,1,423.942,58.345Z" transform="translate(-416.89 -57.732)" fill="#fff"/>
          <path id="Trazado_99212_-_Contorno" data-name="Trazado 99212 - Contorno" d="M423.3,57.232a1.113,1.113,0,1,1-1.141,1.113A1.128,1.128,0,0,1,423.3,57.232Z" transform="translate(-416.89 -57.732)" fill="#fff"/>
          <path id="Trazado_99213" data-name="Trazado 99213" d="M432.388,58.345a.642.642,0,1,1-.641-.613A.627.627,0,0,1,432.388,58.345Z" transform="translate(-419.566 -57.732)" fill="#fff"/>
          <path id="Trazado_99213_-_Contorno" data-name="Trazado 99213 - Contorno" d="M431.747,57.232a1.113,1.113,0,1,1-1.142,1.113A1.128,1.128,0,0,1,431.747,57.232Z" transform="translate(-419.566 -57.732)" fill="#fff"/>
          <path id="Trazado_99214" data-name="Trazado 99214" d="M440.835,58.345a.642.642,0,1,1-.641-.613A.628.628,0,0,1,440.835,58.345Z" transform="translate(-422.243 -57.732)" fill="#fff"/>
          <path id="Trazado_99214_-_Contorno" data-name="Trazado 99214 - Contorno" d="M440.194,57.232a1.113,1.113,0,1,1-1.141,1.113A1.129,1.129,0,0,1,440.194,57.232Z" transform="translate(-422.243 -57.732)" fill="#fff"/>
          <path id="Trazado_99215" data-name="Trazado 99215" d="M449.281,58.345a.642.642,0,1,1-.641-.613A.627.627,0,0,1,449.281,58.345Z" transform="translate(-424.919 -57.732)" fill="#fff"/>
          <path id="Trazado_99215_-_Contorno" data-name="Trazado 99215 - Contorno" d="M448.64,57.232a1.113,1.113,0,1,1-1.141,1.113A1.128,1.128,0,0,1,448.64,57.232Z" transform="translate(-424.919 -57.732)" fill="#fff"/>
          <path id="Trazado_99216" data-name="Trazado 99216" d="M457.727,58.345a.642.642,0,1,1-.641-.613A.627.627,0,0,1,457.727,58.345Z" transform="translate(-427.595 -57.732)" fill="#fff"/>
          <path id="Trazado_99216_-_Contorno" data-name="Trazado 99216 - Contorno" d="M457.086,57.232a1.113,1.113,0,1,1-1.141,1.113A1.128,1.128,0,0,1,457.086,57.232Z" transform="translate(-427.595 -57.732)" fill="#fff"/>
          <path id="Trazado_99217" data-name="Trazado 99217" d="M466.174,58.345a.642.642,0,1,1-.641-.613A.628.628,0,0,1,466.174,58.345Z" transform="translate(-430.272 -57.732)" fill="#fff"/>
          <path id="Trazado_99217_-_Contorno" data-name="Trazado 99217 - Contorno" d="M465.533,57.232a1.113,1.113,0,1,1-1.141,1.113A1.129,1.129,0,0,1,465.533,57.232Z" transform="translate(-430.272 -57.732)" fill="#fff"/>
          <path id="Trazado_99218" data-name="Trazado 99218" d="M474.62,58.345a.642.642,0,1,1-.641-.613A.627.627,0,0,1,474.62,58.345Z" transform="translate(-432.948 -57.732)" fill="#fff"/>
          <path id="Trazado_99218_-_Contorno" data-name="Trazado 99218 - Contorno" d="M473.98,57.232a1.113,1.113,0,1,1-1.141,1.113A1.128,1.128,0,0,1,473.98,57.232Z" transform="translate(-432.948 -57.732)" fill="#fff"/>
          <path id="Trazado_99219" data-name="Trazado 99219" d="M483.066,58.345a.642.642,0,1,1-.641-.613A.627.627,0,0,1,483.066,58.345Z" transform="translate(-435.624 -57.732)" fill="#fff"/>
          <path id="Trazado_99219_-_Contorno" data-name="Trazado 99219 - Contorno" d="M482.425,57.232a1.113,1.113,0,1,1-1.142,1.113A1.128,1.128,0,0,1,482.425,57.232Z" transform="translate(-435.624 -57.732)" fill="#fff"/>
          <path id="Trazado_99220" data-name="Trazado 99220" d="M491.513,58.345a.642.642,0,1,1-.641-.613A.628.628,0,0,1,491.513,58.345Z" transform="translate(-438.301 -57.732)" fill="#fff"/>
          <path id="Trazado_99220_-_Contorno" data-name="Trazado 99220 - Contorno" d="M490.872,57.232a1.113,1.113,0,1,1-1.141,1.113A1.129,1.129,0,0,1,490.872,57.232Z" transform="translate(-438.301 -57.732)" fill="#fff"/>
          <path id="Trazado_99221" data-name="Trazado 99221" d="M499.959,58.345a.642.642,0,1,1-.641-.613A.628.628,0,0,1,499.959,58.345Z" transform="translate(-440.977 -57.732)" fill="#fff"/>
          <path id="Trazado_99221_-_Contorno" data-name="Trazado 99221 - Contorno" d="M499.318,57.232a1.113,1.113,0,1,1-1.141,1.113A1.129,1.129,0,0,1,499.318,57.232Z" transform="translate(-440.977 -57.732)" fill="#fff"/>
        </g>
        <g id="Grupo_53308" data-name="Grupo 53308" transform="translate(0 9.81)">
          <ellipse id="Elipse_3955" data-name="Elipse 3955" cx="0.641" cy="0.613" rx="0.641" ry="0.613" fill="#fff"/>
          <path id="Elipse_3955_-_Contorno" data-name="Elipse 3955 - Contorno" d="M.641-.5A1.129,1.129,0,0,1,1.782.613,1.129,1.129,0,0,1,.641,1.726,1.129,1.129,0,0,1-.5.613,1.129,1.129,0,0,1,.641-.5Z" fill="#fff"/>
          <path id="Trazado_99222" data-name="Trazado 99222" d="M423.942,65.853a.642.642,0,1,1-.641-.613A.628.628,0,0,1,423.942,65.853Z" transform="translate(-416.89 -65.24)" fill="#fff"/>
          <path id="Trazado_99222_-_Contorno" data-name="Trazado 99222 - Contorno" d="M423.3,64.74a1.113,1.113,0,1,1-1.141,1.113A1.128,1.128,0,0,1,423.3,64.74Z" transform="translate(-416.89 -65.24)" fill="#fff"/>
          <ellipse id="Elipse_3956" data-name="Elipse 3956" cx="0.641" cy="0.613" rx="0.641" ry="0.613" transform="translate(11.54)" fill="#fff"/>
          <path id="Elipse_3956_-_Contorno" data-name="Elipse 3956 - Contorno" d="M.641-.5A1.129,1.129,0,0,1,1.782.613,1.129,1.129,0,0,1,.641,1.726,1.129,1.129,0,0,1-.5.613,1.129,1.129,0,0,1,.641-.5Z" transform="translate(11.54)" fill="#fff"/>
          <path id="Trazado_99223" data-name="Trazado 99223" d="M440.835,65.853a.642.642,0,1,1-.641-.613A.628.628,0,0,1,440.835,65.853Z" transform="translate(-422.243 -65.24)" fill="#fff"/>
          <path id="Trazado_99223_-_Contorno" data-name="Trazado 99223 - Contorno" d="M440.194,64.74a1.113,1.113,0,1,1-1.141,1.113A1.129,1.129,0,0,1,440.194,64.74Z" transform="translate(-422.243 -65.24)" fill="#fff"/>
          <path id="Trazado_99224" data-name="Trazado 99224" d="M449.281,65.853a.642.642,0,1,1-.641-.613A.628.628,0,0,1,449.281,65.853Z" transform="translate(-424.919 -65.24)" fill="#fff"/>
          <path id="Trazado_99224_-_Contorno" data-name="Trazado 99224 - Contorno" d="M448.64,64.74a1.113,1.113,0,1,1-1.141,1.113A1.128,1.128,0,0,1,448.64,64.74Z" transform="translate(-424.919 -65.24)" fill="#fff"/>
          <ellipse id="Elipse_3957" data-name="Elipse 3957" cx="0.641" cy="0.613" rx="0.641" ry="0.613" transform="translate(28.85)" fill="#fff"/>
          <path id="Elipse_3957_-_Contorno" data-name="Elipse 3957 - Contorno" d="M.641-.5A1.129,1.129,0,0,1,1.782.613,1.129,1.129,0,0,1,.641,1.726,1.129,1.129,0,0,1-.5.613,1.129,1.129,0,0,1,.641-.5Z" transform="translate(28.85)" fill="#fff"/>
          <path id="Trazado_99225" data-name="Trazado 99225" d="M466.174,65.853a.642.642,0,1,1-.641-.613A.628.628,0,0,1,466.174,65.853Z" transform="translate(-430.272 -65.24)" fill="#fff"/>
          <path id="Trazado_99225_-_Contorno" data-name="Trazado 99225 - Contorno" d="M465.533,64.74a1.113,1.113,0,1,1-1.141,1.113A1.129,1.129,0,0,1,465.533,64.74Z" transform="translate(-430.272 -65.24)" fill="#fff"/>
          <ellipse id="Elipse_3958" data-name="Elipse 3958" cx="0.641" cy="0.613" rx="0.641" ry="0.613" transform="translate(40.39)" fill="#fff"/>
          <path id="Elipse_3958_-_Contorno" data-name="Elipse 3958 - Contorno" d="M.641-.5A1.129,1.129,0,0,1,1.782.613,1.129,1.129,0,0,1,.641,1.726,1.129,1.129,0,0,1-.5.613,1.129,1.129,0,0,1,.641-.5Z" transform="translate(40.39)" fill="#fff"/>
          <ellipse id="Elipse_3959" data-name="Elipse 3959" cx="0.641" cy="0.613" rx="0.641" ry="0.613" transform="translate(46.16)" fill="#fff"/>
          <path id="Elipse_3959_-_Contorno" data-name="Elipse 3959 - Contorno" d="M.641-.5A1.129,1.129,0,0,1,1.782.613,1.129,1.129,0,0,1,.641,1.726,1.129,1.129,0,0,1-.5.613,1.129,1.129,0,0,1,.641-.5Z" transform="translate(46.16)" fill="#fff"/>
          <path id="Trazado_99226" data-name="Trazado 99226" d="M491.513,65.853a.642.642,0,1,1-.641-.613A.628.628,0,0,1,491.513,65.853Z" transform="translate(-438.3 -65.24)" fill="#fff"/>
          <path id="Trazado_99226_-_Contorno" data-name="Trazado 99226 - Contorno" d="M490.872,64.74a1.113,1.113,0,1,1-1.141,1.113A1.129,1.129,0,0,1,490.872,64.74Z" transform="translate(-438.3 -65.24)" fill="#fff"/>
          <path id="Trazado_99227" data-name="Trazado 99227" d="M499.959,65.853a.642.642,0,1,1-.641-.613A.628.628,0,0,1,499.959,65.853Z" transform="translate(-440.977 -65.24)" fill="#fff"/>
          <path id="Trazado_99227_-_Contorno" data-name="Trazado 99227 - Contorno" d="M499.318,64.74a1.113,1.113,0,1,1-1.141,1.113A1.129,1.129,0,0,1,499.318,64.74Z" transform="translate(-440.977 -65.24)" fill="#fff"/>
        </g>
        <g id="Grupo_53309" data-name="Grupo 53309" transform="translate(0 14.714)">
          <ellipse id="Elipse_3960" data-name="Elipse 3960" cx="0.641" cy="0.613" rx="0.641" ry="0.613" transform="translate(0 0)" fill="#fff"/>
          <path id="Elipse_3960_-_Contorno" data-name="Elipse 3960 - Contorno" d="M.641-.5A1.129,1.129,0,0,1,1.782.613,1.129,1.129,0,0,1,.641,1.726,1.129,1.129,0,0,1-.5.613,1.129,1.129,0,0,1,.641-.5Z" transform="translate(0 0)" fill="#fff"/>
          <path id="Trazado_99228" data-name="Trazado 99228" d="M423.942,73.36a.642.642,0,1,1-.641-.613A.627.627,0,0,1,423.942,73.36Z" transform="translate(-416.89 -72.747)" fill="#fff"/>
          <path id="Trazado_99228_-_Contorno" data-name="Trazado 99228 - Contorno" d="M423.3,74.473a1.113,1.113,0,1,1,1.141-1.113A1.129,1.129,0,0,1,423.3,74.473Z" transform="translate(-416.89 -72.747)" fill="#fff"/>
          <ellipse id="Elipse_3961" data-name="Elipse 3961" cx="0.641" cy="0.613" rx="0.641" ry="0.613" transform="translate(11.54 0)" fill="#fff"/>
          <path id="Elipse_3961_-_Contorno" data-name="Elipse 3961 - Contorno" d="M.641-.5A1.129,1.129,0,0,1,1.782.613,1.129,1.129,0,0,1,.641,1.726,1.129,1.129,0,0,1-.5.613,1.129,1.129,0,0,1,.641-.5Z" transform="translate(11.54 0)" fill="#fff"/>
          <path id="Trazado_99229" data-name="Trazado 99229" d="M440.835,73.36a.642.642,0,1,1-.641-.613A.627.627,0,0,1,440.835,73.36Z" transform="translate(-422.243 -72.747)" fill="#fff"/>
          <path id="Trazado_99229_-_Contorno" data-name="Trazado 99229 - Contorno" d="M440.194,74.473a1.113,1.113,0,1,1,1.141-1.113A1.128,1.128,0,0,1,440.194,74.473Z" transform="translate(-422.243 -72.747)" fill="#fff"/>
          <path id="Trazado_99230" data-name="Trazado 99230" d="M449.281,73.36a.642.642,0,1,1-.641-.613A.627.627,0,0,1,449.281,73.36Z" transform="translate(-424.919 -72.747)" fill="#fff"/>
          <path id="Trazado_99230_-_Contorno" data-name="Trazado 99230 - Contorno" d="M448.64,74.473a1.113,1.113,0,1,1,1.141-1.113A1.129,1.129,0,0,1,448.64,74.473Z" transform="translate(-424.919 -72.747)" fill="#fff"/>
          <ellipse id="Elipse_3962" data-name="Elipse 3962" cx="0.641" cy="0.613" rx="0.641" ry="0.613" transform="translate(28.85 0)" fill="#fff"/>
          <path id="Elipse_3962_-_Contorno" data-name="Elipse 3962 - Contorno" d="M.641-.5A1.129,1.129,0,0,1,1.782.613,1.129,1.129,0,0,1,.641,1.726,1.129,1.129,0,0,1-.5.613,1.129,1.129,0,0,1,.641-.5Z" transform="translate(28.85 0)" fill="#fff"/>
          <path id="Trazado_99231" data-name="Trazado 99231" d="M466.174,73.36a.642.642,0,1,1-.641-.613A.628.628,0,0,1,466.174,73.36Z" transform="translate(-430.272 -72.747)" fill="#fff"/>
          <path id="Trazado_99231_-_Contorno" data-name="Trazado 99231 - Contorno" d="M465.533,74.473a1.113,1.113,0,1,1,1.141-1.113A1.128,1.128,0,0,1,465.533,74.473Z" transform="translate(-430.272 -72.747)" fill="#fff"/>
          <ellipse id="Elipse_3963" data-name="Elipse 3963" cx="0.641" cy="0.613" rx="0.641" ry="0.613" transform="translate(40.39 0)" fill="#fff"/>
          <path id="Elipse_3963_-_Contorno" data-name="Elipse 3963 - Contorno" d="M.641-.5A1.129,1.129,0,0,1,1.782.613,1.129,1.129,0,0,1,.641,1.726,1.129,1.129,0,0,1-.5.613,1.129,1.129,0,0,1,.641-.5Z" transform="translate(40.39 0)" fill="#fff"/>
          <ellipse id="Elipse_3964" data-name="Elipse 3964" cx="0.641" cy="0.613" rx="0.641" ry="0.613" transform="translate(46.16 0)" fill="#fff"/>
          <path id="Elipse_3964_-_Contorno" data-name="Elipse 3964 - Contorno" d="M.641-.5A1.129,1.129,0,0,1,1.782.613,1.129,1.129,0,0,1,.641,1.726,1.129,1.129,0,0,1-.5.613,1.129,1.129,0,0,1,.641-.5Z" transform="translate(46.16 0)" fill="#fff"/>
          <path id="Trazado_99232" data-name="Trazado 99232" d="M491.513,73.36a.642.642,0,1,1-.641-.613A.628.628,0,0,1,491.513,73.36Z" transform="translate(-438.3 -72.747)" fill="#fff"/>
          <path id="Trazado_99232_-_Contorno" data-name="Trazado 99232 - Contorno" d="M490.872,74.473a1.113,1.113,0,1,1,1.141-1.113A1.128,1.128,0,0,1,490.872,74.473Z" transform="translate(-438.3 -72.747)" fill="#fff"/>
          <path id="Trazado_99233" data-name="Trazado 99233" d="M499.959,73.36a.642.642,0,1,1-.641-.613A.627.627,0,0,1,499.959,73.36Z" transform="translate(-440.977 -72.747)" fill="#fff"/>
          <path id="Trazado_99233_-_Contorno" data-name="Trazado 99233 - Contorno" d="M499.318,74.473a1.113,1.113,0,1,1,1.141-1.113A1.128,1.128,0,0,1,499.318,74.473Z" transform="translate(-440.977 -72.747)" fill="#fff"/>
        </g>
        <g id="Grupo_53310" data-name="Grupo 53310" transform="translate(0 19.619)">
          <path id="Trazado_99234" data-name="Trazado 99234" d="M415.5,80.868a.642.642,0,1,1-.642-.613A.628.628,0,0,1,415.5,80.868Z" transform="translate(-414.214 -80.255)" fill="#fff"/>
          <path id="Trazado_99234_-_Contorno" data-name="Trazado 99234 - Contorno" d="M414.855,81.981A1.113,1.113,0,1,1,416,80.868,1.128,1.128,0,0,1,414.855,81.981Z" transform="translate(-414.214 -80.255)" fill="#fff"/>
          <path id="Trazado_99235" data-name="Trazado 99235" d="M423.942,80.868a.642.642,0,1,1-.641-.613A.627.627,0,0,1,423.942,80.868Z" transform="translate(-416.89 -80.255)" fill="#fff"/>
          <path id="Trazado_99235_-_Contorno" data-name="Trazado 99235 - Contorno" d="M423.3,81.981a1.113,1.113,0,1,1,1.141-1.113A1.129,1.129,0,0,1,423.3,81.981Z" transform="translate(-416.89 -80.255)" fill="#fff"/>
          <path id="Trazado_99236" data-name="Trazado 99236" d="M432.388,80.868a.642.642,0,1,1-.641-.613A.627.627,0,0,1,432.388,80.868Z" transform="translate(-419.566 -80.255)" fill="#fff"/>
          <path id="Trazado_99236_-_Contorno" data-name="Trazado 99236 - Contorno" d="M431.747,81.981a1.113,1.113,0,1,1,1.141-1.113A1.129,1.129,0,0,1,431.747,81.981Z" transform="translate(-419.566 -80.255)" fill="#fff"/>
          <path id="Trazado_99237" data-name="Trazado 99237" d="M440.835,80.868a.642.642,0,1,1-.641-.613A.627.627,0,0,1,440.835,80.868Z" transform="translate(-422.243 -80.255)" fill="#fff"/>
          <path id="Trazado_99237_-_Contorno" data-name="Trazado 99237 - Contorno" d="M440.194,81.981a1.113,1.113,0,1,1,1.141-1.113A1.128,1.128,0,0,1,440.194,81.981Z" transform="translate(-422.243 -80.255)" fill="#fff"/>
          <path id="Trazado_99238" data-name="Trazado 99238" d="M449.281,80.868a.642.642,0,1,1-.641-.613A.627.627,0,0,1,449.281,80.868Z" transform="translate(-424.919 -80.255)" fill="#fff"/>
          <path id="Trazado_99238_-_Contorno" data-name="Trazado 99238 - Contorno" d="M448.64,81.981a1.113,1.113,0,1,1,1.141-1.113A1.129,1.129,0,0,1,448.64,81.981Z" transform="translate(-424.919 -80.255)" fill="#fff"/>
          <path id="Trazado_99239" data-name="Trazado 99239" d="M457.727,80.868a.642.642,0,1,1-.641-.613A.627.627,0,0,1,457.727,80.868Z" transform="translate(-427.595 -80.255)" fill="#fff"/>
          <path id="Trazado_99239_-_Contorno" data-name="Trazado 99239 - Contorno" d="M457.086,81.981a1.113,1.113,0,1,1,1.141-1.113A1.129,1.129,0,0,1,457.086,81.981Z" transform="translate(-427.595 -80.255)" fill="#fff"/>
          <path id="Trazado_99240" data-name="Trazado 99240" d="M466.174,80.868a.642.642,0,1,1-.641-.613A.628.628,0,0,1,466.174,80.868Z" transform="translate(-430.272 -80.255)" fill="#fff"/>
          <path id="Trazado_99240_-_Contorno" data-name="Trazado 99240 - Contorno" d="M465.533,81.981a1.113,1.113,0,1,1,1.141-1.113A1.128,1.128,0,0,1,465.533,81.981Z" transform="translate(-430.272 -80.255)" fill="#fff"/>
          <path id="Trazado_99241" data-name="Trazado 99241" d="M474.62,80.868a.642.642,0,1,1-.641-.613A.627.627,0,0,1,474.62,80.868Z" transform="translate(-432.948 -80.255)" fill="#fff"/>
          <path id="Trazado_99241_-_Contorno" data-name="Trazado 99241 - Contorno" d="M473.98,81.981a1.113,1.113,0,1,1,1.141-1.113A1.129,1.129,0,0,1,473.98,81.981Z" transform="translate(-432.948 -80.255)" fill="#fff"/>
          <path id="Trazado_99242" data-name="Trazado 99242" d="M483.066,80.868a.642.642,0,1,1-.641-.613A.627.627,0,0,1,483.066,80.868Z" transform="translate(-435.624 -80.255)" fill="#fff"/>
          <path id="Trazado_99242_-_Contorno" data-name="Trazado 99242 - Contorno" d="M482.425,81.981a1.113,1.113,0,1,1,1.141-1.113A1.129,1.129,0,0,1,482.425,81.981Z" transform="translate(-435.624 -80.255)" fill="#fff"/>
          <path id="Trazado_99243" data-name="Trazado 99243" d="M491.513,80.868a.642.642,0,1,1-.641-.613A.628.628,0,0,1,491.513,80.868Z" transform="translate(-438.301 -80.255)" fill="#fff"/>
          <path id="Trazado_99243_-_Contorno" data-name="Trazado 99243 - Contorno" d="M490.872,81.981a1.113,1.113,0,1,1,1.141-1.113A1.128,1.128,0,0,1,490.872,81.981Z" transform="translate(-438.301 -80.255)" fill="#fff"/>
          <path id="Trazado_99244" data-name="Trazado 99244" d="M499.959,80.868a.642.642,0,1,1-.641-.613A.627.627,0,0,1,499.959,80.868Z" transform="translate(-440.977 -80.255)" fill="#fff"/>
          <path id="Trazado_99244_-_Contorno" data-name="Trazado 99244 - Contorno" d="M499.318,81.981a1.113,1.113,0,1,1,1.141-1.113A1.128,1.128,0,0,1,499.318,81.981Z" transform="translate(-440.977 -80.255)" fill="#fff"/>
        </g>
        <g id="Grupo_53311" data-name="Grupo 53311" transform="translate(0 24.524)">
          <ellipse id="Elipse_3965" data-name="Elipse 3965" cx="0.641" cy="0.613" rx="0.641" ry="0.613" transform="translate(0 0)" fill="#fff"/>
          <path id="Elipse_3965_-_Contorno" data-name="Elipse 3965 - Contorno" d="M.641-.5A1.129,1.129,0,0,1,1.782.613,1.129,1.129,0,0,1,.641,1.726,1.129,1.129,0,0,1-.5.613,1.129,1.129,0,0,1,.641-.5Z" transform="translate(0 0)" fill="#fff"/>
          <path id="Trazado_99245" data-name="Trazado 99245" d="M423.942,88.376a.642.642,0,1,1-.641-.613A.627.627,0,0,1,423.942,88.376Z" transform="translate(-416.89 -87.763)" fill="#fff"/>
          <path id="Trazado_99245_-_Contorno" data-name="Trazado 99245 - Contorno" d="M423.3,89.489a1.113,1.113,0,1,1,1.141-1.113A1.129,1.129,0,0,1,423.3,89.489Z" transform="translate(-416.89 -87.763)" fill="#fff"/>
          <ellipse id="Elipse_3966" data-name="Elipse 3966" cx="0.641" cy="0.613" rx="0.641" ry="0.613" transform="translate(11.54 0)" fill="#fff"/>
          <path id="Elipse_3966_-_Contorno" data-name="Elipse 3966 - Contorno" d="M.641-.5A1.129,1.129,0,0,1,1.782.613,1.129,1.129,0,0,1,.641,1.726,1.129,1.129,0,0,1-.5.613,1.129,1.129,0,0,1,.641-.5Z" transform="translate(11.54 0)" fill="#fff"/>
          <path id="Trazado_99246" data-name="Trazado 99246" d="M440.835,88.376a.642.642,0,1,1-.641-.613A.628.628,0,0,1,440.835,88.376Z" transform="translate(-422.243 -87.763)" fill="#fff"/>
          <path id="Trazado_99246_-_Contorno" data-name="Trazado 99246 - Contorno" d="M440.194,89.489a1.113,1.113,0,1,1,1.141-1.113A1.128,1.128,0,0,1,440.194,89.489Z" transform="translate(-422.243 -87.763)" fill="#fff"/>
          <path id="Trazado_99247" data-name="Trazado 99247" d="M449.281,88.376a.642.642,0,1,1-.641-.613A.627.627,0,0,1,449.281,88.376Z" transform="translate(-424.919 -87.763)" fill="#fff"/>
          <path id="Trazado_99247_-_Contorno" data-name="Trazado 99247 - Contorno" d="M448.64,89.489a1.113,1.113,0,1,1,1.141-1.113A1.129,1.129,0,0,1,448.64,89.489Z" transform="translate(-424.919 -87.763)" fill="#fff"/>
          <ellipse id="Elipse_3967" data-name="Elipse 3967" cx="0.641" cy="0.613" rx="0.641" ry="0.613" transform="translate(28.85 0)" fill="#fff"/>
          <path id="Elipse_3967_-_Contorno" data-name="Elipse 3967 - Contorno" d="M.641-.5A1.129,1.129,0,0,1,1.782.613,1.129,1.129,0,0,1,.641,1.726,1.129,1.129,0,0,1-.5.613,1.129,1.129,0,0,1,.641-.5Z" transform="translate(28.85 0)" fill="#fff"/>
          <path id="Trazado_99248" data-name="Trazado 99248" d="M466.174,88.376a.642.642,0,1,1-.641-.613A.628.628,0,0,1,466.174,88.376Z" transform="translate(-430.272 -87.763)" fill="#fff"/>
          <path id="Trazado_99248_-_Contorno" data-name="Trazado 99248 - Contorno" d="M465.533,89.489a1.113,1.113,0,1,1,1.141-1.113A1.128,1.128,0,0,1,465.533,89.489Z" transform="translate(-430.272 -87.763)" fill="#fff"/>
          <ellipse id="Elipse_3968" data-name="Elipse 3968" cx="0.641" cy="0.613" rx="0.641" ry="0.613" transform="translate(40.39 0)" fill="#fff"/>
          <path id="Elipse_3968_-_Contorno" data-name="Elipse 3968 - Contorno" d="M.641-.5A1.129,1.129,0,0,1,1.782.613,1.129,1.129,0,0,1,.641,1.726,1.129,1.129,0,0,1-.5.613,1.129,1.129,0,0,1,.641-.5Z" transform="translate(40.39 0)" fill="#fff"/>
          <ellipse id="Elipse_3969" data-name="Elipse 3969" cx="0.641" cy="0.613" rx="0.641" ry="0.613" transform="translate(46.16 0)" fill="#fff"/>
          <path id="Elipse_3969_-_Contorno" data-name="Elipse 3969 - Contorno" d="M.641-.5A1.129,1.129,0,0,1,1.782.613,1.129,1.129,0,0,1,.641,1.726,1.129,1.129,0,0,1-.5.613,1.129,1.129,0,0,1,.641-.5Z" transform="translate(46.16 0)" fill="#fff"/>
          <path id="Trazado_99249" data-name="Trazado 99249" d="M491.513,88.376a.642.642,0,1,1-.641-.613A.628.628,0,0,1,491.513,88.376Z" transform="translate(-438.3 -87.763)" fill="#fff"/>
          <path id="Trazado_99249_-_Contorno" data-name="Trazado 99249 - Contorno" d="M490.872,89.489a1.113,1.113,0,1,1,1.141-1.113A1.128,1.128,0,0,1,490.872,89.489Z" transform="translate(-438.3 -87.763)" fill="#fff"/>
          <path id="Trazado_99250" data-name="Trazado 99250" d="M499.959,88.376a.642.642,0,1,1-.641-.613A.627.627,0,0,1,499.959,88.376Z" transform="translate(-440.977 -87.763)" fill="#fff"/>
          <path id="Trazado_99250_-_Contorno" data-name="Trazado 99250 - Contorno" d="M499.318,89.489a1.113,1.113,0,1,1,1.141-1.113A1.128,1.128,0,0,1,499.318,89.489Z" transform="translate(-440.977 -87.763)" fill="#fff"/>
        </g>
        <g id="Grupo_53312" data-name="Grupo 53312" transform="translate(0 29.429)">
          <ellipse id="Elipse_3970" data-name="Elipse 3970" cx="0.641" cy="0.613" rx="0.641" ry="0.613" fill="#fff"/>
          <path id="Elipse_3970_-_Contorno" data-name="Elipse 3970 - Contorno" d="M.641-.5A1.129,1.129,0,0,1,1.782.613,1.129,1.129,0,0,1,.641,1.726,1.129,1.129,0,0,1-.5.613,1.129,1.129,0,0,1,.641-.5Z" fill="#fff"/>
          <path id="Trazado_99251" data-name="Trazado 99251" d="M423.942,95.884a.642.642,0,1,1-.641-.613A.627.627,0,0,1,423.942,95.884Z" transform="translate(-416.89 -95.271)" fill="#fff"/>
          <path id="Trazado_99251_-_Contorno" data-name="Trazado 99251 - Contorno" d="M423.3,94.771a1.113,1.113,0,1,1-1.141,1.113A1.128,1.128,0,0,1,423.3,94.771Z" transform="translate(-416.89 -95.271)" fill="#fff"/>
          <ellipse id="Elipse_3971" data-name="Elipse 3971" cx="0.641" cy="0.613" rx="0.641" ry="0.613" transform="translate(11.54)" fill="#fff"/>
          <path id="Elipse_3971_-_Contorno" data-name="Elipse 3971 - Contorno" d="M.641-.5A1.129,1.129,0,0,1,1.782.613,1.129,1.129,0,0,1,.641,1.726,1.129,1.129,0,0,1-.5.613,1.129,1.129,0,0,1,.641-.5Z" transform="translate(11.54)" fill="#fff"/>
          <path id="Trazado_99252" data-name="Trazado 99252" d="M440.835,95.884a.642.642,0,1,1-.641-.613A.628.628,0,0,1,440.835,95.884Z" transform="translate(-422.243 -95.271)" fill="#fff"/>
          <path id="Trazado_99252_-_Contorno" data-name="Trazado 99252 - Contorno" d="M440.194,94.771a1.113,1.113,0,1,1-1.141,1.113A1.129,1.129,0,0,1,440.194,94.771Z" transform="translate(-422.243 -95.271)" fill="#fff"/>
          <path id="Trazado_99253" data-name="Trazado 99253" d="M449.281,95.884a.642.642,0,1,1-.641-.613A.627.627,0,0,1,449.281,95.884Z" transform="translate(-424.919 -95.271)" fill="#fff"/>
          <path id="Trazado_99253_-_Contorno" data-name="Trazado 99253 - Contorno" d="M448.64,94.771a1.113,1.113,0,1,1-1.141,1.113A1.128,1.128,0,0,1,448.64,94.771Z" transform="translate(-424.919 -95.271)" fill="#fff"/>
          <ellipse id="Elipse_3972" data-name="Elipse 3972" cx="0.641" cy="0.613" rx="0.641" ry="0.613" transform="translate(28.85)" fill="#fff"/>
          <path id="Elipse_3972_-_Contorno" data-name="Elipse 3972 - Contorno" d="M.641-.5A1.129,1.129,0,0,1,1.782.613,1.129,1.129,0,0,1,.641,1.726,1.129,1.129,0,0,1-.5.613,1.129,1.129,0,0,1,.641-.5Z" transform="translate(28.85)" fill="#fff"/>
          <path id="Trazado_99254" data-name="Trazado 99254" d="M466.174,95.884a.642.642,0,1,1-.641-.613A.628.628,0,0,1,466.174,95.884Z" transform="translate(-430.272 -95.271)" fill="#fff"/>
          <path id="Trazado_99254_-_Contorno" data-name="Trazado 99254 - Contorno" d="M465.533,94.771a1.113,1.113,0,1,1-1.141,1.113A1.129,1.129,0,0,1,465.533,94.771Z" transform="translate(-430.272 -95.271)" fill="#fff"/>
          <ellipse id="Elipse_3973" data-name="Elipse 3973" cx="0.641" cy="0.613" rx="0.641" ry="0.613" transform="translate(40.39)" fill="#fff"/>
          <path id="Elipse_3973_-_Contorno" data-name="Elipse 3973 - Contorno" d="M.641-.5A1.129,1.129,0,0,1,1.782.613,1.129,1.129,0,0,1,.641,1.726,1.129,1.129,0,0,1-.5.613,1.129,1.129,0,0,1,.641-.5Z" transform="translate(40.39)" fill="#fff"/>
          <ellipse id="Elipse_3974" data-name="Elipse 3974" cx="0.641" cy="0.613" rx="0.641" ry="0.613" transform="translate(46.16)" fill="#fff"/>
          <path id="Elipse_3974_-_Contorno" data-name="Elipse 3974 - Contorno" d="M.641-.5A1.129,1.129,0,0,1,1.782.613,1.129,1.129,0,0,1,.641,1.726,1.129,1.129,0,0,1-.5.613,1.129,1.129,0,0,1,.641-.5Z" transform="translate(46.16)" fill="#fff"/>
          <path id="Trazado_99255" data-name="Trazado 99255" d="M491.513,95.884a.642.642,0,1,1-.641-.613A.628.628,0,0,1,491.513,95.884Z" transform="translate(-438.3 -95.271)" fill="#fff"/>
          <path id="Trazado_99255_-_Contorno" data-name="Trazado 99255 - Contorno" d="M490.872,94.771a1.113,1.113,0,1,1-1.141,1.113A1.129,1.129,0,0,1,490.872,94.771Z" transform="translate(-438.3 -95.271)" fill="#fff"/>
          <path id="Trazado_99256" data-name="Trazado 99256" d="M499.959,95.884a.642.642,0,1,1-.641-.613A.628.628,0,0,1,499.959,95.884Z" transform="translate(-440.977 -95.271)" fill="#fff"/>
          <path id="Trazado_99256_-_Contorno" data-name="Trazado 99256 - Contorno" d="M499.318,94.771a1.113,1.113,0,1,1-1.141,1.113A1.129,1.129,0,0,1,499.318,94.771Z" transform="translate(-440.977 -95.271)" fill="#fff"/>
        </g>
        <g id="Grupo_53313" data-name="Grupo 53313" transform="translate(0 34.334)">
          <path id="Trazado_99257" data-name="Trazado 99257" d="M415.5,103.392a.642.642,0,1,1-.642-.613A.628.628,0,0,1,415.5,103.392Z" transform="translate(-414.214 -102.779)" fill="#fff"/>
          <path id="Trazado_99257_-_Contorno" data-name="Trazado 99257 - Contorno" d="M414.855,102.279a1.113,1.113,0,1,1-1.141,1.113A1.129,1.129,0,0,1,414.855,102.279Z" transform="translate(-414.214 -102.779)" fill="#fff"/>
          <path id="Trazado_99258" data-name="Trazado 99258" d="M423.942,103.392a.642.642,0,1,1-.641-.613A.627.627,0,0,1,423.942,103.392Z" transform="translate(-416.89 -102.779)" fill="#fff"/>
          <path id="Trazado_99258_-_Contorno" data-name="Trazado 99258 - Contorno" d="M423.3,102.279a1.113,1.113,0,1,1-1.141,1.113A1.128,1.128,0,0,1,423.3,102.279Z" transform="translate(-416.89 -102.779)" fill="#fff"/>
          <path id="Trazado_99259" data-name="Trazado 99259" d="M432.388,103.392a.642.642,0,1,1-.641-.613A.627.627,0,0,1,432.388,103.392Z" transform="translate(-419.566 -102.779)" fill="#fff"/>
          <path id="Trazado_99259_-_Contorno" data-name="Trazado 99259 - Contorno" d="M431.747,102.279a1.113,1.113,0,1,1-1.142,1.113A1.128,1.128,0,0,1,431.747,102.279Z" transform="translate(-419.566 -102.779)" fill="#fff"/>
          <path id="Trazado_99260" data-name="Trazado 99260" d="M440.835,103.392a.642.642,0,1,1-.641-.613A.628.628,0,0,1,440.835,103.392Z" transform="translate(-422.243 -102.779)" fill="#fff"/>
          <path id="Trazado_99260_-_Contorno" data-name="Trazado 99260 - Contorno" d="M440.194,102.279a1.113,1.113,0,1,1-1.141,1.113A1.129,1.129,0,0,1,440.194,102.279Z" transform="translate(-422.243 -102.779)" fill="#fff"/>
          <path id="Trazado_99261" data-name="Trazado 99261" d="M449.281,103.392a.642.642,0,1,1-.641-.613A.627.627,0,0,1,449.281,103.392Z" transform="translate(-424.919 -102.779)" fill="#fff"/>
          <path id="Trazado_99261_-_Contorno" data-name="Trazado 99261 - Contorno" d="M448.64,102.279a1.113,1.113,0,1,1-1.141,1.113A1.128,1.128,0,0,1,448.64,102.279Z" transform="translate(-424.919 -102.779)" fill="#fff"/>
          <path id="Trazado_99262" data-name="Trazado 99262" d="M457.727,103.392a.642.642,0,1,1-.641-.613A.627.627,0,0,1,457.727,103.392Z" transform="translate(-427.595 -102.779)" fill="#fff"/>
          <path id="Trazado_99262_-_Contorno" data-name="Trazado 99262 - Contorno" d="M457.086,102.279a1.113,1.113,0,1,1-1.141,1.113A1.128,1.128,0,0,1,457.086,102.279Z" transform="translate(-427.595 -102.779)" fill="#fff"/>
          <path id="Trazado_99263" data-name="Trazado 99263" d="M466.174,103.392a.642.642,0,1,1-.641-.613A.628.628,0,0,1,466.174,103.392Z" transform="translate(-430.272 -102.779)" fill="#fff"/>
          <path id="Trazado_99263_-_Contorno" data-name="Trazado 99263 - Contorno" d="M465.533,102.279a1.113,1.113,0,1,1-1.141,1.113A1.129,1.129,0,0,1,465.533,102.279Z" transform="translate(-430.272 -102.779)" fill="#fff"/>
          <path id="Trazado_99264" data-name="Trazado 99264" d="M474.62,103.392a.642.642,0,1,1-.641-.613A.627.627,0,0,1,474.62,103.392Z" transform="translate(-432.948 -102.779)" fill="#fff"/>
          <path id="Trazado_99264_-_Contorno" data-name="Trazado 99264 - Contorno" d="M473.98,102.279a1.113,1.113,0,1,1-1.141,1.113A1.128,1.128,0,0,1,473.98,102.279Z" transform="translate(-432.948 -102.779)" fill="#fff"/>
          <path id="Trazado_99265" data-name="Trazado 99265" d="M483.066,103.392a.642.642,0,1,1-.641-.613A.627.627,0,0,1,483.066,103.392Z" transform="translate(-435.624 -102.779)" fill="#fff"/>
          <path id="Trazado_99265_-_Contorno" data-name="Trazado 99265 - Contorno" d="M482.425,102.279a1.113,1.113,0,1,1-1.142,1.113A1.128,1.128,0,0,1,482.425,102.279Z" transform="translate(-435.624 -102.779)" fill="#fff"/>
          <path id="Trazado_99266" data-name="Trazado 99266" d="M491.513,103.392a.642.642,0,1,1-.641-.613A.628.628,0,0,1,491.513,103.392Z" transform="translate(-438.301 -102.779)" fill="#fff"/>
          <path id="Trazado_99266_-_Contorno" data-name="Trazado 99266 - Contorno" d="M490.872,102.279a1.113,1.113,0,1,1-1.141,1.113A1.129,1.129,0,0,1,490.872,102.279Z" transform="translate(-438.301 -102.779)" fill="#fff"/>
          <path id="Trazado_99267" data-name="Trazado 99267" d="M499.959,103.392a.642.642,0,1,1-.641-.613A.628.628,0,0,1,499.959,103.392Z" transform="translate(-440.977 -102.779)" fill="#fff"/>
          <path id="Trazado_99267_-_Contorno" data-name="Trazado 99267 - Contorno" d="M499.318,102.279a1.113,1.113,0,1,1-1.141,1.113A1.129,1.129,0,0,1,499.318,102.279Z" transform="translate(-440.977 -102.779)" fill="#fff"/>
        </g>
        <g id="Grupo_53314" data-name="Grupo 53314" transform="translate(0 39.239)">
          <ellipse id="Elipse_3975" data-name="Elipse 3975" cx="0.641" cy="0.613" rx="0.641" ry="0.613" fill="#fff"/>
          <path id="Elipse_3975_-_Contorno" data-name="Elipse 3975 - Contorno" d="M.641-.5A1.129,1.129,0,0,1,1.782.613,1.129,1.129,0,0,1,.641,1.726,1.129,1.129,0,0,1-.5.613,1.129,1.129,0,0,1,.641-.5Z" fill="#fff"/>
          <path id="Trazado_99268" data-name="Trazado 99268" d="M423.942,110.9a.642.642,0,1,1-.641-.613A.628.628,0,0,1,423.942,110.9Z" transform="translate(-416.89 -110.287)" fill="#fff"/>
          <path id="Trazado_99268_-_Contorno" data-name="Trazado 99268 - Contorno" d="M423.3,109.787a1.113,1.113,0,1,1-1.141,1.113A1.128,1.128,0,0,1,423.3,109.787Z" transform="translate(-416.89 -110.287)" fill="#fff"/>
          <ellipse id="Elipse_3976" data-name="Elipse 3976" cx="0.641" cy="0.613" rx="0.641" ry="0.613" transform="translate(11.54)" fill="#fff"/>
          <path id="Elipse_3976_-_Contorno" data-name="Elipse 3976 - Contorno" d="M.641-.5A1.129,1.129,0,0,1,1.782.613,1.129,1.129,0,0,1,.641,1.726,1.129,1.129,0,0,1-.5.613,1.129,1.129,0,0,1,.641-.5Z" transform="translate(11.54)" fill="#fff"/>
          <path id="Trazado_99269" data-name="Trazado 99269" d="M440.835,110.9a.642.642,0,1,1-.641-.613A.628.628,0,0,1,440.835,110.9Z" transform="translate(-422.243 -110.287)" fill="#fff"/>
          <path id="Trazado_99269_-_Contorno" data-name="Trazado 99269 - Contorno" d="M440.194,109.787a1.113,1.113,0,1,1-1.141,1.113A1.129,1.129,0,0,1,440.194,109.787Z" transform="translate(-422.243 -110.287)" fill="#fff"/>
          <path id="Trazado_99270" data-name="Trazado 99270" d="M449.281,110.9a.642.642,0,1,1-.641-.613A.628.628,0,0,1,449.281,110.9Z" transform="translate(-424.919 -110.287)" fill="#fff"/>
          <path id="Trazado_99270_-_Contorno" data-name="Trazado 99270 - Contorno" d="M448.64,109.787A1.113,1.113,0,1,1,447.5,110.9,1.128,1.128,0,0,1,448.64,109.787Z" transform="translate(-424.919 -110.287)" fill="#fff"/>
          <ellipse id="Elipse_3977" data-name="Elipse 3977" cx="0.641" cy="0.613" rx="0.641" ry="0.613" transform="translate(28.85)" fill="#fff"/>
          <path id="Elipse_3977_-_Contorno" data-name="Elipse 3977 - Contorno" d="M.641-.5A1.129,1.129,0,0,1,1.782.613,1.129,1.129,0,0,1,.641,1.726,1.129,1.129,0,0,1-.5.613,1.129,1.129,0,0,1,.641-.5Z" transform="translate(28.85)" fill="#fff"/>
          <path id="Trazado_99271" data-name="Trazado 99271" d="M466.174,110.9a.642.642,0,1,1-.641-.613A.628.628,0,0,1,466.174,110.9Z" transform="translate(-430.272 -110.287)" fill="#fff"/>
          <path id="Trazado_99271_-_Contorno" data-name="Trazado 99271 - Contorno" d="M465.533,109.787a1.113,1.113,0,1,1-1.141,1.113A1.129,1.129,0,0,1,465.533,109.787Z" transform="translate(-430.272 -110.287)" fill="#fff"/>
          <ellipse id="Elipse_3978" data-name="Elipse 3978" cx="0.641" cy="0.613" rx="0.641" ry="0.613" transform="translate(40.39)" fill="#fff"/>
          <path id="Elipse_3978_-_Contorno" data-name="Elipse 3978 - Contorno" d="M.641-.5A1.129,1.129,0,0,1,1.782.613,1.129,1.129,0,0,1,.641,1.726,1.129,1.129,0,0,1-.5.613,1.129,1.129,0,0,1,.641-.5Z" transform="translate(40.39)" fill="#fff"/>
          <ellipse id="Elipse_3979" data-name="Elipse 3979" cx="0.641" cy="0.613" rx="0.641" ry="0.613" transform="translate(46.16)" fill="#fff"/>
          <path id="Elipse_3979_-_Contorno" data-name="Elipse 3979 - Contorno" d="M.641-.5A1.129,1.129,0,0,1,1.782.613,1.129,1.129,0,0,1,.641,1.726,1.129,1.129,0,0,1-.5.613,1.129,1.129,0,0,1,.641-.5Z" transform="translate(46.16)" fill="#fff"/>
          <path id="Trazado_99272" data-name="Trazado 99272" d="M491.513,110.9a.642.642,0,1,1-.641-.613A.628.628,0,0,1,491.513,110.9Z" transform="translate(-438.3 -110.287)" fill="#fff"/>
          <path id="Trazado_99272_-_Contorno" data-name="Trazado 99272 - Contorno" d="M490.872,109.787a1.113,1.113,0,1,1-1.141,1.113A1.129,1.129,0,0,1,490.872,109.787Z" transform="translate(-438.3 -110.287)" fill="#fff"/>
          <path id="Trazado_99273" data-name="Trazado 99273" d="M499.959,110.9a.642.642,0,1,1-.641-.613A.628.628,0,0,1,499.959,110.9Z" transform="translate(-440.977 -110.287)" fill="#fff"/>
          <path id="Trazado_99273_-_Contorno" data-name="Trazado 99273 - Contorno" d="M499.318,109.787a1.113,1.113,0,1,1-1.141,1.113A1.129,1.129,0,0,1,499.318,109.787Z" transform="translate(-440.977 -110.287)" fill="#fff"/>
        </g>
        <g id="Grupo_53315" data-name="Grupo 53315" transform="translate(0 44.144)">
          <path id="Trazado_99274" data-name="Trazado 99274" d="M415.5,118.407a.642.642,0,1,1-.642-.613A.628.628,0,0,1,415.5,118.407Z" transform="translate(-414.214 -117.794)" fill="#fff"/>
          <path id="Trazado_99274_-_Contorno" data-name="Trazado 99274 - Contorno" d="M414.855,119.521A1.114,1.114,0,1,1,416,118.407,1.129,1.129,0,0,1,414.855,119.521Z" transform="translate(-414.214 -117.794)" fill="#fff"/>
          <path id="Trazado_99275" data-name="Trazado 99275" d="M423.942,118.407a.642.642,0,1,1-.641-.613A.628.628,0,0,1,423.942,118.407Z" transform="translate(-416.89 -117.794)" fill="#fff"/>
          <path id="Trazado_99275_-_Contorno" data-name="Trazado 99275 - Contorno" d="M423.3,119.521a1.114,1.114,0,1,1,1.141-1.113A1.129,1.129,0,0,1,423.3,119.521Z" transform="translate(-416.89 -117.794)" fill="#fff"/>
          <path id="Trazado_99276" data-name="Trazado 99276" d="M432.388,118.407a.642.642,0,1,1-.641-.613A.628.628,0,0,1,432.388,118.407Z" transform="translate(-419.566 -117.794)" fill="#fff"/>
          <path id="Trazado_99276_-_Contorno" data-name="Trazado 99276 - Contorno" d="M431.747,119.521a1.114,1.114,0,1,1,1.141-1.113A1.129,1.129,0,0,1,431.747,119.521Z" transform="translate(-419.566 -117.794)" fill="#fff"/>
          <path id="Trazado_99277" data-name="Trazado 99277" d="M440.835,118.407a.642.642,0,1,1-.641-.613A.628.628,0,0,1,440.835,118.407Z" transform="translate(-422.243 -117.794)" fill="#fff"/>
          <path id="Trazado_99277_-_Contorno" data-name="Trazado 99277 - Contorno" d="M440.194,119.521a1.114,1.114,0,1,1,1.141-1.113A1.129,1.129,0,0,1,440.194,119.521Z" transform="translate(-422.243 -117.794)" fill="#fff"/>
          <path id="Trazado_99278" data-name="Trazado 99278" d="M449.281,118.407a.642.642,0,1,1-.641-.613A.628.628,0,0,1,449.281,118.407Z" transform="translate(-424.919 -117.794)" fill="#fff"/>
          <path id="Trazado_99278_-_Contorno" data-name="Trazado 99278 - Contorno" d="M448.64,119.521a1.114,1.114,0,1,1,1.141-1.113A1.129,1.129,0,0,1,448.64,119.521Z" transform="translate(-424.919 -117.794)" fill="#fff"/>
          <path id="Trazado_99279" data-name="Trazado 99279" d="M457.727,118.407a.642.642,0,1,1-.641-.613A.628.628,0,0,1,457.727,118.407Z" transform="translate(-427.595 -117.794)" fill="#fff"/>
          <path id="Trazado_99279_-_Contorno" data-name="Trazado 99279 - Contorno" d="M457.086,119.521a1.114,1.114,0,1,1,1.141-1.113A1.129,1.129,0,0,1,457.086,119.521Z" transform="translate(-427.595 -117.794)" fill="#fff"/>
          <path id="Trazado_99280" data-name="Trazado 99280" d="M466.174,118.407a.642.642,0,1,1-.641-.613A.628.628,0,0,1,466.174,118.407Z" transform="translate(-430.272 -117.794)" fill="#fff"/>
          <path id="Trazado_99280_-_Contorno" data-name="Trazado 99280 - Contorno" d="M465.533,119.521a1.114,1.114,0,1,1,1.141-1.113A1.129,1.129,0,0,1,465.533,119.521Z" transform="translate(-430.272 -117.794)" fill="#fff"/>
          <path id="Trazado_99281" data-name="Trazado 99281" d="M474.62,118.407a.642.642,0,1,1-.641-.613A.628.628,0,0,1,474.62,118.407Z" transform="translate(-432.948 -117.794)" fill="#fff"/>
          <path id="Trazado_99281_-_Contorno" data-name="Trazado 99281 - Contorno" d="M473.98,119.521a1.114,1.114,0,1,1,1.141-1.113A1.129,1.129,0,0,1,473.98,119.521Z" transform="translate(-432.948 -117.794)" fill="#fff"/>
          <path id="Trazado_99282" data-name="Trazado 99282" d="M483.066,118.407a.642.642,0,1,1-.641-.613A.628.628,0,0,1,483.066,118.407Z" transform="translate(-435.624 -117.794)" fill="#fff"/>
          <path id="Trazado_99282_-_Contorno" data-name="Trazado 99282 - Contorno" d="M482.425,119.521a1.114,1.114,0,1,1,1.141-1.113A1.129,1.129,0,0,1,482.425,119.521Z" transform="translate(-435.624 -117.794)" fill="#fff"/>
          <path id="Trazado_99283" data-name="Trazado 99283" d="M491.513,118.407a.642.642,0,1,1-.641-.613A.628.628,0,0,1,491.513,118.407Z" transform="translate(-438.301 -117.794)" fill="#fff"/>
          <path id="Trazado_99283_-_Contorno" data-name="Trazado 99283 - Contorno" d="M490.872,119.521a1.114,1.114,0,1,1,1.141-1.113A1.129,1.129,0,0,1,490.872,119.521Z" transform="translate(-438.301 -117.794)" fill="#fff"/>
          <path id="Trazado_99284" data-name="Trazado 99284" d="M499.959,118.407a.642.642,0,1,1-.641-.613A.628.628,0,0,1,499.959,118.407Z" transform="translate(-440.977 -117.794)" fill="#fff"/>
          <path id="Trazado_99284_-_Contorno" data-name="Trazado 99284 - Contorno" d="M499.318,119.521a1.114,1.114,0,1,1,1.141-1.113A1.129,1.129,0,0,1,499.318,119.521Z" transform="translate(-440.977 -117.794)" fill="#fff"/>
        </g>
        <g id="Grupo_53316" data-name="Grupo 53316" transform="translate(0 49.049)">
          <ellipse id="Elipse_3980" data-name="Elipse 3980" cx="0.641" cy="0.613" rx="0.641" ry="0.613" transform="translate(0 0)" fill="#fff"/>
          <path id="Elipse_3980_-_Contorno" data-name="Elipse 3980 - Contorno" d="M.641-.5A1.129,1.129,0,0,1,1.782.613,1.129,1.129,0,0,1,.641,1.726,1.129,1.129,0,0,1-.5.613,1.129,1.129,0,0,1,.641-.5Z" transform="translate(0 0)" fill="#fff"/>
          <path id="Trazado_99285" data-name="Trazado 99285" d="M423.942,125.915a.642.642,0,1,1-.641-.613A.627.627,0,0,1,423.942,125.915Z" transform="translate(-416.89 -125.302)" fill="#fff"/>
          <path id="Trazado_99285_-_Contorno" data-name="Trazado 99285 - Contorno" d="M423.3,127.028a1.113,1.113,0,1,1,1.141-1.113A1.129,1.129,0,0,1,423.3,127.028Z" transform="translate(-416.89 -125.302)" fill="#fff"/>
          <ellipse id="Elipse_3981" data-name="Elipse 3981" cx="0.641" cy="0.613" rx="0.641" ry="0.613" transform="translate(11.54 0)" fill="#fff"/>
          <path id="Elipse_3981_-_Contorno" data-name="Elipse 3981 - Contorno" d="M.641-.5A1.129,1.129,0,0,1,1.782.613,1.129,1.129,0,0,1,.641,1.726,1.129,1.129,0,0,1-.5.613,1.129,1.129,0,0,1,.641-.5Z" transform="translate(11.54 0)" fill="#fff"/>
          <path id="Trazado_99286" data-name="Trazado 99286" d="M440.835,125.915a.642.642,0,1,1-.641-.613A.628.628,0,0,1,440.835,125.915Z" transform="translate(-422.243 -125.302)" fill="#fff"/>
          <path id="Trazado_99286_-_Contorno" data-name="Trazado 99286 - Contorno" d="M440.194,127.028a1.113,1.113,0,1,1,1.141-1.113A1.128,1.128,0,0,1,440.194,127.028Z" transform="translate(-422.243 -125.302)" fill="#fff"/>
          <path id="Trazado_99287" data-name="Trazado 99287" d="M449.281,125.915a.642.642,0,1,1-.641-.613A.627.627,0,0,1,449.281,125.915Z" transform="translate(-424.919 -125.302)" fill="#fff"/>
          <path id="Trazado_99287_-_Contorno" data-name="Trazado 99287 - Contorno" d="M448.64,127.028a1.113,1.113,0,1,1,1.141-1.113A1.129,1.129,0,0,1,448.64,127.028Z" transform="translate(-424.919 -125.302)" fill="#fff"/>
          <ellipse id="Elipse_3982" data-name="Elipse 3982" cx="0.641" cy="0.613" rx="0.641" ry="0.613" transform="translate(28.85 0)" fill="#fff"/>
          <path id="Elipse_3982_-_Contorno" data-name="Elipse 3982 - Contorno" d="M.641-.5A1.129,1.129,0,0,1,1.782.613,1.129,1.129,0,0,1,.641,1.726,1.129,1.129,0,0,1-.5.613,1.129,1.129,0,0,1,.641-.5Z" transform="translate(28.85 0)" fill="#fff"/>
          <path id="Trazado_99288" data-name="Trazado 99288" d="M466.174,125.915a.642.642,0,1,1-.641-.613A.628.628,0,0,1,466.174,125.915Z" transform="translate(-430.272 -125.302)" fill="#fff"/>
          <path id="Trazado_99288_-_Contorno" data-name="Trazado 99288 - Contorno" d="M465.533,127.028a1.113,1.113,0,1,1,1.141-1.113A1.128,1.128,0,0,1,465.533,127.028Z" transform="translate(-430.272 -125.302)" fill="#fff"/>
          <ellipse id="Elipse_3983" data-name="Elipse 3983" cx="0.641" cy="0.613" rx="0.641" ry="0.613" transform="translate(40.39 0)" fill="#fff"/>
          <path id="Elipse_3983_-_Contorno" data-name="Elipse 3983 - Contorno" d="M.641-.5A1.129,1.129,0,0,1,1.782.613,1.129,1.129,0,0,1,.641,1.726,1.129,1.129,0,0,1-.5.613,1.129,1.129,0,0,1,.641-.5Z" transform="translate(40.39 0)" fill="#fff"/>
          <ellipse id="Elipse_3984" data-name="Elipse 3984" cx="0.641" cy="0.613" rx="0.641" ry="0.613" transform="translate(46.16 0)" fill="#fff"/>
          <path id="Elipse_3984_-_Contorno" data-name="Elipse 3984 - Contorno" d="M.641-.5A1.129,1.129,0,0,1,1.782.613,1.129,1.129,0,0,1,.641,1.726,1.129,1.129,0,0,1-.5.613,1.129,1.129,0,0,1,.641-.5Z" transform="translate(46.16 0)" fill="#fff"/>
          <path id="Trazado_99289" data-name="Trazado 99289" d="M491.513,125.915a.642.642,0,1,1-.641-.613A.628.628,0,0,1,491.513,125.915Z" transform="translate(-438.3 -125.302)" fill="#fff"/>
          <path id="Trazado_99289_-_Contorno" data-name="Trazado 99289 - Contorno" d="M490.872,127.028a1.113,1.113,0,1,1,1.141-1.113A1.128,1.128,0,0,1,490.872,127.028Z" transform="translate(-438.3 -125.302)" fill="#fff"/>
          <path id="Trazado_99290" data-name="Trazado 99290" d="M499.959,125.915a.642.642,0,1,1-.641-.613A.627.627,0,0,1,499.959,125.915Z" transform="translate(-440.977 -125.302)" fill="#fff"/>
          <path id="Trazado_99290_-_Contorno" data-name="Trazado 99290 - Contorno" d="M499.318,127.028a1.113,1.113,0,1,1,1.141-1.113A1.128,1.128,0,0,1,499.318,127.028Z" transform="translate(-440.977 -125.302)" fill="#fff"/>
        </g>
        <g id="Grupo_53317" data-name="Grupo 53317" transform="translate(0 53.954)">
          <ellipse id="Elipse_3985" data-name="Elipse 3985" cx="0.641" cy="0.613" rx="0.641" ry="0.613" transform="translate(0 0)" fill="#fff"/>
          <path id="Elipse_3985_-_Contorno" data-name="Elipse 3985 - Contorno" d="M.641-.5A1.129,1.129,0,0,1,1.782.613,1.129,1.129,0,0,1,.641,1.726,1.129,1.129,0,0,1-.5.613,1.129,1.129,0,0,1,.641-.5Z" transform="translate(0 0)" fill="#fff"/>
          <path id="Trazado_99291" data-name="Trazado 99291" d="M423.942,133.423a.642.642,0,1,1-.641-.613A.627.627,0,0,1,423.942,133.423Z" transform="translate(-416.89 -132.81)" fill="#fff"/>
          <path id="Trazado_99291_-_Contorno" data-name="Trazado 99291 - Contorno" d="M423.3,134.536a1.113,1.113,0,1,1,1.141-1.113A1.129,1.129,0,0,1,423.3,134.536Z" transform="translate(-416.89 -132.81)" fill="#fff"/>
          <ellipse id="Elipse_3986" data-name="Elipse 3986" cx="0.641" cy="0.613" rx="0.641" ry="0.613" transform="translate(11.54 0)" fill="#fff"/>
          <path id="Elipse_3986_-_Contorno" data-name="Elipse 3986 - Contorno" d="M.641-.5A1.129,1.129,0,0,1,1.782.613,1.129,1.129,0,0,1,.641,1.726,1.129,1.129,0,0,1-.5.613,1.129,1.129,0,0,1,.641-.5Z" transform="translate(11.54 0)" fill="#fff"/>
          <path id="Trazado_99292" data-name="Trazado 99292" d="M440.835,133.423a.642.642,0,1,1-.641-.613A.627.627,0,0,1,440.835,133.423Z" transform="translate(-422.243 -132.81)" fill="#fff"/>
          <path id="Trazado_99292_-_Contorno" data-name="Trazado 99292 - Contorno" d="M440.194,134.536a1.113,1.113,0,1,1,1.141-1.113A1.128,1.128,0,0,1,440.194,134.536Z" transform="translate(-422.243 -132.81)" fill="#fff"/>
          <path id="Trazado_99293" data-name="Trazado 99293" d="M449.281,133.423a.642.642,0,1,1-.641-.613A.627.627,0,0,1,449.281,133.423Z" transform="translate(-424.919 -132.81)" fill="#fff"/>
          <path id="Trazado_99293_-_Contorno" data-name="Trazado 99293 - Contorno" d="M448.64,134.536a1.113,1.113,0,1,1,1.141-1.113A1.129,1.129,0,0,1,448.64,134.536Z" transform="translate(-424.919 -132.81)" fill="#fff"/>
          <ellipse id="Elipse_3987" data-name="Elipse 3987" cx="0.641" cy="0.613" rx="0.641" ry="0.613" transform="translate(28.85 0)" fill="#fff"/>
          <path id="Elipse_3987_-_Contorno" data-name="Elipse 3987 - Contorno" d="M.641-.5A1.129,1.129,0,0,1,1.782.613,1.129,1.129,0,0,1,.641,1.726,1.129,1.129,0,0,1-.5.613,1.129,1.129,0,0,1,.641-.5Z" transform="translate(28.85 0)" fill="#fff"/>
          <path id="Trazado_99294" data-name="Trazado 99294" d="M466.174,133.423a.642.642,0,1,1-.641-.613A.628.628,0,0,1,466.174,133.423Z" transform="translate(-430.272 -132.81)" fill="#fff"/>
          <path id="Trazado_99294_-_Contorno" data-name="Trazado 99294 - Contorno" d="M465.533,134.536a1.113,1.113,0,1,1,1.141-1.113A1.128,1.128,0,0,1,465.533,134.536Z" transform="translate(-430.272 -132.81)" fill="#fff"/>
          <ellipse id="Elipse_3988" data-name="Elipse 3988" cx="0.641" cy="0.613" rx="0.641" ry="0.613" transform="translate(40.39 0)" fill="#fff"/>
          <path id="Elipse_3988_-_Contorno" data-name="Elipse 3988 - Contorno" d="M.641-.5A1.129,1.129,0,0,1,1.782.613,1.129,1.129,0,0,1,.641,1.726,1.129,1.129,0,0,1-.5.613,1.129,1.129,0,0,1,.641-.5Z" transform="translate(40.39 0)" fill="#fff"/>
          <ellipse id="Elipse_3989" data-name="Elipse 3989" cx="0.641" cy="0.613" rx="0.641" ry="0.613" transform="translate(46.16 0)" fill="#fff"/>
          <path id="Elipse_3989_-_Contorno" data-name="Elipse 3989 - Contorno" d="M.641-.5A1.129,1.129,0,0,1,1.782.613,1.129,1.129,0,0,1,.641,1.726,1.129,1.129,0,0,1-.5.613,1.129,1.129,0,0,1,.641-.5Z" transform="translate(46.16 0)" fill="#fff"/>
          <path id="Trazado_99295" data-name="Trazado 99295" d="M491.513,133.423a.642.642,0,1,1-.641-.613A.628.628,0,0,1,491.513,133.423Z" transform="translate(-438.3 -132.81)" fill="#fff"/>
          <path id="Trazado_99295_-_Contorno" data-name="Trazado 99295 - Contorno" d="M490.872,134.536a1.113,1.113,0,1,1,1.141-1.113A1.128,1.128,0,0,1,490.872,134.536Z" transform="translate(-438.3 -132.81)" fill="#fff"/>
          <path id="Trazado_99296" data-name="Trazado 99296" d="M499.959,133.423a.642.642,0,1,1-.641-.613A.627.627,0,0,1,499.959,133.423Z" transform="translate(-440.977 -132.81)" fill="#fff"/>
          <path id="Trazado_99296_-_Contorno" data-name="Trazado 99296 - Contorno" d="M499.318,134.536a1.113,1.113,0,1,1,1.141-1.113A1.128,1.128,0,0,1,499.318,134.536Z" transform="translate(-440.977 -132.81)" fill="#fff"/>
        </g>
      </g>
      <path id="Línea_138" data-name="Línea 138" d="M-.452,101.43l0-5.43h1l0,5.43ZM-.458,88l0-8h1l0,8ZM-.466,72l0-8h1l0,8ZM-.474,56l0-8h1l0,8ZM-.481,40l0-8h1l0,8ZM-.489,24l0-8h1l0,8ZM-.5,8l0-8h1l0,8Z" transform="translate(861.5 947.5)" fill="#3c6d9d"/>
    </g>
    <g id="Grupo_134120" data-name="Grupo 134120" transform="translate(7)">
      <g id="Grupo_134109" data-name="Grupo 134109" transform="translate(205 567)">
        <rect id="Rectángulo_35705" data-name="Rectángulo 35705" width="100" height="100" transform="translate(958 988)" fill="none"/>
      </g>
      <g id="Grupo_134119" data-name="Grupo 134119" transform="translate(116.232 -1121.105)">
        <g id="uAeX5t" transform="translate(1054.768 2680.106)">
          <g id="Grupo_134118" data-name="Grupo 134118">
            <path id="Trazado_147331" data-name="Trazado 147331" d="M1055.815,2776.979a2.121,2.121,0,0,1-.871-1.913c-.043-7.379-.114-14.758-.175-22.138-.015-1.723.334-2.063,2.092-2.065h1.512V2749.8q0-4.286,0-8.57c0-.238-.011-.478.012-.714a1.379,1.379,0,0,1,1.365-1.367,1.327,1.327,0,0,1,1.289,1.421c.021,3.035.01,6.07.012,9.105v1.118h15.236c-2.7-8.264-1.416-15.86,4.033-22.892h-1.052q-6.606,0-13.212,0c-1.515,0-1.883-.373-1.884-1.9q0-10.623,0-21.246c0-1.513.379-1.885,1.9-1.885q8.481,0,16.962,0c1.43,0,1.852.421,1.854,1.868q0,8.972,0,17.944v1.019c9.318-5.378,18.562-5.606,27.117,1.083s10.511,15.7,7.56,26.009h7.351v-1.084q0-13.168,0-26.335a4.351,4.351,0,0,1,.077-1.061,1.225,1.225,0,0,1,1.384-1,1.239,1.239,0,0,1,1.2,1.221c.025.3.014.595.014.892q0,13.123,0,26.246v1.192c.654,0,1.237,0,1.821,0,1.4.011,1.789.4,1.791,1.82.006,5,.014,10-.012,15a1.963,1.963,0,0,0,.653,1.556c1.729,1.679,3.421,3.4,5.121,5.1,1.036,1.041,1,1.694-.118,2.638h-.893c-.335-.29-.689-.56-1-.872q-5.3-5.29-10.6-10.591c-.2-.2-.421-.4-.591-.56l-5.75,5.759c1.19,1.186,2.432,2.414,3.664,3.653,1.04,1.046.988,1.715-.186,2.611H1070.1c-.642-.418-1.12-.945-.833-1.767s.974-.963,1.744-.913c.208.013.417,0,.625,0h48c-.044-.156-.043-.223-.076-.256q-.938-.954-1.885-1.9c-1.287-1.288-1.3-1.581-.134-2.95.031-.037.018-.111.011-.056l-2.582-2.651c-1.531,1.236-1.728,1.223-3.167-.216-.842-.841-1.718-1.651-2.513-2.535a1.017,1.017,0,0,0-1.438-.235,22.943,22.943,0,0,1-29.879-9.243,1.236,1.236,0,0,0-1.247-.728c-6.1.021-12.2.012-18.3.015-.311,0-.622.036-.847.05V2774.3c2.142,0,4.155.011,6.169,0,.756-.006,1.441.067,1.757.893.323.842-.2,1.328-.769,1.791Zm42.052-13.889a20.289,20.289,0,1,0-20.269-20.35A20.222,20.222,0,0,0,1097.867,2763.09Zm-30.956-57.494v19.547h15.252V2705.6Zm51.238,47.994c1.379,1.354,2.578,2.507,3.748,3.689a1.342,1.342,0,0,1,.078,2.112l-.4.467,2.608,2.656c.085-.064.184-.125.27-.2,1.056-.948,1.542-.936,2.556.072.737.733,1.469,1.471,2.206,2.2.382.38.768.756,1.251,1.232v-12.23Zm-4.817,10.387,5.687-5.635-2.127-2.2-5.657,5.656Zm8.692.61-2.39-2.479-2.446,2.454,2.4,2.546Z" transform="translate(-1054.768 -2685.546)" fill="#fff"/>
            <path id="Trazado_147332" data-name="Trazado 147332" d="M1095.131,2694.35h-31.6c-1.349,0-1.351,0-1.351,1.389v31.867c0,.237,0,.476,0,.714-.011,1.222-.458,1.814-1.354,1.8s-1.321-.607-1.321-1.849q0-16.512-.006-33.026a3.522,3.522,0,0,1,1.442-3.1,1.189,1.189,0,0,0,.358-.812c.052-.8.014-1.606.037-2.409a3.266,3.266,0,0,1,1.269-2.453,1.646,1.646,0,0,0,.5-1c.078-.8,0-1.606.045-2.407a3.084,3.084,0,0,1,3-2.954c.267-.013.536-.005.8-.005h56.323c2.729,0,3.845,1.116,3.846,3.842a7.731,7.731,0,0,1-.005.892,2.045,2.045,0,0,0,.805,1.975,4.436,4.436,0,0,1,.99,3.527,2.485,2.485,0,0,0,.865,2.315,3.4,3.4,0,0,1,.9,2.294c.077,5.236.043,10.473.037,15.709,0,1.012-.47,1.574-1.279,1.6-.85.025-1.388-.561-1.39-1.6-.011-4.464-.005-8.926-.005-13.39,0-.744-.013-1.488,0-2.231.009-.494-.212-.71-.7-.691-.267.01-.535,0-.8,0Zm-31.014-2.747h62.132v-1.579c0-1.479,0-1.479-1.445-1.479h-58.188c-2.883,0-2.883,0-2.579,2.9A.907.907,0,0,0,1064.117,2691.6Zm60.335-5.778v-1.646c0-1.392,0-1.392-1.344-1.392h-55.983c-.208,0-.457-.072-.616.018-.261.147-.635.38-.659.608a23.887,23.887,0,0,0-.031,2.413Z" transform="translate(-1055.899 -2680.106)" fill="#fff"/>
            <path id="Trazado_147333" data-name="Trazado 147333" d="M1116.642,2705.547q-7.894,0-15.787,0a3.964,3.964,0,0,1-.888-.038,1.326,1.326,0,0,1,.057-2.616,4.46,4.46,0,0,1,.8-.022H1132.4a5.091,5.091,0,0,1,.8.018,1.326,1.326,0,0,1,.03,2.63,4.6,4.6,0,0,1-.889.029Z" transform="translate(-1065.311 -2685.544)" fill="#fff"/>
            <path id="Trazado_147334" data-name="Trazado 147334" d="M1116.537,2713.116H1101a7.255,7.255,0,0,1-.981-.033,1.227,1.227,0,0,1-1.131-1.187,1.206,1.206,0,0,1,.92-1.354,3.41,3.41,0,0,1,.968-.1q15.847-.007,31.7,0c.352,0,.821-.051,1.03.143.374.348.836.884.8,1.3s-.581.868-1,1.158c-.249.17-.693.067-1.049.067Q1124.394,2713.119,1116.537,2713.116Z" transform="translate(-1065.311 -2687.354)" fill="#fff"/>
            <path id="Trazado_147335" data-name="Trazado 147335" d="M1111.26,2720.723q-5.218,0-10.436,0a3.908,3.908,0,0,1-.97-.087,1.209,1.209,0,0,1-.965-1.321,1.222,1.222,0,0,1,1.087-1.224,5.348,5.348,0,0,1,.89-.042q10.346,0,20.692,0a5.158,5.158,0,0,1,.889.042,1.308,1.308,0,0,1,.129,2.546,3.874,3.874,0,0,1-.971.086Q1116.433,2720.728,1111.26,2720.723Z" transform="translate(-1065.311 -2689.172)" fill="#fff"/>
            <path id="Trazado_147336" data-name="Trazado 147336" d="M1106.015,2767.15a17.218,17.218,0,1,1,17.219-17.182A17.233,17.233,0,0,1,1106.015,2767.15Zm.04-2.679a14.539,14.539,0,1,0-14.58-14.5A14.526,14.526,0,0,0,1106.055,2764.471Z" transform="translate(-1062.9 -2692.678)" fill="#fff"/>
          </g>
        </g>
        <path id="Trazado_147337" data-name="Trazado 147337" d="M1108.805,2759.878h-6.831c-.629,0-.792-.159-.783-.8.01-.8-.011-1.6.065-2.395a3.135,3.135,0,0,1,1.894-2.647c.577-.273,1.2-.441,1.781-.716a3.994,3.994,0,0,0,1.12-.754c.3-.309.231-.479-.1-.762a4.125,4.125,0,0,1-1.628-3.012,17.884,17.884,0,0,1,.106-3.832,4.525,4.525,0,0,1,8.9.494,21,21,0,0,1-.01,3.479,4.107,4.107,0,0,1-1.7,2.933c-.209.163-.268.335-.126.511a2.884,2.884,0,0,0,.731.718,8.8,8.8,0,0,0,1.239.5c.27.106.544.2.81.318a3.431,3.431,0,0,1,2.184,3.3c.018.653.008,1.308.005,1.962,0,.507-.191.692-.709.692Q1112.275,2759.88,1108.805,2759.878Z" transform="translate(-11.094 -14.666)" fill="#fff"/>
      </g>
    </g>
  </g>
</svg>
