<svg xmlns="http://www.w3.org/2000/svg" width="153" height="153" viewBox="0 0 153 153">
  <g id="Grupo_134254" data-name="Grupo 134254" transform="translate(-1226 -9278)">
    <rect id="Rectángulo_35775" data-name="Rectángulo 35775" width="153" height="153" transform="translate(1226 9278)" fill="none"/>
    <g id="Grupo_134253" data-name="Grupo 134253" transform="translate(1232.729 9290.826)">
      <path id="Trazado_147552" data-name="Trazado 147552" d="M304.322,2569.922a5.685,5.685,0,0,0-.242.671,9.028,9.028,0,0,1-6.523,7.1c-3.511,1.041-6.569.074-9.248-2.371a2.978,2.978,0,0,0-1.786-.766q-6.937-.094-13.876-.019a6.974,6.974,0,0,1-5.409-2.241q-4.253-4.417-8.672-8.671a6.934,6.934,0,0,1-2.3-5.507c.074-2.269-.006-4.542.03-6.812a2.381,2.381,0,0,0-.79-1.937,9.244,9.244,0,0,1-2.674-8.266,2.528,2.528,0,0,0-.364-1.66c-1.934-2.677-3.969-5.279-5.912-7.948a1.407,1.407,0,0,0-1.752-.616,16.7,16.7,0,1,1,.05-32.415,1.381,1.381,0,0,0,1.757-.564c1.927-2.682,3.95-5.293,5.879-7.972a2.322,2.322,0,0,0,.381-1.549,9.7,9.7,0,0,1,2.749-8.619,2.414,2.414,0,0,0,.634-1.468c.063-2.517.044-5.037.024-7.556a6.185,6.185,0,0,1,1.933-4.656q4.714-4.658,9.374-9.371a6.045,6.045,0,0,1,4.547-1.876c4.708.028,9.416-.007,14.124.022a2.509,2.509,0,0,0,2.159-.869c1.31-1.514,3.166-2.136,5-2.754h2.974c.266.091.527.192.8.269a9.235,9.235,0,0,1,6.749,6.65c.123.421.257.84.387,1.259v2.229a1.8,1.8,0,0,0-.21.425,8.94,8.94,0,0,1-6.668,7.377c-3.714,1.046-6.9-.065-9.537-2.861a2.116,2.116,0,0,0-1.373-.563c-2.764-.052-5.553.192-8.289-.084a7.318,7.318,0,0,0-7.147,2.994c-1.05,1.363-2.876,2.3-3.475,3.788-.617,1.531-.178,3.49-.183,5.263a3.523,3.523,0,0,0,2.961,2.986c5.367,0,10.733.023,16.1-.032a2.669,2.669,0,0,0,1.652-.737,9.138,9.138,0,0,1,9.06-2.645,8.951,8.951,0,0,1,6.682,6.488c.14.463.286.925.429,1.387v2.23a1.8,1.8,0,0,0-.21.425,8.942,8.942,0,0,1-6.671,7.377c-3.661,1.036-6.818-.042-9.459-2.768a2.1,2.1,0,0,0-1.367-.551q-8.112-.056-16.226,0a2.261,2.261,0,0,0-1.468.615,9.9,9.9,0,0,1-6.184,3.068,1.785,1.785,0,0,0-1.105.581q-3.232,4.23-6.366,8.532a1.266,1.266,0,0,0-.124,1.07c1.421,3.1,1.435,3.1,4.811,3.1.578,0,1.155,0,1.733,0,2.065,0,4.13-.022,6.193.029a1.677,1.677,0,0,1,1.765,1.7,1.745,1.745,0,0,1-1.668,1.928,12.178,12.178,0,0,1-1.606.054c-2.921,0-5.842,0-8.8,0v3.618h28.114v-3.618h-7.851c-.331,0-.663.01-.99-.018a1.921,1.921,0,0,1-1.963-1.829,1.864,1.864,0,0,1,2.035-1.855c3.1-.031,6.194-.043,9.29.006a2.661,2.661,0,0,0,2.137-.913,8.817,8.817,0,0,1,9.08-2.468A9.012,9.012,0,0,1,304,2512.5c.11.392.213.785.32,1.177v1.982a2.133,2.133,0,0,0-.2.447,8.9,8.9,0,0,1-6.59,7.446,9.05,9.05,0,0,1-9.5-2.668,2.31,2.31,0,0,0-1.486-.6c-4.212-.047-8.425-.026-12.638-.026-5.41,0-10.821-.013-16.231.025a1.738,1.738,0,0,0-1.292.565,33,33,0,0,0-1.566,3.123c2.243,2.984,4.486,6,6.776,8.972a1.784,1.784,0,0,0,1.12.562,9.871,9.871,0,0,1,6.19,3.057,2.264,2.264,0,0,0,1.464.626q8.053.066,16.107,0a2.666,2.666,0,0,0,1.658-.728,9.337,9.337,0,0,1,15.921,4.426c.066.27.172.529.26.794v2.23a1.8,1.8,0,0,0-.21.426,8.944,8.944,0,0,1-6.671,7.379c-3.664,1.034-6.821-.044-9.457-2.774a1.941,1.941,0,0,0-1.247-.546q-8.238-.054-16.476-.008a1.922,1.922,0,0,0-1.1.351,3.806,3.806,0,0,0-1.755,3.882c.174,1-.052,2.068.063,3.087a3.117,3.117,0,0,0,.72,1.695c1.667,1.775,3.382,3.51,5.168,5.164a3.165,3.165,0,0,0,1.919.778c3.632.074,7.268.012,10.9.053a2.46,2.46,0,0,0,2.015-.875,8.821,8.821,0,0,1,9.015-2.7,8.95,8.95,0,0,1,6.686,6.489c.14.463.286.925.429,1.387Zm-63.655-42.271a12.986,12.986,0,1,0-12.874-13.13A12.967,12.967,0,0,0,240.667,2527.65Zm45.057,39.438h-1.476c-3.342,0-6.684-.027-10.026.015a3.579,3.579,0,0,1-2.839-1.188c-2.171-2.261-4.4-4.468-6.648-6.654a3.151,3.151,0,0,1-1.03-2.526c.05-1.555.013-3.113.013-4.726H260c0,2.169-.093,4.273.047,6.363a4.067,4.067,0,0,0,1,2.37c2.908,3.041,5.938,5.963,8.884,8.968a3.38,3.38,0,0,0,2.622,1.106c4.043-.032,8.087-.01,12.131-.017.35,0,.7-.062,1.042-.094Zm-22.005-89.758c0-1.66-.1-3.265.042-4.849a4.052,4.052,0,0,1,.927-2.277c2.258-2.405,4.6-4.737,7-7a3.561,3.561,0,0,1,2.162-.887c3.505-.092,7.013-.042,10.52-.042h1.339v-3.591a1.827,1.827,0,0,0-.4-.106c-4.456-.009-8.912-.041-13.367.021a2.789,2.789,0,0,0-1.709.792c-3.16,3.082-6.274,6.21-9.376,9.351a2.4,2.4,0,0,0-.781,1.345c-.077,2.419-.036,4.843-.036,7.243Zm25.7-16.826a5.553,5.553,0,0,0,5.562,5.593,5.572,5.572,0,0,0,.04-11.144A5.553,5.553,0,0,0,289.416,2460.5Zm-27.334,20.465a5.573,5.573,0,0,0-.215,11.143,5.573,5.573,0,1,0,.215-11.143Zm32.954,0a5.573,5.573,0,0,0-.2,11.143,5.573,5.573,0,1,0,.2-11.143Zm-38.58,61.748a5.551,5.551,0,0,0,5.509,5.643,5.572,5.572,0,0,0,.143-11.143A5.549,5.549,0,0,0,256.456,2542.718Zm32.96.034a5.551,5.551,0,0,0,5.545,5.61,5.572,5.572,0,0,0,.075-11.144A5.551,5.551,0,0,0,289.416,2542.751Zm0,26.029a5.553,5.553,0,0,0,5.557,5.6,5.573,5.573,0,0,0,.051-11.145A5.552,5.552,0,0,0,289.416,2568.781Zm0-54.15a5.511,5.511,0,0,0,5.545,5.59,5.554,5.554,0,1,0,.07-11.108A5.509,5.509,0,0,0,289.417,2514.63Zm-18.188,29.925h14.48v-3.526h-14.48Zm.006-56.222h14.453v-3.588H271.236Zm-18.828,14.187,5.564-7.466-2.97-2.226-5.546,7.435Zm5.532,31.774-5.6-7.427-2.95,2.253,5.587,7.408Z" transform="translate(-177.441 -2451.233)" fill="#3c6d9d"/>
      <path id="Trazado_147553" data-name="Trazado 147553" d="M249.868,2451.233c.33.146.653.305.99.434a6.278,6.278,0,0,1,3.825,8.492c-.475,1.23-.924,2.472-1.422,3.693-.515,1.261-1.48,1.739-2.526,1.3s-1.389-1.388-.91-2.7c.411-1.121.852-2.233,1.281-3.349.921-2.4-.274-4.135-2.894-4.156-3.179-.023-6.36-.005-9.54-.006-1.2,0-2.395-.011-3.593,0a3.179,3.179,0,0,0-3.479,3.463c-.036,1.609.007,3.22-.013,4.83a6.823,6.823,0,0,1-4.71,6.709c-2.11.823-4.2,1.7-6.278,2.6a6.82,6.82,0,0,1-8.072-1.453c-1.15-1.128-2.264-2.292-3.424-3.41a3.112,3.112,0,0,0-4.807-.018q-4.8,4.746-9.549,9.547a3.108,3.108,0,0,0,.022,4.8c1.123,1.154,2.283,2.271,3.411,3.421a6.859,6.859,0,0,1,1.444,8.076c-.927,2.112-1.8,4.249-2.64,6.4a6.849,6.849,0,0,1-6.664,4.6c-1.652.009-3.3-.023-4.955.01a3.138,3.138,0,0,0-3.348,3.344q-.058,6.813,0,13.626a3.139,3.139,0,0,0,3.378,3.315c1.734.032,3.47-.037,5.2.018a6.589,6.589,0,0,1,6.242,4.283c1.011,2.345,2,4.7,2.94,7.074a6.662,6.662,0,0,1-1.37,7.457c-1.147,1.244-2.393,2.4-3.577,3.606-1.611,1.643-1.612,3.331.019,4.972q4.629,4.658,9.286,9.286c1.709,1.7,3.362,1.7,5.073.027,1.151-1.126,2.267-2.288,3.425-3.408a6.75,6.75,0,0,1,7.869-1.377c2.2.944,4.414,1.83,6.622,2.744a6.6,6.6,0,0,1,4.442,6.253c.061,1.69,0,3.386.024,5.079.039,2.36,1.258,3.54,3.635,3.561a17.6,17.6,0,0,1,2.1.032,1.71,1.71,0,0,1,1.646,1.83,1.67,1.67,0,0,1-1.656,1.813,16.617,16.617,0,0,1-3.7-.078,6.774,6.774,0,0,1-5.735-6.765c-.052-1.692.005-3.386-.019-5.079a3.123,3.123,0,0,0-2.305-3.273c-2.14-.861-4.275-1.737-6.4-2.646a3.193,3.193,0,0,0-4.139.771c-1.147,1.13-2.263,2.292-3.424,3.408a6.763,6.763,0,0,1-9.772.034q-5.006-4.891-9.9-9.9a6.724,6.724,0,0,1,.036-9.669c1.145-1.191,2.343-2.33,3.5-3.511a3.251,3.251,0,0,0,.7-4.164c-.9-2.08-1.754-4.178-2.591-6.284a3.209,3.209,0,0,0-3.365-2.367c-1.652-.012-3.3.02-4.955-.01a6.831,6.831,0,0,1-6.95-6.9c-.063-4.665-.07-9.333,0-14a6.808,6.808,0,0,1,6.89-6.823c1.734-.035,3.469,0,5.2-.012a3.083,3.083,0,0,0,3.051-2.092q1.412-3.427,2.847-6.846a3.181,3.181,0,0,0-.705-3.75c-1.162-1.174-2.346-2.326-3.5-3.509a6.788,6.788,0,0,1,.055-10.03q4.665-4.708,9.369-9.377c3.188-3.167,7.183-3.141,10.4.047,1.055,1.047,2.1,2.11,3.156,3.151a3.172,3.172,0,0,0,4.04.748c2.161-.921,4.327-1.828,6.51-2.692a3.164,3.164,0,0,0,2.249-3.193c-.005-1.2,0-2.4,0-3.593,0-4.934,1.134-6.628,5.636-8.427Z" transform="translate(-178.253 -2451.233)" fill="#3c6d9d"/>
      <path id="Trazado_147554" data-name="Trazado 147554" d="M242.771,2549.3c-.9-2.351-1.681-4.566-2.614-6.718a1.987,1.987,0,0,0-1.434-.821,26.645,26.645,0,0,1-16.382-7.407c-8.087-7.918-10.822-17.53-7.452-28.324s11.062-17.186,22.217-19.056c2.261-.378,3.423-1.1,3.96-3.249a38.676,38.676,0,0,1,1.608-4.272,48.688,48.688,0,0,0-5.094.024,35.007,35.007,0,0,0-31.189,30.709,34.13,34.13,0,0,0,6.6,24.986c1.2,1.64,1.257,2.653.172,3.424-1.007.714-2.008.334-3.15-1.2-17.159-23.011-3.77-56.434,24.568-61.209,3.112-.524,6.311-.539,9.663-.807.511-1.314,1.109-2.886,1.732-4.449.53-1.331,1.5-1.844,2.591-1.4,1,.4,1.364,1.445.876,2.715q-2.9,7.561-5.837,15.111a4.493,4.493,0,0,1-4.132,3.012,23.864,23.864,0,0,0-21.9,20.079c-2.345,12.868,7.41,25.994,20.4,27.451.574.064,1.146.153,1.722.2a4.147,4.147,0,0,1,3.788,2.744c3.73,9.65,7.474,19.3,11.109,28.981,1.31,3.488-1.95,7.659-6.026,7.925a29.894,29.894,0,0,1-3.1.014,1.849,1.849,0,1,1,0-3.694c.866-.039,1.736.02,2.6-.021a2.761,2.761,0,0,0,2.658-3.97c-2.034-5.312-4.087-10.618-6.081-15.946a1.427,1.427,0,0,0-1.685-1.109,37.881,37.881,0,0,1-25.425-7.971c-.41-.314-.984-.781-.986-1.179a3.217,3.217,0,0,1,.635-2.061c.671-.73,1.545-.4,2.359.1,2.448,1.515,4.843,3.154,7.421,4.414a32.435,32.435,0,0,0,14.279,3.076C241.708,2549.408,242.155,2549.347,242.771,2549.3Z" transform="translate(-177.825 -2450.911)" fill="#3c6d9d"/>
    </g>
  </g>
</svg>
