<svg id="Grupo_61514" data-name="Grupo 61514" xmlns="http://www.w3.org/2000/svg" xmlns:xlink="http://www.w3.org/1999/xlink" width="203.66" height="203.66" viewBox="0 0 203.66 203.66">
  <defs>
    <clipPath id="clip-path">
      <path id="SVGID" d="M6006.236,14397.885s1.459,2.328,1.059,4.242-3.972,10.258-6.612,17.922-2.118,16.008-2.118,18.479.129,4.236-1.717,5.2-4.752.414-5.553-1.359-1.324-13.129.129-19.979,6.612-18.879,7.936-21.615S6001.342,14394.219,6006.236,14397.885Z" transform="translate(-5990.507 -14396.374)" fill="none" opacity="0"/>
    </clipPath>
    <clipPath id="clip-path-2">
      <rect id="SVGID-2" data-name="SVGID" width="28.689" height="7.651" rx="3.04" transform="translate(28.676 8.509) rotate(-178.28)" fill="none" opacity="0"/>
    </clipPath>
  </defs>
  <rect id="Rectángulo_12839" data-name="Rectángulo 12839" width="203.66" height="203.66" fill="#aed3f2" opacity="0"/>
  <g id="Grupo_61513" data-name="Grupo 61513" transform="translate(11.018 19.876)">
    <g id="freepik--background-simple--inject-80" transform="translate(4.093)">
      <path id="Trazado_127996" data-name="Trazado 127996" d="M5929.96,14394.105c-3.849-33.943,14.765-78.98,34.072-97.588,34.846-33.6,63.813-27.1,86.311-15.07s25.729,52.211,41.282,70.385,24.385,42.625.8,66.963-42.619,11.975-67.282,10.428-57.378,10.609-75.049.047C5937.74,14421.938,5931.651,14409.107,5929.96,14394.105Z" transform="translate(-5929.451 -14271.718)" fill="#aed3f2"/>
    </g>
    <g id="freepik--Clouds--inject-80" transform="translate(45.997 25.572)">
      <path id="Trazado_127997" data-name="Trazado 127997" d="M5960.762,14344.8c3.1-1.691,4.508-.285,5.634-1.691s-3.1-5.07,5.35-8.758c0,0,.563-7.889,12.118-8.146s8.452,7.9,11.541,9.865,3.944-1.121,7.046.848,1.684,5.914,4.223,6.477,5.92-2.533,9.016-.562,3.1,3.666,4.508,3.666,4.229-1.127,5.92,0,3.666,2.539,3.666,2.539H5958.5S5957.673,14346.5,5960.762,14344.8Z" transform="translate(-5913.869 -14314.785)" fill="#094309"/>
      <path id="Trazado_127998" data-name="Trazado 127998" d="M6087.427,14316.93c1.249-.678,1.826-.121,2.281-.678s-1.256-2.037,2.172-3.543c0,0,.23-3.205,4.915-3.32s3.435,3.205,4.691,4.006,1.6-.461,2.858.346.679,2.4,1.717,2.627,2.4-1.031,3.659-.23,1.256,1.494,1.833,1.494,1.711-.461,2.4,0,1.486,1.025,1.486,1.025H6086.5a1.486,1.486,0,0,1,.93-1.725Z" transform="translate(-6086.46 -14309.386)" fill="#094309"/>
      <path id="Trazado_127999" data-name="Trazado 127999" d="M6027.49,14404.331c1.263-.68,1.826-.115,2.288-.68s-1.256-2.036,2.172-3.551c0,0,.225-3.2,4.916-3.312s3.435,3.2,4.69,4,1.6-.454,2.858.347.679,2.4,1.711,2.634,2.4-1.031,3.665-.23,1.256,1.493,1.827,1.493,1.717-.455,2.4,0,1.487,1.031,1.487,1.031h-28.934A1.512,1.512,0,0,1,6027.49,14404.331Z" transform="translate(-5985.853 -14337.453)" fill="#094309"/>
      <g id="Grupo_61506" data-name="Grupo 61506" transform="translate(44.531 11.414)" style="isolation: isolate">
        <path id="Trazado_128000" data-name="Trazado 128000" d="M5960.762,14344.8c3.1-1.691,4.508-.285,5.634-1.691s-3.1-5.07,5.35-8.758c0,0,.563-7.889,12.118-8.146s8.452,7.9,11.541,9.865,3.944-1.121,7.046.848,1.684,5.914,4.223,6.477,5.92-2.533,9.016-.562,3.1,3.666,4.508,3.666,4.229-1.127,5.92,0,3.666,2.539,3.666,2.539H5958.5S5957.673,14346.5,5960.762,14344.8Z" transform="translate(-5958.4 -14326.199)" fill="#95bee6"/>
      </g>
      <g id="Grupo_61507" data-name="Grupo 61507" style="isolation: isolate">
        <path id="Trazado_128001" data-name="Trazado 128001" d="M6087.427,14316.93c1.249-.678,1.826-.121,2.281-.678s-1.256-2.037,2.172-3.543c0,0,.23-3.205,4.915-3.32s3.435,3.205,4.691,4.006,1.6-.461,2.858.346.679,2.4,1.717,2.627,2.4-1.031,3.659-.23,1.256,1.494,1.833,1.494,1.711-.461,2.4,0,1.486,1.025,1.486,1.025H6086.5a1.486,1.486,0,0,1,.93-1.725Z" transform="translate(-6086.46 -14309.386)" fill="#95bee6"/>
      </g>
      <g id="Grupo_61508" data-name="Grupo 61508" transform="translate(40.686 59.333)" style="isolation: isolate">
        <path id="Trazado_128002" data-name="Trazado 128002" d="M6027.49,14404.331c1.263-.68,1.826-.115,2.288-.68s-1.256-2.036,2.172-3.551c0,0,.225-3.2,4.916-3.312s3.435,3.2,4.69,4,1.6-.454,2.858.347.679,2.4,1.711,2.634,2.4-1.031,3.665-.23,1.256,1.493,1.827,1.493,1.717-.455,2.4,0,1.487,1.031,1.487,1.031h-28.934A1.512,1.512,0,0,1,6027.49,14404.331Z" transform="translate(-6026.539 -14396.785)" fill="#95bee6"/>
      </g>
    </g>
    <g id="freepik--Window--inject-80" transform="translate(0 9.859)">
      <rect id="Rectángulo_12840" data-name="Rectángulo 12840" width="180.884" height="1.65" transform="translate(0 89.814)" fill="#344154"/>
      <line id="Línea_742" data-name="Línea 742" y1="78.749" transform="translate(42.144 12.015)" fill="none" opacity="0"/>
      <line id="Línea_743" data-name="Línea 743" y1="90.765" transform="translate(123.839)" fill="none" opacity="0"/>
      <line id="Línea_744" data-name="Línea 744" x1="169.445" transform="translate(6.538 45.959)" fill="none" opacity="0"/>
    </g>
    <g id="freepik--Lamp--inject-80" transform="translate(73.793 0.558)">
      <path id="Trazado_128003" data-name="Trazado 128003" d="M6065.077,14290.5h-4.861a1.608,1.608,0,0,0-1.616,1.615h0v4.908h8.105v-4.908a1.617,1.617,0,0,0-1.615-1.617Z" transform="translate(-6046.611 -14278.307)" fill="#344154"/>
      <circle id="Elipse_4539" data-name="Elipse 4539" cx="3.768" cy="3.768" r="3.768" transform="translate(12.362 21.011)" fill="#094309"/>
      <circle id="Elipse_4540" data-name="Elipse 4540" cx="3.768" cy="3.768" r="3.768" transform="translate(12.362 21.011)" fill="#6595bf" opacity="0.4"/>
      <path id="Trazado_128004" data-name="Trazado 128004" d="M6411.99,14518.816h32.049l-12.022-6.518h-7.977Z" transform="translate(-6411.99 -14493.901)" fill="#344154"/>
      <rect id="Rectángulo_12841" data-name="Rectángulo 12841" width="1.358" height="13.102" transform="translate(15.342)" fill="#344154"/>
    </g>
    <g id="freepik--Plant--inject-80" transform="translate(19.193 62.239)">
      <path id="Trazado_128005" data-name="Trazado 128005" d="M6143.883,14371.011a6.123,6.123,0,0,1-1.751.2s.265-.815.292-.862c.271-.576,1.134-1.514,1.833-1.419a.83.83,0,0,1,.679.958.512.512,0,0,1,0,.095,1.767,1.767,0,0,1-1.052,1.032Z" transform="translate(-6126.961 -14365.171)" fill="#344154"/>
      <path id="Trazado_128006" data-name="Trazado 128006" d="M6142.875,14365.028c.679-.081,1.541.889,1.8,1.46,0,.048.279.869.265.869h0l.421.481c.278.347.583.727.889,1.168a16.241,16.241,0,0,1,.93,1.452,12.235,12.235,0,0,1,.788,1.778h0v-.836c.082-.624.6-1.785,1.3-1.914a.828.828,0,0,1,.958.68.564.564,0,0,1,0,.107,1.749,1.749,0,0,1-.679,1.311,5.94,5.94,0,0,1-1.588.727,13.543,13.543,0,0,1,.488,1.941c.068.38.123.768.177,1.147v-.366c.075-.618.6-1.785,1.3-1.915a.849.849,0,0,1,.963.679.45.45,0,0,1,0,.089,1.758,1.758,0,0,1-.679,1.31,5.612,5.612,0,0,1-1.547.679l.061.441c.082.68.163,1.419.265,2.112.034.244.082.481.123.719v-.312c.088-.624.611-1.785,1.3-1.914a.835.835,0,0,1,.964.679v.1a1.777,1.777,0,0,1-.679,1.31,5.531,5.531,0,0,1-1.493.68c.047.244.1.481.163.719s.082.318.136.488.1.313.149.488c.1.292.211.591.319.876s.149.38.231.563c-.041-.237-.1-.719-.1-.754a3.231,3.231,0,0,1,.428-1.581v-.184a.835.835,0,0,1,.937-.726h.088c.679.184,1.12,1.357,1.147,2.037a5.353,5.353,0,0,1-.041.679c.033-.143.061-.292.1-.441.074-.306.149-.6.237-.924.047-.156.1-.312.143-.488s.109-.312.163-.482c.136-.373.292-.739.455-1.106a5.451,5.451,0,0,1-1.575-.591,1.771,1.771,0,0,1-.767-1.256.842.842,0,0,1,.822-.86h.082c.679.075,1.31,1.194,1.459,1.813,0,.04.047.482.061.74.1-.218.2-.442.312-.68.319-.631.679-1.263.971-1.894l.305-.584a5.754,5.754,0,0,1-1.636-.6,1.751,1.751,0,0,1-.768-1.255.832.832,0,0,1,.815-.855h.088c.679.074,1.31,1.2,1.459,1.818,0,.041.068.68.075.862.224-.428.441-.849.631-1.283a14.272,14.272,0,0,0,.678-1.778,6.019,6.019,0,0,1-1.642-.61,1.745,1.745,0,0,1-.767-1.25.841.841,0,0,1,.822-.868h.081c.679.075,1.317,1.194,1.459,1.819,0,.048.075.746.075.876a.332.332,0,0,1,.041-.1,11.8,11.8,0,0,0,.353-1.888c.041-.353.055-.679.068-1.018a5.342,5.342,0,0,1-1.657-.42,1.748,1.748,0,0,1-.91-1.161.855.855,0,0,1,.679-.965h.168c.679,0,1.439,1.045,1.629,1.649,0,.033.082.373.136.624v-.441a9.745,9.745,0,0,0-.068-1.46,4.46,4.46,0,0,0-.074-.679,5.949,5.949,0,0,1-1.27-1.134,1.725,1.725,0,0,1-.265-1.46.849.849,0,0,1,1.072-.522h.082c.625.326.794,1.588.679,2.213,0,.054-.251.882-.258.869h0c0,.2.055.414.082.679.041.428.088.923.1,1.452a14.843,14.843,0,0,1-.041,1.737,10.907,10.907,0,0,1-.32,1.915h0a4.677,4.677,0,0,1,.489-.679c.414-.482,1.494-1.154,2.146-.876a.836.836,0,0,1,.415,1.107l-.042.074a1.756,1.756,0,0,1-1.283.728,5.982,5.982,0,0,1-1.731-.272,14.106,14.106,0,0,1-.679,1.859c-.156.354-.319.68-.489,1.053l.21-.3c.414-.482,1.494-1.154,2.145-.876a.833.833,0,0,1,.407,1.105l-.041.076a1.744,1.744,0,0,1-1.283.726,5.536,5.536,0,0,1-1.67-.258l-.2.4c-.319.638-.638,1.275-.937,1.907-.109.224-.2.448-.3.679.088-.13.17-.237.184-.251.414-.482,1.494-1.154,2.138-.883a.843.843,0,0,1,.414,1.113l-.041.074a1.726,1.726,0,0,1-1.283.719,5.294,5.294,0,0,1-1.629-.235c-.1.229-.184.481-.265.678a2.89,2.89,0,0,0-.149.489l-.129.481c-.075.306-.149.611-.217.909s-.082.407-.122.6a6.769,6.769,0,0,1,.333-.679c.339-.536,1.3-1.358,1.982-1.2a.836.836,0,0,1,.583,1.032s0,.061,0,.088a1.751,1.751,0,0,1-1.161.909,5.683,5.683,0,0,1-1.731,0c-.068.325-.129.645-.176.97-.19,1.053-.306,1.948-.373,2.546a.9.9,0,0,1,0,.306h2.132l-.78,15.159h-3.625l-.781-15.159h1.988l-.047-.095c-.271-.57-.679-1.357-1.059-2.376-.129-.319-.258-.679-.394-1a5.884,5.884,0,0,1-1.725.137,1.774,1.774,0,0,1-1.229-.821.843.843,0,0,1,.387-1.122h.075c.679-.225,1.7.536,2.07,1.045,0,0,.224.38.353.6l-.163-.428-.312-.9c-.047-.156-.088-.312-.136-.481s-.082-.326-.129-.489c-.095-.387-.163-.78-.23-1.175a5.373,5.373,0,0,1-1.643.373,1.743,1.743,0,0,1-1.358-.617.847.847,0,0,1,.21-1.174l.075-.042c.625-.326,1.751.272,2.2.72,0,0,.312.38.489.584-.041-.237-.082-.488-.109-.72-.088-.679-.156-1.418-.224-2.124a5.154,5.154,0,0,0-.068-.679,5.835,5.835,0,0,1-1.7.393,1.734,1.734,0,0,1-1.357-.624.84.84,0,0,1,.2-1.166l.074-.042c.632-.326,1.758.272,2.207.72a6.851,6.851,0,0,1,.536.679c-.047-.488-.1-.971-.176-1.419a14.41,14.41,0,0,0-.407-1.867,5.878,5.878,0,0,1-1.7.395,1.729,1.729,0,0,1-1.357-.618.841.841,0,0,1,.21-1.175l.068-.04c.631-.326,1.758.271,2.207.719.034.034.482.585.55.68a.63.63,0,0,1-.034-.1,10.352,10.352,0,0,0-.74-1.765c-.156-.319-.333-.611-.482-.889a5.513,5.513,0,0,1-1.616.563,1.743,1.743,0,0,1-1.4-.481.848.848,0,0,1,.082-1.187l.068-.055c.591-.388,1.772.081,2.268.488l.455.448-.237-.373c-.3-.441-.591-.828-.862-1.175-.156-.2-.3-.366-.435-.522a5.682,5.682,0,0,1-1.684-.245,1.741,1.741,0,0,1-1.019-1.059.834.834,0,0,1,.652-.9Zm7.78,18.887c.428.978.821,1.785,1.1,2.335l.149.306h.054a2.41,2.41,0,0,1,.047-.36c.082-.624.218-1.514.428-2.572.068-.333.143-.679.224-1.052a10.154,10.154,0,0,1-.971-.455,6.29,6.29,0,0,1-1.4.911c.136.3.258.616.38.888Z" transform="translate(-6142.218 -14363.398)" fill="#344154"/>
      <path id="Trazado_128007" data-name="Trazado 128007" d="M6159.981,14370.91s-.224-.821-.23-.882c-.088-.618.108-1.88.747-2.193a.843.843,0,0,1,1.113.429v.061a1.757,1.757,0,0,1-.306,1.46A5.781,5.781,0,0,1,6159.981,14370.91Z" transform="translate(-6155.618 -14364.8)" fill="#344154"/>
    </g>
    <g id="freepik--Characters--inject-80" transform="translate(63.331 38.562)">
      <path id="Trazado_128008" data-name="Trazado 128008" d="M6375.725,14604.7l3.924,11.609,3.822,26.137,14.168,35.232h-4.453l-20.6-33.672-6.354-20.773-8.9,21.725-1.568,32.992h-4.7l-2.892-35.1,5.764-27.154,1.222-5.77Z" transform="translate(-6311.802 -14561.578)" fill="#344154"/>
      <path id="Trazado_128009" data-name="Trazado 128009" d="M6005.744,14346.575a42.019,42.019,0,0,1,13.679.21c6.51,1.405,15.186,4.182,21.547,8.689a28.475,28.475,0,0,1,3.591,3.17l-4.752,3.564s-7.685-2.091-10.183-2.111a34.995,34.995,0,0,1-4.379-.394l6.212,17.65a6.313,6.313,0,0,1-4.236,6.109c-4.569,1.847-13.042,2.872-16.442.251-1.8-1.357-10.353-23.509-10.353-23.509s-2.5,13.008-3.258,14.936a12.742,12.742,0,0,1-2.288,3.585l-4.752-3.585s2.614-12.8,3.591-17.02S5998.365,14347.187,6005.744,14346.575Z" transform="translate(-5967.523 -14334.166)" fill="#78b62e"/>
      <path id="Trazado_128010" data-name="Trazado 128010" d="M6389.68,14577.3l7.488,1.02-5.858,1.494" transform="translate(-6339.511 -14552.778)" fill="none" opacity="0"/>
      <path id="Trazado_128011" data-name="Trazado 128011" d="M6030.619,14348.8a9.526,9.526,0,0,0-.217,8.826" transform="translate(-5980.232 -14335.032)" fill="none" opacity="0"/>
      <line id="Línea_745" data-name="Línea 745" x1="4.996" y1="0.747" transform="translate(27.902 25.199)" fill="none" opacity="0"/>
      <line id="Línea_746" data-name="Línea 746" x1="6.626" y2="1.018" transform="translate(26.055 26.353)" fill="none" opacity="0"/>
      <path id="Trazado_128012" data-name="Trazado 128012" d="M6041.887,14344.8s3.476,1.086,4.345,2.166.862,11.411.862,11.411l-4.454-.978-3.8,2.919s.217-6.191.869-10.428S6041.887,14344.8,6041.887,14344.8Z" transform="translate(-6003.123 -14333.748)" fill="#68a026"/>
      <path id="Trazado_128013" data-name="Trazado 128013" d="M6045.1,14340.568s2.824,4.025,3.476,4.867.217,5.539-.108,7.168a21.721,21.721,0,0,1-.971,3.26l-4.453-4.672a6.692,6.692,0,0,0,1.412-4.67c-.326-2.607-1.751-5.432-1.636-6.164S6045.1,14340.568,6045.1,14340.568Z" transform="translate(-6007.64 -14332.232)" fill="#ffe6d8"/>
      <path id="Trazado_128014" data-name="Trazado 128014" d="M6061.275,14338.76s1.948,4.752,1.521,6.511-5,5.757-7.169,5.1-2.5-4.671-2.5-4.671-.971.442-1.3.218-.441-2.912-.441-2.912a21.869,21.869,0,0,1-1.411-1.737,10.288,10.288,0,0,1-.754-1.42s-3.591-.1-3.266-3.394,6.408-7.929,10.753-7.929,5.975,4.989,5.975,6.5A9.278,9.278,0,0,1,6061.275,14338.76Z" transform="translate(-6023.706 -14328.523)" fill="#ffe6d8"/>
      <path id="Trazado_128015" data-name="Trazado 128015" d="M6056.84,14348.125a3.817,3.817,0,0,1,2.586-1.215" transform="translate(-6027.674 -14334.426)" fill="#344154"/>
      <path id="Trazado_128016" data-name="Trazado 128016" d="M6056.84,14349.5l.387.678s.917.238,1.263-.318" transform="translate(-6026.739 -14335.258)" fill="#344154"/>
      <path id="Trazado_128017" data-name="Trazado 128017" d="M6046.445,14336.456c.351-3.261,6.908-7.937,11.592-7.937s6.441,5.015,6.441,6.531-1.522,3.7-1.522,3.7,2.093,4.756,1.639,6.515-5.386,5.762-7.729,5.108c-1.844-.508-2.459-3.118-2.62-4.2,1.661-1.665,4.157.1,5.555.489,1.522.434,3.045-1.523,3.045-2.616s-1.522-4.017-1.874-4.566-2.2-.1-3.279-.211.469-1.738.227-2.718-3.74,2.392-5.123,3.153a3.357,3.357,0,0,1-2.81.1S6046.093,14339.717,6046.445,14336.456Zm10.188,10.662c-1.757-.225-1.757.427-1.757.427.637,1.36.937,1.095,1.522.877s1.983-1.095.234-1.3Z" transform="translate(-6024.836 -14328.52)" fill="#344154"/>
      <path id="Trazado_128018" data-name="Trazado 128018" d="M6045.916,14343.861s-.326-2.18.971-2.389,1.412,1.629,1.412,2.816-1.412,1.2-2.037.979" transform="translate(-6009.107 -14332.675)" fill="#efcebc"/>
      <path id="Trazado_128019" data-name="Trazado 128019" d="M6047.18,14336a2.5,2.5,0,0,1,.68.64" transform="translate(-6009.55 -14330.922)" fill="none" opacity="0"/>
      <path id="Trazado_128020" data-name="Trazado 128020" d="M6049.63,14339.938a11.356,11.356,0,0,0,4.161-3.068,3.766,3.766,0,0,1,3.557-1.461" transform="translate(-6020.703 -14330.72)" fill="none" opacity="0"/>
      <path id="Trazado_128021" data-name="Trazado 128021" d="M6047.06,14341.821s.972-3.36,5.045-2.273" transform="translate(-6013.714 -14331.991)" fill="none" opacity="0"/>
      <path id="Trazado_128022" data-name="Trazado 128022" d="M5996.612,14369.287s-1.46-2.3-3.286-1.658a12.275,12.275,0,0,0-3.584,2.281l-1.629-2.605a4.222,4.222,0,0,1,2.607-4.121c2.933-1.412,4.555-.219,4.555-.219C5996.395,14363.176,5997.827,14368.676,5996.612,14369.287Z" transform="translate(-5918.664 -14339.431)" fill="#68a026"/>
      <path id="Trazado_128023" data-name="Trazado 128023" d="M6061.831,14385.6a17.377,17.377,0,0,1,4.751,2.172,5.675,5.675,0,0,1,2.281,3.258s-2.5,2.717-3.041,2.717-4.671-4.562-5.105-5S6061.831,14385.6,6061.831,14385.6Z" transform="translate(-6039.692 -14346.851)" fill="#68a026"/>
      <path id="Trazado_128024" data-name="Trazado 128024" d="M6093.525,14403.09s.109,1.52.543,1.846,2.39,0,2.39,0,1.3-1.846.76-2.607-1.521-.543-2.172-.326a5.473,5.473,0,0,0-1.52,1.088Z" transform="translate(-6090.504 -14352.052)" fill="#6595bf"/>
      <path id="Trazado_128025" data-name="Trazado 128025" d="M6087.081,14390.2l-11.6,5.975-4.236.543s-5.214,2.607-5.214,3.041.543.68.971.543a33.536,33.536,0,0,1,4.236-1.412c.652,0,1.2.219,1.087.762s-1.63,2.824-.761,2.824,1.738-2.174,2.173-2.391a16.809,16.809,0,0,0,1.947-1.846s9.994-2.037,12.274-2.389a8.419,8.419,0,0,0,3.585-1.3Z" transform="translate(-6066.029 -14348.327)" fill="#ffe6d8"/>
      <path id="Trazado_128026" data-name="Trazado 128026" d="M5979.813,14499.5l-1.4,2a6.307,6.307,0,0,1-2.262,1.982l-2.715,1.4a.535.535,0,0,0-.3.481h0a.563.563,0,0,0,.557.564h.034c2.532-.136,12.478-.639,12.824-.639s.529-.529.4-2.124-2.716-3.666-2.716-3.666Z" transform="translate(-5898.423 -14383.424)" fill="#6595bf"/>
      <path id="Trazado_128027" data-name="Trazado 128027" d="M6041.855,14499.5l-1.392,2a6.374,6.374,0,0,1-2.267,1.983l-2.715,1.4a.541.541,0,0,0-.306.481h0a.564.564,0,0,0,.556.564h.034c2.539-.136,12.478-.639,12.824-.639s.536-.529.4-2.124-2.715-3.666-2.715-3.666Z" transform="translate(-6002.575 -14383.424)" fill="#6595bf"/>
      <path id="Trazado_128028" data-name="Trazado 128028" d="M6006.236,14397.885s1.459,2.328,1.059,4.242-3.972,10.258-6.612,17.922-2.118,16.008-2.118,18.479.129,4.236-1.717,5.2-4.752.414-5.553-1.359-1.324-13.129.129-19.979,6.612-18.879,7.936-21.615S6001.342,14394.219,6006.236,14397.885Z" transform="translate(-5930.583 -14350.311)" fill="#6595bf"/>
      <g id="Grupo_61510" data-name="Grupo 61510" transform="translate(59.925 46.064)" clip-path="url(#clip-path)">
        <g id="Grupo_61509" data-name="Grupo 61509" transform="translate(0)">
          <path id="Trazado_128029" data-name="Trazado 128029" d="M6006.236,14397.885s1.459,2.328,1.059,4.242-3.972,10.258-6.612,17.922-2.118,16.008-2.118,18.479.129,4.236-1.717,5.2-4.752.414-5.553-1.359-1.324-13.129.129-19.979,6.612-18.879,7.936-21.615S6001.342,14394.219,6006.236,14397.885Z" transform="translate(-5990.507 -14396.374)" fill="#344154" opacity="0.25"/>
          <path id="Trazado_128030" data-name="Trazado 128030" d="M6003.394,14400.072s1.459,2.334,1.052,4.248-3.964,10.258-6.612,17.924-2.111,16.008-2.111,18.479.129,4.236-1.724,5.193-4.752.414-5.553-1.357-1.358-13.131.129-19.98,6.619-18.879,7.936-21.613S5998.5,14396.338,6003.394,14400.072Z" transform="translate(-5985.717 -14397.067)" fill="#344154" opacity="0.25"/>
        </g>
      </g>
      <path id="Trazado_128031" data-name="Trazado 128031" d="M6006.236,14397.885s1.459,2.328,1.059,4.242-3.972,10.258-6.612,17.922-2.118,16.008-2.118,18.479.129,4.236-1.717,5.2-4.752.414-5.553-1.359-1.324-13.129.129-19.979,6.612-18.879,7.936-21.615S6001.342,14394.219,6006.236,14397.885Z" transform="translate(-5930.583 -14350.311)" fill="none" opacity="0"/>
      <path id="Trazado_128032" data-name="Trazado 128032" d="M5997.528,14370.082a18.335,18.335,0,0,1-1.073,7.469c-.848,2.32-5.39,9.652-5.39,9.652s3.8,1.42,4.888,2.4,2.4,4.121,1.745,4.23-3.048-2.6-3.591-2.824a30.054,30.054,0,0,0-3.693-.428,19.83,19.83,0,0,1,1.161,1.711,3.683,3.683,0,0,1,.577,1.215c0,.543-.76.434-1.188-.434s-1.745-.762-2.179-2.717a9.423,9.423,0,0,1,.225-4.127l1.9-14.006A5.08,5.08,0,0,1,5997.528,14370.082Z" transform="translate(-5919.832 -14341.72)" fill="#ffe6d8"/>
      <path id="Trazado_128033" data-name="Trazado 128033" d="M5992.08,14403.5s-1.507-3.244-3.17-3.795" transform="translate(-5914.213 -14351.381)" fill="none" opacity="0"/>
      <path id="Trazado_128034" data-name="Trazado 128034" d="M5991.994,14401.356a12.019,12.019,0,0,0-2.484-2.628" transform="translate(-5914.535 -14351.066)" fill="none" opacity="0"/>
      <rect id="Rectángulo_12842" data-name="Rectángulo 12842" width="1.772" height="17.101" transform="translate(47.63 91.864)" fill="#6595bf"/>
      <path id="Trazado_128035" data-name="Trazado 128035" d="M6390.9,14701.319v-2.919h4.508v2.919l18.024,6.924v3.462H6412.2v-2.647l-19.117-4-18.608,4v2.647h-1.195v-3.462Z" transform="translate(-6344.638 -14591.669)" fill="#6595bf"/>
      <rect id="Rectángulo_12843" data-name="Rectángulo 12843" width="8.873" height="5.458" transform="translate(44.073 91.864)" fill="#6595bf"/>
      <circle id="Elipse_4541" data-name="Elipse 4541" cx="1.908" cy="1.908" r="1.908" transform="translate(68.797 118.265)" fill="#344154"/>
      <path id="Trazado_128036" data-name="Trazado 128036" d="M5998.24,14505.105a.829.829,0,1,1,.828.82A.826.826,0,0,1,5998.24,14505.105Z" transform="translate(-5928.364 -14384.96)" fill="#6595bf"/>
      <circle id="Elipse_4542" data-name="Elipse 4542" cx="1.908" cy="1.908" r="1.908" transform="translate(24.684 118.265)" fill="#344154"/>
      <circle id="Elipse_4543" data-name="Elipse 4543" cx="0.821" cy="0.821" r="0.821" transform="translate(25.771 119.351)" fill="#6595bf"/>
      <path id="Trazado_128037" data-name="Trazado 128037" d="M6401.794,14713.683h1.5l.753-10.183h-3.007Z" transform="translate(-6354.103 -14593.307)" fill="#6595bf"/>
      <rect id="Rectángulo_12844" data-name="Rectángulo 12844" width="1.5" height="4.236" transform="translate(47.766 118.204)" fill="#344154"/>
      <path id="Trazado_128038" data-name="Trazado 128038" d="M6058.6,14419.809s-12-1.887-13.129-2.076-3.306,1.324-4.345,2.076-5.764,3.592-5.2,3.781,2.458-.562,3.686-1.039,2.173-.848,2.173-.848a15.079,15.079,0,0,1-1.507,1.791c-.49.381-.292.68,1.031.1a6.478,6.478,0,0,0,2.845-2.268c.488-.754,1.228-2.076,1.228-2.076s10.387,3.889,12.091,4.439,4.345.563,4.25-1.229S6058.6,14419.809,6058.6,14419.809Z" transform="translate(-6015.739 -14357.164)" fill="#efcebc"/>
      <path id="Trazado_128039" data-name="Trazado 128039" d="M6053.948,14419.809c1.039-.754,3.211-2.268,4.345-2.076.6.1,4.25.678,7.549,1.193l-.421,2.994c-3.394-1.242-7.223-2.674-7.223-2.674s-.76,1.322-1.229,2.076a6.535,6.535,0,0,1-2.838,2.268c-1.324.563-1.507.285-1.032-.1a15.087,15.087,0,0,0,1.508-1.791s-.944.379-2.173.848-3.116,1.229-3.687,1.039S6052.91,14420.557,6053.948,14419.809Z" transform="translate(-6028.564 -14357.164)" fill="#efcebc"/>
      <line id="Línea_747" data-name="Línea 747" x1="4.542" y2="2.715" transform="translate(20.183 63.691)" fill="none" opacity="0"/>
      <path id="Trazado_128040" data-name="Trazado 128040" d="M6025.219,14373.287s-2.641-1.705-2.172-3.592,8.309-4.752,12.09-3.891,5,4.752,6.049,7.557,5.281,15.023,5.281,15.023-3.116,3.488-7.081,1.7-7.556-11.539-9.354-13.5a16.137,16.137,0,0,0-4.813-3.293Z" transform="translate(-5991.736 -14340.443)" fill="#344154"/>
      <path id="Trazado_128041" data-name="Trazado 128041" d="M6052.695,14367.9a7.878,7.878,0,0,0-2.179,2.273,1.472,1.472,0,0,0,.1,1.684" transform="translate(-6016.503 -14341.167)" fill="none" opacity="0"/>
      <path id="Trazado_128042" data-name="Trazado 128042" d="M6029.81,14369.5a23.606,23.606,0,0,0,7.033,5.043c4.073,1.785,6.829,3.266,8.146,4.752" transform="translate(-5994.888 -14341.681)" fill="none" opacity="0"/>
      <path id="Trazado_128043" data-name="Trazado 128043" d="M6027.079,14387.6a13.97,13.97,0,0,1,.55,1.459" transform="translate(-5975.675 -14347.493)" fill="none" opacity="0"/>
      <path id="Trazado_128044" data-name="Trazado 128044" d="M6028.729,14370.1a26.372,26.372,0,0,0,2.8,2.348c2.756,2.037,6.171,4.705,8.187,8.377" transform="translate(-5988.879 -14341.873)" fill="none" opacity="0"/>
      <path id="Trazado_128045" data-name="Trazado 128045" d="M6046.39,14367.5a6.034,6.034,0,0,0,.55.738" transform="translate(-6008.095 -14341.038)" fill="none" opacity="0"/>
      <path id="Trazado_128046" data-name="Trazado 128046" d="M6024.526,14391.461s6.789,2.918,8.785,3.971,2.355,3.115,2.355,4.908-2.552,15.3-2.552,15.3h-11.141s-1.982-3.963-3.394-5.287-2.546-3.965-1.982-5.764,1.134-2.717,1.134-4.535.373-4.072,1.8-5.479S6021.715,14390.918,6024.526,14391.461Z" transform="translate(-5976.496 -14348.706)" fill="#3c6d9d"/>
      <path id="Trazado_128047" data-name="Trazado 128047" d="M6082.1,14460.219a24.894,24.894,0,0,1-1.717,3.938c-.971,2.376-2.763,6.144-3.843,8.485-1.527,3.333-2.675,7.65-2.471,7.943a7.169,7.169,0,0,1,.72,2.354c0,.591-.408,5.595-.408,5.595h-.72l-.516-2.946a4.78,4.78,0,0,0-2.146.591c-.516.488-1.12,1.567-2.037,2.036s-5.1.679-5.1.679-.72-.387.2-1.174a18.121,18.121,0,0,0,3.164-3.042c.814-1.175,3.163-4.019,3.163-4.019s5.315-29.131,5.723-30.387,1.738-4.019,2.96-4.311,5.431-.712,5.431-.712l.2,5.023s-.978-.19-2.091,2.037C6081.915,14453.7,6082.8,14456.553,6082.1,14460.219Z" transform="translate(-6057.536 -14366.006)" fill="#ffe6d8"/>
      <path id="Trazado_128048" data-name="Trazado 128048" d="M6080.476,14503.325c2.431.809,4.949-1.6,6.056-2.864a6.59,6.59,0,0,1,2.56-1.732,5.681,5.681,0,0,1,.306,1.358c0,.591-.408,5.595-.408,5.595h-.719l-.517-2.946a4.776,4.776,0,0,0-2.145.591c-.517.488-1.12,1.567-2.037,2.036s-5.105.679-5.105.679-.719-.387.2-1.175A22.753,22.753,0,0,0,6080.476,14503.325Z" transform="translate(-6072.146 -14383.18)" fill="#344154"/>
      <path id="Trazado_128049" data-name="Trazado 128049" d="M6055.371,14443.4s-4.447,1.242-4.168,2.206,6.958,20.957,9.463,25.647,3.428,8.425,3.157,9.572a19.218,19.218,0,0,1-3.34,5.431c-.733.543-2.6,1.534-2.322,1.63a39.329,39.329,0,0,0,5.934,0c.461-.048,3.062-3.157,3.53-3.354l.482-.189v3.448h.984l.367-5.268a8.082,8.082,0,0,0-1.358-2.717,11.429,11.429,0,0,1-2.716-5.069c-.842-2.872-3.89-17.61-4.378-20.576a23.205,23.205,0,0,0-1.643-5.54Z" transform="translate(-6033.87 -14365.412)" fill="#ffe6d8"/>
      <path id="Trazado_128050" data-name="Trazado 128050" d="M6053.465,14503.834a4.366,4.366,0,0,0,.679-.754,4.56,4.56,0,0,0,2.118-.379,16.454,16.454,0,0,0,3.34-3.355,6.171,6.171,0,0,1,1.915-1.357,8.82,8.82,0,0,1,.971,2.105l-.367,5.268H6061.1v-3.463l-.482.191c-.489.2-3.068,3.3-3.53,3.354a39.329,39.329,0,0,1-5.934,0C6050.865,14505.4,6052.719,14504.445,6053.465,14503.834Z" transform="translate(-6026.853 -14382.942)" fill="#344154"/>
      <path id="Trazado_128051" data-name="Trazado 128051" d="M6055.136,14427.189s.855,10.5.971,13.9a7.182,7.182,0,0,1-6.612,7.08c-3.9.373-26.937-2.756-26.937-2.756l-3.781-6.891s11.147-2.838,14.935-3.891,7.366-1.7,7.366-1.7l2.919-5.764Z" transform="translate(-5998.518 -14360.2)" fill="#3c6d9d"/>
      <path id="Trazado_128052" data-name="Trazado 128052" d="M6040.323,14398.629l-1.894,3.307s.679-3.489,1.045-4.752,1.412-.849,1.412-.184a9.472,9.472,0,0,1-.387,1.941" transform="translate(-5996.637 -14350.308)" fill="#094309"/>
      <path id="Trazado_128053" data-name="Trazado 128053" d="M6039.4,14382.557l3.258,5.213-2.824,6.619a32.445,32.445,0,0,0-2.606-4.99c-.869-.977-2.39-2.4-2.39-2.4s2.715-3.258,2.919-4.121S6039.158,14381.674,6039.4,14382.557Z" transform="translate(-5995.975 -14345.708)" fill="#ffe6d8"/>
      <path id="Trazado_128054" data-name="Trazado 128054" d="M6406.061,14601.7l1.7,1.7-3.021,8.689-2.267-3.122Z" transform="translate(-6358.784 -14560.615)" fill="#094309"/>
      <path id="Trazado_128055" data-name="Trazado 128055" d="M6060.527,14404.718c-3.575,9.006-5.019,12.263-6.058,14.53s-3.306,2.715-5.384,2.715-15.091-.365-15.091-.365a83.924,83.924,0,0,1-8.4,0c-1.229-.279-3.211-1.99-3.591-1.99s-2.458,1.889-2.919,1.889-.753-.279-.38-.943,1.894-3.586,2.919-3.68,5.479,2.83,5.479,2.83.3-.043,1.126-.166c1.721-.256,7.027-1.084,10.116-1.91,4.187-.232,9.774-.754,9.774-.754,1.287-2.373,2.6-7.449,3.64-9.939,1.039-2.756,1.222-6.422,3.116-7.928s3.987-.354,5.111.69" transform="translate(-6002.665 -14350.954)" fill="#ffe6d8"/>
      <path id="Trazado_128056" data-name="Trazado 128056" d="M6060.078,14425.6c1.046-.095,5.479,2.831,5.479,2.831s3.693-.516,7.224-1.187l-.089,3.089h-.217a83.63,83.63,0,0,1-8.4,0c-1.229-.279-3.211-1.989-3.591-1.989s-2.458,1.888-2.919,1.888-.754-.278-.381-.943S6059.047,14425.734,6060.078,14425.6Z" transform="translate(-6041.145 -14359.694)" fill="#ffe6d8"/>
      <path id="Trazado_128057" data-name="Trazado 128057" d="M6078.556,14428.1a19.452,19.452,0,0,0-3.116,2.648" transform="translate(-6059.431 -14360.499)" fill="none" opacity="0"/>
      <line id="Línea_748" data-name="Línea 748" x1="2.267" y2="1.901" transform="translate(16.579 66.746)" fill="none" opacity="0"/>
      <path id="Trazado_128058" data-name="Trazado 128058" d="M6041.825,14373.7a29.911,29.911,0,0,0-.72,3.186c-.108.971.679,1.52.326,2.035s-1.161,2.248-.727,2.465a3.373,3.373,0,0,0,1.195.217s1.989,3.7,2.43,4.379,3.476-.869,4.895-1.52,1.514-3.8,1.514-3.8l.115-2.172S6044,14375.939,6041.825,14373.7Z" transform="translate(-6008.064 -14343.028)" fill="#ffe6d8"/>
      <path id="Trazado_128059" data-name="Trazado 128059" d="M6052.921,14378.562c-1.412-1.71-1.391.183-1.391.183" transform="translate(-6017.565 -14344.36)" fill="#344154"/>
      <path id="Trazado_128060" data-name="Trazado 128060" d="M6051.638,14381.514c.122.4.353.68.509.633s.19-.416.068-.816-.36-.678-.516-.623S6051.515,14381.107,6051.638,14381.514Z" transform="translate(-6016.954 -14345.277)" fill="#344154"/>
      <path id="Trazado_128061" data-name="Trazado 128061" d="M6038.18,14380.936s.76-2.715,1.629-2.18a2.91,2.91,0,0,1,.435,3.7,1.951,1.951,0,0,1-2.281.434" transform="translate(-5996.15 -14344.63)" fill="#ffe6d8"/>
      <rect id="Rectángulo_12845" data-name="Rectángulo 12845" width="28.689" height="7.651" rx="3.04" transform="translate(62.062 94.48) rotate(-178.28)" fill="#6595bf"/>
      <g id="Grupo_61512" data-name="Grupo 61512" transform="translate(33.385 85.971)" clip-path="url(#clip-path-2)">
        <g id="Grupo_61511" data-name="Grupo 61511" transform="translate(0)">
          <rect id="Rectángulo_12846" data-name="Rectángulo 12846" width="28.689" height="7.651" rx="3.04" transform="translate(28.676 8.509) rotate(-178.28)" fill="#344154" opacity="0.25"/>
          <rect id="Rectángulo_12847" data-name="Rectángulo 12847" width="28.675" height="7.651" rx="3.04" transform="matrix(-1, -0.032, 0.032, -1, 28.731, 10.475)" fill="#344154" opacity="0.25"/>
        </g>
      </g>
      <rect id="Rectángulo_12848" data-name="Rectángulo 12848" width="28.689" height="7.651" rx="3.04" transform="translate(62.062 94.48) rotate(-178.28)" fill="none" opacity="0"/>
      <path id="Trazado_128062" data-name="Trazado 128062" d="M6011.447,14454.514a.942.942,0,0,0,.38-.08.971.971,0,0,0,.55-1.266h0c-1.6-3.842-3.395-10.7-1.555-12.742.441-.3,3.075-.943,17.284.361l1.032.094c.971.076,1.839,1.357,2.037,1.779a.991.991,0,1,0,1.765-.889c-.136-.271-1.4-2.717-3.672-2.865l-1-.088c-15.139-1.357-18.044-.68-18.92.264-3.34,3.646.679,13.715,1.181,14.848a.971.971,0,0,0,.923.582Z" transform="translate(-5968.196 -14363.694)" fill="#6595bf"/>
    </g>
    <g id="freepik--Desk--inject-80" transform="translate(17.997 81.468)">
      <rect id="Rectángulo_12849" data-name="Rectángulo 12849" width="77.948" height="5.458" transform="translate(1.915 28.728)" fill="#78b62e"/>
      <rect id="Rectángulo_12850" data-name="Rectángulo 12850" width="16.972" height="3.693" transform="translate(48.166 26.555)" fill="#6595bf"/>
      <rect id="Rectángulo_12851" data-name="Rectángulo 12851" width="16.972" height="2.736" transform="translate(15.254 23.025)" fill="#3c6d9d"/>
      <rect id="Rectángulo_12852" data-name="Rectángulo 12852" width="16.972" height="2.736" transform="translate(14.568 20.309)" fill="#3c6d9d"/>
      <rect id="Rectángulo_12853" data-name="Rectángulo 12853" width="16.972" height="4.514" transform="translate(14.229 25.74)" fill="#3c6d9d"/>
      <rect id="Rectángulo_12854" data-name="Rectángulo 12854" width="77.948" height="2.6" transform="translate(1.915 28.864)" fill="#344154"/>
      <path id="Trazado_128063" data-name="Trazado 128063" d="M6052.956,14484.979h0a.549.549,0,0,0,.543-.543l.353-50.236h-1.792l.353,50.236A.542.542,0,0,0,6052.956,14484.979Z" transform="translate(-5973.521 -14405.362)" fill="#78b62e"/>
      <path id="Trazado_128064" data-name="Trazado 128064" d="M6166.456,14484.979h0a.542.542,0,0,0,.543-.543l.354-50.236h-1.793l.354,50.236A.556.556,0,0,0,6166.456,14484.979Z" transform="translate(-6164.074 -14405.362)" fill="#78b62e"/>
      <path id="Trazado_128065" data-name="Trazado 128065" d="M6104.09,14426.031h8.4a.611.611,0,1,0,0-1.216h-8.4a1.46,1.46,0,0,1-1.358-1.84l2.98-10.7a.611.611,0,0,0-.421-.746h0a.612.612,0,0,0-.747.422l-2.98,10.7a2.661,2.661,0,0,0,1.847,3.272,2.787,2.787,0,0,0,.713.1Z" transform="translate(-6066.372 -14398.077)" fill="#6595bf"/>
      <rect id="Rectángulo_12855" data-name="Rectángulo 12855" width="24.772" height="1.914" transform="matrix(-0.119, -0.993, 0.993, -0.119, 41.767, 24.823)" fill="#6595bf"/>
      <path id="Trazado_128066" data-name="Trazado 128066" d="M6109.881,14392a37.1,37.1,0,0,0,2.953,24.6Z" transform="translate(-6071.145 -14391.812)" fill="#344154"/>
      <path id="Trazado_128067" data-name="Trazado 128067" d="M6087.1,14428.709a2.187,2.187,0,0,0,1.012-.271,2.639,2.639,0,0,0,1.459-2.518,1.657,1.657,0,0,0-.679-1.25,3.059,3.059,0,0,0-2.261-.279.489.489,0,1,0,.238.943,2.171,2.171,0,0,1,1.459.123.682.682,0,0,1,.259.543,1.656,1.656,0,0,1-.923,1.58.864.864,0,0,1-.875.055.487.487,0,0,0-.68.063.481.481,0,0,0,.062.678,1.457,1.457,0,0,0,.931.334Z" transform="translate(-6032.278 -14402.181)" fill="#213a52"/>
      <path id="Trazado_128068" data-name="Trazado 128068" d="M6090.853,14429.273a3.6,3.6,0,0,0,3.286,0c1.127-.937,1.093-5.764,1.093-5.764h-5.472S6089.726,14428.391,6090.853,14429.273Z" transform="translate(-6040.495 -14401.931)" fill="#213a52"/>
      <rect id="Rectángulo_12856" data-name="Rectángulo 12856" width="81.776" height="2.267" transform="translate(0 27.641)" fill="#78b62e"/>
    </g>
    <g id="freepik--Floor--inject-80" transform="translate(1.942 160.703)">
      <rect id="Rectángulo_12857" data-name="Rectángulo 12857" width="179.676" height="3.252" fill="#344154"/>
    </g>
  </g>
</svg>
