<svg xmlns="http://www.w3.org/2000/svg" width="85" height="85" viewBox="0 0 85 85">
  <g id="Grupo_134899" data-name="Grupo 134899" transform="translate(-2300 6397)">
    <circle id="Elipse_4780" data-name="Elipse 4780" cx="42.5" cy="42.5" r="42.5" transform="translate(2300 -6397)" fill="#fff"/>
    <g id="Grupo_71158" data-name="Grupo 71158" transform="translate(2293.484 -8819.53)">
      <g id="Grupo_71157" data-name="Grupo 71157" transform="translate(20.516 2436.53)">
        <path id="Trazado_143396" data-name="Trazado 143396" d="M75.022,2518.246h1.85v1.839H46.837v2.564a2.839,2.839,0,0,1-2.558,3.1,2.806,2.806,0,0,1-.549,0H23.653a2.847,2.847,0,0,1-3.12-3.14q0-10.567-.009-21.134a3.327,3.327,0,0,1,1.033-2.517q3.03-2.99,6.021-6.018a3.269,3.269,0,0,1,2.464-1.017c4.441.017,8.885.078,13.326-.022a3.087,3.087,0,0,1,3.439,3.743H44.985c-.009-.18-.024-.368-.027-.557-.01-.99-.3-1.276-1.308-1.278H29.929v4.262a2.88,2.88,0,0,1-3.241,3.255q-2.055,0-4.109.01a.706.706,0,0,0-.164.065v21.092c0,1.119.262,1.379,1.38,1.379H43.578c1.118,0,1.38-.262,1.382-1.38v-2.322c-.571-.082-1.037-.2-1.4.49a2.676,2.676,0,0,1-3.145,1.211,2.81,2.81,0,0,1,.086-5.421,2.739,2.739,0,0,1,3.116,1.3.815.815,0,0,0,.858.49c2.013-.024,4.027-.011,6.13-.011v-5.4c0-.845.329-1.171,1.172-1.173h4.464v-3.718c0-1.858.06-1.917,1.9-1.918q1.79,0,3.581-.012c.035,0,.068-.028.16-.067v-4.187c0-1.113.261-1.371,1.388-1.371h4.248v-.587c0-1.33-.007-2.662,0-3.992a.94.94,0,0,1,1.052-1.054q2.7-.015,5.4,0c.75,0,1.058.375,1.058,1.226v22.279Zm-5.594-21.594v21.56h3.678v-21.56Zm-5.64,5.625v15.917h3.678v-15.92Zm-1.939,5.666H58.163V2518.2H61.85Zm-5.64,10.268v-4.638H52.521v4.639Zm-28.157-22.893-4.115,4.119c1.071,0,2.178.03,3.282-.014a.844.844,0,0,0,.829-.859c0-.015,0-.03,0-.045.013-1.071,0-2.143,0-3.2Zm13.167,22.925a.937.937,0,1,0,.924.949v-.016a.947.947,0,0,0-.937-.938Z" transform="translate(-20.516 -2469.346)" fill="#636363"/>
        <path id="Trazado_143397" data-name="Trazado 143397" d="M83.613,2459.594l-3.718,3.727c-.621.623-1.238,1.253-1.87,1.867-1.814,1.764-.961,1.4-3.5,1.436-.981.014-1.962,0-3,0V2483.5H69.643v-16.866c-.657,0-1.276-.029-1.889.021-.14.011-.283.274-.384.444a2.819,2.819,0,1,1-3.479-4.023,2.768,2.768,0,0,1,3.481,1.245.693.693,0,0,0,.709.44c2.426-.02,4.853,0,7.28-.02a1.043,1.043,0,0,0,.671-.233c1.951-1.922,3.884-3.865,5.819-5.8a1.449,1.449,0,0,0,.122-.173,12.177,12.177,0,0,1-4.823-9.735,11.9,11.9,0,0,1,3.1-8.2,12.25,12.25,0,1,1,3.357,19Zm4.8-21.037c-3.727-.106-7.859,3.319-9.014,7.428a10.377,10.377,0,0,0,4.852,11.776,10.118,10.118,0,0,0,11.181-.735c-2.156-2.426-4.3-4.861-6.475-7.272a2.021,2.021,0,0,1-.554-1.471c.022-3.032.01-6.062.01-9.094Zm1.9,9.243H99.6a10.142,10.142,0,0,0-9.293-9.238Zm6.563,8.024c1.611-1.686,2.836-4.508,2.672-6.058H91.49Zm-31.016,9.859a.935.935,0,1,0-.933.938h.012a.945.945,0,0,0,.921-.933Z" transform="translate(-45.178 -2436.53)" fill="#636363"/>
        <path id="Trazado_143398" data-name="Trazado 143398" d="M41.682,2455.951c1.431-1.226,2.833-2.411,4.207-3.63a.8.8,0,0,0,.107-.649,2.807,2.807,0,1,1,5.128.814,2.72,2.72,0,0,1-3.093,1.226,1.079,1.079,0,0,0-1.185.271c-1.436,1.27-2.908,2.5-4.351,3.759a1.838,1.838,0,0,0-.463.7,2.778,2.778,0,0,1-2.427,1.936,2.655,2.655,0,0,1-2.725-1.455.648.648,0,0,0-.668-.409q-1.583.032-3.168,0a.6.6,0,0,0-.625.38,2.718,2.718,0,0,1-3.281,1.369.643.643,0,0,0-.757.2c-.68.7-1.367,1.4-2.077,2.072a.778.778,0,0,0-.236.909,2.6,2.6,0,0,1-.937,2.883,2.625,2.625,0,0,1-3.02.332,2.684,2.684,0,0,1-1.553-2.619,2.776,2.776,0,0,1,3.528-2.587.781.781,0,0,0,.907-.245c.689-.721,1.418-1.4,2.1-2.133a.8.8,0,0,0,.155-.638,2.832,2.832,0,0,1,5.216-2.147.793.793,0,0,0,.568.332c1.075.032,2.152.026,3.227,0a.7.7,0,0,0,.512-.233C38.047,2454.395,39.947,2454.2,41.682,2455.951Zm7.991-4.958a.935.935,0,1,0-.921.949h.014a.942.942,0,0,0,.907-.95Zm-20.659,6.545a.935.935,0,1,0,.979-.889h-.013a.945.945,0,0,0-.965.889Zm10.341-.89a.935.935,0,1,0,.925.946v-.015a.943.943,0,0,0-.925-.928Zm-15.986,6.576a.935.935,0,1,0,.94.93v-.014a.941.941,0,0,0-.94-.917Z" transform="translate(-20.537 -2443.454)" fill="#636363"/>
        <path id="Trazado_143399" data-name="Trazado 143399" d="M57.269,2531.369v1.807H46.07v-1.807Z" transform="translate(-35.671 -2492.774)" fill="#636363"/>
        <path id="Trazado_143400" data-name="Trazado 143400" d="M32.164,2544.695v-1.806h9.317v1.806Z" transform="translate(-27.424 -2499.606)" fill="#636363"/>
        <path id="Trazado_143402" data-name="Trazado 143402" d="M65.468,2542.892v1.8H59.9v-1.8Z" transform="translate(-43.871 -2499.608)" fill="#636363"/>
        <path id="Trazado_143405" data-name="Trazado 143405" d="M35.887,2533.183H32.2v-1.814h3.687Z" transform="translate(-27.445 -2492.774)" fill="#636363"/>
        <path id="Trazado_143406" data-name="Trazado 143406" d="M32.215,2554.409h3.678v1.828H32.215Z" transform="translate(-27.454 -2506.438)" fill="#636363"/>
      </g>
    </g>
  </g>
</svg>
