<svg xmlns="http://www.w3.org/2000/svg" width="85" height="85" viewBox="0 0 85 85">
  <g id="Grupo_134898" data-name="Grupo 134898" transform="translate(-1985 6397)">
    <circle id="Elipse_4778" data-name="Elipse 4778" cx="42.5" cy="42.5" r="42.5" transform="translate(1985 -6397)" fill="#fff"/>
    <g id="zNwYMP" transform="translate(1337.042 -9069.527)">
      <g id="Grupo_134244" data-name="Grupo 134244" transform="translate(662.958 2685.527)">
        <path id="Trazado_147526" data-name="Trazado 147526" d="M711.791,2685.527a1.738,1.738,0,0,1,1.06,1.82c-.039,2.129-.016,4.259-.01,6.388a.94.94,0,0,1-.556,1.021c-.6.233-1.144-.2-1.153-.924-.016-1.273-.005-2.548-.005-3.822v-2.725H675.408v14.6c.179.011.359.03.539.031.837.008,1.674-.015,2.509.022a3.625,3.625,0,0,1,1.366,6.9c-.416.19-.592.4-.53.842a2.948,2.948,0,0,1,0,.683,1.526,1.526,0,0,0,.466,1.311,3.175,3.175,0,0,1,.511,1.285,2.869,2.869,0,0,1,.01.73c1.193,0,2.329.007,3.464-.012.112,0,.248-.144.328-.253a1.462,1.462,0,0,1,1.263-.647c.8.007,1.6.006,2.4,0a1.551,1.551,0,0,1,1.226.615.9.9,0,0,0,.592.286q2.567.034,5.134,0c.219,0,.438-.195.655-.3.393-.2.778-.549,1.178-.566,1.595-.066,3.193-.035,4.791-.027a.834.834,0,0,1,.939.842.851.851,0,0,1-.933.86c-1.293.015-2.586.006-3.879.006h-.66v3.976c.14.01.267.026.395.026q8.471,0,16.943,0a1.993,1.993,0,0,0,2.026-1.435,1.893,1.893,0,0,0-.829-2.226,2.83,2.83,0,0,0-1.294-.326c-2.7-.029-5.4-.014-8.1-.014-.152,0-.3.007-.456,0a.857.857,0,0,1-.9-.9.82.82,0,0,1,.913-.808c1.617-.01,3.233,0,4.849,0h.8V2698.6c0-.152,0-.3,0-.457.024-.655.364-1.041.9-1.022s.811.371.812,1.025q.005,6.93,0,13.86v.775c.523,0,1.009-.011,1.493,0a3.71,3.71,0,0,1,3.589,3.278,3.666,3.666,0,0,1-2.646,3.966,16.371,16.371,0,0,1-2.438.258v.631q0,10.58,0,21.161c0,1.39-.463,1.859-1.834,1.859H664.795c-1.326,0-1.835-.5-1.837-1.81q0-1.055,0-2.11c0-1.675.375-2.173,2.025-2.648,0-.422-.008-.857,0-1.293a1.979,1.979,0,0,1,2.113-2.047c2.016-.009,4.031,0,6.047,0,.149,0,.3-.016.484-.027v-2.944c-.53,0-1.072,0-1.614,0a10.908,10.908,0,0,1-1.481-.043,3.619,3.619,0,0,1-3.032-3.06,3.569,3.569,0,0,1,2.058-3.83.679.679,0,0,0,.488-.805,4.637,4.637,0,0,1,0-.8,1.409,1.409,0,0,0-.434-1.207,1.928,1.928,0,0,1-.492-1.22c-.046-2.395-.057-4.792.006-7.185a4.342,4.342,0,0,1,.6-1.417c.107-.24.223-.478.309-.726a1.743,1.743,0,0,0,.008-.34,1.581,1.581,0,0,0-.942-1.868,3.4,3.4,0,0,1-1.517-3.954,3.58,3.58,0,0,1,3.321-2.664c.889-.037,1.781-.007,2.76-.007v-.72c0-4.6.017-9.2-.015-13.8a1.8,1.8,0,0,1,1.055-1.882ZM680.5,2719.3a6.679,6.679,0,0,1-.735,1.976,1.884,1.884,0,0,0-.47,1.421,5.379,5.379,0,0,1,0,.741.582.582,0,0,0,.4.647,4.353,4.353,0,0,1,1.243.876,3.421,3.421,0,0,1,.678,3.861,3.462,3.462,0,0,1-3.289,2.23c-.962.031-1.927.006-2.9.006v2.973h.661c2.053,0,4.106-.006,6.159,0a2.021,2.021,0,0,1,2.152,2.138c.007.414,0,.829,0,1.137a8.584,8.584,0,0,1,1.248.6,1.909,1.909,0,0,1,.751,1.7c-.009.865,0,1.729,0,2.58h24.69v-21.983h-.727q-6.787,0-13.573,0a1.832,1.832,0,0,1-1.429-.57,1.091,1.091,0,0,0-.691-.328c-1.691-.028-3.384-.009-5.076-.021a.956.956,0,0,0-.707.328,2.284,2.284,0,0,1-1.174.561,22.124,22.124,0,0,1-2.278.028,1.544,1.544,0,0,1-1.368-.674.583.583,0,0,0-.4-.227C682.56,2719.289,681.46,2719.3,680.5,2719.3Zm4.179,22.9c0-.826-.028-1.587.009-2.344.028-.552-.172-.715-.719-.711-3.08.023-6.16.011-9.241.011a3.99,3.99,0,0,1-.57-.013.79.79,0,0,1-.743-.8.8.8,0,0,1,.663-.87,2.269,2.269,0,0,1,.567-.028q3.708,0,7.416,0c.2,0,.4-.017.621-.028,0-.315,0-.561,0-.807,0-.87,0-.87-.89-.87h-14.26a1.5,1.5,0,0,0-.509.02c-.129.049-.3.2-.308.321-.037.443-.015.89-.015,1.365h.71c.913,0,1.826-.009,2.738,0a.857.857,0,1,1,.025,1.705c-.152.007-.3,0-.456,0q-2.225,0-4.449,0c-.3,0-.6-.01-.6.413,0,.869,0,1.737,0,2.632Zm-10.021-29.53c-1.1,0-2.206.01-3.308-.006-.378-.005-.552.1-.55.513q.019,3.308,0,6.616c0,.4.15.532.54.531q3.338-.018,6.675,0c.428,0,.563-.174.561-.581-.01-2.167-.014-4.334,0-6.5,0-.459-.178-.588-.611-.579C676.864,2712.686,675.761,2712.671,674.658,2712.671Zm.014,16.674c1.158,0,2.316.006,3.475,0a1.938,1.938,0,1,0,.042-3.873q-3.5-.021-7.006,0a1.938,1.938,0,1,0,.015,3.873C672.355,2729.351,673.514,2729.345,674.672,2729.345Zm.026-21.83v0c1.177,0,2.355.027,3.531-.008a1.925,1.925,0,0,0,1.96-1.945,1.894,1.894,0,0,0-1.969-1.921c-2.373-.021-4.747-.036-7.118.021a2.38,2.38,0,0,0-1.362.57,1.708,1.708,0,0,0-.435,2.031,1.883,1.883,0,0,0,1.864,1.248C672.343,2707.532,673.52,2707.515,674.7,2707.515Zm14.521,10.034h5.768v-2.108h-5.768Zm-11.668-6.619v-1.659H671.8v1.659Zm.005,12.8v-1.663h-5.761v1.663Zm9.906-9.194H685.6v3.931h1.866Zm-3.66,3.031v-2.125h-3.479v2.125Z" transform="translate(-662.958 -2685.527)" fill="#636363"/>
        <path id="Trazado_147527" data-name="Trazado 147527" d="M713.939,2695.989a8.857,8.857,0,1,1-8.872,8.82A8.837,8.837,0,0,1,713.939,2695.989Zm.014,1.711a7.146,7.146,0,1,0,7.11,7.17A7.14,7.14,0,0,0,713.952,2697.7Z" transform="translate(-683.627 -2690.662)" fill="#636363"/>
        <path id="Trazado_147528" data-name="Trazado 147528" d="M722.98,2775.152q3.7,0,7.408,0a2.71,2.71,0,0,1,.568.022.848.848,0,0,1-.024,1.673,2.45,2.45,0,0,1-.455.014H715.435c-.076,0-.152,0-.228,0-.621-.017-.982-.338-.975-.866s.368-.831,1-.844c.4-.007.8,0,1.2,0Z" transform="translate(-688.125 -2729.518)" fill="#636363"/>
        <path id="Trazado_147529" data-name="Trazado 147529" d="M722.928,2760.516h-7.465a2.706,2.706,0,0,1-.512-.014.849.849,0,0,1-.085-1.66,1.732,1.732,0,0,1,.509-.035q7.579,0,15.157,0a2.525,2.525,0,0,1,.342.009.842.842,0,0,1,.78.89.818.818,0,0,1-.806.805c-.151.015-.3.006-.456.006Z" transform="translate(-688.126 -2721.495)" fill="#636363"/>
        <path id="Trazado_147530" data-name="Trazado 147530" d="M719.607,2783.348c1.405,0,2.811,0,4.217,0,.7,0,1.063.284,1.08.815.019.556-.359.889-1.074.891q-4.274.011-8.548,0c-.693,0-1.047-.311-1.049-.854s.347-.846,1.043-.85C716.719,2783.343,718.163,2783.348,719.607,2783.348Z" transform="translate(-688.126 -2733.541)" fill="#636363"/>
        <path id="Trazado_147531" data-name="Trazado 147531" d="M734.153,2766.99c1.292,0,2.584-.012,3.876.005.732.01,1.2.577.893,1.135a1.163,1.163,0,0,1-.826.542c-2.66.041-5.321.032-7.981.019a.826.826,0,0,1-.912-.872c.013-.5.354-.818.959-.824C731.492,2766.981,732.822,2766.991,734.153,2766.99Z" transform="translate(-695.474 -2725.511)" fill="#636363"/>
        <path id="Trazado_147532" data-name="Trazado 147532" d="M717.373,2768.7c-.7,0-1.4.009-2.107,0-.685-.01-1.039-.317-1.033-.866.006-.53.344-.833,1-.837q2.164-.018,4.328,0c.647,0,1,.313,1.008.832.01.541-.358.861-1.032.872C718.816,2768.707,718.094,2768.7,717.373,2768.7Z" transform="translate(-688.126 -2725.509)" fill="#636363"/>
        <path id="Trazado_147533" data-name="Trazado 147533" d="M739.979,2783.347c.646,0,1.292-.011,1.937,0a.853.853,0,0,1,.94.847.838.838,0,0,1-.889.844q-2.022.035-4.045,0a.814.814,0,0,1-.875-.85c0-.51.34-.827.938-.841C738.649,2783.335,739.314,2783.347,739.979,2783.347Z" transform="translate(-699.324 -2733.539)" fill="#636363"/>
        <path id="Trazado_147534" data-name="Trazado 147534" d="M718.254,2711.939c1.124-1.124,2.168-2.169,3.214-3.212a2.594,2.594,0,0,1,.468-.412.776.776,0,0,1,1.035.145.793.793,0,0,1,.1,1.043,1.978,1.978,0,0,1-.3.341q-1.83,1.835-3.663,3.667c-.638.635-1.005.634-1.634.009q-1.152-1.144-2.295-2.3c-.469-.475-.5-.974-.113-1.347a.882.882,0,0,1,1.307.128C716.99,2710.62,717.589,2711.254,718.254,2711.939Z" transform="translate(-688.403 -2696.646)" fill="#636363"/>
      </g>
    </g>
  </g>
</svg>
