<svg xmlns="http://www.w3.org/2000/svg" width="85" height="85" viewBox="0 0 85 85">
  <g id="Grupo_134896" data-name="Grupo 134896" transform="translate(-1125 -5303)">
    <circle id="Elipse_4777" data-name="Elipse 4777" cx="42.5" cy="42.5" r="42.5" transform="translate(1125 5303)" fill="#fff"/>
    <g id="_350jIN" data-name="350jIN" transform="translate(481.765 5054.683)">
      <g id="Grupo_134242" data-name="Grupo 134242" transform="translate(655.235 260.317)">
        <path id="Trazado_147505" data-name="Trazado 147505" d="M716.878,291.5a1.5,1.5,0,0,1-1.428.554c-.378-.022-.759,0-1.2,0a28.285,28.285,0,0,1-27.29,27.273c0,.548.011,1.063,0,1.578-.018.661-.367,1.055-.9,1.053s-.878-.4-.9-1.062c-.013-.5,0-1,0-1.516-1.206-.141-2.391-.2-3.54-.432-1.625-.33-3.229-.771-4.832-1.2-.66-.177-.915-.628-.758-1.149.167-.555.65-.771,1.305-.549a27.046,27.046,0,0,0,6.751,1.395c.318.023.637.041,1.058.068,0-1.106.011-2.177-.021-3.247,0-.084-.3-.219-.463-.23a22.753,22.753,0,0,1-13.242-5.252c-.309-.252-.608-.516-.906-.77-.736.612-1.186.68-1.6.262s-.334-.835.206-1.52c-.875-1.217-1.8-2.378-2.589-3.628a21.817,21.817,0,0,1-3.347-10.538c-.024-.414-.154-.554-.568-.543-.941.025-1.883.008-2.96.008.113,1.071.165,2.1.339,3.117a26.111,26.111,0,0,0,13.389,19.1c.622.356.823.827.568,1.324-.266.519-.8.624-1.45.249a27.844,27.844,0,0,1-14.263-20.271c-.2-1.14-.277-2.3-.421-3.526-.5,0-1.018.015-1.533,0-.666-.024-1.052-.376-1.045-.916s.4-.868,1.069-.881c.5-.01,1,0,1.558,0a28.282,28.282,0,0,1,27.215-27.286c.268-.885-.313-1.944.616-2.639h.722c.928.695.349,1.754.615,2.64a28.279,28.279,0,0,1,27.215,27.284c.485,0,.905.025,1.322-.006a1.392,1.392,0,0,1,1.311.54Zm-51.937.548a21.239,21.239,0,0,0,5.625,13.465c.3-.362.536-.689.817-.97a.906.906,0,1,1,1.248,1.283c-.283.278-.615.507-.965.79a21.264,21.264,0,0,0,13.485,5.631c0-.439,0-.795,0-1.15,0-.381-.012-.763.013-1.143a.84.84,0,0,1,.823-.871.81.81,0,0,1,.923.68,3.392,3.392,0,0,1,.047.718c.006.571,0,1.142,0,1.771a21.226,21.226,0,0,0,13.453-5.614c-.365-.316-.686-.559-.965-.842a.9.9,0,1,1,1.265-1.262,11.469,11.469,0,0,1,.8,1.022,21.268,21.268,0,0,0,5.653-13.508c-.775,0-1.454.016-2.133,0s-1.045-.37-1.036-.919.379-.866,1.068-.877,1.356,0,2.066,0a4.069,4.069,0,0,0-.006-.721c-.353-1.764-.694-3.53-1.1-5.282-.185-.8-.092-1.249.494-1.446.55-.184,1,.085,1.207.841.36,1.311.7,2.63.976,3.96.176.853.218,1.732.32,2.594h3.366c-.432-14.845-13.247-25.428-25.426-25.323,0,1,.007,2,0,3,0,.406.271.367.532.384a22.56,22.56,0,0,1,12.815,4.921c.45.356.886.73,1.322,1.09.684-.605,1.142-.678,1.558-.276s.356.87-.256,1.6c.177.206.373.407.537.631.758,1.034,1.524,2.063,2.251,3.117a.892.892,0,0,1-.2,1.364.941.941,0,0,1-1.323-.42c-.156-.233-.285-.486-.452-.71-.676-.908-1.361-1.809-2.067-2.745-.24.227-.385.362-.527.5s-.281.287-.427.424a.9.9,0,0,1-1.379.065.877.877,0,0,1,.109-1.33,11.846,11.846,0,0,1,1.024-.8,21.477,21.477,0,0,0-13.514-5.65c0,.674,0,1.253,0,1.831,0,.926-.293,1.348-.918,1.338s-.887-.419-.889-1.366c0-.576,0-1.151,0-1.714-3.526-.453-10.571,2.452-13.422,5.574.313.263.655.51.949.806a.9.9,0,1,1-1.258,1.27c-.3-.291-.558-.622-.877-.983a21.144,21.144,0,0,0-5.6,13.455c.766,0,1.425-.007,2.085,0,.69.01,1.066.316,1.085.86.019.565-.373.92-1.08.938C666.375,292.058,665.715,292.045,664.941,292.045Zm20.207-27.222c-13.707.261-25.209,11.893-25.407,25.356a.617.617,0,0,0,.167.05c.9.006,1.805-.011,2.707.02.423.014.537-.139.562-.547a22.488,22.488,0,0,1,5.025-12.947c.321-.4.658-.792.982-1.181-.609-.689-.686-1.137-.291-1.557s.807-.363,1.533.153c1.409-.98,2.737-2.023,4.176-2.881a21.75,21.75,0,0,1,10.022-3.035c.265-.015.531.011.527-.391C685.14,266.863,685.148,265.863,685.148,264.824Zm17.768,41.864c.615.7.691,1.151.3,1.568s-.809.356-1.54-.158c-1.354.95-2.633,1.958-4.016,2.795a22.018,22.018,0,0,1-10.18,3.136c-.175.011-.485.169-.488.266-.036,1.052-.022,2.106-.022,3.159,14.469-.337,25.407-12.829,25.367-25.352H708.98A23.019,23.019,0,0,1,702.915,306.687Z" transform="translate(-655.235 -260.317)" fill="#636363"/>
        <path id="Trazado_147506" data-name="Trazado 147506" d="M717.535,315.993a30.153,30.153,0,0,1,2.188,2.117,7.575,7.575,0,0,1,1.741,4.707c.029.67-.283,1.076-.827,1.116-.584.043-.925-.308-.972-1.028a6.1,6.1,0,0,0-3.47-5.383,1.9,1.9,0,0,0-.949-.085c-.792.058-1.581.188-2.373.225a.566.566,0,0,0-.593.344c-.313.6-.7,1.157-.991,1.635a30.478,30.478,0,0,1,2.329,2.37,7.166,7.166,0,0,1,1.528,4.411c.016.727-.28,1.123-.849,1.143s-.912-.353-.952-1.071a6.043,6.043,0,0,0-3.487-5.362,1.3,1.3,0,0,0-.889-.067,5.945,5.945,0,0,1-3.607-.007,1.226,1.226,0,0,0-.835.053,6.06,6.06,0,0,0-3.518,5.22,2.208,2.208,0,0,1-.172.811.8.8,0,0,1-.981.39.75.75,0,0,1-.641-.828,14.519,14.519,0,0,1,.463-2.706,7.667,7.667,0,0,1,3.452-4.216c-.39-.66-.759-1.314-1.165-1.945-.069-.107-.293-.14-.451-.16-.866-.113-1.733-.22-2.6-.308a1.2,1.2,0,0,0-.616.071,6.09,6.09,0,0,0-3.6,5.417c-.031.478-.135.883-.637,1.043-.667.212-1.213-.289-1.17-1.1a7.916,7.916,0,0,1,3.484-6.349c.159-.113.32-.223.368-.256-.45-.945-.944-1.811-1.278-2.736a4.61,4.61,0,0,1,.035-2.9c.189-.64.619-.941,1.132-.8.553.151.767.612.6,1.294a3.785,3.785,0,0,0,3.4,4.847,7.333,7.333,0,0,0,.922-.038,5.743,5.743,0,0,1,2.861-5.009,3.723,3.723,0,0,0-4.435-2.426c-.136.033-.269.08-.405.114a.9.9,0,1,1-.529-1.71,5.492,5.492,0,0,1,3.488-.061,5.352,5.352,0,0,1,3.418,3c.163.356.355.393.713.431A2.037,2.037,0,0,0,708.876,309a5.484,5.484,0,0,1,7.919-1.39,5.59,5.59,0,0,1,1.051,8C717.734,315.755,717.618,315.892,717.535,315.993Zm-10.35-4.029a3.778,3.778,0,0,0-3.808,3.758,3.8,3.8,0,1,0,7.594.022A3.78,3.78,0,0,0,707.185,311.964Zm5.608,3.812a3.659,3.659,0,0,0,4.315-2.558,3.786,3.786,0,0,0-2.644-4.757,3.684,3.684,0,0,0-4.51,2.41A5.669,5.669,0,0,1,712.792,315.777Z" transform="translate(-676.355 -286.23)" fill="#636363"/>
      </g>
    </g>
  </g>
</svg>
