<svg xmlns="http://www.w3.org/2000/svg" width="85" height="85" viewBox="0 0 85 85">
  <g id="Grupo_134897" data-name="Grupo 134897" transform="translate(-1670 6397)">
    <circle id="Elipse_4779" data-name="Elipse 4779" cx="42.5" cy="42.5" r="42.5" transform="translate(1670 -6397)" fill="#fff"/>
    <g id="Grupo_134243" data-name="Grupo 134243" transform="translate(1668.71 -6437.269)">
      <path id="Trazado_147507" data-name="Trazado 147507" d="M72.964,69.188a4.537,4.537,0,0,0-3.052-4.364,1.043,1.043,0,0,1-.82-1.017,10.209,10.209,0,0,0-20.2.274c-.045.35-.161.438-.5.437q-6.1-.018-12.208,0c-.373,0-.428-.115-.442-.453a10.226,10.226,0,1,0-16.749,8.307c.247.209.361.307.064.6a6.294,6.294,0,0,0-1.908,4.646c0,1.686-.026,3.372.005,5.058A8.917,8.917,0,0,0,22.4,91.036a.491.491,0,0,1,.336.518c-.022.639-.023,1.279,0,1.918a.556.556,0,0,1-.326.545,10.765,10.765,0,0,0-5.262,9.561c-.011,2.6.01,5.194-.014,7.79,0,.465.082.607.584.606q9.941-.03,19.883-.009a9.133,9.133,0,0,0,3.936-.841c1.47-.686,2.957-1.334,4.423-2.028a23.518,23.518,0,0,0,3.532-1.727c.158-.11.338-.057.507-.058,1.143-.005,2.287.01,3.43-.007a2.613,2.613,0,0,0,2.382-1.4.8.8,0,0,1,.848-.469q6.685.022,13.371.007a2.793,2.793,0,1,0,0-5.58c-1.647-.006-3.294,0-4.942,0-1.185,0-1.425-.257-1.433-1.422,0-.354.079-.456.444-.449,1.3.025,2.6.011,3.9.01a4.67,4.67,0,0,0,4.975-4.98q0-5.872,0-11.744C72.967,77.25,72.975,73.219,72.964,69.188ZM59.055,57.067a8.373,8.373,0,1,1-8.416,8.343A8.388,8.388,0,0,1,59.055,57.067ZM36.028,66.359q6.163.03,12.326,0c.36,0,.492.085.539.462a10.217,10.217,0,0,0,20.125.738c.015-.076.029-.152.045-.228.178-.868.3-.909,1.018-.308A2.68,2.68,0,0,1,71.1,69.151c0,6.376,0,12.753.016,19.129,0,.469-.223.423-.524.423q-9.361,0-18.722,0-9.3,0-18.606.011c-.5,0-.59-.088-.5-.593a13.839,13.839,0,0,0-.2-3.408c-.1-1.313-.255-2.621-.405-3.93-.038-.333,0-.5.4-.464a12.38,12.38,0,0,0,1.394,0,2.788,2.788,0,0,0-.012-5.575c-.562-.014-1.124-.015-1.686,0-.232.007-.352-.056-.4-.292-.037-.188-.125-.365-.181-.55-.1-.326-.5-.6-.388-.908.1-.262.492-.408.745-.618a9.984,9.984,0,0,0,3.418-5.525C35.528,66.519,35.619,66.357,36.028,66.359ZM27.843,91.482c.378,0,.483.095.48.475s-.088.485-.475.478a10.292,10.292,0,0,0-3.261.555c0-2.363-.007-4.665.008-6.968a1.007,1.007,0,0,0-.354-.856,7.426,7.426,0,0,1-.9-.907c-1.108-1.361-.657-2.844.669-3.874a.7.7,0,0,1,.386-.056c1.8,0,3.6.007,5.4-.01.362,0,.476.083.511.465.193,2.138.422,4.273.646,6.409a2.066,2.066,0,0,1-2.186,2.438c-.658,0-1.317.014-1.974-.006-.283-.009-.345.084-.355.358C26.385,91.475,26.376,91.489,27.843,91.482Zm-.814-13.018c.257-.514.47-.982.722-1.43a.845.845,0,0,1,.775-.428c1.779,0,3.557-.009,5.336,0a.924.924,0,1,1,.012,1.847C31.617,78.472,29.359,78.464,27.029,78.464ZM17.143,64.958a8.538,8.538,0,0,1,7.744-8.805,8.35,8.35,0,0,1,8.9,7.17,8.144,8.144,0,0,1-3.525,8.067.715.715,0,0,1-.923.09,2.768,2.768,0,0,0-1.377-.414,41.4,41.4,0,0,0-5.28.045,2.414,2.414,0,0,0-.9.207,1.194,1.194,0,0,1-1.492-.282A8.21,8.21,0,0,1,17.143,64.958ZM24,72.884c1.141,0,2.283-.011,3.424,0a2.68,2.68,0,0,1,2.537,1.857c-.491,0-.935-.005-1.379,0a2.743,2.743,0,0,0-2.537,1.536c-.327.612-.64,1.233-.931,1.862a.493.493,0,0,1-.528.329q-2.611-.018-5.223,0c-.273,0-.347-.069-.361-.35A4.721,4.721,0,0,1,24,72.884ZM22.726,89.12a7.294,7.294,0,0,1-3.365-4.063A14.555,14.555,0,0,1,19,80.566c-.007-.286.178-.239.346-.239.7,0,1.393,0,2.187,0a4.366,4.366,0,0,0-.455,3.639,4.615,4.615,0,0,0,1.328,2.007.9.9,0,0,1,.326.751C22.709,87.49,22.726,88.258,22.726,89.12ZM43.466,108.2c-1.52.6-2.909,1.536-4.558,1.818a5.745,5.745,0,0,1-6.408-3.828c-.476-1.408-.871-2.844-1.292-4.27-.093-.314-.183-.514-.58-.33-.415.192-1.076.122-1.248.478-.145.3.179.83.3,1.255.329,1.111.647,2.226,1,3.33A7.67,7.67,0,0,0,33,110.1H32.36c-4.263,0-8.526-.005-12.788.009-.423,0-.589-.063-.581-.548.032-2.054.008-4.108.015-6.162a9.04,9.04,0,0,1,18.023-1.089c.123,1,.26,2,.437,2.986a.648.648,0,0,1-.477.864c-.706.267-.693.3-.381.988.456,1,.456,1,1.451.551,1.371-.624,2.746-1.238,4.11-1.877.307-.144.452-.147.586.21.224.6.515,1.165.77,1.749C43.585,107.922,43.74,108.086,43.466,108.2Zm-.266-5.124a.37.37,0,0,1-.27.382c-1.092.492-2.184.982-3.27,1.488-.289.134-.378.1-.428-.241a38.71,38.71,0,0,0-.685-4.238,12,12,0,0,0-1-2.458c1.845,0,3.6,0,5.361,0,.237,0,.288.088.287.3Q43.188,100.688,43.2,103.072Zm5.013,2.915c-.865.464-1.777.842-2.666,1.263-.187.088-.23-.019-.289-.155-.289-.653-.585-1.3-.875-1.954-.053-.12-.131-.256.057-.335a28.6,28.6,0,0,1,2.814-1.207.736.736,0,0,1,.174-.011,1.318,1.318,0,0,1,1.272.919A1.213,1.213,0,0,1,48.213,105.987Zm4.286-7.63c-.006.5.142,1.094-.078,1.472-.118.2-.868.035-1.333.037a10.873,10.873,0,0,0-2.6.166,6.581,6.581,0,0,0-3.433,2.118c0-1.369.006-2.617,0-3.865,0-.241.093-.285.307-.284q3.427.009,6.853,0c.23,0,.32.074.289.3A.459.459,0,0,0,52.5,98.357Zm.83,7.088c-.792.013-1.584,0-2.376.006-.216,0-.345,0-.331-.3a3.126,3.126,0,0,0-1.761-3.075c-.047-.026-.1-.046-.146-.069a6.825,6.825,0,0,1,3.947-.032,2.585,2.585,0,0,1,1.687,2.362A.935.935,0,0,1,53.328,105.445ZM64.6,101.72c1.8.019,3.6,0,5.4.007.638,0,1.026.3,1.1.807.084.6-.372,1.049-1.086,1.051-2.247.005-4.493,0-6.74,0-2.228,0-4.455-.008-6.682.009-.345,0-.5-.09-.591-.432a4.044,4.044,0,0,0-1.325-2.069.838.838,0,0,1-.32-.742c.016-.658.023-1.318,0-1.975-.013-.319.1-.379.393-.378q3.341.016,6.682,0c.31,0,.4.088.381.389a3.251,3.251,0,0,0,.247,1.7A2.725,2.725,0,0,0,64.6,101.72Zm6.523-10.584c-.05.694-.008,1.394-.014,2.091a2.79,2.79,0,0,1-2.929,2.914q-9.3.007-18.6,0-6.423,0-12.846.006a1.051,1.051,0,0,1-.861-.343,10.63,10.63,0,0,0-5.234-3.061c-.187-.047-.546.007-.457-.361.1-.418-.267-.888.323-1.271a4.3,4.3,0,0,1,2.524-.562c6.084.017,12.168.009,18.252.009q9.62,0,19.24-.011C70.985,90.549,71.156,90.634,71.119,91.136Z" transform="translate(0)" fill="#636363"/>
      <path id="Trazado_147508" data-name="Trazado 147508" d="M80.99,115.647c-1.415.018-2.83.007-4.244.007s-2.83.011-4.244-.007c-.329,0-.417.087-.415.415q.022,3.314,0,6.628c0,.329.088.417.416.415q4.244-.019,8.488,0c.329,0,.417-.087.415-.415q-.021-3.314,0-6.628C81.407,115.733,81.318,115.642,80.99,115.647Zm-1.446,5.21c.006.3-.077.395-.385.387-.813-.021-1.627-.007-2.441-.007-.794,0-1.589-.014-2.383.007-.3.008-.393-.077-.388-.384q.029-1.482,0-2.964c-.006-.3.078-.39.385-.387q2.412.023,4.825,0c.3,0,.393.077.387.384Q79.515,119.374,79.544,120.857Z" transform="translate(-33.551 -36.258)" fill="#636363"/>
      <path id="Trazado_147509" data-name="Trazado 147509" d="M99.893,112.973c3.062-.02,6.124-.011,9.186-.011h8.547c1.279,0,1.253,0,1.291-1.281.014-.491-.122-.593-.6-.591-5.872.018-11.745.012-17.617.012-1.342,0-1.321,0-1.349,1.34C99.344,112.883,99.465,112.976,99.893,112.973Z" transform="translate(-49.658 -33.565)" fill="#636363"/>
      <path id="Trazado_147510" data-name="Trazado 147510" d="M99.952,122.07c5.872-.018,11.745-.011,17.617-.011,1.34,0,1.317,0,1.346-1.343.01-.449-.122-.531-.544-.528-3.062.019-6.124.01-9.186.01h-8.547c-1.277,0-1.249,0-1.288,1.285C99.334,121.979,99.48,122.071,99.952,122.07Z" transform="translate(-49.656 -38.94)" fill="#636363"/>
      <path id="Trazado_147511" data-name="Trazado 147511" d="M123.809,129.283c-2.481.018-4.961.009-7.442.009H109.8c-1.344,0-1.323,0-1.35,1.338-.009.439.106.536.538.534,4.632-.018,9.264-.011,13.9-.011,1.413,0,1.4,0,1.406-1.4C124.289,129.375,124.186,129.28,123.809,129.283Z" transform="translate(-55.031 -44.313)" fill="#636363"/>
      <path id="Trazado_147512" data-name="Trazado 147512" d="M80.9,97.454c-2.461.02-4.922.01-7.383.01-1.448,0-1.433,0-1.434,1.425,0,.363.092.45.449.444,1.4-.022,2.79-.009,4.186-.009h3.314c1.376,0,1.357,0,1.377-1.367C81.411,97.546,81.3,97.45,80.9,97.454Z" transform="translate(-33.547 -25.511)" fill="#636363"/>
      <path id="Trazado_147513" data-name="Trazado 147513" d="M80.95,106.551c-1.395.021-2.79.009-4.186.009H73.451c-1.373,0-1.354,0-1.374,1.371-.006.417.113.5.512.5,2.461-.02,4.922-.01,7.383-.01,1.446,0,1.43,0,1.432-1.43C81.4,106.621,81.3,106.545,80.95,106.551Z" transform="translate(-33.545 -30.884)" fill="#636363"/>
      <path id="Trazado_147514" data-name="Trazado 147514" d="M72.5,90.241c1.4-.018,2.79-.008,4.186-.008h3.314c1.413,0,1.4,0,1.407-1.4,0-.38-.1-.477-.477-.475-2.48.018-4.961.009-7.441.009-1.434,0-1.422,0-1.405,1.454C72.082,90.154,72.167,90.245,72.5,90.241Z" transform="translate(-33.544 -20.14)" fill="#636363"/>
      <path id="Trazado_147515" data-name="Trazado 147515" d="M100.288,129.3c-.9,0-.9,0-.9.9,0,.961,0,.961.958.961.9,0,.9,0,.9-.9C101.246,129.3,101.246,129.3,100.288,129.3Z" transform="translate(-49.677 -44.326)" fill="#636363"/>
      <path id="Trazado_147516" data-name="Trazado 147516" d="M125.262,147.492c-.871,0-.871,0-.871.874,0,.987,0,.987.99.987.871,0,.871,0,.871-.874C126.252,147.492,126.252,147.492,125.262,147.492Z" transform="translate(-64.449 -55.07)" fill="#636363"/>
      <path id="Trazado_147517" data-name="Trazado 147517" d="M134.435,147.492c-.95,0-.95,0-.95.969,0,.892,0,.892.911.892.95,0,.95,0,.95-.969C135.346,147.492,135.346,147.492,134.435,147.492Z" transform="translate(-69.821 -55.07)" fill="#636363"/>
      <path id="Trazado_147518" data-name="Trazado 147518" d="M143.565,147.492c-.987,0-.987,0-.987.99,0,.871,0,.871.874.871.987,0,.987,0,.987-.99C144.439,147.492,144.439,147.492,143.565,147.492Z" transform="translate(-75.193 -55.07)" fill="#636363"/>
      <path id="Trazado_147519" data-name="Trazado 147519" d="M117.489,89.721c-.041.365.087.449.444.445,1.86-.019,3.72-.009,5.58-.009,1.475,0,1.464,0,1.433-1.484-.007-.305-.087-.388-.389-.384-1.1.018-2.209.007-3.313.007-.775,0-1.55-.009-2.325,0-.46.008-1.061-.2-1.34.082S117.54,89.264,117.489,89.721Z" transform="translate(-60.344 -20.064)" fill="#636363"/>
      <path id="Trazado_147520" data-name="Trazado 147520" d="M117.928,81.146c1.1-.017,2.209-.007,3.313-.007.775,0,1.55.009,2.325,0,.46-.008,1.061.2,1.34-.082s.04-.883.09-1.34c.041-.365-.088-.448-.444-.444-1.86.019-3.72.009-5.58.009-1.474,0-1.464,0-1.433,1.484C117.545,81.069,117.626,81.151,117.928,81.146Z" transform="translate(-60.397 -14.769)" fill="#636363"/>
      <path id="Trazado_147521" data-name="Trazado 147521" d="M118.023,72.057c1.86-.02,3.72-.009,5.581-.009,1.433,0,1.422,0,1.405-1.453,0-.328-.088-.421-.417-.415-1.085.02-2.17.008-3.255.008h-2.383c-1.413,0-1.4,0-1.407,1.395C117.544,71.962,117.644,72.061,118.023,72.057Z" transform="translate(-60.406 -9.399)" fill="#636363"/>
      <path id="Trazado_147522" data-name="Trazado 147522" d="M109.439,90.246c.9,0,.9,0,.9-.9,0-.959,0-.959-.961-.959-.9,0-.9,0-.9.9C108.478,90.246,108.478,90.246,109.439,90.246Z" transform="translate(-55.049 -20.154)" fill="#636363"/>
      <path id="Trazado_147523" data-name="Trazado 147523" d="M109.38,81.153c.959,0,.959,0,.959-.961,0-.9,0-.9-.9-.9-.958,0-.958,0-.958.961C108.478,81.153,108.478,81.153,109.38,81.153Z" transform="translate(-55.049 -14.782)" fill="#636363"/>
      <path id="Trazado_147524" data-name="Trazado 147524" d="M109.421,72.06c.918,0,.918,0,.918-.884,0-.977,0-.977-.943-.977-.918,0-.918,0-.918.942C108.478,72.06,108.478,72.06,109.421,72.06Z" transform="translate(-55.049 -9.41)" fill="#636363"/>
      <path id="Trazado_147525" data-name="Trazado 147525" d="M25.852,69.289c.481-.094.707.145.908.563.733,1.529,1.508,3.037,2.314,4.647l2.62-7.84c.389,1.168.733,2.163,1.046,3.166a.481.481,0,0,0,.565.406c.851-.029,1.7-.009,2.556-.009,1.471,0,1.459,0,1.424-1.493-.007-.321-.112-.381-.4-.374-.735.017-1.473-.014-2.207.014a.518.518,0,0,1-.608-.437C33.451,66,32.8,64.084,32.158,62.162c-.136-.409-.278-.816-.469-1.374L28.73,69.645c-.354-.7-.669-1.3-.956-1.907a.451.451,0,0,0-.477-.314c-.91.016-1.82.01-2.731,0-.2,0-.3.015-.325.268-.162,1.6-.17,1.595,1.379,1.595A1.219,1.219,0,0,0,25.852,69.289Z" transform="translate(-5.246 -3.851)" fill="#636363"/>
    </g>
  </g>
</svg>
