<svg xmlns="http://www.w3.org/2000/svg" width="85" height="85" viewBox="0 0 85 85">
  <g id="Grupo_134895" data-name="Grupo 134895" transform="translate(-810 -5303)">
    <circle id="Elipse_4776" data-name="Elipse 4776" cx="42.5" cy="42.5" r="42.5" transform="translate(810 5303)" fill="#fff"/>
    <g id="Sh4WNf" transform="translate(-70.213 2867.713)">
      <g id="Grupo_134241" data-name="Grupo 134241" transform="translate(895.401 2451.385)">
        <path id="Trazado_147501" data-name="Trazado 147501" d="M895.4,2499.388v-41.506a3.376,3.376,0,0,0,.112-.341,5.46,5.46,0,0,1,10.8,1.189c.012.564,0,1.128,0,1.706H928.1a.517.517,0,0,0,.05-.128c0-1.351.005-2.7.012-4.052a5.229,5.229,0,0,1,.686-2.7,4.6,4.6,0,0,1,4.873-2.067,4.473,4.473,0,0,1,3.489,3.957c.075,1.454.048,2.913.066,4.37,0,.2,0,.409,0,.653h.666c2.15,0,4.3-.01,6.452,0a5.507,5.507,0,0,1,4.486,2.163,7.144,7.144,0,0,1,1.138,2.608v34.144a13.745,13.745,0,0,1-1.08,2.51,5.307,5.307,0,0,1-4.67,2.292q-21.562-.011-43.123,0c-.178,0-.356,0-.533-.01a5.462,5.462,0,0,1-3.9-1.928A6.248,6.248,0,0,1,895.4,2499.388Zm23.677-17.492v-.644c0-1.938.019-3.877-.011-5.814a1.5,1.5,0,0,1,.712-1.376c2.687-1.9,5.353-3.819,8.036-5.72a.746.746,0,0,0,.359-.7c-.016-1.618-.006-3.236-.009-4.854,0-.151-.024-.3-.04-.5h-21.1c-.7,0-.7,0-.7.732q0,15.737,0,31.474a5.384,5.384,0,0,1-.027.692.882.882,0,0,1-1.727.125c-.053-.186-.035-.395-.1-.574a7.729,7.729,0,0,0-.736-1.847,3.5,3.5,0,0,0-3.981-1.271,3.638,3.638,0,0,0-2.522,3.468c-.028,1.084-.007,2.169-.006,3.254a3.705,3.705,0,0,0,4.016,4.022h42.939a3.71,3.71,0,0,0,4.034-4.057q0-15.977,0-31.954a3.707,3.707,0,0,0-4.027-4.062q-3.147-.007-6.294,0c-.186,0-.373.02-.6.032v.586c0,1.547.012,3.094-.008,4.641a.885.885,0,0,0,.424.832c2.685,1.9,5.354,3.818,8.036,5.719a1.355,1.355,0,0,1,.662,1.189q-.014,7.016,0,14.03a1.369,1.369,0,0,1-.629,1.209q-6.146,4.375-12.281,8.766a1.053,1.053,0,0,1-1.5.009q-6.141-4.383-12.281-8.766a1.39,1.39,0,0,1-.632-1.261c.022-1.493-.008-2.987.017-4.48a1.046,1.046,0,0,0-.449-.935c-3.272-2.6-6.525-5.218-9.8-7.812a1.683,1.683,0,0,1-.7-1.452c.021-2.436.007-4.872.011-7.308a2.753,2.753,0,0,1,.062-.687.884.884,0,0,1,1.695-.01,2.862,2.862,0,0,1,.065.74c0,2.258.009,4.516,0,6.774a.89.89,0,0,0,.377.811c.738.555,1.448,1.148,2.17,1.726Zm-14.581,9.063v-.611q0-15.651,0-31.3c0-.284-.008-.569-.036-.852a3.639,3.639,0,0,0-7.24.707q-.006,15.811,0,31.622c0,.131.02.262.032.422A5.651,5.651,0,0,1,904.5,2490.958Zm16.479-14.064c-.038.059-.07.085-.07.112,0,2.027-.015,4.054,0,6.08a.8.8,0,0,0,.3.5c.638.539,1.305,1.043,1.948,1.576a.949.949,0,0,1,.267,1.355c-.339.444-.869.468-1.412.055-.348-.265-.686-.54-1.115-.879,0,1.061.019,2.013-.01,2.965a.827.827,0,0,0,.412.78q5.518,3.923,11.018,7.873a.587.587,0,0,0,.821,0q5.517-3.971,11.06-7.906a.8.8,0,0,0,.382-.742c-.012-3.769-.008-7.539-.009-11.308,0-.149-.02-.3-.032-.486a2.255,2.255,0,0,0-.232.122c-2.243,1.6-4.489,3.193-6.718,4.81a.947.947,0,0,0-.293.613,13.83,13.83,0,0,1-.221,2.421c-.792,2.633-1.69,5.235-2.551,7.848a1.833,1.833,0,0,1-3.593-.012c-.719-2.192-1.409-4.395-2.168-6.573a8.318,8.318,0,0,1-.591-3.641.73.73,0,0,0-.386-.738c-2.148-1.518-4.285-3.052-6.426-4.579C921.235,2477.061,921.1,2476.979,920.976,2476.895Zm10.833,6.32v-.68q0-5.333,0-10.667c0-.91.3-1.364.911-1.368s.91.441.911,1.357q0,5.361,0,10.72v.639h1.786v-19.045h-1.787c0,.387,0,.724,0,1.061-.006.871.008,1.743-.027,2.612a.816.816,0,0,1-.831.812.847.847,0,0,1-.909-.722,3.914,3.914,0,0,1-.053-.741c-.005-1.007,0-2.014,0-3.025h-1.793v19.049Zm-10.259-8.167,6.582,4.7v-9.4Zm15.761,4.712,6.595-4.712-6.595-4.71Zm-1.89-21.143c0-1.016.049-2.008-.012-2.994a2.656,2.656,0,0,0-2.544-2.421,2.624,2.624,0,0,0-2.771,2.153,27.984,27.984,0,0,0-.026,3.262ZM935.1,2485.1H930.36l2.312,7.036.108.008Zm-5.082-22.861h5.438c0-.474-.017-.9.005-1.323.018-.346-.1-.46-.454-.457-1.56.017-3.12.007-4.679.01a1.86,1.86,0,0,0-.31.053Z" transform="translate(-895.401 -2451.385)" fill="#636363"/>
        <path id="Trazado_147502" data-name="Trazado 147502" d="M938.358,2496.868c-.869,0-1.74.019-2.609-.006-.762-.021-1.211-.611-.966-1.235a.907.907,0,0,1,.929-.581c1.757,0,3.514-.008,5.271,0a.909.909,0,0,1,1,.879.927.927,0,0,1-.967.928c-.887.028-1.775.007-2.662.007Z" transform="translate(-918.322 -2476.84)" fill="#636363"/>
        <path id="Trazado_147503" data-name="Trazado 147503" d="M951.475,2486.314c.922,0,1.846-.023,2.767.009a.854.854,0,0,1,.856.848.9.9,0,0,1-.791.914,1.408,1.408,0,0,1-.263.033c-1.721,0-3.442.012-5.163,0-.653-.006-1.032-.368-1.036-.9,0-.556.384-.9,1.076-.911.851-.014,1.7,0,2.555,0Z" transform="translate(-925.976 -2471.737)" fill="#636363"/>
        <path id="Trazado_147504" data-name="Trazado 147504" d="M936.561,2488.167a10.719,10.719,0,0,1-1.076-.075.822.822,0,0,1-.725-.9.781.781,0,0,1,.745-.826,17.537,17.537,0,0,1,2.125,0,.778.778,0,0,1,.726.844.8.8,0,0,1-.7.871C937.293,2488.144,936.917,2488.142,936.561,2488.167Z" transform="translate(-918.347 -2471.761)" fill="#636363"/>
      </g>
    </g>
  </g>
</svg>
