<svg xmlns="http://www.w3.org/2000/svg" width="63" height="63" viewBox="0 0 63 63">
  <g id="Grupo_134899" data-name="Grupo 134899" transform="translate(-1909 9053)">
    <path id="Trazado_146408" data-name="Trazado 146408" d="M31.5,0A31.5,31.5,0,1,1,0,31.5,31.5,31.5,0,0,1,31.5,0Z" transform="translate(1909 -9053)" fill="#78b62e"/>
    <g id="Grupo_134134" data-name="Grupo 134134" transform="translate(479.61 -11727.416)">
      <path id="Trazado_147370" data-name="Trazado 147370" d="M1473.651,2704.733c1.8.134,2.578.741,2.579,1.958s-.8,1.847-2.579,1.959v.419c0,1.263.037,2.528-.016,3.79a1.294,1.294,0,0,0,.655,1.255c.655-.456.8-.444,1.363.12,1.16,1.159,2.327,2.312,3.476,3.481a2.946,2.946,0,0,1,.771,3.29,2.908,2.908,0,0,1-4.741,1c-.495-.449-.93-.964-1.393-1.448l-.116.052c0,.5,0,1,0,1.5a3.216,3.216,0,0,1-2.769,3.257,3.913,3.913,0,0,1-.642.037q-12.721,0-25.442,0a3.232,3.232,0,0,1-3.405-3.422q0-1.754,0-3.508c0-.583.224-.807.8-.811s1.152,0,1.78,0v-29.97c0-.847.157-1,1.013-1h27.66c.849,0,1.007.159,1.007,1.01v17.034Zm-16.3-5.138h-.5q-3.468,0-6.935,0c-.5,0-.8-.26-.783-.664s.3-.624.782-.624q4.516,0,9.032.008a1.1,1.1,0,0,0,.375-.1c.786-.3,1.56-.645,2.36-.9a.418.418,0,0,0,.356-.494c-.01-1.8-.006-3.6,0-5.4,0-.633.213-.845.847-.846q2.358,0,4.717,0c.686,0,.887.2.887.887,0,2.111.005,4.221-.006,6.332a.526.526,0,0,0,.307.533,9.6,9.6,0,0,1,3.367,3.235,1.835,1.835,0,0,0,.18.206v-13.745h-27.042v29.631h10.291c0-.612,0-1.2,0-1.789.005-.53.236-.764.762-.767.793-.005,1.586,0,2.379,0a1.141,1.141,0,0,0,.186-.019l-2.675-2.392c0,.009-.007.084-.008.159-.012.8-.175.963-.975.963q-2.964,0-5.927,0c-.627,0-.84-.217-.84-.853q0-2.339,0-4.678c0-.737.187-.92.933-.921h2.367a1.681,1.681,0,0,0-.01-.169,1.928,1.928,0,0,1,1.98-2.411c.238,0,.477,0,.663,0l.923-2.582h-5.051c-.848,0-1.164-.179-1.156-.655s.3-.635,1.176-.635h.847c1.586,0,3.172,0,4.758-.006a.646.646,0,0,0,.422-.141C1456.677,2700.394,1456.983,2700.02,1457.355,2699.595Zm-14.646,19.373a.835.835,0,0,0-.025.121c0,.981-.005,1.962,0,2.944a1.943,1.943,0,0,0,2.1,2.082q11.332,0,22.662,0c.111,0,.222-.016.285-.021a12.62,12.62,0,0,1-.465-1.382,5.746,5.746,0,0,1-.06-1.163c-.007-.855,0-1.711,0-2.58Zm15.457-12.269a5.806,5.806,0,1,0,5.858-5.814A5.816,5.816,0,0,0,1458.167,2706.7Zm7.741,10.963c.55,0,1.153,0,1.755,0s.824.22.825.827c0,1.235-.009,2.471,0,3.706a1.932,1.932,0,0,0,3.864.005,14.113,14.113,0,0,1,.014-1.49,2.467,2.467,0,0,0-1.008-2.506c-.416-.312-.387-.643-.061-1.044a1.382,1.382,0,0,0,.081-.115l-2.2-2.2a10.1,10.1,0,0,1-3.059,1.294.4.4,0,0,0-.2.3C1465.894,2716.826,1465.909,2717.214,1465.909,2717.662Zm6.775.035c1.115,1.119,2.218,2.254,3.353,3.356a1.622,1.622,0,1,0,2.311-2.277c-1.1-1.138-2.234-2.241-3.356-3.358-.015-.015-.05-.01-.027-.006Zm-22.876-9.068v3.84h5.118a8.136,8.136,0,0,0-.388-3.592c-.045-.1-.181-.237-.276-.238C1452.786,2708.624,1451.311,2708.629,1449.807,2708.629Zm17.364-11.081v-5.664h-3.81v2.623a1.975,1.975,0,0,1,2.548,2.144v.555c.24.058.435.1.628.153S1466.945,2697.48,1467.171,2697.548Zm-5,16.024a7.179,7.179,0,0,1-5.078-5.072l-1.236.172a8.16,8.16,0,0,0,6.139,6.118Zm-.179-15.008a8.241,8.241,0,0,0-6.134,6.2,5.16,5.16,0,0,1,.606,0,5.94,5.94,0,0,1,.623.144,7.2,7.2,0,0,1,5.081-5.106Zm10.122,6.2a8.251,8.251,0,0,0-6.161-6.184l-.176,1.231a7.2,7.2,0,0,1,5.087,5.106,2.817,2.817,0,0,1,1.25-.153Zm-1.263,3.731a7.182,7.182,0,0,1-5.076,5.073c.063.436.122.84.18,1.244a8.259,8.259,0,0,0,6.135-6.145Zm-13.954,9.141h5.2l-.083-1.249H1456.9Zm7.721-19.967c0-.417.008-.834,0-1.25a.645.645,0,1,0-1.285.01q-.012,1.23,0,2.459a.644.644,0,0,0,.627.7.651.651,0,0,0,.658-.708C1464.625,2698.48,1464.618,2698.077,1464.618,2697.674Zm-9.7,9.664c.417,0,.833.007,1.25,0a.651.651,0,0,0,.708-.658.644.644,0,0,0-.7-.627q-1.23-.013-2.459,0a.645.645,0,1,0-.01,1.285C1454.108,2707.345,1454.511,2707.337,1454.914,2707.338Zm18.089,0c.417,0,.834.009,1.25,0a.644.644,0,0,0,.685-.64.637.637,0,0,0-.681-.643q-1.249-.016-2.5,0a.643.643,0,1,0,0,1.284C1472.17,2707.346,1472.587,2707.337,1473,2707.337Zm-8.385,8.4c0-.417.009-.833,0-1.25a.644.644,0,0,0-.636-.688.635.635,0,0,0-.646.677q-.016,1.251,0,2.5a.643.643,0,1,0,1.283.012C1464.627,2716.566,1464.617,2716.149,1464.617,2715.732Zm6.688-2.625-.916.88,2.009,2,.917-.884Z" transform="translate(0)" fill="#133d60"/>
      <path id="Trazado_147371" data-name="Trazado 147371" d="M1469.4,2705.615c1.452,0,2.9,0,4.355,0,.443,0,.712.208.76.563a.654.654,0,0,1-.719.724c-.9.008-1.8,0-2.7,0-2.016,0-4.032,0-6.048-.007a.871.871,0,0,1-.591-.162.936.936,0,0,1-.2-.672c.049-.327.34-.452.671-.451q1.875,0,3.75,0Z" transform="translate(-15.062 -12.473)" fill="#133d60"/>
      <path id="Trazado_147372" data-name="Trazado 147372" d="M1481.859,2713.184c.591,0,1.183,0,1.774,0,.478,0,.767.244.774.634s-.283.652-.753.654q-1.834.007-3.669,0a.653.653,0,0,1-.733-.634c-.006-.393.282-.649.752-.654C1480.622,2713.18,1481.24,2713.184,1481.859,2713.184Z" transform="translate(-24.953 -17.461)" fill="#133d60"/>
      <path id="Trazado_147373" data-name="Trazado 147373" d="M1469.81,2699.329c-.4,0-.806.008-1.209,0a.645.645,0,1,1,0-1.285q1.229-.013,2.459,0a.645.645,0,1,1,0,1.285C1470.643,2699.336,1470.226,2699.329,1469.81,2699.329Z" transform="translate(-17.469 -7.478)" fill="#133d60"/>
      <path id="Trazado_147374" data-name="Trazado 147374" d="M1485.006,2699.33c-.417,0-.833.007-1.25,0a.648.648,0,1,1,.008-1.286q1.209-.01,2.419,0a.648.648,0,0,1,.719.646.655.655,0,0,1-.727.64C1485.785,2699.335,1485.4,2699.33,1485.006,2699.33Z" transform="translate(-27.448 -7.479)" fill="#133d60"/>
      <path id="Trazado_147375" data-name="Trazado 147375" d="M1466.029,2714.47c-.4,0-.807.007-1.21,0a.645.645,0,1,1-.009-1.285q1.229-.014,2.459,0a.645.645,0,1,1,.009,1.285C1466.862,2714.478,1466.445,2714.47,1466.029,2714.47Z" transform="translate(-14.976 -17.457)" fill="#133d60"/>
      <path id="Trazado_147376" data-name="Trazado 147376" d="M1504.622,2739.188a.63.63,0,0,1-.562.588,1.221,1.221,0,0,1-.362.008.59.59,0,0,0-.668.349,2.37,2.37,0,0,1-.743.707.429.429,0,0,0-.247.44,2.489,2.489,0,0,1,0,.483.639.639,0,0,1-.639.6.592.592,0,0,1-.627-.6,1.027,1.027,0,0,0-.63-1.172.733.733,0,0,1-.342-.384c-.15-.417-.448-.445-.822-.428-.507.023-.8-.236-.8-.638s.295-.659.8-.638c.372.015.638-.022.832-.422a1.858,1.858,0,0,1,.7-.639.419.419,0,0,0,.248-.439,2.093,2.093,0,0,1,.008-.523.6.6,0,0,1,.633-.557c.356,0,.651.219.619.554a1.113,1.113,0,0,0,.67,1.236.64.64,0,0,1,.29.326c.156.442.48.483.882.465A.656.656,0,0,1,1504.622,2739.188Zm-2.581-.055a.642.642,0,1,0-.626.65A.648.648,0,0,0,1502.041,2739.134Z" transform="translate(-37.426 -32.449)" fill="#133d60"/>
    </g>
  </g>
</svg>
