<svg xmlns="http://www.w3.org/2000/svg" width="63" height="63" viewBox="0 0 63 63">
  <g id="Grupo_134898" data-name="Grupo 134898" transform="translate(-1632 9053.281)">
    <path id="Trazado_146406" data-name="Trazado 146406" d="M31.5,0A31.5,31.5,0,1,1,0,31.5,31.5,31.5,0,0,1,31.5,0Z" transform="translate(1632 -9053.281)" fill="#78b62e"/>
    <g id="Grupo_133762" data-name="Grupo 133762" transform="translate(329.241 -10351.806)">
      <path id="Trazado_126843" data-name="Trazado 126843" d="M1325.791,1311.078c.053.121.172.068.258.093a3.246,3.246,0,0,1,2.305,2.2c.091.273.212.322.464.322q7.214-.009,14.428,0a3.241,3.241,0,0,1,3.465,2.64.436.436,0,0,0,.282.3c.9.45,1.807.9,2.708,1.351a3.4,3.4,0,0,1,1.9,3.924q-2.384,11.894-4.749,23.791a6.3,6.3,0,0,1-.652,2.052.526.526,0,0,0-.043.17c-.039-.129-.046-.136-.154-.021a3.307,3.307,0,0,1-1.592.958,3.871,3.871,0,0,1-.987.12q-11.635,0-23.269,0a3.228,3.228,0,0,1-3.395-3.389q0-14.243,0-28.485a3.258,3.258,0,0,1,2.457-3.283c.126-.037.223-.075.261-.219a3.262,3.262,0,0,1,2.468-2.441c.028-.008.047-.048.071-.073Zm21.03,8.82c0,.086-.011.172-.011.258q0,9.188,0,18.375c0,.092-.038.2.049.3.6-3.009,1.2-6,1.795-8.988q.8-4.054,1.6-8.109a1.9,1.9,0,0,0-.655-2.274,22.685,22.685,0,0,0-2.779-1.448Zm-1.325,11.44q0-7.123,0-14.245A1.92,1.92,0,0,0,1343.4,1315q-7.271,0-14.542-.008c-.275,0-.346.063-.344.342.013,2.01.007,4.021.007,6.031s.016,4.021,0,6.031a3.273,3.273,0,1,1-6.539-.185c.025-3.342.007-6.685.008-10.027a2.373,2.373,0,0,1,.016-.332.59.59,0,0,1,.672-.536.583.583,0,0,1,.605.57c.012.135.007.271.007.407q0,5,0,9.99a1.944,1.944,0,0,0,.852,1.747,1.917,1.917,0,0,0,2.036.111,1.81,1.81,0,0,0,1.028-1.711q.01-4.995,0-9.99c0-.728,0-1.456,0-2.183,0-.174-.019-.264-.233-.263-2.356.009-4.711,0-7.067.015a1.863,1.863,0,0,0-1.752,1.352,2.852,2.852,0,0,0-.084.879q0,14.1,0,28.195c0,.123,0,.247.006.37a1.88,1.88,0,0,0,1.883,1.845c.579.016,1.159-.005,1.739.01.226.006.3-.064.291-.291-.015-.53-.011-1.061,0-1.591.008-.48.237-.727.648-.728s.643.253.648.726c.006.53.012,1.061,0,1.591-.006.225.059.294.288.293q2.978-.012,5.957,0c.255,0,.307-.087.3-.318q-.021-.794,0-1.591c.012-.467.265-.716.676-.7s.615.26.623.714c.005.308,0,.617,0,.925s-.1.711.056.892c.182.213.6.038.915.076.276.034.354-.059.351-.342-.016-1.394-.011-2.787,0-4.181a.628.628,0,0,1,.822-.674c.383.092.478.385.477.735,0,1.159,0,2.319,0,3.478,0,.316-.14.728.064.922s.612.032.928.062c.235.022.323-.047.312-.3-.021-.492-.007-.986-.006-1.479,0-.559.223-.833.665-.829s.649.279.651.845c0,.481.016.963-.006,1.443-.012.265.075.324.33.323,2.257-.01,4.514,0,6.771-.009a2.416,2.416,0,0,0,.586-.059,1.9,1.9,0,0,0,1.452-2.046Q1345.5,1338.442,1345.5,1331.338Zm-24.637-17.684c.009.006.019.017.028.017q2.992.008,5.984.017c.211,0,.183-.088.114-.224a1.714,1.714,0,0,0-1.462-1.043c-1.057-.048-2.118-.041-3.175,0A1.689,1.689,0,0,0,1320.859,1313.654Z" fill="#133d60"/>
      <path id="Trazado_126845" data-name="Trazado 126845" d="M1340.541,1385.639q3.216,0,6.431,0c.556,0,.852.366.707.849a.55.55,0,0,1-.5.429,4.055,4.055,0,0,1-.443.019h-12.418a3.629,3.629,0,0,1-.406-.013.594.594,0,0,1-.567-.68.576.576,0,0,1,.612-.6c.961-.011,1.922-.005,2.883-.005Z" transform="translate(-11.357 -51.038)" fill="#133d60"/>
      <path id="Trazado_126846" data-name="Trazado 126846" d="M1371.047,1393.9c1.27,0,2.539,0,3.809,0,.481,0,.724.222.73.641s-.236.664-.7.669c-.789.009-1.578,0-2.367,0q-2.644,0-5.288,0c-.445,0-.693-.169-.759-.5a.642.642,0,0,1,.7-.814C1368.459,1393.892,1369.753,1393.9,1371.047,1393.9Z" transform="translate(-34.015 -56.69)" fill="#133d60"/>
      <path id="Trazado_126847" data-name="Trazado 126847" d="M1371.033,1335.932q1.9,0,3.809,0c.512,0,.76.213.764.642s-.242.665-.748.667q-3.809.008-7.617,0c-.526,0-.779-.242-.764-.688.014-.423.259-.62.784-.621Q1369.147,1335.93,1371.033,1335.932Z" transform="translate(-34.032 -17.012)" fill="#133d60"/>
      <path id="Trazado_126848" data-name="Trazado 126848" d="M1337.886,1393.9q1.9,0,3.809,0c.532,0,.789.222.785.663,0,.424-.26.648-.766.649q-3.809,0-7.618,0c-.5,0-.75-.234-.746-.666s.255-.644.764-.645Q1336,1393.9,1337.886,1393.9Z" transform="translate(-11.357 -56.691)" fill="#133d60"/>
      <path id="Trazado_126849" data-name="Trazado 126849" d="M1371.026,1360.783c1.294,0,2.588,0,3.882,0a.622.622,0,0,1,.687.779.54.54,0,0,1-.439.486,2.3,2.3,0,0,1-.477.039q-3.642,0-7.284,0a2.709,2.709,0,0,1-.332-.013.6.6,0,0,1-.587-.668.589.589,0,0,1,.631-.622c.542-.012,1.085,0,1.627,0Z" transform="translate(-34.032 -34.022)" fill="#133d60"/>
      <path id="Trazado_126850" data-name="Trazado 126850" d="M1371.048,1378.63q-1.9,0-3.808,0c-.515,0-.76-.211-.764-.641s.238-.662.75-.663q3.827-.008,7.653,0c.5,0,.74.247.726.684-.014.413-.255.618-.748.619Q1372.951,1378.633,1371.048,1378.63Z" transform="translate(-34.032 -45.345)" fill="#133d60"/>
      <path id="Trazado_126851" data-name="Trazado 126851" d="M1371.015,1353.793c-1.294,0-2.588,0-3.882,0a.64.64,0,0,1-.655-.892c.13-.35.424-.407.752-.407q1.793,0,3.586,0c1.331,0,2.662,0,3.993,0,.521,0,.76.213.763.643s-.238.652-.712.653C1373.578,1353.8,1372.3,1353.794,1371.015,1353.793Z" transform="translate(-33.999 -28.349)" fill="#133d60"/>
      <path id="Trazado_126852" data-name="Trazado 126852" d="M1368.4,1345.5c-.418,0-.837.008-1.254,0a.653.653,0,1,1-.021-1.306q1.31-.021,2.62,0a.621.621,0,0,1,.645.66.627.627,0,0,1-.661.645C1369.288,1345.505,1368.845,1345.5,1368.4,1345.5Z" transform="translate(-34.033 -22.657)" fill="#133d60"/>
      <path id="Trazado_126853" data-name="Trazado 126853" d="M1384.978,1345.5c-.418,0-.836.006-1.254,0a.657.657,0,1,1,0-1.31q1.254-.014,2.508,0a.615.615,0,0,1,.7.674c-.008.4-.248.628-.7.636C1385.814,1345.5,1385.4,1345.5,1384.978,1345.5Z" transform="translate(-45.356 -22.659)" fill="#133d60"/>
      <path id="Trazado_126854" data-name="Trazado 126854" d="M1368.414,1370.351c-.418,0-.837.008-1.255,0a.655.655,0,1,1-.006-1.309q1.273-.015,2.546,0a.655.655,0,1,1,.006,1.309C1369.275,1370.36,1368.844,1370.351,1368.414,1370.351Z" transform="translate(-34.033 -39.671)" fill="#133d60"/>
      <path id="Trazado_126855" data-name="Trazado 126855" d="M1384.95,1369.041c.418,0,.836,0,1.254,0,.476.007.721.229.726.645s-.238.662-.7.666q-1.254.012-2.508,0a.625.625,0,0,1-.7-.644c-.007-.408.253-.658.711-.667C1384.138,1369.035,1384.544,1369.041,1384.95,1369.041Z" transform="translate(-45.357 -39.675)" fill="#133d60"/>
      <path id="Trazado_126856" data-name="Trazado 126856" d="M1384.987,1385.64c.432,0,.864-.008,1.3,0a.642.642,0,0,1,.04,1.284q-1.35.026-2.7,0a.589.589,0,0,1-.6-.654.6.6,0,0,1,.634-.626C1384.1,1385.631,1384.543,1385.641,1384.987,1385.64Z" transform="translate(-45.358 -51.037)" fill="#133d60"/>
    </g>
  </g>
</svg>
