<svg xmlns="http://www.w3.org/2000/svg" width="63" height="63" viewBox="0 0 63 63">
  <g id="Grupo_134902" data-name="Grupo 134902" transform="translate(-2744 9053.281)">
    <path id="Trazado_146414" data-name="Trazado 146414" d="M31.5,0A31.5,31.5,0,1,1,0,31.5,31.5,31.5,0,0,1,31.5,0Z" transform="translate(2744 -9053.281)" fill="#78b62e"/>
    <g id="Grupo_133765" data-name="Grupo 133765" transform="translate(1355.365 -10110.826)">
      <path id="Trazado_126857" data-name="Trazado 126857" d="M1402.635,1115.243c.159-.34.451-.389.787-.388q3.865.008,7.73,0h.429v-1.2c-.526,0-1.046,0-1.567,0-.233,0-.466,0-.7-.01a.51.51,0,0,1-.017-1.019c.558-.027,1.118-.016,1.678-.02.2,0,.391,0,.6,0v-1.2h-.341c-1.317,0-2.635.006-3.952-.005a.437.437,0,0,0-.454.273,1.611,1.611,0,0,1-1.842.8,1.641,1.641,0,0,1-.025-3.173,1.608,1.608,0,0,1,1.853.774.466.466,0,0,0,.484.285c1.306-.01,2.612,0,3.917-.006.114,0,.227-.01.38-.017,0-.341-.01-.665,0-.987a4.9,4.9,0,0,1,.078-.764.52.52,0,1,1,1.031.135q-.036,6.328-.061,12.657a1.723,1.723,0,0,0,1.222,1.792,2.526,2.526,0,0,0,.689.09q5.964.008,11.927,0c.22,0,.44-.042.661-.055.368-.021.6.145.634.449a.524.524,0,0,1-.516.586c-.45.05-.906.05-1.359.072l-.328.015c0,.61-.031,1.2.016,1.788a1.144,1.144,0,0,0,.344.626c1.068,1.092,2.159,2.161,3.228,3.251.166.169.3.11.465.064a1.637,1.637,0,1,1,.869,3.157,1.6,1.6,0,0,1-2-1.165,2.071,2.071,0,0,1,.019-.89.439.439,0,0,0-.133-.481c-1.029-1.016-2.039-2.05-3.074-3.06a2.479,2.479,0,0,1-.81-1.966c.018-.429,0-.859,0-1.313h-1.2c0,.653,0,1.291,0,1.929,0,.57-.163.831-.52.838s-.529-.257-.53-.821c0-.639,0-1.279,0-1.945h-1.2v.457q0,3.812,0,7.625a2.66,2.66,0,0,1-.025.417.472.472,0,0,1-.511.428.465.465,0,0,1-.486-.416,2.836,2.836,0,0,1-.027-.452q0-3.795,0-7.59v-.472h-1.2c0,.143,0,.287,0,.432,0,.583.007,1.166,0,1.748a.523.523,0,1,1-1.038.006c-.016-.582-.006-1.166-.007-1.748v-.438h-1.2v.815c0,1.154.005,2.309,0,3.463a.435.435,0,0,0,.262.461,1.609,1.609,0,0,1,.816,1.836,1.641,1.641,0,0,1-3.173.047,1.614,1.614,0,0,1,.79-1.877.418.418,0,0,0,.265-.425c-.01-1.341-.005-2.681-.006-4.022,0-.091-.009-.183-.019-.348-.447,0-.886.02-1.323,0a2.774,2.774,0,0,1-2.585-2.9c0-.314,0-.627,0-.95-.653,0-1.288-.027-1.918.017a1.048,1.048,0,0,0-.547.346q-1.607,1.584-3.188,3.193a.469.469,0,0,0-.107.379,1.656,1.656,0,0,1-1.038,2.086,1.639,1.639,0,0,1-2.092-1.073,1.313,1.313,0,0,0-.075-.151v-.7a.536.536,0,0,0,.073-.106,1.649,1.649,0,0,1,2.124-1.078.471.471,0,0,0,.374-.122c.99-.972,1.989-1.935,2.941-2.943a2.754,2.754,0,0,1,2.33-.953c.366.028.735,0,1.1,0v-1.2h-.4c-.571,0-1.142.006-1.713,0-.416-.006-.655-.2-.659-.521s.238-.515.649-.525c.268-.006.536,0,.8,0h1.318v-1.2h-.431q-3.864,0-7.727,0c-.336,0-.628-.048-.787-.388Zm1.64,9.088a.6.6,0,0,0-.585.574.591.591,0,1,0,1.181.022A.594.594,0,0,0,1404.275,1124.331Zm25.808,6.724a.591.591,0,0,0-.009,1.182.591.591,0,1,0,.009-1.182Zm-24.689-19.576a.586.586,0,0,0,.6-.591.6.6,0,0,0-.579-.582.606.606,0,0,0-.6.6A.593.593,0,0,0,1405.393,1111.479Zm11.247,19.04a.586.586,0,0,0-.571-.584.6.6,0,0,0-.6.593.611.611,0,0,0,.578.588A.592.592,0,0,0,1416.641,1130.52Z" transform="translate(0 -25.295)" fill="#133d60"/>
      <path id="Trazado_126858" data-name="Trazado 126858" d="M1436.653,1072.179a.746.746,0,0,1,.388.787q-.009,3.865,0,7.73v.429h1.2c0-.525,0-1.046,0-1.566,0-.233,0-.466.01-.7a.509.509,0,0,1,1.018-.018c.027.558.017,1.118.021,1.678,0,.195,0,.39,0,.6h1.2v-.34c0-1.318-.006-2.635.006-3.952a.437.437,0,0,0-.273-.454,1.61,1.61,0,0,1-.8-1.842,1.641,1.641,0,0,1,3.172-.026,1.607,1.607,0,0,1-.773,1.853.467.467,0,0,0-.285.484c.01,1.306,0,2.611.006,3.917,0,.114.01.228.017.382a3.836,3.836,0,0,1,3.082.812,3.778,3.778,0,0,1,.822,3.081c.645,0,1.259.03,1.867-.017a1.1,1.1,0,0,0,.586-.349c1.081-1.062,2.145-2.141,3.222-3.208a.358.358,0,0,0,.09-.428,1.617,1.617,0,0,1,.731-1.9,1.642,1.642,0,0,1,2.237,2.26,1.609,1.609,0,0,1-1.907.706.375.375,0,0,0-.448.133c-1.02,1.025-2.053,2.036-3.062,3.071a2.481,2.481,0,0,1-1.964.816c-.429-.018-.859,0-1.318,0v1.2c.631,0,1.257,0,1.883,0a2.973,2.973,0,0,1,.452.029.468.468,0,0,1,.42.517.459.459,0,0,1-.457.484c-.547.019-1.1.015-1.643.018-.218,0-.437,0-.667,0v1.2h.424q3.83,0,7.66,0c.162,0,.363-.034.478.047.16.112.355.318.353.481s-.2.364-.362.474a.943.943,0,0,1-.478.045q-3.795,0-7.59,0h-.477v1.2h1.787c.151,0,.3-.005.454.008a.525.525,0,0,1,.525.5.51.51,0,0,1-.505.521c-.547.025-1.1.014-1.643.017h-.617v1.175c.112.007.214.019.316.019,1.329,0,2.658,0,3.987.005a.411.411,0,0,0,.429-.256,1.613,1.613,0,0,1,1.833-.824,1.642,1.642,0,0,1,.06,3.173,1.611,1.611,0,0,1-1.88-.782.442.442,0,0,0-.457-.271c-1.421.011-2.842.005-4.315.005,0,.309.01.6,0,.882a6.88,6.88,0,0,1-.075.869.528.528,0,0,1-.587.477.534.534,0,0,1-.446-.608q.032-6.346.057-12.692a1.727,1.727,0,0,0-1.852-1.835q-6.033-.01-12.067,0c-.2,0-.394.044-.591.055a.521.521,0,1,1-.125-1.031c.473-.053.953-.053,1.429-.076l.249-.011c0-.642.027-1.277-.017-1.906a1.046,1.046,0,0,0-.346-.547q-1.583-1.607-3.192-3.189a.468.468,0,0,0-.379-.109,1.643,1.643,0,1,1-.978-3.136.685.685,0,0,0,.116-.068h.63a.476.476,0,0,0,.089.054,1.64,1.64,0,0,1,1.165,2.157.475.475,0,0,0,.13.37q1.545,1.569,3.111,3.116a2.412,2.412,0,0,1,.775,1.873c-.014.451,0,.9,0,1.371h1.2v-.438c0-.583-.009-1.165.007-1.748a.523.523,0,1,1,1.038,0c.012.512,0,1.025,0,1.538,0,.216,0,.431,0,.647h1.2v-.434q0-3.862,0-7.724a.746.746,0,0,1,.389-.786Zm-9.661,2.236a.592.592,0,0,0,.57-.62.6.6,0,0,0-.6-.562.625.625,0,0,0-.582.588A.611.611,0,0,0,1426.992,1074.415Zm26.375,6.151a.591.591,0,1,0-1.182-.022.591.591,0,0,0,1.182.022Zm-12.382-5.03a.6.6,0,0,0,.606-.591.614.614,0,0,0-.576-.589.591.591,0,0,0-.029,1.181Zm11.261,19.035a.59.59,0,0,0-1.181.009.6.6,0,0,0,.611.584A.606.606,0,0,0,1452.246,1094.57Z" transform="translate(-15.969)" fill="#133d60"/>
      <path id="Trazado_126859" data-name="Trazado 126859" d="M1449.823,1123.307a2.651,2.651,0,0,1-1.717.816,2.346,2.346,0,0,1-2.577-1.98.49.49,0,0,0-.175-.314,2.613,2.613,0,0,1-.664-3.575.328.328,0,0,0,0-.3,2.392,2.392,0,0,1,1.254-3.642c.075-.029.148-.061.238-.1a1.849,1.849,0,0,1,1.083-2.1,2.156,2.156,0,0,1,2.452.312,8.236,8.236,0,0,1,1.468-.511,1.948,1.948,0,0,1,2.28,2.108c-.038.22.113.237.253.3a2.443,2.443,0,0,1,1.656,2.14,2.11,2.11,0,0,1-.515,1.584c-.143.168-.174.276-.018.468a2.282,2.282,0,0,1-.379,3.312,1.052,1.052,0,0,0-.417.633,2.379,2.379,0,0,1-2.454,1.673A2.632,2.632,0,0,1,1449.823,1123.307Zm4.052-2.365a1.275,1.275,0,0,0-.227-2.106c-.528-.367-.536-.725-.009-1.081a1.3,1.3,0,0,0,.673-1.317,1.412,1.412,0,0,0-1.036-1.158,2.159,2.159,0,0,0-1.4.042.515.515,0,0,1-.331-.976,2.885,2.885,0,0,1,.465-.147c.463-.111.587-.466.27-.855a1.071,1.071,0,0,0-1.161-.375.907.907,0,0,0-.769.8c-.037.307-.171.54-.521.544-.37,0-.5-.243-.541-.562a.862.862,0,0,0-.521-.692,1.186,1.186,0,0,0-1.331.191c-.289.282-.295.584-.022,1.106a.518.518,0,0,1-.4.806,3.808,3.808,0,0,0-.965.267,1.254,1.254,0,0,0-.47,1.93c.319-.113.63-.243.952-.33a.43.43,0,0,1,.573.266.875.875,0,0,1-.086.573c-.055.107-.247.161-.387.205a1.987,1.987,0,0,0-1.08.786,1.447,1.447,0,0,0,.291,1.945,2.508,2.508,0,0,1,.245-.284c.093-.081.218-.2.312-.19a.959.959,0,0,1,.535.222.452.452,0,0,1-.056.633,1.051,1.051,0,0,0-.265,1.065,1.367,1.367,0,0,0,1.433.832,1.219,1.219,0,0,0,1.23-1.109,11.282,11.282,0,0,0-.006-1.222,1.07,1.07,0,0,0-.624-.905c-.1-.056-.213-.1-.313-.154a.512.512,0,0,1-.242-.682.5.5,0,0,1,.647-.267c.173.053.338.132.553.217v-.385c0-.793-.005-1.586,0-2.378,0-.393.2-.622.508-.63s.522.231.537.639c.006.157,0,.315,0,.518a2.3,2.3,0,0,1,.345-.142,7.815,7.815,0,0,1,1.056-.19.44.44,0,0,1,.473.459.472.472,0,0,1-.393.537,2.683,2.683,0,0,1-.276.047,1.225,1.225,0,0,0-1.2,1.352q-.006,1.469,0,2.938a1.265,1.265,0,0,0,1.306,1.368,1.223,1.223,0,0,0,1.383-1.385,1.283,1.283,0,0,0-.847-.858.52.52,0,0,1-.315-.712.546.546,0,0,1,.745-.237A2.5,2.5,0,0,1,1453.875,1120.942Z" transform="translate(-29.273 -27.922)" fill="#133d60"/>
    </g>
  </g>
</svg>
