<svg xmlns="http://www.w3.org/2000/svg" width="63" height="63" viewBox="0 0 63 63">
  <g id="Grupo_134126" data-name="Grupo 134126" transform="translate(-648 -2629)">
    <path id="Trazado_146401" data-name="Trazado 146401" d="M31.5,0A31.5,31.5,0,1,1,0,31.5,31.5,31.5,0,0,1,31.5,0Z" transform="translate(648 2629)" fill="#78b62e"/>
    <g id="Grupo_134123" data-name="Grupo 134123" transform="translate(-905.461 -47.264)">
      <path id="Trazado_147338" data-name="Trazado 147338" d="M1567.477,2699.029a.582.582,0,0,0,1.146.086,1.7,1.7,0,0,0,.029-.43c0-2.959.006-5.918-.006-8.877,0-.29.06-.367.361-.367q9.963.015,19.925,0c.284,0,.374.052.37.358-.018,1.578-.011,3.156-.008,4.735a1.245,1.245,0,0,0,1.392,1.384c1.591,0,3.183.009,4.774-.008.3,0,.369.082.361.371-.021.828,0,1.657-.01,2.486a.613.613,0,0,0,.33.619c.426.211.848-.1.852-.636.008-.96-.017-1.921.01-2.881a1.684,1.684,0,0,0-.555-1.326q-2.889-2.859-5.75-5.745a1.943,1.943,0,0,0-.8-.537H1568.27a1.316,1.316,0,0,0-.81,1.375c.024,3.011.01,6.023.01,9.035A3.213,3.213,0,0,0,1567.477,2699.029Zm23-8.637,4.346,4.346h-3.048c-.355,0-.71-.005-1.065,0-.16,0-.237-.035-.236-.217C1590.479,2693.136,1590.476,2691.748,1590.476,2690.392Z" transform="translate(0 0)" fill="#133d60"/>
      <path id="Trazado_147339" data-name="Trazado 147339" d="M1635.633,2714.637q-.315-.161-.635-.312a1.582,1.582,0,0,0-2.276.773q-5.8,11.77-11.595,23.541a1.288,1.288,0,0,0-.136.685c.028.354.034.71.05,1.064h-.009c.022.381.056.762.062,1.143a.85.85,0,0,0,.46.846.883.883,0,0,0,.959-.13q.883-.63,1.777-1.242a1.6,1.6,0,0,0,.548-.652c.7-1.439,1.411-2.872,2.118-4.307.331-.671.667-1.338.99-2.013a.6.6,0,0,0-.294-.883c-.316-.116-.592.022-.785.41-.559,1.128-1.117,2.257-1.666,3.39-.1.207-.182.271-.4.139a6.434,6.434,0,0,0-.952-.469c-.274-.106-.309-.208-.173-.481,1.13-2.264,2.242-4.538,3.36-6.809q2.18-4.43,4.354-8.864c.125-.256.225-.323.486-.162a6.518,6.518,0,0,0,.918.449c.243.1.293.2.164.459-.607,1.192-1.19,2.4-1.781,3.6q-1.538,3.123-3.075,6.248c-.207.421-.127.742.211.91s.636.026.851-.392l.071-.141,3.615-7.343q1.772-3.6,3.543-7.2A1.583,1.583,0,0,0,1635.633,2714.637Zm-13.39,26.352v-1.475l1.241.61Zm2.115-2.8a1.28,1.28,0,0,1,.172.13c-.142.271-.257.519-.4.75-.049.08-.143-.011-.206-.042-.375-.179-.742-.381-1.124-.545-.21-.09-.186-.184-.105-.353.294-.617.288-.619.893-.322C1623.844,2737.93,1624.1,2738.054,1624.357,2738.185Zm9.281-18.4c-.042.076-.122.02-.175-.006-.412-.2-.819-.412-1.235-.607-.13-.061-.127-.113-.08-.237.269-.717.275-.723.965-.383.235.116.467.237.7.351.082.039.161.073.188.157C1633.876,2719.318,1633.764,2719.555,1633.638,2719.784Zm1.761-3.615a2.042,2.042,0,0,1-.085.229c-.21.435-.434.864-.634,1.3-.092.2-.183.234-.382.124-.341-.191-.7-.359-1.054-.518-.179-.08-.237-.148-.131-.344.241-.448.461-.907.682-1.366a.434.434,0,0,1,.674-.222c.221.112.445.219.666.332A.427.427,0,0,1,1635.4,2716.17Z" transform="translate(-34.206 -16.519)" fill="#133d60"/>
      <path id="Trazado_147340" data-name="Trazado 147340" d="M1596.975,2738.36a.54.54,0,0,0-.553-.419.531.531,0,0,0-.548.372,1.506,1.506,0,0,0-.04.467c0,3.552-.008,7.1.008,10.656,0,.376-.079.47-.464.47q-13.124-.019-26.247,0c-.368,0-.472-.066-.472-.458q.02-12.61.009-25.221a1.971,1.971,0,0,0-.031-.469.581.581,0,0,0-1.144.088c-.01.1-.005.21-.005.315q0,12.788,0,25.575c0,.974.377,1.344,1.366,1.344h26.8c.972,0,1.361-.388,1.361-1.359q0-5.467,0-10.933A1.671,1.671,0,0,0,1596.975,2738.36Z" transform="translate(-0.017 -22.395)" fill="#133d60"/>
      <path id="Trazado_147341" data-name="Trazado 147341" d="M1575.338,2748.638a1.131,1.131,0,0,0,1.164,1.179q1.558.026,3.116,0a1.154,1.154,0,0,0,1.177-1.215q.012-1.519,0-3.037a1.109,1.109,0,0,0-1.1-1.2q-1.635-.052-3.272,0a1.089,1.089,0,0,0-1.091,1.158c-.013.512,0,1.025,0,1.538S1575.325,2748.113,1575.338,2748.638Zm1.174-2.864c0-.187.058-.25.247-.249q1.319.012,2.638,0c.176,0,.221.065.22.23-.006.879-.01,1.759,0,2.638,0,.231-.1.25-.284.247-.433-.01-.866,0-1.3,0s-.84-.01-1.26,0c-.211.008-.267-.068-.265-.27Q1576.525,2747.073,1576.512,2745.774Z" transform="translate(-5.03 -35.835)" fill="#133d60"/>
      <path id="Trazado_147342" data-name="Trazado 147342" d="M1575.337,2728.882a1.105,1.105,0,0,0,1.119,1.176q1.616.044,3.233,0a1.117,1.117,0,0,0,1.106-1.193q.012-1.519,0-3.037a1.147,1.147,0,0,0-1.166-1.223q-1.577-.03-3.155,0a1.117,1.117,0,0,0-1.136,1.163c-.014.526,0,1.051,0,1.577S1575.325,2728.37,1575.337,2728.882Zm1.175-2.865c0-.189.059-.246.248-.245.867.008,1.734.011,2.6,0,.218,0,.259.076.257.273q-.013,1.3,0,2.6c0,.187-.051.253-.244.248-.433-.012-.867,0-1.3,0s-.841-.008-1.261,0c-.205.006-.307-.03-.3-.275C1576.524,2727.751,1576.52,2726.884,1576.512,2726.017Z" transform="translate(-5.029 -23.212)" fill="#133d60"/>
      <path id="Trazado_147343" data-name="Trazado 147343" d="M1575.34,2768.433a1.123,1.123,0,0,0,1.16,1.137q1.558.014,3.116,0a1.142,1.142,0,0,0,1.177-1.169q.019-1.557,0-3.116a1.126,1.126,0,0,0-1.169-1.168q-1.558-.016-3.116,0a1.112,1.112,0,0,0-1.171,1.161c-.013.513,0,1.026,0,1.538h0C1575.337,2767.355,1575.323,2767.895,1575.34,2768.433Zm1.171-2.877c0-.2.046-.277.26-.268.433.016.867,0,1.3,0s.867.008,1.3,0c.186,0,.248.047.246.241-.01.88-.008,1.761,0,2.641,0,.168-.042.227-.219.225q-1.321-.012-2.641,0c-.182,0-.25-.041-.247-.237Q1576.527,2766.857,1576.511,2765.556Z" transform="translate(-5.029 -48.468)" fill="#133d60"/>
      <path id="Trazado_147344" data-name="Trazado 147344" d="M1580.788,2706.017a1.121,1.121,0,0,0-1.129-1.133q-1.6-.026-3.195,0a1.1,1.1,0,0,0-1.126,1.126q-.025,1.6,0,3.195a1.108,1.108,0,0,0,1.16,1.132c.513.01,1.026,0,1.538,0h1.617a1.131,1.131,0,0,0,1.135-1.126Q1580.813,2707.615,1580.788,2706.017Zm-1.415,3.142c-.433-.013-.866,0-1.3,0s-.893-.006-1.339,0c-.169,0-.227-.045-.226-.221q.012-1.319,0-2.639c0-.19.055-.243.242-.241q1.32.014,2.639,0c.167,0,.227.041.225.218q-.013,1.319,0,2.639C1579.617,2709.1,1579.564,2709.164,1579.373,2709.159Z" transform="translate(-5.026 -10.613)" fill="#133d60"/>
      <path id="Trazado_147345" data-name="Trazado 147345" d="M1606.715,2734.874a.532.532,0,0,0-.393-.6,1.415,1.415,0,0,0-.426-.043q-6.091,0-12.182,0a1.661,1.661,0,0,0-.353.018.58.58,0,0,0-.454.713.625.625,0,0,0,.694.451c2.076-.007,4.153,0,6.229,0h6.032a2.192,2.192,0,0,0,.354-.008A.544.544,0,0,0,1606.715,2734.874Z" transform="translate(-16.248 -29.371)" fill="#133d60"/>
      <path id="Trazado_147346" data-name="Trazado 147346" d="M1593.812,2726.906a2.945,2.945,0,0,0-.394.013.54.54,0,0,0-.506.557.531.531,0,0,0,.438.575,1.826,1.826,0,0,0,.429.038q6.039,0,12.078,0a1.694,1.694,0,0,0,.505-.056.578.578,0,0,0-.079-1.1,2.233,2.233,0,0,0-.432-.021h-12.038Z" transform="translate(-16.264 -24.693)" fill="#133d60"/>
      <path id="Trazado_147347" data-name="Trazado 147347" d="M1605.554,2755.133a.566.566,0,0,0,.619-.645c-.034-.369-.283-.533-.823-.534q-5.8,0-11.6,0a1.463,1.463,0,0,0-.466.055.53.53,0,0,0-.375.581.539.539,0,0,0,.455.522,2.238,2.238,0,0,0,.433.023h9.747C1604.212,2755.138,1604.883,2755.146,1605.554,2755.133Z" transform="translate(-16.26 -41.979)" fill="#133d60"/>
      <path id="Trazado_147348" data-name="Trazado 147348" d="M1593.565,2747.816c.066,0,.131,0,.2,0H1604.5a1.262,1.262,0,0,0,.468-.041.578.578,0,0,0,.345-.8.657.657,0,0,0-.69-.346c-1.828,0-3.657,0-5.486,0h-2.368c-1.066,0-2.132,0-3.2,0a.6.6,0,0,0-.673.563C1592.884,2747.555,1593.145,2747.8,1593.565,2747.816Z" transform="translate(-16.255 -37.299)" fill="#133d60"/>
      <path id="Trazado_147349" data-name="Trazado 147349" d="M1603.469,2767.53a.572.572,0,0,0,.551-.565.582.582,0,0,0-.548-.608,3.072,3.072,0,0,0-.355,0h-9.271a3.652,3.652,0,0,0-.394,0,.579.579,0,0,0-.55.6.57.57,0,0,0,.547.568,2.509,2.509,0,0,0,.315.005h9.39A2.511,2.511,0,0,0,1603.469,2767.53Z" transform="translate(-16.258 -49.9)" fill="#133d60"/>
      <path id="Trazado_147350" data-name="Trazado 147350" d="M1593.645,2715.686q4.558,0,9.115,0c.488,0,.773-.225.773-.6s-.281-.588-.774-.588h-4.538q-2.289,0-4.577,0c-.469,0-.736.208-.748.569C1592.884,2715.449,1593.165,2715.686,1593.645,2715.686Z" transform="translate(-16.254 -16.767)" fill="#133d60"/>
      <path id="Trazado_147351" data-name="Trazado 147351" d="M1593.374,2708.308a2.294,2.294,0,0,0,.393.016h6.745c.8,0,1.6.006,2.406,0a.585.585,0,0,0,.618-.579.61.61,0,0,0-.575-.591,1.307,1.307,0,0,0-.158,0q-4.6,0-9.191,0a.938.938,0,0,0-.346.055.578.578,0,0,0,.108,1.1Z" transform="translate(-16.258 -12.067)" fill="#133d60"/>
      <path id="Trazado_147352" data-name="Trazado 147352" d="M1601.75,2773.734a2.273,2.273,0,0,0-.432-.022q-1.873,0-3.746,0h-3.155c-.329,0-.658-.008-.985.016a.528.528,0,0,0-.52.541.54.54,0,0,0,.459.6,1.563,1.563,0,0,0,.351.029q3.844,0,7.69,0a1.286,1.286,0,0,0,.426-.056.576.576,0,0,0-.088-1.1Z" transform="translate(-16.264 -54.604)" fill="#133d60"/>
    </g>
  </g>
</svg>
