<svg xmlns="http://www.w3.org/2000/svg" width="63" height="63" viewBox="0 0 63 63">
  <g id="Grupo_134125" data-name="Grupo 134125" transform="translate(-925 -2629)">
    <path id="Trazado_146402" data-name="Trazado 146402" d="M31.5,0A31.5,31.5,0,1,1,0,31.5,31.5,31.5,0,0,1,31.5,0Z" transform="translate(925 2629)" fill="#78b62e"/>
    <g id="Grupo_134124" data-name="Grupo 134124" transform="translate(939 2639)">
      <path id="Trazado_147353" data-name="Trazado 147353" d="M1809.118,2729.675a4.169,4.169,0,0,1-2.311-1.243,3.938,3.938,0,0,1-.95-2.666c0-.129,0-.259-.011-.389a.259.259,0,0,0-.029-.077,11.025,11.025,0,0,1-1.574-.189,3.683,3.683,0,0,1-2.82-3.812q-.006-6.925,0-13.85,0-9.067,0-18.134a3.614,3.614,0,0,1,2.116-3.57,4.523,4.523,0,0,1,1.836-.382q11.578-.038,23.155-.016a3.724,3.724,0,0,1,3.934,3.853c0,.171,0,.343,0,.517a11.654,11.654,0,0,1,1.6.189,3.687,3.687,0,0,1,2.831,3.806q.008,4.545,0,9.089,0,11.448,0,22.9a3.712,3.712,0,0,1-2.139,3.61,7.84,7.84,0,0,1-1.142.37Zm18.905-42.832c0,.585,0,1.131,0,1.677q0,1.71,0,3.419a.712.712,0,0,1-.448.724.739.739,0,0,1-.836-.181q-.186-.181-.369-.366l-1.3-1.329c-.542.556-1.039,1.056-1.523,1.569a.832.832,0,0,1-.959.311.823.823,0,0,1-.473-.888c.007-1.327,0-2.655,0-3.981v-.979h-.426q-8.159,0-16.317,0a2.257,2.257,0,0,0-2.466,2.482q0,15.993,0,31.985a2.261,2.261,0,0,0,2.469,2.481q11.578,0,23.156,0a2.241,2.241,0,0,0,2.454-2.447q.008-16.036-.008-32.072a2.847,2.847,0,0,0-.277-1.245A2.4,2.4,0,0,0,1828.023,2686.844Zm4.443,4.46v.622q0,14.611,0,29.221a4.284,4.284,0,0,1-.375,1.977,3.737,3.737,0,0,1-3.621,2.126H1807.4a2.313,2.313,0,0,0,2.389,2.95q11.581,0,23.16,0a2.257,2.257,0,0,0,2.471-2.478q0-16,0-31.991A2.327,2.327,0,0,0,1832.466,2691.3Zm-5.961-1.082v-3.364h-2.887v3.242l.089.059c.241-.261.472-.533.725-.783a.777.777,0,0,1,1.271-.011C1825.956,2689.611,1826.186,2689.879,1826.505,2690.222Z" transform="translate(-1801.421 -2685.343)" fill="#133d60"/>
      <path id="Trazado_147354" data-name="Trazado 147354" d="M1820.341,2729.049l.859-.969,1.03,1.107c-.5.5-1.041,1.066-1.614,1.607a.925.925,0,0,0-.306.757c.017,1.126.008,2.251.006,3.377,0,.794-.246,1.05-1.024,1.051q-2.684.006-5.368,0c-.757,0-1-.256-1.006-1.024q-.006-2.684,0-5.368c0-.751.264-1,1.026-1.006,1.789,0,3.579-.015,5.368.012a3.886,3.886,0,0,1,.977.274Zm-1.522,3.673-.1-.062c-.267.281-.523.573-.8.84a.661.661,0,0,1-.97.1c-.527-.5-1-1.057-1.441-1.53l.941-1.049.891,1c.5-.509.964-.96,1.4-1.437.094-.1.087-.3.136-.492h-4.438v4.377h4.389Z" transform="translate(-1808.48 -2711.592)" fill="#133d60"/>
      <path id="Trazado_147355" data-name="Trazado 147355" d="M1820.276,2702.269l.959-1.035,1,1.116c-.5.5-1.051,1.068-1.622,1.612a.881.881,0,0,0-.3.713c.016,1.153.009,2.306.005,3.459,0,.759-.251,1-1.018,1q-2.7,0-5.406,0c-.708,0-.97-.252-.972-.959q-.009-2.724,0-5.448c0-.716.256-.965.964-.967,1.8,0,3.6,0,5.406,0A.924.924,0,0,1,1820.276,2702.269Zm-1.459,3.625-.112-.077c-.264.283-.514.58-.793.847a.7.7,0,0,1-1.01.083c-.521-.488-1-1.02-1.46-1.495l1.035-1.081.872.99c.472-.477.918-.906,1.333-1.364a1.592,1.592,0,0,0,.191-.53h-4.445v4.365h4.389Z" transform="translate(-1808.48 -2695.103)" fill="#133d60"/>
      <path id="Trazado_147356" data-name="Trazado 147356" d="M1812.917,2757.981c0-.909-.005-1.817,0-2.726.005-.725.271-.985,1-.986q2.7,0,5.41,0c.717,0,.984.273.985,1q.005,2.7,0,5.41c0,.707-.263.978-.96.98q-2.748.01-5.5,0c-.674,0-.933-.273-.939-.956C1812.91,2759.8,1812.917,2758.89,1812.917,2757.981Zm1.51-2.211v4.363a.678.678,0,0,0,.148.043c1.327,0,2.653,0,3.98.01.281,0,.286-.159.285-.364,0-1.255,0-2.509,0-3.764a1.867,1.867,0,0,0-.046-.289Z" transform="translate(-1808.48 -2727.676)" fill="#133d60"/>
      <path id="Trazado_147357" data-name="Trazado 147357" d="M1847.151,2740.967v1.423h-7.333v-1.423Z" transform="translate(-1825.004 -2719.507)" fill="#133d60"/>
      <path id="Trazado_147358" data-name="Trazado 147358" d="M1839.8,2715.564v-1.422h7.328v1.422Z" transform="translate(-1824.993 -2703.031)" fill="#133d60"/>
      <path id="Trazado_147359" data-name="Trazado 147359" d="M1839.819,2767.257v-1.423h7.33v1.423Z" transform="translate(-1825.005 -2734.78)" fill="#133d60"/>
      <path id="Trazado_147360" data-name="Trazado 147360" d="M1839.822,2706.478h4.368v1.429h-4.368Z" transform="translate(-1825.007 -2698.324)" fill="#133d60"/>
      <path id="Trazado_147361" data-name="Trazado 147361" d="M1844.19,2734.726h-4.364V2733.3h4.364Z" transform="translate(-1825.009 -2714.8)" fill="#133d60"/>
      <path id="Trazado_147362" data-name="Trazado 147362" d="M1839.807,2759.591v-1.414h4.38v1.414Z" transform="translate(-1824.998 -2730.078)" fill="#133d60"/>
      <path id="Trazado_147363" data-name="Trazado 147363" d="M1855.142,2758.141h1.4v1.436h-1.4Z" transform="translate(-1834.416 -2730.055)" fill="#133d60"/>
    </g>
  </g>
</svg>
