<svg xmlns="http://www.w3.org/2000/svg" width="63" height="63" viewBox="0 0 63 63">
  <g id="Grupo_134900" data-name="Grupo 134900" transform="translate(-2191 9053)">
    <path id="Trazado_146410" data-name="Trazado 146410" d="M31.5,0A31.5,31.5,0,1,1,0,31.5,31.5,31.5,0,0,1,31.5,0Z" transform="translate(2191 -9053)" fill="#78b62e"/>
    <g id="Edc2to" transform="translate(1288.34 -11724.035)">
      <g id="Grupo_134135" data-name="Grupo 134135" transform="translate(913.66 2682.035)">
        <path id="Trazado_147377" data-name="Trazado 147377" d="M951.038,2721.811H914.525a1.5,1.5,0,0,1-.865-1.564q.022-18.405.01-36.811c0-.959.437-1.394,1.4-1.394q9.845,0,19.69-.007a1.719,1.719,0,0,1,1.307.547q3.669,3.69,7.36,7.358a1.718,1.718,0,0,1,.547,1.309c-.013,3.831-.007,7.662-.007,11.493v.438l.237-.128a5.006,5.006,0,0,1,7.455,3.686,26.73,26.73,0,0,1,.072,3.372.466.466,0,0,0,.253.46,2.565,2.565,0,0,1,1.3,2.25q.031,3.164,0,6.329a2.552,2.552,0,0,1-1.231,2.21A6.9,6.9,0,0,1,951.038,2721.811Zm-35.66-1.479h25.269v-.3c0-2.188,0-4.376,0-6.564a2.721,2.721,0,0,1,1.287-2.4.659.659,0,0,0,.349-.645q-.013-9.154-.006-18.307v-.456h-.5q-3.12,0-6.239,0a1.259,1.259,0,0,1-1.42-1.433q0-3.139,0-6.279v-.422H915.378Zm31.479-.251q2.085,0,4.171,0c.621,0,.73-.109.73-.735q0-3.389,0-6.778c0-.61-.113-.73-.691-.73q-4.194,0-8.387,0c-.561,0-.684.124-.685.689q0,3.435,0,6.87c0,.561.126.684.69.684Q944.772,2720.084,946.858,2720.081Zm3.446-9.937c0-1.091.013-2.143,0-3.2a3.172,3.172,0,0,0-2.886-3.116,3.053,3.053,0,0,0-3.354,2.567,30.485,30.485,0,0,0-.03,3.743Zm-15.421-26.861c0,1.611.056,5,.084,6.58a.876.876,0,0,0,.864.861l6.815.1S937.011,2685.412,934.883,2683.284Z" transform="translate(-913.66 -2682.035)" fill="#133d60"/>
        <path id="Trazado_147378" data-name="Trazado 147378" d="M933.813,2750.882q-2.734,0-5.469,0a.751.751,0,0,1-.739-1.06.741.741,0,0,1,.724-.445h2.183q4.378,0,8.755,0a.752.752,0,0,1,.756,1.049.763.763,0,0,1-.767.458q-2.484,0-4.967,0Z" transform="translate(-922.865 -2726.717)" fill="#133d60"/>
        <path id="Trazado_147379" data-name="Trazado 147379" d="M934.553,2762.7q3.056,0,6.112,0a.839.839,0,0,1,.839,1.157.812.812,0,0,1-.791.523c-.552.006-1.1,0-1.654,0H928.574a1.718,1.718,0,0,1-.362-.021.839.839,0,0,1,.2-1.66q2.818-.005,5.635,0Z" transform="translate(-922.871 -2735.557)" fill="#133d60"/>
        <path id="Trazado_147380" data-name="Trazado 147380" d="M933.147,2776.285c1.564,0,3.127,0,4.691,0a.887.887,0,1,1-.039,1.771q-2.611,0-5.222,0c-1.367,0-2.734,0-4.1,0a.881.881,0,0,1-.849-1.258.9.9,0,0,1,.888-.514C930.059,2776.287,931.6,2776.285,933.147,2776.285Z" transform="translate(-922.867 -2744.571)" fill="#133d60"/>
        <path id="Trazado_147381" data-name="Trazado 147381" d="M976.034,2721.087c-.6,0-1.2,0-1.8,0a.936.936,0,1,1,.012-1.866q1.786,0,3.573,0a.937.937,0,1,1-.012,1.866C977.215,2721.089,976.625,2721.087,976.034,2721.087Z" transform="translate(-953.188 -2706.707)" fill="#133d60"/>
        <path id="Trazado_147382" data-name="Trazado 147382" d="M976.03,2732.187c-.6,0-1.2,0-1.8,0a.934.934,0,1,1-.01-1.865q1.817-.007,3.635,0a.933.933,0,1,1,.01,1.864C977.252,2732.191,976.641,2732.187,976.03,2732.187Z" transform="translate(-953.188 -2714.072)" fill="#133d60"/>
        <path id="Trazado_147383" data-name="Trazado 147383" d="M1008.848,2779.412c0-.258-.009-.516,0-.774a1.162,1.162,0,0,1,2.323,0c.017.541.019,1.084,0,1.625a1.161,1.161,0,0,1-2.32,0C1008.837,2779.98,1008.849,2779.7,1008.848,2779.412Z" transform="translate(-976.817 -2745.379)" fill="#133d60"/>
        <path id="Trazado_147384" data-name="Trazado 147384" d="M933.328,2712.618h-6.246c-.575,0-.723-.145-.715-.73.01-.73-.011-1.464.059-2.189a2.865,2.865,0,0,1,1.732-2.42c.528-.25,1.1-.4,1.628-.655a3.669,3.669,0,0,0,1.024-.69c.278-.282.211-.439-.1-.7a3.772,3.772,0,0,1-1.488-2.753,16.406,16.406,0,0,1,.1-3.5,4.137,4.137,0,0,1,8.137.451,19.25,19.25,0,0,1-.009,3.181,3.756,3.756,0,0,1-1.553,2.681c-.191.149-.245.306-.115.468a2.639,2.639,0,0,0,.668.656,7.993,7.993,0,0,0,1.133.461c.247.1.5.186.74.292a3.135,3.135,0,0,1,2,3.02c.016.6.007,1.2,0,1.794,0,.464-.174.632-.648.633Q936.5,2712.619,933.328,2712.618Zm-5.916-1.02h11.9c0-.542.026-1.062-.005-1.579a2.124,2.124,0,0,0-1.442-1.965c-.287-.115-.578-.222-.869-.325-.952-.335-1.882-.7-2.212-1.734a12.261,12.261,0,0,1-1.455.165,11.661,11.661,0,0,1-1.429-.171,2.575,2.575,0,0,1-1.738,1.57c-.514.2-1.04.375-1.544.6a1.884,1.884,0,0,0-1.2,1.629C927.373,2710.379,927.412,2710.978,927.412,2711.6Zm9.148-10.6-.041,0c0-.365.012-.731,0-1.1a3.188,3.188,0,0,0-2.8-3.094,3.074,3.074,0,0,0-3.442,2.449,12.716,12.716,0,0,0-.08,3.009,3.153,3.153,0,0,0,6.223.449A12.471,12.471,0,0,0,936.561,2701Z" transform="translate(-922.091 -2691.164)" fill="#133d60"/>
      </g>
    </g>
  </g>
</svg>
